<?xml version="1.0" encoding="utf-8"?><!DOCTYPE svg  PUBLIC '-//W3C//DTD SVG 1.1//EN'  'http://www.w3.org/Graphics/SVG/1.1/DTD/svg11.dtd'><svg enable_background="new 0 0 2000 1333" height="1333px" pretty_print="False" style="stroke-linejoin: round; stroke:#000; fill: none;" version="1.1" viewBox="0 0 2000 1333" width="2000px" xmlns="http://www.w3.org/2000/svg" xmlns:xlink="http://www.w3.org/1999/xlink"><defs><style type="text/css"><![CDATA[path { fill-rule: evenodd; }]]></style></defs><metadata><views><view h="1333.03799872" padding="0" w="2000"><proj flip="auto" id="robinson" lon0="-73.7734130997"/><bbox h="1.33" w="1.99" x="-994.04" y="-716.32"/></view></views></metadata><g class="" id="mylayer"><path d="M1144.302338,950.359729L1201.376621,998.054255L1212.827304,1009.254587L1221.088035,1017.041193L1222.657233,1018.471720L1237.729986,1031.915442L1245.627874,1039.035594L1254.752242,1047.212405L1263.262112,1035.508028L1267.687896,1029.493293L1271.491092,1024.616487L1274.642434,1020.454950L1276.762071,1017.756456L1278.297224,1014.992940L1279.592918,1011.595444L1267.457469,1000.931551L1256.558628,990.982945L1234.765899,970.955761L1212.926585,951.221282L1198.407095,937.859112L1179.978808,921.408424L1178.289456,922.822660L1168.571473,930.527819L1157.663182,939.257098L1146.808830,948.376534L1144.302338,950.359729Z " data-cartodb-id="6" data-created-at="2013-02-26T03:34:15.278Z" data-name="Park South" data-updated-at="2013-02-26T03:34:15.516Z"/><path d="M965.963755,753.329198L973.915665,756.775239L979.159258,759.083437L987.185371,762.627013L989.893726,763.764859L992.122181,764.886450L994.323707,765.812983L1012.310162,773.664133L1100.733422,699.964703L1088.417190,689.057822L1084.037279,685.189219L1081.811400,683.124882L1079.904675,681.190582L1067.512273,670.543825L1066.823527,669.844879L1066.804417,669.861133L1052.705833,681.531929L965.963755,753.329198Z " data-cartodb-id="21" data-created-at="2013-02-26T03:34:15.278Z" data-name="Lancaster" data-updated-at="2013-02-26T03:34:15.516Z"/><path d="M186.804864,1073.206000L191.303176,1073.303538L193.388136,1073.709943L195.675277,1074.701572L196.930590,1075.595664L197.794698,1076.684831L198.414543,1079.220803L198.649954,1081.854314L198.382966,1084.341520L196.680613,1096.436194L194.499844,1107.067833L193.045448,1111.700896L190.226236,1117.471911L178.222689,1138.523998L176.475076,1142.718172L175.037634,1147.302507L172.965676,1154.813026L172.607911,1156.471194L172.565644,1160.063894L173.278719,1163.851677L175.805119,1172.809067L176.934383,1175.198791L179.236005,1177.864880L182.145801,1180.254607L183.923848,1181.587653L187.558800,1183.245833L192.425725,1184.969040L196.367738,1185.505510L204.504798,1185.846900L211.753902,1185.830644L219.471852,1185.082837L223.356741,1184.302516L238.087037,1180.595997L241.257012,1179.815678L245.329569,1179.311721L247.887975,1179.051615L251.934603,1179.051615L253.976973,1179.425518L255.492118,1180.075784L256.864455,1181.099953L257.922038,1182.254176L260.693592,1185.082837L264.871012,1190.593853L266.172468,1192.252037L267.230019,1193.796424L270.807499,1197.259105L276.589166,1201.876018L281.036867,1204.070679L286.947001,1206.249084L296.974701,1207.793477L299.056419,1208.443748L302.942294,1208.947708L308.639080,1209.207816L311.094060,1209.207816L316.480679,1208.687600L319.793365,1208.313694L325.354261,1207.289517L330.721839,1206.005233L332.010074,1205.517530L334.714679,1204.639665L338.517559,1203.160301L342.184453,1201.372059L348.911276,1197.405415L354.207031,1194.690543L358.062742,1193.097385L359.963591,1192.593428L363.646077,1192.203267L367.827630,1192.008186L372.838700,1192.300807L375.004744,1192.707224L376.866149,1193.292466L382.240121,1195.617176L386.914882,1198.559643L388.736945,1199.258683L393.208431,1200.136546L395.441945,1200.347884L403.488043,1200.445424L408.761115,1199.746385L412.361581,1198.852264L416.083473,1197.567983L421.975979,1195.779743L433.741810,1192.999845L436.115857,1192.804765L440.301885,1192.869792L442.375763,1193.308723L444.095556,1193.796424L448.906440,1195.877284L452.875404,1197.974401L456.796022,1200.445424L460.341178,1203.534206L462.264396,1204.916030L467.912723,1207.891018L469.478527,1208.590059L473.755611,1209.094019L477.863002,1208.606316L480.735042,1207.907275L482.656119,1207.110693L487.348112,1204.542125L490.541692,1202.445004L493.655483,1199.876439L502.021222,1190.935244L504.189679,1188.252889L506.135577,1185.472997L509.173086,1180.043271L510.228724,1177.458464L515.383170,1166.842890L517.005362,1164.063013L520.197929,1160.291486L524.064931,1156.519964L529.691119,1152.146953L539.908089,1145.498034L545.818576,1142.214221L549.749487,1140.637341L553.409480,1139.336822L558.594796,1138.150099L563.912708,1137.516096L573.962768,1138.215125L576.586276,1138.507741L579.223261,1138.995436L582.239033,1139.792003L584.863626,1140.783649L586.119136,1141.677756L587.923111,1143.872384L592.340188,1152.553366L595.201706,1159.998868L596.006471,1161.494473L597.163065,1163.103874L601.076891,1167.233049L604.620960,1170.208008L607.097190,1172.955376L609.436245,1178.011190L612.421626,1185.684334L614.758474,1194.609260L665.636179,1199.843925L687.487819,1179.750651L696.772558,1155.430775L705.019397,1117.650732L683.693912,1099.394843L637.050438,1046.545905L597.938003,988.625844L585.720532,969.005067L568.092416,940.541296L561.292626,929.747549L559.427548,926.756516L557.620910,923.830507L556.538194,925.244744L554.396588,927.146650L549.376719,932.884885L546.042442,935.388253L542.866678,937.745322L537.097720,940.931432L521.392236,946.718453L499.979366,961.283578L493.752059,963.299292L482.608481,965.217472L472.278271,968.761230L457.836154,969.102602L454.913646,969.752833L452.070968,970.289274L449.056519,969.996670L444.318077,973.556688L421.935570,976.108850L382.686978,981.213178L362.831333,982.855017L359.880421,984.561881L335.348739,999.874917L333.398765,999.273448L335.649229,994.055306L332.660644,993.648909L328.021748,994.347912L296.317923,1008.831932L276.978321,1017.675176L270.798938,1016.277162L269.934509,1016.553514L264.889579,1018.114088L263.235970,1018.878119L259.738772,1020.487462L248.381072,1027.623850L230.846715,1039.864654L228.136239,1041.734102L189.579897,1069.434561L186.804864,1073.206000Z " data-cartodb-id="35" data-created-at="2013-02-26T03:34:15.278Z" data-name="Normanskill" data-updated-at="2013-02-26T03:34:15.516Z"/><path d="M842.815367,698.956913L844.080676,699.509572L844.967275,699.948449L850.015034,702.159087L856.125822,704.922386L862.309684,707.669433L869.576849,710.871614L874.296511,713.017239L882.770681,716.512010L887.408416,718.348797L895.393674,722.087395L901.356238,724.850708L915.424547,730.848729L917.835015,731.872782L918.766637,732.181624L919.732002,732.392936L922.499793,733.709577L927.709519,736.115292L930.472792,737.561972L940.460870,741.788233L944.545764,743.625032L953.343782,747.509946L958.462514,750.061963L965.963755,753.329198L1052.705833,681.531929L1066.804417,669.861133L999.259997,605.526068L968.238055,575.959587L967.337163,577.861328L966.337257,577.048618L966.069557,577.666277L963.388164,583.582810L960.301784,590.669656L958.548205,594.879509L957.741592,597.171361L955.360476,602.649056L952.812259,607.167753L948.018915,614.043335L943.526207,619.309745L938.819012,624.104786L935.887104,626.770505L925.010851,635.596651L915.689425,642.813624L912.741858,645.251794L894.064216,659.474478L890.963822,661.847640L887.083263,664.838475L873.859903,675.030089L868.393187,679.175011L857.100025,687.724942L845.614469,696.908823L844.446520,697.672793L843.492116,698.404254L842.815367,698.956913Z " data-cartodb-id="37" data-created-at="2013-02-26T03:34:15.278Z" data-name="Melrose" data-updated-at="2013-02-26T03:34:15.516Z"/><path d="M1267.457469,1000.931551L1279.592918,1011.595444L1324.621314,1051.113872L1326.619517,1048.805504L1337.785434,1039.718349L1338.775588,1038.921801L1349.688593,1029.785901L1351.934134,1027.932714L1355.777837,1024.616487L1360.072240,1021.088934L1367.858563,1014.521517L1372.939661,1010.083640L1379.172766,1004.849228L1387.633419,997.696625L1389.260891,997.046390L1345.873964,956.569414L1333.958119,945.466765L1313.000223,962.941665L1294.917343,978.303385L1269.834581,998.932074L1273.058193,998.932074L1270.835096,1001.305437L1267.457469,1000.931551Z " data-cartodb-id="57" data-created-at="2013-02-26T03:34:15.278Z" data-name="Center Square" data-updated-at="2013-02-26T03:34:15.516Z"/><path d="M1108.457539,1323.852285L1111.558589,1322.372875L1113.592187,1322.616734L1123.716352,1323.884800L1133.605591,1325.169123L1155.300758,1327.851572L1162.177249,1328.680693L1167.703140,1311.903221L1181.914057,1299.271394L1233.948145,1250.288904L1245.487626,1225.789762L1257.086668,1224.310390L1275.902190,1208.346207L1258.387751,1192.121983L1250.379372,1184.302516L1242.861051,1192.398347L1214.832638,1187.944012L1176.026616,1182.514283L1174.822578,1181.587653L1174.241208,1180.303377L1172.602237,1179.815678L1163.284630,1178.401349L1163.702178,1181.408830L1163.839558,1182.806903L1163.280794,1188.561767L1162.157564,1193.178669L1158.430929,1209.272844L1154.927166,1226.049872L1108.457539,1323.852285Z " data-cartodb-id="59" data-created-at="2013-02-26T03:34:15.278Z" data-name="Second Avenue" data-updated-at="2013-02-26T03:34:15.516Z"/><path d="M824.904208,1207.712193L828.125989,1210.020655L833.814149,1214.052338L837.546336,1216.913535L848.708075,1224.895636L878.405362,1245.558135L888.830110,1253.605323L915.233437,1272.560985L942.042897,1289.874771L1003.051936,1317.837106L1048.742053,1319.316514L1072.151810,1319.300256L1072.333843,1319.007626L1073.554709,1319.300256L1090.836413,1321.755100L1096.299785,1322.340361L1104.280171,1323.332053L1108.457539,1323.852285L1154.927166,1226.049872L1158.430929,1209.272844L1162.157564,1193.178669L1163.280794,1188.561767L1163.839558,1182.806903L1163.702178,1181.408830L1163.284630,1178.401349L1172.602237,1179.815678L1174.241208,1180.303377L1174.822578,1181.587653L1176.026616,1182.514283L1184.040541,1172.516447L1181.804958,1160.210204L1183.187054,1157.186482L1187.723464,1155.495801L1189.287989,1154.520408L1189.962295,1153.740094L1190.949031,1152.602136L1195.045337,1147.188712L1201.077938,1138.865384L1205.951889,1132.021411L1207.021727,1130.330740L1200.227699,1128.249915L1194.871311,1125.990271L1193.387465,1125.209962L1192.117157,1124.202064L1191.094121,1123.064115L1190.381323,1121.926166L1187.994554,1110.059003L1186.640674,1105.702300L1184.790766,1098.370695L1184.063085,1094.582975L1182.735717,1095.574610L1176.257345,1100.386479L1174.883870,1101.199295L1168.988570,1103.426412L1162.887505,1105.117071L1143.913312,1110.920590L1142.624105,1111.489563L1105.772592,1122.771499L1096.879479,1125.632629L1075.772001,1134.524905L1045.509536,1147.855229L1041.526057,1149.350829L1034.152509,1151.561717L1026.967733,1153.187371L1017.018834,1154.146507L1011.561533,1153.935172L1008.030856,1153.691324L1000.788405,1151.854335L999.223669,1151.269100L994.983542,1149.058212L989.727177,1145.611830L980.277829,1138.296407L978.936754,1137.142197L974.264998,1134.151007L971.796471,1132.395309L965.742050,1127.550888L957.243914,1121.113345L951.974213,1117.276834L945.414120,1112.920124L937.028573,1107.132858L933.487784,1104.889483L824.904208,1207.712193Z " data-cartodb-id="76" data-created-at="2013-02-26T03:34:15.278Z" data-name="Delaware Avenue" data-updated-at="2013-02-26T03:34:15.516Z"/><path d="M1469.327910,607.834180L1513.843541,654.321797L1571.178257,713.553645L1572.465154,712.562106L1577.521689,708.937301L1603.318781,719.632924L1636.101197,726.313639L1656.749242,726.313639L1677.521365,670.641352L1684.510413,637.986053L1683.294946,630.931632L1677.783252,598.666755L1667.745003,533.520115L1666.181890,532.853700L1630.292459,517.152348L1614.107739,509.789312L1601.886403,504.262981L1589.210052,498.492848L1567.542103,488.659261L1567.544298,488.886815L1563.023765,486.790069L1562.915217,494.510649L1562.945908,513.251400L1562.993441,516.973554L1563.713790,527.912482L1564.070438,531.520871L1564.512532,534.999231L1564.586341,536.852191L1549.995844,542.736156L1536.311334,547.482344L1536.275107,543.142507L1534.560962,544.784168L1531.255067,554.341570L1531.996229,557.267310L1527.192284,561.135792L1502.287951,581.242202L1472.713386,605.103456L1470.918364,606.550089L1469.327910,607.834180Z " data-cartodb-id="80" data-created-at="2013-02-26T03:34:15.278Z" data-name="Bishop's Gate" data-updated-at="2013-02-26T03:34:15.516Z"/><path d="M889.063323,850.014527L889.627438,850.567208L891.868276,852.160227L893.980938,854.045843L902.557283,863.018785L917.256626,874.332524L921.915797,871.585363L929.423808,878.656461L937.851228,886.150213L956.666688,899.642253L964.983685,901.918023L971.552928,904.372606L974.639144,905.900625L978.177144,907.916310L983.731324,911.980195L989.209061,916.499240L992.784079,919.734099L995.856698,923.017727L1001.309529,930.690375L1009.187759,941.256545L1031.250226,961.316090L1077.066411,1005.288138L1095.722407,990.105128L1108.168347,979.815176L1121.196507,969.167625L1133.913318,958.601380L1146.808830,948.376534L1157.663182,939.257098L1168.571473,930.527819L1178.289456,922.822660L1179.978808,921.408424L1183.004579,918.937576L1188.441302,914.369761L1200.501657,904.844016L1208.395406,898.358069L1212.360833,894.846884L1238.282145,873.942394L1264.073054,852.907971L1265.633149,851.477504L1257.378247,844.341433L1240.533857,828.736402L1218.874300,808.531229L1201.726168,793.105143L1196.646649,788.488707L1172.819439,766.755770L1148.127740,744.015149L1131.515076,728.215450L1115.676817,713.960014L1101.689645,700.826202L1100.733422,699.964703L1012.310162,773.664133L994.323707,765.812983L992.122181,764.886450L989.893726,763.764859L902.839404,837.676777L903.530520,838.213200L889.063323,850.014527Z " data-cartodb-id="94" data-created-at="2013-02-26T03:34:15.278Z" data-name="Pine Hills" data-updated-at="2013-02-26T03:34:15.516Z"/><path d="M557.620910,923.830507L559.427548,926.756516L561.292626,929.747549L568.092416,940.541296L585.720532,969.005067L597.938003,988.625844L637.050438,1046.545905L668.489199,1082.163183L707.465071,1048.789248L766.168789,988.869682L765.334853,988.316983L764.709969,987.861819L767.811574,983.456483L772.352156,976.840361L773.514545,975.312315L774.937690,973.849293L778.199933,970.305530L785.115594,963.022944L787.305402,960.747139L793.132872,954.895074L815.169302,931.698224L815.259314,931.047999L815.946187,930.153939L815.126879,929.715037L783.007129,910.273363L773.082472,904.535161L771.073051,903.364764L762.800153,900.455028L841.104553,835.856190L861.853769,839.659918L876.905910,843.089778L889.627438,850.567208L889.063323,850.014527L903.530520,838.213200L902.839404,837.676777L989.893726,763.764859L987.185371,762.627013L979.159258,759.083437L973.915665,756.775239L965.963755,753.329198L958.462514,750.061963L953.343782,747.509946L944.545764,743.625032L940.460870,741.788233L930.472792,737.561972L927.709519,736.115292L922.499793,733.709577L919.732002,732.392936L918.766637,732.181624L917.835015,731.872782L915.424547,730.848729L901.356238,724.850708L895.393674,722.087395L887.408416,718.348797L882.770681,716.512010L874.296511,713.017239L869.576849,710.871614L862.309684,707.669433L856.125822,704.922386L850.015034,702.159087L844.967275,699.948449L844.080676,699.509572L842.815367,698.956913L828.750774,710.839104L815.215661,722.282452L802.837846,731.043787L785.059553,744.031404L780.658549,747.201104L777.188718,748.420220L773.010271,751.492394L758.050160,762.415699L755.613059,764.041193L754.894756,764.480077L754.180929,764.983980L752.554300,766.138082L727.252197,783.953552L708.392581,796.908830L712.168233,795.429618L711.050829,796.242372L709.991460,798.485573L703.873915,802.679387L678.527909,820.348723L669.630258,826.769523L657.465667,836.083764L656.840941,835.433554L638.370705,850.225846L637.671451,850.843548L637.063275,851.314951L618.645825,866.188579L617.999787,865.327045L596.982079,882.297675L596.566008,883.110446L594.413249,884.654712L596.469899,885.337441L598.385358,884.362115L599.266667,883.841941L602.978636,881.143540L603.599156,880.753409L604.554620,880.330769L606.210331,879.794340L608.203176,879.452976L612.913748,879.014080L608.446643,881.127284L594.906160,891.026849L584.171051,900.926438L585.583561,902.145600L588.440041,904.648949L584.679894,906.745912L577.642379,908.452743L570.865218,911.785128L566.375353,914.938706L565.341056,915.979062L560.949798,920.368067L557.620910,923.830507Z " data-cartodb-id="102" data-created-at="2013-02-26T03:34:15.278Z" data-name="Buckingham Lake-Crestwood" data-updated-at="2013-02-26T03:34:15.516Z"/><path d="M1217.004128,699.525827L1221.600359,707.994527L1223.031794,710.172660L1224.491346,712.269521L1236.904726,732.295408L1245.733950,748.062612L1260.546267,770.982061L1261.885640,773.777918L1275.157461,800.452439L1293.499952,829.939288L1310.502710,857.296906L1329.105755,887.206817L1330.090335,886.426555L1331.168203,885.922637L1341.210685,880.086937L1350.695678,874.186225L1357.737202,869.618462L1361.186595,866.741262L1372.594650,857.540736L1383.539636,848.470275L1410.328781,873.389711L1418.777358,866.936326L1424.046330,862.384826L1436.466851,851.737589L1450.603609,840.261362L1456.541315,835.726148L1457.298840,834.393219L1464.964019,828.411298L1473.619374,821.632882L1479.789726,816.463738L1495.887706,803.410867L1505.843427,795.445873L1511.928351,790.601864L1512.572359,790.065447L1508.578053,785.546545L1507.353021,784.018572L1503.117130,778.833222L1502.080934,777.110191L1501.586479,774.834492L1501.655093,772.997679L1502.022685,770.608197L1502.647638,768.722620L1503.454648,767.324694L1505.744145,764.252507L1525.160146,747.493691L1526.530223,746.339595L1528.121717,744.974186L1531.847546,742.194604L1526.305007,732.246643L1515.572367,724.086733L1485.253137,726.313639L1445.945870,718.885205L1431.115620,713.683683L1431.836670,697.363954L1396.744787,697.363954L1355.789160,692.910175L1316.668532,691.105908L1314.794226,689.155350L1307.453107,682.344660L1296.568009,672.055500L1286.183170,661.880149L1282.601013,658.239134L1254.242772,680.296579L1226.199973,704.093396L1225.372952,703.248152L1223.975050,702.142832L1222.726569,701.346352L1220.813905,700.403580L1218.126816,699.867175L1217.004128,699.525827Z " data-cartodb-id="109" data-created-at="2013-02-26T03:34:15.278Z" data-name="West Hill" data-updated-at="2013-02-26T03:34:15.516Z"/><path d="M261.850785,0.000000L217.682797,33.820420L156.830077,80.334096L73.751508,135.299556L20.595853,172.290317L0.750729,195.499098L22.783413,206.079615L56.209041,221.682268L85.273498,232.051564L180.224333,269.612035L228.717449,291.082279L249.091947,299.956462L270.281024,309.204487L288.768676,317.298556L293.074059,322.385801L293.914646,323.734816L296.472869,324.368691L305.222039,326.010264L307.297192,326.481607L308.753236,326.871684L310.531571,327.538065L313.520851,328.757056L316.201172,329.894781L319.085837,331.260051L327.129476,335.599664L330.725139,337.403774L368.440210,351.771669L375.630935,354.876051L387.706216,359.995849L401.148742,365.684520L401.733654,366.448428L408.979105,376.362990L409.890031,376.964366L416.891995,380.263808L422.442537,384.522205L425.026172,384.343417L427.661888,388.374270L442.075500,395.932130L456.409593,406.561918L457.739373,407.667157L458.625325,408.691129L472.797971,405.732988L487.210185,402.433526L493.970325,394.713120L494.727198,393.851686L495.318846,393.039012L504.479245,382.165458L512.043151,374.071261L518.738264,366.188374L527.483547,356.046290L530.267293,352.486815L533.227389,349.041115L544.182601,336.412326L550.728120,328.805815L555.054432,324.141146L536.364929,295.958202L512.865093,260.022787L469.180886,224.087683L437.067198,177.572416L400.251348,152.218400L357.307145,126.848285L333.899525,85.616080L291.852716,34.876805L261.850785,0.000000Z " data-cartodb-id="116" data-created-at="2013-02-26T03:34:15.278Z" data-name="Dunes" data-updated-at="2013-02-26T03:34:15.516Z"/><path d="M382.522541,552.927463L379.879649,561.883482L378.280208,568.060058L375.432581,583.371505L374.898948,588.962960L374.201205,598.650501L374.374517,606.290020L384.411228,651.152170L419.971884,715.634253L426.329985,725.045765L494.195951,825.582893L512.836736,851.965163L513.683349,851.038611L514.147783,850.242102L535.118415,888.019589L536.653097,890.327864L538.328178,893.010016L548.802130,889.401303L558.187698,887.223072L567.666158,886.491577L573.609721,886.036425L575.950903,886.052680L596.982079,882.297675L617.999787,865.327045L618.645825,866.188579L637.063275,851.314951L637.671451,850.843548L638.370705,850.225846L656.840941,835.433554L657.465667,836.083764L669.630258,826.769523L678.527909,820.348723L703.873915,802.679387L709.991460,798.485573L711.050829,796.242372L712.168233,795.429618L708.392581,796.908830L727.252197,783.953552L752.554300,766.138082L754.180929,764.983980L754.894756,764.480077L755.613059,764.041193L758.050160,762.415699L773.010271,751.492394L777.188718,748.420220L780.658549,747.201104L785.059553,744.031404L802.837846,731.043787L815.215661,722.282452L828.750774,710.839104L842.815367,698.956913L843.492116,698.404254L844.446520,697.672793L845.614469,696.908823L857.100025,687.724942L868.393187,679.175011L873.859903,675.030089L887.083263,664.838475L890.963822,661.847640L894.064216,659.474478L912.741858,645.251794L915.689425,642.813624L925.010851,635.596651L935.887104,626.770505L938.819012,624.104786L943.526207,619.309745L948.018915,614.043335L952.812259,607.167753L955.360476,602.649056L957.741592,597.171361L958.548205,594.879509L960.301784,590.669656L963.388164,583.582810L966.069557,577.666277L966.337257,577.048618L967.337163,577.861328L968.238055,575.959587L984.674856,541.208275L992.800251,512.666258L998.438422,455.469047L963.810683,454.526332L907.690843,441.848459L861.805785,424.928435L803.132989,394.274276L707.856155,347.757105L671.516242,333.112919L637.061968,319.216431L587.440031,318.159974L555.054432,324.141146L550.728120,328.805815L544.182601,336.412326L533.227389,349.041115L530.267293,352.486815L527.483547,356.046290L518.738264,366.188374L512.043151,374.071261L504.479245,382.165458L495.318846,393.039012L494.727198,393.851686L493.970325,394.713120L487.210185,402.433526L463.406276,428.097887L433.477663,471.446477L406.168232,505.482024L405.896982,506.148434L405.553727,506.944876L403.671856,506.148434L402.076508,509.041632L390.172114,532.707414L388.778848,535.990727L385.271609,545.027979L382.522541,552.927463Z " data-cartodb-id="124" data-created-at="2013-02-26T03:34:15.278Z" data-name="Campus Area-University District" data-updated-at="2013-02-26T03:34:15.516Z"/><path d="M1350.695678,874.186225L1368.670250,904.746483L1381.738259,926.951583L1419.568981,960.828417L1450.460148,989.032241L1462.915807,1003.142356L1466.576148,999.419751L1507.366318,1009.677241L1516.530895,999.354728L1521.704887,993.632653L1524.044583,990.609060L1525.094096,988.625844L1526.717885,986.073674L1528.226847,982.253551L1522.826499,977.116710L1520.301707,974.743362L1515.079036,969.834112L1508.891966,964.437195L1492.153111,949.335620L1484.139536,941.614170L1474.800814,932.966163L1470.527169,929.097324L1454.677118,914.743639L1448.933352,909.314286L1431.881071,893.952833L1426.845591,889.206237L1417.350199,879.843106L1410.328781,873.389711L1383.539636,848.470275L1372.594650,857.540736L1361.186595,866.741262L1357.737202,869.618462L1350.695678,874.186225Z " data-cartodb-id="129" data-created-at="2013-02-26T03:34:15.278Z" data-name="Sheridan Hollow" data-updated-at="2013-02-26T03:34:15.516Z"/><path d="M1667.745003,533.520115L1677.783252,598.666755L1683.294946,630.931632L1684.510413,637.986053L1677.521365,670.641352L1656.749242,726.313639L1662.588957,726.313639L1682.995386,722.916388L1714.369766,722.591293L1740.993455,720.364388L1763.476777,721.258401L1790.364902,730.751200L1817.809565,758.221926L1866.968786,801.265194L1871.420015,805.556542L1871.600940,805.345225L1875.277957,801.769102L1956.321068,724.655650L1970.340142,708.677226L1983.647846,692.650100L1995.109238,678.882428L1999.249271,674.396160L1993.942605,678.004679L1979.312811,670.933935L1977.108860,669.974915L1970.245269,666.967821L1961.008045,662.595348L1959.852693,662.075203L1958.705210,661.571312L1957.579082,661.083677L1957.453207,661.018658L1890.173130,631.321738L1885.130439,629.094884L1854.888026,615.733787L1834.181601,606.582598L1815.826377,598.471704L1783.067638,584.005419L1772.752391,579.437985L1765.951253,576.447213L1763.668846,575.520724L1762.254011,574.854302L1761.750561,574.594235L1761.243735,574.382931L1757.107106,572.578717L1751.343258,570.059320L1747.949463,568.563937L1744.021879,566.857250L1742.735162,566.288355L1733.613526,562.403614L1691.642456,543.695146L1671.965758,535.275550L1668.608027,533.910212L1667.745003,533.520115Z " data-cartodb-id="161" data-created-at="2013-02-26T03:34:15.278Z" data-name="North Albany-Shaker Park" data-updated-at="2013-02-26T03:34:15.516Z"/><path d="M1240.533857,828.736402L1257.378247,844.341433L1265.633149,851.477504L1264.073054,852.907971L1245.834188,867.781605L1302.232170,916.564262L1313.697912,926.821538L1318.142171,930.430285L1324.102752,935.973456L1325.322301,937.127607L1333.958119,945.466765L1345.873964,956.569414L1389.260891,997.046390L1387.633419,997.696625L1402.180125,1016.488490L1420.506227,1027.623850L1432.708401,1035.052859L1447.593414,1018.715559L1462.915807,1003.142356L1450.460148,989.032241L1419.568981,960.828417L1381.738259,926.951583L1368.670250,904.746483L1350.695678,874.186225L1341.210685,880.086937L1331.168203,885.922637L1330.090335,886.426555L1329.105755,887.206817L1310.502710,857.296906L1293.499952,829.939288L1275.157461,800.452439L1272.717276,802.321775L1266.606110,807.279584L1258.597629,813.862914L1251.475996,819.519710L1244.069955,825.842976L1240.533857,828.736402Z " data-cartodb-id="184" data-created-at="2013-02-26T03:34:15.278Z" data-name="Central Avenue" data-updated-at="2013-02-26T03:34:15.516Z"/><path d="M1186.156597,1331.037999L1189.325465,1330.924198L1193.727431,1330.599052L1200.775352,1329.526071L1204.053054,1328.745722L1207.767974,1327.754028L1212.860835,1326.014501L1217.890643,1323.949829L1226.757561,1319.836745L1229.642245,1316.796643L1238.914497,1307.448750L1246.298020,1301.108452L1256.756528,1292.817310L1259.809977,1290.264942L1260.959695,1289.435829L1262.454403,1288.232803L1264.662771,1286.525807L1268.589492,1283.436960L1291.832885,1265.196553L1286.101924,1260.075598L1280.625093,1255.117220L1274.886445,1250.370189L1274.002727,1249.687397L1269.450106,1245.216740L1266.001662,1241.884072L1262.886096,1239.071627L1240.884608,1235.560138L1233.948145,1250.288904L1181.914057,1299.271394L1167.703140,1311.903221L1162.177249,1328.680693L1178.208924,1330.615309L1186.156597,1331.037999Z " data-cartodb-id="190" data-created-at="2013-02-26T03:34:15.278Z" data-name="Krank Park-Cherry Hill" data-updated-at="2013-02-26T03:34:15.516Z"/><path d="M762.800153,900.455028L771.073051,903.364764L773.082472,904.535161L783.007129,910.273363L815.126879,929.715037L815.946187,930.153939L817.020623,930.674119L826.808456,936.379848L852.418517,951.286305L877.139013,964.242126L878.003324,964.550985L879.960106,965.249983L885.183046,967.346978L895.418844,970.744436L898.228712,971.784807L911.197983,976.482734L915.156548,977.945757L922.436392,980.920573L927.790947,982.676203L934.116612,984.821974L940.440033,987.130305L948.747273,990.137639L953.239777,991.811994L961.861769,994.884356L964.552568,995.762174L970.218561,997.046390L975.074172,998.021743L980.767165,998.915818L992.726425,999.826149L999.656959,1000.183779L1006.976393,1000.703968L1019.175087,1001.272925L1021.236489,1001.435484L1029.439389,1002.053209L1034.918857,1002.394583L1049.419503,1003.288659L1077.066411,1005.288138L1031.250226,961.316090L1009.187759,941.256545L1001.309529,930.690375L995.856698,923.017727L992.784079,919.734099L989.209061,916.499240L983.731324,911.980195L978.177144,907.916310L974.639144,905.900625L971.552928,904.372606L964.983685,901.918023L956.666688,899.642253L937.851228,886.150213L929.423808,878.656461L921.915797,871.585363L917.256626,874.332524L902.557283,863.018785L893.980938,854.045843L891.868276,852.160227L889.627438,850.567208L876.905910,843.089778L861.853769,839.659918L841.104553,835.856190L762.800153,900.455028Z " data-cartodb-id="215" data-created-at="2013-02-26T03:34:15.278Z" data-name="New Scotland" data-updated-at="2013-02-26T03:34:15.516Z"/><path d="M1436.466851,851.737589L1424.046330,862.384826L1418.777358,866.936326L1410.328781,873.389711L1417.350199,879.843106L1426.845591,889.206237L1431.881071,893.952833L1448.933352,909.314286L1454.677118,914.743639L1470.527169,929.097324L1474.800814,932.966163L1484.139536,941.614170L1492.153111,949.335620L1508.891966,964.437195L1515.079036,969.834112L1520.301707,974.743362L1522.826499,977.116710L1528.226847,982.253551L1548.733775,980.871805L1562.016640,945.986947L1582.030808,914.808661L1626.359241,879.192889L1655.465844,853.395630L1657.710043,849.868230L1663.423413,841.220422L1669.560455,831.581065L1670.141462,830.719538L1665.520857,828.752658L1663.646080,827.777345L1661.707225,826.558205L1662.245500,825.274044L1662.784907,824.103671L1663.714283,822.429386L1664.542539,821.242758L1665.580958,819.877323L1645.754137,803.492142L1597.477007,759.701125L1580.901791,755.995003L1588.696484,735.205021L1572.465154,712.562106L1570.376897,714.155071L1568.266159,715.813055L1567.904256,716.040622L1567.062437,716.642048L1565.696865,717.666098L1556.520009,724.314300L1531.847546,742.194604L1528.121717,744.974186L1526.530223,746.339595L1525.160146,747.493691L1505.744145,764.252507L1503.454648,767.324694L1502.647638,768.722620L1502.022685,770.608197L1501.655093,772.997679L1501.586479,774.834492L1502.080934,777.110191L1503.117130,778.833222L1507.353021,784.018572L1508.578053,785.546545L1512.572359,790.065447L1511.928351,790.601864L1505.843427,795.445873L1495.887706,803.410867L1479.789726,816.463738L1473.619374,821.632882L1464.964019,828.411298L1457.298840,834.393219L1456.541315,835.726148L1450.603609,840.261362L1436.466851,851.737589Z " data-cartodb-id="227" data-created-at="2013-02-26T03:34:15.278Z" data-name="Arbor Hill" data-updated-at="2013-02-26T03:34:15.516Z"/><path d="M764.709969,987.861819L765.334853,988.316983L766.168789,988.869682L771.688287,992.527253L781.142598,999.159657L790.395891,1004.735436L796.653923,1008.831932L801.672323,1011.676724L804.069740,1012.505778L805.677039,1012.733361L806.668365,1013.221040L813.716563,1018.309160L814.223456,1018.715559L814.949519,1019.268263L821.493105,1024.177574L826.274401,1027.396265L836.433824,1035.150395L846.827159,1042.579419L853.180997,1047.179893L857.861260,1050.496140L862.547164,1053.796133L867.278041,1057.356227L867.646701,1058.006473L869.077555,1058.705487L871.263728,1060.379871L881.219025,1067.711405L886.001693,1071.043925L898.271493,1079.367109L900.481329,1080.895196L909.537657,1087.316417L910.820184,1088.210511L918.295062,1093.510060L922.482138,1096.419938L926.818734,1099.638688L929.189370,1101.443140L933.487784,1104.889483L937.028573,1107.132858L945.414120,1112.920124L951.974213,1117.276834L957.243914,1121.113345L965.742050,1127.550888L971.796471,1132.395309L974.264998,1134.151007L978.936754,1137.142197L981.209438,1135.288959L998.132026,1121.178371L999.193035,1119.942884L1001.877944,1113.619148L1017.462957,1077.156262L1031.331222,1045.115369L1032.103381,1043.310943L1041.222183,1022.942118L1049.419503,1003.288659L1034.918857,1002.394583L1029.439389,1002.053209L1021.236489,1001.435484L1019.175087,1001.272925L1006.976393,1000.703968L999.656959,1000.183779L992.726425,999.826149L980.767165,998.915818L975.074172,998.021743L970.218561,997.046390L964.552568,995.762174L961.861769,994.884356L953.239777,991.811994L948.747273,990.137639L940.440033,987.130305L934.116612,984.821974L927.790947,982.676203L922.436392,980.920573L915.156548,977.945757L911.197983,976.482734L898.228712,971.784807L895.418844,970.744436L885.183046,967.346978L879.960106,965.249983L878.003324,964.550985L877.139013,964.242126L852.418517,951.286305L826.808456,936.379848L817.020623,930.674119L815.946187,930.153939L815.259314,931.047999L815.169302,931.698224L793.132872,954.895074L787.305402,960.747139L785.115594,963.022944L778.199933,970.305530L774.937690,973.849293L773.514545,975.312315L772.352156,976.840361L767.811574,983.456483L764.709969,987.861819Z " data-cartodb-id="234" data-created-at="2013-02-26T03:34:15.278Z" data-name="Helderberg" data-updated-at="2013-02-26T03:34:15.516Z"/><path d="M1243.849462,1177.669800L1244.367846,1178.628942L1250.379372,1184.302516L1258.387751,1192.121983L1275.902190,1208.346207L1257.086668,1224.310390L1245.487626,1225.789762L1240.884608,1235.560138L1262.886096,1239.071627L1266.001662,1241.884072L1269.450106,1245.216740L1274.002727,1249.687397L1274.886445,1250.370189L1280.625093,1255.117220L1286.101924,1260.075598L1291.832885,1265.196553L1316.680128,1246.257183L1320.148317,1243.558534L1322.483532,1241.250052L1326.209749,1244.794060L1331.007405,1248.907064L1337.649436,1255.881298L1345.054971,1252.093425L1350.607922,1248.045446L1353.953575,1245.428080L1355.154806,1243.981214L1356.751566,1242.014127L1359.802324,1238.063699L1370.077595,1241.900329L1370.863376,1242.046641L1371.818956,1242.404293L1373.462536,1242.957028L1374.505767,1243.217139L1407.193391,1217.628835L1424.501849,1185.212890L1427.036545,1180.726050L1382.447300,1162.713716L1365.613674,1168.647373L1346.944634,1165.721185L1339.111648,1163.250184L1337.595127,1162.486124L1335.767133,1161.218111L1331.554507,1157.560383L1326.422338,1153.479989L1315.361909,1143.563510L1312.613028,1140.588571L1309.943162,1145.075365L1306.185506,1150.992739L1299.730965,1161.006776L1298.307223,1163.136387L1291.066646,1160.551592L1280.653768,1156.763812L1263.397283,1150.765147L1261.936364,1152.650905L1257.462700,1159.039731L1251.302116,1166.875403L1244.581976,1175.784030L1243.849462,1177.669800Z " data-cartodb-id="237" data-created-at="2013-02-26T03:34:15.278Z" data-name="South End" data-updated-at="2013-02-26T03:34:15.516Z"/><path d="M999.259997,605.526068L1066.804417,669.861133L1066.823527,669.844879L1067.512273,670.543825L1079.904675,681.190582L1081.811400,683.124882L1084.037279,685.189219L1088.417190,689.057822L1170.932015,622.381821L1103.831942,506.847352L999.259997,605.526068Z " data-cartodb-id="259" data-created-at="2013-02-26T03:34:15.278Z" data-name="Upper Washington Avenue" data-updated-at="2013-02-26T03:34:15.516Z"/><path d="M668.489199,1082.163183L683.693912,1099.394843L723.527468,1133.484492L723.443164,1133.533261L733.089643,1141.563961L752.063660,1155.544570L765.293956,1164.875842L768.178340,1166.989200L780.889498,1176.027879L792.930851,1184.936527L801.064892,1190.593853L824.904208,1207.712193L933.487784,1104.889483L929.189370,1101.443140L926.818734,1099.638688L922.482138,1096.419938L918.295062,1093.510060L910.820184,1088.210511L909.537657,1087.316417L900.481329,1080.895196L898.271493,1079.367109L886.001693,1071.043925L881.219025,1067.711405L871.263728,1060.379871L869.077555,1058.705487L867.646701,1058.006473L867.278041,1057.356227L862.547164,1053.796133L857.861260,1050.496140L853.180997,1047.179893L846.827159,1042.579419L836.433824,1035.150395L826.274401,1027.396265L821.493105,1024.177574L814.949519,1019.268263L814.223456,1018.715559L813.716563,1018.309160L806.668365,1013.221040L805.677039,1012.733361L804.069740,1012.505778L801.672323,1011.676724L796.653923,1008.831932L790.395891,1004.735436L781.142598,999.159657L771.688287,992.527253L766.168789,988.869682L707.465071,1048.789248L668.489199,1082.163183Z " data-cartodb-id="260" data-created-at="2013-02-26T03:34:15.278Z" data-name="Whitehall" data-updated-at="2013-02-26T03:34:15.516Z"/><path d="M1312.613028,1140.588571L1315.361909,1143.563510L1326.422338,1153.479989L1331.554507,1157.560383L1335.767133,1161.218111L1337.595127,1162.486124L1339.111648,1163.250184L1346.944634,1165.721185L1365.613674,1168.647373L1382.447300,1162.713716L1395.173523,1146.766042L1388.815265,1143.969923L1395.924462,1147.091173L1419.002053,1120.820730L1416.530172,1120.284268L1408.022916,1117.813295L1404.330113,1116.203913L1396.059788,1112.383663L1389.038456,1109.359979L1387.769283,1108.660956L1378.630819,1102.434776L1377.988703,1100.857912L1373.898686,1096.533732L1367.985242,1090.616441L1365.676079,1088.243024L1353.434554,1102.824928L1341.304629,1112.790073L1335.009842,1118.008372L1328.825216,1123.259192L1322.419119,1128.331197L1312.613028,1140.588571Z " data-cartodb-id="261" data-created-at="2013-02-26T03:34:15.278Z" data-name="Mansion Area" data-updated-at="2013-02-26T03:34:15.516Z"/></g><g fill="#000" font-family="Arial" font-size="12px" id="mylayer-label" stroke="none"><text text-anchor="middle" y="976.368355999"><tspan dy="0" x="1214.43853267"><![CDATA[Park South]]></tspan></text><text text-anchor="middle" y="717.984922477"><tspan dy="0" x="1035.96876417"><![CDATA[Lancaster]]></tspan></text><text text-anchor="middle" y="1084.07071103"><tspan dy="0" x="437.678455491"><![CDATA[Normanskill]]></tspan></text><text text-anchor="middle" y="668.581552408"><tspan dy="0" x="961.90821402"><![CDATA[Melrose]]></tspan></text><text text-anchor="middle" y="992.435235536"><tspan dy="0" x="1328.64315349"><![CDATA[Center Square]]></tspan></text><text text-anchor="middle" y="1241.36771986"><tspan dy="0" x="1186.11768856"><![CDATA[Second Avenue]]></tspan></text><text text-anchor="middle" y="1204.92169041"><tspan dy="0" x="1023.00412755"><![CDATA[Delaware Avenue]]></tspan></text><text text-anchor="middle" y="608.80407203"><tspan dy="0" x="1595.2454021"><![CDATA[Bishop's Gate]]></tspan></text><text text-anchor="middle" y="844.614035221"><tspan dy="0" x="1081.44751613"><![CDATA[Pine Hills]]></tspan></text><text text-anchor="middle" y="870.53998341"><tspan dy="0" x="748.433667201"><![CDATA[Buckingham Lake-Crestwood]]></tspan></text><text text-anchor="middle" y="763.224845811"><tspan dy="0" x="1369.13407806"><![CDATA[West Hill]]></tspan></text><text text-anchor="middle" y="205.9326168"><tspan dy="0" x="294.861493319"><![CDATA[Dunes]]></tspan></text><text text-anchor="middle" y="577.470259164"><tspan dy="0" x="656.559487587"><![CDATA[Campus Area-University District]]></tspan></text><text text-anchor="middle" y="928.900170474"><tspan dy="0" x="1436.58830819"><![CDATA[Sheridan Hollow]]></tspan></text><text text-anchor="middle" y="666.795651008"><tspan dy="0" x="1810.14922241"><![CDATA[North Albany-Shaker Park]]></tspan></text><text text-anchor="middle" y="916.428687917"><tspan dy="0" x="1347.25926007"><![CDATA[Central Avenue]]></tspan></text><text text-anchor="middle" y="1280.36401712"><tspan dy="0" x="1227.72855697"><![CDATA[Krank Park-Cherry Hill]]></tspan></text><text text-anchor="middle" y="918.759736724"><tspan dy="0" x="909.954081442"><![CDATA[New Scotland]]></tspan></text><text text-anchor="middle" y="845.391736117"><tspan dy="0" x="1543.91679773"><![CDATA[Arbor Hill]]></tspan></text><text text-anchor="middle" y="1022.3438211"><tspan dy="0" x="915.555056838"><![CDATA[Helderberg]]></tspan></text><text text-anchor="middle" y="1196.34354917"><tspan dy="0" x="1328.06680243"><![CDATA[South End]]></tspan></text><text text-anchor="middle" y="597.116915257"><tspan dy="0" x="1089.13942784"><![CDATA[Upper Washington Avenue]]></tspan></text><text text-anchor="middle" y="1091.8001958"><tspan dy="0" x="799.027997674"><![CDATA[Whitehall]]></tspan></text><text text-anchor="middle" y="1127.23897587"><tspan dy="0" x="1363.93912902"><![CDATA[Mansion Area]]></tspan></text></g></svg>