<?xml version="1.0" encoding="utf-8"?><!DOCTYPE svg  PUBLIC '-//W3C//DTD SVG 1.1//EN'  'http://www.w3.org/Graphics/SVG/1.1/DTD/svg11.dtd'><svg enable_background="new 0 0 2000 709" height="709px" pretty_print="False" style="stroke-linejoin: round; stroke:#000; fill: none;" version="1.1" viewBox="0 0 2000 709" width="2000px" xmlns="http://www.w3.org/2000/svg" xmlns:xlink="http://www.w3.org/1999/xlink"><defs><style type="text/css"><![CDATA[path { fill-rule: evenodd; }]]></style></defs><metadata><views><view h="709.792313821" padding="0" w="2000"><proj flip="auto" id="robinson" lon0="33.0329913888"/><bbox h="1457.87" w="4113.68" x="-2026.0" y="-1284.15"/></view></views></metadata><g class="" id="mylayer"><path d="M1215.291300,338.031879L1214.532079,337.742581L1213.307721,338.366865L1212.273633,338.195236L1211.970969,338.511218L1211.742838,337.678022L1211.197740,337.172502L1209.881589,337.086590L1208.120564,337.790092L1206.800689,337.359650L1203.614353,337.663113L1205.555532,340.969279L1208.994607,342.035598L1215.578532,338.694436L1215.291300,338.031879Z " data-cartodb-id="27" data-created-at="2013-12-04T08:41:11+0100" data-name="Cyprus" data-updated-at="2013-12-04T08:41:12+0100"/><path d="M1258.216658,284.992445L1265.149043,284.615552L1272.238705,288.518757L1281.149830,287.276698L1282.500865,285.978391L1287.870814,288.265932L1291.519660,288.739529L1292.225403,287.805607L1288.092537,283.508963L1289.566645,282.417557L1285.057612,280.585441L1282.369297,277.348421L1275.926987,275.700624L1272.220466,276.937196L1270.775214,275.473625L1261.127006,271.701882L1251.290773,270.429521L1245.533614,269.085833L1244.918427,270.014178L1247.764308,272.422687L1251.549965,273.327127L1255.884900,276.227146L1258.556216,281.608758L1258.216658,284.992445Z " data-cartodb-id="75" data-created-at="2013-12-04T08:41:11+0100" data-name="Georgia" data-updated-at="2013-12-04T08:41:12+0100"/><path d="M1597.240214,396.484277L1588.976406,395.688578L1580.736532,393.821700L1574.359676,390.247635L1568.635589,388.644259L1565.474385,384.739407L1561.334106,383.573432L1553.190098,378.284109L1547.098694,375.790562L1544.673918,377.730756L1541.094651,381.411993L1539.983640,389.013695L1547.314071,392.092018L1554.641370,396.085790L1564.584082,400.654817L1574.323057,401.710728L1579.118723,405.856000L1584.647254,406.631971L1593.387326,408.531686L1599.169958,408.395435L1599.356598,405.169750L1597.420144,399.992399L1597.240214,396.484277Z " data-cartodb-id="121" data-created-at="2013-12-04T08:41:11+0100" data-name="Nepal" data-updated-at="2013-12-04T08:41:12+0100"/><path d="M1228.432748,359.805744L1225.834253,358.680673L1224.975146,364.085770L1226.794457,364.996037L1225.157214,366.111457L1225.080041,368.246284L1228.197538,367.146675L1228.962204,364.767644L1228.432748,359.805744Z " data-cartodb-id="4" data-created-at="2013-12-04T08:41:11+0100" data-name="Palestine" data-updated-at="2013-12-04T08:41:12+0100"/><path d="M1340.749562,421.922917L1343.018348,423.539283L1344.905255,422.960453L1345.959420,418.167227L1345.349533,413.395881L1342.967475,410.840890L1341.153741,411.717828L1339.709824,415.993299L1340.749562,421.922917Z " data-cartodb-id="13" data-created-at="2013-12-04T08:41:11+0100" data-name="Qatar" data-updated-at="2013-12-04T08:41:12+0100"/><path d="M1841.495601,308.614717L1841.511512,310.606973L1838.930880,311.150194L1834.400186,311.549742L1833.562655,315.280187L1830.435086,314.985543L1830.366099,315.736156L1838.216828,322.831033L1833.846380,324.228840L1840.607371,332.859821L1841.992079,339.053044L1844.624178,343.527737L1850.451493,342.825271L1854.434581,339.416835L1859.893817,337.834196L1860.464781,333.293484L1856.123404,323.741671L1851.965057,318.364641L1841.495601,308.614717Z " data-cartodb-id="102" data-created-at="2013-12-04T08:41:11+0100" data-name="South Korea (Republic of Korea)" data-updated-at="2013-12-29T19:58:09+0100"/><path d="M1571.556174,562.205299L1567.679253,553.729199L1564.040913,547.996111L1558.838030,543.472563L1556.292560,556.687363L1558.084564,568.389228L1561.755226,574.862187L1567.925283,572.999731L1570.841672,570.682487L1571.556174,562.205299Z " data-cartodb-id="108" data-created-at="2013-12-04T08:41:11+0100" data-name="Sri Lanka" data-updated-at="2013-12-04T08:41:12+0100"/><path d="M1398.890063,333.145100L1398.221630,343.412455L1397.525659,349.366467L1400.727304,350.571165L1398.665929,355.032193L1402.121252,361.519262L1403.595268,366.668460L1409.044254,368.034957L1410.532475,373.251980L1405.516620,380.605218L1417.774132,384.752848L1424.494060,383.536071L1428.800765,384.572071L1429.901635,382.791191L1434.838173,383.504794L1443.231491,380.128706L1442.211148,373.227265L1445.170344,368.639602L1450.290939,368.653843L1450.592069,366.385882L1455.626181,365.328756L1458.318299,366.083802L1460.533736,363.803267L1459.130779,358.928983L1460.973593,354.021062L1464.862091,351.959843L1460.966470,346.557772L1467.499515,346.813519L1468.686530,343.865045L1467.662555,340.710555L1470.216178,337.250950L1468.448999,333.141037L1465.993288,329.630264L1469.032055,326.017507L1475.818284,324.274301L1483.289011,323.310250L1486.301737,321.777909L1489.964041,320.847136L1488.123359,318.467445L1481.200029,318.454381L1476.416522,317.843603L1473.210765,321.556239L1470.440056,322.379918L1468.542058,324.123562L1465.186629,321.406177L1463.996996,314.444515L1461.867583,314.051739L1461.919506,311.526716L1457.796797,309.651841L1455.687628,312.521684L1455.852567,315.856370L1455.134282,317.073301L1451.082440,316.901210L1449.873474,320.696881L1447.212622,319.094649L1443.007203,321.759042L1440.707532,320.747897L1435.216801,318.996746L1431.463941,318.941694L1429.380531,318.684638L1425.682792,316.469126L1425.337933,319.419018L1420.053892,321.023114L1420.225385,327.659158L1416.983820,330.180932L1411.925880,331.430403L1411.318069,335.179782L1406.445947,336.281525L1398.890063,333.145100Z " data-cartodb-id="16" data-created-at="2013-12-04T08:41:11+0100" data-name="Afghanistan" data-updated-at="2013-12-04T08:41:12+0100"/><path d="M1272.238705,288.518757L1273.896265,291.329316L1273.990892,295.236651L1279.286020,297.243098L1282.334334,299.610060L1283.674483,299.390754L1286.041547,301.573247L1288.974246,301.554924L1289.174780,302.813669L1292.750177,307.554134L1295.121388,307.312490L1293.930086,301.635164L1290.697817,300.300849L1287.466054,298.093096L1288.842387,295.519427L1284.783302,292.761096L1285.717201,290.752648L1282.930687,289.370320L1281.149830,287.276698L1272.238705,288.518757Z " data-cartodb-id="23" data-created-at="2013-12-04T08:41:11+0100" data-name="Armenia" data-updated-at="2013-12-04T08:41:12+0100"/><path d="M1283.674483,299.390754L1282.334334,299.610060L1283.946176,302.682637L1287.983083,306.462198L1292.750177,307.554134L1289.174780,302.813669L1288.974246,301.554924L1286.041547,301.573247L1283.674483,299.390754Z M1297.005834,287.502658L1291.468007,282.682934L1289.566645,282.417557L1288.092537,283.508963L1292.225403,287.805607L1291.519660,288.739529L1287.870814,288.265932L1282.500865,285.978391L1281.149830,287.276698L1282.930687,289.370320L1285.717201,290.752648L1284.783302,292.761096L1288.842387,295.519427L1287.466054,298.093096L1290.697817,300.300849L1293.930086,301.635164L1295.121388,307.312490L1301.845836,301.274891L1304.220413,300.673370L1306.648126,303.066514L1305.120913,307.120154L1310.082320,311.432036L1311.669569,311.020601L1310.726436,306.943788L1312.801732,305.026404L1313.384888,302.162584L1313.258361,295.861126L1318.574441,295.212505L1316.073929,293.044711L1312.914441,292.669494L1308.336021,287.004987L1303.960113,282.827505L1300.732755,286.023134L1300.034197,288.046540L1297.005834,287.502658Z " data-cartodb-id="31" data-created-at="2013-12-04T08:41:11+0100" data-name="Azerbaijan" data-updated-at="2013-12-04T08:41:12+0100"/><path d="M1637.292840,444.016950L1631.650137,431.103909L1629.716613,431.129583L1629.367144,436.332750L1624.879901,432.113336L1626.315169,427.478990L1629.375291,427.008457L1631.442653,420.114582L1627.164321,418.723296L1620.698326,418.844151L1613.848439,417.726519L1612.216256,412.059425L1608.809472,411.657390L1602.627712,408.135347L1601.175080,413.665233L1606.974898,417.979618L1603.113319,421.015837L1602.043072,423.984656L1606.703586,426.167119L1606.268907,431.074246L1609.607418,437.196619L1611.651373,443.899186L1614.475911,444.627865L1616.592794,445.515520L1617.409964,444.033985L1620.636057,445.684385L1622.204987,441.155537L1621.078591,437.800062L1627.600620,438.125659L1631.230217,442.863656L1633.129171,446.781476L1634.116776,450.927060L1636.718478,455.169750L1635.347115,448.621500L1637.979777,449.853976L1637.292840,444.016950Z " data-cartodb-id="2" data-created-at="2013-12-04T08:41:11+0100" data-name="Bangladesh" data-updated-at="2013-12-04T08:41:12+0100"/><path d="M1622.269630,397.337714L1618.755387,395.148347L1615.043551,394.950183L1609.672862,393.065834L1606.369648,395.130883L1603.024876,401.185917L1603.499604,402.818309L1610.438094,405.911378L1614.568432,404.637446L1620.558605,405.184069L1626.195012,404.942342L1625.652337,399.937045L1622.269630,397.337714Z " data-cartodb-id="25" data-created-at="2013-12-04T08:41:11+0100" data-name="Bhutan" data-updated-at="2013-12-04T08:41:12+0100"/><path d="M1805.353295,586.605626L1808.813958,590.824647L1810.200057,588.051161L1813.644808,588.309055L1813.818027,583.110207L1813.939871,579.100787L1808.053345,583.559735L1805.353295,586.605626Z " data-cartodb-id="45" data-created-at="2013-12-04T08:41:11+0100" data-name="Brunei Darussalam" data-updated-at="2013-12-04T08:41:12+0100"/><path d="M1725.494430,536.890953L1731.579768,538.079612L1737.500874,534.800740L1744.958799,534.210510L1741.380261,529.278740L1752.790122,523.013563L1752.630679,513.257949L1750.347474,507.828479L1743.669045,504.831289L1741.110296,510.444678L1734.857183,507.252309L1728.039752,506.083771L1719.007286,507.638949L1715.187993,514.408162L1717.861883,524.239679L1722.232540,532.648691L1725.494430,536.890953Z " data-cartodb-id="85" data-created-at="2013-12-04T08:41:11+0100" data-name="Cambodia" data-updated-at="2013-12-04T08:41:12+0100"/><path d="M1229.344359,357.244927L1229.207445,357.189473L1229.997098,355.952661L1229.517425,352.620807L1227.698214,352.727954L1227.229325,354.155056L1224.941882,354.139914L1224.762707,354.224259L1224.010957,356.284047L1223.277064,362.411857L1221.853997,366.202579L1222.369601,366.662388L1220.638494,369.333016L1226.500892,383.268037L1228.682599,370.299914L1228.197538,367.146675L1225.080041,368.246284L1225.157214,366.111457L1226.794457,364.996037L1224.975146,364.085770L1225.834253,358.680673L1228.432748,359.805744L1229.344359,357.244927Z " data-cartodb-id="93" data-created-at="2013-12-04T08:41:11+0100" data-name="Israel" data-updated-at="2013-12-04T08:41:12+0100"/><path d="M1839.836720,278.197881L1832.777237,273.549259L1832.867431,277.961587L1824.773790,281.361008L1828.228062,285.539111L1822.376299,285.250354L1817.829506,282.766570L1816.506456,288.397688L1811.585367,292.694358L1808.913975,297.862275L1813.157292,300.038008L1817.483383,300.924504L1818.591577,302.256610L1819.088765,306.672196L1820.411400,308.173627L1819.301669,309.139629L1819.190914,312.769916L1821.605243,314.088489L1823.691809,314.846156L1824.648049,316.403643L1826.294685,315.716263L1826.378918,314.161354L1830.366099,315.736156L1830.435086,314.985543L1833.562655,315.280187L1834.400186,311.549742L1838.930880,311.150194L1841.511512,310.606973L1841.495601,308.614717L1835.924863,305.012648L1832.604739,303.681941L1832.922445,302.779271L1831.310954,299.253973L1833.040325,297.078029L1836.738580,295.750258L1837.933368,293.371616L1838.322953,291.957014L1840.742444,290.188886L1837.201316,284.473369L1837.572719,281.779335L1838.815105,279.104888L1841.589349,279.578302L1839.836720,278.197881Z " data-cartodb-id="142" data-created-at="2013-12-04T08:41:11+0100" data-name="North Korea (Democratic People’s Republic of Korea)" data-updated-at="2013-12-29T19:58:14+0100"/><path d="M1766.145080,471.387657L1767.024566,466.686735L1769.546758,463.104800L1767.458539,459.998880L1763.366427,459.805822L1756.018758,462.086477L1753.127279,465.774981L1754.442500,472.777380L1760.646846,475.300900L1766.145080,471.387657Z M1783.131341,219.869884L1775.304695,212.141342L1769.598785,207.320310L1764.765260,203.952402L1754.963439,196.092827L1747.381626,193.234196L1736.475437,190.926928L1728.574293,191.136597L1722.074065,192.533656L1719.918267,196.395241L1724.640501,198.243659L1727.858227,202.547403L1726.229654,205.052451L1726.425272,213.375962L1728.812676,216.845237L1723.269572,221.844218L1713.842229,218.855167L1714.571966,224.829894L1714.960998,232.776060L1718.526004,236.032068L1721.512019,235.021572L1728.503408,236.261761L1731.594344,233.322710L1738.222873,235.868658L1747.344122,241.436322L1748.341275,244.265510L1742.776212,243.368242L1734.135542,244.424252L1730.958795,246.687738L1729.280137,251.937521L1721.218579,255.007340L1717.134979,259.202829L1709.624823,257.602368L1705.607707,256.887799L1704.986624,261.972942L1708.689122,264.997067L1711.137966,267.592237L1708.001851,270.235560L1705.541272,274.447313L1699.335432,277.217108L1689.685278,277.515996L1680.466984,280.254666L1674.870834,284.502658L1670.792755,282.040460L1662.857238,282.047412L1650.897220,277.253140L1643.888988,276.080041L1635.709302,277.175782L1621.407647,275.410162L1614.291827,275.593226L1608.341253,270.922477L1602.051875,263.674179L1597.649901,262.800545L1587.596731,257.887978L1578.418769,256.785067L1570.163900,255.432681L1566.323911,251.997158L1564.608701,242.709612L1557.286016,236.294898L1546.879681,233.303981L1539.631555,229.082700L1535.391168,223.539426L1533.243482,224.191822L1530.896470,229.482666L1525.994797,230.226014L1529.215492,238.211296L1527.231393,241.811406L1513.503079,239.190566L1514.750721,253.424688L1512.170051,255.187721L1500.660822,258.345587L1511.802847,272.015951L1508.111357,274.063095L1510.319494,278.552792L1510.060296,280.336688L1501.268530,284.622927L1500.027917,287.776603L1491.900630,288.723258L1491.104107,293.833456L1483.756079,292.756540L1479.691817,294.328092L1474.556685,298.141875L1476.046582,300.040740L1474.712536,301.903560L1478.596854,309.490938L1480.554943,308.661920L1485.144412,310.537306L1485.816473,313.747938L1488.123359,318.467445L1489.964041,320.847136L1495.972546,324.715801L1499.652793,331.088781L1511.648882,334.436073L1521.458808,344.086188L1522.472322,350.755800L1526.230007,354.925383L1527.025794,359.076526L1521.849164,357.984745L1525.891128,366.929252L1533.823134,372.061559L1544.673918,377.730756L1547.098694,375.790562L1553.190098,378.284109L1561.334106,383.573432L1565.474385,384.739407L1568.635589,388.644259L1574.359676,390.247635L1580.736532,393.821700L1588.976406,395.688578L1597.240214,396.484277L1601.116759,394.771799L1603.024876,401.185917L1606.369648,395.130883L1609.672862,393.065834L1615.043551,394.950183L1618.755387,395.148347L1622.269630,397.337714L1627.652660,396.318698L1632.607698,390.265085L1639.358320,385.087117L1645.650991,387.084451L1649.739018,383.662226L1654.232760,388.716755L1652.707144,392.133228L1660.474978,393.349537L1664.390312,392.744299L1667.831635,397.537413L1671.308831,399.479254L1672.889207,405.714701L1674.007044,412.437447L1668.707109,419.243142L1669.586158,428.906060L1676.756003,427.555162L1679.692350,435.050889L1684.398287,436.627648L1683.425070,443.389628L1689.124940,446.444801L1692.405348,447.943116L1697.203970,445.573566L1697.937150,448.938188L1698.865066,450.850094L1702.656924,451.072152L1700.133183,441.762704L1703.586983,440.569817L1707.033825,438.583334L1712.647085,438.624344L1719.323836,437.685014L1724.561174,433.346550L1728.480943,436.400904L1735.162408,437.887563L1734.847970,442.576592L1738.749475,445.883534L1746.188894,447.995683L1749.297892,446.670447L1759.184279,449.276117L1758.037002,452.424277L1760.854116,458.331024L1764.688535,457.854285L1765.671072,449.259083L1772.914351,448.011033L1782.046566,443.934518L1785.301571,439.889438L1788.210932,442.531378L1791.852087,438.914808L1799.599860,437.980322L1808.041161,431.128321L1816.117684,423.612109L1820.389564,413.887620L1823.319302,403.191169L1825.935755,394.374456L1829.600982,393.643134L1829.416245,387.195795L1828.372739,380.578584L1823.480197,378.059824L1820.376247,373.734964L1823.935434,371.521455L1821.911132,365.500139L1814.969842,359.267085L1807.993645,351.811572L1802.189407,343.771402L1793.094235,339.256441L1794.249033,333.478417L1799.107647,329.323077L1800.368206,324.844239L1808.894629,322.526575L1805.890781,318.181525L1801.454510,317.960738L1794.067030,314.736912L1789.148536,320.653372L1782.792103,318.231422L1780.942941,314.514403L1774.865755,313.157190L1768.846453,307.583436L1770.476957,303.757161L1776.816628,303.364230L1778.365180,298.108796L1782.997000,292.505383L1787.265488,289.681291L1792.965079,293.877683L1790.483109,299.307469L1793.433162,302.477812L1791.715579,306.270703L1797.816648,304.033825L1800.834729,300.221414L1808.913975,297.862275L1811.585367,292.694358L1816.506456,288.397688L1817.829506,282.766570L1822.376299,285.250354L1828.228062,285.539111L1824.773790,281.361008L1832.867431,277.961587L1832.777237,273.549259L1839.836720,278.197881L1837.348280,274.197259L1840.549756,273.985037L1835.650440,264.695466L1829.644231,257.947358L1833.377004,255.154995L1842.095720,256.555891L1841.362401,248.843970L1837.727180,240.126969L1838.210727,237.211821L1836.556038,230.047152L1827.761668,232.393425L1824.426995,235.534834L1814.795776,235.525579L1807.158892,228.047083L1795.798708,222.402122L1783.131341,219.869884Z " data-cartodb-id="52" data-created-at="2013-12-04T08:41:11+0100" data-name="China" data-updated-at="2013-12-04T08:41:12+0100"/><path d="M1511.648882,334.436073L1506.898268,341.364680L1499.636389,342.585222L1488.840358,340.580960L1486.374542,344.120919L1490.499427,351.283671L1494.158508,356.792052L1500.605866,360.803476L1495.812898,365.496369L1497.171256,371.274550L1492.152718,379.410693L1489.395076,387.654615L1483.648617,396.185937L1475.478715,395.566984L1469.183483,404.105785L1474.299414,407.765762L1476.007587,414.038828L1480.509428,418.171856L1482.824325,425.166841L1467.401830,425.145582L1463.386315,430.578984L1472.415615,437.489400L1474.848659,440.683593L1471.787802,443.625794L1482.042602,453.489570L1487.117456,454.465295L1496.850679,449.593861L1499.049793,457.215638L1500.084979,467.074569L1503.301613,477.491922L1507.817991,493.269635L1515.305312,504.451588L1516.963046,509.536994L1519.517570,519.718665L1523.857224,527.539600L1526.612840,531.390192L1529.855466,539.601260L1533.782650,551.001378L1540.931664,558.603025L1543.699608,556.263082L1545.840673,550.726447L1552.251709,548.418491L1549.926210,545.735282L1552.826765,539.526168L1556.506218,539.131977L1555.617339,525.301094L1558.053924,517.566789L1557.114183,510.813639L1554.661405,500.224592L1556.173523,494.014338L1559.450235,493.584559L1565.543981,490.667796L1568.867762,488.661304L1568.462410,484.916361L1574.919706,479.587067L1579.637116,474.451724L1586.378375,464.873970L1595.852251,459.395747L1598.998852,454.580316L1597.790370,448.458102L1606.247493,446.768438L1611.052384,446.870855L1611.651373,443.899186L1609.607418,437.196619L1606.268907,431.074246L1606.703586,426.167119L1602.043072,423.984656L1603.113319,421.015837L1606.974898,417.979618L1601.175080,413.665233L1602.627712,408.135347L1608.809472,411.657390L1612.216256,412.059425L1613.848439,417.726519L1620.698326,418.844151L1627.164321,418.723296L1631.442653,420.114582L1629.375291,427.008457L1626.315169,427.478990L1624.879901,432.113336L1629.367144,436.332750L1629.716613,431.129583L1631.650137,431.103909L1637.292840,444.016950L1640.483673,442.086156L1639.226515,438.629603L1640.394623,435.857373L1639.330073,427.430801L1645.114846,429.286063L1647.106881,422.570627L1646.753592,418.600550L1649.320331,411.764165L1648.175998,407.099890L1656.005517,401.468847L1661.299616,402.942098L1659.620469,397.929659L1661.716338,396.435467L1660.474978,393.349537L1652.707144,392.133228L1654.232760,388.716755L1649.739018,383.662226L1645.650991,387.084451L1639.358320,385.087117L1632.607698,390.265085L1627.652660,396.318698L1622.269630,397.337714L1625.652337,399.937045L1626.195012,404.942342L1620.558605,405.184069L1614.568432,404.637446L1610.438094,405.911378L1603.499604,402.818309L1603.024876,401.185917L1601.116759,394.771799L1597.240214,396.484277L1597.420144,399.992399L1599.356598,405.169750L1599.169958,408.395435L1593.387326,408.531686L1584.647254,406.631971L1579.118723,405.856000L1574.323057,401.710728L1564.584082,400.654817L1554.641370,396.085790L1547.314071,392.092018L1539.983640,389.013695L1541.094651,381.411993L1544.673918,377.730756L1533.823134,372.061559L1525.891128,366.929252L1521.849164,357.984745L1527.025794,359.076526L1526.230007,354.925383L1522.472322,350.755800L1521.458808,344.086188L1511.648882,334.436073Z " data-cartodb-id="90" data-created-at="2013-12-04T08:41:11+0100" data-name="India" data-updated-at="2013-12-04T08:41:12+0100"/><path d="M1900.899564,345.501052L1895.130001,343.733692L1893.834172,347.175287L1889.554898,346.229024L1887.868391,351.102889L1889.429796,354.966176L1894.842983,357.282522L1894.669985,352.521858L1897.362463,350.627021L1901.276211,353.241942L1902.995939,348.305610L1900.899564,345.501052Z M1932.117491,320.772120L1927.577610,312.227629L1929.227474,303.948635L1925.624721,297.351390L1915.225994,286.239689L1909.141968,287.699470L1909.441624,292.746593L1915.871910,301.841828L1917.144364,311.881173L1915.007678,315.092231L1909.308372,323.383152L1902.882509,319.420950L1902.850642,334.162160L1894.842889,332.470115L1882.499404,334.937195L1880.026036,340.574159L1875.030116,344.817108L1873.632147,349.956597L1868.223046,352.469008L1873.261453,358.048566L1878.537863,360.410795L1879.701718,367.720995L1884.218982,370.871212L1887.368900,367.460647L1886.406623,353.658794L1876.971990,347.656511L1884.876328,347.499785L1891.258582,343.643434L1902.272660,341.832941L1905.259030,347.956393L1911.202859,351.093405L1916.755424,341.752930L1928.460425,341.249175L1935.323828,337.375422L1936.074053,331.548765L1932.879721,327.394447L1932.117491,320.772120Z M1917.083455,264.203167L1910.274804,261.556163L1896.976124,253.330918L1899.343691,259.492871L1904.900556,270.377122L1898.241192,270.813806L1899.021080,276.867990L1904.970429,284.723542L1912.205106,284.604283L1910.147667,275.962033L1924.000103,281.353658L1924.488168,273.525890L1932.675472,271.373413L1925.051419,262.545466L1922.811109,265.880170L1917.083455,264.203167Z " data-cartodb-id="99" data-created-at="2013-12-04T08:41:11+0100" data-name="Japan" data-updated-at="2013-12-04T08:41:12+0100"/><path d="M1228.432748,359.805744L1228.962204,364.767644L1228.197538,367.146675L1228.682599,370.299914L1226.500892,383.268037L1226.839360,384.444207L1234.658550,385.736835L1237.413289,383.236129L1238.783206,380.312634L1243.939919,379.188712L1244.796299,376.472137L1246.932017,375.095031L1239.203742,366.989997L1252.489125,362.920640L1253.651254,361.697086L1249.695649,351.795570L1237.329371,360.463867L1229.344359,357.244927L1228.432748,359.805744Z " data-cartodb-id="77" data-created-at="2013-12-04T08:41:11+0100" data-name="Jordan" data-updated-at="2013-12-04T08:41:12+0100"/><path d="M1848.979655,706.812100L1849.605337,704.614950L1847.316012,702.142099L1843.760682,699.662508L1836.950186,701.263263L1845.955401,706.967339L1848.979655,706.812100Z M1869.387966,707.792314L1875.681492,706.001428L1880.896803,699.921660L1880.973005,697.453419L1880.379026,695.848032L1873.028910,699.081948L1869.517916,704.047859L1868.620703,706.815471L1869.387966,707.792314Z M1830.211308,689.358718L1828.084338,692.237581L1824.150169,692.301529L1821.337285,696.988973L1825.183491,697.053760L1830.230317,695.960777L1838.638813,694.325942L1837.117633,690.864834L1832.641014,691.529960L1830.211308,689.358718Z M1866.080732,689.346938L1859.435075,692.329714L1854.617274,692.949411L1850.308240,690.508923L1844.491419,692.201402L1844.290666,695.177438L1853.741929,696.180805L1864.688944,693.869905L1866.080732,689.346938Z M1764.357319,678.628678L1763.535806,675.732968L1760.592593,675.112426L1754.964903,671.931058L1746.279436,671.450193L1740.949734,679.229021L1747.482051,679.827264L1748.526715,683.327946L1761.402312,686.680104L1764.447512,685.662002L1769.660681,686.468492L1777.766158,689.577909L1784.376872,691.039428L1791.772566,691.642290L1798.274844,691.420576L1805.921940,694.700365L1814.322915,691.598540L1805.860880,686.760464L1795.199907,685.276219L1792.913318,679.999335L1779.825747,676.084673L1778.055597,679.440219L1764.357319,678.628678Z M1951.931828,674.042998L1952.195926,670.161150L1950.708834,667.779543L1949.038269,670.531377L1947.578563,673.457374L1947.865170,679.585782L1951.931828,674.042998Z M1899.468705,651.611591L1897.793915,648.927093L1890.507730,649.317499L1891.760023,652.819004L1896.659010,654.313766L1899.468705,651.611591Z M1922.750033,648.637645L1914.934052,646.263625L1906.043509,646.601447L1904.160417,651.077300L1909.119561,651.364216L1913.199915,650.826563L1919.173141,651.507678L1925.086063,654.863200L1922.750033,648.637645Z M1949.626448,632.828525L1948.537942,629.802842L1937.023917,626.459537L1933.315053,629.112896L1923.596273,631.085141L1926.567284,635.113355L1932.956734,636.616521L1935.669534,641.463420L1946.192831,641.479832L1946.722824,643.639707L1941.601495,643.481526L1933.752089,646.413396L1939.078971,650.412588L1938.940400,653.949859L1940.424959,656.935166L1943.218107,656.217447L1945.529198,652.261152L1955.941055,659.784161L1961.827475,660.464863L1975.348634,667.358842L1978.356385,674.193186L1979.594495,683.045653L1974.906059,685.306089L1971.322968,691.931314L1980.425131,691.680993L1982.385725,689.361665L1989.528277,690.999040L1995.309673,697.680602L1997.286017,671.149810L1998.589149,644.619103L1990.929893,643.063352L1985.695138,640.150835L1979.628438,637.312777L1973.236351,637.319510L1964.838884,642.232881L1958.489926,650.868212L1951.255166,645.995222L1949.626448,632.828525Z M1885.566842,611.892136L1884.272378,610.073235L1877.273650,615.984925L1869.008734,616.326117L1859.927168,615.196528L1854.271331,612.792643L1848.239246,618.839384L1846.749048,622.195316L1843.030228,634.467158L1841.855500,640.930814L1838.718908,646.262363L1840.741664,651.839192L1843.760930,651.899354L1844.523710,659.755553L1842.086755,667.249034L1845.042710,669.638636L1849.660004,668.456877L1849.951994,656.809793L1849.734261,647.317487L1854.614040,644.842917L1853.780293,652.776093L1858.748074,657.549811L1857.665207,660.692888L1859.338902,662.946168L1866.545302,659.794264L1862.732388,666.459792L1865.391066,669.322687L1869.355561,666.929300L1869.698450,661.581408L1863.676584,652.185009L1865.102783,649.389018L1858.640536,638.955620L1865.043527,635.799939L1868.248744,631.030034L1871.364487,632.212621L1872.001991,628.463337L1858.560403,631.233650L1854.616403,634.921095L1848.279441,627.681673L1849.315020,621.519665L1855.592333,620.347597L1867.573282,619.941195L1874.502533,621.533130L1879.899131,619.967702L1885.566842,611.892136Z M1910.402385,614.232285L1909.662776,610.907271L1905.401165,610.193137L1904.765423,605.747584L1902.462365,608.710160L1901.150894,615.214618L1903.346186,625.621497L1906.201554,630.778027L1908.227517,629.801165L1905.299573,625.503280L1906.389548,620.549527L1910.102651,621.346757L1910.402385,614.232285Z M1832.537958,608.572169L1833.680166,604.826878L1828.137300,597.119411L1831.918902,589.767004L1825.629350,588.394879L1817.370082,588.391093L1815.262628,597.650128L1812.594622,600.481238L1809.208246,611.803789L1803.374565,613.538967L1796.531558,611.257508L1793.096699,611.971226L1788.968929,616.087999L1784.370806,615.501541L1779.751129,617.157001L1774.770897,612.557261L1773.458106,607.116334L1769.297672,612.526341L1768.545695,620.069514L1769.544745,627.191980L1772.916889,634.155843L1776.463503,636.418791L1777.270929,647.337254L1783.164592,648.276686L1787.887990,647.829057L1790.367778,651.768934L1799.019698,648.841270L1802.507098,651.449624L1807.612911,651.909873L1810.253256,656.886360L1818.570740,653.223299L1819.506416,656.118996L1822.744814,643.669577L1823.139362,635.562245L1830.141106,629.994263L1829.866746,622.616852L1832.229857,617.066546L1840.739077,616.106088L1832.537958,608.572169Z M1744.617345,671.095541L1745.475312,658.502702L1747.658469,648.377236L1744.316895,643.224480L1739.058001,642.504654L1736.660378,637.961506L1735.538855,632.282878L1732.958607,632.074215L1728.867996,629.247101L1731.775547,622.600024L1726.283115,618.881034L1722.041751,612.064206L1715.889418,606.487600L1708.577858,606.359915L1701.526237,597.608682L1697.451179,594.221819L1691.693265,588.701993L1685.019187,580.740484L1673.836961,579.167682L1669.200336,578.839530L1670.003477,582.983581L1677.838085,591.954444L1683.401777,596.514015L1687.358863,603.479580L1693.958740,608.605824L1696.712405,614.960942L1698.875925,621.960137L1705.172290,628.745628L1710.463941,640.142417L1713.874880,646.244273L1719.099731,652.874119L1721.989383,657.808543L1730.931338,664.460185L1736.660686,671.265927L1744.617345,671.095541Z " data-cartodb-id="92" data-created-at="2013-12-04T08:41:11+0100" data-name="Indonesia" data-updated-at="2013-12-04T08:41:12+0100"/><path d="M1347.184087,320.300600L1346.914876,322.240988L1336.821736,324.436832L1326.994695,323.006210L1321.573564,318.844004L1314.900788,317.117615L1311.669569,311.020601L1310.082320,311.432036L1305.120913,307.120154L1306.648126,303.066514L1304.220413,300.673370L1301.845836,301.274891L1295.121388,307.312490L1292.750177,307.554134L1287.983083,306.462198L1283.946176,302.682637L1282.334334,299.610060L1278.204065,301.928850L1281.909015,311.342066L1281.026286,313.900260L1285.774323,320.536735L1291.706389,330.432978L1296.525863,332.919068L1297.788083,337.745351L1294.809641,340.587119L1294.190436,346.985750L1300.046403,354.739090L1309.072184,359.195317L1313.485227,365.362277L1313.175805,371.233717L1315.373551,371.231415L1316.025945,375.549421L1320.407340,379.813508L1322.563455,376.647101L1327.310127,379.335207L1330.846758,378.020415L1337.380887,388.850616L1342.975466,396.572646L1349.948808,398.892470L1357.720437,405.153745L1366.553529,407.857159L1373.109560,403.912926L1378.278341,402.457030L1381.793091,403.900922L1385.974545,413.894785L1393.981947,414.953847L1401.821584,416.826757L1415.266318,419.287144L1416.730325,409.818849L1426.225423,405.608789L1425.123806,401.856195L1421.606424,400.537365L1420.358535,393.365311L1413.181755,389.787526L1409.626313,384.877146L1405.516620,380.605218L1410.532475,373.251980L1409.044254,368.034957L1403.595268,366.668460L1402.121252,361.519262L1398.665929,355.032193L1400.727304,350.571165L1397.525659,349.366467L1398.221630,343.412455L1398.890063,333.145100L1396.825556,326.169728L1391.740579,325.872784L1382.489035,318.525488L1376.937527,317.619426L1368.633314,313.423705L1363.713915,312.662126L1361.101072,314.201737L1356.574542,313.962003L1352.767878,318.695987L1347.184087,320.300600Z " data-cartodb-id="91" data-created-at="2013-12-04T08:41:11+0100" data-name="Iran" data-updated-at="2013-12-04T08:41:12+0100"/><path d="M1291.706389,330.432978L1285.774525,320.536776L1282.777794,321.938270L1280.083605,319.825276L1272.107863,318.755320L1269.422742,320.043854L1266.752091,325.221615L1263.362514,327.271403L1264.860110,333.325127L1263.671340,343.287204L1249.695649,351.795570L1253.651254,361.697086L1262.173819,363.895895L1273.094612,369.570920L1294.477239,385.888048L1307.423035,386.537255L1311.532344,378.740051L1316.257838,379.415513L1320.407340,379.813508L1316.025945,375.549421L1315.373551,371.231415L1313.175805,371.233717L1313.485227,365.362277L1309.072184,359.195317L1300.046403,354.739090L1294.190436,346.985750L1294.809641,340.587119L1297.788083,337.745351L1296.525863,332.919068L1291.706389,330.432978Z " data-cartodb-id="95" data-created-at="2013-12-04T08:41:11+0100" data-name="Iraq" data-updated-at="2013-12-04T08:41:12+0100"/><path d="M1449.684582,279.214158L1450.005431,275.761245L1453.930536,274.650634L1465.602263,277.363291L1465.009494,272.716488L1468.134125,271.088427L1478.590555,274.394863L1480.650863,273.528532L1491.542478,273.743560L1501.527665,274.566460L1505.857148,277.396474L1510.319494,278.552792L1508.111357,274.063095L1511.802847,272.015951L1500.660822,258.345587L1512.170051,255.187721L1514.750721,253.424688L1513.503079,239.190566L1527.231393,241.811406L1529.215492,238.211296L1525.994797,230.226014L1530.896470,229.482666L1533.243482,224.191822L1527.626217,219.344434L1520.074097,220.403504L1515.833704,217.047217L1510.749649,215.515453L1505.580673,210.966396L1501.476019,209.553201L1493.529500,211.572016L1482.867662,207.050454L1481.484730,211.158898L1458.345769,191.348101L1447.687650,185.376672L1448.704888,182.960176L1437.047808,190.245299L1431.423136,190.686881L1429.962046,186.467674L1420.970122,183.837394L1415.525810,185.713937L1409.957641,177.737787L1398.430301,176.084322L1394.473791,179.268799L1380.656936,182.107517L1378.515317,184.010225L1356.981196,186.694267L1355.225875,189.331364L1361.657254,194.638925L1356.553832,196.658751L1358.489047,198.778269L1353.981575,202.576252L1365.911999,207.957014L1365.682311,211.675216L1356.848719,211.336194L1355.841405,213.670976L1346.525698,209.596610L1336.758111,209.754415L1331.246050,213.070446L1322.892984,209.890326L1307.572499,204.465239L1298.005071,204.667683L1287.694326,213.201030L1288.488841,218.964077L1280.848946,214.385801L1278.128380,223.072932L1280.368905,224.691431L1278.223926,230.716195L1284.898228,236.117282L1289.546397,235.894999L1294.899276,241.216778L1295.248630,245.313034L1298.804921,246.599246L1304.352079,244.931481L1310.845692,241.431178L1316.762910,243.374411L1323.039750,242.989367L1325.476930,247.908523L1326.342873,255.646519L1320.420251,254.464441L1315.275005,255.749754L1316.471430,261.520747L1310.000021,260.772379L1310.844058,263.338266L1314.908383,265.328509L1319.570338,272.388552L1327.787351,275.068494L1329.708997,277.812504L1328.898607,281.101271L1329.729055,283.029784L1331.992667,280.399130L1339.021320,278.756978L1344.004590,280.968367L1350.151375,287.183381L1353.432005,286.795410L1345.495942,257.726971L1360.748782,253.050985L1362.146753,253.738737L1373.772746,259.398910L1379.939558,262.379464L1388.237705,269.468052L1395.514520,268.323615L1406.465099,267.710441L1416.050443,273.452723L1417.996620,281.358155L1421.208845,281.413499L1424.496393,287.910938L1432.952023,288.169399L1435.886083,291.952872L1438.331952,291.901956L1439.488669,286.194528L1446.404119,280.673401L1449.684582,279.214158Z " data-cartodb-id="103" data-created-at="2013-12-04T08:41:11+0100" data-name="Kazakhstan" data-updated-at="2013-12-04T08:41:12+0100"/><path d="M1316.257838,379.415513L1311.532344,378.740051L1307.423035,386.537255L1313.687085,387.321842L1315.873942,391.197185L1320.753312,390.986118L1317.773872,384.852580L1318.158381,382.998753L1316.257838,379.415513Z " data-cartodb-id="5" data-created-at="2013-12-04T08:41:11+0100" data-name="Kuwait" data-updated-at="2013-12-04T08:41:12+0100"/><path d="M1449.684582,279.214158L1451.884669,279.991092L1448.030940,285.116677L1453.831816,288.108895L1457.890439,286.125760L1467.043994,290.323073L1460.371515,296.105244L1455.096379,295.310764L1453.408796,297.803483L1445.800701,296.449405L1446.509355,301.125665L1453.532206,300.494647L1462.502181,303.142516L1474.712536,301.903560L1476.046582,300.040740L1474.556685,298.141875L1479.691817,294.328092L1483.756079,292.756540L1491.104107,293.833456L1491.900630,288.723258L1500.027917,287.776603L1501.268530,284.622927L1510.060296,280.336688L1510.319494,278.552792L1505.857148,277.396474L1501.527665,274.566460L1491.542478,273.743560L1480.650863,273.528532L1478.590555,274.394863L1468.134125,271.088427L1465.009494,272.716488L1465.602263,277.363291L1453.930536,274.650634L1450.005431,275.761245L1449.684582,279.214158Z " data-cartodb-id="105" data-created-at="2013-12-04T08:41:11+0100" data-name="Kyrgyzstan" data-updated-at="2013-12-04T08:41:12+0100"/><path d="M1734.857183,507.252309L1741.110296,510.444678L1743.669045,504.831289L1750.347474,507.828479L1750.623447,499.689215L1748.059189,493.938188L1741.886694,488.273595L1736.369313,481.100598L1729.031449,471.480623L1719.811044,466.611016L1721.391077,463.684844L1725.578736,461.552510L1721.740081,454.454780L1713.045443,454.391063L1708.728802,446.996606L1703.586983,440.569817L1700.133183,441.762704L1702.656924,451.072152L1698.865066,450.850094L1697.937150,448.938188L1692.742452,454.231874L1691.686270,457.229091L1695.116293,459.740840L1696.248678,464.631689L1701.081157,465.004158L1700.605592,473.581317L1701.821411,480.879298L1708.595892,476.022188L1710.927027,477.457631L1715.043997,477.222245L1716.053943,474.389674L1721.494651,474.948778L1727.862228,481.560231L1729.451757,489.595967L1736.171996,496.691907L1736.734372,503.582797L1734.857183,507.252309Z " data-cartodb-id="100" data-created-at="2013-12-04T08:41:11+0100" data-name="Laos (Lao People’s Democratic Republic)" data-updated-at="2013-12-29T19:58:03+0100"/><path d="M1229.517425,352.620807L1230.676896,348.153819L1234.024348,345.070667L1232.526809,341.854378L1229.422650,341.435590L1229.329018,341.721946L1226.622014,347.495558L1224.941882,354.139914L1227.229325,354.155056L1227.698214,352.727954L1229.517425,352.620807Z " data-cartodb-id="97" data-created-at="2013-12-04T08:41:11+0100" data-name="Lebanon" data-updated-at="2013-12-04T08:41:12+0100"/><path d="M1710.439015,572.936832L1704.405957,569.371358L1703.231700,570.823215L1704.982485,574.274462L1704.467868,580.201769L1707.248741,584.640314L1708.507302,591.382287L1712.852951,596.827439L1713.823217,600.975141L1722.493722,607.436702L1729.408448,613.467448L1734.499156,612.924325L1734.588694,610.171888L1731.592028,602.972635L1728.995633,600.729239L1728.315571,595.910940L1727.516455,593.111798L1728.139315,589.408348L1727.499072,583.926167L1724.242310,578.475833L1719.768493,573.560948L1718.080523,572.800314L1715.895905,576.144920L1711.203003,577.117167L1710.439015,572.936832Z M1837.079767,586.993729L1835.602448,583.018286L1840.400530,582.614514L1840.746389,579.425569L1834.625848,576.976228L1829.773304,574.706528L1829.243848,571.167772L1825.311165,567.049280L1822.410758,567.075999L1819.163655,573.438945L1813.939871,579.100787L1813.818027,583.110207L1813.644808,588.309055L1810.200057,588.051161L1808.813958,590.824647L1805.353295,586.605626L1802.051704,591.753774L1797.145853,598.194303L1788.590680,599.956830L1785.571976,601.492189L1784.312743,608.384957L1778.790043,609.906213L1773.458106,607.116334L1774.770897,612.557261L1779.751129,617.157001L1784.370806,615.501541L1788.968929,616.087999L1793.096699,611.971226L1796.531558,611.257508L1803.374565,613.538967L1809.208246,611.803789L1812.594622,600.481238L1815.262628,597.650128L1817.370082,588.391093L1825.629350,588.394879L1831.918902,589.767004L1837.079767,586.993729Z " data-cartodb-id="120" data-created-at="2013-12-04T08:41:11+0100" data-name="Malaysia" data-updated-at="2013-12-04T08:41:12+0100"/><path d="M1535.391168,223.539426L1539.631555,229.082700L1546.879681,233.303981L1557.286016,236.294898L1564.608701,242.709612L1566.323911,251.997158L1570.163900,255.432681L1578.418769,256.785067L1587.596731,257.887978L1597.649901,262.800545L1602.051875,263.674179L1608.341253,270.922477L1614.291827,275.593226L1621.407647,275.410162L1635.709302,277.175782L1643.888988,276.080041L1650.897220,277.253140L1662.857238,282.047412L1670.792755,282.040460L1674.870834,284.502658L1680.466984,280.254666L1689.685278,277.515996L1699.335432,277.217108L1705.541272,274.447313L1708.001851,270.235560L1711.137966,267.592237L1708.689122,264.997067L1704.986624,261.972942L1705.607707,256.887799L1709.624823,257.602368L1717.134979,259.202829L1721.218579,255.007340L1729.280137,251.937521L1730.958795,246.687738L1734.135542,244.424252L1742.776212,243.368242L1748.341275,244.265510L1747.344122,241.436322L1738.222873,235.868658L1731.594344,233.322710L1728.503408,236.261761L1721.512019,235.021572L1718.526004,236.032068L1714.960998,232.776060L1714.571966,224.829894L1713.842229,218.855167L1706.809122,219.514521L1701.850366,216.866050L1697.565900,216.013189L1691.913382,221.586019L1684.464346,222.898752L1679.872460,224.865383L1671.204710,223.573041L1665.436985,223.655656L1659.253577,219.605293L1650.878038,215.808121L1644.015981,214.769434L1636.749643,215.799972L1631.710730,217.263108L1620.943921,213.945699L1616.300021,208.056880L1607.836711,206.043986L1601.691570,205.127234L1592.878095,201.897578L1591.188933,210.010029L1596.304168,214.640316L1593.231415,220.140654L1583.141018,218.152035L1576.761124,217.867720L1570.645119,214.182216L1564.093991,214.065992L1557.416424,211.650834L1549.885507,215.354478L1541.343968,222.164923L1535.391168,223.539426Z " data-cartodb-id="122" data-created-at="2013-12-04T08:41:11+0100" data-name="Mongolia" data-updated-at="2013-12-04T08:41:12+0100"/><path d="M1687.921974,459.111209L1691.686270,457.229091L1692.742452,454.231874L1697.937150,448.938188L1697.203970,445.573566L1692.405348,447.943116L1689.124940,446.444801L1683.425070,443.389628L1684.398287,436.627648L1679.692350,435.050889L1676.756003,427.555162L1669.586158,428.906060L1668.707109,419.243142L1674.007044,412.437447L1672.889207,405.714701L1671.308831,399.479254L1667.831635,397.537413L1664.390312,392.744299L1660.474978,393.349537L1661.716338,396.435467L1659.620469,397.929659L1661.299616,402.942098L1656.005517,401.468847L1648.175998,407.099890L1649.320331,411.764165L1646.753592,418.600550L1647.106881,422.570627L1645.114846,429.286063L1639.330073,427.430801L1640.394623,435.857373L1639.226515,438.629603L1640.483673,442.086156L1637.292840,444.016950L1637.979777,449.853976L1635.347115,448.621500L1636.718478,455.169750L1642.642586,461.808875L1646.919935,462.852213L1646.460361,465.786336L1653.290340,475.172167L1655.785369,482.794636L1654.615389,492.884660L1659.252612,494.793757L1663.329599,495.518894L1670.685837,489.715032L1674.832782,485.632026L1678.780273,492.374725L1681.313150,502.659942L1684.701760,512.403705L1688.025949,516.621473L1688.280781,525.490191L1691.101468,530.307121L1689.408156,536.543247L1690.549439,542.586159L1693.380200,534.220817L1696.663569,526.631743L1693.181509,519.207312L1692.918470,515.425418L1691.631127,510.880950L1686.165244,504.412461L1683.990433,500.328089L1686.267849,498.823560L1687.984688,491.745724L1684.368520,486.372086L1679.059537,480.427866L1674.641888,473.284095L1677.420492,471.805395L1679.381770,463.004903L1684.317458,462.640432L1687.921974,459.111209Z " data-cartodb-id="115" data-created-at="2013-12-04T08:41:11+0100" data-name="Myanmar" data-updated-at="2013-12-04T08:41:12+0100"/><path d="M1399.993496,451.563162L1402.729699,448.960056L1403.647827,446.675908L1405.759198,441.825166L1405.600223,440.009321L1402.984798,438.978325L1400.829739,436.274698L1397.201580,431.607367L1392.897328,430.123260L1387.645702,429.059246L1383.433774,426.102303L1379.716438,420.537955L1376.146273,420.569739L1376.114926,425.874810L1377.468869,427.007407L1374.452642,428.611272L1374.750846,431.939565L1373.017198,435.309199L1373.128673,438.587119L1376.858551,444.352588L1373.515682,460.629910L1352.948588,468.769615L1359.496813,482.204360L1362.225441,487.892832L1365.473089,487.431913L1370.019955,484.685587L1373.993822,485.453211L1377.257482,483.192642L1376.968865,479.903863L1379.584386,477.853733L1383.998906,477.919359L1385.481652,476.201202L1385.849328,472.235329L1390.018666,469.193011L1393.276804,469.219720L1393.859664,468.219600L1392.528472,462.778608L1393.310417,458.652142L1394.611440,456.711576L1397.850380,457.138458L1399.993496,451.563162Z M1378.802942,412.622565L1379.067124,409.255291L1378.120256,408.547694L1376.414707,411.322746L1378.060880,414.100959L1378.802942,412.622565Z " data-cartodb-id="135" data-created-at="2013-12-04T08:41:11+0100" data-name="Oman" data-updated-at="2013-12-04T08:41:12+0100"/><path d="M1489.964041,320.847136L1486.301737,321.777909L1483.289011,323.310250L1475.818284,324.274301L1469.032055,326.017507L1465.993288,329.630264L1468.448999,333.141037L1470.216178,337.250950L1467.662555,340.710555L1468.686530,343.865045L1467.499515,346.813519L1460.966470,346.557772L1464.862091,351.959843L1460.973593,354.021062L1459.130779,358.928983L1460.533736,363.803267L1458.318299,366.083802L1455.626181,365.328756L1450.592069,366.385882L1450.290939,368.653843L1445.170344,368.639602L1442.211148,373.227265L1443.231491,380.128706L1434.838173,383.504794L1429.901635,382.791191L1428.800765,384.572071L1424.494060,383.536071L1417.774132,384.752848L1405.516620,380.605218L1409.626313,384.877146L1413.181755,389.787526L1420.358535,393.365311L1421.606424,400.537365L1425.123806,401.856195L1426.225423,405.608789L1416.730325,409.818849L1415.266318,419.287144L1424.981223,418.144907L1436.325321,417.993088L1449.012182,416.460149L1455.206390,422.665347L1458.003079,428.519737L1463.386315,430.578984L1467.401830,425.145582L1482.824325,425.166841L1480.509428,418.171856L1476.007587,414.038828L1474.299414,407.765762L1469.183483,404.105785L1475.478715,395.566984L1483.648617,396.185937L1489.395076,387.654615L1492.152718,379.410693L1497.171256,371.274550L1495.812898,365.496369L1500.605866,360.803476L1494.158508,356.792052L1490.499427,351.283671L1486.374542,344.120919L1488.840358,340.580960L1499.636389,342.585222L1506.898268,341.364680L1511.648882,334.436073L1499.652793,331.088781L1495.972546,324.715801L1489.964041,320.847136Z " data-cartodb-id="136" data-created-at="2013-12-04T08:41:11+0100" data-name="Pakistan" data-updated-at="2013-12-04T08:41:12+0100"/><path d="M1890.779540,554.946288L1890.038325,551.952162L1889.094986,547.852447L1882.951512,543.991492L1883.917808,550.287239L1878.872086,550.503692L1877.992868,554.136643L1872.713727,556.365945L1869.897518,552.680599L1866.225278,555.747931L1861.877823,558.037814L1859.537373,564.899487L1860.879392,567.282352L1865.887766,562.740007L1869.283913,563.053432L1871.300752,559.677714L1876.112363,563.527782L1874.182115,567.398673L1876.565490,573.291069L1885.287707,578.015794L1887.123028,574.200418L1884.458463,568.201803L1887.537433,564.072382L1890.698294,572.371618L1892.659449,564.921777L1891.915596,560.354834L1890.779540,554.946288Z M1872.330289,539.771006L1872.247009,532.005032L1867.725272,539.863771L1868.348041,534.382999L1864.451434,534.861325L1864.146631,539.914465L1862.558245,542.194701L1861.275928,544.373906L1866.159754,550.000739L1868.210125,547.590347L1870.005070,542.446696L1872.330289,539.771006Z M1833.793996,547.605701L1837.082020,542.010783L1841.402228,537.528091L1839.482452,530.890204L1836.510071,538.977162L1832.704497,544.608863L1827.937584,549.636836L1824.851828,555.330596L1833.793996,547.605701Z M1855.990745,526.639949L1857.509569,530.514315L1857.422223,534.667385L1858.038312,538.450242L1862.348503,536.005607L1865.316004,532.548778L1865.099509,529.148119L1860.551767,529.160111L1855.990745,526.639949Z M1881.601045,524.434247L1879.277884,521.397460L1872.398705,521.218033L1877.476856,527.434216L1877.904083,530.516415L1873.627773,529.866870L1875.257760,534.795693L1877.453673,535.218490L1878.304245,540.944111L1881.536357,539.120198L1879.290201,534.096506L1878.857985,531.364109L1884.600608,533.524153L1881.601045,524.434247Z M1852.342051,517.051224L1849.501572,514.119559L1843.352744,513.820649L1847.746362,520.023465L1851.269472,524.085286L1852.342051,517.051224Z M1844.139771,472.806825L1839.850802,472.797365L1838.810016,480.174384L1840.148522,492.911585L1836.865498,490.232334L1838.326469,498.026896L1839.907490,501.572370L1844.078413,506.250376L1844.591140,503.316269L1846.980768,505.199208L1845.038178,507.270187L1845.122841,510.635468L1848.904520,512.434421L1855.226051,511.231194L1860.389302,516.104857L1861.846632,513.116382L1865.020986,517.393669L1871.066926,521.389677L1871.355120,517.637892L1868.783189,515.682049L1868.888612,511.250334L1859.373497,506.736725L1856.353411,507.700163L1852.453123,506.803199L1849.939058,500.319043L1850.065074,493.755162L1853.828024,491.056768L1854.584958,484.290524L1851.167382,478.454922L1851.732291,475.079612L1850.723965,473.011281L1848.912032,475.131152L1844.139771,472.806825Z " data-cartodb-id="140" data-created-at="2013-12-04T08:41:11+0100" data-name="Philippines" data-updated-at="2013-12-04T08:41:12+0100"/><path d="M1876.830685,212.079969L1867.655194,204.168095L1861.167227,196.497266L1852.389720,189.025240L1846.165497,183.920420L1844.468092,185.002812L1850.120607,188.580169L1847.689007,192.141770L1856.362353,202.771341L1866.402106,210.470672L1874.542850,221.018791L1877.669912,227.017626L1884.733211,235.605222L1889.591973,243.364127L1895.474744,250.036704L1895.321206,243.882813L1903.567696,248.677275L1899.784364,243.118953L1887.681811,234.956540L1882.938501,223.465225L1894.251591,226.086343L1876.830685,212.079969Z M1122.285576,184.215941L1121.514940,182.250124L1121.846646,180.143562L1119.011406,178.923700L1112.535988,177.578529L1104.586763,180.069869L1103.648680,183.456544L1111.197323,184.331655L1122.285576,184.215941Z M44.903728,93.324550L51.733682,88.952561L48.190110,82.019035L43.495873,76.744668L1.410851,104.735151L8.890687,101.700656L11.324980,98.350564L20.268656,96.664613L15.243748,99.304133L14.586895,101.797648L22.100166,100.872324L25.956270,102.039290L22.785036,105.142380L27.136789,107.235391L27.853125,109.744668L32.713084,109.960289L36.966658,108.461260L46.776826,101.459476L56.710902,100.721561L66.379468,97.621348L65.164873,91.008764L52.161809,89.960890L45.999029,95.082261L44.903728,93.324550Z M1905.987043,64.040321L1898.276160,59.466888L1896.493080,62.251760L1900.944280,64.383551L1905.987043,64.040321Z M71.423264,63.631756L79.349943,62.024298L81.308750,61.109880L77.175312,59.201700L72.901104,59.187783L71.774550,59.466888L64.063667,64.040321L71.423264,63.631756Z M1697.852726,48.285466L1694.737554,46.575407L1684.047677,44.098119L1678.778182,44.696460L1677.819090,47.260652L1679.180153,47.604930L1690.392465,48.331094L1697.852726,48.285466Z M1713.862145,36.234819L1698.953100,34.573220L1688.383951,33.617921L1690.633103,35.669723L1703.744255,38.182915L1712.446601,38.754305L1713.862145,36.234819Z M1681.579572,33.202255L1658.748984,29.869995L1645.725752,29.595773L1641.342190,30.769983L1645.604050,35.106803L1661.549425,39.249609L1667.293171,37.740473L1685.460214,37.917082L1681.579572,33.202255Z M1279.803432,64.791718L1267.146785,59.301156L1263.171980,53.798239L1267.441789,47.499989L1270.957087,41.188776L1282.024143,35.111782L1294.524937,32.098240L1309.011222,28.991028L1310.615027,27.056862L1305.318328,24.621539L1296.816856,25.420261L1290.533181,27.712785L1275.615630,28.877298L1262.654605,32.907131L1254.034379,36.251659L1257.131819,39.147193L1248.705825,44.795127L1253.685160,45.587113L1246.863248,51.146576L1248.891246,54.733639L1244.458760,56.152002L1246.966992,59.739802L1257.056433,61.529856L1259.895152,64.507846L1277.086645,65.382369L1279.803432,64.791718Z M1487.437452,24.409897L1475.594489,23.472028L1480.005882,21.970910L1469.448250,20.012887L1461.649086,22.495666L1460.413011,25.099600L1462.356790,27.767277L1453.531795,27.664139L1446.690159,30.981306L1441.202505,29.575530L1429.343441,30.155842L1429.615640,31.874381L1417.854158,32.714082L1411.683916,35.854261L1406.304446,36.029023L1404.684145,40.222057L1411.770021,43.585852L1401.871751,44.432187L1389.782218,44.147112L1382.323645,45.453249L1388.499758,52.405944L1397.315026,57.908399L1385.057798,54.135450L1374.899740,54.484641L1368.402495,57.085360L1374.184994,61.889754L1367.867779,60.668457L1365.222453,54.264374L1359.871351,50.620871L1357.495041,50.769540L1362.105001,55.448754L1356.228549,59.923729L1366.614083,65.389059L1367.057336,72.196642L1370.794048,76.003679L1376.878384,76.569039L1377.386599,81.124895L1382.993273,85.075402L1380.489249,88.403072L1381.219894,91.878719L1376.415222,93.689314L1375.794828,96.235420L1369.017053,95.192337L1373.465163,85.215314L1372.817152,80.578540L1364.340755,76.351364L1359.449468,67.012530L1354.649253,62.309428L1350.038927,60.178436L1351.094879,54.795578L1347.425607,51.136356L1332.995116,49.410688L1330.190694,50.696903L1330.947954,56.684370L1325.447563,62.719649L1326.931384,64.869612L1332.903021,70.146298L1333.131049,73.378251L1339.804454,74.049445L1340.831381,75.503229L1348.336464,79.142601L1346.966039,82.766373L1323.374725,74.882729L1314.954043,72.744318L1298.490467,70.681674L1297.005136,72.931390L1304.590797,76.902479L1301.023544,81.475146L1292.895253,77.314433L1286.545361,80.174644L1276.776818,80.365697L1274.121790,82.733801L1267.236902,82.009948L1270.461141,77.814848L1266.349682,77.475797L1250.651079,83.417194L1240.961741,86.737126L1241.457271,91.209442L1233.772981,92.736863L1228.635567,90.327122L1227.106998,86.428735L1233.493802,85.567006L1228.923768,81.672289L1213.340066,79.452271L1218.836840,83.752107L1217.791748,87.925719L1223.791292,92.111981L1222.427282,96.969722L1216.509739,94.495240L1211.401636,94.087889L1201.125992,101.039303L1206.485815,106.278682L1202.425550,108.029560L1187.825576,103.564744L1185.147821,106.278682L1189.359632,109.369142L1189.670237,112.869904L1184.814756,110.993673L1177.108250,108.795408L1174.704321,101.471583L1173.424086,98.168761L1163.188428,92.984658L1166.878775,92.088947L1192.512110,97.463142L1200.719451,95.573204L1205.443126,91.863791L1203.483922,87.193271L1198.267331,83.878093L1175.800006,76.058899L1161.006399,74.426500L1151.265405,70.301152L1146.587643,72.671117L1138.463374,75.417049L1134.407399,76.049579L1134.839942,80.878189L1144.092845,85.508922L1140.485943,90.789330L1148.711683,98.838004L1146.524260,104.957532L1152.741059,110.308145L1151.600781,115.021471L1161.028155,120.004885L1159.818116,123.732596L1155.576605,127.973282L1145.464128,137.411430L1152.207089,140.949915L1146.518571,145.078136L1147.652165,146.385232L1144.385533,150.711563L1147.479136,157.748178L1145.422310,160.151911L1148.588770,161.898802L1149.793148,165.585269L1152.551271,170.085472L1159.185778,172.002033L1160.403640,173.901708L1163.355183,172.987949L1169.560852,174.814054L1170.880516,178.414862L1170.010821,180.488033L1174.803135,185.530545L1177.549807,186.938454L1177.466950,188.333719L1181.835470,189.694512L1184.009018,191.758589L1181.982479,193.453827L1177.010262,193.184681L1175.978393,193.909422L1177.913027,196.487223L1180.381322,201.473793L1182.737669,201.789235L1183.943915,200.015627L1185.885298,200.407119L1192.097743,199.654242L1196.931051,204.072559L1195.712624,205.656102L1196.712418,208.087677L1201.721838,208.467380L1204.618944,211.872819L1204.795967,213.420927L1213.263153,216.192401L1217.782153,214.943372L1222.408112,218.640627L1226.039306,218.555235L1235.810761,221.130583L1236.389917,223.458251L1234.722997,227.616708L1237.029779,232.003584L1236.580465,234.658967L1230.570721,235.242915L1227.740487,237.467045L1228.224089,241.005246L1233.682423,239.721614L1234.193933,241.462672L1225.424794,244.712025L1229.590524,247.859053L1225.503668,254.495172L1221.051952,255.760102L1227.459979,260.398988L1235.386579,263.369872L1244.918427,270.014178L1245.533614,269.085833L1251.290819,270.429592L1261.127051,271.701945L1270.775034,275.473609L1272.220554,276.937306L1275.926987,275.700624L1282.369297,277.348421L1285.057553,280.585472L1289.566645,282.417557L1291.468007,282.682934L1297.005834,287.502658L1300.034197,288.046540L1300.732755,286.023134L1303.960208,282.827426L1294.743623,273.539875L1294.183813,268.244342L1286.592476,260.777391L1291.111969,252.617477L1297.023964,251.310370L1298.804921,246.599246L1295.248676,245.312987L1294.899276,241.216778L1289.546345,235.894864L1284.898279,236.117259L1278.223926,230.716195L1280.368905,224.691431L1278.128380,223.072932L1280.848946,214.385801L1288.488841,218.964077L1287.694326,213.201030L1298.005071,204.667683L1307.572499,204.465239L1322.892984,209.890326L1331.246061,213.070501L1336.758231,209.754423L1346.525912,209.596712L1355.841405,213.670976L1356.848719,211.336194L1365.682311,211.675216L1365.911999,207.957014L1353.981575,202.576252L1358.489047,198.778269L1356.553832,196.658751L1361.657254,194.638925L1355.225875,189.331364L1356.981296,186.694383L1378.515317,184.010225L1380.656955,182.107648L1394.473791,179.268799L1398.430301,176.084322L1409.957641,177.737787L1415.525810,185.713937L1420.970122,183.837394L1429.962046,186.467674L1431.423136,190.686881L1437.047695,190.245384L1448.704888,182.960176L1447.687650,185.376672L1458.345769,191.348101L1481.484730,211.158898L1482.867662,207.050454L1493.529500,211.572016L1501.476019,209.553201L1505.580673,210.966396L1510.749649,215.515453L1515.833704,217.047217L1520.074097,220.403504L1527.626217,219.344434L1533.243482,224.191822L1535.391168,223.539426L1541.343968,222.164923L1549.885507,215.354478L1557.416424,211.650834L1564.093935,214.065992L1570.645119,214.182216L1576.761124,217.867720L1583.140997,218.152090L1593.231662,220.140741L1596.304168,214.640316L1591.188933,210.010029L1592.878095,201.897578L1601.691570,205.127234L1607.836711,206.043986L1616.299992,208.056966L1620.943807,213.945706L1631.710730,217.263108L1636.749859,215.800043L1644.015981,214.769434L1650.878038,215.808121L1659.253577,219.605293L1665.436985,223.655656L1671.204710,223.573041L1679.872460,224.865383L1684.464346,222.898752L1691.913382,221.586019L1697.565900,216.013189L1701.850366,216.866050L1706.809122,219.514521L1713.842229,218.855167L1723.269572,221.844218L1728.812676,216.845237L1726.425357,213.375867L1726.229929,205.052576L1727.858311,202.547442L1724.640501,198.243659L1719.918267,196.395241L1722.074065,192.533656L1728.574293,191.136597L1736.475236,190.926959L1747.381626,193.234196L1754.963439,196.092827L1764.765260,203.952402L1769.598785,207.320310L1775.304695,212.141342L1783.131297,219.869884L1795.798708,222.402122L1807.158892,228.047083L1814.795648,235.525595L1824.427164,235.534914L1827.761668,232.393425L1836.556038,230.047152L1838.210647,237.211741L1837.727034,240.126866L1841.362401,248.843970L1842.095552,256.555702L1833.377004,255.154995L1829.644054,257.947302L1835.650440,264.695466L1840.549756,273.985037L1837.348280,274.197259L1839.836659,278.197952L1841.589336,279.578358L1841.014144,276.954796L1846.193594,271.196749L1852.689757,275.019761L1856.742360,274.917607L1862.488974,270.303350L1863.667415,265.659070L1866.344430,256.560366L1868.812219,247.325824L1867.153553,241.821805L1868.496261,230.297954L1861.753967,217.614117L1854.752419,208.215665L1853.027708,200.404741L1847.086438,193.788593L1830.765897,185.278889L1823.689624,184.778616L1823.220991,188.635325L1815.831571,186.917752L1808.613980,182.089944L1798.271981,181.120083L1804.612231,163.085179L1809.050263,148.341499L1825.795502,146.118923L1844.838218,147.407351L1848.044106,143.729154L1858.241054,144.864188L1863.695292,150.287998L1871.835372,149.514076L1882.618233,147.553837L1872.738918,142.963650L1872.765090,130.519578L1884.390997,128.017929L1899.869907,137.109034L1904.522026,128.985716L1900.424246,122.937689L1906.460775,122.320701L1914.779973,132.687421L1911.651277,138.604662L1910.721553,146.280746L1911.030895,155.753338L1903.794967,157.444484L1907.333477,160.984800L1907.211036,165.519849L1915.400918,176.116681L1935.893003,193.250443L1949.312392,204.611083L1956.551069,210.009597L1958.689577,202.714689L1952.899614,194.804404L1960.120632,192.912206L1953.267933,184.086508L1959.698843,180.154587L1953.696939,176.848017L1949.364227,170.444004L1954.576487,170.161005L1943.047265,159.087197L1934.451643,157.390927L1930.783252,154.337510L1929.357003,147.058429L1925.414550,142.138394L1934.329901,143.162202L1936.019591,139.966707L1941.982857,142.736832L1949.757127,136.891300L1964.346974,142.040926L1962.241289,138.655390L1964.762993,134.099936L1966.732695,128.911253L1970.629641,128.053322L1978.964266,122.530682L1991.593308,124.125212L1990.383186,122.186664L1985.566114,119.166929L1980.272347,117.206242L1968.633033,111.235683L1958.270505,107.400977L1966.128567,107.927855L1968.656143,104.773687L1968.639860,104.735151L1926.554838,76.744668L1914.521901,73.751715L1894.449639,70.496311L1884.318786,70.903308L1864.879686,69.003663L1867.196272,72.025228L1878.005937,76.400982L1874.788974,78.603130L1856.638616,72.503312L1847.911982,73.259445L1836.137568,71.919732L1827.195793,72.098344L1822.251945,73.496740L1813.078637,71.553346L1806.542196,66.593051L1798.188713,63.808387L1786.394353,62.703293L1767.588321,63.972983L1746.986710,58.862885L1737.009294,54.928035L1685.653042,50.657281L1682.996658,53.502316L1694.917437,59.652685L1685.389648,58.719171L1684.092261,60.587868L1671.617241,58.538122L1665.259413,60.328958L1653.338985,57.335499L1657.126283,64.344215L1645.788616,61.620972L1632.991126,56.382954L1632.498968,53.617379L1624.811399,49.419115L1612.322977,45.989583L1604.482380,46.025203L1592.543532,44.890824L1598.539555,49.860202L1576.551571,48.888350L1571.634765,45.845375L1554.501737,44.775478L1547.836636,45.798936L1547.642697,47.486934L1540.225005,43.327337L1537.243404,44.549717L1528.059379,42.920509L1520.923924,42.018657L1522.346036,40.112678L1530.767975,36.566881L1533.713872,34.687613L1530.613371,31.407233L1523.658428,29.062139L1508.922743,26.035400L1495.026450,25.953017L1492.660474,27.458656L1487.437452,24.409897Z M1467.958674,16.383873L1466.073270,14.001748L1450.076854,10.731684L1446.176027,10.361349L1443.326127,11.001286L1444.959305,18.675529L1467.958674,16.383873Z M1211.418337,3.717039L1212.548737,2.899926L1205.189761,1.736029L1201.639807,2.610574L1199.966015,3.893167L1198.097008,2.450801L1191.438922,2.515120L1183.432873,3.488462L1193.384753,3.651723L1191.943228,5.342970L1197.606729,6.644077L1202.225397,5.735404L1202.248317,4.840184L1205.962397,4.428686L1211.418337,3.717039Z M1404.811041,0.000000L1396.898012,1.179203L1390.102197,4.829898L1397.528070,5.909015L1405.979398,9.907226L1416.209317,12.085007L1430.993606,13.752536L1440.001483,13.029445L1434.318639,7.920234L1416.934924,2.647917L1404.811041,0.000000Z " data-cartodb-id="144" data-created-at="2013-12-04T08:41:11+0100" data-name="Russia (Russian Federation)" data-updated-at="2013-12-29T19:58:21+0100"/><path d="M1289.003311,490.361080L1291.973482,487.763875L1291.043845,484.331761L1292.683643,480.329835L1295.725871,482.446692L1297.604198,481.710848L1305.779123,481.523839L1307.131171,482.337938L1314.041784,483.152252L1316.735567,482.744989L1318.684883,485.458894L1321.909753,484.101827L1326.417219,475.553532L1332.770815,471.890155L1352.948588,468.769615L1373.515682,460.629910L1376.858551,444.352588L1373.128673,438.587119L1371.863604,440.307758L1350.378340,436.203392L1346.965689,427.954763L1346.525944,426.071157L1344.905255,422.960453L1343.018348,423.539283L1340.749562,421.922917L1339.512587,419.925523L1338.321218,417.253380L1336.084657,414.969431L1334.923228,412.231487L1335.336327,409.516852L1334.554502,406.153752L1329.432212,402.728410L1327.920288,399.866955L1324.289002,398.006470L1320.753312,390.986118L1315.873942,391.197185L1313.687085,387.321842L1307.423035,386.537255L1294.477239,385.888048L1273.094612,369.570920L1262.173819,363.895895L1253.651254,361.697086L1252.489125,362.920640L1239.203742,366.989997L1246.932017,375.095031L1244.796299,376.472137L1243.939919,379.188712L1238.783206,380.312634L1237.413289,383.236129L1234.658550,385.736835L1226.839360,384.444207L1226.272630,387.688026L1226.212795,390.535198L1225.511075,395.002353L1228.964855,394.963225L1232.970901,400.556942L1237.733943,407.127893L1240.919659,413.191179L1243.094244,415.010924L1245.342578,419.235767L1245.089558,421.077726L1247.711594,425.745379L1251.611310,427.429743L1255.111513,430.607597L1259.719369,439.634530L1259.716540,444.459421L1260.870570,450.115572L1266.000443,457.871954L1269.228449,459.208575L1274.451517,464.809616L1276.845581,471.442973L1281.027813,478.269603L1284.862856,481.186840L1285.600227,484.434622L1287.883264,486.886648L1289.003311,490.361080Z " data-cartodb-id="147" data-created-at="2013-12-04T08:41:11+0100" data-name="Saudi Arabia" data-updated-at="2013-12-04T08:41:12+0100"/><path d="M1249.695649,351.795570L1263.671340,343.287204L1264.860110,333.325127L1263.362514,327.271403L1266.752091,325.221615L1269.422742,320.043854L1261.974960,321.333940L1258.333500,321.193532L1251.039207,324.307106L1245.505496,324.333056L1241.712264,322.770572L1234.610741,325.079031L1232.197677,323.465068L1232.429367,328.093591L1230.851931,329.910218L1229.269647,331.725536L1228.031706,335.130461L1229.422650,341.435590L1232.526809,341.854378L1234.024348,345.070667L1230.676896,348.153819L1229.517425,352.620807L1229.997098,355.952661L1229.207445,357.189473L1229.344359,357.244927L1237.329371,360.463867L1249.695649,351.795570Z " data-cartodb-id="160" data-created-at="2013-12-04T08:41:11+0100" data-name="Syria" data-updated-at="2013-12-04T08:41:12+0100"/><path d="M1455.096379,295.310764L1452.425942,295.519015L1450.808549,293.282817L1451.050321,289.570953L1442.793580,291.428378L1442.210556,296.587132L1440.325852,301.070527L1434.673869,300.687670L1433.923385,304.281838L1439.331710,306.237206L1442.377677,312.367822L1440.707532,320.747897L1443.007203,321.759042L1447.212622,319.094649L1449.873474,320.696881L1451.082440,316.901210L1455.134282,317.073301L1455.852567,315.856370L1455.687628,312.521684L1457.796797,309.651841L1461.919506,311.526716L1461.867583,314.051739L1463.996996,314.444515L1465.186629,321.406177L1468.542058,324.123562L1470.440056,322.379918L1473.210765,321.556239L1476.416522,317.843603L1481.200029,318.454381L1488.123359,318.467445L1485.816473,313.747938L1485.144412,310.537306L1480.554943,308.661920L1478.596854,309.490938L1474.712536,301.903560L1462.502181,303.142516L1453.532206,300.494647L1446.509355,301.125665L1445.800701,296.449405L1453.408796,297.803483L1455.096379,295.310764Z " data-cartodb-id="164" data-created-at="2013-12-04T08:41:11+0100" data-name="Tajikistan" data-updated-at="2013-12-04T08:41:12+0100"/><path d="M1717.861883,524.239679L1715.187993,514.408162L1719.007286,507.638949L1728.039752,506.083771L1734.857183,507.252309L1736.734372,503.582797L1736.171996,496.691907L1729.451757,489.595967L1727.862228,481.560231L1721.494651,474.948778L1716.053943,474.389674L1715.043997,477.222245L1710.927027,477.457631L1708.595892,476.022188L1701.821411,480.879298L1700.605592,473.581317L1701.081157,465.004158L1696.248678,464.631689L1695.116293,459.740840L1691.686270,457.229091L1687.921974,459.111209L1684.317458,462.640432L1679.381770,463.004903L1677.420492,471.805395L1674.641888,473.284095L1679.059537,480.427866L1684.368520,486.372086L1687.984688,491.745724L1686.267849,498.823560L1683.990433,500.328089L1686.165244,504.412461L1691.631127,510.880950L1692.918470,515.425418L1693.181509,519.207312L1696.663569,526.631743L1693.380200,534.220817L1690.549439,542.586159L1688.972843,550.393674L1688.507247,555.473007L1690.130961,559.995339L1691.027010,555.210067L1694.728377,559.071480L1698.797041,563.667451L1700.238361,567.699268L1703.231700,570.823215L1704.405957,569.371358L1710.439015,572.936832L1711.203003,577.117167L1715.895905,576.144920L1718.080523,572.800314L1714.147888,568.575180L1709.752382,567.628798L1705.497428,562.966346L1703.798612,555.919578L1700.414250,548.489171L1695.730975,548.233601L1694.828557,542.341108L1696.607654,535.150334L1699.438989,523.259461L1699.123467,514.305510L1705.401181,514.257754L1704.998187,520.653667L1711.090813,520.501797L1717.861883,524.239679Z " data-cartodb-id="163" data-created-at="2013-12-04T08:41:11+0100" data-name="Thailand" data-updated-at="2013-12-04T08:41:12+0100"/><path d="M1880.379026,695.848032L1880.973005,697.453419L1880.896803,699.921660L1887.093124,697.583838L1894.852497,694.020091L1897.664715,691.814360L1895.029022,690.805095L1892.709998,691.821931L1887.688523,692.097490L1881.375628,693.927535L1880.379026,695.848032Z " data-cartodb-id="9" data-created-at="2013-12-04T08:41:11+0100" data-name="Timor-Leste" data-updated-at="2013-12-04T08:41:12+0100"/><path d="M1227.968443,286.583020L1215.591652,280.997965L1204.770790,281.165998L1197.460008,283.402344L1190.284192,288.554788L1177.587302,287.500597L1175.583907,293.575819L1165.439062,293.897206L1158.943007,301.639590L1163.572051,305.546506L1160.979154,311.945807L1166.325052,316.533750L1171.115660,324.782058L1178.450344,324.632607L1185.418622,329.050144L1189.978168,328.066369L1191.163971,324.624026L1198.451788,324.902778L1204.407164,329.355213L1214.539563,328.423185L1218.596929,323.647539L1224.463808,325.556959L1228.481561,324.850239L1226.321771,327.966718L1229.269647,331.725536L1230.851931,329.910218L1232.429367,328.093591L1232.197677,323.465068L1234.610741,325.079031L1241.712264,322.770572L1245.505496,324.333056L1251.039207,324.307106L1258.333500,321.193532L1261.974960,321.333940L1269.422742,320.043854L1272.107863,318.755320L1280.083605,319.825276L1282.777794,321.938270L1285.774525,320.536776L1281.026286,313.900260L1281.909015,311.342066L1278.204065,301.928850L1282.334334,299.610060L1279.286020,297.243098L1273.990892,295.236651L1273.896265,291.329316L1272.238705,288.518757L1265.149043,284.615552L1258.216658,284.992445L1251.200328,289.144396L1245.401448,288.434127L1237.932185,289.663761L1227.968443,286.583020Z M1164.606068,291.726673L1167.126103,289.254879L1174.899429,288.815130L1175.848668,286.864650L1169.779112,284.300681L1168.610650,281.257678L1162.832708,280.198154L1156.455198,282.684770L1159.905643,284.782559L1158.452315,289.762153L1156.986742,290.658040L1157.083372,292.310039L1159.582042,296.055616L1164.606068,291.726673Z " data-cartodb-id="167" data-created-at="2013-12-04T08:41:11+0100" data-name="Turkey" data-updated-at="2013-12-04T08:41:12+0100"/><path d="M1398.890063,333.145100L1406.445947,336.281525L1411.318069,335.179782L1411.925880,331.430403L1416.983820,330.180932L1420.225385,327.659158L1420.053892,321.023114L1425.337933,319.419018L1425.682792,316.469126L1429.380531,318.684638L1431.463941,318.941694L1430.409287,313.874620L1420.638687,310.340681L1412.656951,306.312262L1407.342517,302.458197L1398.307504,296.847873L1392.852625,288.576825L1390.247405,287.131587L1383.227101,287.497923L1380.271193,285.869629L1377.843532,279.554035L1367.880453,275.389216L1363.611355,279.968656L1358.724940,282.691726L1360.830647,286.686743L1353.432005,286.795410L1350.151375,287.183381L1344.004590,280.968367L1339.021320,278.756978L1331.992667,280.399130L1329.729055,283.029784L1332.997528,288.174337L1332.287352,282.358680L1337.073463,280.342611L1340.065166,284.869049L1346.015879,289.644371L1340.819865,292.203599L1334.140100,290.239257L1334.203404,297.011606L1338.707048,297.483508L1338.208305,303.051735L1343.985723,305.822582L1344.782876,314.441520L1347.184087,320.300600L1352.767878,318.695987L1356.574542,313.962003L1361.101072,314.201737L1363.713915,312.662126L1368.633314,313.423705L1376.937527,317.619426L1382.489035,318.525488L1391.740579,325.872784L1396.825556,326.169728L1398.890063,333.145100Z " data-cartodb-id="165" data-created-at="2013-12-04T08:41:11+0100" data-name="Turkmenistan" data-updated-at="2013-12-04T08:41:12+0100"/><path d="M1346.525944,426.071157L1346.965689,427.954763L1350.378340,436.203392L1371.863604,440.307758L1373.128673,438.587119L1373.017198,435.309199L1374.750846,431.939565L1374.452642,428.611272L1377.468869,427.007407L1376.114926,425.874810L1376.146273,420.569739L1379.716438,420.537955L1378.060880,414.100959L1376.414707,411.322746L1372.565752,416.346019L1367.898264,421.571379L1363.642948,427.078955L1359.385943,426.838215L1353.569365,426.625466L1348.200414,427.909100L1347.736301,425.675511L1346.525944,426.071157Z " data-cartodb-id="14" data-created-at="2013-12-04T08:41:11+0100" data-name="United Arab Emirates" data-updated-at="2013-12-04T08:41:12+0100"/><path d="M1431.463941,318.941694L1435.216801,318.996746L1440.707532,320.747897L1442.377677,312.367822L1439.331710,306.237206L1433.923385,304.281838L1434.673869,300.687670L1440.325852,301.070527L1442.210556,296.587132L1442.793580,291.428378L1451.050321,289.570953L1450.808549,293.282817L1452.425942,295.519015L1455.096379,295.310764L1460.371515,296.105244L1467.043994,290.323073L1457.890439,286.125760L1453.831816,288.108895L1448.030940,285.116677L1451.884669,279.991092L1449.684582,279.214158L1446.404119,280.673401L1439.488669,286.194528L1438.331952,291.901956L1435.886083,291.952872L1432.952023,288.169399L1424.496393,287.910938L1421.208845,281.413499L1417.996620,281.358155L1416.050443,273.452723L1406.465099,267.710441L1395.514520,268.323615L1388.237705,269.468052L1379.939558,262.379464L1373.772746,259.398910L1362.146753,253.738737L1360.748782,253.050985L1345.495942,257.726971L1353.432005,286.795410L1360.830647,286.686743L1358.724940,282.691726L1363.611355,279.968656L1367.880453,275.389216L1377.843532,279.554035L1380.271193,285.869629L1383.227101,287.497923L1390.247405,287.131587L1392.852625,288.576825L1398.307504,296.847873L1407.342517,302.458197L1412.656951,306.312262L1420.638687,310.340681L1430.409287,313.874620L1431.463941,318.941694Z " data-cartodb-id="172" data-created-at="2013-12-04T08:41:11+0100" data-name="Uzbekistan" data-updated-at="2013-12-04T08:41:12+0100"/><path d="M1746.188894,447.995683L1738.749475,445.883534L1734.847970,442.576592L1735.162408,437.887563L1728.480943,436.400904L1724.561174,433.346550L1719.323836,437.685014L1712.647085,438.624344L1707.033825,438.583334L1703.586983,440.569817L1708.728802,446.996606L1713.045443,454.391063L1721.740081,454.454780L1725.578736,461.552510L1721.391077,463.684844L1719.811044,466.611016L1729.031449,471.480623L1736.369313,481.100598L1741.886694,488.273595L1748.059189,493.938188L1750.623447,499.689215L1750.347474,507.828479L1752.630679,513.257949L1752.790122,523.013563L1741.380261,529.278740L1744.958799,534.210510L1737.500874,534.800740L1731.579768,538.079612L1737.252735,542.703950L1735.646441,548.219085L1738.605449,553.439752L1747.005532,545.859807L1752.316375,539.073290L1760.063006,533.831886L1765.533209,528.470805L1765.005970,514.149428L1759.885233,499.082514L1754.667522,492.544285L1747.501899,487.515008L1739.288920,476.876849L1732.557956,468.296159L1733.232547,462.648010L1737.904603,454.958408L1746.188894,447.995683Z " data-cartodb-id="10" data-created-at="2013-12-04T08:41:11+0100" data-name="Vietnam" data-updated-at="2013-12-04T08:41:12+0100"/><path d="M1362.225441,487.892832L1359.496813,482.204360L1352.948588,468.769615L1332.770815,471.890155L1326.417219,475.553532L1321.909753,484.101827L1318.684883,485.458894L1316.735567,482.744989L1314.041784,483.152252L1307.131171,482.337938L1305.779123,481.523839L1297.604198,481.710848L1295.725871,482.446692L1292.683643,480.329835L1291.043845,484.331761L1291.973482,487.763875L1289.003311,490.361080L1289.516381,493.912102L1288.739867,495.482289L1289.667655,499.202425L1288.263831,499.598337L1290.480942,502.945196L1292.169564,508.966722L1293.447738,511.368764L1293.444584,515.818991L1295.504915,520.574577L1300.464609,520.988547L1302.698454,519.883789L1306.240069,520.063429L1307.253948,517.992752L1309.097947,517.398725L1310.558952,515.249147L1312.339068,514.786585L1318.307990,514.363776L1322.777664,512.796435L1326.772486,509.417724L1328.936696,509.899223L1332.051807,509.450542L1338.113070,503.706278L1349.262970,499.908412L1356.128437,496.471234L1356.111923,493.694790L1357.240508,490.080026L1362.225441,487.892832Z " data-cartodb-id="12" data-created-at="2013-12-04T08:41:11+0100" data-name="Yemen" data-updated-at="2013-12-04T08:41:12+0100"/></g><g fill="#000" font-family="Arial" font-size="12px" id="mylayer-label" stroke="none"><text text-anchor="middle" y="333.277831626"><tspan dy="0" x="1209.09671365"><![CDATA[Cyprus]]></tspan></text><text text-anchor="middle" y="274.075155112"><tspan dy="0" x="1269.96622435"><![CDATA[Georgia]]></tspan></text><text text-anchor="middle" y="387.562904202"><tspan dy="0" x="1568.14548439"><![CDATA[Nepal]]></tspan></text><text text-anchor="middle" y="357.480796943"><tspan dy="0" x="1226.95709733"><![CDATA[Palestine]]></tspan></text><text text-anchor="middle" y="411.303573225"><tspan dy="0" x="1342.90677522"><![CDATA[Qatar]]></tspan></text><text text-anchor="middle" y="320.723038335"><tspan dy="0" x="1846.35529603"><![CDATA[South Korea (Republic of Korea)]]></tspan></text><text text-anchor="middle" y="554.760753286"><tspan dy="0" x="1563.43190842"><![CDATA[Sri Lanka]]></tspan></text><text text-anchor="middle" y="341.80147983"><tspan dy="0" x="1434.83633872"><![CDATA[Afghanistan]]></tspan></text><text text-anchor="middle" y="289.612386376"><tspan dy="0" x="1282.99348925"><![CDATA[Armenia]]></tspan></text><text text-anchor="middle" y="289.622923211"><tspan dy="0" x="1299.84460313"><![CDATA[Azerbaijan]]></tspan></text><text text-anchor="middle" y="423.391735429"><tspan dy="0" x="1618.15231202"><![CDATA[Bangladesh]]></tspan></text><text text-anchor="middle" y="394.141337715"><tspan dy="0" x="1614.33832129"><![CDATA[Bhutan]]></tspan></text><text text-anchor="middle" y="579.267679617"><tspan dy="0" x="1810.39506154"><![CDATA[Brunei Darussalam]]></tspan></text><text text-anchor="middle" y="514.192386131"><tspan dy="0" x="1733.78200827"><![CDATA[Cambodia]]></tspan></text><text text-anchor="middle" y="361.18933755"><tspan dy="0" x="1225.46786541"><![CDATA[Israel]]></tspan></text><text text-anchor="middle" y="290.420187726"><tspan dy="0" x="1827.0213553"><![CDATA[North Korea (Democratic People’s Republic of Korea)]]></tspan></text><text text-anchor="middle" y="322.294974457"><tspan dy="0" x="1680.91720175"><![CDATA[China]]></tspan></text><text text-anchor="middle" y="431.307920945"><tspan dy="0" x="1543.41327008"><![CDATA[India]]></tspan></text><text text-anchor="middle" y="311.764463796"><tspan dy="0" x="1908.66059588"><![CDATA[Japan]]></tspan></text><text text-anchor="middle" y="363.144785628"><tspan dy="0" x="1237.85128817"><![CDATA[Jordan]]></tspan></text><text text-anchor="middle" y="635.505268579"><tspan dy="0" x="1828.66112332"><![CDATA[Indonesia]]></tspan></text><text text-anchor="middle" y="352.832869774"><tspan dy="0" x="1356.55200555"><![CDATA[Iran]]></tspan></text><text text-anchor="middle" y="348.509753627"><tspan dy="0" x="1283.89787763"><![CDATA[Iraq]]></tspan></text><text text-anchor="middle" y="226.97355064"><tspan dy="0" x="1409.82635701"><![CDATA[Kazakhstan]]></tspan></text><text text-anchor="middle" y="378.850069439"><tspan dy="0" x="1314.35095406"><![CDATA[Kuwait]]></tspan></text><text text-anchor="middle" y="279.377867765"><tspan dy="0" x="1475.52160252"><![CDATA[Kyrgyzstan]]></tspan></text><text text-anchor="middle" y="467.346651094"><tspan dy="0" x="1719.78425979"><![CDATA[Laos (Lao People’s Democratic Republic)]]></tspan></text><text text-anchor="middle" y="341.436473388"><tspan dy="0" x="1229.25583407"><![CDATA[Lebanon]]></tspan></text><text text-anchor="middle" y="587.126940787"><tspan dy="0" x="1773.18575805"><![CDATA[Malaysia]]></tspan></text><text text-anchor="middle" y="237.391476692"><tspan dy="0" x="1641.21821125"><![CDATA[Mongolia]]></tspan></text><text text-anchor="middle" y="446.529531866"><tspan dy="0" x="1665.23963016"><![CDATA[Myanmar]]></tspan></text><text text-anchor="middle" y="449.716767674"><tspan dy="0" x="1380.77076747"><![CDATA[Oman]]></tspan></text><text text-anchor="middle" y="373.633523449"><tspan dy="0" x="1463.50746906"><![CDATA[Pakistan]]></tspan></text><text text-anchor="middle" y="521.795095631"><tspan dy="0" x="1862.85751422"><![CDATA[Philippines]]></tspan></text><text text-anchor="middle" y="128.466904083"><tspan dy="0" x="1527.5093061"><![CDATA[Russia (Russian Federation)]]></tspan></text><text text-anchor="middle" y="421.303615335"><tspan dy="0" x="1297.08713879"><![CDATA[Saudi Arabia]]></tspan></text><text text-anchor="middle" y="332.351268109"><tspan dy="0" x="1246.27167957"><![CDATA[Syria]]></tspan></text><text text-anchor="middle" y="302.971746163"><tspan dy="0" x="1459.14818463"><![CDATA[Tajikistan]]></tspan></text><text text-anchor="middle" y="495.30085057"><tspan dy="0" x="1703.7210424"><![CDATA[Thailand]]></tspan></text><text text-anchor="middle" y="688.829846633"><tspan dy="0" x="1887.6079588"><![CDATA[Timor-Leste]]></tspan></text><text text-anchor="middle" y="299.204207629"><tspan dy="0" x="1218.84551399"><![CDATA[Turkey]]></tspan></text><text text-anchor="middle" y="299.084639641"><tspan dy="0" x="1379.93611905"><![CDATA[Turkmenistan]]></tspan></text><text text-anchor="middle" y="423.14635616"><tspan dy="0" x="1365.20125884"><![CDATA[United Arab Emirates]]></tspan></text><text text-anchor="middle" y="277.759281797"><tspan dy="0" x="1400.62033666"><![CDATA[Uzbekistan]]></tspan></text><text text-anchor="middle" y="482.083282498"><tspan dy="0" x="1739.38548045"><![CDATA[Vietnam]]></tspan></text><text text-anchor="middle" y="487.923445771"><tspan dy="0" x="1322.93846166"><![CDATA[Yemen]]></tspan></text></g></svg>