<?xml version="1.0" encoding="utf-8"?><!DOCTYPE svg  PUBLIC '-//W3C//DTD SVG 1.1//EN'  'http://www.w3.org/Graphics/SVG/1.1/DTD/svg11.dtd'><svg enable_background="new 0 0 2000 1479" height="1479px" pretty_print="False" style="stroke-linejoin: round; stroke:#000; fill: none;" version="1.1" viewBox="0 0 2000 1479" width="2000px" xmlns="http://www.w3.org/2000/svg" xmlns:xlink="http://www.w3.org/1999/xlink"><defs><style type="text/css"><![CDATA[path { fill-rule: evenodd; }]]></style></defs><metadata><views><view h="1479.90967827" padding="0" w="2000"><proj flip="auto" id="robinson" lon0="14.4196596378"/><bbox h="21.44" w="28.99" x="166.05" y="-815.11"/></view></views></metadata><g class="" id="mylayer"><path d="M1531.901686,780.434152L1545.416413,773.772577L1534.359956,770.323096L1524.144919,782.035110L1492.686467,784.470470L1472.517746,802.695205L1465.462022,820.707775L1469.486113,830.579743L1502.674361,843.951345L1531.809606,820.276988L1536.603440,821.944733L1531.901686,780.434152Z " data-cartodb-id="2" data-created-at="2013-11-29T01:00:00+0100" data-name="Steyr-Stadt" data-updated-at="2013-11-29T01:00:00+0100"/><path d="M1364.209036,442.507039L1361.153970,443.269794L1360.278935,444.586256L1350.099085,477.984815L1331.499018,484.418419L1334.059010,501.599558L1337.790319,518.237626L1327.644676,520.318267L1327.007959,523.690708L1337.474713,525.998536L1347.198139,541.838266L1341.572160,544.992703L1359.833160,553.594873L1352.405749,577.571083L1360.321873,584.609397L1345.914044,591.641011L1349.005101,592.304503L1363.956330,605.807342L1367.166406,605.567711L1384.488340,608.465897L1404.437624,631.610040L1418.756981,612.222029L1445.829578,604.409119L1457.584792,609.781614L1476.872319,589.757918L1467.174364,584.620700L1471.482366,579.954855L1421.095760,555.215636L1404.462731,521.445049L1386.282100,506.875044L1426.066073,503.624760L1403.931528,490.847580L1414.974074,484.349483L1384.063262,467.942988L1366.220105,469.702497L1364.209036,442.507039Z " data-cartodb-id="1" data-created-at="2013-11-29T01:00:00+0100" data-name="Linz-Stadt" data-updated-at="2013-11-29T01:00:00+0100"/><path d="M1156.070302,634.831636L1143.478695,631.660907L1128.537741,641.618518L1110.479258,638.294022L1101.535169,649.845615L1107.666580,655.695531L1088.200727,656.253960L1082.813327,664.029065L1083.153090,664.856546L1098.284337,687.099430L1088.546235,698.944658L1094.394023,728.321179L1100.606300,715.244324L1118.431813,710.146823L1166.648352,692.469211L1196.796944,676.641476L1179.905264,648.572771L1160.665272,648.596509L1156.070302,634.831636Z " data-cartodb-id="3" data-created-at="2013-11-29T01:00:00+0100" data-name="Wels-Stadt" data-updated-at="2013-11-29T01:00:00+0100"/><path d="M1020.757677,362.876157L1009.449568,356.463318L992.503219,367.557042L963.290423,363.682852L981.704789,381.998815L978.404051,389.098966L984.524399,398.904215L990.639905,404.554921L990.825203,404.627236L1014.803836,418.458801L1015.085849,418.567277L1015.163317,418.597785L1022.201561,420.574078L1022.229258,420.585378L1022.655385,420.753741L1029.776974,429.503085L1029.726649,429.525685L1029.449699,429.647723L1024.919189,430.331360L1021.940301,434.261445L1021.581756,434.642252L1008.428599,449.669072L1008.432432,449.684892L1006.717392,453.608346L1006.830828,453.739429L1006.883634,453.800451L1006.208791,456.720461L1006.475664,456.990540L1007.031572,457.539739L1007.006348,457.636922L1006.987389,457.709245L1005.589436,459.553474L1005.383121,459.674388L1004.220974,465.496409L1004.412438,465.554042L1007.263130,466.087429L1007.346546,466.063698L1007.413344,466.045617L1011.000416,467.590408L1011.093538,467.601709L1011.135984,467.606229L1011.714087,468.436825L1011.614104,468.640236L1011.576487,468.714821L1011.456067,468.957784L1011.248665,469.299064L1010.597161,469.881048L1010.520049,470.016656L1010.395219,470.235889L1010.276697,470.294652L1009.608355,472.774025L1009.796733,472.838439L1009.917077,472.879122L1009.928421,473.543605L1009.840673,473.532304L1009.821608,473.528914L1003.844481,474.922297L1012.168639,480.029140L1012.141468,480.186222L1012.135041,480.221255L1013.685349,482.658861L1013.837926,482.562803L1014.973838,481.911869L1015.148468,481.724274L1018.342590,480.560281L1018.514746,480.561411L1018.620582,480.562541L1022.914306,487.244799L1022.534172,489.780756L1022.591291,489.789797L1011.731778,500.269393L1017.556843,505.583291L1017.788325,505.846614L997.641693,515.638248L997.625152,515.657461L997.542365,515.752394L997.454768,515.830375L997.348754,515.901576L989.871663,513.314640L989.703390,513.392621L987.422102,514.175821L987.475239,514.340824L987.858602,515.380571L988.004396,515.599822L988.029578,515.638248L985.139035,518.626403L985.101631,518.841135L985.089163,518.916857L974.848114,537.431579L974.679813,541.058419L974.876792,541.179352L974.946227,541.222300L976.946519,542.369467L983.772528,541.246035L984.022405,541.429129L991.452926,543.469168L991.627590,543.454475L991.853112,543.436391L1000.163706,541.094586L1000.184652,541.074242L1000.216600,541.044857L1013.529037,535.158740L1013.612575,535.161000L1013.619747,535.161000L1013.629691,535.162131L1013.648517,535.162131L1013.634085,535.111272L1013.621855,535.066064L1013.621830,534.867148L1013.743996,534.845675L1016.512028,535.150829L1025.823467,537.437230L1024.008134,545.910442L1024.115292,546.301499L1024.135843,546.374964L1024.190457,549.103328L1024.208104,549.384755L1024.215285,549.446918L1022.267949,549.670703L1021.999789,549.657141L1009.184527,554.843787L1008.804124,554.890127L1002.739081,555.692597L1015.866404,585.665094L1026.916596,584.451155L1048.241294,591.281572L1059.478549,587.272381L1074.165134,592.150780L1074.553138,592.455964L1081.528649,592.545259L1083.106835,601.623985L1103.288780,602.342874L1126.366900,597.575164L1131.448022,589.043565L1156.201272,593.966062L1162.801982,585.930714L1171.687942,590.190825L1179.237437,590.453057L1192.943570,581.681936L1255.117788,556.960729L1255.258278,556.993506L1244.357506,551.071059L1243.556577,536.548889L1232.019039,538.300707L1233.928140,520.992980L1234.398517,514.262843L1234.822845,508.736394L1209.653059,521.044968L1167.769403,510.770663L1163.836202,509.485682L1125.929161,488.317268L1121.462693,470.841605L1127.034279,448.698384L1089.649418,397.506520L1077.441092,394.392511L1074.205399,396.735925L1056.436768,398.816082L1046.671625,414.626014L1030.830754,399.065792L1022.682705,367.832721L1020.757677,362.876157Z " data-cartodb-id="5" data-created-at="2013-11-29T01:00:00+0100" data-name="Eferding" data-updated-at="2013-11-29T01:00:00+0100"/><path d="M393.557122,567.628066L391.799197,563.357943L384.931715,536.508202L338.501156,550.719557L285.696192,556.579837L269.196357,566.035526L227.908010,581.455878L176.033860,634.280007L101.418321,642.269628L83.018301,680.747314L66.057473,697.464841L41.301027,704.245569L36.395525,720.783898L29.819060,731.565840L6.086191,726.957747L0.676174,757.929514L13.076085,788.611957L80.866726,838.819096L106.742041,874.355350L134.999143,880.791552L149.909359,845.667755L173.755486,829.892286L207.581169,844.077984L240.380883,829.272671L254.850822,833.952588L266.815545,823.670145L271.478691,828.312720L269.587900,838.761430L282.615309,836.986237L287.357425,848.181318L282.890818,855.532089L296.553581,852.664591L299.253249,865.994686L324.604059,873.321853L344.013058,874.883406L341.922971,882.822379L349.940156,883.776734L367.373918,876.763832L359.114320,887.583986L365.764198,904.477642L412.568388,899.775885L424.534865,890.396182L486.051435,874.003690L489.861925,859.753070L504.529636,861.671910L506.552368,854.898887L506.521308,854.773377L508.906679,845.108056L518.306639,845.348896L512.691769,839.317733L512.701281,839.351654L496.781294,837.547062L523.221560,792.150836L525.840280,776.899847L506.805876,764.506161L516.058107,763.980434L515.983718,764.503899L516.136213,766.406694L516.553337,766.910941L515.618038,749.854912L515.584159,749.662715L515.437058,746.066369L515.436673,746.034713L515.436097,745.987229L515.498539,745.538393L515.476699,745.455862L516.532830,743.013840L516.478850,742.829558L521.242375,726.551884L521.315429,726.491965L521.308839,726.435438L521.306071,726.408305L520.923019,726.176545L520.712276,726.048794L519.946204,721.966433L519.912072,721.848858L519.899389,721.860163L519.827324,721.791201L519.665787,721.713194L519.619985,721.621621L519.592988,721.568486L519.303858,721.436214L519.293793,721.420387L519.314094,721.298290L520.063951,720.823467L520.045614,720.791812L520.063690,720.676498L520.097406,720.644843L520.109440,720.454914L520.081274,720.384822L520.250671,720.251419L520.439537,720.153063L520.485084,720.019661L520.574619,719.730245L520.560930,719.648847L520.475006,719.678241L520.456549,719.683894L520.433760,719.691808L520.389201,719.670328L520.405905,719.626237L520.464950,719.532403L520.974775,717.581115L520.960902,717.327877L521.024117,717.281526L521.065983,717.303006L521.101839,717.341444L521.137106,717.436408L521.238639,717.373098L522.080756,711.275076L522.221968,711.175590L522.152245,711.114543L522.071950,711.043320L513.537273,707.563605L519.611569,692.966625L519.636077,692.489560L519.980873,689.047242L519.985399,688.904802L520.249752,687.924677L519.826971,687.662407L520.409650,684.794393L520.504055,684.342204L521.225210,681.180283L521.085000,681.020887L519.570441,679.578414L519.524714,679.253971L509.052230,663.171063L508.774927,662.883933L533.868087,647.909220L534.258352,646.820636L534.295186,646.691769L539.218497,639.813272L539.295197,639.573629L539.324082,639.343028L526.920884,632.136798L526.879142,632.078018L525.046396,630.480790L524.709392,630.445748L524.681939,630.463834L523.432821,629.367367L523.465472,629.191028L522.751254,628.850784L522.681096,628.860958L522.398590,628.900521L522.196841,628.875653L522.256625,628.624709L522.763862,627.762232L522.773237,627.625457L517.121260,624.030876L524.656504,618.727210L525.577789,610.008813L513.168349,610.215666L501.448162,599.501233L499.975544,600.448445L499.889858,600.636079L498.640950,605.574493L498.445756,605.709003L495.373123,608.086102L495.203970,608.182181L495.191217,608.166357L489.135862,605.729349L488.934837,605.454677L489.920474,602.271663L489.345000,602.120199L482.030526,597.977558L481.878962,597.951561L481.741902,597.927824L466.995265,585.801860L457.079761,585.789427L452.113860,577.852523L442.289369,583.808017L435.754423,578.510349L441.482294,561.765415L441.484716,561.722465L441.486513,561.696469L441.397523,560.990062L439.527910,560.180802L430.367823,562.656055L429.903069,562.156482L428.737065,560.873646L428.631837,560.725583L428.605140,560.689415L428.020991,559.966055L427.969883,559.966055L418.674702,563.100245L418.247057,563.035820L418.216365,562.928446L416.281672,563.493574L416.125196,563.460797L412.953484,566.786020L412.834281,566.865138L412.502407,567.085539L407.276396,571.576092L407.229298,571.804407L407.128031,571.857529L405.464589,572.601249L405.397747,572.973109L405.252118,573.007017L404.955868,573.080485L404.706993,573.243245L404.660549,573.167516L402.392798,573.559722L401.961909,573.369836L401.471733,573.047707L401.240711,573.209336L401.137311,573.126826L397.418058,573.535986L393.557122,567.628066Z " data-cartodb-id="4" data-created-at="2013-11-29T01:00:00+0100" data-name="Braunau Am Inn" data-updated-at="2013-11-29T01:00:00+0100"/><path d="M1577.172293,185.945639L1568.973598,175.958783L1529.630795,172.649838L1497.661652,137.713357L1474.518714,143.393415L1487.079560,164.051226L1477.695594,187.761662L1467.217571,205.401685L1427.393329,200.718009L1435.318493,217.886478L1435.502216,218.293081L1436.119318,219.639393L1436.202160,219.717326L1437.275611,222.615527L1451.704155,248.583897L1451.736590,248.598581L1451.984460,248.538715L1476.518358,257.682408L1477.832147,266.981048L1463.554165,263.317821L1463.524995,263.144996L1461.197315,257.227195L1446.552335,257.332244L1439.273999,269.132912L1439.252558,269.145338L1438.722752,269.490993L1434.065036,265.412058L1434.040161,265.224548L1426.068509,267.245371L1425.933222,267.231816L1425.803136,267.216002L1425.526559,267.144838L1420.635719,266.574398L1422.437023,272.273185L1422.001822,274.351651L1421.998022,274.384409L1421.995077,274.404742L1423.088915,275.724121L1423.172003,275.900340L1423.180440,275.917284L1423.617597,276.718177L1423.624243,276.735121L1423.696295,276.895526L1423.901095,277.237798L1424.070966,277.449035L1427.752712,311.491200L1427.757953,311.501367L1427.869586,311.771365L1441.690580,321.399893L1442.149530,321.811113L1449.826688,327.578391L1453.960840,353.195923L1458.609881,358.623518L1458.771834,358.907101L1459.892130,362.023140L1459.946733,362.344010L1462.261674,371.086660L1462.378030,371.240319L1462.563119,371.474197L1463.093406,376.056868L1463.123154,376.321255L1461.704608,377.692902L1461.693071,377.777641L1461.692169,377.801368L1461.710975,377.979886L1461.790474,378.322234L1461.846787,378.439739L1461.888966,378.619387L1462.793154,380.398922L1462.478290,380.583090L1462.467156,380.589870L1462.439684,380.605688L1464.941417,382.463191L1465.184974,382.593126L1465.343208,382.624763L1465.844884,382.649620L1465.987812,382.656399L1465.990499,382.656399L1465.995958,382.657529L1466.041894,382.660919L1467.292531,382.782945L1467.490086,383.015698L1477.261539,384.765873L1477.232737,384.823496L1477.179997,384.931965L1477.648152,385.439279L1477.756122,385.588423L1479.435870,387.673052L1479.477303,387.818807L1479.655443,387.960042L1479.710715,388.004108L1480.070890,387.981510L1480.119041,388.014277L1480.188815,388.060602L1480.237997,388.285449L1479.952893,388.305787L1479.941333,388.306917L1481.064664,389.330593L1481.290970,389.433412L1481.616573,390.997178L1481.544304,391.060452L1481.456037,391.137285L1481.452409,391.148584L1481.410413,391.280781L1482.657543,394.685154L1482.442877,395.034293L1493.011668,404.893897L1493.429225,404.776385L1496.037217,406.978608L1496.038627,406.961660L1496.067757,406.706296L1497.099431,406.285964L1497.226339,406.293873L1497.507116,406.310822L1502.872302,410.659925L1503.007546,410.920940L1503.272474,411.583083L1503.299925,412.149182L1503.449037,412.392119L1503.515702,412.503983L1504.316477,413.642964L1504.374165,413.920930L1505.158782,416.152572L1505.364019,416.201160L1505.416918,416.213589L1509.403189,417.431675L1509.737565,417.470093L1509.748473,417.614727L1511.404610,419.379714L1511.587138,419.626044L1511.732476,419.759379L1512.142238,419.835086L1513.461041,421.011372L1513.530018,421.106289L1515.953383,423.290504L1516.917188,439.075219L1516.945245,439.233419L1516.616946,441.189452L1516.443839,441.579304L1516.454512,441.875365L1516.399085,441.888925L1515.086109,441.005262L1514.351744,440.819941L1499.437586,449.031740L1499.370966,449.087111L1500.184944,456.806344L1488.185340,457.414305L1489.938107,458.987322L1490.250748,459.164739L1496.127540,468.113627L1508.155098,471.248430L1508.821524,471.351266L1513.831416,472.307306L1515.145064,474.673680L1515.103052,474.758436L1522.772870,488.503735L1522.922657,488.767050L1522.872914,489.998867L1523.100790,490.144651L1532.026500,499.563062L1567.420824,513.041143L1567.351748,513.360977L1567.907524,514.204075L1568.150398,514.381510L1569.487787,513.965611L1570.748362,511.844308L1570.873515,511.697388L1588.693252,503.315102L1599.848411,504.395514L1603.807291,506.273808L1603.846695,506.308842L1603.965888,506.415075L1609.222945,507.869571L1618.705775,511.514303L1618.997291,526.645001L1626.703025,534.352907L1640.880278,526.154501L1655.895529,528.874858L1654.991805,516.144561L1654.916604,515.709448L1668.849377,516.015722L1668.912972,516.003290L1668.968033,515.996509L1669.243966,507.324841L1669.118603,507.173402L1671.095024,505.418290L1671.183505,505.414900L1672.290910,505.538085L1672.310508,505.548257L1672.444916,505.618325L1674.529867,505.265721L1674.287272,505.222776L1674.315559,502.969281L1674.276106,502.945548L1674.088319,502.833665L1673.661548,502.643802L1673.608463,502.594076L1673.562979,502.550001L1670.524777,492.219536L1670.292725,491.738107L1670.315168,490.161603L1670.305108,490.111878L1670.256818,489.877946L1677.809675,486.867345L1677.805848,486.887687L1683.447728,491.190003L1683.642938,491.422806L1691.725602,503.328664L1691.880272,503.370479L1694.125581,504.815926L1694.465813,504.881474L1708.160156,516.319736L1708.188689,516.399977L1712.959808,521.056269L1713.416919,518.706645L1740.737455,488.589623L1747.776997,488.441580L1763.731164,496.292480L1770.506070,487.179253L1789.359123,493.271672L1788.727715,483.808167L1788.953804,483.857891L1799.910071,482.026009L1800.513873,482.360516L1810.788701,490.154822L1831.358655,458.270875L1846.763176,460.005491L1853.323903,444.642756L1859.707782,449.212543L1859.700308,449.231754L1859.654938,449.340236L1859.598689,452.111057L1862.908442,451.770918L1862.958622,451.770918L1863.165067,451.775438L1863.227486,451.748318L1863.251831,451.669216L1866.680966,447.697186L1866.848262,447.647466L1868.281674,447.262130L1868.487330,447.302810L1870.095021,447.733347L1870.172077,447.687016L1876.133575,438.043531L1876.068338,437.849172L1885.373906,429.401387L1885.047856,429.148272L1894.211924,421.996697L1894.169125,421.872401L1902.813542,414.616975L1902.844792,414.627144L1917.888318,414.880252L1920.257489,403.341386L1926.453709,405.295020L1926.524344,405.327788L1926.620046,405.371855L1934.093601,400.458972L1927.271087,391.523707L1911.946642,384.333131L1898.281287,361.293276L1877.024276,355.243126L1877.858303,345.673768L1867.028373,328.015600L1887.305201,320.563899L1891.246566,305.119745L1911.828928,306.957743L1904.602614,288.852615L1876.538763,274.922101L1843.232360,271.447449L1836.510150,255.940630L1807.934533,242.178345L1785.126382,237.320311L1777.009068,242.830078L1766.371043,233.298159L1744.127822,245.787174L1719.985665,216.511935L1700.995033,209.194293L1676.400386,212.832203L1658.283730,181.151510L1641.590095,187.530141L1621.940701,160.325671L1583.944723,188.621114L1577.172293,185.945639Z M1260.974552,283.985018L1260.884561,284.171407L1260.925710,284.086685L1260.974552,283.985018Z " data-cartodb-id="6" data-created-at="2013-11-29T01:00:00+0100" data-name="Freistadt" data-updated-at="2013-11-29T01:00:00+0100"/><path d="M926.324200,1477.909678L918.342479,1465.903629L946.539044,1437.027953L953.621002,1413.169551L938.965450,1388.998956L948.408051,1385.411256L946.788004,1376.483858L926.423937,1349.003827L900.034266,1345.331307L889.433482,1346.456702L886.092895,1285.995529L895.288332,1259.150392L893.632027,1249.766232L920.114608,1239.185472L916.809903,1226.801900L930.443024,1224.183589L953.213979,1189.168575L967.505286,1195.827939L1009.482944,1188.709387L1019.417674,1193.620213L1026.893520,1179.115096L1066.440042,1189.935396L1082.367264,1204.126157L1110.553472,1198.983453L1140.057816,1213.001218L1164.272807,1208.896767L1180.653395,1195.511257L1210.361596,1190.721445L1205.549080,1176.968459L1198.686849,1167.719171L1198.092328,1167.434161L1175.341691,1142.295712L1175.170291,1141.963204L1178.750255,1131.002910L1178.880282,1130.846836L1176.951384,1124.040652L1158.977105,1123.367725L1146.554332,1094.561062L1172.778726,1092.145355L1203.766780,1071.151707L1203.875069,1070.919866L1208.779562,1069.284538L1209.041463,1068.988234L1219.923580,1067.221721L1220.347887,1066.983095L1225.261191,1066.208408L1225.491987,1065.979960L1226.498529,1056.646433L1226.880548,1056.059485L1231.011647,1045.947953L1222.145101,1045.137089L1212.777772,1028.996797L1171.648490,1013.609870L1171.563906,1013.608739L1155.553681,1017.627915L1140.123341,1009.181328L1139.769581,1009.137223L1133.028897,1007.204547L1116.888967,968.372990L1117.001121,968.245204L1117.121796,968.060877L1117.555639,967.131323L1117.654716,958.500764L1117.660977,958.375241L1129.473313,954.162892L1126.410543,932.108540L1122.031580,929.168447L1116.339383,919.584929L1124.148788,908.957789L1088.521425,895.795578L1107.647388,878.272246L1107.573412,877.918323L1119.973799,876.991112L1118.843971,867.629724L1114.002598,863.003906L1113.785960,863.051397L1106.243585,853.617784L1106.192800,853.611000L1106.157121,853.601954L1083.801009,836.548658L1078.355943,835.335424L1070.639538,839.543873L1070.439536,839.697648L1065.156535,840.328578L1065.096282,840.327447L1057.918845,836.886736L1048.008850,838.729770L1047.909164,838.729770L1047.882384,838.732032L1045.849489,847.493847L1029.096138,844.861562L1023.362750,854.366319L1007.252348,835.022222L1012.843743,831.645981L1013.360265,831.786187L1013.391535,831.783925L1013.472852,831.778272L1016.272165,829.596047L1016.145632,829.584740L1000.899455,826.098844L1000.787832,826.132764L1000.450188,826.233395L991.649787,811.086927L991.579269,810.854011L991.558340,810.787302L991.501667,810.597352L991.043405,809.273350L989.549909,808.088420L979.229255,817.913885L959.294470,839.841246L945.557233,862.262149L946.573080,874.497823L932.584883,869.466037L929.480573,866.807682L928.681104,866.199348L923.084695,875.919167L923.055782,876.296835L923.382468,887.430203L902.965834,890.611027L902.967430,891.027147L898.757031,892.413461L904.409779,917.159380L902.930291,937.453878L874.428293,950.563467L873.520683,952.693945L862.988380,975.913482L842.460408,971.590245L828.878172,994.182526L837.607937,1007.829924L832.889495,1016.040147L810.588960,1019.827497L807.304745,1036.389507L798.670723,1037.251257L803.107180,1044.888288L790.104538,1065.226762L798.404632,1068.205630L822.762348,1079.818070L807.644627,1090.175245L794.141726,1127.145164L769.449850,1140.509895L755.189902,1137.254941L748.154493,1124.419526L730.649267,1123.768088L712.840743,1128.432210L678.578272,1116.760619L666.798196,1112.438078L650.835367,1128.440126L644.402273,1166.279416L708.679968,1189.704671L749.435749,1193.922192L735.837599,1228.862621L721.914243,1237.563582L706.276395,1246.383326L695.411799,1280.250983L701.048925,1288.697583L721.815428,1286.058867L728.995668,1296.783396L718.676365,1343.377983L695.483908,1359.047560L702.473548,1376.363967L697.434785,1402.818159L739.023867,1442.527120L802.624633,1466.628630L817.480882,1464.193486L820.248171,1464.251170L841.522370,1474.341232L926.324200,1477.909678Z " data-cartodb-id="7" data-created-at="2013-11-29T01:00:00+0100" data-name="Gmunden" data-updated-at="2013-11-29T01:00:00+0100"/><path d="M893.175291,375.252412L875.031579,374.739459L874.793848,373.936134L853.742381,363.174431L822.992002,378.904112L825.954132,398.459031L815.045430,410.506254L833.653909,434.070477L845.252061,443.804288L845.670264,443.800898L857.617788,457.652743L845.406089,472.323127L848.358847,495.542079L843.656693,494.371276L852.797474,499.812821L844.586699,516.081272L840.901622,516.132129L827.479064,526.926417L812.957186,525.676434L811.110750,526.298034L808.667911,545.112506L796.930981,548.307648L795.043640,572.977630L797.527424,587.577562L776.380877,587.176305L760.635170,593.191797L744.244085,584.392380L742.748213,583.666730L724.205944,587.421580L722.792124,595.285139L739.136133,615.359880L740.528087,629.607007L749.573475,629.493969L765.015192,641.686341L778.087734,649.648923L768.245976,679.518499L769.972007,684.199765L763.920219,693.365686L766.700539,709.251457L766.147884,720.653887L805.486870,720.290988L807.084883,722.446909L807.396545,723.073225L818.739021,728.245433L819.678370,726.043142L828.092760,724.487523L828.614536,724.479609L832.177539,722.322551L831.796228,722.070442L831.585883,721.964172L831.276772,721.603533L835.566620,724.418560L836.510014,728.644514L836.822625,728.965588L859.777893,730.329023L864.556264,729.810103L875.475042,736.786721L875.841284,737.154151L876.012087,737.537410L876.061934,737.544193L885.327502,743.626606L885.504034,743.597211L895.689069,745.784857L899.980627,737.099885L909.289811,728.192297L909.456346,727.858788L912.880325,727.266385L912.790265,727.249426L915.428126,726.709029L918.052154,721.589967L918.043226,721.540223L917.997376,721.274548L915.836009,707.552300L916.722158,707.721876L923.360235,705.041444L922.937970,705.047097L921.731236,703.250727L921.733525,703.245074L921.783236,703.212290L921.833257,703.196463L923.672511,702.184664L926.453378,703.064194L926.852614,703.276728L926.895506,703.299338L927.068950,703.390909L927.445719,703.250727L927.365824,698.231315L926.702515,697.839034L930.384310,696.531054L933.652706,700.243598L933.514784,700.209683L936.476115,703.315165L936.494789,703.325340L936.663750,703.416911L942.809625,705.071968L941.691666,703.415780L941.645784,703.351341L941.554184,703.224725L941.509281,703.161417L941.476438,703.116197L941.261211,702.816614L946.504338,693.419949L947.239648,693.074021L951.880203,691.073064L951.929151,691.067411L951.832711,690.848098L951.686523,690.736180L953.945368,686.788549L954.075079,686.770461L954.318348,686.734286L958.047708,672.946016L961.303621,673.258021L964.042590,676.712695L964.167853,676.607562L964.179766,676.598518L965.510218,681.069497L965.731962,681.146369L965.971240,681.230023L977.597272,683.799578L977.938225,683.824448L978.020282,683.830101L980.773664,683.712532L980.857365,683.691053L980.990422,683.657139L984.703268,683.268257L985.107650,683.364347L985.270040,683.401653L985.451932,683.423131L1000.546962,686.675501L1000.731357,686.556801L1000.941534,686.422275L1003.112785,685.307627L1001.250230,682.648760L1001.103310,682.452058L1000.298611,681.329504L1000.262034,681.194979L1000.677435,679.632676L1000.563522,679.283363L1000.373802,676.629041L1000.437608,676.567996L1000.462739,676.543126L1000.471959,676.534082L1000.539927,676.468516L1009.218113,673.149498L1009.509110,673.253499L1012.024343,669.102488L1012.033655,669.044836L1012.036269,669.031270L1007.054557,665.379939L1006.869566,665.414983L1006.809682,665.480548L1006.776219,665.564201L1006.789077,665.668202L1006.813606,665.747332L1006.953637,665.785767L1006.965169,665.971160L1006.911816,666.015247L1006.776812,666.084204L1006.730646,666.090986L1006.563187,666.132813L1006.502826,666.154291L1006.495154,666.172378L1006.452881,666.258292L1006.433779,666.317075L1006.405096,666.517163L1006.290165,666.553337L1006.202749,666.485510L1006.103179,666.423336L1005.992341,666.404119L1005.876279,666.399597L1005.858092,666.396206L1005.713490,666.369075L1005.682099,666.331770L1005.657161,666.259422L1005.654070,666.228900L1005.755804,666.133943L1005.850382,665.964377L1005.810778,665.837768L1005.731115,665.752985L1005.549425,665.646723L1005.280380,665.548375L1005.192219,665.520114L1005.192964,665.480548L1004.250193,664.034717L1004.151166,664.079935L1003.986814,664.102543L1003.941139,664.103674L1001.833986,663.346281L1001.335850,662.943846L992.578656,657.997077L992.442571,657.888556L991.552443,657.411516L991.250274,657.401342L983.591860,652.957651L983.410757,652.871739L983.776832,650.047959L983.797920,649.916831L983.804214,649.879527L983.807353,649.085978L983.508562,648.797723L973.152610,647.610791L972.906666,647.558793L974.065470,644.316786L973.978444,644.341655L973.940869,644.293048L972.991330,642.561271L972.779314,642.319365L972.905173,638.359585L974.219421,638.560795L974.536305,638.601489L974.735925,638.633140L975.058430,638.689660L981.665051,637.976381L981.825032,638.030640L997.417474,634.451826L997.895324,634.523040L1000.277742,635.170752L1000.597216,635.297356L1014.950758,635.064496L1014.899676,634.716337L1014.889823,634.616863L1014.605603,633.061452L1014.605695,632.987977L1014.605946,632.941631L1015.483773,632.475913L1022.338917,629.142422L1022.578496,629.131118L1024.544068,628.836089L1024.647793,628.831568L1024.827598,628.849654L1031.397428,623.480387L1036.982424,620.814986L1037.302715,620.791249L1039.789212,622.756952L1040.054067,622.946854L1041.182773,623.088149L1041.422268,623.224924L1043.591025,624.490936L1043.836639,624.650318L1050.253975,628.680097L1061.749656,634.213314L1069.418392,627.889965L1069.548693,627.434424L1069.568900,627.354167L1070.807111,624.445721L1070.844185,624.313468L1070.911880,623.996965L1074.931641,623.544818L1075.015803,623.592293L1080.158148,626.293877L1079.868066,625.855293L1086.549915,620.658996L1086.549837,620.410317L1088.976269,619.261870L1090.514251,621.126966L1090.157016,621.358691L1107.025055,624.782571L1107.818322,623.872624L1107.572951,623.655594L1107.030590,620.730209L1107.064672,620.347016L1111.038572,614.583328L1111.412292,614.134579L1111.445070,613.276643L1111.274868,613.205431L1111.003146,613.119525L1109.622295,613.075441L1109.608607,612.923975L1109.488234,611.130114L1109.316305,611.022732L1103.288780,602.342874L1083.106835,601.623985L1081.528649,592.545259L1074.553138,592.455964L1074.165134,592.150780L1059.478549,587.272381L1048.241294,591.281572L1026.916596,584.451155L1015.866404,585.665094L1002.739081,555.692597L1008.804124,554.890127L1009.184527,554.843787L1021.999789,549.657141L1022.267949,549.670703L1024.215285,549.446918L1024.208104,549.384755L1024.190457,549.103328L1024.135843,546.374964L1024.115292,546.301499L1024.008134,545.910442L1025.823467,537.437230L1016.512028,535.150829L1013.743996,534.845675L1013.621830,534.867148L1013.621855,535.066064L1013.634085,535.111272L1013.648517,535.162131L1013.629691,535.162131L1013.619747,535.161000L1013.612575,535.161000L1013.529037,535.158740L1000.216600,541.044857L1000.184652,541.074242L1000.163706,541.094586L991.853112,543.436391L991.627590,543.454475L991.452926,543.469168L984.022405,541.429129L983.772528,541.246035L976.946519,542.369467L974.946227,541.222300L974.876792,541.179352L974.679813,541.058419L974.848114,537.431579L985.089163,518.916857L985.101631,518.841135L985.139035,518.626403L988.029578,515.638248L988.004396,515.599822L987.858602,515.380571L987.475239,514.340824L987.422102,514.175821L989.703390,513.392621L989.871663,513.314640L997.348754,515.901576L997.454768,515.830375L997.542365,515.752394L997.625152,515.657461L997.641693,515.638248L1017.788325,505.846614L1017.556843,505.583291L1011.731778,500.269393L1022.591291,489.789797L1022.534172,489.780756L1022.914306,487.244799L1018.620582,480.562541L1018.514746,480.561411L1018.342590,480.560281L1015.148468,481.724274L1014.973838,481.911869L1013.837926,482.562803L1013.685349,482.658861L1012.135041,480.221255L1012.141468,480.186222L1012.168639,480.029140L1003.844481,474.922297L1009.821608,473.528914L1009.840673,473.532304L1009.928421,473.543605L1009.917077,472.879122L1009.796733,472.838439L1009.608355,472.774025L1010.276697,470.294652L1010.395219,470.235889L1010.520049,470.016656L1010.597161,469.881048L1011.248665,469.299064L1011.456067,468.957784L1011.576487,468.714821L1011.614104,468.640236L1011.714087,468.436825L1011.135984,467.606229L1011.093538,467.601709L1011.000416,467.590408L1007.413344,466.045617L1007.346546,466.063698L1007.263130,466.087429L1004.412438,465.554042L1004.220974,465.496409L1005.383121,459.674388L1005.589436,459.553474L1006.987389,457.709245L1007.006348,457.636922L1007.031572,457.539739L1006.475664,456.990540L1006.208791,456.720461L1006.883634,453.800451L1006.830828,453.739429L1006.717392,453.608346L1008.432432,449.684892L1008.428599,449.669072L1021.581756,434.642252L1021.940301,434.261445L1024.919189,430.331360L1029.449699,429.647723L1029.726649,429.525685L1029.776974,429.503085L1022.655385,420.753741L1022.229258,420.585378L1022.201561,420.574078L1015.163317,418.597785L1015.085849,418.567277L1014.803836,418.458801L990.825203,404.627236L990.639905,404.554921L984.524399,398.904215L978.404051,389.098966L974.945550,389.234552L965.148412,403.997870L953.317594,399.697412L936.304228,395.867030L941.138344,386.429053L922.754298,395.190219L893.175291,375.252412Z " data-cartodb-id="8" data-created-at="2013-11-29T01:00:00+0100" data-name="Grieskirchen" data-updated-at="2013-11-29T01:00:00+0100"/><path d="M1254.621984,769.907034L1261.500487,759.558690L1243.957965,759.160723L1238.644891,770.775338L1226.804606,766.179444L1221.142787,782.690870L1210.004991,781.101218L1204.905110,806.727111L1191.639022,813.252146L1177.845841,808.338296L1160.036748,809.977750L1150.196510,855.719788L1149.936860,855.731095L1149.636139,855.720919L1147.552070,855.504951L1137.741449,860.843088L1137.713034,860.847611L1137.447658,860.891709L1124.956630,866.972769L1124.398421,867.016867L1118.843971,867.629724L1119.973799,876.991112L1107.573412,877.918323L1107.647388,878.272246L1088.521425,895.795578L1124.148788,908.957789L1116.339383,919.584929L1122.031580,929.168447L1126.410543,932.108540L1129.473313,954.162892L1117.660977,958.375241L1117.654716,958.500764L1117.555639,967.131323L1117.121796,968.060877L1117.001121,968.245204L1116.888967,968.372990L1133.028897,1007.204547L1139.769581,1009.137223L1140.123341,1009.181328L1155.553681,1017.627915L1171.563906,1013.608739L1171.648490,1013.609870L1212.777772,1028.996797L1222.145101,1045.137089L1231.011647,1045.947953L1226.880548,1056.059485L1226.498529,1056.646433L1225.491987,1065.979960L1225.261191,1066.208408L1220.347887,1066.983095L1219.923580,1067.221721L1209.041463,1068.988234L1208.779562,1069.284538L1203.875069,1070.919866L1203.766780,1071.151707L1172.778726,1092.145355L1146.554332,1094.561062L1158.977105,1123.367725L1176.951384,1124.040652L1178.880282,1130.846836L1178.750255,1131.002910L1175.170291,1141.963204L1175.341691,1142.295712L1198.092328,1167.434161L1198.686849,1167.719171L1205.549080,1176.968459L1210.361596,1190.721445L1180.653395,1195.511257L1164.272807,1208.896767L1207.299881,1246.230637L1207.220760,1303.616025L1319.724764,1280.101686L1343.928829,1263.599874L1368.180813,1265.759018L1360.362150,1275.355853L1391.791216,1308.504397L1415.631877,1306.604243L1443.944147,1315.836963L1510.299179,1283.883878L1516.495588,1263.477723L1537.228830,1259.040682L1551.799680,1263.585171L1596.067401,1230.235681L1597.830444,1216.776550L1567.656989,1189.765745L1586.186685,1186.085458L1592.360278,1167.064326L1570.973126,1129.871937L1543.592269,1116.776453L1542.938990,1102.135049L1526.996589,1107.092031L1519.502177,1097.523022L1510.300602,1077.389946L1496.985236,1071.812172L1513.430675,1010.127876L1499.205555,1003.036129L1470.939749,992.054233L1462.111377,977.894735L1421.456510,978.825428L1402.183881,970.113360L1399.509799,960.256951L1413.901866,950.166547L1399.375840,934.363372L1408.443720,911.693153L1418.496657,911.134545L1395.792139,886.052942L1395.822127,868.120463L1394.809003,866.962592L1381.356554,875.209060L1373.362890,900.827502L1342.518657,899.568953L1337.249150,900.004300L1330.103804,904.675528L1310.861243,898.867876L1296.545187,874.371180L1294.817065,873.831817L1291.026294,872.956624L1279.104948,869.980522L1289.325137,854.351619L1272.027431,849.942965L1270.944649,841.037526L1286.178729,844.648990L1281.509043,836.061329L1290.231611,828.663232L1298.337496,809.933654L1278.015484,820.522345L1260.491499,805.822587L1286.048984,801.103252L1293.247594,787.239374L1268.403805,789.369479L1254.621984,769.907034Z " data-cartodb-id="9" data-created-at="2013-11-29T01:00:00+0100" data-name="Kirchdorf" data-updated-at="2013-11-29T01:00:00+0100"/><path d="M1289.659869,509.355715L1286.740089,507.264943L1269.841555,495.091161L1247.307517,513.800608L1234.398517,514.262843L1233.928140,520.992980L1232.019039,538.300707L1243.556577,536.548889L1244.357506,551.071059L1255.258278,556.993506L1255.117788,556.960729L1192.943570,581.681936L1194.341761,581.684197L1207.735022,592.122523L1193.098872,603.658578L1207.285785,615.001558L1207.752310,615.125897L1210.617370,614.480466L1211.063547,614.326739L1214.919805,618.780337L1214.924604,618.845898L1220.304843,622.526357L1250.719453,621.642412L1250.677687,621.953262L1250.775027,647.134889L1250.659330,647.294277L1250.173742,650.593949L1250.207851,650.679861L1250.301096,650.911596L1251.895457,654.058680L1252.226095,654.689455L1253.595393,658.461683L1254.139194,661.216542L1261.484864,663.842543L1261.654407,663.891152L1261.698066,663.911499L1261.719960,663.940891L1261.735325,663.966891L1261.741869,663.982717L1261.758078,664.032456L1261.775840,664.152283L1261.784758,664.176022L1261.805800,664.242718L1261.914651,664.417936L1261.938437,664.460892L1261.953522,664.593154L1261.954645,664.645154L1261.952413,664.688110L1261.953423,664.714111L1261.953362,664.798893L1261.951929,664.828285L1261.948815,664.883676L1261.927825,664.927764L1259.608819,667.083514L1259.597019,667.106123L1262.492564,666.829165L1262.493710,666.832556L1262.496582,666.847252L1268.558553,672.026959L1269.664812,679.045966L1269.599516,679.281102L1250.814689,700.381518L1246.681335,700.269599L1235.134171,703.252988L1230.911559,721.413604L1230.798126,721.384210L1230.784416,721.380818L1225.603483,730.235188L1227.344803,730.704364L1227.398798,730.780110L1265.232514,742.965226L1243.957965,759.160723L1261.500487,759.558690L1254.621984,769.907034L1268.403805,789.369479L1293.247594,787.239374L1302.199424,784.308791L1302.213277,784.289570L1302.375709,784.080405L1306.250650,775.731924L1313.042584,785.368186L1330.074284,772.507426L1330.104562,772.381929L1333.498765,772.783294L1336.737922,772.516471L1337.086509,772.715458L1339.243552,772.981151L1347.008627,764.754892L1347.023932,764.499377L1346.254204,752.153373L1356.354752,752.500460L1356.781927,752.328612L1375.776735,754.604468L1382.868210,740.251878L1409.595663,748.410040L1412.076083,740.169347L1415.816371,741.843708L1420.495150,731.252678L1424.972141,727.974103L1425.089570,727.984278L1425.238664,727.997844L1437.432559,721.957389L1437.487674,721.938170L1444.923301,717.601464L1459.181474,726.225158L1467.011998,716.959327L1474.898792,720.298901L1476.293295,725.275507L1477.802872,724.311160L1477.833669,724.399341L1477.875965,724.449085L1477.990352,724.912605L1500.352457,729.249354L1499.714051,731.279812L1499.709543,731.339731L1493.125689,738.487077L1493.091669,738.524385L1494.368068,743.729487L1494.459348,743.822194L1499.225952,746.260826L1499.381774,746.316224L1499.757852,746.448501L1514.904292,745.094080L1515.356279,745.064686L1551.142006,751.706795L1551.462502,751.599390L1551.539550,751.729406L1552.005194,752.542291L1565.415430,744.172669L1540.294259,732.272432L1548.254633,716.378238L1537.818359,701.701941L1550.155335,671.358863L1548.494372,668.783703L1551.525821,619.744534L1578.519405,601.955171L1564.602661,596.005151L1554.559967,595.097507L1522.438417,603.377126L1505.632777,594.252031L1502.337347,600.003097L1483.590009,595.989326L1476.872319,589.757918L1457.584792,609.781614L1445.829578,604.409119L1418.756981,612.222029L1404.437624,631.610040L1384.488340,608.465897L1367.166406,605.567711L1363.956330,605.807342L1349.005101,592.304503L1345.914044,591.641011L1360.321873,584.609397L1352.405749,577.571083L1359.833160,553.594873L1341.572160,544.992703L1347.198139,541.838266L1337.474713,525.998536L1327.007959,523.690708L1327.644676,520.318267L1314.562008,522.676939L1289.659869,509.355715Z " data-cartodb-id="10" data-created-at="2013-11-29T01:00:00+0100" data-name="Linz-Land" data-updated-at="2013-11-29T01:00:00+0100"/><path d="M1934.021999,391.415238L1927.271087,391.523707L1934.093601,400.458972L1926.620046,405.371855L1926.524344,405.327788L1926.453709,405.295020L1920.257489,403.341386L1917.888318,414.880252L1902.844792,414.627144L1902.813542,414.616975L1894.169125,421.872401L1894.211924,421.996697L1885.047856,429.148272L1885.373906,429.401387L1876.068338,437.849172L1876.133575,438.043531L1870.172077,447.687016L1870.095021,447.733347L1868.487330,447.302810L1868.281674,447.262130L1866.848262,447.647466L1866.680966,447.697186L1863.251831,451.669216L1863.227486,451.748318L1863.165067,451.775438L1862.958622,451.770918L1862.908442,451.770918L1859.598689,452.111057L1859.654938,449.340236L1859.700308,449.231754L1859.707782,449.212543L1853.323903,444.642756L1846.763176,460.005491L1831.358655,458.270875L1810.788701,490.154822L1800.513873,482.360516L1799.910071,482.026009L1788.953804,483.857891L1788.727715,483.808167L1789.359123,493.271672L1770.506070,487.179253L1763.731164,496.292480L1747.776997,488.441580L1740.737455,488.589623L1713.416919,518.706645L1712.959808,521.056269L1708.188689,516.399977L1708.160156,516.319736L1694.465813,504.881474L1694.125581,504.815926L1691.880272,503.370479L1691.725602,503.328664L1683.642938,491.422806L1683.447728,491.190003L1677.805848,486.887687L1677.809675,486.867345L1670.256818,489.877946L1670.305108,490.111878L1670.315168,490.161603L1670.292725,491.738107L1670.524777,492.219536L1673.562979,502.550001L1673.608463,502.594076L1673.661548,502.643802L1674.088319,502.833665L1674.276106,502.945548L1674.315559,502.969281L1674.287272,505.222776L1674.529867,505.265721L1672.444916,505.618325L1672.310508,505.548257L1672.290910,505.538085L1671.183505,505.414900L1671.095024,505.418290L1669.118603,507.173402L1669.243966,507.324841L1668.968033,515.996509L1668.912972,516.003290L1668.849377,516.015722L1654.916604,515.709448L1654.991805,516.144561L1655.895529,528.874858L1640.880278,526.154501L1626.703025,534.352907L1618.997291,526.645001L1618.705775,511.514303L1609.222945,507.869571L1603.965888,506.415075L1603.846695,506.308842L1603.807291,506.273808L1599.848411,504.395514L1588.693252,503.315102L1570.873515,511.697388L1570.748362,511.844308L1569.487787,513.965611L1568.150398,514.381510L1567.907524,514.204075L1567.351748,513.360977L1567.420824,513.041143L1532.026500,499.563062L1528.771217,498.315402L1518.416311,517.357226L1539.283428,518.160774L1537.963830,528.456688L1532.682126,528.496245L1503.193774,535.792783L1483.542801,528.193355L1479.690232,526.261869L1486.778895,534.766561L1471.650859,541.416697L1471.482366,579.954855L1467.174364,584.620700L1476.872319,589.757918L1483.590009,595.989326L1502.337347,600.003097L1505.632777,594.252031L1522.438417,603.377126L1554.559967,595.097507L1564.602661,596.005151L1578.519405,601.955171L1614.681947,609.443642L1639.142504,620.120944L1693.704077,672.466704L1738.082615,692.988104L1757.708070,668.596049L1779.832087,676.002767L1799.355234,669.831626L1805.875181,668.095262L1868.582548,651.567237L1881.068705,615.646990L1905.882507,607.451982L1954.644697,610.180625L1974.348409,639.260509L1988.230521,645.807791L1966.722383,622.858685L1985.535678,605.160790L1981.009911,591.477116L1999.323826,580.638679L1988.825983,509.954694L1964.821674,502.717261L1949.954542,504.716473L1952.504930,493.737280L1962.939044,432.143851L1937.802463,423.846447L1919.396934,430.439838L1945.982811,409.718689L1934.021999,391.415238Z " data-cartodb-id="11" data-created-at="2013-11-29T01:00:00+0100" data-name="Perg" data-updated-at="2013-11-29T01:00:00+0100"/><path d="M586.394629,478.074091L586.571169,471.830416L571.095074,466.862649L570.855362,458.362408L569.272714,449.817105L540.285515,467.596059L514.926338,493.501086L512.875580,495.565812L489.986577,512.823022L437.290329,539.120108L432.367330,539.377796L384.931715,536.508202L391.799197,563.357943L393.557122,567.628066L397.418058,573.535986L401.137311,573.126826L401.240711,573.209336L401.471733,573.047707L401.961909,573.369836L402.392798,573.559722L404.660549,573.167516L404.706993,573.243245L404.955868,573.080485L405.252118,573.007017L405.397747,572.973109L405.464589,572.601249L407.128031,571.857529L407.229298,571.804407L407.276396,571.576092L412.502407,567.085539L412.834281,566.865138L412.953484,566.786020L416.125196,563.460797L416.281672,563.493574L418.216365,562.928446L418.247057,563.035820L418.674702,563.100245L427.969883,559.966055L428.020991,559.966055L428.605140,560.689415L428.631837,560.725583L428.737065,560.873646L429.903069,562.156482L430.367823,562.656055L439.527910,560.180802L441.397523,560.990062L441.486513,561.696469L441.484716,561.722465L441.482294,561.765415L435.754423,578.510349L442.289369,583.808017L452.113860,577.852523L457.079761,585.789427L466.995265,585.801860L481.741902,597.927824L481.878962,597.951561L482.030526,597.977558L489.345000,602.120199L489.920474,602.271663L488.934837,605.454677L489.135862,605.729349L495.191217,608.166357L495.203970,608.182181L495.373123,608.086102L498.445756,605.709003L498.640950,605.574493L499.889858,600.636079L499.975544,600.448445L501.448162,599.501233L513.168349,610.215666L525.577789,610.008813L524.656504,618.727210L517.121260,624.030876L522.773237,627.625457L522.763862,627.762232L522.256625,628.624709L522.196841,628.875653L522.398590,628.900521L522.681096,628.860958L522.751254,628.850784L523.465472,629.191028L523.432821,629.367367L524.681939,630.463834L524.709392,630.445748L525.046396,630.480790L526.879142,632.078018L526.920884,632.136798L539.324082,639.343028L539.295197,639.573629L539.218497,639.813272L534.295186,646.691769L534.258352,646.820636L533.868087,647.909220L508.774927,662.883933L509.052230,663.171063L519.524714,679.253971L519.570441,679.578414L521.085000,681.020887L521.225210,681.180283L520.504055,684.342204L520.409650,684.794393L519.826971,687.662407L520.249752,687.924677L519.985399,688.904802L519.980873,689.047242L519.636077,692.489560L519.611569,692.966625L513.537273,707.563605L522.071950,711.043320L522.152245,711.114543L522.221968,711.175590L522.080756,711.275076L521.238639,717.373098L521.137106,717.436408L521.101839,717.341444L521.065983,717.303006L521.024117,717.281526L520.960902,717.327877L520.974775,717.581115L520.464950,719.532403L520.405905,719.626237L520.389201,719.670328L520.433760,719.691808L520.456549,719.683894L520.475006,719.678241L520.560930,719.648847L520.574619,719.730245L520.485084,720.019661L520.439537,720.153063L520.250671,720.251419L520.081274,720.384822L520.109440,720.454914L520.097406,720.644843L520.063690,720.676498L520.045614,720.791812L520.063951,720.823467L519.314094,721.298290L519.293793,721.420387L519.303858,721.436214L519.592988,721.568486L519.619985,721.621621L519.665787,721.713194L519.827324,721.791201L519.899389,721.860163L519.912072,721.848858L519.946204,721.966433L520.712276,726.048794L520.923019,726.176545L521.306071,726.408305L521.308839,726.435438L521.315429,726.491965L521.242375,726.551884L516.478850,742.829558L516.532830,743.013840L515.476699,745.455862L515.498539,745.538393L515.436097,745.987229L515.436673,746.034713L515.437058,746.066369L515.584159,749.662715L515.618038,749.854912L516.553337,766.910941L516.136213,766.406694L515.983718,764.503899L516.058107,763.980434L506.805876,764.506161L525.840280,776.899847L523.221560,792.150836L532.261700,791.535771L545.131407,808.086159L545.305544,808.202617L545.415664,808.276109L567.925916,805.406507L576.739984,808.490934L572.133829,812.655155L578.629312,809.688301L577.545306,807.033518L579.679177,804.206885L581.387026,781.571555L605.278029,773.853980L616.300549,757.361960L616.577105,756.949297L617.077628,757.112101L628.731544,752.276606L636.287172,749.686457L651.759905,750.403241L696.582068,740.600091L715.545154,736.257622L715.766030,736.220314L717.116919,735.491107L717.295582,735.389357L718.164349,735.145158L720.287390,739.762346L745.940941,740.610266L764.594227,730.335806L766.147884,720.653887L766.700539,709.251457L763.920219,693.365686L769.972007,684.199765L768.245976,679.518499L778.087734,649.648923L765.015192,641.686341L749.573475,629.493969L740.528087,629.607007L739.136133,615.359880L722.792124,595.285139L724.205944,587.421580L742.748213,583.666730L764.597546,572.146879L772.865659,542.186372L768.284514,532.553633L755.412527,532.512946L747.432823,537.204407L722.061050,520.808762L720.162970,520.765815L711.608572,517.540313L711.068872,499.585665L708.201122,491.767490L702.344321,499.092929L683.631072,495.452800L678.745387,502.355617L654.852799,493.411807L644.968049,499.099710L623.595540,492.654629L602.968354,485.927101L596.974230,492.963151L595.168470,482.469005L583.684332,486.601771L586.394629,478.074091Z " data-cartodb-id="12" data-created-at="2013-11-29T01:00:00+0100" data-name="Ried" data-updated-at="2013-11-29T01:00:00+0100"/><path d="M930.215490,0.000000L909.546189,15.797982L908.426395,43.549726L888.175640,62.455507L906.406013,78.423333L927.361209,79.341253L924.695091,88.631225L909.724480,85.344481L912.890789,126.108456L923.702283,171.381604L903.528968,195.362398L905.213263,222.138893L879.403025,244.786413L873.441713,236.926113L869.941379,232.160758L858.972718,242.110574L865.769061,247.583129L856.315959,255.620965L861.191880,272.181687L848.575797,276.797250L843.993748,290.674730L889.750877,335.077657L903.889391,343.563339L916.176846,346.309836L974.945550,389.234552L978.404051,389.098966L981.704789,381.998815L963.290423,363.682852L992.503219,367.557042L1009.449568,356.463318L1020.757677,362.876157L1022.682705,367.832721L1030.830754,399.065792L1046.671625,414.626014L1056.436768,398.816082L1074.205399,396.735925L1077.441092,394.392511L1089.649418,397.506520L1127.034279,448.698384L1133.184351,445.605527L1133.425886,445.465405L1136.302749,444.506025L1136.525682,444.491335L1136.574715,444.487945L1146.844216,433.590232L1143.087367,419.134514L1166.964956,420.905156L1169.010640,399.480469L1172.165652,399.663514L1172.332887,399.696282L1177.650099,395.076099L1177.664063,395.046722L1177.712371,394.948421L1185.280566,369.918403L1201.421961,367.624832L1201.514414,367.117536L1214.278358,377.994574L1221.431202,388.269630L1227.872836,385.836996L1236.486543,361.155438L1253.745340,353.620728L1246.163493,318.861413L1246.228448,318.783462L1246.230534,318.690825L1246.283697,318.345132L1246.319871,318.205048L1246.307509,318.171156L1246.286445,318.140654L1246.095702,317.971197L1246.042431,317.953121L1245.971612,317.951991L1245.910424,317.923749L1246.310975,305.299365L1246.661184,304.794397L1248.820401,301.267545L1257.912974,313.461398L1266.999833,311.990527L1271.208732,299.870142L1260.884561,284.171407L1260.925710,284.086685L1260.974552,283.985018L1261.238425,283.464259L1261.342683,283.325315L1261.818913,277.881677L1256.762965,265.138700L1251.960161,271.864270L1239.752547,268.779351L1240.966120,249.095577L1254.965004,246.713389L1245.734807,225.949726L1245.843245,225.843555L1249.750370,219.590827L1249.788676,219.552425L1249.806934,219.533224L1249.809450,219.530965L1255.758471,214.604298L1256.267662,214.484577L1256.403164,214.441658L1256.951527,214.175109L1270.568003,212.817520L1271.499447,212.792673L1269.195194,209.227047L1269.793816,209.419050L1272.134393,207.424480L1273.840806,208.612637L1274.558890,208.726709L1280.534983,207.752014L1244.566085,199.325453L1228.377907,204.591892L1197.831006,194.963723L1185.787331,204.663045L1177.004402,204.279043L1167.318680,201.198007L1168.034545,192.614597L1141.495592,198.236710L1142.303711,184.552004L1129.336141,187.761662L1122.379557,179.752246L1117.824790,177.906895L1121.939217,161.519336L1104.645734,162.877882L1087.550133,147.807656L1087.301680,147.640526L1098.408639,132.955949L1124.131928,132.960466L1128.560175,125.862292L1128.202775,109.052362L1096.181173,98.244355L1079.459945,72.525216L1052.317067,68.345559L1050.885969,66.965899L1017.192243,53.735197L1004.085340,40.318704L998.937901,36.370845L957.352580,4.998384L930.215490,0.000000Z " data-cartodb-id="13" data-created-at="2013-11-29T01:00:00+0100" data-name="Rohrbach" data-updated-at="2013-11-29T01:00:00+0100"/><path d="M699.181522,236.161439L682.148986,225.420002L668.320515,214.623499L642.548944,202.991511L639.534669,223.451333L613.907851,234.907693L614.930580,242.125258L604.782278,244.392208L594.441202,234.856865L580.912965,243.248001L594.028210,262.651372L590.163679,273.637742L603.297264,291.880063L592.069961,322.028020L589.262556,329.221034L579.775609,354.548296L587.175157,367.378528L590.277609,389.285397L578.125535,418.331116L569.272714,449.817105L570.855362,458.362408L571.095074,466.862649L586.571169,471.830416L586.394629,478.074091L583.684332,486.601771L595.168470,482.469005L596.974230,492.963151L602.968354,485.927101L623.595540,492.654629L644.968049,499.099710L654.852799,493.411807L678.745387,502.355617L683.631072,495.452800L702.344321,499.092929L708.201122,491.767490L711.068872,499.585665L711.608572,517.540313L720.162970,520.765815L722.061050,520.808762L747.432823,537.204407L755.412527,532.512946L768.284514,532.553633L772.865659,542.186372L764.597546,572.146879L742.748213,583.666730L744.244085,584.392380L760.635170,593.191797L776.380877,587.176305L797.527424,587.577562L795.043640,572.977630L796.930981,548.307648L808.667911,545.112506L811.110750,526.298034L812.957186,525.676434L827.479064,526.926417L840.901622,516.132129L844.586699,516.081272L852.797474,499.812821L843.656693,494.371276L848.358847,495.542079L845.406089,472.323127L857.617788,457.652743L845.670264,443.800898L845.252061,443.804288L833.653909,434.070477L815.045430,410.506254L825.954132,398.459031L822.992002,378.904112L853.742381,363.174431L874.793848,373.936134L875.031579,374.739459L893.175291,375.252412L922.754298,395.190219L941.138344,386.429053L936.304228,395.867030L953.317594,399.697412L965.148412,403.997870L974.945550,389.234552L916.176846,346.309836L903.889391,343.563339L889.750877,335.077657L843.993748,290.674730L813.388872,277.294278L797.872354,270.923317L768.070595,247.307523L763.856444,246.074075L723.403567,226.441048L710.089298,237.886194L699.181522,236.161439Z " data-cartodb-id="14" data-created-at="2013-11-29T01:00:00+0100" data-name="Schrding" data-updated-at="2013-11-29T01:00:00+0100"/><path d="M1474.898792,720.298901L1467.011998,716.959327L1459.181474,726.225158L1444.923301,717.601464L1437.487674,721.938170L1437.432559,721.957389L1425.238664,727.997844L1425.089570,727.984278L1424.972141,727.974103L1420.495150,731.252678L1415.816371,741.843708L1412.076083,740.169347L1409.595663,748.410040L1382.868210,740.251878L1375.776735,754.604468L1356.781927,752.328612L1356.354752,752.500460L1346.254204,752.153373L1347.023932,764.499377L1347.008627,764.754892L1339.243552,772.981151L1337.086509,772.715458L1336.737922,772.516471L1333.498765,772.783294L1330.104562,772.381929L1330.074284,772.507426L1313.042584,785.368186L1306.250650,775.731924L1302.375709,784.080405L1302.213277,784.289570L1302.199424,784.308791L1293.247594,787.239374L1286.048984,801.103252L1260.491499,805.822587L1278.015484,820.522345L1298.337496,809.933654L1290.231611,828.663232L1281.509043,836.061329L1286.178729,844.648990L1270.944649,841.037526L1272.027431,849.942965L1289.325137,854.351619L1279.104948,869.980522L1291.026294,872.956624L1294.817065,873.831817L1296.545187,874.371180L1310.861243,898.867876L1330.103804,904.675528L1337.249150,900.004300L1342.518657,899.568953L1373.362890,900.827502L1381.356554,875.209060L1394.809003,866.962592L1395.822127,868.120463L1395.792139,886.052942L1418.496657,911.134545L1408.443720,911.693153L1399.375840,934.363372L1413.901866,950.166547L1399.509799,960.256951L1402.183881,970.113360L1421.456510,978.825428L1462.111377,977.894735L1470.939749,992.054233L1499.205555,1003.036129L1513.430675,1010.127876L1496.985236,1071.812172L1510.300602,1077.389946L1519.502177,1097.523022L1526.996589,1107.092031L1542.938990,1102.135049L1543.592269,1116.776453L1570.973126,1129.871937L1592.360278,1167.064326L1586.186685,1186.085458L1567.656989,1189.765745L1597.830444,1216.776550L1596.067401,1230.235681L1621.854171,1230.458493L1630.268353,1214.963530L1625.727489,1201.817763L1648.893749,1188.295439L1676.278445,1190.516733L1707.026042,1175.198447L1735.588075,1180.867015L1738.651755,1166.505615L1755.115194,1163.214427L1776.556718,1135.500796L1815.645390,1155.038504L1821.845891,1146.672609L1800.296273,1134.271426L1787.908819,1108.032989L1804.665859,1092.188331L1785.279482,1079.401885L1795.326942,1050.317809L1781.056343,1039.541344L1822.782516,1019.914575L1833.994266,1002.924172L1791.994139,956.167855L1789.931317,944.173187L1769.053559,954.764494L1738.481136,944.425360L1680.831081,927.998065L1630.876752,893.391571L1573.668040,872.835635L1549.412253,827.575514L1536.603440,821.944733L1531.809606,820.276988L1502.674361,843.951345L1469.486113,830.579743L1465.462022,820.707775L1472.517746,802.695205L1492.686467,784.470470L1524.144919,782.035110L1534.359956,770.323096L1552.005194,752.542291L1551.539550,751.729406L1551.462502,751.599390L1551.142006,751.706795L1515.356279,745.064686L1514.904292,745.094080L1499.757852,746.448501L1499.381774,746.316224L1499.225952,746.260826L1494.459348,743.822194L1494.368068,743.729487L1493.091669,738.524385L1493.125689,738.487077L1499.709543,731.339731L1499.714051,731.279812L1500.352457,729.249354L1477.990352,724.912605L1477.875965,724.449085L1477.833669,724.399341L1477.802872,724.311160L1476.293295,725.275507L1474.898792,720.298901Z " data-cartodb-id="15" data-created-at="2013-11-29T01:00:00+0100" data-name="Steyr-Land" data-updated-at="2013-11-29T01:00:00+0100"/><path d="M1273.840806,208.612637L1272.134393,207.424480L1269.793816,209.419050L1269.195194,209.227047L1271.499447,212.792673L1270.568003,212.817520L1256.951527,214.175109L1256.403164,214.441658L1256.267662,214.484577L1255.758471,214.604298L1249.809450,219.530965L1249.806934,219.533224L1249.788676,219.552425L1249.750370,219.590827L1245.843245,225.843555L1245.734807,225.949726L1254.965004,246.713389L1240.966120,249.095577L1239.752547,268.779351L1251.960161,271.864270L1256.762965,265.138700L1261.818913,277.881677L1261.342683,283.325315L1261.238425,283.464259L1260.974552,283.985018L1260.884561,284.171407L1271.208732,299.870142L1266.999833,311.990527L1257.912974,313.461398L1248.820401,301.267545L1246.661184,304.794397L1246.310975,305.299365L1245.910424,317.923749L1245.971612,317.951991L1246.042431,317.953121L1246.095702,317.971197L1246.286445,318.140654L1246.307509,318.171156L1246.319871,318.205048L1246.283697,318.345132L1246.230534,318.690825L1246.228448,318.783462L1246.163493,318.861413L1253.745340,353.620728L1236.486543,361.155438L1227.872836,385.836996L1221.431202,388.269630L1214.278358,377.994574L1201.514414,367.117536L1201.421961,367.624832L1185.280566,369.918403L1177.712371,394.948421L1177.664063,395.046722L1177.650099,395.076099L1172.332887,399.696282L1172.165652,399.663514L1169.010640,399.480469L1166.964956,420.905156L1143.087367,419.134514L1146.844216,433.590232L1136.574715,444.487945L1136.525682,444.491335L1136.302749,444.506025L1133.425886,445.465405L1133.184351,445.605527L1127.034279,448.698384L1121.462693,470.841605L1125.929161,488.317268L1163.836202,509.485682L1167.769403,510.770663L1209.653059,521.044968L1234.822845,508.736394L1234.398517,514.262843L1247.307517,513.800608L1269.841555,495.091161L1286.740089,507.264943L1289.659869,509.355715L1314.562008,522.676939L1327.644676,520.318267L1337.790319,518.237626L1334.059010,501.599558L1331.499018,484.418419L1350.099085,477.984815L1360.278935,444.586256L1361.153970,443.269794L1364.209036,442.507039L1366.220105,469.702497L1384.063262,467.942988L1414.974074,484.349483L1403.931528,490.847580L1426.066073,503.624760L1386.282100,506.875044L1404.462731,521.445049L1421.095760,555.215636L1471.482366,579.954855L1471.650859,541.416697L1486.778895,534.766561L1479.690232,526.261869L1483.542801,528.193355L1503.193774,535.792783L1532.682126,528.496245L1537.963830,528.456688L1539.283428,518.160774L1518.416311,517.357226L1528.771217,498.315402L1532.026500,499.563062L1523.100790,490.144651L1522.872914,489.998867L1522.922657,488.767050L1522.772870,488.503735L1515.103052,474.758436L1515.145064,474.673680L1513.831416,472.307306L1508.821524,471.351266L1508.155098,471.248430L1496.127540,468.113627L1490.250748,459.164739L1489.938107,458.987322L1488.185340,457.414305L1500.184944,456.806344L1499.370966,449.087111L1499.437586,449.031740L1514.351744,440.819941L1515.086109,441.005262L1516.399085,441.888925L1516.454512,441.875365L1516.443839,441.579304L1516.616946,441.189452L1516.945245,439.233419L1516.917188,439.075219L1515.953383,423.290504L1513.530018,421.106289L1513.461041,421.011372L1512.142238,419.835086L1511.732476,419.759379L1511.587138,419.626044L1511.404610,419.379714L1509.748473,417.614727L1509.737565,417.470093L1509.403189,417.431675L1505.416918,416.213589L1505.364019,416.201160L1505.158782,416.152572L1504.374165,413.920930L1504.316477,413.642964L1503.515702,412.503983L1503.449037,412.392119L1503.299925,412.149182L1503.272474,411.583083L1503.007546,410.920940L1502.872302,410.659925L1497.507116,406.310822L1497.226339,406.293873L1497.099431,406.285964L1496.067757,406.706296L1496.038627,406.961660L1496.037217,406.978608L1493.429225,404.776385L1493.011668,404.893897L1482.442877,395.034293L1482.657543,394.685154L1481.410413,391.280781L1481.452409,391.148584L1481.456037,391.137285L1481.544304,391.060452L1481.616573,390.997178L1481.290970,389.433412L1481.064664,389.330593L1479.941333,388.306917L1479.952893,388.305787L1480.237997,388.285449L1480.188815,388.060602L1480.119041,388.014277L1480.070890,387.981510L1479.710715,388.004108L1479.655443,387.960042L1479.477303,387.818807L1479.435870,387.673052L1477.756122,385.588423L1477.648152,385.439279L1477.179997,384.931965L1477.232737,384.823496L1477.261539,384.765873L1467.490086,383.015698L1467.292531,382.782945L1466.041894,382.660919L1465.995958,382.657529L1465.990499,382.656399L1465.987812,382.656399L1465.844884,382.649620L1465.343208,382.624763L1465.184974,382.593126L1464.941417,382.463191L1462.439684,380.605688L1462.467156,380.589870L1462.478290,380.583090L1462.793154,380.398922L1461.888966,378.619387L1461.846787,378.439739L1461.790474,378.322234L1461.710975,377.979886L1461.692169,377.801368L1461.693071,377.777641L1461.704608,377.692902L1463.123154,376.321255L1463.093406,376.056868L1462.563119,371.474197L1462.378030,371.240319L1462.261674,371.086660L1459.946733,362.344010L1459.892130,362.023140L1458.771834,358.907101L1458.609881,358.623518L1453.960840,353.195923L1449.826688,327.578391L1442.149530,321.811113L1441.690580,321.399893L1427.869586,311.771365L1427.757953,311.501367L1427.752712,311.491200L1424.070966,277.449035L1423.901095,277.237798L1423.696295,276.895526L1423.624243,276.735121L1423.617597,276.718177L1423.180440,275.917284L1423.172003,275.900340L1423.088915,275.724121L1421.995077,274.404742L1421.998022,274.384409L1422.001822,274.351651L1422.437023,272.273185L1420.635719,266.574398L1425.526559,267.144838L1425.803136,267.216002L1425.933222,267.231816L1426.068509,267.245371L1434.040161,265.224548L1434.065036,265.412058L1438.722752,269.490993L1439.252558,269.145338L1439.273999,269.132912L1446.552335,257.332244L1461.197315,257.227195L1463.524995,263.144996L1463.554165,263.317821L1477.832147,266.981048L1476.518358,257.682408L1451.984460,248.538715L1451.736590,248.598581L1451.704155,248.583897L1437.275611,222.615527L1436.202160,219.717326L1436.119318,219.639393L1435.502216,218.293081L1435.318493,217.886478L1423.513458,227.160525L1403.357944,221.079455L1390.497892,243.627521L1389.336128,243.602671L1383.395417,246.856839L1374.400700,232.830548L1348.360965,228.507996L1325.647225,213.658954L1324.701851,213.904043L1298.294082,217.680917L1280.534983,207.752014L1274.558890,208.726709L1273.840806,208.612637Z " data-cartodb-id="16" data-created-at="2013-11-29T01:00:00+0100" data-name="Urfahr-Umgebung" data-updated-at="2013-11-29T01:00:00+0100"/><path d="M807.396545,723.073225L807.084883,722.446909L805.486870,720.290988L766.147884,720.653887L764.594227,730.335806L745.940941,740.610266L720.287390,739.762346L718.164349,735.145158L717.295582,735.389357L717.116919,735.491107L715.766030,736.220314L715.545154,736.257622L696.582068,740.600091L651.759905,750.403241L636.287172,749.686457L628.731544,752.276606L617.077628,757.112101L616.577105,756.949297L616.300549,757.361960L605.278029,773.853980L581.387026,781.571555L579.679177,804.206885L577.545306,807.033518L578.629312,809.688301L572.133829,812.655155L576.739984,808.490934L567.925916,805.406507L545.415664,808.276109L545.305544,808.202617L545.131407,808.086159L532.261700,791.535771L523.221560,792.150836L496.781294,837.547062L512.701281,839.351654L512.691769,839.317733L518.306639,845.348896L508.906679,845.108056L506.521308,854.773377L506.552368,854.898887L504.529636,861.671910L503.019623,875.815138L568.161524,902.260192L562.658798,933.808144L558.881928,938.697772L509.733732,911.756477L485.787936,927.431534L492.016247,978.421713L484.791466,999.110862L505.957339,1024.653020L499.253502,1046.732807L505.914577,1069.200849L524.048417,1072.593647L527.037630,1082.258639L559.164720,1081.029306L597.813800,1103.244516L605.434768,1099.154986L652.057070,1092.540056L680.578642,1094.631181L688.978236,1109.035018L723.696662,1100.141177L730.649267,1123.768088L748.154493,1124.419526L755.189902,1137.254941L769.449850,1140.509895L794.141726,1127.145164L807.644627,1090.175245L822.762348,1079.818070L798.404632,1068.205630L790.104538,1065.226762L803.107180,1044.888288L798.670723,1037.251257L807.304745,1036.389507L810.588960,1019.827497L832.889495,1016.040147L837.607937,1007.829924L828.878172,994.182526L842.460408,971.590245L862.988380,975.913482L873.520683,952.693945L874.428293,950.563467L902.930291,937.453878L904.409779,917.159380L898.757031,892.413461L902.967430,891.027147L902.965834,890.611027L923.382468,887.430203L923.055782,876.296835L923.084695,875.919167L928.681104,866.199348L929.480573,866.807682L932.584883,869.466037L946.573080,874.497823L945.557233,862.262149L959.294470,839.841246L979.229255,817.913885L966.301922,809.598979L969.578100,784.026135L968.117307,782.616249L964.931161,783.196258L945.898829,774.678195L938.960868,753.901247L931.093590,754.488019L931.069675,754.492541L930.896357,754.743530L899.980627,737.099885L895.689069,745.784857L885.504034,743.597211L885.327502,743.626606L876.061934,737.544193L876.012087,737.537410L875.841284,737.154151L875.475042,736.786721L864.556264,729.810103L859.777893,730.329023L836.822625,728.965588L836.510014,728.644514L835.566620,724.418560L831.276772,721.603533L831.585883,721.964172L831.796228,722.070442L832.177539,722.322551L828.614536,724.479609L828.092760,724.487523L819.678370,726.043142L818.739021,728.245433L807.396545,723.073225Z " data-cartodb-id="17" data-created-at="2013-11-29T01:00:00+0100" data-name="Vcklabruck" data-updated-at="2013-11-29T01:00:00+0100"/><path d="M1194.341761,581.684197L1192.943570,581.681936L1179.237437,590.453057L1171.687942,590.190825L1162.801982,585.930714L1156.201272,593.966062L1131.448022,589.043565L1126.366900,597.575164L1103.288780,602.342874L1109.316305,611.022732L1109.488234,611.130114L1109.608607,612.923975L1109.622295,613.075441L1111.003146,613.119525L1111.274868,613.205431L1111.445070,613.276643L1111.412292,614.134579L1111.038572,614.583328L1107.064672,620.347016L1107.030590,620.730209L1107.572951,623.655594L1107.818322,623.872624L1107.025055,624.782571L1090.157016,621.358691L1090.514251,621.126966L1088.976269,619.261870L1086.549837,620.410317L1086.549915,620.658996L1079.868066,625.855293L1080.158148,626.293877L1075.015803,623.592293L1074.931641,623.544818L1070.911880,623.996965L1070.844185,624.313468L1070.807111,624.445721L1069.568900,627.354167L1069.548693,627.434424L1069.418392,627.889965L1061.749656,634.213314L1050.253975,628.680097L1043.836639,624.650318L1043.591025,624.490936L1041.422268,623.224924L1041.182773,623.088149L1040.054067,622.946854L1039.789212,622.756952L1037.302715,620.791249L1036.982424,620.814986L1031.397428,623.480387L1024.827598,628.849654L1024.647793,628.831568L1024.544068,628.836089L1022.578496,629.131118L1022.338917,629.142422L1015.483773,632.475913L1014.605946,632.941631L1014.605695,632.987977L1014.605603,633.061452L1014.889823,634.616863L1014.899676,634.716337L1014.950758,635.064496L1000.597216,635.297356L1000.277742,635.170752L997.895324,634.523040L997.417474,634.451826L981.825032,638.030640L981.665051,637.976381L975.058430,638.689660L974.735925,638.633140L974.536305,638.601489L974.219421,638.560795L972.905173,638.359585L972.779314,642.319365L972.991330,642.561271L973.940869,644.293048L973.978444,644.341655L974.065470,644.316786L972.906666,647.558793L973.152610,647.610791L983.508562,648.797723L983.807353,649.085978L983.804214,649.879527L983.797920,649.916831L983.776832,650.047959L983.410757,652.871739L983.591860,652.957651L991.250274,657.401342L991.552443,657.411516L992.442571,657.888556L992.578656,657.997077L1001.335850,662.943846L1001.833986,663.346281L1003.941139,664.103674L1003.986814,664.102543L1004.151166,664.079935L1004.250193,664.034717L1005.192964,665.480548L1005.192219,665.520114L1005.280380,665.548375L1005.549425,665.646723L1005.731115,665.752985L1005.810778,665.837768L1005.850382,665.964377L1005.755804,666.133943L1005.654070,666.228900L1005.657161,666.259422L1005.682099,666.331770L1005.713490,666.369075L1005.858092,666.396206L1005.876279,666.399597L1005.992341,666.404119L1006.103179,666.423336L1006.202749,666.485510L1006.290165,666.553337L1006.405096,666.517163L1006.433779,666.317075L1006.452881,666.258292L1006.495154,666.172378L1006.502826,666.154291L1006.563187,666.132813L1006.730646,666.090986L1006.776812,666.084204L1006.911816,666.015247L1006.965169,665.971160L1006.953637,665.785767L1006.813606,665.747332L1006.789077,665.668202L1006.776219,665.564201L1006.809682,665.480548L1006.869566,665.414983L1007.054557,665.379939L1012.036269,669.031270L1012.033655,669.044836L1012.024343,669.102488L1009.509110,673.253499L1009.218113,673.149498L1000.539927,676.468516L1000.471959,676.534082L1000.462739,676.543126L1000.437608,676.567996L1000.373802,676.629041L1000.563522,679.283363L1000.677435,679.632676L1000.262034,681.194979L1000.298611,681.329504L1001.103310,682.452058L1001.250230,682.648760L1003.112785,685.307627L1000.941534,686.422275L1000.731357,686.556801L1000.546962,686.675501L985.451932,683.423131L985.270040,683.401653L985.107650,683.364347L984.703268,683.268257L980.990422,683.657139L980.857365,683.691053L980.773664,683.712532L978.020282,683.830101L977.938225,683.824448L977.597272,683.799578L965.971240,681.230023L965.731962,681.146369L965.510218,681.069497L964.179766,676.598518L964.167853,676.607562L964.042590,676.712695L961.303621,673.258021L958.047708,672.946016L954.318348,686.734286L954.075079,686.770461L953.945368,686.788549L951.686523,690.736180L951.832711,690.848098L951.929151,691.067411L951.880203,691.073064L947.239648,693.074021L946.504338,693.419949L941.261211,702.816614L941.476438,703.116197L941.509281,703.161417L941.554184,703.224725L941.645784,703.351341L941.691666,703.415780L942.809625,705.071968L936.663750,703.416911L936.494789,703.325340L936.476115,703.315165L933.514784,700.209683L933.652706,700.243598L930.384310,696.531054L926.702515,697.839034L927.365824,698.231315L927.445719,703.250727L927.068950,703.390909L926.895506,703.299338L926.852614,703.276728L926.453378,703.064194L923.672511,702.184664L921.833257,703.196463L921.783236,703.212290L921.733525,703.245074L921.731236,703.250727L922.937970,705.047097L923.360235,705.041444L916.722158,707.721876L915.836009,707.552300L917.997376,721.274548L918.043226,721.540223L918.052154,721.589967L915.428126,726.709029L912.790265,727.249426L912.880325,727.266385L909.456346,727.858788L909.289811,728.192297L899.980627,737.099885L930.896357,754.743530L931.069675,754.492541L931.093590,754.488019L938.960868,753.901247L945.898829,774.678195L964.931161,783.196258L968.117307,782.616249L969.578100,784.026135L966.301922,809.598979L979.229255,817.913885L989.549909,808.088420L991.043405,809.273350L991.501667,810.597352L991.558340,810.787302L991.579269,810.854011L991.649787,811.086927L1000.450188,826.233395L1000.787832,826.132764L1000.899455,826.098844L1016.145632,829.584740L1016.272165,829.596047L1013.472852,831.778272L1013.391535,831.783925L1013.360265,831.786187L1012.843743,831.645981L1007.252348,835.022222L1023.362750,854.366319L1029.096138,844.861562L1045.849489,847.493847L1047.882384,838.732032L1047.909164,838.729770L1048.008850,838.729770L1057.918845,836.886736L1065.096282,840.327447L1065.156535,840.328578L1070.439536,839.697648L1070.639538,839.543873L1078.355943,835.335424L1083.801009,836.548658L1106.157121,853.601954L1106.192800,853.611000L1106.243585,853.617784L1113.785960,863.051397L1114.002598,863.003906L1118.843971,867.629724L1124.398421,867.016867L1124.956630,866.972769L1137.447658,860.891709L1137.713034,860.847611L1137.741449,860.843088L1147.552070,855.504951L1149.636139,855.720919L1149.936860,855.731095L1150.196510,855.719788L1160.036748,809.977750L1177.845841,808.338296L1191.639022,813.252146L1204.905110,806.727111L1210.004991,781.101218L1221.142787,782.690870L1226.804606,766.179444L1238.644891,770.775338L1243.957965,759.160723L1265.232514,742.965226L1227.398798,730.780110L1227.344803,730.704364L1225.603483,730.235188L1230.784416,721.380818L1230.798126,721.384210L1230.911559,721.413604L1235.134171,703.252988L1246.681335,700.269599L1250.814689,700.381518L1269.599516,679.281102L1269.664812,679.045966L1268.558553,672.026959L1262.496582,666.847252L1262.493710,666.832556L1262.492564,666.829165L1259.597019,667.106123L1259.608819,667.083514L1261.927825,664.927764L1261.948815,664.883676L1261.951929,664.828285L1261.953362,664.798893L1261.953423,664.714111L1261.952413,664.688110L1261.954645,664.645154L1261.953522,664.593154L1261.938437,664.460892L1261.914651,664.417936L1261.805800,664.242718L1261.784758,664.176022L1261.775840,664.152283L1261.758078,664.032456L1261.741869,663.982717L1261.735325,663.966891L1261.719960,663.940891L1261.698066,663.911499L1261.654407,663.891152L1261.484864,663.842543L1254.139194,661.216542L1253.595393,658.461683L1252.226095,654.689455L1251.895457,654.058680L1250.301096,650.911596L1250.207851,650.679861L1250.173742,650.593949L1250.659330,647.294277L1250.775027,647.134889L1250.677687,621.953262L1250.719453,621.642412L1220.304843,622.526357L1214.924604,618.845898L1214.919805,618.780337L1211.063547,614.326739L1210.617370,614.480466L1207.752310,615.125897L1207.285785,615.001558L1193.098872,603.658578L1207.735022,592.122523L1194.341761,581.684197Z M1143.478695,631.660907L1156.070302,634.831636L1160.665272,648.596509L1179.905264,648.572771L1196.796944,676.641476L1166.648352,692.469211L1118.431813,710.146823L1100.606300,715.244324L1094.394023,728.321179L1088.546235,698.944658L1098.284337,687.099430L1083.153090,664.856546L1082.813327,664.029065L1088.200727,656.253960L1107.666580,655.695531L1101.535169,649.845615L1110.479258,638.294022L1128.537741,641.618518L1143.478695,631.660907Z " data-cartodb-id="18" data-created-at="2013-11-29T01:00:00+0100" data-name="Wels-Land" data-updated-at="2013-11-29T01:00:00+0100"/></g><g fill="#000" font-family="Arial" font-size="12px" id="mylayer-label" stroke="none"><text text-anchor="middle" y="803.930582491"><tspan dy="0" x="1503.57827496"><![CDATA[Steyr-Stadt]]></tspan></text><text text-anchor="middle" y="541.707890461"><tspan dy="0" x="1390.44739629"><![CDATA[Linz-Stadt]]></tspan></text><text text-anchor="middle" y="667.370263464"><tspan dy="0" x="1134.47092649"><![CDATA[Wels-Stadt]]></tspan></text><text text-anchor="middle" y="499.937759585"><tspan dy="0" x="1090.60307041"><![CDATA[Eferding]]></tspan></text><text text-anchor="middle" y="720.992192327"><tspan dy="0" x="299.105887874"><![CDATA[Braunau Am Inn]]></tspan></text><text text-anchor="middle" y="337.966735627"><tspan dy="0" x="1657.30503523"><![CDATA[Freistadt]]></tspan></text><text text-anchor="middle" y="1135.4647801"><tspan dy="0" x="929.453266276"><![CDATA[Gmunden]]></tspan></text><text text-anchor="middle" y="559.272760108"><tspan dy="0" x="901.806090822"><![CDATA[Grieskirchen]]></tspan></text><text text-anchor="middle" y="1071.35465449"><tspan dy="0" x="1333.80582285"><![CDATA[Kirchdorf]]></tspan></text><text text-anchor="middle" y="648.843867304"><tspan dy="0" x="1367.78155618"><![CDATA[Linz-Land]]></tspan></text><text text-anchor="middle" y="553.274569296"><tspan dy="0" x="1770.54682506"><![CDATA[Perg]]></tspan></text><text text-anchor="middle" y="615.609240447"><tspan dy="0" x="612.210406737"><![CDATA[Ried]]></tspan></text><text text-anchor="middle" y="233.619734494"><tspan dy="0" x="1049.66051569"><![CDATA[Rohrbach]]></tspan></text><text text-anchor="middle" y="375.663713826"><tspan dy="0" x="727.358637597"><![CDATA[Schrding]]></tspan></text><text text-anchor="middle" y="961.900447945"><tspan dy="0" x="1566.22573947"><![CDATA[Steyr-Land]]></tspan></text><text text-anchor="middle" y="390.177605927"><tspan dy="0" x="1338.87836719"><![CDATA[Urfahr-Umgebung]]></tspan></text><text text-anchor="middle" y="905.38037462"><tspan dy="0" x="713.58944503"><![CDATA[Vcklabruck]]></tspan></text><text text-anchor="middle" y="721.795583245"><tspan dy="0" x="1096.25627621"><![CDATA[Wels-Land]]></tspan></text></g></svg>