<?xml version="1.0" encoding="utf-8"?><!DOCTYPE svg  PUBLIC '-//W3C//DTD SVG 1.1//EN'  'http://www.w3.org/Graphics/SVG/1.1/DTD/svg11.dtd'><svg enable_background="new 0 0 2000 1036" height="1036px" pretty_print="False" style="stroke-linejoin: round; stroke:#000; fill: none;" version="1.1" viewBox="0 0 2000 1036" width="2000px" xmlns="http://www.w3.org/2000/svg" xmlns:xlink="http://www.w3.org/1999/xlink"><defs><style type="text/css"><![CDATA[path { fill-rule: evenodd; }]]></style></defs><metadata><views><view h="1036.86767217" padding="0" w="2000"><proj flip="auto" id="robinson" lon0="7.59244582818"/><bbox h="4.31" w="8.32" x="95.82" y="-795.95"/></view></views></metadata><g class="" id="mylayer"><path d="M947.928111,139.357860L913.322220,125.642302L905.415767,111.099324L923.738363,92.955085L916.135605,84.538997L898.983562,94.676915L854.209767,90.622536L852.654779,62.695005L802.648270,43.404219L791.148177,99.909390L733.489001,91.386918L704.614245,111.548498L712.372311,124.070195L698.299743,144.074184L730.599679,172.005707L705.241765,223.042127L732.552489,217.372288L803.981596,232.573288L794.721307,275.973760L813.079079,287.943858L815.671916,316.832845L831.387552,321.466430L886.822462,244.133614L914.708641,239.401524L914.618986,231.178484L914.415458,198.893107L896.977126,166.186146L943.705422,155.295649L947.928111,139.357860Z " data-cartodb-id="1" data-created-at="2013-02-23T16:02:44.285Z" data-name="Basel" data-updated-at="2013-02-23T16:02:44.592Z"/><path d="M1127.956932,0.000000L1095.962792,9.657196L1068.218608,34.247404L979.035380,15.819521L916.135605,84.538997L923.738363,92.955085L905.415767,111.099324L913.322220,125.642302L947.928111,139.357860L943.705422,155.295649L947.910077,156.260979L954.432000,146.280652L992.923426,161.497401L1006.426775,154.263337L1036.327980,101.639102L1082.665953,105.122165L1093.485127,78.573663L1062.361096,53.758830L1127.956932,0.000000Z " data-cartodb-id="2" data-created-at="2013-02-23T16:02:44.285Z" data-name="Riehen" data-updated-at="2013-02-23T16:02:44.592Z"/><path d="M1099.045654,121.359393L1110.559262,139.038710L1121.208290,115.925969L1093.485127,78.573663L1082.665953,105.122165L1036.327980,101.639102L1006.426775,154.263337L1099.045654,121.359393Z " data-cartodb-id="3" data-created-at="2013-02-23T16:02:44.285Z" data-name="Bettingen" data-updated-at="2013-02-23T16:02:44.592Z"/><path d="M698.794057,618.893236L718.259050,618.278584L761.740808,643.676319L788.813089,615.295943L788.646752,593.570324L723.451482,566.722559L714.001831,553.172579L686.360528,560.296268L689.390503,603.184130L698.794057,618.893236Z " data-cartodb-id="4" data-created-at="2013-02-23T16:02:44.285Z" data-name="Nenzlingen" data-updated-at="2013-02-23T16:02:44.592Z"/><path d="M527.180931,558.026774L494.254301,566.269448L520.818762,566.103964L562.039871,614.153320L596.355561,630.023958L689.390503,603.184130L686.360528,560.296268L714.001831,553.172579L697.389118,540.816439L638.733590,550.607577L527.180931,558.026774Z " data-cartodb-id="5" data-created-at="2013-02-23T16:02:44.285Z" data-name="Blauen" data-updated-at="2013-02-23T16:02:44.592Z"/><path d="M1069.461870,309.847007L1073.082919,373.184465L1058.353121,410.142773L1131.302654,390.946521L1206.970710,350.410568L1219.141773,323.160683L1225.089494,308.436442L1203.179510,259.007584L1137.929872,274.058860L1116.297138,269.429214L1081.216886,265.296023L1069.461870,309.847007Z " data-cartodb-id="6" data-created-at="2013-02-23T16:02:44.285Z" data-name="Pratteln" data-updated-at="2013-02-23T16:02:44.592Z"/><path d="M542.341030,335.934560L526.857858,314.125981L531.210013,333.692631L564.722539,362.955913L569.184949,387.766846L597.590158,409.941827L636.891139,407.920547L650.497584,378.022932L646.694757,342.652469L608.864350,337.297843L542.341030,335.934560Z " data-cartodb-id="7" data-created-at="2013-02-23T16:02:44.285Z" data-name="Biel-Benken" data-updated-at="2013-02-23T16:02:44.592Z"/><path d="M728.867709,526.856671L745.073827,455.044308L685.232617,438.736185L654.024093,456.777957L631.509493,484.575424L638.733590,550.607577L697.389118,540.816439L714.001831,553.172579L728.867709,526.856671Z " data-cartodb-id="8" data-created-at="2013-02-23T16:02:44.285Z" data-name="Ettingen" data-updated-at="2013-02-23T16:02:44.592Z"/><path d="M173.662654,665.311248L83.679251,656.343651L13.017914,627.179222L3.167026,634.031016L0.965374,665.295487L44.452647,674.424622L98.193412,718.533581L100.899176,732.638960L119.465539,733.753994L159.562418,736.208643L173.662654,665.311248Z " data-cartodb-id="9" data-created-at="2013-02-23T16:02:44.285Z" data-name="Roggenburg" data-updated-at="2013-02-23T16:02:44.592Z"/><path d="M1780.203611,396.454806L1701.222943,424.492673L1732.543027,441.577006L1746.287732,472.719640L1781.154708,481.395758L1810.012500,457.195609L1808.688805,428.523410L1777.452100,388.822798L1780.203611,396.454806Z " data-cartodb-id="10" data-created-at="2013-02-23T16:02:44.285Z" data-name="Hemmiken" data-updated-at="2013-02-23T16:02:44.592Z"/><path d="M648.745605,771.728111L632.559345,744.707321L619.683504,736.437166L547.168212,787.874362L520.108262,829.039709L529.826238,849.779921L561.305677,851.572623L586.910823,832.806361L607.567195,836.651813L642.387438,787.846782L648.745605,771.728111Z " data-cartodb-id="11" data-created-at="2013-02-23T16:02:44.285Z" data-name="Wahlen" data-updated-at="2013-02-23T16:02:44.592Z"/><path d="M1178.064258,618.767154L1127.337166,678.656251L1113.692499,722.564254L1095.385214,732.264656L1141.648164,730.365552L1170.571948,742.032031L1246.875292,687.434711L1245.264776,643.664499L1203.405895,605.268435L1178.064258,618.767154Z " data-cartodb-id="12" data-created-at="2013-02-23T16:02:44.285Z" data-name="Ziefen" data-updated-at="2013-02-23T16:02:44.592Z"/><path d="M1582.005765,699.719818L1577.490338,710.188547L1615.940089,720.877912L1630.770928,710.137327L1649.196029,639.097953L1636.103577,627.415627L1586.255428,634.641728L1582.005765,699.719818Z " data-cartodb-id="13" data-created-at="2013-02-23T16:02:44.285Z" data-name="Wittinsburg" data-updated-at="2013-02-23T16:02:44.592Z"/><path d="M1170.866521,546.663542L1166.778925,572.557834L1221.961767,590.437955L1284.447825,528.866121L1249.279514,514.153786L1200.479385,518.188450L1170.866521,546.663542Z " data-cartodb-id="14" data-created-at="2013-02-23T16:02:44.285Z" data-name="Seltisberg" data-updated-at="2013-02-23T16:02:44.592Z"/><path d="M1580.248991,363.708476L1606.435053,372.786513L1618.177075,346.616231L1673.993595,304.772127L1637.635781,258.716015L1619.100034,269.019441L1577.756744,264.374034L1576.638754,339.563413L1580.248991,363.708476Z " data-cartodb-id="15" data-created-at="2013-02-23T16:02:44.285Z" data-name="Maisprach" data-updated-at="2013-02-23T16:02:44.592Z"/><path d="M1670.817653,480.694419L1686.407486,442.459592L1623.380836,414.323236L1584.954538,469.433590L1590.631817,483.350051L1597.870989,487.987556L1670.817653,480.694419Z " data-cartodb-id="16" data-created-at="2013-02-23T16:02:44.285Z" data-name="Rickenbach (BL)" data-updated-at="2013-02-23T16:02:44.592Z"/><path d="M1401.915253,450.528941L1421.434802,442.629016L1424.744540,462.589620L1435.601120,466.884339L1455.580849,460.296476L1432.670476,448.342179L1452.215268,390.087576L1390.882810,435.004898L1401.915253,450.528941Z " data-cartodb-id="17" data-created-at="2013-02-23T16:02:44.285Z" data-name="Hersberg" data-updated-at="2013-02-23T16:02:44.592Z"/><path d="M914.708641,239.401524L916.077210,306.383638L994.100020,376.289279L999.061777,400.824396L1010.420549,419.031674L1058.353121,410.142773L1073.082919,373.184465L1069.461870,309.847007L1081.216886,265.296023L1051.063597,249.626147L1036.537249,221.064185L1002.614866,210.957766L985.897483,192.313101L950.924058,199.606269L931.077293,236.706479L914.618986,231.178484L914.708641,239.401524Z " data-cartodb-id="18" data-created-at="2013-02-23T16:02:44.285Z" data-name="Muttenz" data-updated-at="2013-02-23T16:02:44.592Z"/><path d="M525.160996,255.118681L535.584167,283.192068L558.345592,286.576635L581.081114,267.920146L543.007890,227.202899L525.160996,255.118681Z " data-cartodb-id="19" data-created-at="2013-02-23T16:02:44.285Z" data-name="Schönenbuch" data-updated-at="2013-02-23T16:02:44.592Z"/><path d="M1449.690752,679.806750L1525.908464,625.638652L1577.564727,626.383326L1531.868469,580.481354L1513.898868,566.482213L1472.581859,561.462536L1440.613576,591.107770L1424.357784,594.307120L1414.939615,617.128080L1449.690752,679.806750Z " data-cartodb-id="20" data-created-at="2013-02-23T16:02:44.285Z" data-name="Zunzgen" data-updated-at="2013-02-23T16:02:44.592Z"/><path d="M290.807392,851.651424L277.077865,868.100931L357.629042,866.989852L378.784427,788.949990L408.096429,774.951059L425.761100,787.645841L411.839620,738.269287L383.811187,734.545943L321.380669,734.723245L275.270886,748.131218L159.562418,736.208643L185.463037,743.032802L201.438602,779.880040L234.533660,804.107271L269.586522,812.140975L281.667062,833.365843L290.807392,851.651424Z " data-cartodb-id="21" data-created-at="2013-02-23T16:02:44.285Z" data-name="Liesberg" data-updated-at="2013-02-23T16:02:44.592Z"/><path d="M1233.020141,252.860990L1209.094770,256.509545L1201.033304,241.816820L1149.617454,268.597847L1116.297138,269.429214L1137.929872,274.058860L1203.179510,259.007584L1225.089494,308.436442L1248.169099,286.643617L1266.453881,274.334669L1233.020141,252.860990Z " data-cartodb-id="22" data-created-at="2013-02-23T16:02:44.285Z" data-name="Augst" data-updated-at="2013-02-23T16:02:44.592Z"/><path d="M1647.309882,712.974166L1690.723728,714.057681L1713.506028,698.218655L1705.594469,685.775945L1674.842381,656.402752L1649.196029,639.097953L1630.770928,710.137327L1647.309882,712.974166Z " data-cartodb-id="23" data-created-at="2013-02-23T16:02:44.285Z" data-name="Rümlingen" data-updated-at="2013-02-23T16:02:44.592Z"/><path d="M723.451482,566.722559L788.646752,593.570324L788.813089,615.295943L816.572406,602.226690L853.427507,613.842053L856.366225,571.884078L871.775074,556.848686L865.116370,543.125335L850.003919,551.427117L728.867709,526.856671L714.001831,553.172579L723.451482,566.722559Z " data-cartodb-id="24" data-created-at="2013-02-23T16:02:44.285Z" data-name="Pfeffingen" data-updated-at="2013-02-23T16:02:44.592Z"/><path d="M1514.265992,430.513168L1499.363392,443.176692L1539.963242,467.010423L1584.954538,469.433590L1623.380836,414.323236L1606.435053,372.786513L1580.248991,363.708476L1576.638754,339.563413L1502.274908,408.850414L1514.265992,430.513168Z " data-cartodb-id="25" data-created-at="2013-02-23T16:02:44.285Z" data-name="Wintersingen" data-updated-at="2013-02-23T16:02:44.592Z"/><path d="M1298.877835,371.147423L1322.213057,384.374404L1360.425334,431.352412L1390.882810,435.004898L1452.215268,390.087576L1451.715329,385.229410L1445.620090,378.826716L1436.542928,318.408895L1319.565262,297.226790L1314.338403,299.192912L1306.477554,324.819475L1298.877835,371.147423Z " data-cartodb-id="26" data-created-at="2013-02-23T16:02:44.285Z" data-name="Arisdorf" data-updated-at="2013-02-23T16:02:44.592Z"/><path d="M792.548271,653.892927L802.262000,678.325286L835.966223,662.895986L888.849996,663.163911L841.560397,654.113571L853.427507,613.842053L816.572406,602.226690L788.813089,615.295943L761.740808,643.676319L762.791724,646.264947L792.548271,653.892927Z " data-cartodb-id="27" data-created-at="2013-02-23T16:02:44.285Z" data-name="Grellingen" data-updated-at="2013-02-23T16:02:44.592Z"/><path d="M1358.990711,571.852557L1354.468497,628.964077L1414.939615,617.128080L1424.357784,594.307120L1417.626639,568.164632L1358.990711,571.852557Z " data-cartodb-id="28" data-created-at="2013-02-23T16:02:44.285Z" data-name="Ramlinsburg" data-updated-at="2013-02-23T16:02:44.592Z"/><path d="M1605.151840,777.354479L1615.940089,720.877912L1577.490338,710.188547L1576.121056,780.419825L1605.151840,777.354479Z " data-cartodb-id="29" data-created-at="2013-02-23T16:02:44.285Z" data-name="Känerkinden" data-updated-at="2013-02-23T16:02:44.592Z"/><path d="M1009.612519,920.695823L1145.298552,904.979245L1133.947579,818.937508L1075.112765,796.818225L1066.738120,854.098166L999.844514,868.404311L998.072276,877.080184L1009.612519,920.695823Z " data-cartodb-id="30" data-created-at="2013-02-23T16:02:44.285Z" data-name="Lauwil" data-updated-at="2013-02-23T16:02:44.592Z"/><path d="M694.641109,649.862234L620.567247,698.336857L589.556481,713.021447L619.683504,736.437166L632.559345,744.707321L802.725864,733.541231L763.796023,704.672470L762.791724,646.264947L761.740808,643.676319L718.259050,618.278584L698.794057,618.893236L694.641109,649.862234Z " data-cartodb-id="31" data-created-at="2013-02-23T16:02:44.285Z" data-name="Brislach" data-updated-at="2013-02-23T16:02:44.592Z"/><path d="M1465.253716,1034.867672L1482.922420,1029.903370L1493.657307,965.414436L1519.536701,939.930765L1466.577746,881.327497L1431.543243,882.541015L1420.910478,881.863336L1373.099154,912.985287L1275.858105,922.051175L1293.750596,958.078236L1350.275867,1010.960194L1465.253716,1034.867672Z " data-cartodb-id="32" data-created-at="2013-02-23T16:02:44.285Z" data-name="Langenbruck" data-updated-at="2013-02-23T16:02:44.592Z"/><path d="M620.567247,698.336857L694.641109,649.862234L698.794057,618.893236L689.390503,603.184130L596.355561,630.023958L562.039871,614.153320L586.241546,664.996042L582.585829,689.976051L620.567247,698.336857Z " data-cartodb-id="33" data-created-at="2013-02-23T16:02:44.285Z" data-name="Zwingen" data-updated-at="2013-02-23T16:02:44.592Z"/><path d="M931.077293,236.706479L950.924058,199.606269L985.897483,192.313101L947.910077,156.260979L943.705422,155.295649L896.977126,166.186146L914.415458,198.893107L914.618986,231.178484L931.077293,236.706479Z " data-cartodb-id="34" data-created-at="2013-02-23T16:02:44.285Z" data-name="Birsfelden" data-updated-at="2013-02-23T16:02:44.592Z"/><path d="M1525.908464,625.638652L1449.690752,679.806750L1456.148329,689.680546L1522.956890,683.281886L1542.703292,700.830914L1582.005765,699.719818L1586.255428,634.641728L1577.564727,626.383326L1525.908464,625.638652Z " data-cartodb-id="35" data-created-at="2013-02-23T16:02:44.285Z" data-name="Tenniken" data-updated-at="2013-02-23T16:02:44.592Z"/><path d="M1202.502474,819.485170L1272.043862,802.866163L1290.238908,787.507940L1278.685379,766.491804L1191.530522,749.817557L1165.663057,756.373785L1202.502474,819.485170Z " data-cartodb-id="36" data-created-at="2013-02-23T16:02:44.285Z" data-name="Titterten" data-updated-at="2013-02-23T16:02:44.592Z"/><path d="M1106.836918,412.037969L1138.341037,397.948111L1202.779710,409.118342L1235.648155,402.979641L1219.141773,323.160683L1206.970710,350.410568L1131.302654,390.946521L1058.353121,410.142773L1067.120969,451.734615L1072.237046,455.008847L1106.836918,412.037969Z " data-cartodb-id="37" data-created-at="2013-02-23T16:02:44.285Z" data-name="Frenkendorf" data-updated-at="2013-02-23T16:02:44.592Z"/><path d="M1221.505298,874.999866L1193.056493,878.817721L1185.298145,900.767402L1275.858105,922.051175L1373.099154,912.985287L1420.910478,881.863336L1385.548932,857.746610L1339.047971,845.004633L1269.136313,850.800382L1221.505298,874.999866Z " data-cartodb-id="38" data-created-at="2013-02-23T16:02:44.285Z" data-name="Waldenburg" data-updated-at="2013-02-23T16:02:44.592Z"/><path d="M1674.842381,656.402752L1694.227716,657.092264L1732.564806,604.472538L1725.935253,571.769815L1746.165655,560.209586L1683.379534,519.870873L1670.817653,480.694419L1597.870989,487.987556L1623.364908,555.887304L1615.986464,567.971568L1616.549210,588.349709L1654.212096,614.917695L1636.103577,627.415627L1649.196029,639.097953L1674.842381,656.402752Z " data-cartodb-id="39" data-created-at="2013-02-23T16:02:44.285Z" data-name="Gelterkinden" data-updated-at="2013-02-23T16:02:44.592Z"/><path d="M1701.222943,424.492673L1780.203611,396.454806L1777.452100,388.822798L1773.036695,375.158465L1714.002607,345.710003L1715.667525,308.263077L1676.504829,321.190622L1673.993595,304.772127L1618.177075,346.616231L1606.435053,372.786513L1623.380836,414.323236L1686.407486,442.459592L1701.222943,424.492673Z " data-cartodb-id="40" data-created-at="2013-02-23T16:02:44.285Z" data-name="Buus" data-updated-at="2013-02-23T16:02:44.592Z"/><path d="M581.081114,267.920146L615.806611,267.951667L629.599118,291.529371L656.132173,287.660169L681.723870,263.767255L705.241765,223.042127L730.599679,172.005707L698.299743,144.074184L585.973903,216.607904L543.007890,227.202899L581.081114,267.920146Z " data-cartodb-id="41" data-created-at="2013-02-23T16:02:44.285Z" data-name="Allschwil" data-updated-at="2013-02-23T16:02:44.592Z"/><path d="M804.674744,318.160667L815.671916,316.832845L813.079079,287.943858L794.721307,275.973760L793.212439,289.508087L718.268795,288.444254L740.982559,320.264693L790.583938,354.713180L804.674744,318.160667Z " data-cartodb-id="42" data-created-at="2013-02-23T16:02:44.285Z" data-name="Bottmingen" data-updated-at="2013-02-23T16:02:44.592Z"/><path d="M310.909229,620.780534L349.391741,608.834209L402.060485,597.565570L372.065145,547.518542L327.062640,557.975553L296.369532,610.682108L310.909229,620.780534Z " data-cartodb-id="43" data-created-at="2013-02-23T16:02:44.285Z" data-name="Burg im Leimental" data-updated-at="2013-02-23T16:02:44.592Z"/><path d="M1749.788963,737.721621L1766.903129,714.065561L1765.456099,695.630037L1776.157053,669.353757L1807.575447,660.118237L1795.925389,647.837036L1732.564806,604.472538L1694.227716,657.092264L1674.842381,656.402752L1705.594469,685.775945L1749.788963,737.721621Z " data-cartodb-id="44" data-created-at="2013-02-23T16:02:44.285Z" data-name="Rünenberg" data-updated-at="2013-02-23T16:02:44.592Z"/><path d="M1636.103577,627.415627L1654.212096,614.917695L1616.549210,588.349709L1585.395312,603.030467L1586.255428,634.641728L1636.103577,627.415627Z " data-cartodb-id="45" data-created-at="2013-02-23T16:02:44.285Z" data-name="Diepflingen" data-updated-at="2013-02-23T16:02:44.592Z"/><path d="M871.775074,556.848686L856.366225,571.884078L853.427507,613.842053L841.560397,654.113571L888.849996,663.163911L910.488430,662.848705L910.791732,643.463555L910.309962,612.703370L938.239542,543.972456L916.999644,526.636025L869.826819,514.425653L865.116370,543.125335L871.775074,556.848686Z " data-cartodb-id="46" data-created-at="2013-02-23T16:02:44.285Z" data-name="Duggingen" data-updated-at="2013-02-23T16:02:44.592Z"/><path d="M1499.363392,443.176692L1514.265992,430.513168L1502.274908,408.850414L1485.968132,409.599037L1451.715329,385.229410L1452.215268,390.087576L1432.670476,448.342179L1455.580849,460.296476L1499.363392,443.176692Z " data-cartodb-id="47" data-created-at="2013-02-23T16:02:44.285Z" data-name="Nusshof" data-updated-at="2013-02-23T16:02:44.592Z"/><path d="M1582.005765,699.719818L1542.703292,700.830914L1522.956890,683.281886L1456.148329,689.680546L1463.888480,739.498581L1486.957776,787.251838L1482.021372,815.757913L1463.601513,830.816655L1521.906678,823.712808L1552.376680,804.343672L1617.481287,819.682171L1576.121056,780.419825L1577.490338,710.188547L1582.005765,699.719818Z " data-cartodb-id="48" data-created-at="2013-02-23T16:02:44.285Z" data-name="Diegten" data-updated-at="2013-02-23T16:02:44.592Z"/><path d="M1725.935253,571.769815L1732.564806,604.472538L1795.925389,647.837036L1808.280043,658.814074L1815.144644,677.450591L1821.279279,684.215680L1828.436930,667.773790L1770.019432,595.016335L1746.165655,560.209586L1725.935253,571.769815Z " data-cartodb-id="49" data-created-at="2013-02-23T16:02:44.285Z" data-name="Tecknau" data-updated-at="2013-02-23T16:02:44.592Z"/><path d="M411.839620,738.269287L480.465377,729.006235L502.006947,739.648303L499.643644,676.209471L482.184099,663.510637L491.356007,624.744254L477.041394,598.227505L426.429412,588.889501L402.060485,597.565570L349.391741,608.834209L407.919021,681.493097L383.811187,734.545943L411.839620,738.269287Z " data-cartodb-id="50" data-created-at="2013-02-23T16:02:44.285Z" data-name="Röschenz" data-updated-at="2013-02-23T16:02:44.592Z"/><path d="M1390.999365,680.121955L1359.538172,727.422336L1396.816844,743.856271L1458.251856,751.066550L1463.888480,739.498581L1456.148329,689.680546L1449.690752,679.806750L1414.939615,617.128080L1354.468497,628.964077L1390.999365,680.121955Z " data-cartodb-id="51" data-created-at="2013-02-23T16:02:44.285Z" data-name="Hölstein" data-updated-at="2013-02-23T16:02:44.592Z"/><path d="M520.108262,829.039709L547.168212,787.874362L619.683504,736.437166L589.556481,713.021447L620.567247,698.336857L582.585829,689.976051L499.643644,676.209471L502.006947,739.648303L480.465377,729.006235L411.839620,738.269287L425.761100,787.645841L473.254886,788.969690L486.909780,831.506157L524.985158,848.286659L529.826238,849.779921L520.108262,829.039709Z " data-cartodb-id="52" data-created-at="2013-02-23T16:02:44.285Z" data-name="Laufen" data-updated-at="2013-02-23T16:02:44.592Z"/><path d="M966.971389,751.988520L984.491010,846.293015L972.869678,858.774950L999.844514,868.404311L1066.738120,854.098166L1075.112765,796.818225L1083.317153,769.974795L1062.095504,752.484965L966.971389,751.988520Z " data-cartodb-id="53" data-created-at="2013-02-23T16:02:44.285Z" data-name="Bretzwil" data-updated-at="2013-02-23T16:02:44.592Z"/><path d="M1435.601120,466.884339L1409.437372,493.543105L1465.883733,502.081311L1478.739291,530.836171L1448.825982,561.017305L1440.613576,591.107770L1472.581859,561.462536L1513.898868,566.482213L1531.868469,580.481354L1561.158330,547.719487L1564.826675,500.000936L1590.631817,483.350051L1584.954538,469.433590L1539.963242,467.010423L1499.363392,443.176692L1455.580849,460.296476L1435.601120,466.884339Z " data-cartodb-id="54" data-created-at="2013-02-23T16:02:44.285Z" data-name="Sissach" data-updated-at="2013-02-23T16:02:44.592Z"/><path d="M795.937589,366.734489L790.583938,354.713180L740.982559,320.264693L718.268795,288.444254L681.723870,263.767255L656.132173,287.660169L629.599118,291.529371L608.864350,337.297843L646.694757,342.652469L650.497584,378.022932L795.937589,366.734489Z " data-cartodb-id="55" data-created-at="2013-02-23T16:02:44.285Z" data-name="Oberwil (BL)" data-updated-at="2013-02-23T16:02:44.592Z"/><path d="M1466.577746,881.327497L1463.601513,830.816655L1482.021372,815.757913L1486.957776,787.251838L1463.888480,739.498581L1458.251856,751.066550L1396.816844,743.856271L1391.779846,803.090744L1431.543243,882.541015L1466.577746,881.327497Z " data-cartodb-id="56" data-created-at="2013-02-23T16:02:44.285Z" data-name="Bennwil" data-updated-at="2013-02-23T16:02:44.592Z"/><path d="M1358.990711,571.852557L1417.626639,568.164632L1405.367421,532.577694L1409.437372,493.543105L1435.601120,466.884339L1424.744540,462.589620L1390.669351,450.595923L1334.973266,484.417820L1317.479141,510.832280L1340.139461,531.356264L1329.849053,543.298699L1358.990711,571.852557Z " data-cartodb-id="57" data-created-at="2013-02-23T16:02:44.285Z" data-name="Lausen" data-updated-at="2013-02-23T16:02:44.592Z"/><path d="M1770.019432,595.016335L1798.825816,580.879303L1779.598968,547.404280L1763.963600,509.409903L1781.154708,481.395758L1746.287732,472.719640L1732.543027,441.577006L1701.222943,424.492673L1686.407486,442.459592L1670.817653,480.694419L1683.379534,519.870873L1746.165655,560.209586L1770.019432,595.016335Z " data-cartodb-id="58" data-created-at="2013-02-23T16:02:44.285Z" data-name="Ormalingen" data-updated-at="2013-02-23T16:02:44.592Z"/><path d="M1983.623026,583.917111L1978.102017,574.177211L1975.667659,558.290761L1951.386601,540.473650L1924.164135,547.337298L1893.530963,560.674517L1870.918104,592.341017L1922.535229,619.618211L1948.283176,621.351846L1983.623026,583.917111Z " data-cartodb-id="59" data-created-at="2013-02-23T16:02:44.285Z" data-name="Anwil" data-updated-at="2013-02-23T16:02:44.592Z"/><path d="M1585.395312,603.030467L1616.549210,588.349709L1615.986464,567.971568L1561.158330,547.719487L1531.868469,580.481354L1577.564727,626.383326L1586.255428,634.641728L1585.395312,603.030467Z " data-cartodb-id="60" data-created-at="2013-02-23T16:02:44.285Z" data-name="Thurnen" data-updated-at="2013-02-23T16:02:44.592Z"/><path d="M1615.940089,720.877912L1605.151840,777.354479L1677.207443,757.934041L1647.309882,712.974166L1630.770928,710.137327L1615.940089,720.877912Z " data-cartodb-id="61" data-created-at="2013-02-23T16:02:44.285Z" data-name="Buckten" data-updated-at="2013-02-23T16:02:44.592Z"/><path d="M1235.648155,402.979641L1267.974084,393.196329L1304.578205,406.888236L1322.213057,384.374404L1298.877835,371.147423L1306.477554,324.819475L1277.292861,328.164639L1248.169099,286.643617L1225.089494,308.436442L1219.141773,323.160683L1235.648155,402.979641Z " data-cartodb-id="62" data-created-at="2013-02-23T16:02:44.285Z" data-name="Füllinsdorf" data-updated-at="2013-02-23T16:02:44.592Z"/><path d="M1605.151840,777.354479L1576.121056,780.419825L1617.481287,819.682171L1635.370797,865.295652L1622.385325,893.584807L1744.504498,856.407009L1745.449126,838.515438L1712.020041,809.477521L1744.212017,785.179382L1677.207443,757.934041L1605.151840,777.354479Z " data-cartodb-id="63" data-created-at="2013-02-23T16:02:44.285Z" data-name="Läufelfingen" data-updated-at="2013-02-23T16:02:44.592Z"/><path d="M1519.536701,939.930765L1569.334927,936.416314L1604.839243,919.805389L1622.385325,893.584807L1635.370797,865.295652L1617.481287,819.682171L1552.376680,804.343672L1521.906678,823.712808L1463.601513,830.816655L1466.577746,881.327497L1519.536701,939.930765Z " data-cartodb-id="64" data-created-at="2013-02-23T16:02:44.285Z" data-name="Eptingen" data-updated-at="2013-02-23T16:02:44.592Z"/><path d="M1191.530522,749.817557L1278.685379,766.491804L1286.321331,722.749436L1267.543595,709.471457L1246.875292,687.434711L1170.571948,742.032031L1165.663057,756.373785L1191.530522,749.817557Z " data-cartodb-id="65" data-created-at="2013-02-23T16:02:44.285Z" data-name="Arboldswil" data-updated-at="2013-02-23T16:02:44.592Z"/><path d="M1083.317153,769.974795L1075.112765,796.818225L1133.947579,818.937508L1145.298552,904.979245L1185.298145,900.767402L1193.056493,878.817721L1221.505298,874.999866L1216.967028,834.413886L1202.502474,819.485170L1165.663057,756.373785L1170.571948,742.032031L1141.648164,730.365552L1095.385214,732.264656L1062.095504,752.484965L1083.317153,769.974795Z " data-cartodb-id="66" data-created-at="2013-02-23T16:02:44.285Z" data-name="Reigoldswil" data-updated-at="2013-02-23T16:02:44.592Z"/><path d="M1744.212017,785.179382L1755.800387,787.007556L1754.658011,767.689575L1771.033394,763.162472L1749.788963,737.721621L1705.594469,685.775945L1713.506028,698.218655L1690.723728,714.057681L1647.309882,712.974166L1677.207443,757.934041L1744.212017,785.179382Z " data-cartodb-id="67" data-created-at="2013-02-23T16:02:44.285Z" data-name="Häfelfingen" data-updated-at="2013-02-23T16:02:44.592Z"/><path d="M793.212439,289.508087L794.721307,275.973760L803.981596,232.573288L732.552489,217.372288L705.241765,223.042127L681.723870,263.767255L718.268795,288.444254L793.212439,289.508087Z " data-cartodb-id="68" data-created-at="2013-02-23T16:02:44.285Z" data-name="Binningen" data-updated-at="2013-02-23T16:02:44.592Z"/><path d="M1286.321331,722.749436L1278.685379,766.491804L1290.238908,787.507940L1300.310284,783.926452L1294.916654,772.460958L1368.567210,763.493435L1391.369131,769.352270L1368.052069,796.802465L1391.779846,803.090744L1396.816844,743.856271L1359.538172,727.422336L1301.811293,731.303284L1300.370288,701.780468L1299.269056,682.040766L1285.759206,680.224397L1267.543595,709.471457L1286.321331,722.749436Z " data-cartodb-id="69" data-created-at="2013-02-23T16:02:44.285Z" data-name="Niederdorf" data-updated-at="2013-02-23T16:02:44.592Z"/><path d="M1391.779846,803.090744L1368.052069,796.802465L1391.369131,769.352270L1368.567210,763.493435L1294.916654,772.460958L1300.310284,783.926452L1290.238908,787.507940L1272.043862,802.866163L1281.692211,826.565380L1271.192292,841.769886L1257.238308,841.371945L1269.136313,850.800382L1339.047971,845.004633L1385.548932,857.746610L1420.910478,881.863336L1431.543243,882.541015L1391.779846,803.090744Z " data-cartodb-id="70" data-created-at="2013-02-23T16:02:44.285Z" data-name="Oberdorf (BL)" data-updated-at="2013-02-23T16:02:44.592Z"/><path d="M1815.144644,677.450591L1808.280043,658.814074L1795.925389,647.837036L1807.575447,660.118237L1776.157053,669.353757L1765.456099,695.630037L1766.903129,714.065561L1791.713102,721.626522L1797.982451,703.514093L1837.330521,693.758509L1821.279279,684.215680L1815.144644,677.450591Z " data-cartodb-id="71" data-created-at="2013-02-23T16:02:44.285Z" data-name="Kilchberg (BL)" data-updated-at="2013-02-23T16:02:44.592Z"/><path d="M1615.986464,567.971568L1623.364908,555.887304L1597.870989,487.987556L1590.631817,483.350051L1564.826675,500.000936L1561.158330,547.719487L1615.986464,567.971568Z " data-cartodb-id="72" data-created-at="2013-02-23T16:02:44.285Z" data-name="Böckten" data-updated-at="2013-02-23T16:02:44.592Z"/><path d="M875.832902,444.268103L780.311290,473.168813L750.445372,456.186941L745.073827,455.044308L728.867709,526.856671L850.003919,551.427117L865.116370,543.125335L869.826819,514.425653L875.832902,444.268103Z " data-cartodb-id="73" data-created-at="2013-02-23T16:02:44.285Z" data-name="Aesch (BL)" data-updated-at="2013-02-23T16:02:44.592Z"/><path d="M654.024093,456.777957L685.232617,438.736185L745.073827,455.044308L750.445372,456.186941L821.088844,391.439036L825.843391,369.760501L795.937589,366.734489L650.497584,378.022932L636.891139,407.920547L654.024093,456.777957Z " data-cartodb-id="74" data-created-at="2013-02-23T16:02:44.285Z" data-name="Therwil" data-updated-at="2013-02-23T16:02:44.592Z"/><path d="M1850.705843,699.140629L1879.613462,662.970847L1870.918104,592.341017L1779.598968,547.404280L1798.825816,580.879303L1770.019432,595.016335L1828.436930,667.773790L1821.279279,684.215680L1837.330521,693.758509L1850.705843,699.140629Z " data-cartodb-id="75" data-created-at="2013-02-23T16:02:44.285Z" data-name="Wenslingen" data-updated-at="2013-02-23T16:02:44.592Z"/><path d="M1440.613576,591.107770L1448.825982,561.017305L1478.739291,530.836171L1465.883733,502.081311L1409.437372,493.543105L1405.367421,532.577694L1417.626639,568.164632L1424.357784,594.307120L1440.613576,591.107770Z " data-cartodb-id="76" data-created-at="2013-02-23T16:02:44.285Z" data-name="Itingen" data-updated-at="2013-02-23T16:02:44.592Z"/><path d="M1248.169099,286.643617L1277.292861,328.164639L1306.477554,324.819475L1314.338403,299.192912L1279.293823,289.898160L1266.453881,274.334669L1248.169099,286.643617Z " data-cartodb-id="77" data-created-at="2013-02-23T16:02:44.285Z" data-name="Giebenach" data-updated-at="2013-02-23T16:02:44.592Z"/><path d="M1216.967028,834.413886L1221.505298,874.999866L1269.136313,850.800382L1257.238308,841.371945L1271.192292,841.769886L1281.692211,826.565380L1272.043862,802.866163L1202.502474,819.485170L1216.967028,834.413886Z " data-cartodb-id="78" data-created-at="2013-02-23T16:02:44.285Z" data-name="Liedertswil" data-updated-at="2013-02-23T16:02:44.592Z"/><path d="M1121.575161,625.165842L1127.337166,678.656251L1178.064258,618.767154L1203.405895,605.268435L1221.961767,590.437955L1166.778925,572.557834L1143.717645,583.479761L1121.575161,625.165842Z " data-cartodb-id="79" data-created-at="2013-02-23T16:02:44.285Z" data-name="Lupsingen" data-updated-at="2013-02-23T16:02:44.592Z"/><path d="M825.843391,369.760501L821.088844,391.439036L750.445372,456.186941L780.311290,473.168813L875.832902,444.268103L875.234903,439.272040L873.758319,381.076524L862.078802,374.925998L863.147708,346.860519L823.045369,338.566562L831.387552,321.466430L815.671916,316.832845L804.674744,318.160667L790.583938,354.713180L795.937589,366.734489L825.843391,369.760501Z " data-cartodb-id="80" data-created-at="2013-02-23T16:02:44.285Z" data-name="Reinach (BL)" data-updated-at="2013-02-23T16:02:44.592Z"/><path d="M1922.432901,760.112882L1933.638084,736.185003L1934.738101,725.278949L1908.979956,707.777234L1855.432962,712.454079L1850.705843,699.140629L1837.330521,693.758509L1797.982451,703.514093L1791.713102,721.626522L1766.903129,714.065561L1749.788963,737.721621L1771.033394,763.162472L1838.979491,797.874152L1922.432901,760.112882Z " data-cartodb-id="81" data-created-at="2013-02-23T16:02:44.285Z" data-name="Zeglingen" data-updated-at="2013-02-23T16:02:44.592Z"/><path d="M1340.139461,531.356264L1317.479141,510.832280L1334.973266,484.417820L1390.669351,450.595923L1424.744540,462.589620L1421.434802,442.629016L1401.915253,450.528941L1390.882810,435.004898L1360.425334,431.352412L1322.213057,384.374404L1304.578205,406.888236L1267.974084,393.196329L1235.648155,402.979641L1202.779710,409.118342L1138.341037,397.948111L1106.836918,412.037969L1072.237046,455.008847L1166.732345,474.149900L1200.479385,518.188450L1249.279514,514.153786L1284.447825,528.866121L1329.849053,543.298699L1340.139461,531.356264Z " data-cartodb-id="82" data-created-at="2013-02-23T16:02:44.285Z" data-name="Liestal" data-updated-at="2013-02-23T16:02:44.592Z"/><path d="M1893.530963,560.674517L1924.164135,547.337298L1940.877928,456.116019L1900.797113,470.000965L1810.012500,457.195609L1781.154708,481.395758L1763.963600,509.409903L1779.598968,547.404280L1870.918104,592.341017L1893.530963,560.674517Z " data-cartodb-id="83" data-created-at="2013-02-23T16:02:44.285Z" data-name="Rothenfluh" data-updated-at="2013-02-23T16:02:44.592Z"/><path d="M1267.543595,709.471457L1285.759206,680.224397L1299.269056,682.040766L1300.370288,701.780468L1354.468497,628.964077L1358.990711,571.852557L1329.849053,543.298699L1284.447825,528.866121L1221.961767,590.437955L1203.405895,605.268435L1245.264776,643.664499L1246.875292,687.434711L1267.543595,709.471457Z " data-cartodb-id="84" data-created-at="2013-02-23T16:02:44.285Z" data-name="Bubendorf" data-updated-at="2013-02-23T16:02:44.592Z"/><path d="M1922.535229,619.618211L1870.918104,592.341017L1879.613462,662.970847L1850.705843,699.140629L1855.432962,712.454079L1908.979956,707.777234L1934.738101,725.278949L1933.638084,736.185003L1983.473783,717.327925L1999.034626,705.614143L1960.172078,666.595710L1948.283176,621.351846L1922.535229,619.618211Z " data-cartodb-id="85" data-created-at="2013-02-23T16:02:44.285Z" data-name="Oltingen" data-updated-at="2013-02-23T16:02:44.592Z"/><path d="M886.745714,359.839278L873.758319,381.076524L875.234903,439.272040L981.895278,466.064796L1019.683777,445.099467L1004.477124,430.000953L1010.420549,419.031674L999.061777,400.824396L886.745714,359.839278Z " data-cartodb-id="86" data-created-at="2013-02-23T16:02:44.285Z" data-name="Arlesheim" data-updated-at="2013-02-23T16:02:44.592Z"/><path d="M586.241546,664.996042L562.039871,614.153320L520.818762,566.103964L494.254301,566.269448L426.429412,588.889501L477.041394,598.227505L491.356007,624.744254L482.184099,663.510637L499.643644,676.209471L582.585829,689.976051L586.241546,664.996042Z " data-cartodb-id="87" data-created-at="2013-02-23T16:02:44.285Z" data-name="Dittingen" data-updated-at="2013-02-23T16:02:44.592Z"/><path d="M1300.370288,701.780468L1301.811293,731.303284L1359.538172,727.422336L1390.999365,680.121955L1354.468497,628.964077L1300.370288,701.780468Z " data-cartodb-id="88" data-created-at="2013-02-23T16:02:44.285Z" data-name="Lampenberg" data-updated-at="2013-02-23T16:02:44.592Z"/><path d="M994.100020,376.289279L916.077210,306.383638L914.708641,239.401524L886.822462,244.133614L831.387552,321.466430L823.045369,338.566562L863.147708,346.860519L862.078802,374.925998L873.758319,381.076524L886.745714,359.839278L999.061777,400.824396L994.100020,376.289279Z " data-cartodb-id="89" data-created-at="2013-02-23T16:02:44.285Z" data-name="Münchenstein" data-updated-at="2013-02-23T16:02:44.592Z"/></g><g fill="#000" font-family="Arial" font-size="12px" id="mylayer-label" stroke="none"><text text-anchor="middle" y="164.339442855"><tspan dy="0" x="822.200496628"><![CDATA[Basel]]></tspan></text><text text-anchor="middle" y="76.9532935965"><tspan dy="0" x="999.69585168"><![CDATA[Riehen]]></tspan></text><text text-anchor="middle" y="112.776324392"><tspan dy="0" x="1066.80631999"><![CDATA[Bettingen]]></tspan></text><text text-anchor="middle" y="592.356170842"><tspan dy="0" x="735.058251087"><![CDATA[Nenzlingen]]></tspan></text><text text-anchor="middle" y="576.487852024"><tspan dy="0" x="614.958747758"><![CDATA[Blauen]]></tspan></text><text text-anchor="middle" y="320.896447082"><tspan dy="0" x="1137.52742512"><![CDATA[Pratteln]]></tspan></text><text text-anchor="middle" y="362.242826099"><tspan dy="0" x="602.26444225"><![CDATA[Biel-Benken]]></tspan></text><text text-anchor="middle" y="489.83405276"><tspan dy="0" x="686.558949151"><![CDATA[Ettingen]]></tspan></text><text text-anchor="middle" y="676.834827533"><tspan dy="0" x="97.4615617666"><![CDATA[Roggenburg]]></tspan></text><text text-anchor="middle" y="432.031172884"><tspan dy="0" x="1766.86914173"><![CDATA[Hemmiken]]></tspan></text><text text-anchor="middle" y="792.881882612"><tspan dy="0" x="586.955546142"><![CDATA[Wahlen]]></tspan></text><text text-anchor="middle" y="672.12154056"><tspan dy="0" x="1183.24540228"><![CDATA[Ziefen]]></tspan></text><text text-anchor="middle" y="665.904543032"><tspan dy="0" x="1612.36494578"><![CDATA[Wittinsburg]]></tspan></text><text text-anchor="middle" y="542.624241411"><tspan dy="0" x="1220.09848935"><![CDATA[Seltisberg]]></tspan></text><text text-anchor="middle" y="303.54229077"><tspan dy="0" x="1614.18299749"><![CDATA[Maisprach]]></tspan></text><text text-anchor="middle" y="450.057590348"><tspan dy="0" x="1634.92077786"><![CDATA[Rickenbach (BL)]]></tspan></text><text text-anchor="middle" y="426.646198444"><tspan dy="0" x="1425.37572709"><![CDATA[Hersberg]]></tspan></text><text text-anchor="middle" y="293.808882857"><tspan dy="0" x="1001.15355304"><![CDATA[Muttenz]]></tspan></text><text text-anchor="middle" y="255.194936549"><tspan dy="0" x="549.951911726"><![CDATA[Schönenbuch]]></tspan></text><text text-anchor="middle" y="607.502460955"><tspan dy="0" x="1483.06394097"><![CDATA[Zunzgen]]></tspan></text><text text-anchor="middle" y="782.24819076"><tspan dy="0" x="310.888823945"><![CDATA[Liesberg]]></tspan></text><text text-anchor="middle" y="265.02179406"><tspan dy="0" x="1216.22213187"><![CDATA[Augst]]></tspan></text><text text-anchor="middle" y="679.411355758"><tspan dy="0" x="1667.81815391"><![CDATA[Rümlingen]]></tspan></text><text text-anchor="middle" y="561.671260654"><tspan dy="0" x="795.234577686"><![CDATA[Pfeffingen]]></tspan></text><text text-anchor="middle" y="408.467750635"><tspan dy="0" x="1563.1877782"><![CDATA[Wintersingen]]></tspan></text><text text-anchor="middle" y="356.54064049"><tspan dy="0" x="1374.74174712"><![CDATA[Arisdorf]]></tspan></text><text text-anchor="middle" y="632.269359295"><tspan dy="0" x="814.883960827"><![CDATA[Grellingen]]></tspan></text><text text-anchor="middle" y="590.509277338"><tspan dy="0" x="1387.74729877"><![CDATA[Ramlinsburg]]></tspan></text><text text-anchor="middle" y="739.484923935"><tspan dy="0" x="1593.27815408"><![CDATA[Känerkinden]]></tspan></text><text text-anchor="middle" y="864.039896113"><tspan dy="0" x="1079.93841711"><![CDATA[Lauwil]]></tspan></text><text text-anchor="middle" y="688.945601975"><tspan dy="0" x="700.704973486"><![CDATA[Brislach]]></tspan></text><text text-anchor="middle" y="950.568905146"><tspan dy="0" x="1409.38381448"><![CDATA[Langenbruck]]></tspan></text><text text-anchor="middle" y="643.115345021"><tspan dy="0" x="633.981541407"><![CDATA[Zwingen]]></tspan></text><text text-anchor="middle" y="183.282621285"><tspan dy="0" x="935.699718442"><![CDATA[Birsfelden]]></tspan></text><text text-anchor="middle" y="657.515299662"><tspan dy="0" x="1533.38647261"><![CDATA[Tenniken]]></tspan></text><text text-anchor="middle" y="776.358107575"><tspan dy="0" x="1226.63364093"><![CDATA[Titterten]]></tspan></text><text text-anchor="middle" y="386.66042556"><tspan dy="0" x="1160.81967971"><![CDATA[Frenkendorf]]></tspan></text><text text-anchor="middle" y="878.745426437"><tspan dy="0" x="1305.10205566"><![CDATA[Waldenburg]]></tspan></text><text text-anchor="middle" y="560.597688397"><tspan dy="0" x="1668.93596056"><![CDATA[Gelterkinden]]></tspan></text><text text-anchor="middle" y="370.260186175"><tspan dy="0" x="1683.89587262"><![CDATA[Buus]]></tspan></text><text text-anchor="middle" y="216.085464514"><tspan dy="0" x="648.025161988"><![CDATA[Allschwil]]></tspan></text><text text-anchor="middle" y="305.015523448"><tspan dy="0" x="774.384400958"><![CDATA[Bottmingen]]></tspan></text><text text-anchor="middle" y="579.141806074"><tspan dy="0" x="348.147735931"><![CDATA[Burg im Leimental]]></tspan></text><text text-anchor="middle" y="659.919758918"><tspan dy="0" x="1741.73580123"><![CDATA[Rünenberg]]></tspan></text><text text-anchor="middle" y="607.244716467"><tspan dy="0" x="1614.13367324"><![CDATA[Diepflingen]]></tspan></text><text text-anchor="middle" y="585.063289896"><tspan dy="0" x="888.324721512"><![CDATA[Duggingen]]></tspan></text><text text-anchor="middle" y="421.443417851"><tspan dy="0" x="1469.82831737"><![CDATA[Nusshof]]></tspan></text><text text-anchor="middle" y="747.576700815"><tspan dy="0" x="1523.29493669"><![CDATA[Diegten]]></tspan></text><text text-anchor="middle" y="607.148811656"><tspan dy="0" x="1769.23373535"><![CDATA[Tecknau]]></tspan></text><text text-anchor="middle" y="657.016248828"><tspan dy="0" x="437.400328952"><![CDATA[Röschenz]]></tspan></text><text text-anchor="middle" y="683.526300555"><tspan dy="0" x="1412.12704667"><![CDATA[Hölstein]]></tspan></text><text text-anchor="middle" y="745.724028242"><tspan dy="0" x="517.980184855"><![CDATA[Laufen]]></tspan></text><text text-anchor="middle" y="798.853401038"><tspan dy="0" x="1023.78616653"><![CDATA[Bretzwil]]></tspan></text><text text-anchor="middle" y="501.72224346"><tspan dy="0" x="1506.12002258"><![CDATA[Sissach]]></tspan></text><text text-anchor="middle" y="324.182989487"><tspan dy="0" x="693.856837337"><![CDATA[Oberwil (BL)]]></tspan></text><text text-anchor="middle" y="799.480928973"><tspan dy="0" x="1438.2536842"><![CDATA[Bennwil]]></tspan></text><text text-anchor="middle" y="506.911516516"><tspan dy="0" x="1375.56068052"><![CDATA[Lausen]]></tspan></text><text text-anchor="middle" y="499.346730258"><tspan dy="0" x="1730.52069355"><![CDATA[Ormalingen]]></tspan></text><text text-anchor="middle" y="575.68485427"><tspan dy="0" x="1931.32743995"><![CDATA[Anwil]]></tspan></text><text text-anchor="middle" y="577.204056391"><tspan dy="0" x="1575.28237464"><![CDATA[Thurnen]]></tspan></text><text text-anchor="middle" y="738.449649746"><tspan dy="0" x="1636.75277452"><![CDATA[Buckten]]></tspan></text><text text-anchor="middle" y="347.859557037"><tspan dy="0" x="1263.75392609"><![CDATA[Füllinsdorf]]></tspan></text><text text-anchor="middle" y="813.082077498"><tspan dy="0" x="1669.99267487"><![CDATA[Läufelfingen]]></tspan></text><text text-anchor="middle" y="865.27019016"><tspan dy="0" x="1550.07328618"><![CDATA[Eptingen]]></tspan></text><text text-anchor="middle" y="726.322961472"><tspan dy="0" x="1236.61378435"><![CDATA[Arboldswil]]></tspan></text><text text-anchor="middle" y="803.408416772"><tspan dy="0" x="1149.06487939"><![CDATA[Reigoldswil]]></tspan></text><text text-anchor="middle" y="736.084362391"><tspan dy="0" x="1712.18748417"><![CDATA[Häfelfingen]]></tspan></text><text text-anchor="middle" y="249.146725632"><tspan dy="0" x="745.605711024"><![CDATA[Binningen]]></tspan></text><text text-anchor="middle" y="739.393741205"><tspan dy="0" x="1328.75594824"><![CDATA[Niederdorf]]></tspan></text><text text-anchor="middle" y="810.714427546"><tspan dy="0" x="1344.2306731"><![CDATA[Oberdorf (BL)]]></tspan></text><text text-anchor="middle" y="683.827041887"><tspan dy="0" x="1793.41938188"><![CDATA[Kilchberg (BL)]]></tspan></text><text text-anchor="middle" y="522.026552435"><tspan dy="0" x="1589.99048017"><![CDATA[Böckten]]></tspan></text><text text-anchor="middle" y="494.392180504"><tspan dy="0" x="808.803572029"><![CDATA[Aesch (BL)]]></tspan></text><text text-anchor="middle" y="400.999976014"><tspan dy="0" x="725.85492396"><![CDATA[Therwil]]></tspan></text><text text-anchor="middle" y="617.470754284"><tspan dy="0" x="1832.70723733"><![CDATA[Wenslingen]]></tspan></text><text text-anchor="middle" y="529.798791613"><tspan dy="0" x="1436.98685666"><![CDATA[Itingen]]></tspan></text><text text-anchor="middle" y="298.031250595"><tspan dy="0" x="1281.91455479"><![CDATA[Giebenach]]></tspan></text><text text-anchor="middle" y="828.478493717"><tspan dy="0" x="1243.96179921"><![CDATA[Liedertswil]]></tspan></text><text text-anchor="middle" y="607.604953454"><tspan dy="0" x="1159.48572147"><![CDATA[Lupsingen]]></tspan></text><text text-anchor="middle" y="399.175032236"><tspan dy="0" x="825.166416185"><![CDATA[Reinach (BL)]]></tspan></text><text text-anchor="middle" y="737.258953031"><tspan dy="0" x="1843.67315899"><![CDATA[Zeglingen]]></tspan></text><text text-anchor="middle" y="448.815346097"><tspan dy="0" x="1245.43010507"><![CDATA[Liestal]]></tspan></text><text text-anchor="middle" y="509.774156157"><tspan dy="0" x="1853.39040452"><![CDATA[Rothenfluh]]></tspan></text><text text-anchor="middle" y="606.118416451"><tspan dy="0" x="1289.96658612"><![CDATA[Bubendorf]]></tspan></text><text text-anchor="middle" y="666.059347329"><tspan dy="0" x="1920.08905907"><![CDATA[Oltingen]]></tspan></text><text text-anchor="middle" y="410.879597034"><tspan dy="0" x="938.664495717"><![CDATA[Arlesheim]]></tspan></text><text text-anchor="middle" y="622.119380951"><tspan dy="0" x="522.408945722"><![CDATA[Dittingen]]></tspan></text><text text-anchor="middle" y="683.242295663"><tspan dy="0" x="1344.71703783"><![CDATA[Lampenberg]]></tspan></text><text text-anchor="middle" y="320.51903889"><tspan dy="0" x="903.069159158"><![CDATA[Münchenstein]]></tspan></text></g></svg>