<?xml version="1.0" encoding="utf-8"?><!DOCTYPE svg  PUBLIC '-//W3C//DTD SVG 1.1//EN'  'http://www.w3.org/Graphics/SVG/1.1/DTD/svg11.dtd'><svg enable_background="new 0 0 2000 887" height="887px" pretty_print="False" style="stroke-linejoin: round; stroke:#000; fill: none;" version="1.1" viewBox="0 0 2000 887" width="2000px" xmlns="http://www.w3.org/2000/svg" xmlns:xlink="http://www.w3.org/1999/xlink"><defs><style type="text/css"><![CDATA[path { fill-rule: evenodd; }]]></style></defs><metadata><views><view h="887.784799942" padding="0" w="2000"><proj flip="auto" id="robinson" lon0="7.44874662743"/><bbox h="1.17" w="2.63" x="95.71" y="-785.93"/></view></views></metadata><g class="" id="mylayer"><path d="M1418.248662,536.677953L1418.280402,536.727766L1418.301717,536.765125L1418.313536,536.814938L1418.325354,536.864751L1418.317251,536.914564L1418.309147,536.964377L1418.281122,537.014190L1418.252632,537.051550L1418.214182,537.088910L1418.175731,537.126270L1418.116894,537.151176L1418.376599,537.437601L1418.192960,538.122530L1418.052624,538.633113L1418.072546,538.633113L1417.729112,539.841079L1417.749499,539.853532L1416.985984,542.618153L1416.975558,542.605699L1416.966991,542.643059L1416.599245,544.000463L1416.073096,545.918262L1416.055032,545.968075L1416.026542,546.005435L1415.998516,546.055247L1415.950104,546.092607L1415.901228,546.117514L1415.570074,547.387744L1415.591853,547.437557L1415.603672,547.487370L1415.605529,547.537183L1415.596961,547.574543L1415.578897,547.624356L1415.337556,548.097578L1415.367903,548.110032L1414.662873,549.504794L1414.622100,549.479888L1414.408784,549.903298L1414.418745,549.903298L1413.509429,551.696563L1413.885461,552.431304L1414.110431,552.854713L1414.143564,552.941886L1414.368998,553.377749L1414.443833,553.514735L1415.174119,554.934402L1415.245239,554.971762L1415.460413,554.598165L1415.746707,554.261928L1416.084664,553.975504L1416.473818,553.726439L1416.905139,553.539641L1417.358239,553.402655L1426.627388,551.410139L1433.672939,549.890844L1434.849011,549.641780L1436.311630,549.330449L1437.673910,553.539641L1437.933206,554.349101L1438.777827,556.964278L1447.090171,565.905687L1447.224310,566.030219L1447.387869,566.142298L1447.569956,566.217017L1447.761539,566.279283L1447.961691,566.304190L1448.160913,566.304190L1448.358741,566.266830L1448.546144,566.217017L1448.624439,566.179657L1448.692309,566.129845L1448.740256,566.080032L1448.787739,566.017766L1450.150079,563.552030L1456.215478,552.580742L1455.990704,551.895815L1455.733520,551.410139L1456.069408,551.335419L1461.861037,550.115003L1463.180596,550.775024L1469.371327,549.305542L1469.517085,549.741406L1469.796780,550.563319L1472.446796,551.908268L1475.381987,551.285606L1476.882603,549.056478L1476.467572,547.811154L1478.267928,547.474917L1479.860032,547.163586L1479.963159,547.524730L1480.236289,547.636809L1480.245321,547.611902L1480.780226,547.798701L1481.324162,547.960593L1481.777056,548.085125L1482.248477,548.172298L1482.248941,548.184751L1482.849391,548.259471L1483.459337,548.321737L1484.246722,548.334190L1485.032248,548.296830L1485.171237,548.284377L1485.815449,548.197204L1486.448306,548.072672L1487.177985,547.873420L1487.886346,547.636809L1487.875920,547.624356L1488.913660,547.138679L1489.352609,546.889614L1489.781132,546.628096L1489.791558,546.640550L1490.014619,546.478658L1490.009970,546.354125L1494.024256,546.354125L1494.028240,546.727722L1497.873189,546.727722L1498.386977,546.615643L1499.378429,546.491111L1499.364948,546.129967L1504.832144,546.092607L1505.399921,546.092607L1505.406895,546.279406L1506.726862,546.416391L1508.264576,546.516017L1509.321838,546.553377L1509.769618,546.540924L1510.215539,546.478658L1510.708475,546.341672L1511.179164,546.142420L1513.598490,545.843542L1513.710850,545.918262L1513.842203,545.968075L1513.973091,546.005435L1514.113475,546.030341L1514.252929,546.030341L1514.391918,546.017888L1514.529978,545.980528L1514.657146,545.918262L1514.774353,545.855996L1514.900126,545.756370L1515.015008,545.631837L1515.100008,545.507305L1515.160239,545.519758L1521.135935,547.362838L1521.615410,548.732694L1521.735016,549.268183L1522.330965,550.289348L1523.555806,552.680368L1525.593634,552.568289L1535.012123,552.443757L1537.152351,552.406397L1539.232618,552.630555L1539.422808,552.655462L1539.502962,552.667915L1567.237519,555.681596L1567.307712,555.694049L1586.090895,557.736378L1592.534587,556.640494L1612.296027,547.014147L1615.790181,545.357866L1615.935406,545.245787L1619.409431,542.518527L1623.540564,538.184796L1624.546918,533.664265L1625.083759,526.976862L1625.157059,523.875997L1625.245701,519.853589L1625.260397,519.181112L1625.259931,519.168658L1625.266632,519.081485L1625.265235,519.044126L1625.377210,513.514867L1624.680597,508.471283L1624.669239,508.433923L1624.597832,508.122591L1624.526424,507.811258L1624.491419,507.674272L1624.490022,507.636912L1624.418614,507.325579L1622.371087,503.714122L1619.721287,501.310634L1615.947141,499.206024L1611.608701,498.259573L1606.828831,497.761440L1600.266919,497.288214L1596.983593,497.387841L1592.237896,497.537280L1590.374583,497.786347L1585.735755,498.396559L1568.483690,501.061568L1564.076737,501.746499L1560.595858,502.157459L1559.009112,502.344258L1553.883305,502.717857L1548.720361,502.630684L1543.574274,502.194819L1538.474929,501.410260L1533.416554,500.389089L1528.577515,499.106398L1525.322707,497.836160L1525.069968,497.736533L1523.200252,497.014241L1523.088823,496.964428L1508.342180,491.235901L1500.287636,487.599529L1500.073811,487.474996L1492.698611,483.091423L1487.703643,479.230888L1483.318152,475.420164L1471.252919,464.934438L1471.067586,464.772544L1470.274592,464.075156L1467.798579,466.055241L1467.537079,466.254494L1461.588369,470.999224L1461.474619,470.887144L1461.277002,470.662984L1459.160684,472.406453L1449.950704,479.978088L1447.708128,481.808729L1447.688672,481.821182L1445.098657,483.950703L1444.202941,486.640623L1437.468780,486.354196L1437.207123,487.350463L1436.875741,488.346729L1435.957767,490.974381L1435.392230,492.369153L1434.924183,493.440139L1434.425323,494.486218L1438.047740,496.267042L1437.749901,496.827441L1437.441636,497.375387L1437.019416,498.072773L1436.218275,499.293197L1435.252911,500.650608L1434.863100,501.148741L1434.452438,501.621966L1433.417086,502.705404L1432.309221,503.714122L1431.129771,504.673026L1429.877807,505.557211L1422.949457,510.214744L1421.830435,510.924582L1420.875637,511.497434L1420.201808,511.858579L1419.485814,512.157458L1419.160821,512.257084L1416.417336,508.670536L1415.419908,509.168668L1414.401630,509.641893L1413.234403,510.127571L1412.055821,510.575890L1410.384306,511.161195L1410.266169,511.198555L1411.554434,514.760196L1414.485942,522.854829L1416.551354,528.558427L1415.988226,528.682960L1416.606871,530.314337L1417.540180,532.904616L1417.475957,534.922044L1417.429751,536.354168L1417.689920,536.653046L1417.728370,536.615686L1417.777246,536.590780L1417.826122,536.565873L1417.885424,536.553420L1417.945189,536.553420L1417.994994,536.553420L1418.055224,536.565873L1418.115919,536.590780L1418.166652,536.615686L1418.207425,536.640593L1418.248662,536.677953Z " data-cartodb-id="1" data-created-at="2013-12-05T20:49:58+0100" data-name="Innere Stadt" data-updated-at="2013-12-05T20:49:59+0100"/><path d="M1528.191911,0.000000L1506.867332,11.084100L1498.891036,25.480954L1495.749946,39.491711L1495.151212,58.645935L1490.545051,72.096210L1474.517292,95.173347L1456.124575,109.868954L1443.574025,120.205680L1441.721282,123.929389L1441.555041,124.278097L1439.378835,128.674313L1442.620572,138.413232L1451.908648,145.250394L1467.810727,150.518367L1488.292714,140.555294L1491.979780,138.749486L1503.761697,138.761939L1513.773832,147.380001L1518.110068,163.744330L1512.133394,180.768678L1498.864438,190.009386L1485.696934,191.304578L1480.220330,184.131201L1476.544647,179.311585L1460.793323,166.085647L1450.509918,164.068129L1440.521517,166.484169L1433.809425,174.230436L1432.386876,175.874337L1427.695567,184.131201L1425.105752,195.327147L1424.991184,210.670176L1424.836084,229.998368L1424.681335,250.671514L1417.736057,264.457735L1414.135898,267.533790L1411.568418,269.725634L1410.583667,270.560029L1397.133867,273.648535L1385.762430,270.510214L1383.059807,267.209994L1379.250852,262.552323L1373.205112,242.514345L1373.170590,242.389808L1370.728362,234.319807L1357.343919,217.519734L1341.289612,208.440955L1326.474938,204.293855L1320.818738,204.044780L1311.660332,203.621353L1311.542677,203.671168L1311.414598,203.708529L1311.138987,203.795705L1311.109573,203.808159L1311.060241,203.820613L1310.853880,203.895335L1292.406624,209.972766L1258.146730,225.490121L1244.650325,231.604898L1216.211582,234.693418L1215.074588,234.917585L1204.141682,236.324854L1191.097125,237.993651L1153.813321,252.576928L1116.018914,267.371892L1033.714359,261.244688L972.466841,289.277855L882.657414,295.928091L886.379199,299.875887L886.439797,300.436300L887.452109,301.146156L886.620751,301.557125L887.457017,302.354156L887.637783,303.201002L888.246192,305.106404L889.087452,306.575929L889.986898,307.734114L891.213634,308.854938L892.942054,310.075391L894.753194,311.109040L896.876591,311.968338L897.119455,314.222438L895.935074,314.782850L895.009650,315.343261L893.827303,316.227466L892.848766,317.236207L878.444765,334.123255L877.506511,335.144447L877.345032,335.356158L877.224316,335.592775L877.154322,335.854300L877.143626,336.103371L877.173231,336.364896L877.262135,336.613967L877.400377,336.850585L877.577537,337.062295L879.314920,338.793340L880.964510,340.574198L882.536267,342.404870L885.523198,346.140934L886.732424,346.788518L890.143497,350.412499L890.403107,350.698930L892.150112,353.226998L894.610469,356.190938L900.331701,362.218444L903.402224,364.983125L906.435492,367.548549L906.652498,367.760259L909.211650,370.163787L909.325364,370.275868L911.901403,372.866197L914.483908,375.630875L915.493956,376.278457L917.987210,379.591087L920.733628,383.015797L922.060866,384.697018L923.358225,386.378238L924.646549,388.084366L925.904994,389.790492L927.144905,391.533979L928.354937,393.277466L929.545973,395.045859L930.678172,396.839158L931.742497,398.682271L932.738025,400.550291L933.654334,402.430763L934.501845,404.336142L936.116726,408.134446L937.120031,410.749670L938.874709,413.750950L939.932167,416.752229L940.098153,419.081022L941.455079,422.368728L942.697335,427.399912L943.388187,429.915502L943.825297,431.497086L944.215835,433.165844L944.516730,434.834601L944.958263,436.266743L944.614724,436.403730L945.913017,439.990311L946.613985,441.434906L947.510933,442.792326L945.901950,442.916860L944.293889,443.066301L944.664015,449.828493L947.171587,459.168528L949.628357,462.568298L951.263824,465.308039L953.798252,468.384019L954.213292,468.832340L954.685789,469.218394L955.206704,469.567088L955.775114,469.853515L961.259771,476.204725L961.555481,476.927019L961.940375,477.636860L962.383648,478.309340L962.905684,478.956914L964.636704,481.049075L972.650785,478.247073L980.664843,475.445071L987.222711,473.128748L996.494137,469.853515L1015.430098,481.422676L1029.777046,491.721580L1029.067153,492.991819L1035.210809,495.619470L1035.958273,496.167416L1038.352389,497.873520L1045.577377,503.066550L1046.242388,503.539776L1046.621103,503.813748L1047.163196,503.390336L1047.257259,503.240896L1050.045201,502.406525L1050.104966,502.406525L1063.703654,503.539776L1076.503183,504.610760L1077.332702,504.685480L1087.614264,505.544757L1094.095258,505.719104L1094.945915,505.021719L1100.110695,505.158705L1100.105895,504.224707L1101.952481,505.669291L1102.941338,506.279502L1103.987648,506.827447L1105.080989,507.300673L1106.211398,507.699178L1106.366075,508.645629L1110.433325,508.732802L1110.475192,506.105156L1111.910473,506.130063L1117.243203,506.229689L1118.817935,506.254596L1132.165630,506.528568L1133.451499,506.553475L1133.870316,506.565928L1140.324073,504.934546L1158.411908,500.351729L1164.638840,498.782612L1165.546899,498.558452L1170.855801,497.213494L1177.072752,495.644376L1180.190721,494.847364L1181.630176,494.448858L1183.963558,493.714112L1186.264278,492.904646L1188.511026,491.983100L1190.694303,490.961928L1192.814572,489.853582L1194.871833,488.658062L1196.846628,487.387823L1198.727143,485.993050L1202.852778,482.829903L1204.849107,481.335502L1206.644594,480.065262L1206.897088,479.890915L1209.017570,478.521047L1210.558935,477.649313L1211.231863,477.263259L1212.882793,476.391525L1213.635406,476.005471L1214.800807,475.469977L1216.005587,474.922030L1218.428348,473.913309L1220.915039,473.016667L1222.174714,472.605707L1223.059127,472.281920L1223.901382,471.895866L1224.360267,471.646799L1225.240510,471.210931L1226.152024,470.812424L1227.084386,470.438823L1228.423743,470.027862L1229.784874,469.666715L1230.931967,469.442555L1232.080450,469.255754L1232.823327,469.143674L1233.425828,469.006687L1233.985707,468.794980L1234.513388,468.521006L1234.639633,468.433833L1234.745493,468.334206L1234.840929,468.222125L1234.915981,468.097592L1234.961151,467.973058L1236.757072,467.786258L1238.902765,465.756360L1239.114485,465.557106L1239.563872,465.855987L1240.031789,466.117507L1240.538160,466.341668L1241.012332,466.503562L1241.514069,466.603189L1241.852729,466.603189L1242.189537,466.553375L1242.504569,466.453748L1242.797830,466.839802L1242.870798,466.926976L1243.237954,467.425110L1243.583798,467.885885L1243.615533,467.935698L1243.730660,468.085138L1244.265064,468.794980L1244.590061,469.230847L1244.831202,469.554635L1244.844177,469.903329L1244.916915,470.252023L1245.015828,470.501090L1245.143696,470.725250L1245.300983,470.936957L1245.497648,471.136211L1246.641275,472.157386L1247.434657,472.867227L1246.088117,472.817414L1244.732544,472.792507L1248.607955,476.291898L1250.376088,476.428885L1252.136114,476.615685L1253.141682,477.138726L1254.175279,477.611953L1255.237832,478.060273L1256.318453,478.458780L1257.963823,479.044087L1258.427112,479.181074L1258.908468,479.268248L1259.397931,479.305608L1259.895037,479.280701L1260.330990,479.218434L1260.755591,479.118808L1261.158417,478.969367L1262.062991,479.455048L1263.608066,480.289422L1264.396114,480.052808L1266.066044,480.762649L1267.129991,481.248329L1268.174945,481.758916L1268.885634,482.120063L1269.547911,482.518569L1270.172662,482.979343L1270.553259,483.303130L1270.904438,483.639370L1271.311209,483.863530L1271.453903,483.950703L1271.474288,483.963156L1272.847256,484.722810L1274.278373,485.706623L1276.945331,487.512356L1278.695432,488.770142L1280.251646,489.903395L1281.305415,490.650595L1281.858129,491.049101L1283.316129,492.219713L1284.763243,493.365419L1285.315494,493.751472L1286.246493,494.411498L1288.343152,495.880989L1289.709882,496.740268L1291.770173,498.035413L1296.163876,500.737781L1297.907044,501.808766L1298.610566,502.244632L1298.889692,501.983112L1300.965295,503.689215L1301.933363,504.274521L1302.565770,504.673026L1304.375202,505.918357L1306.225869,507.201046L1307.330387,507.973151L1308.014919,508.433923L1308.444867,508.745255L1309.549386,509.517360L1310.653907,510.289464L1311.430870,510.824956L1312.883335,511.846126L1314.713628,513.116362L1315.654604,513.776386L1320.318725,517.051600L1321.208510,517.674265L1321.249281,517.699171L1321.331287,517.761438L1321.372058,517.786344L1321.402868,517.811251L1322.374659,518.496181L1323.264444,519.118845L1323.503726,518.857326L1325.271483,520.052841L1327.208112,521.235903L1328.299437,521.920833L1329.110687,522.306885L1330.043323,522.742749L1333.456733,524.262049L1339.166530,526.727797L1346.335519,529.592048L1347.474094,529.940739L1348.639768,530.214711L1349.712082,530.389057L1350.801535,530.488683L1357.926164,530.824921L1358.365373,530.849828L1368.383779,531.323052L1369.311538,531.360411L1369.780630,531.385318L1369.800552,531.385318L1369.810513,531.385318L1370.928457,531.447584L1372.704288,531.522304L1376.027311,531.684196L1376.077010,530.077725L1376.981133,530.015459L1377.886649,529.990552L1379.061574,529.978099L1380.456103,529.978099L1381.838350,529.915833L1383.218741,529.803753L1384.587314,529.641861L1386.858617,529.380342L1388.684463,529.193543L1390.533481,529.093917L1390.547580,528.670506L1390.571853,527.985577L1395.028478,527.026675L1396.817010,526.640624L1396.826971,526.640624L1398.882590,526.204759L1410.809746,523.639385L1414.485942,522.854829L1411.554434,514.760196L1410.266169,511.198555L1410.384306,511.161195L1412.055821,510.575890L1413.234403,510.127571L1414.401630,509.641893L1415.419908,509.168668L1416.417336,508.670536L1419.160821,512.257084L1419.485814,512.157458L1420.201808,511.858579L1420.875637,511.497434L1421.830435,510.924582L1422.949457,510.214744L1429.877807,505.557211L1431.129771,504.673026L1432.309221,503.714122L1433.417086,502.705404L1434.452438,501.621966L1434.863100,501.148741L1435.252911,500.650608L1436.218275,499.293197L1437.019416,498.072773L1437.441636,497.375387L1437.749901,496.827441L1438.047740,496.267042L1434.425323,494.486218L1434.924183,493.440139L1435.392230,492.369153L1435.957767,490.974381L1436.875741,488.346729L1437.207123,487.350463L1437.468780,486.354196L1444.202941,486.640623L1445.098657,483.950703L1447.688672,481.821182L1447.708128,481.808729L1449.950704,479.978088L1459.160684,472.406453L1461.277002,470.662984L1461.474619,470.887144L1461.588369,470.999224L1467.537079,466.254494L1467.798579,466.055241L1470.274592,464.075156L1464.082591,458.296792L1459.453095,453.016560L1455.663293,447.549523L1453.437024,443.676517L1451.554731,439.678976L1450.047224,435.581805L1448.875588,431.409912L1448.192944,427.262924L1447.998361,423.115933L1448.024261,422.742331L1448.282338,418.981394L1449.036308,414.896667L1451.727799,404.012353L1453.381573,397.349750L1464.117123,351.944284L1464.228938,351.471049L1468.070110,334.571583L1471.406190,325.754457L1475.546534,317.672083L1479.844834,311.420379L1482.149938,308.070361L1482.206907,307.995640L1482.442881,307.646939L1482.575343,307.460135L1482.622817,307.397867L1482.736289,307.235970L1482.735824,307.223516L1482.745319,307.211063L1482.802287,307.136341L1482.896770,306.999352L1485.419311,303.337991L1489.351274,296.613040L1491.988987,290.436043L1498.641577,278.156757L1503.262903,269.626005L1510.518395,256.960624L1515.794119,251.020217L1524.238696,244.594113L1534.210184,240.384762L1544.679611,237.507957L1554.623868,235.502910L1559.383836,235.751984L1568.913270,236.237678L1609.167220,252.153503L1627.142080,253.162251L1643.145865,247.010129L1661.884558,233.572584L1666.734666,226.386789L1672.556921,217.768808L1692.308125,199.735780L1697.260002,190.221100L1697.830822,182.860915L1694.797433,178.452273L1689.169830,174.977664L1682.173734,173.520569L1663.456621,173.682469L1596.962331,164.441743L1596.932454,164.441743L1596.882193,164.429289L1596.481966,164.379474L1596.441663,164.367020L1595.860309,164.267390L1595.830432,164.267390L1595.800088,164.254936L1595.188857,164.155306L1594.778205,164.093036L1594.737902,164.080583L1594.707559,164.068129L1587.423046,162.885016L1582.100833,161.178843L1577.228782,157.928396L1573.532624,153.631826L1571.473087,148.625384L1560.700094,107.951054L1558.713147,100.889692L1556.362392,93.952863L1553.993128,87.053390L1552.249091,81.959732L1551.822505,77.476315L1545.783608,13.724355L1543.727560,5.878311L1536.053927,0.398530L1528.191911,0.000000Z " data-cartodb-id="2" data-created-at="2013-12-05T20:49:58+0100" data-name="Länggasse-Felsenau" data-updated-at="2013-12-05T20:49:59+0100"/><path d="M1418.248662,536.677953L1418.207425,536.640593L1418.166652,536.615686L1418.115919,536.590780L1418.055224,536.565873L1417.994994,536.553420L1417.945189,536.553420L1417.885424,536.553420L1417.826122,536.565873L1417.777246,536.590780L1417.728370,536.615686L1417.689920,536.653046L1417.429751,536.354168L1417.475957,534.922044L1417.540180,532.904616L1416.606871,530.314337L1415.988226,528.682960L1416.551354,528.558427L1414.485942,522.854829L1410.809746,523.639385L1398.882590,526.204759L1396.826971,526.640624L1396.817010,526.640624L1395.028478,527.026675L1390.571853,527.985577L1390.547580,528.670506L1390.533481,529.093917L1388.684463,529.193543L1386.858617,529.380342L1384.587314,529.641861L1383.218741,529.803753L1381.838350,529.915833L1380.456103,529.978099L1379.061574,529.978099L1377.886649,529.990552L1376.981133,530.015459L1376.077010,530.077725L1376.027311,531.684196L1372.704288,531.522304L1370.928457,531.447584L1369.810513,531.385318L1369.800552,531.385318L1369.780630,531.385318L1369.311538,531.360411L1368.383779,531.323052L1358.365373,530.849828L1357.926164,530.824921L1350.801535,530.488683L1349.712082,530.389057L1348.639768,530.214711L1347.474094,529.940739L1346.335519,529.592048L1339.166530,526.727797L1333.456733,524.262049L1330.043323,522.742749L1329.110687,522.306885L1328.299437,521.920833L1327.208112,521.235903L1325.271483,520.052841L1323.503726,518.857326L1323.264444,519.118845L1322.374659,518.496181L1321.402868,517.811251L1321.372058,517.786344L1321.331287,517.761438L1321.249281,517.699171L1321.208510,517.674265L1320.318725,517.051600L1315.654604,513.776386L1314.713628,513.116362L1312.883335,511.846126L1311.430870,510.824956L1310.653907,510.289464L1309.549386,509.517360L1308.444867,508.745255L1308.014919,508.433923L1307.330387,507.973151L1306.225869,507.201046L1304.375202,505.918357L1302.565770,504.673026L1301.933363,504.274521L1300.965295,503.689215L1298.889692,501.983112L1298.610566,502.244632L1297.907044,501.808766L1296.163876,500.737781L1291.770173,498.035413L1289.709882,496.740268L1288.343152,495.880989L1286.246493,494.411498L1285.315494,493.751472L1284.763243,493.365419L1283.316129,492.219713L1281.858129,491.049101L1281.305415,490.650595L1280.251646,489.903395L1278.695432,488.770142L1276.945331,487.512356L1274.278373,485.706623L1272.847256,484.722810L1271.474288,483.963156L1271.453903,483.950703L1271.311209,483.863530L1270.904438,483.639370L1270.553259,483.303130L1270.172662,482.979343L1269.547911,482.518569L1268.885634,482.120063L1268.174945,481.758916L1267.129991,481.248329L1266.066044,480.762649L1264.396114,480.052808L1263.608066,480.289422L1262.062991,479.455048L1261.158417,478.969367L1260.755591,479.118808L1260.330990,479.218434L1259.895037,479.280701L1259.397931,479.305608L1258.908468,479.268248L1258.427112,479.181074L1257.963823,479.044087L1256.318453,478.458780L1255.237832,478.060273L1254.175279,477.611953L1253.141682,477.138726L1252.136114,476.615685L1250.376088,476.428885L1248.607955,476.291898L1244.732544,472.792507L1246.088117,472.817414L1247.434657,472.867227L1246.641275,472.157386L1245.497648,471.136211L1245.300983,470.936957L1245.143696,470.725250L1245.015828,470.501090L1244.916915,470.252023L1244.844177,469.903329L1244.831202,469.554635L1244.590061,469.230847L1244.265064,468.794980L1243.730660,468.085138L1243.615533,467.935698L1243.583798,467.885885L1243.237954,467.425110L1242.870798,466.926976L1242.797830,466.839802L1242.504569,466.453748L1242.189537,466.553375L1241.852729,466.603189L1241.514069,466.603189L1241.012332,466.503562L1240.538160,466.341668L1240.031789,466.117507L1239.563872,465.855987L1239.114485,465.557106L1238.902765,465.756360L1236.757072,467.786258L1234.961151,467.973058L1234.915981,468.097592L1234.840929,468.222125L1234.745493,468.334206L1234.639633,468.433833L1234.513388,468.521006L1233.985707,468.794980L1233.425828,469.006687L1232.823327,469.143674L1232.080450,469.255754L1230.931967,469.442555L1229.784874,469.666715L1228.423743,470.027862L1227.084386,470.438823L1226.152024,470.812424L1225.240510,471.210931L1224.360267,471.646799L1223.901382,471.895866L1223.059127,472.281920L1222.174714,472.605707L1220.915039,473.016667L1218.428348,473.913309L1216.005587,474.922030L1214.800807,475.469977L1213.635406,476.005471L1212.882793,476.391525L1211.231863,477.263259L1210.558935,477.649313L1209.017570,478.521047L1206.897088,479.890915L1206.644594,480.065262L1204.849107,481.335502L1202.852778,482.829903L1198.727143,485.993050L1196.846628,487.387823L1194.871833,488.658062L1192.814572,489.853582L1190.694303,490.961928L1188.511026,491.983100L1186.264278,492.904646L1183.963558,493.714112L1181.630176,494.448858L1180.190721,494.847364L1177.072752,495.644376L1170.855801,497.213494L1165.546899,498.558452L1164.638840,498.782612L1158.411908,500.351729L1140.324073,504.934546L1133.870316,506.565928L1133.451499,506.553475L1132.165630,506.528568L1118.817935,506.254596L1117.243203,506.229689L1111.910473,506.130063L1110.475192,506.105156L1110.433325,508.732802L1110.538027,515.843632L1110.733974,519.778869L1113.465565,519.841136L1113.538149,529.305623L1113.537900,529.567141L1113.539501,529.878473L1112.223734,529.853567L1112.215161,529.890926L1111.238065,529.866020L1107.788811,529.791300L1107.804534,530.214711L1108.561665,545.507305L1112.011622,545.868449L1112.951656,545.968075L1115.849846,545.955622L1113.195656,551.733923L1113.358020,552.082613L1115.185261,555.955567L1116.265430,556.341617L1115.853967,557.063904L1115.463350,557.811097L1115.112577,558.558290L1114.792612,559.330390L1114.313233,560.637978L1113.924427,561.970472L1113.615772,563.315419L1113.407652,564.685272L1112.952891,565.046415L1110.389037,567.088742L1109.586773,567.748762L1109.161431,568.097451L1105.053726,571.484722L1103.941949,572.393806L1102.296431,573.414968L1100.554494,575.058790L1099.169097,576.378829L1096.465082,578.134729L1094.525552,579.554392L1093.081767,580.911789L1091.056235,582.966565L1086.644287,586.478361L1086.697329,586.565534L1083.122616,589.554296L1083.852050,590.152048L1083.872435,590.164501L1084.088092,590.338845L1084.365365,590.563002L1084.514067,590.812066L1086.603545,594.236687L1090.056073,592.518150L1090.214736,592.767213L1090.563335,593.302699L1090.595068,593.352512L1090.637686,593.427231L1091.039327,594.049889L1090.057886,598.470762L1090.002904,599.404749L1092.025966,599.429655L1094.052265,599.541733L1096.070914,599.716078L1100.502251,600.214204L1108.564792,601.123284L1108.996363,601.210456L1109.399901,601.347441L1109.775404,601.534238L1109.706559,602.094630L1109.647213,602.642569L1104.937627,605.382262L1105.235752,605.631325L1105.038544,606.490592L1104.467176,607.735906L1103.681997,608.856689L1102.451837,609.529159L1101.420945,609.666143L1100.601465,610.936363L1099.553920,613.576428L1099.584388,614.933820L1100.233297,617.387087L1100.170458,618.109368L1094.003109,624.784242L1089.499717,629.055660L1084.920662,632.094218L1080.548060,634.522573L1076.630336,635.518822L1074.143823,636.427898L1076.855240,640.774028L1072.109001,642.529914L1069.876855,643.314459L1066.175692,644.509955L1063.517968,645.369218L1060.477288,646.377918L1057.510493,647.498695L1055.196997,648.507395L1050.993925,650.674230L1048.299052,652.143693L1045.688948,653.750140L1043.885525,655.082618L1042.538021,656.352831L1040.624292,657.934371L1037.456986,659.827236L1035.087788,661.483493L1033.155047,663.089938L1030.347136,666.078671L1028.126753,668.793436L1026.109752,671.620278L1024.245401,674.534289L1020.629688,680.723447L1020.771460,680.785712L1020.639846,680.997414L1020.508035,680.935149L1017.877132,685.206537L1015.490376,689.614905L1014.262758,691.433045L1012.542323,693.662134L1009.392056,697.360677L1006.895708,699.888636L1004.224464,702.267159L1002.784009,703.450193L1001.430439,704.558510L998.501827,706.712877L995.438628,708.730261L991.826598,710.722738L989.831767,711.731430L987.783894,712.652950L985.641286,713.437488L982.340253,714.682785L979.341111,715.741288L976.319735,716.737526L973.221240,717.534516L969.478452,718.418677L965.736582,719.327744L967.773930,723.499487L968.915704,725.815738L970.179980,728.480671L965.282767,727.783305L961.520305,728.405953L956.481517,729.265207L954.541434,729.601436L953.086256,729.850495L943.963623,731.531644L935.195067,736.587539L931.268739,740.049456L927.265466,743.586089L931.389141,748.143860L934.370071,750.895956L936.088604,752.377853L937.530786,753.660503L939.199791,754.880889L942.364857,756.686561L944.978048,758.654120L948.395588,762.165839L951.237365,764.656419L953.139851,766.262842L955.198966,767.794548L958.016313,769.625123L962.491536,772.912685L965.777489,775.291185L970.954801,779.512710L973.908330,781.791585L976.986776,785.290841L980.925212,788.877265L986.604303,793.733878L991.525237,796.411240L996.193434,798.988979L1000.274411,801.043697L1006.762610,804.343699L1014.376918,806.846718L1020.602834,813.820299L1026.488907,819.150103L1030.914840,823.521038L1036.263796,828.066310L1041.731061,833.383652L1048.274957,838.987403L1050.909654,840.992300L1054.523233,846.558689L1059.220777,849.385466L1064.451887,854.242041L1070.133447,858.886916L1070.600102,856.695233L1070.536168,854.702793L1069.980637,852.349222L1069.133024,847.492646L1068.911339,845.276054L1066.967132,844.429265L1065.247249,843.183988L1063.475115,841.067017L1063.580613,838.539103L1064.359599,836.173075L1065.815170,833.246671L1066.990601,830.556868L1071.721741,825.426317L1075.160392,821.441420L1076.725534,820.395384L1079.630251,819.473876L1081.516434,819.025575L1083.928975,818.801425L1088.412706,819.087839L1091.129863,819.287084L1095.973278,818.527463L1098.656446,818.079162L1103.480189,817.058031L1107.155225,816.223693L1110.663928,815.202562L1113.909241,813.795393L1117.492601,812.101810L1119.807198,811.118037L1124.179468,808.938793L1127.944235,807.033510L1130.605699,805.464454L1133.044497,804.069737L1133.665441,803.621434L1132.626425,802.737283L1130.747019,800.147093L1129.208136,798.142185L1127.756351,796.336523L1126.048577,794.344067L1125.323946,793.609349L1124.930569,790.795005L1124.910116,788.902170L1126.428026,784.170083L1126.786758,783.099137L1127.338143,780.508940L1127.317594,779.687050L1126.658516,776.424397L1125.879548,774.494201L1122.704676,771.356074L1122.600456,768.280211L1122.576880,767.645113L1122.535529,766.262842L1122.499009,765.279063L1122.452111,763.747357L1122.339268,761.244324L1122.242859,758.915631L1122.080342,754.806171L1121.889579,750.472557L1121.635943,744.445341L1124.388406,742.378155L1126.485431,740.634744L1132.855591,736.998487L1137.664362,737.994722L1144.361829,737.807928L1148.252833,737.160375L1149.282602,740.746821L1155.633329,739.538886L1158.294599,739.040768L1158.103506,738.455480L1159.081878,738.243780L1159.283858,738.853974L1160.421621,738.642274L1164.556582,737.857739L1167.206498,737.322263L1166.242019,733.885251L1169.773915,733.225245L1174.521875,732.316179L1182.395591,730.809373L1188.499531,729.663701L1186.303602,723.113446L1184.115495,717.845841L1183.776601,717.036398L1185.918751,714.632974L1187.235823,709.328004L1188.160523,707.136279L1188.575755,705.442672L1189.610445,699.241080L1190.377039,699.228627L1190.777819,694.197614L1191.789500,689.253768L1192.433515,684.334825L1193.328594,680.810618L1193.776231,679.453238L1194.456489,677.386035L1194.633991,676.265261L1194.825399,674.982599L1194.757890,671.558012L1194.213084,669.764774L1195.865104,669.453448L1195.441446,667.971535L1195.058560,666.514528L1194.870478,665.742439L1194.537401,664.285431L1196.240593,664.546946L1197.302539,664.708835L1200.829851,665.269223L1203.164328,665.630361L1206.320750,666.128483L1207.092423,666.253014L1207.563396,666.327732L1207.813825,666.365091L1208.435611,666.477169L1218.594271,669.901757L1218.813427,669.901757L1224.519347,670.113459L1238.622498,680.760806L1249.128251,688.693382L1252.459371,691.208891L1260.710176,697.435395L1265.572016,692.093055L1269.512218,694.645922L1269.887752,694.832717L1272.179877,695.928582L1280.471534,699.502593L1280.663587,699.577311L1282.210906,700.199961L1282.517867,699.614670L1283.922935,696.949728L1286.123330,698.257293L1287.762855,699.216174L1289.402845,700.187508L1291.664408,701.532432L1293.072480,699.216174L1293.166536,699.066738L1293.757517,698.082951L1295.658569,695.094230L1297.705795,692.018337L1298.073911,691.470404L1298.404736,691.794183L1300.482591,693.824023L1306.185402,698.232387L1315.191405,704.135108L1318.509650,706.301928L1321.757232,707.908364L1324.690201,709.091397L1326.810452,709.315551L1327.510562,709.390269L1330.854515,710.374055L1333.232862,711.108781L1336.194786,711.731430L1339.718524,712.727668L1341.669461,714.022778L1342.545879,714.284290L1345.537249,715.429964L1348.550865,716.637902L1350.529137,717.596781L1350.843520,717.746217L1352.797937,718.866984L1354.707186,720.112281L1358.218483,722.378721L1359.370150,723.076087L1360.541741,723.773453L1361.711014,724.408554L1361.843765,724.495724L1361.957057,724.595348L1362.061314,724.719878L1362.135686,724.844407L1362.180171,724.968937L1362.215159,725.105919L1362.210763,725.255355L1362.195941,725.392337L1362.140808,725.516867L1362.075713,725.641397L1360.515485,727.882929L1361.548076,728.592747L1361.630091,728.655012L1361.732029,728.717277L1361.833503,728.767089L1361.944012,728.791994L1363.161464,729.115771L1363.483492,729.202942L1364.037891,729.377283L1364.249875,729.452001L1364.573759,729.588983L1365.282689,729.900307L1365.941810,730.211631L1366.297436,730.398425L1366.571974,730.547861L1368.414511,731.606361L1368.444860,731.618814L1368.484708,731.618814L1368.515058,731.631267L1368.554905,731.631267L1368.584791,731.631267L1369.173252,731.917685L1369.780710,732.179197L1370.477361,732.428256L1371.202970,732.652409L1371.735591,732.776939L1372.287673,732.889015L1373.139541,733.025997L1373.998587,733.088262L1375.112933,733.050903L1375.667554,732.963733L1375.925173,732.926374L1376.181400,732.851656L1376.416311,732.739580L1376.630835,732.615050L1376.824507,732.465615L1376.997327,732.291274L1377.562154,732.478068L1377.642778,732.502974L1378.076244,732.639956L1379.312038,733.723362L1387.320103,734.756957L1393.465973,735.541492L1393.685600,735.553945L1394.967226,735.728286L1398.281339,736.176592L1399.262251,736.301122L1400.673384,736.475463L1405.656715,737.073204L1411.683984,737.882645L1417.369301,738.604916L1420.053034,738.978504L1421.385403,739.177751L1424.231314,739.626057L1425.194162,739.800398L1425.977231,739.962286L1426.029111,739.750586L1426.361069,739.302280L1426.652138,737.222639L1426.989628,736.388292L1424.727475,735.030922L1421.592351,733.237698L1416.319490,729.950119L1412.906126,727.907835L1408.416601,725.056108L1399.243888,718.966608L1394.203221,715.492229L1390.665473,713.051445L1386.628003,710.299337L1388.742000,706.077774L1390.884293,702.615843L1390.940351,702.516219L1392.696940,699.664482L1394.471157,697.285959L1397.677197,692.964766L1400.702086,689.129238L1401.870507,687.336003L1408.912330,688.108090L1413.169983,689.017161L1417.894662,689.627358L1418.074901,689.652264L1418.165021,689.664717L1421.594001,690.523975L1426.893124,692.914954L1429.971635,694.259879L1434.013697,696.065565L1440.215822,697.559925L1444.794485,699.863730L1448.046174,702.379236L1449.841035,703.761518L1449.851462,703.773971L1450.271970,704.097749L1450.748487,703.786424L1453.190659,705.430219L1455.950011,707.298167L1459.024894,709.078944L1463.589926,711.283122L1472.247373,715.305434L1475.536075,716.675261L1475.546036,716.675261L1479.148206,718.169618L1485.980049,721.320219L1491.079882,723.972700L1496.181381,726.936504L1498.854598,728.630106L1502.231863,730.236537L1502.698476,730.460690L1502.519887,730.747108L1502.925800,730.946355L1504.820019,731.519191L1506.171125,731.419567L1506.697713,731.382208L1508.127644,731.793156L1508.883619,732.029762L1509.611102,732.303727L1510.339516,732.602597L1511.039438,732.938827L1515.486427,735.180357L1516.687036,735.852816L1517.859618,736.575087L1518.994213,737.347169L1520.070896,738.169063L1520.061398,738.181516L1520.945551,738.916239L1521.800748,739.675868L1522.617027,740.460403L1523.394389,741.269844L1525.722092,743.847601L1526.845610,742.988349L1527.357326,742.552496L1527.911615,741.655885L1528.924754,739.974739L1529.628671,738.816616L1530.332121,737.646039L1531.270674,736.101875L1532.162204,734.632427L1533.372913,732.639956L1534.640137,730.560314L1535.325052,729.427095L1535.173298,729.364830L1537.464066,725.616491L1538.051819,725.616491L1543.050370,725.554226L1544.655829,725.330073L1545.146287,725.392337L1549.061386,725.927815L1549.772866,726.039891L1550.523264,726.127062L1550.777874,724.408554L1550.857033,723.860623L1552.145372,723.947794L1552.926120,724.047418L1552.976591,723.798359L1555.434977,722.939104L1557.589316,721.407390L1559.028599,720.734929L1559.831865,721.170783L1560.172234,721.482107L1564.786911,721.544372L1567.666395,723.424770L1569.786191,718.568113L1570.079389,717.883200L1571.318187,715.043922L1571.437458,714.769956L1572.711448,711.806148L1564.308657,712.740121L1555.726863,712.615591L1546.921850,711.581994L1539.125711,710.087636L1528.994467,707.684210L1524.759370,706.314381L1521.175715,704.782663L1518.797706,703.524911L1514.294661,700.847517L1510.048511,697.846344L1506.814551,695.007059L1503.174169,691.420592L1499.785367,687.634876L1497.404043,683.351036L1495.276619,678.930211L1493.405881,674.447118L1492.142403,670.487050L1492.007529,670.076100L1490.848462,665.443565L1490.115422,660.748763L1489.750961,656.053958L1489.804884,651.359149L1490.248233,646.689245L1490.830573,642.006884L1491.544266,637.374333L1493.008105,626.951084L1493.030553,626.751834L1493.078238,626.428053L1493.173143,625.768038L1493.188418,625.643507L1493.298598,624.858960L1493.377298,624.298570L1493.692097,622.057009L1496.010681,605.444527L1496.663633,600.787049L1496.686545,600.600252L1496.767101,600.089672L1498.339157,588.832012L1500.657603,572.219461L1501.063284,568.944269L1501.062820,568.931816L1501.101004,568.620486L1501.247962,567.487244L1503.938114,563.502217L1506.490857,559.305483L1510.506480,556.939371L1515.108740,555.345359L1519.183986,553.776252L1523.555806,552.680368L1522.330965,550.289348L1521.735016,549.268183L1521.615410,548.732694L1521.135935,547.362838L1515.160239,545.519758L1515.100008,545.507305L1515.015008,545.631837L1514.900126,545.756370L1514.774353,545.855996L1514.657146,545.918262L1514.529978,545.980528L1514.391918,546.017888L1514.252929,546.030341L1514.113475,546.030341L1513.973091,546.005435L1513.842203,545.968075L1513.710850,545.918262L1513.598490,545.843542L1511.179164,546.142420L1510.708475,546.341672L1510.215539,546.478658L1509.769618,546.540924L1509.321838,546.553377L1508.264576,546.516017L1506.726862,546.416391L1505.406895,546.279406L1505.399921,546.092607L1504.832144,546.092607L1499.364948,546.129967L1499.378429,546.491111L1498.386977,546.615643L1497.873189,546.727722L1494.028240,546.727722L1494.024256,546.354125L1490.009970,546.354125L1490.014619,546.478658L1489.791558,546.640550L1489.781132,546.628096L1489.352609,546.889614L1488.913660,547.138679L1487.875920,547.624356L1487.886346,547.636809L1487.177985,547.873420L1486.448306,548.072672L1485.815449,548.197204L1485.171237,548.284377L1485.032248,548.296830L1484.246722,548.334190L1483.459337,548.321737L1482.849391,548.259471L1482.248941,548.184751L1482.248477,548.172298L1481.777056,548.085125L1481.324162,547.960593L1480.780226,547.798701L1480.245321,547.611902L1480.236289,547.636809L1479.963159,547.524730L1479.860032,547.163586L1478.267928,547.474917L1476.467572,547.811154L1476.882603,549.056478L1475.381987,551.285606L1472.446796,551.908268L1469.796780,550.563319L1469.517085,549.741406L1469.371327,549.305542L1463.180596,550.775024L1461.861037,550.115003L1456.069408,551.335419L1455.733520,551.410139L1455.990704,551.895815L1456.215478,552.580742L1450.150079,563.552030L1448.787739,566.017766L1448.740256,566.080032L1448.692309,566.129845L1448.624439,566.179657L1448.546144,566.217017L1448.358741,566.266830L1448.160913,566.304190L1447.961691,566.304190L1447.761539,566.279283L1447.569956,566.217017L1447.387869,566.142298L1447.224310,566.030219L1447.090171,565.905687L1438.777827,556.964278L1437.933206,554.349101L1437.673910,553.539641L1436.311630,549.330449L1434.849011,549.641780L1433.672939,549.890844L1426.627388,551.410139L1417.358239,553.402655L1416.905139,553.539641L1416.473818,553.726439L1416.084664,553.975504L1415.746707,554.261928L1415.460413,554.598165L1415.245239,554.971762L1415.174119,554.934402L1414.443833,553.514735L1414.368998,553.377749L1414.143564,552.941886L1414.110431,552.854713L1413.885461,552.431304L1413.509429,551.696563L1414.418745,549.903298L1414.408784,549.903298L1414.622100,549.479888L1414.662873,549.504794L1415.367903,548.110032L1415.337556,548.097578L1415.578897,547.624356L1415.596961,547.574543L1415.605529,547.537183L1415.603672,547.487370L1415.591853,547.437557L1415.570074,547.387744L1415.901228,546.117514L1415.950104,546.092607L1415.998516,546.055247L1416.026542,546.005435L1416.055032,545.968075L1416.073096,545.918262L1416.599245,544.000463L1416.966991,542.643059L1416.975558,542.605699L1416.985984,542.618153L1417.749499,539.853532L1417.729112,539.841079L1418.072546,538.633113L1418.052624,538.633113L1418.192960,538.122530L1418.376599,537.437601L1418.116894,537.151176L1418.175731,537.126270L1418.214182,537.088910L1418.252632,537.051550L1418.281122,537.014190L1418.309147,536.964377L1418.317251,536.914564L1418.325354,536.864751L1418.313536,536.814938L1418.301717,536.765125L1418.280402,536.727766L1418.248662,536.677953Z " data-cartodb-id="3" data-created-at="2013-12-05T20:49:58+0100" data-name="Mattenhof-Weissenbühl" data-updated-at="2013-12-05T20:49:59+0100"/><path d="M1946.885300,649.117596L1946.987396,648.918346L1951.915543,640.089108L1967.461441,643.962019L1968.508662,644.260893L1969.528804,644.634486L1970.501946,645.082797L1971.437581,645.593373L1972.326215,646.178668L1973.156952,646.813776L1973.919829,647.498695L1974.615316,648.245880L1979.416669,653.812405L1981.534329,649.989311L1984.678977,644.335612L1987.440914,639.366829L1993.271828,641.844994L1995.837453,636.689413L1998.728722,630.126627L1998.872331,629.441706L1994.744512,626.689568L1991.441355,624.410648L1988.585864,622.380790L1987.069005,621.247556L1984.538368,619.379587L1981.366740,616.888962L1980.638431,616.328571L1976.154942,612.592631L1973.602201,610.400878L1970.436021,607.524203L1968.814093,605.980013L1967.237764,604.323744L1964.443581,601.272722L1960.226438,597.200540L1958.159493,594.946517L1956.331622,592.692494L1950.113975,601.397253L1949.915544,601.683676L1944.209438,595.892958L1938.707813,591.833226L1936.147227,590.226767L1930.757141,584.361321L1928.980049,582.132202L1926.561563,580.064973L1924.268081,578.408699L1921.616325,577.026395L1917.212668,575.942967L1915.701990,575.768622L1914.233638,575.395026L1910.643530,574.224426L1907.032715,572.767402L1903.817867,571.509629L1902.541907,571.484722L1901.664218,570.924328L1898.803862,567.698949L1897.883967,566.279283L1893.987175,562.244443L1893.441773,561.248185L1891.175347,567.213274L1876.094842,560.326647L1875.671337,560.189662L1875.549935,560.139849L1875.073822,559.928144L1876.590442,555.482344L1877.059783,552.593196L1876.968357,544.050276L1877.239556,540.924511L1879.132783,530.588309L1878.870996,530.513590L1878.306175,530.326791L1877.983220,530.214711L1873.172519,528.633146L1873.477846,527.213474L1875.806220,516.528562L1879.204564,500.912128L1879.386636,500.189836L1877.037246,498.633172L1875.239120,496.902161L1872.628272,495.544750L1871.191690,493.626939L1869.347143,490.127555L1868.270725,488.782596L1865.272486,486.391556L1863.144869,483.577103L1860.612906,480.339235L1858.740411,478.483687L1854.042142,473.788775L1848.149386,468.583273L1847.634704,468.670446L1842.360799,464.560837L1837.538725,460.812373L1837.670851,460.351599L1835.644943,458.919461L1832.832457,456.964281L1831.183036,455.743850L1829.647395,455.432515L1826.542481,453.116187L1825.506891,452.593145L1823.028885,451.322899L1818.422121,448.533341L1817.513220,447.935578L1809.415792,448.745048L1808.863136,447.288002L1808.631553,446.690239L1808.564319,446.490985L1808.488059,446.316637L1808.377247,446.017756L1808.189709,445.532073L1807.980381,444.996577L1807.881243,445.009031L1807.781171,444.996577L1807.681099,444.984124L1807.580561,444.959217L1807.489048,444.909404L1807.407497,444.859590L1807.335439,444.797323L1807.272874,444.722603L1807.230231,444.647882L1807.197081,444.560708L1806.129279,440.787329L1806.078231,440.488447L1806.086479,440.177112L1806.154957,439.878230L1806.545903,438.881958L1807.337755,436.889413L1808.562267,436.341463L1807.842465,435.208203L1806.899486,433.701340L1805.584703,431.310285L1807.092618,431.148391L1808.133793,431.023856L1810.285400,430.762335L1812.426579,430.488360L1813.666028,430.338919L1815.539675,430.102304L1817.195594,429.903049L1819.158884,429.666434L1819.624689,429.604167L1822.103585,429.305285L1822.361155,429.267925L1822.951899,426.428545L1824.625552,425.905501L1827.362316,425.046215L1827.517946,424.946587L1830.524243,423.041213L1832.004262,421.073571L1832.249218,420.699968L1832.400644,420.488260L1832.494642,420.338819L1833.014120,419.317637L1833.747271,417.885492L1833.588509,416.839403L1833.348497,415.220456L1833.085475,414.846853L1831.980316,413.265266L1831.864679,413.103371L1830.739134,411.509330L1830.580538,410.998739L1830.512368,410.774577L1829.866624,408.694851L1829.854795,408.645037L1828.948669,405.730929L1828.043011,402.829274L1827.181400,400.039699L1826.388427,397.486738L1826.229833,396.976146L1825.868599,395.842881L1825.777240,395.531544L1824.281725,390.712050L1826.638864,390.089376L1827.536369,389.852760L1828.148297,389.703318L1828.379552,389.230086L1829.166666,386.315971L1829.201368,386.178983L1829.238090,385.830285L1829.581345,382.766727L1829.626158,382.368216L1829.662681,379.889971L1828.859629,379.192575L1828.190263,378.607261L1827.510470,378.009493L1826.450007,377.087934L1828.960702,374.983293L1829.057968,374.921025L1829.155701,374.871211L1829.263861,374.833851L1829.382449,374.808944L1829.501503,374.796490L1829.621492,374.808944L1829.731988,374.833851L1829.832991,374.871211L1829.934461,374.921025L1830.036865,374.995746L1830.119349,375.070467L1830.192807,375.170095L1830.251634,375.145188L1830.585140,375.008200L1831.281566,374.721769L1830.303570,373.077907L1829.279044,371.521219L1828.888564,370.935904L1828.688110,370.637020L1829.010104,370.724194L1829.221136,370.774008L1832.156384,369.366762L1836.903414,367.137583L1835.609158,364.497438L1834.993780,363.227180L1834.128615,361.670490L1833.220341,360.026625L1831.854353,357.598187L1831.587600,357.124953L1829.887645,354.821050L1827.285052,351.819748L1824.882449,349.104877L1820.332831,345.443536L1821.150272,342.541859L1819.701689,341.097247L1817.775180,339.391110L1822.463939,336.937760L1823.105547,335.455786L1828.204515,333.052249L1829.505827,332.429570L1831.483161,331.508006L1834.921628,329.976218L1837.854789,328.780675L1840.499896,327.871564L1842.027795,327.448143L1843.190915,327.124350L1845.957258,326.526578L1847.966034,326.177878L1849.173198,325.966168L1853.085861,325.393303L1857.277866,324.832892L1861.002688,324.297388L1864.715680,323.712070L1868.405944,323.052031L1872.062119,322.279909L1875.705994,321.445519L1879.306754,320.523954L1882.884785,319.527667L1886.419700,318.444205L1889.900136,317.236207L1889.823871,317.061857L1889.486593,316.302188L1888.964568,315.131550L1888.594606,314.297160L1886.951335,310.585988L1888.639692,308.070361L1889.167844,304.894692L1888.826267,302.428878L1894.531050,294.944255L1887.199978,290.946642L1889.460731,284.047329L1891.711505,277.148011L1887.163963,276.724587L1882.445565,276.525329L1881.442967,269.451653L1880.497042,262.826304L1880.483342,262.726675L1877.496273,255.055211L1874.681429,249.052535L1871.940515,245.814575L1868.386769,241.617679L1866.099744,240.123235L1863.642477,238.603883L1854.570474,234.917585L1854.490331,234.905132L1844.862752,233.398232L1835.163601,231.841518L1827.758891,235.428187L1825.930732,236.075780L1824.156869,236.312401L1820.539252,236.250132L1818.083620,236.100688L1815.668762,235.976151L1810.830189,236.287493L1809.683789,237.321151L1808.723984,238.815596L1807.666899,239.575272L1804.817892,240.621383L1803.170243,241.567864L1799.683554,244.731103L1798.234213,248.840822L1798.334937,250.995310L1798.330927,253.012807L1797.440669,254.768776L1797.124766,254.843498L1793.472895,255.727710L1790.153259,256.176042L1788.917645,255.628080L1785.453438,255.939422L1779.659162,256.263218L1779.530155,256.275672L1769.406272,256.674189L1768.684828,256.823633L1767.598147,257.060253L1764.697428,258.056547L1754.486984,263.585978L1744.036533,267.496429L1741.334352,268.741795L1733.193206,283.250296L1733.403760,283.287657L1732.897041,284.383577L1732.461599,285.255332L1731.976359,286.127086L1728.142977,292.802232L1727.712358,293.536996L1727.487788,293.923058L1727.282672,294.296667L1727.245166,294.358935L1727.020596,294.744997L1726.515430,295.616750L1724.832319,298.543351L1724.317658,299.427557L1724.121566,299.776259L1724.056514,299.900795L1724.037527,299.925702L1723.906488,300.149867L1723.719890,300.486114L1723.242734,301.308053L1723.504954,301.395228L1722.411508,303.313084L1717.913354,311.121493L1717.793673,311.383019L1717.733751,311.644544L1717.714601,311.930977L1716.069734,315.081736L1715.856052,315.492705L1715.837531,315.530065L1715.651863,315.891219L1715.474754,316.215013L1712.073874,322.740691L1711.352538,323.425638L1710.693293,324.172853L1710.074353,324.932521L1709.485759,325.704642L1708.907590,326.489218L1708.380154,327.298700L1708.445181,327.971193L1706.762471,330.910235L1706.671433,330.872875L1704.726630,334.260244L1699.078315,344.073646L1690.802757,358.469934L1690.650558,358.395213L1688.434100,362.243351L1687.847090,361.994281L1676.938800,381.097960L1676.312957,382.206320L1675.255516,384.024530L1674.573173,385.220064L1674.489125,385.369506L1674.405543,385.531401L1674.339551,385.631029L1672.937351,388.084366L1670.627737,392.106839L1669.870367,393.426907L1666.766318,398.844166L1659.267988,411.932747L1656.248388,417.213006L1654.256843,420.687515L1650.835008,426.665160L1642.476438,441.260558L1642.420402,441.360185L1642.336349,441.509626L1642.326388,441.509626L1642.261324,441.634160L1642.205288,441.733787L1642.037181,442.032669L1641.976486,442.007762L1641.676852,442.518351L1640.760823,444.124840L1639.928380,445.569433L1639.095936,447.014027L1638.263490,448.458620L1637.758232,449.330358L1637.393530,449.965480L1637.150861,450.401349L1632.868431,457.873377L1632.396954,458.583220L1632.255465,458.794927L1632.028988,459.131168L1631.859014,459.380236L1630.537664,461.335415L1630.456582,461.298055L1628.009932,465.656733L1627.555864,466.565828L1627.182412,467.499831L1626.909497,468.458739L1626.716732,469.430101L1626.614078,470.413916L1626.611497,471.410185L1626.688600,472.406453L1626.864844,473.390268L1627.120773,474.374083L1627.475377,475.332990L1627.918230,476.254538L1628.450264,477.163632L1637.447811,490.027928L1638.261368,491.273261L1639.006132,492.543500L1639.682103,493.838645L1640.279787,495.171150L1640.798251,496.516108L1641.237495,497.873520L1645.786507,513.502414L1645.914066,514.249611L1645.932055,514.996808L1645.840475,515.744005L1645.648820,516.478749L1645.356159,517.176133L1644.972452,517.836157L1644.487739,518.458821L1643.931437,519.031672L1643.082542,519.504897L1642.602844,519.729056L1642.112253,519.928309L1640.242117,519.729056L1639.512179,519.654336L1638.650886,519.529804L1637.881104,519.455084L1637.918332,519.118845L1637.228238,519.044126L1636.862660,518.857326L1636.515607,518.633167L1636.216960,518.371648L1635.985352,518.570901L1635.571081,518.147489L1635.235100,517.686718L1634.957953,517.201040L1634.759562,516.690455L1634.608180,516.105151L1634.610689,515.905898L1634.615960,514.448864L1634.555623,513.900919L1634.560828,509.778879L1633.713300,508.956962L1633.796607,508.521096L1633.749957,508.072777L1633.516560,507.425206L1632.517113,506.802541L1631.789222,506.516115L1631.647908,506.466302L1631.507525,506.441395L1631.357647,506.428942L1631.208235,506.428942L1631.069715,506.453848L1630.932127,506.503662L1630.804965,506.565928L1630.698657,506.653101L1630.181732,507.213500L1630.125227,507.300673L1629.879647,507.126327L1628.919608,507.823711L1628.169107,507.998058L1624.680597,508.471283L1625.377210,513.514867L1625.265235,519.044126L1625.266632,519.081485L1625.259931,519.168658L1625.260397,519.181112L1625.245701,519.853589L1625.157059,523.875997L1625.083759,526.976862L1624.546918,533.664265L1623.540564,538.184796L1619.409431,542.518527L1615.935406,545.245787L1615.790181,545.357866L1612.296027,547.014147L1592.534587,556.640494L1586.090895,557.736378L1567.307712,555.694049L1567.237519,555.681596L1539.502962,552.667915L1539.422808,552.655462L1539.232618,552.630555L1537.152351,552.406397L1535.012123,552.443757L1525.593634,552.568289L1523.555806,552.680368L1519.183986,553.776252L1515.108740,555.345359L1510.506480,556.939371L1506.490857,559.305483L1503.938114,563.502217L1501.247962,567.487244L1501.101004,568.620486L1501.062820,568.931816L1501.063284,568.944269L1500.657603,572.219461L1498.339157,588.832012L1496.767101,600.089672L1496.686545,600.600252L1496.663633,600.787049L1496.010681,605.444527L1493.692097,622.057009L1493.377298,624.298570L1493.298598,624.858960L1493.188418,625.643507L1493.173143,625.768038L1493.078238,626.428053L1493.030553,626.751834L1493.008105,626.951084L1491.544266,637.374333L1490.830573,642.006884L1490.248233,646.689245L1489.804884,651.359149L1489.750961,656.053958L1490.115422,660.748763L1490.848462,665.443565L1492.007529,670.076100L1492.142403,670.487050L1493.405881,674.447118L1495.276619,678.930211L1497.404043,683.351036L1499.785367,687.634876L1503.174169,691.420592L1506.814551,695.007059L1510.048511,697.846344L1514.294661,700.847517L1518.797706,703.524911L1521.175715,704.782663L1524.759370,706.314381L1528.994467,707.684210L1539.125711,710.087636L1546.921850,711.581994L1555.726863,712.615591L1564.308657,712.740121L1572.711448,711.806148L1578.402866,710.025371L1583.550671,707.559680L1609.447873,693.338356L1616.518767,690.088120L1624.449417,688.519040L1632.575016,688.967348L1635.908195,689.926231L1640.379158,691.208891L1647.446629,694.795358L1653.128343,699.950901L1656.903675,706.339287L1660.665643,714.234478L1665.832127,725.056108L1668.774428,730.211631L1672.616475,734.918845L1680.612096,742.540043L1691.022813,751.605772L1700.791053,758.940537L1727.553780,779.027048L1742.693028,790.384060L1758.489580,805.190491L1762.451626,802.450868L1763.519968,801.716151L1754.407576,781.841397L1741.331431,765.453404L1741.515981,763.996415L1741.334368,761.007719L1740.179390,758.629214L1742.308700,757.496000L1748.735014,754.855983L1755.925124,752.128795L1758.035255,751.281996L1758.150899,751.443884L1787.643891,725.790832L1787.512219,725.467055L1787.252940,724.396101L1786.655318,722.005132L1786.055830,719.564350L1785.352226,716.737526L1785.199699,716.388843L1791.162709,714.682785L1797.765763,712.777480L1800.684140,711.968036L1797.900852,708.406483L1796.010983,706.090227L1795.509488,705.467578L1794.537784,704.259638L1794.114939,702.279612L1793.725713,700.399209L1794.656685,699.988260L1799.938362,697.647096L1801.173013,697.099164L1803.729637,695.941035L1803.915644,695.853864L1806.873697,694.508939L1804.119509,691.457951L1813.580635,685.542768L1813.639471,685.517862L1813.698308,685.492956L1813.767573,685.480503L1813.836839,685.468050L1813.907037,685.480503L1813.977236,685.492956L1814.047434,685.505409L1814.108605,685.542768L1814.159813,685.580127L1814.211022,685.617486L1814.636720,686.078248L1814.892312,685.455597L1814.937921,685.343520L1814.974500,685.256349L1815.221064,684.658604L1817.800124,680.910243L1818.234558,680.275138L1818.970336,679.440785L1821.379392,676.738477L1825.188068,672.840676L1825.485676,672.541803L1825.754333,672.267836L1826.147356,671.856885L1826.617738,671.383670L1821.707782,668.756077L1811.625639,663.413717L1811.599810,662.990314L1811.915941,662.654081L1819.432457,660.674045L1825.216568,659.515910L1829.017854,658.345322L1832.560292,656.913219L1834.709036,656.303019L1836.809681,656.004145L1842.776963,656.278113L1848.495519,656.826048L1851.593720,657.361530L1858.420358,659.565722L1860.831217,660.101204L1867.449440,660.200828L1880.913147,661.147261L1884.175888,661.819726L1891.888524,663.475983L1898.185372,664.833366L1899.731607,665.157145L1902.393394,665.742439L1904.743100,666.240561L1904.894394,666.290373L1904.583226,665.431112L1903.768647,663.102391L1903.076730,661.122355L1902.430736,659.304208L1909.502074,660.063845L1915.049589,660.300453L1922.169955,660.773669L1930.976813,661.857085L1939.018221,663.513342L1939.811732,663.687685L1940.600926,661.358963L1941.133492,659.889502L1941.554790,658.905710L1942.117562,657.710215L1942.741039,656.539627L1946.763749,649.329298L1946.875806,649.130049L1946.885300,649.117596Z " data-cartodb-id="4" data-created-at="2013-12-05T20:49:58+0100" data-name="Kirchenfeld-Schosshalde" data-updated-at="2013-12-05T20:49:59+0100"/><path d="M1634.615960,514.448864L1634.610689,515.905898L1634.608180,516.105151L1634.759562,516.690455L1634.957953,517.201040L1635.235100,517.686718L1635.571081,518.147489L1635.985352,518.570901L1636.216960,518.371648L1636.515607,518.633167L1636.862660,518.857326L1637.228238,519.044126L1637.918332,519.118845L1637.881104,519.455084L1638.650886,519.529804L1639.512179,519.654336L1640.242117,519.729056L1642.112253,519.928309L1642.602844,519.729056L1643.082542,519.504897L1643.931437,519.031672L1644.487739,518.458821L1644.972452,517.836157L1645.356159,517.176133L1645.648820,516.478749L1645.840475,515.744005L1645.932055,514.996808L1645.914066,514.249611L1645.786507,513.502414L1641.237495,497.873520L1640.798251,496.516108L1640.279787,495.171150L1639.682103,493.838645L1639.006132,492.543500L1638.261368,491.273261L1637.447811,490.027928L1628.450264,477.163632L1627.918230,476.254538L1627.475377,475.332990L1627.120773,474.374083L1626.864844,473.390268L1626.688600,472.406453L1626.611497,471.410185L1626.614078,470.413916L1626.716732,469.430101L1626.909497,468.458739L1627.182412,467.499831L1627.555864,466.565828L1628.009932,465.656733L1630.456582,461.298055L1630.537664,461.335415L1631.859014,459.380236L1632.028988,459.131168L1632.255465,458.794927L1632.396954,458.583220L1632.868431,457.873377L1637.150861,450.401349L1637.393530,449.965480L1637.758232,449.330358L1638.263490,448.458620L1639.095936,447.014027L1639.928380,445.569433L1640.760823,444.124840L1641.676852,442.518351L1641.976486,442.007762L1642.037181,442.032669L1642.205288,441.733787L1642.261324,441.634160L1642.326388,441.509626L1642.336349,441.509626L1642.420402,441.360185L1642.476438,441.260558L1650.835008,426.665160L1654.256843,420.687515L1656.248388,417.213006L1659.267988,411.932747L1666.766318,398.844166L1669.870367,393.426907L1670.627737,392.106839L1672.937351,388.084366L1674.339551,385.631029L1674.405543,385.531401L1674.489125,385.369506L1674.573173,385.220064L1675.255516,384.024530L1676.312957,382.206320L1676.938800,381.097960L1687.847090,361.994281L1688.434100,362.243351L1690.650558,358.395213L1690.802757,358.469934L1699.078315,344.073646L1704.726630,334.260244L1706.671433,330.872875L1706.762471,330.910235L1708.445181,327.971193L1708.380154,327.298700L1708.907590,326.489218L1709.485759,325.704642L1710.074353,324.932521L1710.693293,324.172853L1711.352538,323.425638L1712.073874,322.740691L1715.474754,316.215013L1715.651863,315.891219L1715.837531,315.530065L1715.856052,315.492705L1716.069734,315.081736L1717.714601,311.930977L1717.733751,311.644544L1717.793673,311.383019L1717.913354,311.121493L1722.411508,303.313084L1723.504954,301.395228L1723.242734,301.308053L1723.719890,300.486114L1723.906488,300.149867L1724.037527,299.925702L1724.056514,299.900795L1724.121566,299.776259L1724.317658,299.427557L1724.832319,298.543351L1726.515430,295.616750L1727.020596,294.744997L1727.245166,294.358935L1727.282672,294.296667L1727.487788,293.923058L1727.712358,293.536996L1728.142977,292.802232L1731.976359,286.127086L1732.461599,285.255332L1732.897041,284.383577L1733.403760,283.287657L1733.193206,283.250296L1734.678255,276.101905L1733.770060,276.052090L1733.476257,275.653573L1734.093272,267.135272L1734.280503,265.752916L1734.669259,264.432827L1735.199782,263.175007L1735.870204,261.929640L1736.966247,260.348024L1737.826991,258.866036L1738.510637,257.707844L1737.145095,257.147429L1737.674839,255.603173L1738.006791,254.096277L1738.108740,252.564474L1737.971660,251.032671L1737.595551,249.500868L1737.023519,248.056240L1736.213860,246.648972L1736.035681,246.412352L1735.248583,245.341334L1733.673764,243.448373L1733.454348,243.174391L1733.371405,243.087215L1732.976144,242.638882L1732.736809,242.364901L1732.361934,241.929021L1731.966674,241.480688L1731.685168,241.144438L1730.830850,239.874161L1730.573156,239.376012L1730.364793,238.865411L1730.229879,238.454438L1730.052488,237.707216L1729.975157,236.972447L1729.537159,232.725732L1728.613574,222.164976L1728.137593,218.765107L1727.190565,215.552043L1725.844961,215.788664L1725.438506,215.041440L1724.293524,212.924304L1723.180904,211.404947L1722.826887,210.993973L1721.870498,209.922951L1721.199810,209.300264L1719.467383,207.718638L1717.724532,206.124557L1717.043888,205.501870L1716.559002,205.053535L1715.799778,204.194225L1714.920736,203.060934L1714.210536,201.915188L1713.532242,200.557728L1713.178550,199.623696L1712.804634,198.415681L1712.717188,197.942438L1712.576841,197.120489L1712.435254,195.999650L1711.939701,192.076712L1711.445709,187.929605L1710.804953,184.915789L1709.317217,181.092477L1707.824016,178.452273L1705.082108,179.697652L1702.408511,180.905670L1701.135747,181.490998L1697.830822,182.860915L1697.260002,190.221100L1692.308125,199.735780L1672.556921,217.768808L1666.734666,226.386789L1661.884558,233.572584L1643.145865,247.010129L1627.142080,253.162251L1609.167220,252.153503L1568.913270,236.237678L1559.383836,235.751984L1554.623868,235.502910L1544.679611,237.507957L1534.210184,240.384762L1524.238696,244.594113L1515.794119,251.020217L1510.518395,256.960624L1503.262903,269.626005L1498.641577,278.156757L1491.988987,290.436043L1489.351274,296.613040L1485.419311,303.337991L1482.896770,306.999352L1482.802287,307.136341L1482.745319,307.211063L1482.735824,307.223516L1482.736289,307.235970L1482.622817,307.397867L1482.575343,307.460135L1482.442881,307.646939L1482.206907,307.995640L1482.149938,308.070361L1479.844834,311.420379L1475.546534,317.672083L1471.406190,325.754457L1468.070110,334.571583L1464.228938,351.471049L1464.117123,351.944284L1453.381573,397.349750L1451.727799,404.012353L1449.036308,414.896667L1448.282338,418.981394L1448.024261,422.742331L1447.998361,423.115933L1448.192944,427.262924L1448.875588,431.409912L1450.047224,435.581805L1451.554731,439.678976L1453.437024,443.676517L1455.663293,447.549523L1459.453095,453.016560L1464.082591,458.296792L1470.274592,464.075156L1471.067586,464.772544L1471.252919,464.934438L1483.318152,475.420164L1487.703643,479.230888L1492.698611,483.091423L1500.073811,487.474996L1500.287636,487.599529L1508.342180,491.235901L1523.088823,496.964428L1523.200252,497.014241L1525.069968,497.736533L1525.322707,497.836160L1528.577515,499.106398L1533.416554,500.389089L1538.474929,501.410260L1543.574274,502.194819L1548.720361,502.630684L1553.883305,502.717857L1559.009112,502.344258L1560.595858,502.157459L1564.076737,501.746499L1568.483690,501.061568L1585.735755,498.396559L1590.374583,497.786347L1592.237896,497.537280L1596.983593,497.387841L1600.266919,497.288214L1606.828831,497.761440L1611.608701,498.259573L1615.947141,499.206024L1619.721287,501.310634L1622.371087,503.714122L1624.418614,507.325579L1624.490022,507.636912L1624.491419,507.674272L1624.526424,507.811258L1624.597832,508.122591L1624.669239,508.433923L1624.680597,508.471283L1628.169107,507.998058L1628.919608,507.823711L1629.879647,507.126327L1630.125227,507.300673L1630.181732,507.213500L1630.698657,506.653101L1630.804965,506.565928L1630.932127,506.503662L1631.069715,506.453848L1631.208235,506.428942L1631.357647,506.428942L1631.507525,506.441395L1631.647908,506.466302L1631.789222,506.516115L1632.517113,506.802541L1633.516560,507.425206L1633.749957,508.072777L1633.796607,508.521096L1633.713300,508.956962L1634.560828,509.778879L1634.555623,513.900919L1634.615960,514.448864Z " data-cartodb-id="5" data-created-at="2013-12-05T20:49:58+0100" data-name="Breitenrain-Lorraine" data-updated-at="2013-12-05T20:49:59+0100"/><path d="M333.522116,885.784800L370.989116,883.269354L411.476436,880.529758L451.907075,877.877330L443.849173,817.244823L461.776268,815.750486L462.074222,815.725580L462.689598,815.663316L491.044134,813.272375L505.407578,810.233887L507.801623,810.047094L515.232814,809.486717L519.878801,809.312378L525.834437,809.262566L535.298725,808.453133L544.579124,805.626341L551.054109,804.530491L558.337552,801.853132L565.575812,800.383697L569.685843,799.723696L574.825982,798.901809L576.731397,798.702563L577.887938,798.727469L581.049648,798.827092L584.918221,798.914262L588.528694,799.026337L594.293961,798.677658L594.220476,797.494638L593.997265,793.870859L593.746248,788.951982L595.215743,789.088963L596.034022,789.126322L600.783572,788.790095L605.759037,788.366698L611.059308,787.295752L615.634168,786.274617L622.555971,785.141406L625.568410,784.705556L628.790514,784.282159L630.150743,784.157630L635.101177,784.406687L638.733387,784.568575L643.820539,784.742915L648.409439,784.643292L652.824388,784.419140L659.604826,784.045554L659.251813,780.957243L658.768340,774.332313L658.213327,771.169281L657.453444,766.773411L659.612177,766.150766L661.565380,765.627744L668.024982,764.930382L673.809454,764.295285L678.445211,763.846980L685.121686,762.277915L686.540601,761.854516L689.773238,760.908096L694.393047,760.297904L696.427149,760.347715L701.898178,759.588088L705.750441,758.965443L711.126751,757.259394L716.403432,755.553346L716.471787,755.515987L716.658307,755.441270L716.863833,755.341646L724.075590,751.543508L732.923988,745.665728L735.298916,743.884960L736.946771,742.378155L736.131079,738.094345L735.767234,737.683398L730.347737,731.743344L726.025156,726.911598L727.215213,725.417243L732.013430,719.390009L735.632514,720.548135L742.766004,721.917961L745.565003,722.988916L748.890619,724.831954L750.832915,726.712351L758.616602,722.490797L758.553434,721.320219L768.274187,719.377556L775.999489,717.621687L782.153890,716.488467L782.233125,716.476014L782.519718,716.413749L782.549603,716.413749L782.806771,716.363937L782.907012,716.650355L783.552911,718.493395L783.628599,717.845841L784.201622,717.447346L789.829747,716.899415L793.332476,716.525826L795.096941,716.289219L796.266457,716.127331L799.857293,715.442417L799.925749,717.833388L799.930978,718.244336L800.017749,722.478344L800.120169,727.135751L800.217360,731.382208L805.813629,730.510502L811.200232,729.626342L817.665353,729.352377L822.476334,729.065959L825.219838,728.904071L830.766156,728.567841L831.366786,725.952721L831.538394,725.205543L832.768150,719.937940L833.446916,717.011492L838.102960,717.385081L840.391135,717.571875L844.720571,717.733764L847.428988,717.970370L848.079445,718.319054L850.053331,719.165856L851.579224,719.751145L852.289741,719.838316L854.432465,719.863222L857.146529,719.713786L859.568301,719.203214L860.421108,720.174546L858.718379,728.542935L858.685902,728.742183L858.625843,729.003695L856.952460,736.550181L856.927181,736.674710L856.815640,737.160375L856.399192,738.829069L856.559217,739.115486L859.687213,744.769118L855.646436,746.487621L855.110790,746.549886L852.249196,750.522368L859.255134,757.595623L861.066211,759.426200L861.402502,759.899411L862.003795,760.534509L862.870553,761.343947L864.046308,762.427350L865.868564,764.021321L866.239638,764.357549L866.260022,764.370002L866.569020,764.643966L866.940094,764.980194L867.269938,765.279063L867.393629,765.391139L867.548128,765.528121L867.766085,765.764726L869.189862,767.358697L869.359391,767.632660L869.483717,768.031153L869.514929,769.413424L869.713423,769.662481L870.612550,770.808147L871.295102,771.754566L872.043876,772.875326L872.568244,773.585140L872.964773,774.070803L873.645944,774.979863L873.918955,775.627413L874.054745,777.682137L874.234183,779.301011L874.359317,780.259882L874.839865,781.131583L875.824225,782.426682L876.315483,783.049325L878.472775,780.234977L879.859985,778.416857L881.078009,776.872700L881.638766,776.411944L883.631070,774.793070L885.606847,773.535329L888.050667,772.003624L891.489245,769.625123L893.529677,768.230399L896.908319,771.231545L898.773118,769.936445L901.512382,768.043606L905.058393,765.876802L910.169319,761.580552L910.574820,761.231871L913.377160,758.890725L914.706570,757.396376L914.486506,756.026556L914.242315,752.390306L915.530949,750.871050L919.755430,749.003112L921.422333,747.745367L927.265466,743.586089L931.268739,740.049456L935.195067,736.587539L943.963623,731.531644L953.086256,729.850495L954.541434,729.601436L956.481517,729.265207L961.520305,728.405953L965.282767,727.783305L970.179980,728.480671L968.915704,725.815738L967.773930,723.499487L965.736582,719.327744L969.478452,718.418677L973.221240,717.534516L976.319735,716.737526L979.341111,715.741288L982.340253,714.682785L985.641286,713.437488L987.783894,712.652950L989.831767,711.731430L991.826598,710.722738L995.438628,708.730261L998.501827,706.712877L1001.430439,704.558510L1002.784009,703.450193L1004.224464,702.267159L1006.895708,699.888636L1009.392056,697.360677L1012.542323,693.662134L1014.262758,691.433045L1015.490376,689.614905L1017.877132,685.206537L1020.508035,680.935149L1020.639846,680.997414L1020.771460,680.785712L1020.629688,680.723447L1024.245401,674.534289L1026.109752,671.620278L1028.126753,668.793436L1030.347136,666.078671L1033.155047,663.089938L1035.087788,661.483493L1037.456986,659.827236L1040.624292,657.934371L1042.538021,656.352831L1043.885525,655.082618L1045.688948,653.750140L1048.299052,652.143693L1050.993925,650.674230L1055.196997,648.507395L1057.510493,647.498695L1060.477288,646.377918L1063.517968,645.369218L1066.175692,644.509955L1069.876855,643.314459L1072.109001,642.529914L1076.855240,640.774028L1074.143823,636.427898L1076.630336,635.518822L1080.548060,634.522573L1084.920662,632.094218L1089.499717,629.055660L1094.003109,624.784242L1100.170458,618.109368L1100.233297,617.387087L1099.584388,614.933820L1099.553920,613.576428L1100.601465,610.936363L1101.420945,609.666143L1102.451837,609.529159L1103.681997,608.856689L1104.467176,607.735906L1105.038544,606.490592L1105.235752,605.631325L1104.937627,605.382262L1109.647213,602.642569L1109.706559,602.094630L1109.775404,601.534238L1109.399901,601.347441L1108.996363,601.210456L1108.564792,601.123284L1100.502251,600.214204L1096.070914,599.716078L1094.052265,599.541733L1092.025966,599.429655L1090.002904,599.404749L1090.057886,598.470762L1091.039327,594.049889L1090.637686,593.427231L1090.595068,593.352512L1090.563335,593.302699L1090.214736,592.767213L1090.056073,592.518150L1086.603545,594.236687L1084.514067,590.812066L1084.365365,590.563002L1084.088092,590.338845L1083.872435,590.164501L1083.852050,590.152048L1083.122616,589.554296L1086.697329,586.565534L1086.644287,586.478361L1091.056235,582.966565L1093.081767,580.911789L1094.525552,579.554392L1096.465082,578.134729L1099.169097,576.378829L1100.554494,575.058790L1102.296431,573.414968L1103.941949,572.393806L1105.053726,571.484722L1109.161431,568.097451L1109.586773,567.748762L1110.389037,567.088742L1112.952891,565.046415L1113.407652,564.685272L1113.615772,563.315419L1113.924427,561.970472L1114.313233,560.637978L1114.792612,559.330390L1115.112577,558.558290L1115.463350,557.811097L1115.853967,557.063904L1116.265430,556.341617L1115.185261,555.955567L1113.358020,552.082613L1113.195656,551.733923L1115.849846,545.955622L1112.951656,545.968075L1112.011622,545.868449L1108.561665,545.507305L1107.804534,530.214711L1107.788811,529.791300L1111.238065,529.866020L1112.215161,529.890926L1112.223734,529.853567L1113.539501,529.878473L1113.537900,529.567141L1113.538149,529.305623L1113.465565,519.841136L1110.733974,519.778869L1110.538027,515.843632L1110.433325,508.732802L1106.366075,508.645629L1106.211398,507.699178L1105.080989,507.300673L1103.987648,506.827447L1102.941338,506.279502L1101.952481,505.669291L1100.105895,504.224707L1100.110695,505.158705L1094.945915,505.021719L1094.095258,505.719104L1087.614264,505.544757L1077.332702,504.685480L1076.503183,504.610760L1063.703654,503.539776L1050.104966,502.406525L1050.045201,502.406525L1047.257259,503.240896L1047.163196,503.390336L1046.621103,503.813748L1046.242388,503.539776L1045.577377,503.066550L1038.352389,497.873520L1035.958273,496.167416L1035.210809,495.619470L1029.067153,492.991819L1029.777046,491.721580L1015.430098,481.422676L996.494137,469.853515L987.222711,473.128748L980.664843,475.445071L972.650785,478.247073L964.636704,481.049075L962.905684,478.956914L962.383648,478.309340L961.940375,477.636860L961.555481,476.927019L961.259771,476.204725L955.775114,469.853515L955.206704,469.567088L954.685789,469.218394L954.213292,468.832340L953.798252,468.384019L951.263824,465.308039L949.628357,462.568298L947.171587,459.168528L944.664015,449.828493L944.293889,443.066301L945.901950,442.916860L947.510933,442.792326L946.613985,441.434906L945.913017,439.990311L944.614724,436.403730L944.958263,436.266743L944.516730,434.834601L944.215835,433.165844L943.825297,431.497086L943.388187,429.915502L942.697335,427.399912L941.455079,422.368728L940.098153,419.081022L939.932167,416.752229L938.874709,413.750950L937.120031,410.749670L936.116726,408.134446L934.501845,404.336142L933.654334,402.430763L932.738025,400.550291L931.742497,398.682271L930.678172,396.839158L929.545973,395.045859L928.354937,393.277466L927.144905,391.533979L925.904994,389.790492L924.646549,388.084366L923.358225,386.378238L922.060866,384.697018L920.733628,383.015797L917.987210,379.591087L915.493956,376.278457L914.483908,375.630875L911.901403,372.866197L909.325364,370.275868L909.211650,370.163787L906.652498,367.760259L906.435492,367.548549L903.402224,364.983125L900.331701,362.218444L894.610469,356.190938L892.150112,353.226998L890.403107,350.698930L890.143497,350.412499L886.732424,346.788518L885.523198,346.140934L882.536267,342.404870L880.964510,340.574198L879.314920,338.793340L877.577537,337.062295L877.400377,336.850585L877.262135,336.613967L877.173231,336.364896L877.143626,336.103371L877.154322,335.854300L877.224316,335.592775L877.345032,335.356158L877.506511,335.144447L878.444765,334.123255L892.848766,317.236207L893.827303,316.227466L895.009650,315.343261L895.935074,314.782850L897.119455,314.222438L896.876591,311.968338L894.753194,311.109040L892.942054,310.075391L891.213634,308.854938L889.986898,307.734114L889.087452,306.575929L888.246192,305.106404L887.637783,303.201002L887.457017,302.354156L886.620751,301.557125L887.452109,301.146156L886.439797,300.436300L886.379199,299.875887L882.657414,295.928091L867.262231,297.073824L842.544552,306.825001L841.877610,307.372960L826.959311,346.165841L822.688726,357.261942L820.135873,358.793726L806.747919,366.826246L788.760457,377.610981L753.276841,366.415280L748.949982,371.421591L748.157358,372.343150L737.355955,384.883820L741.067836,386.951099L743.933233,388.482877L738.935257,396.353473L735.693491,401.347312L733.233769,405.133164L734.733076,406.353602L734.577098,406.714752L733.741126,408.620130L730.516087,411.372342L725.218190,417.599063L720.591172,420.687515L717.595724,421.297733L711.455763,423.875593L706.371331,428.333918L703.693720,430.538173L702.932907,430.974043L700.319632,432.493359L696.836416,433.651527L694.858444,434.573079L691.501990,438.084940L686.939857,442.393817L681.994134,445.756234L680.865388,446.478531L676.995373,449.031476L675.833982,449.679052L669.934462,453.377708L663.614277,457.014094L659.453827,459.255702L654.545862,462.294324L651.210892,464.772544L651.016277,464.897078L646.100620,467.997965L640.891484,471.783785L634.813154,474.959390L631.057192,476.827392L624.675283,478.795021L624.747601,479.405234L625.112864,482.555929L625.109433,485.432650L622.895878,484.560916L619.217350,483.128783L616.355437,482.232143L615.428487,481.945716L611.485917,481.186062L598.446065,479.529768L594.317927,478.869741L573.836470,476.105098L573.744350,476.578325L572.666894,480.314328L572.065785,482.381583L571.887691,482.954436L571.869606,483.004249L571.709139,483.514836L570.635664,487.088943L569.594681,490.463795L568.719673,493.477499L567.656169,493.539765L566.427604,493.988085L556.367759,495.893443L549.442644,497.450107L552.474279,504.573400L557.748169,517.400292L557.835200,517.599545L558.115756,518.184849L554.677969,519.230925L551.641827,520.364173L548.237128,521.497422L545.897374,521.796300L543.464248,522.805016L540.326459,524.423941L538.793747,526.080226L535.783796,527.113848L531.317179,527.001768L530.068987,527.188567L523.179125,528.894665L521.638985,529.268263L520.767207,528.857305L520.373616,527.636885L520.089922,526.154946L518.908240,524.361675L518.761183,523.614479L518.626972,523.215974L518.877434,522.443871L518.282465,521.435155L517.369407,521.796300L513.139571,523.514852L511.499829,512.531057L511.208999,510.314371L510.745230,507.188593L510.240440,507.275766L479.292211,515.121341L480.541890,520.115108L482.217901,526.677983L483.322838,530.986814L483.829440,532.842349L478.795086,533.813704L477.677293,534.025409L467.863262,534.498633L467.650664,534.946950L467.429021,535.420174L467.024204,536.329262L460.502828,535.059029L460.037971,545.432585L460.083964,548.035312L460.106547,548.919492L457.708692,548.994211L455.992402,548.371550L454.757786,547.574543L452.783887,546.989240L449.503871,547.723981L448.584372,547.910780L447.645408,548.110032L445.500149,549.093837L443.782392,549.243276L442.369181,549.006665L440.653257,549.205916L439.978537,549.006665L437.247385,548.956852L436.359818,548.657974L434.574963,548.608161L433.945706,548.832319L431.311754,548.446269L429.848978,548.757600L429.247991,548.396456L427.842216,547.549636L426.552664,547.425104L425.489688,546.690363L425.018078,546.055247L424.748672,546.042794L423.569151,545.930715L421.535732,545.893355L421.036425,546.129967L418.123348,546.279406L416.559811,546.017888L415.072765,546.752629L413.041869,547.325478L411.159819,548.695334L409.427634,548.994211L408.836844,549.181010L407.966229,549.342902L404.299772,549.591967L404.084752,549.704046L403.605364,549.940657L401.253189,549.903298L399.897917,549.616873L398.538867,548.956852L398.011849,548.981758L396.474532,548.620614L391.974101,547.860967L390.608985,547.848514L388.916302,547.325478L387.816125,547.474917L387.003556,547.860967L385.317292,546.428845L383.569304,546.839802L381.633205,546.740176L379.622801,546.516017L379.332559,546.478658L379.442923,547.313025L380.209565,548.657974L377.465707,548.533442L375.262603,548.757600L373.467788,548.707787L370.687402,548.944399L369.674014,548.745147L368.024605,548.857226L365.373033,548.533442L361.621760,547.288118L360.995023,547.039053L361.003611,547.001694L360.920609,546.640550L360.423952,545.594478L359.852643,544.685391L359.706323,544.498592L358.697189,543.601959L356.519656,542.082663L352.155239,542.854764L349.836725,543.191002L347.445172,543.166095L346.556356,543.103829L344.274131,543.614412L340.000057,543.863477L337.584569,544.000463L334.854447,544.249528L333.775563,544.436326L330.911019,544.822377L329.953038,545.046535L328.279800,545.594478L326.781493,546.565830L324.767042,547.586996L322.387900,549.255729L320.526269,550.912009L316.602757,553.925691L316.177738,554.286835L315.252584,555.133654L314.338305,556.005380L313.554892,556.914465L313.639155,557.038997L313.023146,557.624299L312.080252,558.259413L308.865268,559.953051L308.785885,560.774963L309.670695,563.439951L309.692549,563.763735L309.107640,565.195854L308.270348,567.350259L308.130536,567.611776L307.496531,568.520860L303.748803,571.982850L303.538348,572.219461L303.064073,572.867028L300.922617,575.855795L300.132785,576.590533L299.339294,577.225646L299.156892,577.412444L298.677684,578.196995L297.791439,579.018905L297.658385,579.193250L297.373826,579.853269L296.998603,580.214411L296.874595,580.363849L296.766593,580.949149L295.662314,582.343906L295.400778,582.817127L295.128008,583.526958L294.795272,583.688849L294.392350,583.838288L287.261802,584.697557L285.575714,584.896808L281.916034,585.332669L274.066704,585.606639L273.818131,585.619092L272.619226,585.793437L270.743968,586.266657L270.011411,586.391189L269.137567,586.465908L267.536194,586.802144L261.231221,588.171993L257.633219,588.931637L254.752879,589.703734L254.227677,589.778453L252.886568,589.878078L252.357252,589.840719L252.297485,589.840719L250.096147,590.114688L248.249850,590.563002L246.561560,590.973957L244.744688,591.409818L242.878923,591.870585L240.983273,592.331352L240.065559,592.567963L238.514439,592.916651L237.684549,593.103449L235.623120,593.389872L234.332271,593.501950L232.286194,593.663841L231.195393,593.526856L230.672930,593.676294L229.885625,593.937811L229.451899,594.062343L228.859707,594.211781L228.256639,594.336312L227.572511,594.423484L226.797818,594.485750L225.309481,594.373672L224.973083,594.435938L224.597753,594.523110L224.420735,594.585375L223.409802,594.996330L222.732983,595.282753L222.162083,595.469550L221.382910,595.681254L219.736282,596.142021L218.862433,596.216740L218.257537,596.291459L217.479733,596.540522L217.104860,596.640147L216.696905,596.652600L216.337386,596.627694L215.143775,596.403537L214.272209,596.540522L212.097457,596.453350L210.812825,596.191834L207.760853,595.544269L207.068046,595.394831L205.637106,594.946517L205.215537,594.859345L204.784920,594.797079L204.403195,594.709907L204.108382,594.548016L203.789992,594.286500L202.789301,594.161968L202.183862,593.950264L201.975133,593.962717L201.562241,594.112155L200.656595,593.863092L200.275328,593.788373L199.925771,593.763467L199.521013,593.863092L199.134808,593.925358L198.725027,593.887998L198.482761,593.800826L198.160804,593.713654L197.884173,593.775920L186.369953,601.409707L186.153628,601.758395L172.799152,603.215414L171.954725,603.277679L169.142527,603.464477L168.418091,603.539196L167.862998,603.613914L164.588552,603.962603L162.702753,604.149400L161.834375,604.373557L160.388241,604.597713L159.609058,604.809417L158.187867,605.170558L157.523654,605.257730L157.060950,605.407168L155.805905,605.681137L155.292482,605.805669L154.759135,605.930200L153.862618,605.930200L153.176657,605.967560L152.231702,606.004919L151.585130,606.029825L150.847537,606.017372L150.189635,606.004919L148.700381,605.867934L148.079585,605.780762L147.486014,605.892841L147.152806,606.042278L146.801044,606.229076L145.921867,606.702295L145.031360,607.138155L143.990976,607.561562L143.444094,607.860438L140.856743,609.018580L140.113827,609.404627L138.398886,610.176722L137.548676,610.625035L136.235759,611.222786L134.983065,611.832989L133.532969,612.493006L131.089171,613.763225L130.051061,614.248898L128.574271,614.996086L127.450157,615.581383L126.893309,615.880258L126.118679,616.216493L125.392488,616.515368L124.238032,617.088212L123.309038,617.561431L122.821006,617.835399L122.134658,618.134274L121.165361,618.595040L120.479469,618.906368L119.902696,619.205243L118.452589,619.865259L118.465744,619.952431L118.666695,622.990993L118.719990,624.174039L117.490251,624.323476L116.185381,624.597445L114.492090,625.145382L114.729705,626.465412L114.765136,626.888818L114.791900,627.075615L115.655024,629.155285L112.956134,631.621000L114.157198,632.592342L114.531463,633.563685L113.922738,634.622198L113.331053,635.058057L111.446203,635.543728L109.539678,636.253554L109.028523,636.440351L107.314456,637.237349L105.016908,638.694362L104.015887,639.105314L102.359831,640.126467L100.147196,642.542367L97.437918,645.269593L96.940579,646.377918L97.054154,647.847381L97.853531,650.362903L98.396399,653.762593L98.391382,657.162281L98.483666,658.594383L98.698610,659.839689L98.668619,661.197073L98.609935,663.675232L98.136440,665.979047L97.000987,668.432298L95.272074,671.545559L96.896612,676.464510L96.891999,681.507988L97.615127,683.301224L102.002686,686.414480L103.579265,687.846577L104.280089,690.934925L105.071273,693.226279L106.180955,694.421768L107.367595,695.542538L108.415439,697.497660L108.900725,698.780319L110.292429,701.420355L110.861726,703.636988L111.978152,706.376646L112.992226,709.041585L109.406320,710.411414L105.889231,711.756336L106.185033,712.217096L108.041684,714.495991L110.365388,717.559422L113.048253,720.909271L114.793057,723.125899L116.577435,727.783305L118.205479,731.979950L117.764911,733.822986L116.882228,735.018469L115.862636,737.372075L114.277735,738.978504L111.065490,739.127939L110.057398,740.435497L106.979172,742.340796L105.321971,742.789102L100.976080,743.810242L99.130443,744.009489L97.362880,744.980817L95.535155,746.213657L93.808682,748.579713L91.759706,750.572180L89.998905,751.456337L87.019805,753.349180L84.054568,754.532207L82.826241,755.266929L81.197866,757.047695L79.891659,759.737523L78.055698,762.651502L77.168480,763.996415L74.271577,767.047374L72.838590,767.906624L69.960513,768.205493L70.008108,768.417192L69.159631,768.915308L68.758144,769.650028L68.147390,770.110785L66.506829,770.197956L65.362158,770.496825L62.945585,771.156828L55.720154,772.439475L51.179937,773.597593L46.982588,775.141750L45.863301,775.590054L43.165455,778.093082L40.863518,779.164030L38.806649,780.670827L34.306717,786.199900L33.780201,786.785184L29.399671,791.766327L25.579168,796.261806L24.804045,796.859543L23.685707,797.606713L21.597151,799.337658L18.887507,802.064830L16.493570,805.252756L14.645622,807.842944L11.149894,810.868981L8.114911,815.053128L6.309522,817.718030L4.746358,820.196139L3.467950,822.288211L2.350250,824.143678L1.703409,825.525939L1.127669,826.945558L1.224366,828.228196L2.112749,830.183285L2.913593,831.378753L8.163234,837.904012L31.603608,838.140615L35.987094,838.140615L37.908883,837.841748L59.616087,839.448156L83.145799,842.125503L109.822357,844.765490L114.731591,844.703226L126.734854,845.749259L132.320946,845.126620L140.415514,845.263601L160.459103,843.333422L176.559717,839.560231L180.153585,838.402123L188.913016,835.749681L199.799287,832.686295L203.459590,831.167055L209.284904,828.103668L217.089732,824.143678L226.006952,819.548593L230.231327,817.655766L236.997008,815.787844L245.706989,813.421809L254.281608,809.810491L257.163286,809.337283L263.080449,809.324831L268.721854,810.756905L268.840856,810.470490L273.114328,810.732000L278.293736,810.433132L285.090878,809.424453L287.861226,809.175397L288.548169,809.162944L289.016855,809.175397L290.104577,809.225208L293.242344,809.486717L296.913414,809.349736L299.982630,809.100680L304.080169,809.997283L304.061347,810.570113L303.869883,812.139169L309.058653,815.351996L314.378740,815.899919L315.888105,817.394257L318.594253,820.009347L320.684642,821.590854L321.278727,821.491231L323.027679,824.355376L323.780273,825.588203L324.564127,826.858389L326.054689,828.925553L333.522116,885.784800Z " data-cartodb-id="6" data-created-at="2013-12-05T20:49:58+0100" data-name="Bümpliz-Oberbottigen" data-updated-at="2013-12-05T20:49:59+0100"/></g><g fill="#000" font-family="Arial" font-size="12px" id="mylayer-label" stroke="none"><text text-anchor="middle" y="515.284943398"><tspan dy="0" x="1514.43184904"><![CDATA[Innere Stadt]]></tspan></text><text text-anchor="middle" y="325.596415546"><tspan dy="0" x="1271.21615403"><![CDATA[Länggasse-Felsenau]]></tspan></text><text text-anchor="middle" y="636.227838819"><tspan dy="0" x="1237.77420487"><![CDATA[Mattenhof-Weissenbühl]]></tspan></text><text text-anchor="middle" y="532.221352123"><tspan dy="0" x="1733.71285717"><![CDATA[Kirchenfeld-Schosshalde]]></tspan></text><text text-anchor="middle" y="349.701862512"><tspan dy="0" x="1586.82482654"><![CDATA[Breitenrain-Lorraine]]></tspan></text><text text-anchor="middle" y="627.466493902"><tspan dy="0" x="599.136716839"><![CDATA[Bümpliz-Oberbottigen]]></tspan></text></g></svg>