<?xml version="1.0" encoding="utf-8"?><!DOCTYPE svg  PUBLIC '-//W3C//DTD SVG 1.1//EN'  'http://www.w3.org/Graphics/SVG/1.1/DTD/svg11.dtd'><svg enable_background="new 0 0 2000 1659" height="1659px" pretty_print="False" style="stroke-linejoin: round; stroke:#000; fill: none;" version="1.1" viewBox="0 0 2000 1659" width="2000px" xmlns="http://www.w3.org/2000/svg" xmlns:xlink="http://www.w3.org/1999/xlink"><defs><style type="text/css"><![CDATA[path { fill-rule: evenodd; }]]></style></defs><metadata><views><view h="1659.96757093" padding="0" w="2000"><proj flip="auto" id="robinson" lon0="-86.8611778589"/><bbox h="4.08" w="4.92" x="-1221.57" y="-563.72"/></view></views></metadata><g class="" id="mylayer"><path d="M698.508455,725.529716L700.706376,718.553188L705.093625,683.308537L730.799612,692.072050L760.372352,678.909708L739.787941,614.255438L720.434930,621.464413L723.721377,605.232229L722.425114,594.872169L735.398961,574.608772L704.102008,556.084298L694.591009,561.206519L684.660755,571.430439L674.649148,581.947555L665.827231,586.312611L642.716406,607.053244L631.914263,609.003842L627.536792,611.445496L634.135489,621.205245L630.877590,641.706616L616.284578,639.756067L601.667189,634.136287L600.645317,640.485818L574.792499,650.736392L578.440167,640.247115L554.737945,640.247115L545.333922,671.469175L573.222348,661.709804L565.763964,689.521431L540.472780,689.760125L524.000421,750.032512L518.802079,757.343026L516.862899,764.783069L568.532372,765.901458L591.529282,753.080838L664.809970,728.803147L698.508455,725.529716Z " data-cartodb-id="1" data-created-at="2013-02-21T00:55:49.190Z" data-name="Thomas" data-updated-at="2013-02-21T00:55:49.441Z"/><path d="M1414.717137,454.604197L1397.399390,465.456498L1388.246339,475.087753L1376.723523,491.062380L1364.454060,508.496461L1323.827112,542.061177L1344.790390,550.225435L1390.676570,515.699205L1462.692191,449.222350L1491.461882,414.352342L1414.717137,454.604197Z " data-cartodb-id="2" data-created-at="2013-02-21T00:55:49.190Z" data-name="Wahouma" data-updated-at="2013-02-21T00:55:49.441Z"/><path d="M1344.461973,550.464155L1322.765272,542.293078L1363.385994,508.257733L1387.774609,474.589821L1397.187969,464.965384L1414.093684,454.344996L1407.150879,448.492491L1394.186965,455.074852L1380.941467,461.295664L1373.467242,461.425264L1379.337854,441.050630L1395.321624,440.818710L1402.268725,415.314145L1398.579264,415.443750L1400.716311,407.271814L1409.139386,377.871514L1411.544261,377.503153L1412.487218,371.909514L1407.965419,365.326725L1382.680692,365.558658L1361.822615,372.407486L1346.152520,380.913896L1330.689550,389.474822L1303.100949,416.173628L1281.521095,433.608726L1275.380954,438.008390L1278.371507,440.088846L1268.759272,483.491168L1260.570798,512.527547L1251.527587,545.594254L1226.355445,545.103170L1207.485576,614.855619L1191.174492,626.456791L1185.496166,633.304230L1195.966736,636.946180L1203.576743,636.946180L1202.339913,639.987951L1205.662253,647.926529L1286.134828,609.133427L1318.338331,597.920859L1316.232963,576.818596L1350.517718,553.867618L1344.461973,550.464155Z " data-cartodb-id="3" data-created-at="2013-02-21T00:55:49.190Z" data-name="Woodlawn" data-updated-at="2013-02-21T00:55:49.441Z"/><path d="M1489.869281,606.684949L1458.326909,597.791273L1447.210496,598.514227L1424.053677,606.582645L1435.875340,615.714969L1416.183151,664.158179L1448.655601,659.500125L1445.645869,665.979112L1434.532271,673.910711L1428.153940,681.849082L1423.752185,698.680451L1435.306958,693.558773L1420.959479,751.621461L1440.814960,739.912292L1435.636199,756.879301L1461.871868,748.211696L1463.897628,741.371682L1495.223268,721.860735L1510.099207,711.972168L1517.159787,704.531823L1514.328010,716.009440L1520.581076,719.180600L1563.827750,682.708387L1558.767080,677.579827L1563.881304,674.510865L1557.591334,668.161500L1548.762835,670.377984L1534.503245,680.860198L1536.423844,685.388598L1544.667110,680.757900L1547.070675,683.069841L1531.742588,694.281674L1515.001089,688.928104L1521.567811,655.496778L1518.776116,651.459317L1498.742807,638.528448L1491.177610,631.455971L1484.893607,624.635803L1484.172030,618.293015L1487.167813,611.084023L1489.869281,606.684949Z " data-cartodb-id="4" data-created-at="2013-02-21T00:55:49.190Z" data-name="Eastwood" data-updated-at="2013-02-21T00:55:49.441Z"/><path d="M1144.482008,419.713872L1142.360252,424.707033L1141.852900,426.842080L1141.373966,428.874806L1140.574419,431.446404L1140.144603,433.138063L1157.948336,432.776539L1144.333341,482.290684L1135.448996,482.161086L1128.325384,508.626056L1161.004188,509.485476L1260.194199,512.159225L1268.288858,484.241470L1277.345200,439.720503L1274.580863,437.769649L1302.090667,416.671582L1318.364294,401.289488L1331.052102,389.113286L1315.467304,388.854072L1266.403720,387.032747L1270.481573,372.018659L1252.841223,371.650296L1255.442189,362.284305L1215.814413,360.926811L1197.363961,378.990238L1144.482008,419.713872Z " data-cartodb-id="5" data-created-at="2013-02-21T00:55:49.190Z" data-name="Inglenook" data-updated-at="2013-02-21T00:55:49.441Z"/><path d="M1008.187411,457.653219L1027.824966,455.204453L1100.325033,455.804708L1108.322909,459.106106L1108.269851,465.558813L1079.659047,508.626056L1089.476650,508.987558L1096.131582,513.987193L1096.157588,520.958001L1097.699521,516.326715L1105.413732,507.036809L1128.198215,508.755651L1135.387975,481.929174L1143.890525,482.161086L1157.369593,433.608726L1139.423270,433.867931L1149.036519,401.917053L1160.782693,384.351916L1167.034245,358.252747L1117.787716,356.765638L1008.187411,457.653219Z " data-cartodb-id="6" data-created-at="2013-02-21T00:55:49.190Z" data-name="Harriman Park" data-updated-at="2013-02-21T00:55:49.441Z"/><path d="M1419.789911,752.221579L1434.251754,695.638817L1421.694409,701.231052L1426.985081,682.940263L1433.181253,673.910711L1445.071129,665.378954L1447.488128,660.257145L1416.526592,665.119795L1415.097815,672.928641L1403.336591,683.669990L1386.204475,692.460781L1374.646541,706.850542L1352.038345,719.542043L1342.110812,722.720014L1220.542335,797.611497L1228.759023,799.827761L1237.742011,792.981197L1240.101810,798.600292L1249.298164,794.440527L1253.685548,781.279218L1286.138740,779.062923L1289.524299,763.221414L1314.086657,762.962274L1306.713203,789.578360L1332.897285,789.578360L1325.293662,798.341160L1297.748706,812.988884L1298.726569,846.675301L1330.533557,834.216883L1335.511371,845.454695L1342.476009,843.238508L1345.039327,836.658115L1339.521770,822.017474L1346.942133,812.988884L1346.675111,806.872047L1348.964959,801.280264L1361.868966,791.760541L1369.219033,780.290410L1406.149104,764.421638L1419.789911,752.221579Z " data-cartodb-id="7" data-created-at="2013-02-21T00:55:49.190Z" data-name="Crestline" data-updated-at="2013-02-21T00:55:49.441Z"/><path d="M516.333259,797.120508L441.046757,835.669348L413.130233,853.357929L381.383088,874.353433L352.125572,882.283768L356.865701,889.982216L356.662518,897.291950L379.979381,913.288671L425.397352,914.516033L471.931998,899.010278L488.634070,886.313697L495.252987,883.456608L493.189199,865.325202L500.475474,841.110964L512.752034,841.370089L520.350519,813.977667L525.091444,796.888653L516.333259,797.120508Z " data-cartodb-id="8" data-created-at="2013-02-21T00:55:49.190Z" data-name="Ensley Highlands" data-updated-at="2013-02-21T00:55:49.441Z"/><path d="M562.471387,518.147856L544.858388,518.147856L540.904080,533.630861L499.261603,533.890046L488.727414,569.609373L485.607877,572.548995L482.223868,584.730280L480.499233,592.662376L477.194027,603.145219L484.702892,609.624487L489.138690,615.244373L520.193979,615.244373L536.371459,615.244373L545.535515,612.932311L556.053427,613.893966L563.953614,619.745720L565.696000,628.045892L568.195151,632.676777L579.116019,635.616256L578.576509,639.756067L575.151268,650.368110L600.489275,640.247115L601.588810,633.638417L616.255718,639.387781L630.572952,641.079167L633.620682,621.334829L626.848192,612.673142L562.471387,518.147856Z " data-cartodb-id="9" data-created-at="2013-02-21T00:55:49.190Z" data-name="North Pratt" data-updated-at="2013-02-21T00:55:49.441Z"/><path d="M477.122426,603.874990L468.030333,639.258199L435.088003,637.307647L431.377604,648.779037L447.296873,657.079022L441.510635,669.150393L455.186990,685.981926L465.905314,695.011394L468.745848,700.446777L497.799774,689.159979L534.870389,709.162437L540.362324,689.521431L565.682071,689.344115L572.903487,662.078084L545.106086,671.653313L554.602915,640.117533L578.356262,639.933390L578.798750,635.670817L568.180001,632.731339L565.519289,628.045892L563.917629,619.875304L555.871181,614.078112L545.444472,613.116458L536.401909,615.298935L488.867022,615.298935L483.676118,608.765133L477.122426,603.874990Z " data-cartodb-id="10" data-created-at="2013-02-21T00:55:49.190Z" data-name="Central Pratt" data-updated-at="2013-02-21T00:55:49.441Z"/><path d="M499.202520,533.630861L488.457927,533.630861L493.958031,513.386965L481.970724,513.018643L488.686841,488.381767L486.790532,488.149856L488.519563,481.929174L485.607162,479.118943L485.749973,476.411021L482.639612,476.179108L481.410290,479.350856L482.774889,480.080698L480.532038,488.149856L476.690143,487.883841L476.140627,490.332544L473.265033,491.921812L474.099970,496.423590L474.235384,500.325118L479.808109,500.454714L478.492206,504.717733L471.184862,504.717733L469.050059,511.927318L443.223143,511.436222L427.820532,568.749993L453.139934,567.788305L452.633974,569.609373L450.456511,569.609373L449.305919,573.278784L441.878804,573.565243L434.405553,578.223606L438.855230,577.862123L430.406867,586.994649L436.676967,586.810499L435.181003,590.943646L439.957575,590.657191L443.766559,577.418794L447.988597,577.548383L431.949237,628.721088L421.381341,636.086845L420.424191,638.896734L424.722441,639.080877L424.431262,640.744982L426.500433,640.663141L426.956674,638.712591L428.478677,638.712591L428.967653,637.259906L435.127906,637.307647L468.094732,639.026316L476.998644,603.540796L480.322525,592.662376L485.506839,572.112485L488.550709,569.609373L499.202520,533.630861Z " data-cartodb-id="11" data-created-at="2013-02-21T00:55:49.190Z" data-name="Sandusky" data-updated-at="2013-02-21T00:55:49.441Z"/><path d="M933.310133,0.000000L777.395687,1.460235L767.801547,42.926108L747.565993,45.341554L758.719957,3.411762L707.968238,4.871993L683.337811,89.726243L697.897783,90.217502L693.081837,112.651464L705.685466,113.149537L694.143302,154.611725L717.014672,155.075668L707.171553,192.163269L668.652242,191.672050L669.763656,205.330607L682.696233,223.860163L709.468720,233.124839L698.882412,271.178888L780.995408,273.129997L704.869401,555.825117L735.805811,574.867949L840.358006,500.454714L861.417360,481.929174L870.951102,479.248542L894.727605,450.941269L947.818616,398.977041L916.709518,400.927955L903.991835,436.057533L883.403909,438.008390L893.227065,400.927955L850.195552,398.977041L885.583011,271.670077L833.687334,270.189688L844.739003,228.731289L870.585737,227.271318L875.127238,212.644220L891.739887,212.644220L898.043781,188.260799L882.257824,188.731552L898.671781,126.317699L826.417342,125.826454L841.212308,72.675339L865.917510,71.685983L872.909794,48.289210L911.838122,47.299835L899.810274,97.531782L924.358314,98.991903L942.520993,24.857883L927.180888,23.895783L933.310133,0.000000Z " data-cartodb-id="12" data-created-at="2013-02-21T00:55:49.190Z" data-name="Hooper City" data-updated-at="2013-02-21T00:55:49.441Z"/><path d="M668.652242,191.672050L646.910730,191.672050L635.300376,240.438291L625.993728,240.438291L618.946018,266.546697L639.449881,266.778648L630.416852,300.192800L652.894900,300.192800L642.093336,342.638012L661.070663,342.869949L654.808281,367.277690L677.838005,367.018471L657.950146,440.450368L671.927693,440.218448L664.065702,466.786598L649.077205,467.045796L652.006235,445.081927L587.019270,444.850009L577.347681,477.761573L563.572956,480.708225L559.741845,473.368866L535.074589,494.363687L533.507595,500.945814L546.090789,491.662618L557.277257,505.086057L562.741634,499.492974L563.120993,509.717383L571.972183,511.197495L562.921760,518.250167L627.458124,612.673142L631.913830,608.533244L642.339847,606.684949L665.608306,585.848824L674.656303,581.449665L694.763377,560.585852L703.846975,555.586398L779.907032,273.621185L697.940363,271.902027L708.046020,233.854821L681.153736,224.098944L668.627736,205.828644L668.652242,191.672050Z " data-cartodb-id="13" data-created-at="2013-02-21T00:55:49.190Z" data-name="Smithfield Estates" data-updated-at="2013-02-21T00:55:49.441Z"/><path d="M929.886802,783.590981L1047.825692,725.270569L1040.297783,697.691580L1040.319102,693.688349L1042.148910,689.289556L1060.821468,631.687856L978.966826,671.830632L972.055388,672.928641L968.804272,677.579827L966.115283,681.951380L961.328915,689.651008L956.757539,694.520368L910.732564,718.089449L929.886802,783.590981Z " data-cartodb-id="14" data-created-at="2013-02-21T00:55:49.190Z" data-name="Central City" data-updated-at="2013-02-21T00:55:49.441Z"/><path d="M911.013779,716.602754L956.182920,693.920223L962.587092,686.841229L971.025819,673.187799L948.693518,597.552561L931.761017,605.593704L930.925633,613.164199L921.286722,602.913328L916.423306,610.722549L909.937858,606.814534L895.359899,618.756789L885.923465,618.293015L889.287408,620.734651L883.479069,619.254665L896.367404,626.095322L894.874700,631.947022L890.414313,649.747485L911.013779,716.602754Z " data-cartodb-id="15" data-created-at="2013-02-21T00:55:49.190Z" data-name="Druid Hills" data-updated-at="2013-02-21T00:55:49.441Z"/><path d="M948.991692,597.422975L971.707076,672.458066L978.683414,671.598754L1060.623576,631.455971L1069.797080,602.313142L1074.041769,590.609448L1081.773076,566.669745L1076.388944,570.707469L1069.488574,573.019607L1063.138064,572.548995L1056.891678,569.977679L1048.509801,563.989289L1043.735655,559.255849L1035.759753,557.905383L1029.473173,560.347133L1022.958453,562.666110L1014.752158,564.487185L1004.195519,566.335540L997.926355,567.297230L994.032251,566.437848L989.379141,564.719082L983.846351,563.027597L971.131422,559.487747L973.340173,585.848824L948.991692,597.422975Z " data-cartodb-id="16" data-created-at="2013-02-21T00:55:49.190Z" data-name="Norwood" data-updated-at="2013-02-21T00:55:49.441Z"/><path d="M852.214687,821.049154L929.248454,783.693271L889.732460,650.006647L892.476405,640.117533L869.232542,638.794432L862.205126,650.006647L845.386223,670.971319L834.301837,689.760125L833.212584,705.131963L831.643025,720.510439L830.534655,739.550854L832.299337,750.762201L852.214687,821.049154Z " data-cartodb-id="17" data-created-at="2013-02-21T00:55:49.190Z" data-name="Fountain Heights" data-updated-at="2013-02-21T00:55:49.441Z"/><path d="M1048.094836,724.772733L1075.578516,711.610722L1077.289581,720.510439L1190.779482,665.849532L1194.640775,653.177967L1205.007354,648.417574L1201.860467,639.517364L1202.699521,637.437229L1195.256556,637.307647L1185.715274,633.768000L1144.508564,614.855619L1139.118173,631.947022L1073.744213,637.935098L1056.052173,645.737287L1042.502103,689.105420L1040.594351,693.476935L1040.446106,697.773417L1048.094836,724.772733Z " data-cartodb-id="18" data-created-at="2013-02-21T00:55:49.190Z" data-name="North Avondale" data-updated-at="2013-02-21T00:55:49.441Z"/><path d="M1136.367245,509.717383L1105.370654,507.664323L1102.195848,511.565817L1098.000057,516.660932L1082.163980,566.205951L1060.971298,631.455971L1056.522861,645.293982L1073.816100,637.675933L1126.149152,632.915482L1160.839498,510.078885L1136.367245,509.717383Z " data-cartodb-id="19" data-created-at="2013-02-21T00:55:49.190Z" data-name="East Birmingham" data-updated-at="2013-02-21T00:55:49.441Z"/><path d="M841.413744,676.515921L845.101294,671.053159L861.618422,650.395390L869.006283,638.664850L892.631954,639.885649L896.107261,626.252186L885.887836,618.729508L885.858603,618.054307L895.399490,618.470340L909.846346,606.528083L916.417295,610.436098L921.273143,602.654157L930.645690,612.591299L931.673443,605.436837L973.142645,585.923849L970.876954,559.624158L962.277799,561.936315L951.325265,563.157187L941.999269,566.362822L935.696472,567.917894L932.044097,571.198543L923.896744,575.024820L914.688277,581.708841L904.632065,589.906950L896.788667,597.320670L889.446513,600.730831L861.030757,609.890477L862.496473,624.819948L839.830338,635.670817L834.675816,655.026196L840.823080,655.285357L835.097878,675.138298L841.413744,676.515921Z " data-cartodb-id="20" data-created-at="2013-02-21T00:55:49.190Z" data-name="Evergreen" data-updated-at="2013-02-21T00:55:49.441Z"/><path d="M841.028529,676.959215L834.735367,675.499753L840.551744,655.626358L834.318972,655.367197L839.471416,635.854960L813.204597,648.547155L799.834062,652.686925L795.460923,668.918515L797.497084,669.880128L796.340822,674.047110L800.867018,674.047110L796.664688,687.939226L793.017896,695.741115L795.352483,698.319001L797.392217,714.781892L800.217311,717.462037L800.118283,723.449719L801.182465,728.080265L830.663142,724.043030L834.056275,689.391854L841.028529,676.959215Z " data-cartodb-id="21" data-created-at="2013-02-21T00:55:49.190Z" data-name="Enon Ridge" data-updated-at="2013-02-21T00:55:49.441Z"/><path d="M799.179054,653.177967L792.987393,655.728658L786.247252,662.309963L782.589236,668.918515L730.625510,692.699475L715.858296,688.559832L705.436201,683.799568L701.118450,718.321318L699.185209,725.761584L758.285727,725.632010L793.760057,731.019528L801.118147,728.312132L799.937601,723.320145L799.888867,717.700726L797.059814,714.891008L795.223820,698.782748L792.725420,695.870691L796.448067,687.939226L800.449457,674.463125L795.964706,674.149409L797.189466,670.064267L795.048503,668.843496L799.179054,653.177967Z " data-cartodb-id="22" data-created-at="2013-02-21T00:55:49.190Z" data-name="East Thomas" data-updated-at="2013-02-21T00:55:49.441Z"/><path d="M851.669643,821.287824L832.052850,751.178192L830.237090,740.150977L831.090923,724.227160L801.561061,728.441706L793.695740,731.251395L773.901401,728.441706L747.750675,820.060375L744.497572,828.359271L747.906500,872.532790L851.669643,821.287824Z " data-cartodb-id="23" data-created-at="2013-02-21T00:55:49.190Z" data-name="Smithfield" data-updated-at="2013-02-21T00:55:49.441Z"/><path d="M744.133229,828.727504L747.706758,819.910354L761.208921,772.639054L732.782060,772.093501L711.644301,780.106287L700.138696,787.859889L683.256580,787.887167L670.142676,837.517318L672.439356,845.086467L683.123148,841.056412L744.133229,828.727504Z " data-cartodb-id="24" data-created-at="2013-02-21T00:55:49.190Z" data-name="Graymont" data-updated-at="2013-02-21T00:55:49.441Z"/><path d="M1009.526464,835.205650L1003.515301,863.504547L1017.982995,868.264157L1026.292358,869.982522L1033.677026,866.416231L1041.785515,856.924256L1045.959477,857.394765L1049.619421,850.316655L1058.800820,844.956905L1070.818913,843.968145L1080.262641,845.686542L1089.345950,838.478807L1098.299848,833.487240L1102.076885,816.398480L1092.792854,814.577757L1088.968568,807.990400L1082.095745,810.799919L1087.346171,793.581296L1079.889218,783.461413L1065.414222,785.623147L1052.121828,791.992398L1049.889552,788.589558L1039.170327,793.840429L1041.564946,797.768340L1024.806266,801.566673L1010.467971,808.747334L1011.321213,817.434995L1010.941321,829.791286L1015.871727,826.749958L1018.762449,830.595941L1013.645065,835.567062L1009.526464,835.205650Z " data-cartodb-id="25" data-created-at="2013-02-21T00:55:49.190Z" data-name="Highland Park" data-updated-at="2013-02-21T00:55:49.441Z"/><path d="M1199.070135,736.973049L1226.932154,736.243352L1229.471030,724.902307L1213.663641,725.270569L1217.126108,712.470008L1220.899138,704.040800L1224.733281,687.700531L1233.963597,679.039286L1225.143467,669.750549L1255.718481,642.927413L1285.801352,609.863196L1233.814989,633.768000L1205.123334,648.472134L1194.612409,653.280268L1190.768329,666.033672L1141.193104,690.019279L1144.772336,701.906211L1169.176591,689.651008L1192.058715,688.375696L1210.847349,681.303491L1204.197437,708.746432L1205.145770,714.106741L1199.070135,736.973049Z " data-cartodb-id="26" data-created-at="2013-02-21T00:55:49.190Z" data-name="East Avondale" data-updated-at="2013-02-21T00:55:49.441Z"/><path d="M1286.215265,609.624487L1255.984673,643.056995L1225.302940,669.648250L1233.935237,679.141585L1275.509088,679.141585L1343.877360,656.717561L1348.636162,638.296564L1341.974518,621.696300L1351.190027,587.042392L1286.215265,609.624487Z " data-cartodb-id="27" data-created-at="2013-02-21T00:55:49.190Z" data-name="Crestwood North" data-updated-at="2013-02-21T00:55:49.441Z"/><path d="M1351.583343,587.042392L1342.141553,621.566716L1348.894146,637.982838L1343.953182,656.587981L1366.257434,648.779037L1380.418145,648.056110L1396.191711,657.679183L1406.129543,662.937402L1415.640047,664.390058L1435.314989,615.844553L1390.657426,581.947555L1381.707151,600.103362L1377.318141,593.030675L1371.542040,588.761128L1351.583343,587.042392Z " data-cartodb-id="28" data-created-at="2013-02-21T00:55:49.190Z" data-name="Oak Ridge Park" data-updated-at="2013-02-21T00:55:49.441Z"/><path d="M1415.537980,664.758337L1405.916915,663.066982L1380.262662,648.287992L1366.447785,649.017739L1275.553237,679.455300L1233.998486,679.530319L1224.949902,687.700531L1221.271655,704.095358L1217.278461,712.701878L1213.982335,724.902307L1229.787831,724.540865L1227.202192,736.379744L1198.827291,737.232194L1198.522376,745.531615L1205.675526,752.221579L1200.421770,753.755969L1204.499812,757.554430L1201.236936,762.416717L1208.464811,769.311177L1216.645860,762.232592L1188.800582,816.889461L1342.796811,721.499292L1349.180590,719.651158L1373.786889,706.352700L1385.418764,691.840176L1401.793300,683.438114L1414.225214,672.642204L1415.537980,664.758337Z " data-cartodb-id="29" data-created-at="2013-02-21T00:55:49.190Z" data-name="Crestwood South" data-updated-at="2013-02-21T00:55:49.441Z"/><path d="M1161.187197,510.078885L1126.325863,632.915482L1138.960404,631.899281L1144.316371,614.623731L1185.233949,633.304230L1191.185270,625.965739L1207.222771,614.385023L1226.493583,544.605266L1251.143577,545.416918L1260.132434,513.018643L1161.187197,510.078885Z " data-cartodb-id="30" data-created-at="2013-02-21T00:55:49.190Z" data-name="Kingston" data-updated-at="2013-02-21T00:55:49.441Z"/><path d="M873.853537,605.361814L896.775094,597.061498L910.836036,584.621154L923.546973,574.867949L931.419034,571.253107L935.415188,567.842869L940.456503,566.437848L951.112281,562.979853L971.000318,559.487747L965.247310,471.806859L962.844775,454.474597L954.467106,448.622092L943.747543,448.390174L932.203776,448.622092L927.118921,445.320667L895.129423,452.162247L871.745873,479.978383L866.604259,495.823354L871.191680,566.076362L885.272361,561.574827L885.971299,570.966647L872.211995,575.727326L873.853537,605.361814Z " data-cartodb-id="31" data-created-at="2013-02-21T00:55:49.190Z" data-name="North Birmingham" data-updated-at="2013-02-21T00:55:49.441Z"/><path d="M952.088113,448.260573L954.314928,448.390174L963.144606,454.031226L971.167391,559.358157L998.144533,566.983487L1023.376026,562.250058L1035.761324,557.591638L1043.893085,558.996669L1048.589297,563.702827L1057.089025,569.738962L1063.164382,572.289817L1069.391357,572.733147L1076.153075,570.468753L1081.670361,566.567437L1096.031207,521.865158L1095.516474,514.478288L1089.433569,509.615071L1079.266230,509.117153L1107.591813,465.824833L1107.836973,459.604043L1100.798553,456.295825L1028.115967,455.572791L1007.708628,457.653219L1037.668144,429.468252L1004.379236,428.615600L1001.962947,438.731434L995.089053,438.731434L992.778598,447.994549L955.494930,446.173308L952.088113,448.260573Z " data-cartodb-id="32" data-created-at="2013-02-21T00:55:49.190Z" data-name="Collegeville" data-updated-at="2013-02-21T00:55:49.441Z"/><path d="M871.267083,479.978383L862.739816,482.031488L841.653296,499.854479L801.409746,527.178494L737.013557,574.110879L727.976703,586.312611L722.903934,594.872169L723.823626,604.863933L720.434930,621.464413L739.888288,613.893966L760.436696,678.677832L782.341809,668.557057L786.197180,661.709804L792.933384,654.998916L799.702952,652.686925L813.276517,648.287992L861.973603,624.506220L860.591038,609.133427L873.577751,605.102643L872.057704,575.338560L885.820938,570.707469L884.955405,561.936315L870.939099,566.205951L866.036058,495.693757L871.267083,479.978383Z " data-cartodb-id="33" data-created-at="2013-02-21T00:55:49.190Z" data-name="Acipco-Finley" data-updated-at="2013-02-21T00:55:49.441Z"/><path d="M523.704088,748.450380L534.703809,709.762574L497.644192,689.391854L468.552400,700.815045L471.432341,720.380865L478.562217,731.353689L495.163762,742.831070L512.740316,745.640728L523.704088,748.450380Z " data-cartodb-id="34" data-created-at="2013-02-21T00:55:49.190Z" data-name="South Pratt" data-updated-at="2013-02-21T00:55:49.441Z"/><path d="M671.417314,831.666541L682.632949,787.628032L684.525028,781.279218L684.244757,771.622961L685.907386,756.381478L687.760194,744.051772L693.835901,736.741183L696.073173,732.581221L697.893925,726.491287L664.607502,729.532848L591.488209,753.701413L516.936978,796.649978L525.379996,796.649978L520.544479,814.079955L532.573345,813.977667L539.238915,811.897811L549.603440,801.518939L555.568398,799.930050L562.086777,803.230572L567.780197,804.819456L609.151109,804.328471L601.734192,833.248572L638.832366,833.119009L653.646789,831.298309L671.417314,831.666541Z " data-cartodb-id="35" data-created-at="2013-02-21T00:55:49.190Z" data-name="Bush Hills" data-updated-at="2013-02-21T00:55:49.441Z"/><path d="M601.190596,833.173561L608.816990,804.587602L567.864208,805.133141L561.758326,803.469246L555.517320,800.114170L549.692917,801.648505L539.436841,812.129664L532.391147,814.161786L520.607293,814.161786L512.830010,841.417822L500.642935,841.288260L493.330000,865.454762L495.349653,883.272500L499.766491,888.993490L576.935683,833.903204L601.190596,833.173561Z " data-cartodb-id="36" data-created-at="2013-02-21T00:55:49.190Z" data-name="Fairview" data-updated-at="2013-02-21T00:55:49.441Z"/><path d="M672.359944,845.372866L669.869538,837.885548L671.060549,832.027953L651.479328,831.898390L639.214584,833.303124L601.426585,833.432687L577.116387,834.032767L541.744736,859.160877L545.907757,864.234173L561.109557,864.779688L551.108452,900.230834L572.745501,891.673278L582.859574,885.174953L618.790523,866.804909L665.732134,868.496000L672.359944,845.372866Z " data-cartodb-id="37" data-created-at="2013-02-21T00:55:49.190Z" data-name="Rising - West Princeton" data-updated-at="2013-02-21T00:55:49.441Z"/><path d="M852.215374,821.519676L747.983058,872.894191L709.095079,891.570996L696.979031,936.233329L715.231486,936.594713L831.882619,878.874343L838.354789,860.067798L848.896155,836.167141L854.517547,828.597940L852.215374,821.519676Z " data-cartodb-id="38" data-created-at="2013-02-21T00:55:49.190Z" data-name="North Titusville" data-updated-at="2013-02-21T00:55:49.441Z"/><path d="M678.996761,1000.660345L696.470376,936.649261L708.787215,891.570996L747.726230,872.710081L743.997099,829.218480L683.022937,841.417822L672.599503,845.454695L666.137298,868.761938L618.859458,867.173131L580.287934,887.541084L584.088274,896.432786L572.329417,903.537922L581.805541,923.175720L584.004208,921.825630L590.525628,935.012806L580.096782,941.722260L582.966217,947.702099L582.057201,950.981795L591.597728,952.331854L596.435023,955.141064L590.523392,962.811814L610.408879,994.810291L610.388934,998.812603L678.996761,1000.660345Z " data-cartodb-id="39" data-created-at="2013-02-21T00:55:49.190Z" data-name="Arlington - West End" data-updated-at="2013-02-21T00:55:49.441Z"/><path d="M960.349181,944.272388L959.271645,963.541385L989.914312,964.270956L996.602814,962.579987L995.882594,967.836983L1003.315884,967.080140L1015.546914,957.459340L1008.483796,980.764603L1020.472668,982.087358L1017.374871,996.262579L1044.596367,982.476003L1056.821884,980.266864L1076.761913,907.308675L1052.800625,906.810909L1046.879281,928.664704L997.741853,932.074000L1033.425501,913.159116L1034.215214,907.179119L1034.398983,901.328652L1034.775953,897.291950L1041.474945,895.109945L1053.720776,891.570996L1061.813821,886.681913L1115.389638,853.126083L1112.425521,860.204177L1125.172370,859.733669L1127.470329,847.507222L1172.456942,819.828524L1184.358229,819.569396L1188.800582,816.889461L1216.262936,762.832704L1208.681442,769.311177L1199.003768,775.660049L1195.554553,774.302989L1189.159591,777.610394L1184.565134,782.731742L1159.585575,788.589558L1155.679448,796.390845L1150.370628,797.979738L1139.708998,804.587602L1129.358457,813.220737L1114.932842,818.969309L1099.834328,829.348043L1098.651620,833.616803L1089.375053,838.847037L1080.031389,846.047950L1070.484873,844.227269L1058.794025,845.454695L1049.967186,850.316655L1045.756562,857.653886L1041.685386,857.285661L1033.690755,866.675350L1026.199791,870.316649L1003.379273,863.995511L999.253335,890.350432L995.246937,892.402888L989.924230,899.371671L975.157566,901.328652L956.078044,918.545862L960.349181,944.272388Z " data-cartodb-id="40" data-created-at="2013-02-21T00:55:49.190Z" data-name="Redmont Park" data-updated-at="2013-02-21T00:55:49.441Z"/><path d="M1318.817153,597.920859L1351.413807,586.708193L1371.828651,588.529235L1377.384331,592.791963L1381.778387,599.373588L1390.309713,581.947555L1394.034875,572.419406L1370.526356,540.833464L1316.519042,577.677971L1318.817153,597.920859Z " data-cartodb-id="41" data-created-at="2013-02-21T00:55:49.190Z" data-name="South Woodlawn" data-updated-at="2013-02-21T00:55:49.441Z"/><path d="M1389.420614,565.708055L1394.549625,572.289817L1390.767117,581.551971L1423.443747,606.582645L1447.247867,598.050445L1457.838411,597.661687L1467.381218,572.658122L1465.503912,568.286200L1469.089598,555.354499L1472.156221,547.913257L1466.568523,548.145157L1459.775745,548.015565L1451.508817,549.604762L1445.620666,552.646738L1435.077116,562.898007L1429.164272,571.826026L1412.637265,570.107268L1413.755032,566.076362L1389.420614,565.708055Z " data-cartodb-id="42" data-created-at="2013-02-21T00:55:49.190Z" data-name="Gate City" data-updated-at="2013-02-21T00:55:49.441Z"/><path d="M1351.191948,553.635719L1370.406063,540.342379L1389.376517,565.394312L1414.104241,565.762619L1412.922168,570.025422L1429.021423,571.560028L1434.906111,562.898007L1445.626132,552.462582L1451.301645,549.550197L1459.657882,547.967821L1472.228092,547.654074L1474.892887,542.422669L1469.130077,539.380669L1481.680983,498.503951L1493.646143,489.705022L1495.419931,482.529416L1463.201253,449.113212L1391.286470,515.699205L1344.684994,551.057545L1351.191948,553.635719Z " data-cartodb-id="43" data-created-at="2013-02-21T00:55:49.190Z" data-name="East Lake" data-updated-at="2013-02-21T00:55:49.441Z"/><path d="M1496.186036,482.890926L1494.388639,489.370798L1482.028679,498.503951L1469.651794,538.753171L1475.276528,542.293078L1472.503927,547.913257L1465.904171,567.788305L1467.831046,572.289817L1457.940513,597.293389L1490.083343,606.221170L1495.266429,599.141697L1482.838435,595.342773L1476.121609,586.940086L1478.749159,574.008573L1498.811455,559.358157L1513.746340,528.870027L1521.998520,496.914692L1519.266509,497.044288L1496.186036,482.890926Z " data-cartodb-id="44" data-created-at="2013-02-21T00:55:49.190Z" data-name="Brown Springs" data-updated-at="2013-02-21T00:55:49.441Z"/><path d="M699.309314,726.259419L694.698450,736.611611L688.586798,744.051772L685.858865,760.152653L685.042180,774.071129L685.291306,781.640645L683.214570,787.730322L700.117489,787.628032L711.856725,779.792596L732.724920,771.991209L761.075696,772.482207L773.827040,728.237116L758.306912,725.863879L699.309314,726.259419Z " data-cartodb-id="45" data-created-at="2013-02-21T00:55:49.190Z" data-name="College Hills" data-updated-at="2013-02-21T00:55:49.441Z"/><path d="M1491.664421,413.622463L1542.802217,350.939972L1552.570295,343.961418L1563.659810,340.189026L1552.958984,336.914608L1553.785334,322.029544L1528.989170,317.527153L1524.861856,322.991416L1512.061851,317.261102L1487.380448,317.991037L1486.316834,320.569680L1489.797756,321.169998L1487.570053,328.742170L1446.608511,328.742170L1443.109147,342.269641L1385.090181,341.546543L1332.371231,340.189026L1318.541185,388.744929L1331.173578,388.983679L1362.061245,371.547973L1382.912157,365.197115L1408.349071,365.197115L1412.855720,371.834477L1411.647095,377.769191L1408.976235,378.130730L1398.759581,415.266396L1402.606778,415.184541L1395.428257,441.050630L1379.503334,441.234801L1373.695041,461.241096L1381.178707,461.056928L1407.568427,448.076402L1414.350175,454.344996L1491.664421,413.622463Z " data-cartodb-id="46" data-created-at="2013-02-21T00:55:49.190Z" data-name="North East Lake" data-updated-at="2013-02-21T00:55:49.441Z"/><path d="M957.539658,770.272716L979.635009,845.454695L987.722360,836.658115L997.505820,832.130239L1013.595452,835.437499L1018.623767,830.623217L1015.742750,826.906798L1010.797226,830.002678L1011.218439,817.332707L1010.334711,808.590492L1024.733982,801.518939L1041.363401,797.693328L1038.974483,793.765417L1049.925462,788.459990L1052.150177,791.890108L1065.336269,785.595869L1064.207999,782.138458L1078.002539,758.099989L1077.193527,755.835918L1104.547687,742.831070L1095.907061,711.713018L1077.086618,720.769586L1075.383112,711.842593L1047.943572,725.318306L957.539658,770.272716Z " data-cartodb-id="47" data-created-at="2013-02-21T00:55:49.190Z" data-name="Southside" data-updated-at="2013-02-21T00:55:49.441Z"/><path d="M1099.677918,828.986630L1114.740539,818.737457L1129.589718,812.859319L1139.137537,804.921745L1150.753540,797.379641L1155.743692,796.158989L1159.425374,788.221314L1184.469917,782.602174L1189.261630,777.242148L1195.654704,773.941560L1198.652015,775.530480L1208.400563,769.543037L1201.081030,762.362161L1204.260255,757.472596L1200.043537,753.701413L1205.590015,752.221579L1198.366721,745.640728L1198.531283,736.243352L1204.980185,713.922608L1204.051200,708.800990L1210.665187,681.487628L1191.916458,688.559832L1169.100734,689.760125L1144.630077,702.090345L1140.930879,690.019279L1096.015486,711.794855L1104.813908,742.960642L1077.455761,755.835918L1078.145208,758.202282L1064.447312,782.056626L1065.486042,785.364012L1080.147182,783.147723L1087.587152,793.349440L1082.380183,810.411224L1089.234334,807.813100L1092.940497,814.209520L1102.314046,816.159808L1099.677918,828.986630Z " data-cartodb-id="48" data-created-at="2013-02-21T00:55:49.190Z" data-name="Forest Park" data-updated-at="2013-02-21T00:55:49.441Z"/><path d="M816.697590,902.419650L819.201648,904.369807L828.762370,898.280671L851.511527,888.400254L863.763643,877.783326L873.573188,876.433190L866.815389,902.549206L879.279676,903.408366L863.460478,958.782119L845.363350,976.857693L857.496068,976.857693L873.469312,986.253348L923.392649,959.279865L928.526727,954.411488L943.078750,946.952064L954.269873,945.492903L959.507915,944.633770L955.666047,918.777697L975.259568,900.960440L989.666847,898.880721L994.832261,892.171050L998.738545,890.479989L1003.072305,863.374987L1009.351139,834.891972L997.517637,832.396184L987.716947,836.842230L979.570762,845.686542L957.178907,770.484118L929.617674,784.088794L852.401526,821.465122L854.849944,828.488835L849.107823,836.658115L839.416975,858.744920L832.320643,879.474403L827.308292,889.723102L816.697590,902.419650Z " data-cartodb-id="49" data-created-at="2013-02-21T00:55:49.190Z" data-name="Five Points South" data-updated-at="2013-02-21T00:55:49.441Z"/><path d="M831.004251,879.842621L715.129454,936.962915L696.848651,936.703810L679.384466,1000.660345L690.275726,996.992132L698.408258,987.105636L705.964573,983.703300L742.822135,984.432860L805.706163,914.618313L827.043405,889.259423L831.004251,879.842621Z " data-cartodb-id="50" data-created-at="2013-02-21T00:55:49.190Z" data-name="South Titusville" data-updated-at="2013-02-21T00:55:49.441Z"/><path d="M742.722028,984.794230L706.041205,984.064671L698.518891,987.344276L690.486997,997.176225L679.158923,1001.021711L630.621416,999.726247L621.629064,1032.494274L633.271639,1032.392003L633.270626,1035.071500L638.795512,1033.980612L641.779860,1025.553465L648.226718,1025.683009L645.899944,1034.082882L665.447580,1035.432857L661.420082,1043.859941L667.956056,1039.571407L672.591834,1032.262460L680.920134,1023.705759L685.834926,1023.705759L734.319614,993.453457L742.722028,984.794230Z " data-cartodb-id="51" data-created-at="2013-02-21T00:55:49.190Z" data-name="Woodland Park" data-updated-at="2013-02-21T00:55:49.441Z"/><path d="M1465.857936,306.543981L1456.278162,314.586947L1447.158843,328.012242L1487.163274,328.482943L1489.378121,321.429226L1484.865700,320.931235L1486.225184,317.759095L1512.669388,316.797219L1518.704008,295.062713L1536.922344,294.598822L1546.967973,291.917797L1553.461135,287.026446L1563.442334,284.577353L1570.938963,284.836589L1577.578420,260.925283L1586.623013,260.925283L1590.064632,247.751700L1560.060872,245.568597L1542.622586,252.152006L1528.340056,254.103144L1525.202081,267.269839L1513.874158,267.508612L1507.574579,291.917797L1486.054114,291.917797L1481.666688,298.009787L1465.857936,306.543981Z " data-cartodb-id="52" data-created-at="2013-02-21T00:55:49.190Z" data-name="Zion City" data-updated-at="2013-02-21T00:55:49.441Z"/><path d="M1404.351452,340.448250L1443.024617,341.178171L1446.196449,328.974110L1454.595543,315.310061L1464.860554,306.543981L1470.747653,281.896307L1438.286490,281.664359L1429.986426,278.983306L1419.266722,287.517629L1410.663209,310.678031L1403.354884,329.935977L1404.351452,340.448250Z " data-cartodb-id="53" data-created-at="2013-02-21T00:55:49.190Z" data-name="Airport Highlands" data-updated-at="2013-02-21T00:55:49.441Z"/><path d="M1383.782593,340.918947L1404.061653,341.491969L1403.141979,329.779077L1419.019486,287.156064L1429.640444,278.669493L1438.301420,281.302792L1471.005781,281.582495L1465.194953,306.591734L1481.613386,297.873348L1486.251485,291.658562L1507.416730,291.706316L1513.623254,267.324415L1524.886528,267.010599L1527.627933,254.471541L1464.167230,253.611949L1440.140163,251.660810L1424.303217,253.113931L1401.808431,266.778648L1383.782593,340.918947Z " data-cartodb-id="54" data-created-at="2013-02-21T00:55:49.190Z" data-name="Brownsville Heights" data-updated-at="2013-02-21T00:55:49.441Z"/><path d="M1402.147640,265.557494L1423.214679,253.113931L1435.751500,251.190080L1454.722881,252.383960L1457.673925,248.017766L1467.272699,238.985155L1474.265780,210.201805L1470.618411,210.201805L1472.251734,203.379394L1453.027431,203.877431L1464.013597,164.340848L1428.722545,164.600108L1402.147640,265.557494Z " data-cartodb-id="55" data-created-at="2013-02-21T00:55:49.190Z" data-name="Brummitt Heights" data-updated-at="2013-02-21T00:55:49.441Z"/><path d="M1455.558846,252.513581L1464.812714,253.011599L1527.555015,253.482328L1542.665814,251.524366L1550.911852,248.120099L1557.255006,242.989802L1565.771607,219.364246L1575.413861,218.606966L1579.126403,205.569392L1596.781247,204.607431L1601.903799,200.568550L1604.834880,191.904015L1574.249139,192.763648L1561.045143,187.530790L1541.336146,193.384495L1531.366006,192.163269L1511.561611,191.303635L1495.623868,210.331431L1489.827340,221.185811L1480.394154,225.088180L1468.020846,238.487131L1457.993147,248.120099L1455.558846,252.513581Z " data-cartodb-id="56" data-created-at="2013-02-21T00:55:49.190Z" data-name="Penfield Park" data-updated-at="2013-02-21T00:55:49.441Z"/><path d="M1464.501609,163.979248L1453.074625,203.379394L1472.711295,203.120142L1470.973341,209.703771L1474.563655,209.601435L1467.764055,237.995930L1479.341643,224.958556L1489.441379,220.687780L1494.782543,210.693018L1511.285719,190.573628L1502.726670,168.973412L1486.468041,155.334930L1471.074511,138.134813L1464.501609,163.979248Z " data-cartodb-id="57" data-created-at="2013-02-21T00:55:49.190Z" data-name="Pine Knoll Vista" data-updated-at="2013-02-21T00:55:49.441Z"/><path d="M1117.046783,356.765638L1082.496760,354.343965L1088.787875,332.644209L1057.002287,332.644209L1064.876468,303.364983L1036.475434,304.333692L1043.566306,285.075359L1059.918685,272.870759L1060.884782,259.697301L1072.776557,246.789771L1070.902750,241.168269L1069.701600,227.039360L1058.912946,226.282084L1033.404345,217.774639L1016.258314,237.995930L1005.114174,236.795214L994.206609,228.492509L985.341572,240.206335L959.877270,252.650024L948.808821,255.563085L952.508990,263.367599L946.836882,273.129997L941.221578,286.296494L956.462591,296.522607L922.780450,309.456919L919.180858,325.072060L963.770789,324.833298L958.148334,349.452854L982.365339,349.452854L991.850628,319.710133L1003.789029,319.942074L993.345679,357.522836L1010.557333,356.294947L1024.529989,346.540008L1037.098024,329.472098L1044.050538,328.244182L1039.992636,343.627156L1031.877680,348.259066L1025.079921,356.765638L1005.405749,377.503153L992.369460,386.534782L987.294003,393.376675L983.727593,395.566346L973.589192,402.640118L982.871214,417.135429L966.777721,425.436906L939.282278,425.334587L945.531876,421.303227L955.708992,423.015363L955.862654,414.952617L954.832965,412.401449L942.315995,419.584268L948.835227,399.236254L896.153287,451.903045L927.895527,444.720407L932.389687,448.260573L951.945409,447.994549L955.695753,445.450268L992.645227,447.530713L995.037284,438.137992L1001.648986,438.137992L1004.198276,428.015332L1038.283319,428.977125L1117.046783,356.765638Z " data-cartodb-id="58" data-created-at="2013-02-21T00:55:49.190Z" data-name="Fairmont" data-updated-at="2013-02-21T00:55:49.441Z"/><path d="M515.925704,796.390845L513.676998,791.160442L488.424908,791.890108L453.203625,789.182839L447.161920,783.693271L433.503779,802.507731L436.593069,803.598811L423.888781,817.250877L431.538560,822.740304L425.809330,844.336373L441.015308,834.837420L515.925704,796.390845Z " data-cartodb-id="59" data-created-at="2013-02-21T00:55:49.190Z" data-name="Tuxedo" data-updated-at="2013-02-21T00:55:49.441Z"/><path d="M467.934885,700.862784L460.237337,704.770515L415.677630,750.762201L390.556058,768.090499L302.483303,860.695142L336.481087,886.313697L352.392890,881.792811L381.485231,873.985213L425.213570,845.086467L431.088634,823.108538L423.372059,817.387261L435.815999,803.728377L433.017139,802.371346L446.969155,782.970420L453.775220,788.848692L489.363342,791.630974L514.554338,790.669451L516.404579,796.390845L568.040797,766.399278L516.265196,765.540028L518.161279,756.981593L523.663520,749.541506L495.094253,743.553944L477.682946,731.851522L470.817186,720.871882L467.934885,700.862784Z " data-cartodb-id="60" data-created-at="2013-02-21T00:55:49.190Z" data-name="Ensley" data-updated-at="2013-02-21T00:55:49.441Z"/><path d="M349.543786,810.077082L340.496406,810.077082L332.425345,804.689891L315.812560,795.899856L295.976413,802.009925L293.721310,807.628981L270.648024,807.860835L254.676242,785.179889L219.516914,784.920754L211.855699,809.088295L198.355056,810.077082L187.717515,806.872047L168.427358,873.391970L171.346338,873.391970L163.241179,901.819601L170.942929,901.328652L178.020741,873.623812L181.834679,873.521529L173.672586,903.408366L260.768814,909.620216L303.807616,862.045294L301.652684,860.565582L349.543786,810.077082Z " data-cartodb-id="61" data-created-at="2013-02-21T00:55:49.190Z" data-name="Wylam" data-updated-at="2013-02-21T00:55:49.441Z"/><path d="M430.454888,913.527324L423.477530,936.962915L424.097617,942.581394L351.747865,1012.128556L424.454478,1014.576277L447.278437,995.771665L460.046306,985.026053L476.996262,966.248295L486.996726,960.138989L500.346291,951.840924L509.469750,925.984992L524.149441,913.527324L550.801591,899.610328L560.208134,865.686606L545.364569,864.466017L541.379560,860.333737L499.397111,889.852659L494.532270,884.493071L472.346610,899.242115L430.454888,913.527324Z " data-cartodb-id="62" data-created-at="2013-02-21T00:55:49.190Z" data-name="Central Park" data-updated-at="2013-02-21T00:55:49.441Z"/><path d="M351.035738,1012.496737L423.649636,942.942776L423.155981,936.703810L430.192630,913.527324L424.849143,915.238812L380.423003,913.888714L356.393322,897.789720L356.501309,890.350432L352.053694,882.542884L338.215977,886.184139L292.299978,1040.791834L295.194611,1044.459925L297.359137,1050.309760L297.229325,1054.707346L298.473381,1057.748148L301.683004,1059.827617L351.035738,1012.496737Z " data-cartodb-id="63" data-created-at="2013-02-21T00:55:49.190Z" data-name="Belview Heights" data-updated-at="2013-02-21T00:55:49.441Z"/><path d="M590.290218,963.180009L596.239640,955.372892L591.406156,952.570501L581.759031,951.111346L582.980654,948.431679L579.673181,941.851812L590.502258,934.644603L583.968295,921.955184L581.457762,923.175720L571.971950,903.408366L583.723248,896.330505L580.166495,887.670641L572.486050,892.300607L550.947075,900.339934L524.077602,913.786434L509.789174,926.087271L500.861120,951.711373L492.121617,957.200239L495.747835,968.430183L498.384155,974.778094L496.819749,983.076015L492.861776,990.773875L490.549949,995.042112L492.506608,1001.621715L488.407233,1016.887631L501.408552,1016.758086L502.075865,1019.205798L507.366822,1015.667182L590.290218,963.180009Z " data-cartodb-id="64" data-created-at="2013-02-21T00:55:49.190Z" data-name="Oakwood Place" data-updated-at="2013-02-21T00:55:49.441Z"/><path d="M501.794968,1019.437615L501.372655,1016.887631L488.160342,1016.996721L492.318292,1001.519441L490.427740,994.680744L496.765387,982.346455L498.055010,974.546270L491.882749,957.588890L477.099045,966.350571L460.403801,985.155601L425.452255,1014.576277L415.274529,1023.835303L389.542815,1057.516339L381.072776,1082.899276L386.747575,1082.667470L403.365383,1080.949382L409.723122,1078.869946L414.397150,1076.920046L501.794968,1019.437615Z " data-cartodb-id="65" data-created-at="2013-02-21T00:55:49.190Z" data-name="Germania Park" data-updated-at="2013-02-21T00:55:49.441Z"/><path d="M381.103802,1083.260620L389.165890,1057.148170L415.124003,1023.596669L424.223190,1014.937639L351.514671,1012.496737L302.170868,1059.466267L315.072355,1059.698077L296.196976,1130.493536L299.979245,1128.305097L308.423987,1125.134921L318.755209,1123.655502L326.488893,1120.376234L331.276535,1115.978864L331.709840,1108.281729L339.184849,1101.573118L363.461468,1098.266524L379.648538,1085.837747L381.103802,1083.260620Z " data-cartodb-id="66" data-created-at="2013-02-21T00:55:49.190Z" data-name="Green Acres" data-updated-at="2013-02-21T00:55:49.441Z"/><path d="M502.011628,1019.437615L505.643607,1024.067118L501.670915,1026.017096L495.859188,1048.721171L465.070969,1058.245858L462.212528,1068.254546L489.699660,1068.752251L486.097475,1083.628781L483.007962,1084.119663L480.709619,1092.416900L505.551628,1091.926022L528.152645,1077.540469L551.197424,1065.813742L568.683533,1056.555009L582.655575,1053.848283L591.487524,1053.848283L605.454546,1064.354712L611.531607,1068.022738L621.198732,1033.121536L630.203212,999.671701L610.388934,998.812603L610.015473,994.810291L590.421351,963.180009L502.011628,1019.437615Z " data-cartodb-id="67" data-created-at="2013-02-21T00:55:49.190Z" data-name="West End Manor" data-updated-at="2013-02-21T00:55:49.441Z"/><path d="M661.062546,1043.730398L665.156977,1035.535128L645.899944,1034.082882L648.067250,1025.785281L641.932306,1025.785281L639.314362,1033.980612L632.972466,1035.201043L633.171542,1032.753361L621.684406,1032.623817L611.336265,1068.254546L591.256293,1054.209635L582.171794,1054.339176L568.811686,1057.018629L528.050667,1077.908632L519.333299,1083.628781L529.798207,1104.743350L527.919083,1112.310970L514.165019,1111.717834L502.758017,1119.285415L547.484010,1120.376234L557.726941,1112.440506L560.447645,1115.978864L567.899736,1110.729273L571.972627,1112.679124L582.126183,1125.966666L594.030804,1114.397172L631.503191,1115.119842L636.051483,1100.114127L648.310453,1070.443084L661.062546,1043.730398Z " data-cartodb-id="68" data-created-at="2013-02-21T00:55:49.190Z" data-name="Mason City" data-updated-at="2013-02-21T00:55:49.441Z"/><path d="M572.063997,1113.769948L571.765700,1112.808659L567.909480,1110.858809L560.341312,1116.033406L557.782262,1112.549588L547.767639,1120.608032L502.501431,1119.285415L513.902732,1111.717834L527.771403,1111.588299L529.631190,1104.872886L519.211891,1083.758319L505.611011,1092.185097L480.514269,1092.648704L482.745679,1084.119663L485.978760,1083.131081L489.418776,1068.984059L462.074642,1068.752251L456.644832,1089.607981L453.738470,1102.302613L446.975285,1124.044106L462.814696,1118.528659L471.809750,1131.611616L468.486079,1147.216915L472.141066,1147.216915L474.765091,1152.834505L470.458551,1166.019388L464.652389,1166.251179L461.636942,1177.615705L474.639391,1177.486176L485.684220,1167.601019L489.783933,1175.406890L496.774026,1169.189467L515.506649,1158.083931L572.063997,1113.769948Z " data-cartodb-id="69" data-created-at="2013-02-21T00:55:49.190Z" data-name="Powderly" data-updated-at="2013-02-21T00:55:49.441Z"/><path d="M489.622625,1175.536419L485.739550,1167.710097L474.724923,1177.486176L461.490694,1177.670243L464.652389,1166.251179L470.469603,1165.835318L474.633944,1152.834505L472.105197,1147.346447L468.415652,1147.162375L471.800007,1131.482083L462.738907,1118.658193L446.946962,1124.146369L420.361939,1139.410880L388.597090,1159.542859L385.556602,1170.048454L394.443565,1169.687134L390.849610,1181.883342L405.363910,1181.153891L397.561915,1213.740214L393.170772,1215.451315L393.768171,1218.628094L396.677701,1217.407830L410.072631,1237.531820L489.641204,1192.750077L489.622625,1175.536419Z " data-cartodb-id="70" data-created-at="2013-02-21T00:55:49.190Z" data-name="Garden Highlands" data-updated-at="2013-02-21T00:55:49.441Z"/><path d="M392.984606,1215.505852L397.538945,1213.658408L405.204446,1181.256150L390.669380,1182.060592L394.369631,1169.789395L385.556602,1170.048454L384.219643,1172.673136L379.958368,1176.756722L371.277658,1184.692068L367.390952,1188.823337L379.176327,1189.320998L372.692158,1214.469647L392.984606,1215.505852Z " data-cartodb-id="71" data-created-at="2013-02-21T00:55:49.190Z" data-name="Industrial Center" data-updated-at="2013-02-21T00:55:49.441Z"/><path d="M367.335935,1188.877875L363.481930,1196.185964L359.503846,1203.180423L355.807203,1207.263915L350.318614,1210.590691L343.032016,1237.218237L359.505681,1238.990661L370.370469,1262.447792L409.905626,1237.661343L396.618872,1217.455550L393.754960,1218.675814L393.016973,1215.533120L372.593413,1214.517367L379.130710,1189.320998L367.335935,1188.877875Z " data-cartodb-id="72" data-created-at="2013-02-21T00:55:49.190Z" data-name="West Goldwire" data-updated-at="2013-02-21T00:55:49.441Z"/><path d="M327.236877,1119.878548L342.690698,1134.754507L343.521945,1141.490221L357.709775,1155.772823L364.919713,1156.134147L359.474905,1177.977023L388.632962,1159.413328L446.935372,1124.044106L453.840405,1100.843623L456.502107,1089.505714L461.959973,1068.384086L464.819780,1058.061773L495.731548,1048.543903L501.421865,1025.969369L505.415372,1023.964847L501.844595,1019.567159L414.479179,1077.097310L403.477600,1080.997106L386.436179,1082.844733L381.274333,1082.953818L379.825294,1085.837747L363.495997,1098.450603L339.264991,1101.757196L331.871487,1108.336271L331.276535,1115.978864L327.236877,1119.878548Z " data-cartodb-id="73" data-created-at="2013-02-21T00:55:49.190Z" data-name="Jones Valley" data-updated-at="2013-02-21T00:55:49.441Z"/><path d="M296.132760,1130.725333L278.479368,1201.046640L269.105415,1208.354663L271.752176,1213.869739L293.850119,1214.830956L347.487807,1186.403206L345.362145,1194.079439L350.110388,1194.208967L348.966433,1198.340207L353.612755,1198.837864L359.389373,1177.977023L364.874097,1156.134147L357.136095,1155.950076L343.466924,1141.544761L342.532858,1134.706784L327.110081,1120.192158L318.628092,1123.785037L308.458520,1125.318995L299.888014,1128.305097L296.132760,1130.725333Z " data-cartodb-id="74" data-created-at="2013-02-21T00:55:49.190Z" data-name="Riley" data-updated-at="2013-02-21T00:55:49.441Z"/><path d="M320.100277,1201.414769L323.125875,1212.151819L334.994783,1212.513128L338.233627,1214.469647L332.279512,1218.859876L328.456949,1230.462553L317.318075,1248.534443L315.319909,1254.022087L318.710916,1261.588864L320.055792,1268.657967L318.033037,1275.965622L315.625019,1280.751024L307.492677,1281.350902L298.334254,1310.526476L370.280867,1262.318271L359.469825,1239.120184L342.999608,1237.170518L350.436896,1209.833987L355.544902,1207.263915L359.526497,1203.098617L367.384705,1188.537012L384.154878,1172.598145L388.498343,1159.590581L359.526762,1178.263350L353.698287,1198.837864L348.966433,1198.340207L349.956274,1194.127160L345.213694,1193.977181L347.267621,1186.560003L320.100277,1201.414769Z " data-cartodb-id="75" data-created-at="2013-02-21T00:55:49.190Z" data-name="Tarpley City" data-updated-at="2013-02-21T00:55:49.441Z"/><path d="M293.875520,1215.192264L268.668098,1230.196688L263.491603,1249.366112L289.186374,1250.354571L287.456421,1256.932915L299.459884,1256.932915L298.421054,1260.232300L311.578799,1260.470892L314.987302,1248.323117L317.182862,1248.404921L328.458234,1230.148968L332.007454,1218.730350L337.946510,1214.415110L334.397859,1212.465408L322.894090,1212.206356L319.830115,1201.278425L293.875520,1215.192264Z " data-cartodb-id="76" data-created-at="2013-02-21T00:55:49.190Z" data-name="Grasselli Heights" data-updated-at="2013-02-21T00:55:49.441Z"/><path d="M268.559913,1230.278492L246.506984,1244.866912L234.884102,1254.799217L239.217737,1259.557427L261.673702,1257.662325L263.274915,1249.366112L268.559913,1230.278492Z " data-cartodb-id="77" data-created-at="2013-02-21T00:55:49.190Z" data-name="Hillman Park" data-updated-at="2013-02-21T00:55:49.441Z"/><path d="M239.166778,1259.741483L238.193559,1263.586213L235.257383,1269.619144L232.517411,1269.155598L230.060001,1274.097811L231.122997,1278.126554L228.796802,1286.838412L231.463539,1286.783878L228.605761,1299.476643L231.695253,1299.790211L230.847751,1303.634826L235.796649,1304.132444L234.647923,1308.447397L217.360520,1308.808680L213.902751,1321.630752L219.442260,1324.568701L232.228673,1324.255138L246.494091,1316.743246L250.093018,1305.141313L262.804340,1295.209379L272.127421,1293.130275L277.214855,1289.830971L279.761609,1293.362045L291.635738,1284.888815L295.634306,1289.149295L299.565290,1286.422589L300.479281,1287.199701L307.482321,1280.935078L316.594438,1275.188504L318.436371,1267.751324L317.775562,1261.507061L315.908628,1261.329821L317.533045,1259.066609L316.530407,1257.662325L315.259160,1259.741483L313.695442,1260.055061L313.444462,1260.961709L311.472506,1260.545878L298.244281,1260.232300L299.313673,1257.007901L287.279648,1256.932915L289.047712,1250.402289L263.359165,1249.679692L261.854534,1257.791847L239.166778,1259.741483Z " data-cartodb-id="78" data-created-at="2013-02-21T00:55:49.190Z" data-name="East Brownville" data-updated-at="2013-02-21T00:55:49.441Z"/><path d="M228.207067,1286.599826L231.157580,1278.310607L229.733525,1274.329583L232.327426,1269.203316L235.220916,1269.441906L238.206770,1263.538495L239.240707,1259.639230L234.751661,1255.112796L232.834982,1256.701140L231.057923,1252.904109L224.896580,1250.484093L219.861185,1248.404921L214.584860,1246.557522L211.128338,1244.110227L210.659460,1240.469952L196.771403,1251.806581L193.777074,1247.545983L190.567659,1256.932915L172.198908,1273.784237L178.294351,1283.198253L177.102060,1294.405005L168.538085,1301.610270L173.029378,1306.129731L185.636453,1292.353167L188.202832,1297.213495L194.835323,1300.281014L197.518753,1296.252337L200.858887,1291.726027L199.237289,1288.788007L204.741041,1283.532275L215.387040,1311.385374L217.515912,1308.576913L210.920513,1286.340788L228.207067,1286.599826Z " data-cartodb-id="79" data-created-at="2013-02-21T00:55:49.190Z" data-name="West Brownville" data-updated-at="2013-02-21T00:55:49.441Z"/><path d="M268.690617,1208.122879L266.307655,1203.364487L260.084337,1208.252405L263.419605,1213.010780L248.377997,1223.488688L246.351891,1221.538999L231.287457,1233.993782L226.721830,1228.015228L210.659460,1240.469952L211.333424,1244.007972L214.852514,1246.373464L231.219276,1252.795038L232.992840,1256.748858L234.899202,1254.744682L246.275195,1244.921448L268.650794,1230.094432L293.707915,1215.015018L271.440791,1214.046985L268.690617,1208.122879Z " data-cartodb-id="80" data-created-at="2013-02-21T00:55:49.190Z" data-name="Hillman" data-updated-at="2013-02-21T00:55:49.441Z"/><path d="M193.616702,1247.177867L179.228681,1209.111368L157.848833,1212.022293L150.078492,1217.141962L143.329576,1224.708946L131.585293,1235.220848L135.961975,1245.957628L141.554074,1254.983274L140.395887,1259.639230L136.026417,1259.871005L105.982106,1259.639230L112.848509,1232.644008L104.162495,1234.954984L99.363338,1254.485638L102.875948,1255.474093L100.739377,1261.459343L79.811671,1261.459343L51.686359,1291.855545L46.718256,1309.797095L72.975058,1310.035678L66.130033,1332.864451L40.136147,1333.096213L33.486739,1358.371690L59.331289,1358.371690L62.465966,1361.180047L65.601687,1364.479178L91.564486,1337.022532L98.598131,1308.938196L82.586119,1308.317880L88.378209,1295.884234L92.494903,1285.877248L131.007604,1286.006766L154.501700,1286.006766L171.091884,1272.427686L172.294202,1273.913757L190.405392,1256.571618L193.616702,1247.177867Z " data-cartodb-id="81" data-created-at="2013-02-21T00:55:49.190Z" data-name="Roosevelt" data-updated-at="2013-02-21T00:55:49.441Z"/><path d="M105.704331,1657.967571L112.955598,1632.200144L84.835536,1631.607236L92.717912,1606.698027L167.281914,1606.936558L181.724825,1551.998409L203.270644,1551.507697L215.336277,1542.954292L212.607455,1557.716550L223.551469,1547.711491L239.367027,1538.817287L251.604117,1525.867768L264.617064,1518.302466L302.368184,1385.725659L316.647370,1386.325490L313.440226,1397.919911L302.923227,1399.140012L293.765683,1430.991754L310.668140,1431.387085L295.044996,1496.696823L302.080107,1496.437826L305.660254,1483.487905L378.970284,1483.024432L442.695067,1419.036362L484.422208,1378.759412L455.892578,1466.046212L492.882786,1434.065786L512.406134,1414.769475L524.485590,1406.474227L530.956971,1412.192978L539.924748,1406.344719L535.870482,1400.237420L554.066265,1388.404450L553.924784,1380.109040L565.133967,1367.887362L528.110164,1366.305966L536.384319,1357.151552L556.926667,1346.279328L569.630648,1338.242688L571.526508,1333.593820L577.319663,1323.348533L571.716536,1313.566699L569.959752,1307.486247L574.106645,1296.122820L579.173719,1295.884234L576.854238,1303.321259L585.359111,1303.559843L586.740912,1295.884234L621.136348,1295.025327L619.139261,1288.556237L665.120786,1265.126828L671.013033,1273.552464L681.427672,1267.669522L685.759084,1255.474093L688.537526,1252.665516L685.719963,1244.607867L673.100201,1252.174696L613.170547,1255.712686L607.845980,1259.871005L558.359386,1257.423733L561.528371,1246.918822L568.697410,1243.019509L573.066428,1229.105958L565.529278,1227.885704L571.736332,1206.404951L586.445840,1208.122879L612.180827,1214.960481L617.917568,1199.567306L630.878546,1181.024362L642.356763,1167.839627L658.348697,1167.601019L662.411352,1151.975506L644.252760,1151.246038L636.825200,1143.678639L627.864552,1125.605334L630.684458,1116.347017L594.097763,1114.628972L582.221461,1126.096200L572.674100,1113.769948L515.955419,1158.193010L496.483418,1169.291727L489.850908,1175.638679L490.024892,1192.620549L410.122313,1237.661343L370.080864,1263.040862L298.299399,1311.126341L204.513893,1384.635055L128.214375,1385.364396L119.115681,1414.639969L104.529802,1429.308191L83.853226,1442.224547L72.379731,1454.445556L59.203354,1467.627492L53.398617,1478.859982L46.912054,1504.991522L19.023662,1504.991522L0.602785,1576.779119L44.090919,1577.501542L58.108019,1604.721627L68.527356,1605.116907L56.067854,1651.622872L93.546040,1657.238375L105.704331,1657.967571Z " data-cartodb-id="82" data-created-at="2013-02-21T00:55:49.190Z" data-name="Oxmoor" data-updated-at="2013-02-21T00:55:49.441Z"/><path d="M873.289083,986.430624L857.490691,977.041788L845.103223,976.994060L863.428087,958.734390L878.922688,903.585653L866.633249,902.733312L873.558071,876.487741L863.934678,877.783326L851.532800,888.632093L828.711353,898.464777L819.392104,904.628919L816.309906,902.419650L743.056071,984.535135L734.304504,993.508003L686.026784,1023.651214L685.067584,1025.055744L689.841836,1025.110289L686.008544,1027.319352L671.389379,1041.153189L666.659284,1048.802987L660.911372,1064.225172L656.321733,1075.774649L646.160414,1097.850643L636.995385,1120.737567L642.112378,1117.021963L651.175700,1108.649884L649.323843,1102.302613L651.970651,1100.898165L650.176483,1098.893755L651.813264,1095.041735L658.122262,1100.530008L667.390270,1090.780637L662.617985,1078.631322L666.717518,1076.551883L679.286741,1095.096277L685.154745,1091.510138L697.407776,1086.383171L692.012952,1063.447931L669.774945,1074.158819L664.430245,1064.716061L668.776549,1061.416193L667.360869,1059.466267L670.935792,1056.295927L672.494145,1057.277711L689.418723,1044.691737L694.317439,1054.652802L725.591246,1043.184958L730.731131,1060.141242L739.724736,1058.136771L736.486911,1042.012259L738.986004,1035.664671L743.949802,1027.005720L747.493792,1028.826150L742.282429,1041.364548L746.012423,1055.382323L747.278212,1065.575116L747.090346,1078.815403L749.723959,1089.423901L760.835458,1096.575726L763.972099,1092.001017L768.984351,1091.196521L787.902108,1078.944942L804.326373,1067.709115L807.970547,1064.122903L811.219448,1063.550199L821.539426,1015.592182L873.289083,986.430624Z " data-cartodb-id="83" data-created-at="2013-02-21T00:55:49.190Z" data-name="Glen Iris" data-updated-at="2013-02-21T00:55:49.441Z"/><path d="M1495.351933,599.141697L1500.590327,592.171311L1508.867016,585.221348L1524.067225,572.419406L1534.328145,565.837644L1538.156710,551.555447L1547.745882,551.323547L1549.492183,544.243774L1562.625636,543.152476L1570.552537,509.219465L1584.690457,497.146601L1666.368124,496.785095L1733.398727,439.331697L1712.466737,422.756156L1717.076468,418.363260L1685.973081,397.878799L1688.481364,387.892249L1679.948992,386.043637L1673.948851,382.134940L1677.684260,371.650296L1591.292929,371.909514L1580.675426,363.014214L1578.304442,364.965182L1565.436437,356.663313L1570.870401,351.171908L1564.767024,345.912415L1565.155200,340.448250L1555.077500,343.367932L1552.819632,344.459400L1542.804550,351.403844L1491.533812,414.093133L1463.702415,448.724409L1496.408332,482.890926L1519.338396,496.785095L1522.672733,496.682782L1514.169904,528.760896L1498.971542,559.726465L1478.827723,574.506466L1476.378119,586.940086L1483.028125,595.110881L1495.351933,599.141697Z " data-cartodb-id="84" data-created-at="2013-02-21T00:55:49.190Z" data-name="South East Lake" data-updated-at="2013-02-21T00:55:49.441Z"/><path d="M1717.500018,418.254120L1721.738293,413.001724L1728.015865,396.657770L1765.094149,397.019303L1762.808285,408.240444L1806.172717,368.369138L1803.554759,364.965182L1812.324426,359.835357L1814.172531,361.165566L1819.787377,356.765638L1813.979352,346.042027L1846.870778,326.525097L1844.879109,322.261485L1849.900869,319.218963L1848.525101,307.867424L1838.206679,307.137484L1837.491665,310.186857L1832.128487,310.084530L1834.880290,299.694800L1828.012495,297.641403L1820.955538,288.609145L1819.161630,284.106636L1812.955730,278.724070L1803.582634,278.983306L1772.881070,275.081103L1750.420578,273.129997L1693.876563,268.497814L1679.921515,268.961715L1668.107181,277.994113L1627.501682,301.782303L1600.812236,317.261102L1588.641412,328.974110L1565.411675,340.448250L1564.862136,346.042027L1570.864876,351.356092L1565.539125,356.765638L1578.327159,364.883324L1580.756992,362.884604L1591.142766,371.834477L1677.712650,371.547973L1673.795050,382.216798L1679.848182,385.934494L1688.891845,387.994570L1685.887587,397.878799L1717.500018,418.254120Z " data-cartodb-id="85" data-created-at="2013-02-21T00:55:49.190Z" data-name="Roebuck Springs" data-updated-at="2013-02-21T00:55:49.441Z"/><path d="M1680.313941,267.999802L1696.261775,256.293055L1744.442777,187.530790L1779.310899,127.279720L1783.509850,122.647002L1766.844403,121.916955L1750.450756,130.691136L1728.367735,136.313129L1715.475130,129.961093L1710.424431,130.459160L1705.930416,137.404775L1701.573996,145.578447L1689.630295,144.118379L1684.110456,135.351115L1681.653730,143.886405L1637.834353,141.675832L1638.495470,138.496420L1626.224652,139.485723L1622.593731,144.718781L1617.267149,151.070742L1614.764894,153.492802L1609.548929,154.113668L1605.137336,168.741443L1610.189202,169.962691L1605.691346,185.681887L1604.929948,192.033642L1602.084355,200.698176L1596.954237,204.784814L1579.225360,205.828644L1575.624853,218.791169L1565.769811,219.514338L1557.344162,242.812425L1551.320250,248.065521L1559.813869,245.514020L1590.284864,247.574324L1586.757995,261.054903L1577.578659,261.232278L1570.973310,285.020783L1562.790976,284.891165L1553.465041,287.156064L1547.047914,292.101989L1537.281483,294.701151L1518.692759,295.246906L1512.616478,317.131488L1524.892157,322.882268L1528.909221,317.342964L1553.836466,321.845356L1553.147158,337.016934L1565.301416,340.373212L1588.846497,328.871783L1600.933706,317.131488L1667.425396,278.253350L1680.313941,267.999802Z " data-cartodb-id="86" data-created-at="2013-02-21T00:55:49.190Z" data-name="Roebuck" data-updated-at="2013-02-21T00:55:49.441Z"/><path d="M1779.455731,128.009764L1743.786432,188.806600L1696.271639,256.729672L1680.339102,268.545568L1694.119506,268.238575L1767.884018,274.276102L1803.457078,278.799112L1812.970876,278.669493L1819.050922,283.560876L1820.879197,288.247580L1827.887110,297.641403L1834.979030,299.647047L1835.035030,300.554361L1840.128437,300.683977L1843.150610,288.847914L1848.608372,288.609145L1849.388311,285.798489L1843.734649,285.798489L1847.544673,269.091334L1857.718720,264.097565L1886.625583,248.611296L1903.563033,246.168951L1902.052458,251.920052L1905.410686,251.422034L1907.512264,243.849401L1916.834258,235.805988L1920.474541,236.304012L1922.242802,233.854821L1906.488691,227.639722L1916.675586,217.876974L1925.575093,232.033275L1947.272391,230.941711L1948.375623,228.362886L1933.920096,227.510098L1936.048310,217.645014L1953.753438,217.774639L1955.970554,222.147759L1997.200546,223.368956L1999.397215,215.925780L1988.597017,217.406232L1994.552059,198.126112L1975.396406,209.342184L1940.481772,204.341356L1943.283019,196.898069L1964.567170,179.596180L1967.234081,174.834025L1967.200559,171.054308L1964.857000,160.076690L1953.860843,146.438112L1939.220594,138.864851L1933.083208,144.220720L1921.915556,144.357175L1915.901281,149.249076L1905.227103,148.860181L1909.550703,128.139397L1891.813921,130.322703L1885.591068,149.119445L1859.600298,148.621386L1864.814390,132.042054L1817.731321,120.593318L1815.011381,118.014268L1787.538282,130.691136L1779.455731,128.009764Z " data-cartodb-id="87" data-created-at="2013-02-21T00:55:49.190Z" data-name="Huffman" data-updated-at="2013-02-21T00:55:49.441Z"/></g><g fill="#000" font-family="Arial" font-size="12px" id="mylayer-label" stroke="none"><text text-anchor="middle" y="666.513230544"><tspan dy="0" x="643.887968844"><![CDATA[Thomas]]></tspan></text><text text-anchor="middle" y="479.870205972"><tspan dy="0" x="1403.16217497"><![CDATA[Wahouma]]></tspan></text><text text-anchor="middle" y="495.832832011"><tspan dy="0" x="1309.42224979"><![CDATA[Woodlawn]]></tspan></text><text text-anchor="middle" y="669.981974896"><tspan dy="0" x="1472.56081835"><![CDATA[Eastwood]]></tspan></text><text text-anchor="middle" y="434.919418193"><tspan dy="0" x="1219.04608455"><![CDATA[Inglenook]]></tspan></text><text text-anchor="middle" y="422.891517692"><tspan dy="0" x="1106.58816621"><![CDATA[Harriman Park]]></tspan></text><text text-anchor="middle" y="748.635906827"><tspan dy="0" x="1357.06467882"><![CDATA[Crestline]]></tspan></text><text text-anchor="middle" y="860.937665476"><tspan dy="0" x="444.522874186"><![CDATA[Ensley Highlands]]></tspan></text><text text-anchor="middle" y="578.263358719"><tspan dy="0" x="553.323690903"><![CDATA[North Pratt]]></tspan></text><text text-anchor="middle" y="650.069531446"><tspan dy="0" x="506.474842337"><![CDATA[Central Pratt]]></tspan></text><text text-anchor="middle" y="560.200032071"><tspan dy="0" x="461.865439338"><![CDATA[Sandusky]]></tspan></text><text text-anchor="middle" y="242.579813062"><tspan dy="0" x="798.584285293"><![CDATA[Hooper City]]></tspan></text><text text-anchor="middle" y="408.054814653"><tspan dy="0" x="671.78469996"><![CDATA[Smithfield Estates]]></tspan></text><text text-anchor="middle" y="706.078819301"><tspan dy="0" x="986.152561325"><![CDATA[Central City]]></tspan></text><text text-anchor="middle" y="649.586213912"><tspan dy="0" x="928.919339977"><![CDATA[Druid Hills]]></tspan></text><text text-anchor="middle" y="603.102615764"><tspan dy="0" x="1010.99325201"><![CDATA[Norwood]]></tspan></text><text text-anchor="middle" y="727.6591677"><tspan dy="0" x="874.249765054"><![CDATA[Fountain Heights]]></tspan></text><text text-anchor="middle" y="661.793252192"><tspan dy="0" x="1113.2143622"><![CDATA[North Avondale]]></tspan></text><text text-anchor="middle" y="567.954838051"><tspan dy="0" x="1110.72193018"><![CDATA[East Birmingham]]></tspan></text><text text-anchor="middle" y="602.720509909"><tspan dy="0" x="903.057352219"><![CDATA[Evergreen]]></tspan></text><text text-anchor="middle" y="678.288707584"><tspan dy="0" x="816.940848796"><![CDATA[Enon Ridge]]></tspan></text><text text-anchor="middle" y="696.426188612"><tspan dy="0" x="756.310612978"><![CDATA[East Thomas]]></tspan></text><text text-anchor="middle" y="789.680967267"><tspan dy="0" x="794.946871598"><![CDATA[Smithfield]]></tspan></text><text text-anchor="middle" y="801.02199864"><tspan dy="0" x="715.399221764"><![CDATA[Graymont]]></tspan></text><text text-anchor="middle" y="819.391649035"><tspan dy="0" x="1049.69212799"><![CDATA[Highland Park]]></tspan></text><text text-anchor="middle" y="666.767922409"><tspan dy="0" x="1213.05813081"><![CDATA[East Avondale]]></tspan></text><text text-anchor="middle" y="634.669698887"><tspan dy="0" x="1297.64695047"><![CDATA[Crestwood North]]></tspan></text><text text-anchor="middle" y="617.220583789"><tspan dy="0" x="1386.5545059"><![CDATA[Oak Ridge Park]]></tspan></text><text text-anchor="middle" y="708.669654773"><tspan dy="0" x="1291.29405154"><![CDATA[Crestwood South]]></tspan></text><text text-anchor="middle" y="558.947273346"><tspan dy="0" x="1187.30282233"><![CDATA[Kingston]]></tspan></text><text text-anchor="middle" y="511.41548015"><tspan dy="0" x="917.106168708"><![CDATA[North Birmingham]]></tspan></text><text text-anchor="middle" y="497.997597405"><tspan dy="0" x="1028.83715123"><![CDATA[Collegeville]]></tspan></text><text text-anchor="middle" y="579.448887253"><tspan dy="0" x="806.996115884"><![CDATA[Acipco-Finley]]></tspan></text><text text-anchor="middle" y="712.319805314"><tspan dy="0" x="501.751866947"><![CDATA[South Pratt]]></tspan></text><text text-anchor="middle" y="776.900072828"><tspan dy="0" x="624.364782975"><![CDATA[Bush Hills]]></tspan></text><text text-anchor="middle" y="830.460316139"><tspan dy="0" x="544.772585044"><![CDATA[Fairview]]></tspan></text><text text-anchor="middle" y="850.632653564"><tspan dy="0" x="606.142620755"><![CDATA[Rising - West Princeton]]></tspan></text><text text-anchor="middle" y="877.453646257"><tspan dy="0" x="773.442033646"><![CDATA[North Titusville]]></tspan></text><text text-anchor="middle" y="910.257201354"><tspan dy="0" x="655.69586324"><![CDATA[Arlington - West End]]></tspan></text><text text-anchor="middle" y="885.065910899"><tspan dy="0" x="1058.86735889"><![CDATA[Redmont Park]]></tspan></text><text text-anchor="middle" y="566.990127537"><tspan dy="0" x="1357.57726599"><![CDATA[South Woodlawn]]></tspan></text><text text-anchor="middle" y="572.21712497"><tspan dy="0" x="1434.50264402"><![CDATA[Gate City]]></tspan></text><text text-anchor="middle" y="511.24129643"><tspan dy="0" x="1433.53117075"><![CDATA[East Lake]]></tspan></text><text text-anchor="middle" y="532.382104191"><tspan dy="0" x="1489.71698421"><![CDATA[Brown Springs]]></tspan></text><text text-anchor="middle" y="746.56924641"><tspan dy="0" x="725.50263338"><![CDATA[College Hills]]></tspan></text><text text-anchor="middle" y="369.750194759"><tspan dy="0" x="1446.10878827"><![CDATA[North East Lake]]></tspan></text><text text-anchor="middle" y="765.535931878"><tspan dy="0" x="1025.18498947"><![CDATA[Southside]]></tspan></text><text text-anchor="middle" y="744.713854745"><tspan dy="0" x="1141.98053428"><![CDATA[Forest Park]]></tspan></text><text text-anchor="middle" y="868.583079879"><tspan dy="0" x="917.833695477"><![CDATA[Five Points South]]></tspan></text><text text-anchor="middle" y="938.708310474"><tspan dy="0" x="745.598495159"><![CDATA[South Titusville]]></tspan></text><text text-anchor="middle" y="1004.38644124"><tspan dy="0" x="674.221505321"><![CDATA[Woodland Park]]></tspan></text><text text-anchor="middle" y="279.58809862"><tspan dy="0" x="1523.88316611"><![CDATA[Zion City]]></tspan></text><text text-anchor="middle" y="303.872956187"><tspan dy="0" x="1435.1109624"><![CDATA[Airport Highlands]]></tspan></text><text text-anchor="middle" y="274.179855106"><tspan dy="0" x="1449.92281023"><![CDATA[Brownsville Heights]]></tspan></text><text text-anchor="middle" y="208.298622601"><tspan dy="0" x="1439.59539785"><![CDATA[Brummitt Heights]]></tspan></text><text text-anchor="middle" y="216.185471295"><tspan dy="0" x="1528.20759436"><![CDATA[Penfield Park]]></tspan></text><text text-anchor="middle" y="179.891287079"><tspan dy="0" x="1481.4837547"><![CDATA[Pine Knoll Vista]]></tspan></text><text text-anchor="middle" y="328.954897328"><tspan dy="0" x="1011.08588891"><![CDATA[Fairmont]]></tspan></text><text text-anchor="middle" y="802.316041276"><tspan dy="0" x="461.289431598"><![CDATA[Tuxedo]]></tspan></text><text text-anchor="middle" y="793.259347644"><tspan dy="0" x="418.801008947"><![CDATA[Ensley]]></tspan></text><text text-anchor="middle" y="841.835505474"><tspan dy="0" x="244.946070258"><![CDATA[Wylam]]></tspan></text><text text-anchor="middle" y="938.001841484"><tspan dy="0" x="459.901784956"><![CDATA[Central Park]]></tspan></text><text text-anchor="middle" y="957.144219897"><tspan dy="0" x="353.156192215"><![CDATA[Belview Heights]]></tspan></text><text text-anchor="middle" y="948.025113304"><tspan dy="0" x="539.306663202"><![CDATA[Oakwood Place]]></tspan></text><text text-anchor="middle" y="1020.0978108"><tspan dy="0" x="446.415330223"><![CDATA[Germania Park]]></tspan></text><text text-anchor="middle" y="1055.50895154"><tspan dy="0" x="351.888971724"><![CDATA[Green Acres]]></tspan></text><text text-anchor="middle" y="1025.49887397"><tspan dy="0" x="554.72186019"><![CDATA[West End Manor]]></tspan></text><text text-anchor="middle" y="1076.3594735"><tspan dy="0" x="591.914748559"><![CDATA[Mason City]]></tspan></text><text text-anchor="middle" y="1116.56384641"><tspan dy="0" x="495.601846377"><![CDATA[Powderly]]></tspan></text><text text-anchor="middle" y="1171.54660858"><tspan dy="0" x="436.710110733"><![CDATA[Garden Highlands]]></tspan></text><text text-anchor="middle" y="1188.5121102"><tspan dy="0" x="387.709843773"><![CDATA[Industrial Center]]></tspan></text><text text-anchor="middle" y="1221.82456486"><tspan dy="0" x="374.188627889"><![CDATA[West Goldwire]]></tspan></text><text text-anchor="middle" y="1100.64001054"><tspan dy="0" x="406.157761396"><![CDATA[Jones Valley]]></tspan></text><text text-anchor="middle" y="1163.08802005"><tspan dy="0" x="317.620775429"><![CDATA[Riley]]></tspan></text><text text-anchor="middle" y="1235.27314967"><tspan dy="0" x="340.080359349"><![CDATA[Tarpley City]]></tspan></text><text text-anchor="middle" y="1226.80466627"><tspan dy="0" x="300.910375103"><![CDATA[Grasselli Heights]]></tspan></text><text text-anchor="middle" y="1242.61475223"><tspan dy="0" x="253.379643665"><![CDATA[Hillman Park]]></tspan></text><text text-anchor="middle" y="1275.14642329"><tspan dy="0" x="263.746759869"><![CDATA[East Brownville]]></tspan></text><text text-anchor="middle" y="1266.44027084"><tspan dy="0" x="204.598212769"><![CDATA[West Brownville]]></tspan></text><text text-anchor="middle" y="1225.62363295"><tspan dy="0" x="248.151639735"><![CDATA[Hillman]]></tspan></text><text text-anchor="middle" y="1273.64822807"><tspan dy="0" x="115.087298097"><![CDATA[Roosevelt]]></tspan></text><text text-anchor="middle" y="1376.70738987"><tspan dy="0" x="339.005074781"><![CDATA[Oxmoor]]></tspan></text><text text-anchor="middle" y="991.619745506"><tspan dy="0" x="783.747551413"><![CDATA[Glen Iris]]></tspan></text><text text-anchor="middle" y="442.220743942"><tspan dy="0" x="1585.22835824"><![CDATA[South East Lake]]></tspan></text><text text-anchor="middle" y="327.870112763"><tspan dy="0" x="1715.34294584"><![CDATA[Roebuck Springs]]></tspan></text><text text-anchor="middle" y="216.87380942"><tspan dy="0" x="1647.0563132"><![CDATA[Roebuck]]></tspan></text><text text-anchor="middle" y="198.718143895"><tspan dy="0" x="1834.77185159"><![CDATA[Huffman]]></tspan></text></g></svg>