<?xml version="1.0" encoding="utf-8"?><!DOCTYPE svg  PUBLIC '-//W3C//DTD SVG 1.1//EN'  'http://www.w3.org/Graphics/SVG/1.1/DTD/svg11.dtd'><svg enable_background="new 0 0 2000 1690" height="1690px" pretty_print="False" style="stroke-linejoin: round; stroke:#000; fill: none;" version="1.1" viewBox="0 0 2000 1690" width="2000px" xmlns="http://www.w3.org/2000/svg" xmlns:xlink="http://www.w3.org/1999/xlink"><defs><style type="text/css"><![CDATA[path { fill-rule: evenodd; }]]></style></defs><metadata><views><view h="1690.5530606" padding="0" w="2000"><proj flip="auto" id="robinson" lon0="-78.4937784289"/><bbox h="1.04" w="1.23" x="-1082.26" y="-639.28"/></view></views></metadata><g class="" id="mylayer"><path d="M1341.416357,107.147384L1259.096061,41.116318L1212.393422,93.108763L1201.567170,100.904909L1061.888158,239.157025L1061.192185,246.953432L1055.701700,251.115220L1051.985534,207.499873L1046.893033,192.573092L1006.921339,147.598843L800.277655,277.612033L818.390661,333.769160L806.195194,357.158926L741.087542,373.334839L789.283154,437.817117L813.320108,492.255989L819.288330,506.656598L828.787975,494.503480L839.799406,483.321531L846.980755,476.384852L853.920990,469.198464L868.024327,455.214176L871.836956,452.328534L881.874828,444.920214L891.565019,439.842608L905.895746,433.266701L913.421188,431.046988L924.335418,430.519807L933.533173,431.324452L941.001541,432.434309L957.472076,431.879381L970.713027,426.413341L976.366730,425.442217L1021.148463,407.268381L1045.107930,379.688688L1068.938261,383.212442L1082.526906,369.145189L1088.901043,361.209835L1092.396868,354.661792L1093.956749,351.110315L1094.734450,347.392365L1094.916672,341.648972L1107.338988,336.599231L1118.307441,331.604988L1123.511464,330.023479L1126.728328,327.942547L1128.025041,324.751786L1128.940288,322.171433L1130.511475,320.340216L1134.409779,317.315935L1138.803290,312.682407L1142.409783,309.963333L1144.369736,309.408421L1147.230900,309.991079L1150.322466,310.018825L1151.469627,309.325184L1154.818144,305.496287L1158.236417,302.194560L1160.164631,299.836186L1162.946017,296.867410L1166.149696,296.589954L1168.570452,294.925221L1170.388352,292.483613L1171.783093,289.265133L1177.758109,279.554214L1179.564256,277.917233L1184.668973,274.227091L1186.887949,273.172766L1192.504748,268.733502L1193.706060,266.402891L1196.699398,262.712759L1198.286180,259.605281L1197.572476,257.829581L1195.563622,258.550959L1193.162950,256.248098L1193.653659,253.889748L1195.771198,250.504824L1197.249675,247.230884L1199.055115,244.373125L1200.900041,242.680666L1207.015909,239.600948L1211.777036,234.939758L1215.656549,231.138671L1216.439098,228.475139L1216.204907,226.061313L1216.570842,223.286803L1222.096961,217.321612L1223.377663,214.491617L1223.561636,207.749578L1226.669344,203.976260L1228.475870,202.949697L1233.775865,201.423724L1235.218672,199.953241L1236.658266,196.429635L1237.358984,193.433184L1236.538844,191.102613L1237.559055,189.770858L1239.798331,188.494594L1243.636000,186.441474L1246.346272,183.944437L1247.339861,182.473961L1248.284194,180.559568L1249.149519,179.754968L1253.089348,177.812831L1254.338336,176.619804L1257.429596,172.596811L1263.198757,170.238506L1266.436645,169.156460L1269.527568,164.523090L1270.354128,163.773982L1271.623926,163.274577L1273.294375,163.552024L1275.747145,164.301132L1278.407539,163.884961L1282.092652,162.886151L1282.939678,162.220278L1283.531137,160.971767L1284.279654,159.418064L1284.660471,157.586915L1285.450262,156.810064L1292.022202,155.006661L1292.573072,154.202066L1293.027601,152.731599L1292.775350,150.761730L1292.937888,149.291265L1293.848137,148.486670L1296.802348,147.682077L1299.701657,147.293652L1302.793475,147.931778L1305.169683,146.877483L1305.850821,145.323785L1306.359242,141.606010L1311.612607,137.028158L1312.743476,136.390033L1314.254355,136.140333L1317.156161,136.584245L1318.624619,137.166881L1320.164285,137.277859L1331.121093,133.393624L1333.091846,133.948515L1335.575382,134.975062L1336.861819,135.030551L1338.078200,133.948515L1338.575490,132.256099L1339.732642,131.146318L1340.434753,130.591428L1341.416357,107.147384Z " data-cartodb-id="1" data-created-at="2013-03-09T07:23:48.806Z" data-name="The Meadows" data-updated-at="2013-03-09T07:23:49.096Z"/><path d="M813.328258,492.228242L789.291305,437.789370L741.095694,373.307093L649.376228,396.114400L546.076299,527.383569L626.508441,630.270697L635.178874,650.082571L626.193609,664.233964L599.245594,700.084362L594.550829,702.914669L574.266576,702.914669L522.803514,717.066231L480.303074,717.066231L475.473478,717.066231L460.011294,723.670308L447.593546,732.605252L554.840105,800.367122L563.136160,806.693836L665.698756,628.383857L686.979074,601.968174L813.328258,492.228242Z " data-cartodb-id="2" data-created-at="2013-03-09T07:23:48.806Z" data-name="Barracks Road" data-updated-at="2013-03-09T07:23:49.096Z"/><path d="M447.593546,732.605252L402.112767,714.374655L409.483468,732.494259L357.279577,750.697182L328.541403,785.299590L308.697224,814.629989L327.398460,835.247406L307.792788,847.318212L310.365055,934.201235L337.080959,931.731524L366.544079,924.877392L389.827778,933.257750L470.963556,961.895380L536.746973,852.202042L563.136160,806.693836L554.840105,800.367122L447.593546,732.605252Z " data-cartodb-id="3" data-created-at="2013-03-09T07:23:48.806Z" data-name="Lewis Mtn" data-updated-at="2013-03-09T07:23:49.096Z"/><path d="M929.094325,1134.335533L908.933567,1160.560116L966.382036,1189.337956L971.945510,1195.415460L989.632294,1230.243323L992.996509,1243.897029L1000.970185,1259.299125L1090.795990,1161.448147L1119.049685,1166.221316L1131.841940,1154.316154L1158.704382,1135.723074L1204.780836,1086.548910L1243.336392,1039.428802L1229.455371,1031.381247L1272.742192,980.848487L1303.453888,1000.134673L1317.895160,982.763227L1312.962021,979.516494L1329.424707,959.619903L1326.072858,956.955931L1345.959871,934.423231L1365.077008,915.969812L1380.075228,903.898819L1393.564166,891.689113L1410.398473,877.647992L1399.753460,878.480468L1366.760306,872.181402L1340.859590,852.812521L1317.401590,831.168313L1295.533328,807.859284L1283.289354,788.268694L1266.969847,757.384555L1253.088654,744.675780L1228.696000,726.223147L1214.348335,704.773793L1125.314206,807.443052L1093.503382,843.960582L1098.759786,848.400424L1103.633184,853.839236L1105.659092,856.197907L1111.135668,862.413704L1054.763513,911.363406L1033.421453,929.816806L989.629753,967.972575L970.336537,984.650218L1000.761706,1025.276216L984.763174,1035.932276L971.726020,1050.889654L955.741921,1078.112765L944.193504,1109.054626L929.094325,1134.335533Z " data-cartodb-id="4" data-created-at="2013-03-09T07:23:48.806Z" data-name="North Downtown" data-updated-at="2013-03-09T07:23:49.096Z"/><path d="M282.927927,1409.659647L337.127179,1433.748878L337.707687,1447.319941L350.112970,1452.898243L363.944345,1457.061159L372.907150,1461.584866L379.563182,1467.079926L388.844987,1475.572306L401.303636,1483.037842L431.608797,1483.426384L432.165999,1490.336873L432.862229,1491.946547L437.011708,1493.195432L443.241018,1493.250938L448.802455,1496.886584L451.429405,1506.239365L455.769072,1507.682526L465.717350,1507.543760L469.007302,1509.042428L473.244030,1509.764008L481.264813,1510.069293L485.737724,1508.376353L494.978036,1510.652108L505.929159,1510.541096L510.950447,1509.736255L514.690103,1508.015563L530.445175,1493.972516L530.532234,1491.530252L541.624697,1488.255399L547.442369,1487.339551L549.000862,1485.702126L551.488918,1487.866858L553.621062,1489.559789L578.913787,1462.833742L568.770770,1456.894642L568.819182,1445.543767L555.943295,1415.598685L550.548394,1403.581854L545.733922,1395.561401L544.646524,1387.318942L545.394978,1384.460450L546.273994,1381.463198L546.496985,1379.936821L543.400784,1372.415950L545.815226,1365.255871L547.073146,1353.766465L543.132850,1351.268772L544.684561,1345.135553L541.633459,1341.444526L537.771656,1337.836757L524.876113,1333.701703L495.765523,1303.202325L489.189180,1297.207931L487.348657,1296.819406L488.400995,1285.496685L487.604994,1283.998091L430.882071,1288.049845L408.761078,1297.291186L356.023537,1332.175341L316.946560,1362.536154L305.154083,1376.162508L282.927927,1409.659647Z " data-cartodb-id="5" data-created-at="2013-03-09T07:23:48.806Z" data-name="Johnson Village" data-updated-at="2013-03-09T07:23:49.096Z"/><path d="M182.657006,1688.553061L187.113217,1688.220010L193.222012,1686.388233L206.041353,1685.500099L214.092370,1683.557307L218.011412,1676.396737L230.321163,1662.686218L240.914325,1656.746857L253.976332,1643.535969L260.878853,1641.065870L266.098900,1640.732823L265.267000,1643.646984L267.398379,1651.473599L274.774148,1650.224670L281.523999,1653.333115L293.983594,1660.798944L320.002549,1671.289980L377.669308,1639.733682L402.174847,1619.750915L477.309140,1557.888156L508.376414,1532.077564L533.719849,1510.541096L553.621062,1489.559789L551.488918,1487.866858L549.000862,1485.702126L547.442369,1487.339551L541.624697,1488.255399L530.532234,1491.530252L530.445175,1493.972516L514.690103,1508.015563L510.950447,1509.736255L505.929159,1510.541096L494.978036,1510.652108L485.737724,1508.376353L481.264813,1510.069293L473.244030,1509.764008L469.007302,1509.042428L465.717350,1507.543760L455.769072,1507.682526L451.429405,1506.239365L448.802455,1496.886584L443.241018,1493.250938L437.011708,1493.195432L432.862229,1491.946547L432.165999,1490.336873L431.608797,1483.426384L401.303636,1483.037842L388.844987,1475.572306L379.563182,1467.079926L372.907150,1461.584866L363.944345,1457.061159L350.112970,1452.898243L337.707687,1447.319941L337.127179,1433.748878L282.927927,1409.659647L305.154083,1376.162508L316.946560,1362.536154L356.023537,1332.175341L408.761078,1297.291186L430.882071,1288.049845L487.604994,1283.998091L491.584590,1243.092236L477.222855,1218.226986L469.511528,1172.687303L344.432671,1217.227939L230.825585,1258.577584L10.912010,1338.364046L7.968528,1364.784083L8.042476,1373.415032L5.803536,1381.046914L0.591873,1401.722440L2.510298,1428.420373L2.495752,1434.137415L3.228089,1441.214345L4.777262,1452.093413L9.192064,1449.373644L14.079080,1443.129281L21.922715,1440.131991L27.575674,1439.854464L30.044022,1439.021883L36.425214,1431.972709L40.336994,1428.670147L51.174585,1431.473162L51.566754,1437.412228L50.911915,1440.104238L58.560859,1450.178473L62.865344,1463.000259L62.766655,1466.247341L64.718582,1467.634983L69.775669,1477.431751L68.019737,1489.393271L65.079598,1518.645012L62.125057,1530.634395L58.527419,1539.071387L54.546329,1549.811923L52.182266,1561.856895L51.995841,1579.730138L49.193771,1587.140338L45.314358,1595.466421L43.272416,1604.958174L41.671461,1610.647684L38.980999,1615.532342L38.237828,1622.970355L36.032406,1630.491642L33.595307,1635.431829L23.050939,1639.594913L19.126954,1646.311362L16.427326,1653.832687L18.082566,1659.910815L23.990971,1659.605521L30.919746,1662.103384L36.209871,1665.822426L49.706924,1666.377508L52.100446,1669.707997L56.626544,1671.512013L60.121474,1673.538062L66.282697,1674.592719L72.685382,1674.287423L79.407921,1675.036785L82.584798,1677.534656L84.661374,1682.252861L94.317805,1678.589313L98.092232,1678.589313L103.091747,1680.004775L109.270126,1680.004775L113.106986,1679.255413L123.711691,1679.560708L128.266486,1681.420236L132.567100,1684.223407L142.215327,1685.722133L153.028804,1686.388233L162.736669,1688.220010L176.152179,1687.137597L182.657006,1688.553061Z " data-cartodb-id="6" data-created-at="2013-03-09T07:23:48.806Z" data-name="Fry's Spring" data-updated-at="2013-03-09T07:23:49.096Z"/><path d="M743.712243,1085.799647L757.301077,1085.577643L768.120101,1086.909667L838.851741,1052.027416L903.861626,1011.456675L956.648174,970.053809L933.350907,943.802592L921.744911,927.929839L909.262193,911.141411L896.228287,901.207131L881.048574,884.807293L864.633844,887.387974L844.448439,879.701434L827.298617,870.627448L766.845332,962.256127L796.729838,981.292484L773.195039,1013.954179L724.450765,1002.077172L701.414631,1039.623053L682.719107,1034.128514L654.830991,1043.424834L661.044216,1053.026426L671.119207,1064.626065L698.904323,1078.112765L716.030358,1082.219834L743.712243,1085.799647Z " data-cartodb-id="7" data-created-at="2013-03-09T07:23:48.806Z" data-name="10th &amp; Page" data-updated-at="2013-03-09T07:23:49.096Z"/><path d="M12.025864,1330.815492L11.167142,1336.116130L10.912010,1338.364046L230.825585,1258.577584L344.432671,1217.227939L469.511528,1172.687303L546.664039,1147.239674L679.471544,1111.191426L768.120101,1086.909667L757.301077,1085.577643L743.712243,1085.799647L716.030358,1082.219834L698.904323,1078.112765L671.119207,1064.626065L661.044216,1053.026426L654.830991,1043.424834L631.389386,1051.194907L582.736153,1065.264324L561.273824,1066.901596L516.319463,1068.289115L464.299459,1065.736080L449.687924,1068.677621L435.124996,1068.927375L427.294544,1061.545775L425.016587,1051.472410L426.864279,1041.732070L419.218453,1053.470431L408.243161,1064.459563L377.720086,1091.766008L327.864237,1126.926076L271.149079,1160.504614L253.349883,1163.973486L231.176735,1161.448147L224.730153,1162.363929L190.941257,1162.752443L192.496084,1138.775664L196.848569,1127.925103L161.850090,1129.756654L162.121571,1165.805051L151.800066,1165.916055L139.965268,1166.054810L124.393427,1232.824203L60.554098,1224.609794L36.802978,1279.752079L30.477905,1303.146821L24.014072,1315.912687L12.025864,1330.815492Z " data-cartodb-id="8" data-created-at="2013-03-09T07:23:48.806Z" data-name="Jefferson Park Avenue" data-updated-at="2013-03-09T07:23:49.096Z"/><path d="M956.648174,970.053809L903.861626,1011.456675L838.851741,1052.027416L768.120101,1086.909667L773.371828,1088.075188L809.294086,1091.516253L855.258565,1101.617459L879.886187,1114.077495L929.094325,1134.335533L944.193504,1109.054626L955.741921,1078.112765L971.726020,1050.889654L984.763174,1035.932276L1000.761706,1025.276216L970.336537,984.650218L956.648174,970.053809Z " data-cartodb-id="9" data-created-at="2013-03-09T07:23:48.806Z" data-name="Starr Hill" data-updated-at="2013-03-09T07:23:49.096Z"/><path d="M487.604994,1283.998091L488.400995,1285.496685L487.348657,1296.819406L489.189180,1297.207931L495.765523,1303.202325L524.876113,1333.701703L537.771656,1337.836757L541.633459,1341.444526L544.684561,1345.135553L543.132850,1351.268772L547.073146,1353.766465L545.815226,1365.255871L543.400784,1372.415950L546.496985,1379.936821L546.273994,1381.463198L545.394978,1384.460450L544.646524,1387.318942L545.733922,1395.561401L550.548394,1403.581854L555.943295,1415.598685L568.819182,1445.543767L568.770770,1456.894642L578.913787,1462.833742L740.535942,1289.381929L847.803960,1224.748551L871.572205,1209.429827L908.933567,1160.560116L929.094325,1134.335533L879.886187,1114.077495L855.258565,1101.617459L809.294086,1091.516253L768.120101,1086.909667L679.471544,1111.191426L546.664039,1147.239674L469.511528,1172.687303L477.222855,1218.226986L491.584590,1243.092236L487.604994,1283.998091Z " data-cartodb-id="10" data-created-at="2013-03-09T07:23:48.806Z" data-name="Fifeville" data-updated-at="2013-03-09T07:23:49.096Z"/><path d="M377.669308,1639.733682L320.002549,1671.289980L348.181529,1682.613665L357.204023,1680.115791L378.248887,1671.400996L397.727706,1661.437287L423.455575,1640.732823L445.849752,1611.091744L451.707196,1607.511514L471.148018,1598.214031L479.761931,1599.102148L486.790781,1594.744826L503.451815,1592.247000L539.088217,1577.287827L648.915009,1518.089949L668.225927,1504.407661L678.606546,1495.054884L689.640025,1492.057559L698.858809,1484.675266L703.644243,1483.065595L711.511219,1479.374455L721.691683,1476.987704L728.063400,1478.319844L731.656151,1485.452349L734.289368,1489.421024L738.367621,1490.836427L754.426253,1495.526685L763.002490,1495.776463L771.021814,1494.860613L783.325851,1495.498932L787.885873,1498.413001L789.002503,1499.661888L810.634150,1476.377140L1000.970185,1259.299125L992.996509,1243.897029L989.632294,1230.243323L971.945510,1195.415460L966.382036,1189.337956L908.933567,1160.560116L871.572205,1209.429827L847.803960,1224.748551L740.535942,1289.381929L578.913787,1462.833742L553.621062,1489.559789L533.719849,1510.541096L508.376414,1532.077564L477.309140,1557.888156L402.174847,1619.750915L377.669308,1639.733682Z " data-cartodb-id="11" data-created-at="2013-03-09T07:23:48.806Z" data-name="Ridge Street" data-updated-at="2013-03-09T07:23:49.096Z"/><path d="M789.069902,1499.661888L797.865522,1509.125687L814.429466,1512.705839L826.812316,1517.673652L847.680554,1528.719422L854.850814,1536.601345L858.742982,1544.400022L857.011711,1549.922936L854.541228,1560.496977L852.508001,1576.094426L848.410045,1583.560128L847.765347,1592.274754L845.672023,1597.270407L844.470775,1603.514982L842.385609,1608.482894L841.737542,1612.840229L839.278209,1619.084825L838.077022,1625.329429L840.725786,1631.546288L846.267694,1632.184627L854.481953,1630.297365L864.412977,1629.298226L873.439900,1627.244443L881.968265,1621.832449L923.442996,1597.298161L928.382916,1593.551421L932.118167,1591.691928L935.388981,1589.194104L935.499379,1587.667656L943.046574,1584.836792L950.239732,1579.841152L958.000373,1572.986033L970.366250,1565.825637L983.881361,1563.022539L990.677090,1558.693005L998.969903,1557.610622L1007.662091,1554.169202L1021.922081,1547.674915L1032.152041,1544.122489L1037.274364,1544.122489L1041.040935,1547.674915L1045.457890,1548.701789L1051.369241,1552.448492L1043.149765,1579.036299L1044.238389,1590.193234L1046.301922,1595.494174L1053.138805,1599.379685L1061.887648,1601.877515L1066.507713,1605.124696L1084.164613,1619.390116L1088.689800,1621.887957L1136.809085,1637.235831L1146.395585,1619.778669L1197.830828,1548.757295L1181.174713,1546.870068L1179.137139,1539.487686L1182.952449,1531.605758L1254.257377,1450.289484L1344.975876,1393.646485L1360.492080,1380.797143L1378.269138,1361.231800L1402.541342,1331.925573L1401.365567,1329.039364L1360.232284,1341.833055L1325.494834,1345.607339L1294.258552,1337.975517L1274.698732,1320.325244L1259.258081,1291.768581L1241.212650,1258.383323L1179.568554,1183.537972L1149.668747,1169.440433L1119.117079,1166.221316L1090.863384,1161.448147L1001.037580,1259.299125L810.701548,1476.377140L789.069902,1499.661888Z " data-cartodb-id="12" data-created-at="2013-03-09T07:23:48.806Z" data-name="Belmont" data-updated-at="2013-03-09T07:23:49.096Z"/><path d="M1574.093600,1000.245673L1557.373535,986.176461L1532.763754,1008.348672L1497.596756,1031.436748L1446.735882,1057.022471L1303.392583,1233.573491L1293.547321,1259.104864L1280.550800,1275.617078L1267.422903,1286.218230L1259.190684,1291.768581L1274.698732,1320.325244L1294.258552,1337.975517L1325.494834,1345.607339L1360.232284,1341.833055L1401.365567,1329.039364L1402.541342,1331.925573L1420.746381,1328.373316L1438.224556,1328.373316L1458.949158,1332.702630L1481.167512,1342.665617L1491.280213,1350.241943L1504.089602,1358.428829L1511.135121,1364.589817L1560.226132,1360.898774L1615.809799,1281.333926L1630.459622,1252.971771L1652.900963,1200.410675L1655.941184,1191.114030L1656.604174,1176.516948L1646.486448,1155.093180L1641.971927,1150.569781L1636.704797,1143.326802L1631.266824,1136.666601L1626.323594,1132.226473L1613.810708,1132.226473L1603.900404,1131.088691L1594.802167,1131.088691L1585.052920,1133.308754L1579.678806,1136.083834L1570.308594,1139.386182L1561.110431,1144.936352L1552.339794,1151.097048L1544.483472,1158.506545L1542.272454,1162.752443L1535.130582,1171.632764L1527.656745,1177.737995L1512.008812,1186.590594L1496.973620,1195.498714L1487.935245,1196.136991L1481.717768,1193.667136L1474.231184,1186.868106L1465.376226,1179.985832L1464.777070,1173.908349L1466.528371,1158.589798L1476.273612,1141.828256L1492.090198,1122.902218L1497.662326,1112.634460L1501.227669,1103.004989L1514.795822,1074.588459L1522.404806,1057.299974L1528.736068,1044.368342L1538.491427,1032.630005L1549.340088,1021.529950L1562.883846,1009.819423L1570.111542,1002.410171L1574.093600,1000.245673Z " data-cartodb-id="13" data-created-at="2013-03-09T07:23:48.806Z" data-name="Woolen Mills" data-updated-at="2013-03-09T07:23:49.096Z"/><path d="M1119.049685,1166.221316L1149.601352,1169.440433L1179.501159,1183.537972L1241.145254,1258.383323L1259.190684,1291.768581L1267.422903,1286.218230L1280.550800,1275.617078L1293.547321,1259.104864L1303.392583,1233.573491L1446.735882,1057.022471L1497.596756,1031.436748L1532.763754,1008.348672L1557.373535,986.176461L1527.753528,966.612837L1478.463425,936.837443L1431.701186,882.753849L1410.398473,877.647992L1393.564166,891.689113L1379.271341,904.648052L1365.077008,915.969812L1345.959871,934.423231L1326.072858,956.955931L1329.424707,959.619903L1312.962021,979.516494L1317.895160,982.763227L1303.453888,1000.134673L1272.742192,980.848487L1229.455371,1031.381247L1243.336392,1039.428802L1204.780836,1086.548910L1158.704382,1135.723074L1131.841940,1154.316154L1119.049685,1166.221316Z " data-cartodb-id="14" data-created-at="2013-03-09T07:23:48.806Z" data-name="Martha Jefferson" data-updated-at="2013-03-09T07:23:49.096Z"/><path d="M1825.690241,462.678007L1831.362842,465.008722L1825.790497,470.447063L1818.887128,458.765737L1813.876324,454.104313L1810.484593,444.004580L1806.738660,437.789370L1804.149941,430.769524L1798.447462,421.502234L1786.109318,413.261577L1701.153435,540.896386L1733.156782,558.210610L1732.925734,569.864453L1727.133335,589.981278L1725.241351,576.912268L1577.045619,582.988936L1573.192356,590.452984L1560.777876,606.574259L1547.171014,618.033996L1539.039458,618.033996L1525.362371,647.640767L1495.660797,688.374680L1464.659065,673.612755L1451.497418,663.734503L1434.062243,654.411228L1428.087446,657.241506L1422.861771,652.468882L1422.079068,646.947073L1422.754651,629.493763L1422.194937,612.040522L1419.758256,606.491016L1411.141627,602.634114L1402.978735,601.746194L1400.887241,603.744013L1382.443975,622.112893L1381.473954,627.024222L1379.845589,630.964389L1382.652291,634.488344L1382.988589,638.622751L1380.324723,642.340946L1380.802294,656.631053L1381.892608,656.436819L1373.269430,674.028974L1371.025827,679.606313L1363.712108,692.814366L1360.340927,702.692684L1360.149276,705.412000L1359.554733,707.437614L1348.728427,727.333078L1345.415918,734.103661L1321.717522,760.048407L1316.097323,764.349423L1310.731553,767.706992L1307.497906,768.927928L1283.289354,788.268694L1295.533328,807.859284L1317.401590,831.168313L1340.859590,852.812521L1366.760306,872.181402L1399.753460,878.480468L1410.398473,877.647992L1431.701186,882.753849L1478.463425,936.837443L1527.753528,966.612837L1557.373535,986.176461L1574.093600,1000.245673L1576.877557,998.719425L1592.673563,994.418183L1616.517090,977.768255L1635.957660,961.118388L1647.508417,947.548792L1667.578067,930.899038L1683.020805,914.859834L1693.336188,901.290379L1709.053634,882.171115L1722.732926,850.703594L1730.049862,832.195023L1736.039781,811.855109L1738.771082,798.258219L1736.989540,778.528929L1734.750268,766.791291L1734.031611,756.302365L1733.189275,748.838038L1734.075672,736.018295L1747.224312,704.912534L1751.744408,697.087568L1757.657810,692.092917L1770.133532,686.016099L1789.853068,687.098271L1812.367863,687.764224L1822.518120,688.846396L1852.923035,699.751385L1864.522231,701.943485L1877.661743,700.417339L1893.324849,694.118525L1899.518667,689.928570L1906.285900,687.458995L1919.148200,684.351218L1926.669622,669.589307L1939.638309,647.058064L1965.746960,598.888205L1968.964001,577.134247L1966.028600,560.041926L1965.952926,541.395834L1974.804631,481.545740L1983.038658,448.138809L1994.896495,413.178338L1999.408127,373.556807L1997.757032,361.737008L1983.391003,321.311316L1824.615228,428.466573L1835.241890,446.363032L1821.819815,454.132060L1825.337752,461.124197L1825.690241,462.678007Z " data-cartodb-id="15" data-created-at="2013-03-09T07:23:48.806Z" data-name="Locust Grove" data-updated-at="2013-03-09T07:23:49.096Z"/><path d="M1571.770090,0.000000L1551.541252,7.768235L1541.112096,13.067290L1487.561230,50.687986L1484.886298,80.734838L1442.252193,104.289717L1398.524209,154.118832L1372.082125,137.472071L1340.354242,132.700011L1340.434753,130.591428L1339.732642,131.146318L1338.575490,132.256099L1338.078200,133.948515L1336.861819,135.030551L1335.575382,134.975062L1333.091846,133.948515L1331.121093,133.393624L1320.164285,137.277859L1318.624619,137.166881L1317.156161,136.584245L1314.254355,136.140333L1312.743476,136.390033L1311.612607,137.028158L1306.359242,141.606010L1305.850821,145.323785L1305.169683,146.877483L1302.793475,147.931778L1299.701657,147.293652L1296.802348,147.682077L1293.848137,148.486670L1292.937888,149.291265L1292.775350,150.761730L1293.027601,152.731599L1292.573072,154.202066L1292.022202,155.006661L1285.450262,156.810064L1284.660471,157.586915L1284.279654,159.418064L1283.531137,160.971767L1282.939678,162.220278L1282.092652,162.886151L1278.407539,163.884961L1275.747145,164.301132L1273.294375,163.552024L1271.623926,163.274577L1270.354128,163.773982L1269.527568,164.523090L1266.436645,169.156460L1263.198757,170.238506L1257.429596,172.596811L1254.338336,176.619804L1253.089348,177.812831L1249.149519,179.754968L1248.284194,180.559568L1247.339861,182.473961L1246.346272,183.944437L1243.636000,186.441474L1239.798331,188.494594L1237.559055,189.770858L1236.538844,191.102613L1237.358984,193.433184L1236.658266,196.429635L1235.218672,199.953241L1233.775865,201.423724L1228.475870,202.949697L1226.669344,203.976260L1223.561636,207.749578L1223.377663,214.491617L1222.096961,217.321612L1216.570842,223.286803L1216.204907,226.061313L1216.439098,228.475139L1215.656549,231.138671L1211.777036,234.939758L1207.015909,239.600948L1200.900041,242.680666L1199.055115,244.373125L1197.249675,247.230884L1195.771198,250.504824L1193.661810,253.862003L1193.171102,256.220353L1195.571773,258.523214L1197.572476,257.829581L1198.302482,259.549791L1196.707549,262.685013L1193.714212,266.375145L1192.504748,268.733502L1186.887949,273.172766L1184.668973,274.227091L1179.564256,277.917233L1177.758109,279.554214L1171.783093,289.265133L1170.388352,292.483613L1168.570452,294.925221L1166.149696,296.589954L1162.946017,296.867410L1160.164631,299.836186L1158.236417,302.194560L1154.818144,305.496287L1151.469627,309.325184L1150.322466,310.018825L1147.230900,309.991079L1144.369736,309.408421L1142.409783,309.963333L1138.803290,312.682407L1134.409779,317.315935L1130.511475,320.340216L1128.940288,322.171433L1128.025041,324.751786L1126.728328,327.942547L1123.511464,330.023479L1118.307441,331.604988L1107.098069,336.654723L1094.916672,341.648972L1094.742600,347.364619L1093.964900,351.082569L1092.405019,354.634046L1088.909193,361.182089L1082.535056,369.117443L1068.938261,383.212442L1113.250400,390.648404L1145.743672,398.250857L1170.151884,413.650025L1187.239155,431.185720L1199.771047,460.486025L1202.836985,476.051892L1205.883203,571.779016L1204.767098,643.062387L1205.467828,676.026826L1210.172127,694.895471L1214.348335,704.773793L1228.696000,726.223147L1253.088654,744.675780L1266.969847,757.384555L1283.289354,788.268694L1307.497906,768.927928L1310.731553,767.706992L1316.097323,764.349423L1321.717522,760.048407L1345.415918,734.103661L1348.728427,727.333078L1359.554733,707.437614L1360.149276,705.412000L1360.340927,702.692684L1363.712108,692.814366L1371.025827,679.606313L1373.269430,674.028974L1381.892608,656.436819L1380.802294,656.631053L1380.324723,642.340946L1382.988589,638.622751L1382.652291,634.488344L1379.845589,630.964389L1381.473954,627.024222L1382.443975,622.112893L1400.887241,603.744013L1402.978735,601.746194L1384.549843,597.722811L1384.638211,590.841447L1384.364477,585.652684L1387.520649,579.492770L1395.849695,571.168575L1417.521998,550.524640L1419.501553,543.782085L1419.521672,538.204918L1418.250200,528.687679L1412.346700,515.591104L1409.998319,496.889706L1449.028899,457.905593L1492.790870,412.984114L1531.333521,367.480428L1579.693011,304.996866L1615.442711,255.166032L1618.587322,255.166032L1654.563533,207.166933L1688.617553,156.921043L1675.834690,136.362289L1664.767491,102.319869L1659.552856,74.964050L1627.418885,80.901303L1629.422212,66.973742L1600.325736,71.440545L1603.841754,60.315163L1563.217408,65.947211L1557.308768,70.691453L1540.666624,69.387480L1582.159983,20.974267L1571.770090,0.000000Z " data-cartodb-id="16" data-created-at="2013-03-09T07:23:48.806Z" data-name="Greenbrier" data-updated-at="2013-03-09T07:23:49.096Z"/><path d="M773.195039,1013.954179L796.729838,981.292484L766.845332,962.256127L827.298617,870.627448L844.448439,879.701434L864.633844,887.387974L881.048574,884.807293L868.485994,841.046939L868.444150,832.694504L871.963242,818.792313L877.837454,798.091727L878.320709,794.761883L876.658413,742.344917L879.097651,728.221023L889.709550,688.097200L894.077919,670.005526L897.927101,656.436819L902.933716,644.893739L905.348853,635.903476L904.584650,627.107465L897.281765,615.564462L890.186071,610.736387L875.116547,606.518764L864.909593,602.800599L849.085282,579.659254L842.262669,559.292751L827.538644,525.524520L819.296479,506.628851L813.328258,492.228242L686.979074,601.968174L665.698756,628.383857L563.136160,806.693836L536.746973,852.202042L546.903324,863.135181L556.253419,841.768412L578.429484,816.655653L569.868768,808.858240L604.609497,764.210680L654.220964,813.214800L660.817970,839.409749L586.297115,934.256734L592.744435,941.527124L620.571141,955.401948L628.284001,975.659268L638.879724,1003.853171L666.342801,1027.773728L672.190577,1030.964995L701.414631,1039.623053L724.450765,1002.077172L773.195039,1013.954179Z " data-cartodb-id="17" data-created-at="2013-03-09T07:23:48.806Z" data-name="Venable" data-updated-at="2013-03-09T07:23:49.096Z"/><path d="M970.336537,984.650218L989.562360,967.972575L1033.354061,929.816806L1054.763513,911.363406L1111.135668,862.413704L1105.591701,856.197907L1103.565793,853.839236L1098.669931,848.400424L1093.435990,843.960582L1086.232521,852.202042L1049.523267,818.154090L1055.539094,810.745157L1034.583571,807.137816L1019.569889,804.945664L1000.066929,801.976548L927.251081,790.766073L927.043037,783.745667L915.306726,783.551426L913.475219,788.795918L920.589976,788.740421L918.805130,793.596438L901.696072,793.568689L902.763118,789.933613L882.362425,795.150364L880.440425,794.734134L878.253318,794.761883L877.837454,798.091727L871.895851,818.792313L868.376759,832.694504L868.418603,841.046939L881.048574,884.807293L896.228287,901.207131L909.262193,911.141411L921.744911,927.929839L933.350907,943.802592L956.648174,970.053809L970.336537,984.650218Z " data-cartodb-id="18" data-created-at="2013-03-09T07:23:48.806Z" data-name="Rose Hill" data-updated-at="2013-03-09T07:23:49.096Z"/><path d="M1125.269279,807.443052L1214.280945,704.773793L1210.157809,694.867723L1205.400439,676.026826L1204.724147,642.979144L1205.814071,572.167478L1202.836985,476.051892L1199.771047,460.486025L1187.239155,431.185720L1170.151884,413.650025L1145.676286,398.250857L1113.205476,390.648404L1068.938261,383.212442L1045.107930,379.688688L1021.148463,407.268381L976.358580,425.469964L970.704877,426.441087L957.463926,431.907127L940.985241,432.489802L933.525022,431.352199L924.327268,430.547553L913.413038,431.074735L905.887596,433.294448L891.556868,439.870355L881.866677,444.947960L871.828806,452.356281L868.016177,455.241922L853.912840,469.226211L846.972605,476.412599L839.791256,483.349277L828.779826,494.531227L819.296479,506.628851L827.538644,525.524520L842.262669,559.292751L849.085282,579.659254L864.909593,602.800599L875.116547,606.518764L890.186071,610.736387L897.281765,615.564462L904.584650,627.107465L905.348853,635.903476L902.933716,644.893739L897.927101,656.436819L894.077919,670.005526L889.709550,688.097200L879.097651,728.221023L876.658413,742.344917L878.320709,794.761883L880.507816,794.734134L882.362425,795.150364L902.785582,789.933613L901.718536,793.568689L918.805130,793.596438L920.589976,788.740421L913.542609,788.795918L915.306726,783.551426L927.043037,783.745667L927.251081,790.766073L1000.089392,801.976548L1019.569889,804.945664L1034.606035,807.137816L1055.539094,810.745157L1049.523267,818.154090L1086.232521,852.202042L1093.503382,843.960582L1125.269279,807.443052Z " data-cartodb-id="19" data-created-at="2013-03-09T07:23:48.806Z" data-name="Barracks/Rugby" data-updated-at="2013-03-09T07:23:49.096Z"/></g><g fill="#000" font-family="Arial" font-size="12px" id="mylayer-label" stroke="none"><text text-anchor="middle" y="272.854279498"><tspan dy="0" x="1017.65246792"><![CDATA[The Meadows]]></tspan></text><text text-anchor="middle" y="542.749764222"><tspan dy="0" x="653.475654719"><![CDATA[Barracks Road]]></tspan></text><text text-anchor="middle" y="835.608273896"><tspan dy="0" x="423.553644296"><![CDATA[Lewis Mtn]]></tspan></text><text text-anchor="middle" y="972.388017586"><tspan dy="0" x="1143.81114076"><![CDATA[North Downtown]]></tspan></text><text text-anchor="middle" y="1394.07365349"><tspan dy="0" x="443.584369265"><![CDATA[Johnson Village]]></tspan></text><text text-anchor="middle" y="1452.35916014"><tspan dy="0" x="240.149324053"><![CDATA[Fry's Spring]]></tspan></text><text text-anchor="middle" y="983.030527118"><tspan dy="0" x="821.028890453"><![CDATA[10th & Page]]></tspan></text><text text-anchor="middle" y="1161.89349239"><tspan dy="0" x="351.753477215"><![CDATA[Jefferson Park Avenue]]></tspan></text><text text-anchor="middle" y="1051.59926678"><tspan dy="0" x="906.586343545"><![CDATA[Starr Hill]]></tspan></text><text text-anchor="middle" y="1225.54276066"><tspan dy="0" x="669.236141464"><![CDATA[Fifeville]]></tspan></text><text text-anchor="middle" y="1384.50295654"><tspan dy="0" x="748.780816969"><![CDATA[Ridge Street]]></tspan></text><text text-anchor="middle" y="1403.64714466"><tspan dy="0" x="1076.84535593"><![CDATA[Belmont]]></tspan></text><text text-anchor="middle" y="1218.02590746"><tspan dy="0" x="1469.15915212"><![CDATA[Woolen Mills]]></tspan></text><text text-anchor="middle" y="1065.18508757"><tspan dy="0" x="1335.11290935"><![CDATA[Martha Jefferson]]></tspan></text><text text-anchor="middle" y="682.346994233"><tspan dy="0" x="1662.29726236"><![CDATA[Locust Grove]]></tspan></text><text text-anchor="middle" y="348.681532007"><tspan dy="0" x="1376.57023379"><![CDATA[Greenbrier]]></tspan></text><text text-anchor="middle" y="766.204761603"><tspan dy="0" x="746.254690128"><![CDATA[Venable]]></tspan></text><text text-anchor="middle" y="864.472245579"><tspan dy="0" x="975.794876794"><![CDATA[Rose Hill]]></tspan></text><text text-anchor="middle" y="595.311078985"><tspan dy="0" x="1036.0565109"><![CDATA[Barracks/Rugby]]></tspan></text></g></svg>