<?xml version="1.0" encoding="utf-8"?><!DOCTYPE svg  PUBLIC '-//W3C//DTD SVG 1.1//EN'  'http://www.w3.org/Graphics/SVG/1.1/DTD/svg11.dtd'><svg enable_background="new 0 0 2000 1867" height="1867px" pretty_print="False" style="stroke-linejoin: round; stroke:#000; fill: none;" version="1.1" viewBox="0 0 2000 1867" width="2000px" xmlns="http://www.w3.org/2000/svg" xmlns:xlink="http://www.w3.org/1999/xlink"><defs><style type="text/css"><![CDATA[path { fill-rule: evenodd; }]]></style></defs><metadata><views><view h="1867.42027276" padding="0" w="2000"><proj flip="auto" id="robinson" lon0="-96.7951830982"/><bbox h="6.36" w="6.81" x="-1366.97" y="-553.47"/></view></views></metadata><g class="" id="mylayer"><path d="M1220.404583,0.000000L1210.506939,11.012473L1160.821132,10.618996L1122.599943,11.686301L1111.251531,51.333281L1100.072728,87.428044L1142.378483,91.180578L1153.590461,90.974017L1197.565930,93.280614L1228.849274,93.487175L1254.477811,90.733028L1246.026486,111.629956L1241.403901,127.913469L1242.761136,136.411693L1236.419818,161.891250L1229.661418,179.600230L1235.363415,192.391254L1248.191660,207.232801L1245.065351,224.601802L1236.695089,248.687845L1232.186683,267.093822L1227.918501,285.868320L1219.425737,302.149479L1218.521945,306.373398L1251.429123,307.794481L1269.400649,309.220479L1256.999006,336.122359L1239.740701,339.308651L1202.509089,347.485778L1189.103686,402.482060L1207.458664,403.888280L1223.484603,402.482060L1229.480179,402.555813L1235.553444,402.482060L1239.187903,402.128046L1245.453836,401.936289L1250.346220,401.601942L1251.726962,402.034626L1255.006448,402.034626L1255.417632,401.508522L1257.811583,402.128046L1276.510850,401.769115L1295.295608,401.769115L1310.846187,403.175337L1321.942324,402.840990L1331.901690,403.888280L1347.197622,406.027109L1354.956330,408.505195L1363.115085,412.050227L1369.881071,417.714390L1380.773825,425.138730L1391.394663,428.683714L1396.511600,431.348591L1402.228322,433.915128L1407.131090,435.513065L1413.959493,437.012665L1427.025556,438.605681L1454.838243,418.235570L1468.383882,407.413658L1484.152259,394.978913L1499.382541,384.009288L1510.618309,375.512801L1414.895671,376.727291L1421.983222,356.228312L1426.354144,340.641187L1428.389252,332.144399L1437.191837,303.069006L1441.232249,290.352913L1444.513542,281.290280L1461.681951,226.273776L1470.752808,200.589043L1489.339276,144.988543L1493.232808,132.772415L1502.965824,104.105334L1554.521287,94.913427L1560.176344,92.060921L1562.767050,77.690091L1524.252909,85.327997L1498.785843,81.629545L1482.081227,73.657178L1471.263106,63.732219L1447.736859,33.283028L1434.743294,25.851359L1403.460220,20.357500L1362.805079,19.472185L1277.950703,19.324633L1273.487716,18.778688L1279.289578,0.393480L1270.209493,0.000000L1220.404583,0.000000Z " data-cartodb-id="1" data-created-at="2013-06-24T21:20:04.519Z" data-name="Far North Dallas" data-updated-at="2013-06-24T21:20:04.764Z"/><path d="M1189.119799,402.742653L1217.527179,404.247210L1213.246944,403.814528L1207.939053,404.075121L1209.809866,403.721107L1214.320832,403.814528L1216.700311,403.553934L1219.323061,403.008164L1221.971243,403.101584L1227.577130,402.388640L1229.480179,402.555813L1231.515182,402.914743L1235.754795,402.649233L1240.390467,402.221466L1244.925575,402.221466L1249.316733,401.769115L1253.490615,402.034626L1273.787079,402.034626L1288.503462,402.034626L1294.109174,401.936289L1299.503824,402.221466L1313.746326,403.268757L1323.150846,402.914743L1331.973835,404.168541L1343.992402,405.481339L1347.845712,406.287702L1351.440068,407.526745L1362.673976,411.951891L1370.712840,418.501077L1380.689045,425.418986L1386.156927,426.923515L1391.409350,428.949219L1405.680648,435.419647L1420.724646,438.079593L1428.148539,439.058019L1408.976399,456.084473L1400.640503,471.876632L1391.896721,487.462096L1385.176552,496.655953L1376.861160,509.050344L1371.855745,519.664879L1359.850375,559.388693L1341.123908,617.300608L1325.824184,657.635813L1322.658352,668.435892L1318.888951,679.142480L1312.845996,697.915659L1310.009847,709.187297L1306.330407,720.434258L1299.084370,743.296546L1292.550174,765.268731L1287.560201,765.101607L1284.763029,762.869997L1282.502856,760.132091L1280.595690,757.566221L1276.590837,756.420917L1272.768728,755.614780L1271.630183,752.596676L1272.192529,750.212664L1272.681697,747.646774L1273.073452,744.363214L1273.749686,742.957375L1246.448594,742.357682L1128.898249,741.138631L1107.671929,742.750924L1095.442990,742.750924L1086.122334,738.961050L1082.054515,736.355813L1076.545744,736.114952L1070.300529,738.326946L1053.926494,751.112199L1043.827894,753.456886L1033.466772,752.483620L1024.211284,750.571495L1022.827785,740.745389L1023.992592,719.554364L1057.957089,612.143705L1062.481929,596.559797L1081.763027,534.556541L1091.644726,500.741543L1106.891693,452.018402L1119.086513,447.440983L1181.135823,445.675895L1185.462877,423.884954L1185.846116,415.536247L1189.119799,402.742653Z " data-cartodb-id="2" data-created-at="2013-06-24T21:20:04.519Z" data-name="North Dallas" data-updated-at="2013-06-24T21:20:04.764Z"/><path d="M1489.845068,390.947058L1478.946370,400.623486L1419.949757,447.101732L1411.900071,454.024398L1381.034677,505.451509L1372.649745,520.058190L1346.755951,604.808969L1340.119785,621.144921L1330.821453,645.464107L1313.522970,698.068045L1298.765684,744.982569L1317.468984,744.323890L1290.549029,812.352822L1349.276745,814.117398L1354.669122,798.535966L1366.912193,790.229069L1385.428056,796.564926L1423.800203,802.079898L1439.448787,797.316969L1470.068967,784.527262L1486.383574,777.458953L1507.953218,766.979302L1544.387561,757.993866L1552.096965,756.568381L1579.508584,756.720761L1649.318025,757.993866L1704.595208,757.094336L1716.839345,745.749388L1726.494195,731.386186L1716.934311,722.012168L1693.167274,714.378215L1678.168142,704.645227L1671.859387,696.303310L1660.717282,679.634057L1643.884637,664.385259L1632.664396,655.197548L1621.033144,643.704214L1610.760492,637.854272L1594.948624,623.298124L1589.702780,614.783609L1584.156623,595.674901L1579.113190,587.012715L1575.211606,578.851918L1564.705311,569.609505L1526.621015,533.130804L1483.878218,486.228049L1464.358178,469.909998L1516.980198,409.685235L1489.845068,390.947058Z " data-cartodb-id="3" data-created-at="2013-06-24T21:20:04.519Z" data-name="Northeast Dallas" data-updated-at="2013-06-24T21:20:04.764Z"/><path d="M1469.423594,785.407112L1455.412628,805.432125L1477.999312,805.790940L1468.715460,840.158120L1426.086283,951.638731L1410.168972,995.605140L1393.070977,1043.634277L1383.860880,1091.327501L1410.316286,1089.543643L1424.949611,1089.735298L1444.925345,1094.698642L1469.879353,1094.870639L1491.770233,1093.465179L1503.973644,1091.155504L1554.010814,1075.729721L1579.493766,1069.522991L1600.756918,1058.878604L1610.114920,1030.699558L1643.676979,1028.227597L1657.466480,987.093091L1669.352699,985.314006L1678.070041,957.492158L1697.775471,955.708119L1708.064651,922.036995L1719.029660,917.441613L1725.210191,912.831470L1739.336761,901.301127L1762.644766,879.159238L1796.498447,871.000311L1802.116241,867.628595L1813.478405,858.776569L1824.202321,848.504015L1823.844781,841.416397L1788.634441,790.548566L1726.448260,731.538569L1719.335770,743.950310L1704.605535,757.580967L1583.471669,757.059928L1551.192705,757.059928L1507.817525,768.045949L1469.423594,785.407112Z " data-cartodb-id="4" data-created-at="2013-06-24T21:20:04.519Z" data-name="East Dallas" data-updated-at="2013-06-24T21:20:04.764Z"/><path d="M1367.195826,791.069592L1355.312832,798.703087L1349.218856,814.830108L1318.118419,813.232653L1311.434698,827.766970L1303.230445,852.047810L1292.790447,885.533978L1276.390292,938.182139L1263.825095,980.532091L1255.044904,980.173324L1245.630140,1015.626912L1235.919044,1023.067425L1267.069776,1068.097848L1279.774079,1058.878604L1312.533590,1032.478581L1325.295706,1022.546492L1342.659816,1019.003161L1355.863055,1022.900333L1378.615860,1044.513951L1392.236930,1043.467188L1403.478690,1014.388461L1409.586880,995.246376L1415.086180,980.532091L1431.268853,938.516344L1445.334269,898.303024L1461.339878,856.997310L1467.880153,840.516925L1477.601883,805.958060L1455.170714,805.604159L1469.237675,785.407112L1438.976490,797.636465L1423.591256,802.772955L1384.563785,796.923744L1367.195826,791.069592Z " data-cartodb-id="5" data-created-at="2013-06-24T21:20:04.519Z" data-name="Lakewood" data-updated-at="2013-06-24T21:20:04.764Z"/><path d="M1219.752869,980.212641L1210.302308,1008.672895L1214.891747,1017.612364L1211.572508,1033.043740L1224.410491,1032.498239L1236.798402,1024.964405L1235.683249,1023.013366L1245.517501,1015.479478L1254.916630,980.379738L1219.752869,980.212641Z " data-cartodb-id="6" data-created-at="2013-06-24T21:20:04.519Z" data-name="Lowest Greenville" data-updated-at="2013-06-24T21:20:04.764Z"/><path d="M1173.581363,952.336622L1141.989563,993.260891L1153.539404,998.775028L1162.560099,1008.599177L1171.014344,1020.841173L1178.442620,1032.704644L1184.385166,1039.457045L1188.320338,1035.815471L1194.803943,1031.038654L1203.288050,1024.119119L1203.899722,1024.379585L1206.629146,1025.470593L1211.327173,1033.117456L1214.615058,1018.531371L1210.053874,1009.292123L1219.897430,979.952166L1199.816044,980.045544L1173.581363,952.336622Z " data-cartodb-id="7" data-created-at="2013-06-24T21:20:04.519Z" data-name="Henderson Avenue" data-updated-at="2013-06-24T21:20:04.764Z"/><path d="M1222.078887,886.600527L1216.250026,892.134774L1212.093422,899.743097L1206.466069,907.543056L1186.114870,935.012104L1173.385784,951.943444L1199.787119,980.045544L1219.381779,980.306019L1251.487084,980.571408L1263.101971,980.532091L1292.120475,887.126429L1222.078887,886.600527Z " data-cartodb-id="8" data-created-at="2013-06-24T21:20:04.519Z" data-name="Lower Greenville" data-updated-at="2013-06-24T21:20:04.764Z"/><path d="M1299.096407,745.036639L1292.825802,764.875497L1291.648393,768.778347L1287.117213,784.114372L1280.380414,801.121416L1270.592580,818.315013L1262.678115,832.229960L1230.853574,874.843860L1221.899436,886.359694L1257.458102,886.359694L1292.138245,886.546463L1298.018016,868.188910L1303.291397,852.160857L1309.410686,833.109777L1312.361606,825.309369L1318.258671,813.178585L1290.357936,812.465873L1317.093767,744.417284L1299.096407,745.036639Z " data-cartodb-id="9" data-created-at="2013-06-24T21:20:04.519Z" data-name="Upper Greenville" data-updated-at="2013-06-24T21:20:04.764Z"/><path d="M1208.379521,903.812647L1199.841298,909.233778L1192.913601,913.917657L1180.080596,923.855484L1167.498186,933.606474L1155.378581,943.165714L1145.215562,951.058793L1137.016970,961.428830L1145.188211,966.112522L1154.505076,971.081246L1157.794634,972.506495L1170.819719,955.221562L1183.125774,938.555663L1199.217759,916.842001L1208.379521,903.812647Z " data-cartodb-id="11" data-created-at="2013-06-24T21:20:04.519Z" data-name="Knox" data-updated-at="2013-06-24T21:20:04.764Z"/><path d="M1157.211763,972.452434L1136.960495,961.822006L1119.540684,985.314006L1106.844751,1000.986574L1099.486162,1007.527813L1091.832365,1015.872637L1086.872249,1022.600551L1081.340332,1030.925622L1075.109892,1039.265383L1072.545150,1043.693249L1067.887246,1047.963841L1058.496572,1053.816839L1048.275325,1059.271750L1024.334094,1073.031787L1019.842663,1080.304892L1017.574744,1084.914447L1011.590864,1086.246203L1010.946094,1101.278730L1010.073760,1115.490431L1018.257931,1107.672049L1026.345254,1102.276306L1033.249837,1098.187715L1035.150796,1099.519457L1040.446513,1108.423913L1046.913090,1104.128945L1052.915605,1105.028236L1053.923220,1107.131493L1059.643199,1114.517436L1063.445792,1111.947348L1077.780299,1101.391756L1088.009690,1094.850982L1099.924598,1088.270862L1100.746900,1084.275597L1102.987848,1078.093479L1109.652424,1056.475496L1113.350751,1043.354157L1117.029661,1031.451466L1121.114407,1019.656786L1144.850761,989.098243L1156.986641,972.678508L1157.211763,972.452434Z " data-cartodb-id="12" data-created-at="2013-06-24T21:20:04.519Z" data-name="Uptown" data-updated-at="2013-06-24T21:20:04.764Z"/><path d="M1026.090333,1071.906418L1065.436592,1049.295634L1068.391380,1047.236514L1072.191642,1043.934054L1075.531981,1038.179301L1086.225368,1023.499897L1091.317689,1016.113447L1099.054684,1007.807940L1107.445473,1000.254307L1124.855690,978.040378L1118.537552,974.831122L1112.196701,979.460704L1107.049204,979.799813L1107.314713,968.343781L1089.510067,968.643576L1094.403243,953.761891L1074.660416,953.363799L1075.921249,948.247565L1061.202057,947.702029L1045.685156,946.581467L1048.750238,931.394814L1042.940446,922.636605L1050.532312,898.715878L1053.764659,884.954010L1035.431413,884.708261L1032.885107,888.438726L1030.914192,892.056135L1006.103811,916.620832L994.296000,927.251628L976.384995,942.639835L949.160884,965.498188L938.076018,972.978301L895.014069,1000.799821L887.490087,1008.407511L891.608596,1009.385499L900.148284,1014.108335L906.336398,1018.983503L919.882225,1028.021191L926.266582,1032.684987L951.531509,1050.327649L958.655764,1052.632481L980.197501,1056.475496L1003.954192,1075.690407L1008.510317,1081.091171L1011.903965,1086.359230L1017.932897,1085.179816L1019.480835,1079.420327L1024.313026,1072.786074L1026.090333,1071.906418Z " data-cartodb-id="13" data-created-at="2013-06-24T21:20:04.519Z" data-name="Oak Lawn" data-updated-at="2013-06-24T21:20:04.764Z"/><path d="M1010.304747,1115.244725L1002.918337,1156.861735L997.444449,1173.696870L991.988228,1199.283315L996.632220,1205.224097L1003.098445,1210.039599L1010.080749,1216.918859L1017.838656,1223.198609L1067.586737,1268.861050L1095.697928,1237.649786L1109.794570,1222.225692L1123.388896,1206.796508L1127.090226,1204.231511L1130.437084,1191.106713L1122.464940,1168.650283L1120.807522,1162.316224L1114.954920,1156.822423L1098.389791,1146.591511L1092.625016,1142.277010L1091.632620,1137.402296L1101.416693,1087.391217L1089.915163,1093.764945L1073.548345,1104.674417L1059.211771,1114.797540L1052.135559,1105.313257L1046.946019,1104.335340L1040.345943,1108.758074L1034.931773,1099.519457L1033.092665,1098.394110L1028.386707,1100.944567L1018.364291,1107.524624L1010.304747,1115.244725Z " data-cartodb-id="14" data-created-at="2013-06-24T21:20:04.519Z" data-name="Downtown" data-updated-at="2013-06-24T21:20:04.764Z"/><path d="M1093.126529,1129.923113L1091.733356,1136.655362L1093.078195,1142.144332L1097.244287,1145.687334L1114.344964,1156.335941L1121.036436,1162.709339L1126.125252,1163.515226L1151.300705,1161.471025L1166.276404,1159.166382L1175.220130,1154.478460L1178.388518,1151.913364L1188.479265,1138.080432L1192.727048,1134.537410L1185.960066,1124.335811L1195.215129,1117.775493L1174.998103,1087.725384L1162.414103,1097.381789L1148.204990,1108.030781L1136.597987,1116.542051L1126.131296,1124.601172L1114.548708,1132.399798L1107.282034,1120.606016L1100.299158,1125.574160L1093.126529,1129.923113Z " data-cartodb-id="15" data-created-at="2013-06-24T21:20:04.519Z" data-name="Deep Ellum" data-updated-at="2013-06-24T21:20:04.764Z"/><path d="M1142.050557,993.373927L1120.877812,1019.509352L1111.244167,1050.666740L1109.091622,1059.271750L1103.559920,1075.877149L1099.943876,1087.671327L1101.339528,1087.125849L1092.908018,1129.495589L1101.044867,1124.881274L1106.727168,1120.458593L1114.426408,1132.586532L1116.154764,1130.729019L1123.960111,1125.952544L1132.783212,1119.578969L1170.323997,1091.214474L1174.572195,1087.671327L1195.488549,1117.608413L1186.071375,1124.281756L1192.413993,1134.217997L1206.433002,1123.456190L1224.472006,1112.546872L1231.253386,1110.335513L1246.770552,1108.949726L1289.295283,1106.885785L1310.489799,1106.340315L1343.086351,1106.246946L1358.625620,1104.581048L1364.678154,1102.703839L1377.058369,1095.190061L1383.730907,1091.553555L1387.543215,1070.387906L1392.817492,1044.572924L1392.039979,1043.599876L1378.379102,1044.572924L1356.135390,1023.052682L1342.786815,1019.322602L1325.183431,1022.713584L1280.171050,1058.932662L1267.441901,1068.756362L1249.203451,1042.715287L1237.282286,1024.812057L1225.077427,1032.684987L1211.723467,1033.269803L1209.667099,1031.205744L1206.196886,1025.657342L1203.366468,1023.858653L1183.907555,1039.904255L1162.717623,1008.707296L1153.076225,998.529301L1141.881505,993.619655L1142.050557,993.373927Z " data-cartodb-id="16" data-created-at="2013-06-24T21:20:04.519Z" data-name="Old East Dallas" data-updated-at="2013-06-24T21:20:04.764Z"/><path d="M1121.288531,1162.709339L1122.135211,1167.864055L1127.044201,1181.416588L1130.425389,1190.733261L1127.738937,1201.455217L1128.007147,1205.278148L1127.123349,1220.068565L1127.044991,1242.150700L1129.252797,1269.008457L1130.801911,1294.819115L1128.487555,1329.399617L1152.023671,1323.366026L1164.793218,1313.711243L1199.588029,1287.640529L1215.458303,1276.373855L1243.694446,1254.390552L1265.904184,1236.922563L1272.281941,1231.335707L1277.691544,1224.775913L1283.974287,1219.808137L1290.996712,1213.341648L1293.741016,1207.661333L1298.020750,1187.549089L1299.566057,1181.775301L1302.667098,1176.188216L1305.453318,1169.008999L1310.601052,1153.672569L1315.707039,1138.792967L1319.360108,1127.166320L1322.213254,1117.156315L1325.464984,1106.866129L1322.026717,1106.866129L1295.313306,1107.844044L1284.565786,1108.458312L1264.486348,1109.170862L1244.717211,1110.335513L1226.769997,1111.927692L1220.202458,1115.736137L1210.372218,1122.203097L1200.207571,1130.001738L1189.788142,1136.655362L1179.129242,1150.920739L1175.528381,1154.291729L1165.924274,1159.073017L1148.461539,1161.471025L1131.944760,1163.348152L1121.288531,1162.709339Z " data-cartodb-id="17" data-created-at="2013-06-24T21:20:04.519Z" data-name="Fair Park" data-updated-at="2013-06-24T21:20:04.764Z"/><path d="M1326.444137,1107.485311L1324.570874,1111.927692L1315.004529,1141.431799L1305.653269,1169.814882L1298.552370,1184.625344L1296.499808,1196.487355L1291.486476,1213.169667L1284.181201,1220.068565L1277.411384,1224.869274L1275.328078,1228.859204L1263.992007,1238.775016L1259.117903,1242.411123L1228.029971,1267.062688L1214.197737,1276.992960L1204.585052,1283.911187L1176.932317,1304.587041L1152.734254,1323.105618L1128.863679,1329.399617L1126.009099,1397.943862L1126.306202,1407.352399L1124.839453,1424.651166L1127.416596,1455.686213L1128.085828,1463.762974L1132.028721,1489.304683L1129.958606,1509.884111L1128.975924,1526.729638L1128.337346,1533.906979L1128.207535,1554.765765L1128.353355,1563.107227L1128.672752,1589.619780L1128.948252,1605.231348L1129.510445,1622.620997L1130.434184,1634.071522L1132.190609,1639.484823L1145.978160,1669.915833L1169.632367,1720.922544L1182.645688,1743.011462L1197.728577,1761.656857L1206.520571,1769.378219L1279.770790,1778.332394L1398.241682,1793.156024L1486.279191,1804.246632L1592.438978,1786.053667L1641.198341,1778.165394L1716.057792,1766.003812L1821.044748,1749.495136L1833.738033,1756.956236L1843.560189,1753.223235L1873.126569,1732.912590L1890.867827,1723.152573L1910.307658,1710.543534L1944.425279,1691.371883L1948.485304,1683.483089L1980.666318,1601.335841L1999.464215,1549.445478L1985.677331,1545.977209L1968.316452,1544.120258L1938.936400,1542.076625L1856.416808,1535.690255L1834.193078,1533.120961L1805.227486,1536.849629L1778.126647,1540.037903L1764.567816,1541.197273L1737.938325,1543.859891L1715.173792,1546.163887L1692.708447,1547.136575L1678.595699,1546.237575L1668.740104,1547.136575L1656.205726,1550.231486L1651.104961,1557.163081L1643.870067,1564.153591L1633.186773,1573.826278L1614.159779,1595.563790L1608.838152,1595.843796L1584.146392,1577.289565L1579.318338,1572.136387L1573.593979,1566.290529L1558.349697,1552.103168L1565.777135,1529.298944L1583.430064,1472.458704L1599.131165,1421.536323L1603.157986,1408.418532L1615.496555,1369.039843L1620.408029,1351.406275L1630.136905,1320.442575L1638.996557,1293.320508L1646.724970,1266.723652L1649.303444,1256.341253L1654.984204,1242.150700L1646.038393,1225.842189L1641.512580,1217.596955L1639.040795,1211.651315L1632.033611,1200.123576L1626.360393,1188.875828L1620.301047,1180.704076L1617.583319,1174.424127L1598.982604,1145.353182L1598.379289,1141.790522L1594.498433,1134.350676L1589.564012,1124.861618L1586.050812,1116.089953L1601.520954,1103.323023L1572.977762,1106.512310L1540.646401,1109.696675L1542.211159,1105.013494L1545.098182,1097.828979L1547.950522,1093.578206L1553.247262,1088.344575L1558.163238,1083.209209L1560.261141,1078.334278L1561.684888,1074.437269L1552.551989,1076.815772L1539.209630,1080.811059L1521.900491,1085.327243L1498.627944,1092.153088L1480.925858,1094.718299L1468.128376,1094.811668L1449.890401,1095.077035L1441.613892,1094.290764L1422.714242,1090.462601L1410.450137,1089.936780L1396.278317,1090.821338L1392.771464,1091.887721L1386.294568,1092.153088L1380.249441,1094.005741L1369.168869,1100.138643L1356.813576,1105.893127L1342.446216,1106.699048L1326.444137,1107.485311Z " data-cartodb-id="18" data-created-at="2013-06-24T21:20:04.519Z" data-name="Southeast Dallas" data-updated-at="2013-06-24T21:20:04.764Z"/><path d="M951.422611,1051.320349L914.223947,1026.502628L902.287082,1016.939080L890.141462,1009.852377L881.124517,1007.454095L871.364852,1006.574396L864.087396,1018.890128L860.549104,1025.092181L857.261489,1031.299119L843.385520,1056.740870L922.416813,1098.747931L955.760822,1124.355467L969.784356,1158.846975L974.308337,1159.112329L978.887326,1158.041086L988.687088,1156.375253L1002.855661,1154.144310L1005.639654,1143.421976L1007.258562,1132.699555L1010.067025,1111.215143L1012.423651,1086.939108L990.062412,1064.033722L980.179262,1056.755613L951.422611,1051.320349Z " data-cartodb-id="19" data-created-at="2013-06-24T21:20:04.519Z" data-name="Design District" data-updated-at="2013-06-24T21:20:04.764Z"/><path d="M633.762062,1228.412058L630.534263,1242.076995L631.460688,1248.956091L634.893574,1263.013906L631.984170,1276.133092L627.589896,1291.895602L629.653371,1305.166825L590.746777,1430.404273L583.610928,1455.946596L643.996319,1456.285585L711.426420,1455.740255L732.802991,1456.491926L774.052307,1456.285585L848.562734,1455.067189L861.783693,1429.313592L867.618134,1415.856876L882.354637,1388.009556L890.023218,1366.042792L898.336956,1357.685404L919.647842,1346.473356L948.154127,1331.988943L962.944086,1320.442575L966.263702,1310.660022L976.180347,1269.892896L980.007574,1263.141659L990.427799,1255.535422L1002.760139,1241.678989L1010.234132,1233.920307L1012.638319,1224.137130L1015.468316,1220.594335L1012.798203,1219.523141L995.737045,1204.737632L991.579851,1199.583058L994.041954,1189.514628L996.521609,1173.824631L973.042317,1178.925252L939.485970,1184.826813L929.131084,1186.551577L924.048888,1187.303396L918.770915,1188.802121L897.924164,1193.956736L891.630069,1195.494763L888.242635,1198.045035L872.874539,1199.769782L868.171406,1207.435299L846.567916,1221.287170L815.095900,1236.922563L786.086259,1226.648037L722.347549,1225.223061L669.805110,1223.591707L633.762062,1228.412058Z " data-cartodb-id="20" data-created-at="2013-06-24T21:20:04.519Z" data-name="North Oak Cliff" data-updated-at="2013-06-24T21:20:04.764Z"/><path d="M583.554851,1456.133286L579.668543,1466.759813L577.813271,1475.249186L562.656789,1526.881930L554.373104,1553.321478L555.178725,1560.086032L548.926117,1569.680147L498.280664,1742.132234L497.708049,1740.580077L497.897955,1743.409324L496.391290,1750.865545L503.604616,1758.680290L524.709487,1766.470434L561.691738,1789.914289L608.663109,1817.940321L688.769992,1839.600448L747.536044,1838.888272L757.701028,1814.399031L774.102569,1816.515947L787.180818,1790.626489L807.378509,1758.680290L828.358995,1727.799273L844.917275,1671.360000L853.489457,1638.006237L866.358473,1595.072550L874.675348,1565.651904L877.121551,1553.193752L893.516188,1502.107294L908.881796,1455.627259L880.036844,1454.747852L851.978993,1455.460220L796.572252,1456.285585L696.737402,1456.133286L627.554024,1456.639313L583.554851,1456.133286Z " data-cartodb-id="21" data-created-at="2013-06-24T21:20:04.519Z" data-name="South Oak Cliff" data-updated-at="2013-06-24T21:20:04.764Z"/><path d="M1106.428237,450.533570L1035.668631,481.704838L991.834482,496.596955L908.821658,517.845813L831.662833,534.856437L743.821305,536.975375L732.821380,589.770659L692.818200,595.434012L691.493634,610.324773L688.638137,616.322322L675.873334,616.322322L672.268644,626.994940L663.650482,646.103173L668.174509,661.686468L646.345383,716.255985L660.639458,719.441305L675.870364,711.286279L679.216375,716.590247L674.708276,724.410979L662.950194,730.466975L663.708173,746.727575L671.361100,756.661775L663.516659,770.823161L689.716341,780.403268L699.723856,768.365452L701.574676,785.706949L713.802593,783.947250L722.737797,781.489565L728.520571,788.223609L734.951248,793.866415L733.498282,799.922082L754.006529,794.220319L753.437915,806.651114L767.465386,805.923653L778.467526,816.570104L792.754810,820.811948L776.204434,849.850757L766.065375,884.595217L756.644495,912.271175L769.098015,923.968525L798.530133,949.820281L825.395782,991.309805L842.447950,1004.077817L863.797975,1005.109868L888.578281,1007.621189L894.701471,1000.273965L917.608252,985.554822L934.088236,975.337330L956.588191,959.158242L978.528435,941.067111L999.793788,922.282737L1019.833941,903.493178L1029.491217,893.746877L1035.291742,884.541152L1037.626133,885.062140L1039.976914,877.266961L1043.018590,869.373434L1055.821678,822.232447L993.075629,823.323625L995.948154,809.108750L1006.681472,800.595479L1012.267353,775.094649L1023.337901,759.512744L1023.419954,721.559932L1029.743901,699.582078L1051.887168,630.873635L1080.703571,534.522127L1092.590822,496.262634L1106.428237,450.533570Z " data-cartodb-id="22" data-created-at="2013-06-24T21:20:04.519Z" data-name="Northwest Dallas" data-updated-at="2013-06-24T21:20:04.764Z"/><path d="M755.185097,913.657169L747.983086,917.574314L721.943766,940.241430L700.911780,954.789067L666.340193,986.006965L661.045490,995.192316L655.381920,1017.538647L654.014404,1030.326061L664.681345,1026.743435L672.178787,1031.358092L656.945326,1044.140458L665.592443,1069.636020L639.631269,1074.604354L628.870410,1082.064191L613.570091,1098.733189L608.615617,1111.514905L592.415034,1133.466147L582.029082,1140.945311L568.565095,1133.824873L533.636501,1150.861771L514.974267,1202.261080L515.083082,1213.621732L511.773520,1217.503594L505.208339,1222.864476L505.977561,1227.434231L503.642238,1232.775418L591.238108,1228.166373L627.058030,1228.166373L651.426844,1223.891444L676.896961,1222.864476L784.121629,1226.048565L815.467179,1236.416455L827.348188,1230.470897L846.730032,1221.174155L865.922764,1208.934001L868.844672,1206.983231L872.914453,1199.637109L887.716257,1198.118742L891.423698,1195.548816L914.656894,1189.701354L923.701734,1187.303396L932.509093,1185.804671L964.317307,1180.576316L987.045224,1175.775449L996.274488,1173.917996L1002.592683,1154.070601L972.006427,1159.112329L970.237957,1158.493170L969.334227,1157.087777L968.253730,1154.498116L966.504672,1149.721726L959.982833,1134.837167L956.654670,1127.564360L955.211885,1124.188389L951.499955,1121.431584L921.857192,1098.300741L843.290475,1056.740870L858.935025,1027.829527L866.444268,1014.634186L871.728275,1005.670124L835.122076,1000.141272L814.217822,978.920096L798.794503,951.245553L755.185097,913.657169Z " data-cartodb-id="23" data-created-at="2013-06-24T21:20:04.519Z" data-name="West Dallas" data-updated-at="2013-06-24T21:20:04.764Z"/><path d="M503.940667,1234.200387L489.899957,1283.144680L481.344209,1315.042772L476.115520,1327.807695L438.078861,1339.894464L381.665504,1336.317578L383.309383,1328.559436L294.351096,1330.657431L222.200263,1334.534044L213.971069,1360.834784L231.667794,1364.372301L226.433416,1381.769871L199.542669,1382.796719L194.185282,1415.802832L213.013335,1415.802832L235.364241,1426.410018L220.942014,1455.499523L212.649259,1473.637781L192.005152,1503.399339L181.832710,1524.332270L170.999745,1555.571421L140.180028,1560.199020L134.675954,1602.043223L66.481494,1725.195944L0.535785,1833.794976L100.437326,1820.342106L131.854563,1844.453058L210.324891,1813.559140L253.850946,1792.630470L281.260554,1780.542686L309.940645,1700.346193L356.568469,1702.109611L377.950367,1707.807549L467.800262,1706.383066L509.067996,1706.044138L528.379674,1641.734628L548.441746,1570.770718L554.611796,1560.817997L555.104601,1551.297510L565.486760,1514.398870L582.474850,1459.095752L602.996849,1389.527711L629.289356,1307.957647L627.429085,1294.106663L629.032896,1284.171602L633.633940,1262.900894L629.593403,1239.860936L634.448649,1229.591346L564.197387,1229.591346L503.940667,1234.200387Z " data-cartodb-id="24" data-created-at="2013-06-24T21:20:04.519Z" data-name="Southwest Dallas" data-updated-at="2013-06-24T21:20:04.764Z"/><path d="M1015.009049,1220.348648L1065.895807,1268.202633L1125.173743,1205.464872L1127.135168,1261.475956L1129.564339,1294.838769L1126.539687,1324.957954L1124.685970,1394.887916L1123.968751,1432.801802L1124.659519,1447.005117L1126.051298,1460.127455L1130.982015,1487.432917L1129.225265,1508.759103L1127.478557,1541.722920L1124.995831,1579.691755L1131.410786,1643.552153L1153.312290,1690.080010L1170.836147,1726.281484L1184.186285,1745.767027L1208.683986,1774.172123L1188.544997,1783.391503L1153.336880,1799.020598L1053.708833,1817.832265L1032.370821,1823.883381L947.008816,1852.999113L861.680275,1865.420273L854.767501,1806.496178L812.045390,1811.795859L775.615210,1813.893132L773.872584,1814.438324L775.951944,1813.500201L774.881051,1813.500201L775.183694,1813.013948L774.881051,1813.500201L775.990162,1813.372498L671.210193,1827.758636L775.424720,1813.465819L775.509813,1813.706490L776.051899,1813.166209L785.836887,1806.402856L776.052183,1813.372498L670.755822,1826.334272L775.890207,1813.706490L775.076389,1813.372498L779.582993,1811.908827L776.024254,1813.465819L772.173248,1820.641715L779.247580,1807.655331L785.560053,1794.894769L796.891724,1773.572886L804.218727,1761.003584L806.948854,1757.270594L813.379160,1747.697393L828.113196,1727.460349L842.626273,1678.482573L845.062974,1670.873699L853.780821,1635.889058L864.260059,1604.499406L868.241470,1587.109534L873.825768,1567.754452L878.955289,1547.175875L882.400149,1535.690255L896.921971,1492.547105L908.630418,1455.307921L848.809836,1454.973845L860.632803,1431.770079L886.324435,1385.292594L896.587166,1359.409949L945.016413,1332.775075L967.635112,1315.435843L981.284068,1266.443579L1010.316306,1232.382323L1015.009049,1220.348648Z " data-cartodb-id="25" data-created-at="2013-06-24T21:20:04.519Z" data-name="South Dallas" data-updated-at="2013-06-24T21:20:04.764Z"/></g><g fill="#000" font-family="Arial" font-size="12px" id="mylayer-label" stroke="none"><text text-anchor="middle" y="190.63920159"><tspan dy="0" x="1334.33015547"><![CDATA[Far North Dallas]]></tspan></text><text text-anchor="middle" y="572.415209055"><tspan dy="0" x="1214.58805216"><![CDATA[North Dallas]]></tspan></text><text text-anchor="middle" y="644.050976786"><tspan dy="0" x="1471.60458828"><![CDATA[Northeast Dallas]]></tspan></text><text text-anchor="middle" y="902.182155195"><tspan dy="0" x="1584.50286093"><![CDATA[East Dallas]]></tspan></text><text text-anchor="middle" y="914.302108348"><tspan dy="0" x="1358.37634583"><![CDATA[Lakewood]]></tspan></text><text text-anchor="middle" y="997.7076774"><tspan dy="0" x="1230.64941337"><![CDATA[Lowest Greenville]]></tspan></text><text text-anchor="middle" y="990.502343985"><tspan dy="0" x="1183.42162667"><![CDATA[Henderson Avenue]]></tspan></text><text text-anchor="middle" y="928.097507031"><tspan dy="0" x="1235.32216539"><![CDATA[Lower Greenville]]></tspan></text><text text-anchor="middle" y="831.133020615"><tspan dy="0" x="1279.51264046"><![CDATA[Upper Greenville]]></tspan></text><text text-anchor="middle" y="938.089348799"><tspan dy="0" x="1168.06306624"><![CDATA[Knox]]></tspan></text><text text-anchor="middle" y="1046.74540769"><tspan dy="0" x="1082.36684481"><![CDATA[Uptown]]></tspan></text><text text-anchor="middle" y="988.357328346"><tspan dy="0" x="1011.41142028"><![CDATA[Oak Lawn]]></tspan></text><text text-anchor="middle" y="1171.5766978"><tspan dy="0" x="1059.51678587"><![CDATA[Downtown]]></tspan></text><text text-anchor="middle" y="1126.50687823"><tspan dy="0" x="1149.05081804"><![CDATA[Deep Ellum]]></tspan></text><text text-anchor="middle" y="1063.45102882"><tspan dy="0" x="1233.30658199"><![CDATA[Old East Dallas]]></tspan></text><text text-anchor="middle" y="1196.33804614"><tspan dy="0" x="1211.97332512"><![CDATA[Fair Park]]></tspan></text><text text-anchor="middle" y="1491.58228553"><tspan dy="0" x="1469.67718345"><![CDATA[Southeast Dallas]]></tspan></text><text text-anchor="middle" y="1072.57331854"><tspan dy="0" x="937.576924199"><![CDATA[Design District]]></tspan></text><text text-anchor="middle" y="1318.70226041"><tspan dy="0" x="786.296974586"><![CDATA[North Oak Cliff]]></tspan></text><text text-anchor="middle" y="1626.7813335"><tspan dy="0" x="697.14206216"><![CDATA[South Oak Cliff]]></tspan></text><text text-anchor="middle" y="716.599100122"><tspan dy="0" x="882.350185916"><![CDATA[Northwest Dallas]]></tspan></text><text text-anchor="middle" y="1107.44386753"><tspan dy="0" x="747.212046171"><![CDATA[West Dallas]]></tspan></text><text text-anchor="middle" y="1535.13043502"><tspan dy="0" x="349.102318891"><![CDATA[Southwest Dallas]]></tspan></text><text text-anchor="middle" y="1571.9749612"><tspan dy="0" x="1000.73928142"><![CDATA[South Dallas]]></tspan></text></g></svg>