<?xml version="1.0" encoding="utf-8"?><!DOCTYPE svg  PUBLIC '-//W3C//DTD SVG 1.1//EN'  'http://www.w3.org/Graphics/SVG/1.1/DTD/svg11.dtd'><svg enable_background="new 0 0 2000 1371" height="1371px" pretty_print="False" style="stroke-linejoin: round; stroke:#000; fill: none;" version="1.1" viewBox="0 0 2000 1371" width="2000px" xmlns="http://www.w3.org/2000/svg" xmlns:xlink="http://www.w3.org/1999/xlink"><defs><style type="text/css"><![CDATA[path { fill-rule: evenodd; }]]></style></defs><metadata><views><view h="1371.34643281" padding="0" w="2000"><proj flip="auto" id="robinson" lon0="-93.6966159501"/><bbox h="2.3" w="3.35" x="-1268.94" y="-699.07"/></view></views></metadata><g class="" id="mylayer"><path d="M492.763530,170.290956L458.445168,170.534317L428.629965,241.237783L418.279972,241.266988L415.065386,248.860359L415.275206,248.860359L400.328973,284.111802L400.643709,284.111802L388.790990,311.887342L349.927583,311.994435L327.150605,364.957798L337.690713,364.957798L335.198449,370.828710L332.575519,370.828710L331.224603,373.983242L330.514393,373.983242L329.188039,377.098839L326.545008,377.089103L324.572058,381.713833L359.643282,381.665151L359.264132,382.580363L329.706694,452.966342L329.319290,452.966342L300.298375,521.818304L300.667416,523.045235L385.924142,523.502899L386.570667,521.954630L430.217466,417.865287L514.334775,417.894497L514.586300,417.261617L528.892305,382.560891L514.152549,382.891925L572.636460,240.556329L538.611088,240.828911L568.304587,169.716625L509.979225,169.940517L497.047640,170.388301L492.763530,170.290956Z " data-cartodb-id="1" data-created-at="2013-02-28T17:02:28.348Z" data-name="Merle Hay" data-updated-at="2013-02-28T17:02:28.595Z"/><path d="M679.309992,115.438764L679.059841,115.438764L686.263483,98.161126L689.771660,89.858220L664.084145,90.189167L658.522470,91.298814L654.789711,92.719942L651.181672,94.627760L646.395598,96.973602L641.469275,98.316867L633.449507,98.638082L641.308696,79.910389L634.227322,79.978525L632.091414,85.059500L628.552778,85.088701L622.829399,98.735420L585.706987,99.124773L586.066014,98.238996L584.500389,98.258464L584.506097,98.073521L561.389146,98.336334L568.178395,82.441140L558.090770,82.557944L554.570395,90.792659L553.085469,90.812127L549.820625,98.462874L543.057826,98.540744L546.887378,89.575942L553.662513,89.468871L569.208693,53.055580L550.889303,53.328116L551.530984,51.984905L551.856573,51.235433L548.385787,51.352234L527.755152,99.786672L497.629876,170.252019L492.763530,170.290956L497.047640,170.388301L509.979225,169.940517L568.304587,169.716625L538.611088,240.828911L572.636460,240.556329L574.666142,240.546594L626.945761,240.274013L627.304218,239.427064L679.309992,115.438764Z " data-cartodb-id="2" data-created-at="2013-02-28T17:02:28.348Z" data-name="Meredith" data-updated-at="2013-02-28T17:02:28.595Z"/><path d="M950.440537,169.492733L866.396529,168.879464L873.117147,146.957760L874.397337,141.779161L875.076819,136.094411L874.273147,126.574466L870.814621,117.989064L865.437549,111.477051L860.784266,107.982579L841.964258,98.706219L842.413480,97.645234L839.746657,97.635500L824.773762,90.880263L815.667794,88.145085L814.137763,87.794671L810.573635,87.064642L809.457868,86.860235L808.378152,86.685028L806.158116,86.344348L803.913349,86.062071L803.014584,85.955000L801.660167,85.818728L799.378306,85.624054L797.144688,85.448848L782.569174,84.368408L781.198078,85.643522L778.645639,85.478049L776.121704,85.283375L773.215265,85.001098L772.183447,84.884294L769.495403,84.543615L768.822405,84.456011L767.706297,84.290539L766.598258,84.125066L765.486273,83.949860L764.386478,83.764920L763.290806,83.570246L762.199256,83.365839L761.107707,83.161432L760.032471,82.937557L758.957235,82.713683L757.886122,82.480075L756.819131,82.236733L755.764332,81.983658L754.713656,81.720849L753.667102,81.448306L754.586521,80.153730L753.684865,79.920123L752.658574,79.637847L751.636405,79.345838L751.044804,79.180366L750.038949,78.868889L748.996871,78.547679L748.191191,79.306903L754.727681,84.202936L755.392886,84.709087L756.397979,85.555918L757.342118,86.451419L758.249686,87.376121L759.088231,88.349493L759.878014,89.361800L760.602897,90.413043L761.270948,91.503222L761.886291,92.622604L762.444804,93.780922L762.930347,94.978176L763.367303,96.194899L763.826555,97.625767L725.297235,97.888579L726.872003,94.150805L725.391198,94.160539L722.851719,100.195493L716.746834,100.244162L711.907985,111.194768L690.615791,111.321308L688.953796,115.341425L679.309992,115.438764L671.670749,133.651145L661.039345,158.989334L627.304218,239.427064L626.945761,240.274013L757.369515,239.689910L769.010856,239.641235L778.372180,239.621765L782.456662,239.962491L786.169927,240.303218L792.801223,241.490895L799.772128,243.535259L808.593596,248.091284L812.109598,250.252482L817.301160,252.764150L820.742877,254.185484L827.133876,256.113049L832.286368,257.076833L834.313554,257.359154L838.066724,257.758297L848.024822,257.797238L859.669058,257.894590L878.939152,258.030883L885.329737,257.193656L894.907107,246.115057L914.119179,223.899783L932.369866,202.794710L933.362150,200.964584L934.524145,199.572523L939.000106,190.577704L950.440537,169.492733Z " data-cartodb-id="3" data-created-at="2013-02-28T17:02:28.348Z" data-name="Lower Beaver" data-updated-at="2013-02-28T17:02:28.595Z"/><path d="M384.563283,526.988949L385.924142,523.502899L300.667416,523.045235L300.298375,521.818304L299.647822,523.356836L300.261236,523.356836L271.145881,594.706205L348.059443,599.653216L348.713716,598.124315L374.394235,537.544540L375.917303,535.411991L378.338074,533.065218L382.194288,529.900490L383.386721,528.702765L384.563283,526.988949Z " data-cartodb-id="4" data-created-at="2013-02-28T17:02:28.348Z" data-name="Waveland Woods" data-updated-at="2013-02-28T17:02:28.595Z"/><path d="M750.861146,488.010096L735.787659,523.580800L783.280119,523.424999L788.709697,510.328070L798.110857,487.815351L756.906546,487.990622L750.861146,488.010096Z " data-cartodb-id="5" data-created-at="2013-02-28T17:02:28.348Z" data-name="Carpenter (and Drake)" data-updated-at="2013-02-28T17:02:28.595Z"/><path d="M765.802818,566.660585L766.308392,565.521247L767.574785,562.619348L771.780862,552.511453L783.280119,523.424999L735.787659,523.580800L714.796405,573.525852L712.529892,578.833074L719.816533,576.067473L723.844266,574.558081L726.284019,573.788778L730.916794,572.318341L734.391105,571.373757L741.507023,569.757253L748.247406,568.666602L753.853857,568.062849L759.970251,567.780448L765.273189,567.780448L765.802818,566.660585Z " data-cartodb-id="6" data-created-at="2013-02-28T17:02:28.348Z" data-name="Drake Park (and Drake)" data-updated-at="2013-02-28T17:02:28.595Z"/><path d="M271.145881,594.706205L266.128644,606.995868L217.126328,606.937438L221.768173,609.781024L221.928316,609.936838L222.131643,610.238726L222.949307,610.920409L223.351116,611.134652L223.804504,611.456017L224.689484,611.806598L225.088788,611.835813L225.663091,612.176655L228.211008,616.899762L230.583716,620.853554L228.074333,623.677700L227.933037,624.661283L232.533704,623.706915L233.816694,633.065603L245.459934,633.094819L241.682960,642.356202L251.707949,642.375679L237.297130,677.756643L229.699487,695.871208L229.985017,695.997816L236.834205,695.988077L247.715289,695.988077L257.503008,695.939381L272.658148,695.949120L274.067739,695.822512L275.073572,695.715382L283.455791,695.286862L289.310364,694.994689L305.865072,694.118172L308.021113,694.517474L323.486595,696.582162L324.063039,696.669814L326.153536,696.689292L327.220298,696.533466L328.656142,696.153641L329.881956,695.793295L331.395660,695.267384L342.064069,691.605492L361.413905,684.934259L375.308433,680.093989L376.721776,679.499913L378.037157,679.042182L379.149954,678.681842L381.179936,678.194895L383.543726,677.854032L384.738844,677.795598L393.972357,677.892988L397.676907,677.951421L399.887991,678.029333L402.678492,677.824815L405.107166,677.444997L414.064349,675.769902L427.578428,643.554052L435.097301,625.644868L442.678361,607.589904L439.717683,606.898485L435.455909,605.905179L426.713147,604.571034L348.059443,599.653216L271.145881,594.706205Z " data-cartodb-id="7" data-created-at="2013-02-28T17:02:28.348Z" data-name="Waterbury" data-updated-at="2013-02-28T17:02:28.595Z"/><path d="M472.058579,678.107244L472.074140,677.172307L487.126853,641.197307L499.018293,612.556450L471.768897,612.498020L460.598383,611.923458L443.278505,607.735979L442.698460,607.599642L442.678361,607.589904L435.097301,625.644868L427.578428,643.554052L414.064349,675.769902L414.690942,675.643296L418.130640,675.010267L419.810541,674.893400L421.481116,674.932356L423.029360,675.127134L424.169423,675.390085L425.912062,676.003636L427.142057,676.626927L428.780391,677.162568L429.766777,677.464475L432.495451,677.922205L432.701051,677.951421L432.769584,677.961160L434.653522,678.068289L437.430426,678.048811L449.328152,678.087766L454.998612,678.097505L458.663117,678.116983L461.500481,678.107244L465.883545,678.107244L467.627084,678.107244L472.058579,678.107244Z " data-cartodb-id="8" data-created-at="2013-02-28T17:02:28.348Z" data-name="Ingersoll Park" data-updated-at="2013-02-28T17:02:28.595Z"/><path d="M624.775068,601.970918L627.894118,594.550394L600.985104,594.355630L581.252661,594.044009L570.318382,593.712910L567.549996,593.693434L563.864301,593.820030L557.700007,594.521180L554.147255,595.173638L549.189419,596.400651L545.908407,597.384210L541.403998,598.932587L537.241600,600.607563L524.934817,605.778581L520.516494,607.658072L517.800165,608.680595L515.860766,609.449922L512.150675,610.589306L508.361763,611.494971L505.468164,611.981888L502.155470,612.390898L499.018293,612.556450L487.126853,641.197307L472.074140,677.172307L472.058579,678.107244L474.548695,678.116983L521.774662,678.487063L534.123956,678.584452L592.428150,679.022705L599.637276,662.164724L610.402248,636.756513L614.952764,625.927283L619.843672,614.445691L622.121323,608.252109L624.775068,601.970918Z " data-cartodb-id="9" data-created-at="2013-02-28T17:02:28.348Z" data-name="North of Grand" data-updated-at="2013-02-28T17:02:28.595Z"/><path d="M754.452861,581.890825L755.185154,580.157450L755.945666,578.930455L759.802132,575.629262L761.627730,573.944586L762.320074,573.165546L763.634000,571.373757L764.472968,569.426162L765.273189,567.780448L759.970251,567.780448L753.853857,568.062849L748.247406,568.666602L741.507023,569.757253L734.391105,571.373757L730.916794,572.318341L726.284019,573.788778L723.844266,574.558081L719.816533,576.067473L712.529892,578.833074L700.520093,583.263894L691.436215,586.691706L685.810173,588.717236L683.690093,589.379429L679.648703,590.577221L675.025845,591.813967L671.383567,592.563806L668.529755,593.128620L665.013917,593.712910L660.990040,594.238772L653.832823,594.959398L636.636118,594.988613L634.479727,594.647776L628.124079,594.560132L627.894118,594.550394L624.775068,601.970918L622.121323,608.252109L619.843672,614.445691L614.952764,625.927283L610.402248,636.756513L597.536360,667.004915L598.213779,667.082826L601.151792,667.102303L600.481456,668.670257L603.415359,668.699474L602.888998,669.926570L602.851977,670.014219L604.502604,670.023958L605.798067,670.033697L606.149117,670.043436L607.791672,670.053175L608.433311,670.062914L609.438186,670.072652L611.080741,670.082391L610.932660,670.432990L612.692181,670.452468L614.165226,670.462207L617.389721,670.491424L618.677668,670.939412L623.254130,670.978367L623.011602,671.533483L624.771124,671.552961L626.244170,671.562700L626.530646,671.572438L628.294281,671.582177L629.178078,671.591916L630.053803,671.601655L630.407386,670.783590L631.872360,670.793329L633.930542,670.812806L635.727796,671.163406L639.307765,671.153667L637.999935,674.231155L640.611279,674.221416L641.067682,673.159876L643.670953,673.150138L643.588690,673.344915L641.511736,678.243589L651.303308,678.204634L651.747265,678.204634L652.796084,675.721208L653.824191,673.305960L654.860688,670.851762L657.463955,670.842023L656.842881,672.312593L660.628763,672.293116L661.081198,671.221839L662.122475,671.221839L662.316201,671.221839L664.039630,671.212100L663.352754,672.838493L663.502161,672.828754L664.091411,672.828754L665.423277,672.828754L667.227428,672.819015L670.177790,672.809276L670.181749,672.819015L670.074812,673.072226L667.944152,678.136461L670.902595,678.126722L673.877182,678.116983L674.555225,678.116983L677.545956,678.107244L680.710310,678.087766L683.660681,678.078027L685.894580,672.711888L687.840066,672.692410L688.881343,672.692410L689.317463,671.640611L693.172031,671.611394L694.366674,671.611394L696.594675,671.591916L693.936567,678.039072L694.380524,678.039072L697.338967,678.029333L700.313553,678.019594L704.866281,678.000116L709.370269,678.019594L715.074379,666.595884L724.193767,643.875427L731.433363,626.199961L736.503116,614.465168L737.062718,613.121274L737.831251,611.894243L738.777363,610.667212L739.984948,609.547305L744.678520,606.022038L745.278026,604.736585L754.452861,581.890825Z " data-cartodb-id="10" data-created-at="2013-02-28T17:02:28.348Z" data-name="Woodland Heights" data-updated-at="2013-02-28T17:02:28.595Z"/><path d="M792.167732,573.243450L762.357100,573.077904L759.802132,575.629262L755.945666,578.930455L755.185154,580.157450L754.452861,581.890825L745.278026,604.736585L744.678520,606.022038L739.984948,609.547305L738.777363,610.667212L737.831251,611.894243L737.062718,613.121274L736.503116,614.465168L731.433363,626.199961L724.193767,643.875427L715.074379,666.595884L733.357974,666.498496L742.270227,666.897788L745.043428,667.345774L750.529304,666.703011L753.081861,666.469279L760.986999,666.118681L765.557832,665.845994L769.391849,665.349314L772.335070,664.706552L774.083346,664.102746L776.527642,663.265209L779.049463,662.320545L788.381762,639.132725L788.727137,637.818017L788.868410,636.795467L788.781720,635.509978L789.324564,626.083099L796.477506,608.631903L798.836797,602.759716L799.615011,600.821804L800.138899,598.893634L800.360030,596.975205L799.981851,595.309973L799.525900,594.287463L801.478699,592.836475L802.416642,592.125588L803.181125,591.404964L803.613741,590.801199L811.050382,573.311616L806.870456,573.175284L792.167732,573.243450Z " data-cartodb-id="11" data-created-at="2013-02-28T17:02:28.348Z" data-name="Sherman Hill" data-updated-at="2013-02-28T17:02:28.595Z"/><path d="M412.931817,724.504525L402.796911,748.444118L382.855655,795.915815L363.046255,796.373595L353.628486,819.214138L354.633966,823.295292L357.578044,824.123213L359.469255,827.464125L365.525861,831.857001L369.345915,838.392776L376.921696,842.610369L391.472931,842.581148L415.775248,827.006331L420.215508,819.165437L420.429586,817.587525L421.311826,811.061616L423.433016,809.230472L426.922885,801.136466L413.882302,801.068285L414.433352,799.763120L414.239612,799.763120L415.601408,796.977475L417.756607,791.834764L418.694383,791.659445L419.736662,788.961480L419.021565,789.049140L420.331618,786.175863L421.776165,783.653230L424.273253,778.159948L425.367366,775.549675L436.660452,748.901877L442.048762,748.892138L453.496983,721.631420L423.908336,721.660638L422.610479,724.485046L412.931817,724.504525Z " data-cartodb-id="12" data-created-at="2013-02-28T17:02:28.348Z" data-name="Linden Heights" data-updated-at="2013-02-28T17:02:28.595Z"/><path d="M592.428150,679.022705L534.123956,678.584452L524.631663,678.545496L519.723670,690.222547L522.589228,690.222547L520.098018,695.929642L510.601554,701.480941L509.186402,704.850690L510.138905,704.850690L506.178805,713.596505L505.836435,713.508852L504.376251,716.966292L503.230010,716.966292L501.123773,721.991775L498.064433,721.991775L496.246291,726.316046L497.392537,726.316046L493.116413,736.269726L492.298355,736.620347L489.455556,736.795657L484.803457,747.869483L486.337186,747.869483L480.369241,762.060119L493.526663,762.118558L491.884841,769.218816L491.874020,770.601862L490.832212,785.133693L492.969414,790.052353L493.390849,789.838075L517.880675,777.127526L548.161479,761.427040L552.273766,758.914204L556.056462,756.742261L562.879812,752.320473L565.690666,745.395637L565.117537,745.395637L567.032242,741.071290L565.982853,741.071290L574.538233,721.173671L584.155645,721.241847L587.234537,714.141904L585.168692,714.063989L593.975801,693.553306L600.107291,679.188267L592.428150,679.022705Z " data-cartodb-id="13" data-created-at="2013-02-28T17:02:28.348Z" data-name="Greenwood Historic" data-updated-at="2013-02-28T17:02:28.595Z"/><path d="M643.864452,831.029074L640.431910,833.366751L633.475345,836.805095L607.180380,836.581067L599.307310,836.873278L564.587480,839.951238L561.746520,840.925278L557.234243,842.990245L554.354732,844.782484L532.097022,857.620459L527.403609,861.204989L523.767735,864.789531L516.919501,869.883887L487.448836,882.176677L428.008340,907.600407L415.950962,912.431958L407.463443,914.925670L393.965098,919.211751L387.690596,921.569103L361.970288,934.271619L325.814935,952.361273L315.788579,958.157431L313.437741,960.495386L239.902809,960.505128L233.966111,959.823224L197.067135,959.871931L118.587237,959.375115L118.328223,959.988829L87.353835,1031.172229L57.807913,1100.694368L47.603712,1128.851350L0.729742,1242.763235L221.735596,1242.880164L224.758181,1243.065302L230.046804,1243.659691L239.299089,1243.240695L241.432542,1242.987349L287.366911,1243.182231L387.867827,1242.919141L463.908535,1243.026326L469.121887,1241.096999L471.170991,1239.031260L526.165790,1107.699444L528.881165,1102.272699L558.690243,1031.776241L588.807452,960.972719L617.626510,890.914190L639.797874,840.301892L643.864452,831.029074Z " data-cartodb-id="14" data-created-at="2013-02-28T17:02:28.348Z" data-name="Southwestern Hills" data-updated-at="2013-02-28T17:02:28.595Z"/><path d="M854.861815,777.741135L851.047197,780.448812L834.989103,791.873724L833.864607,793.256799L831.733807,795.341155L829.479334,813.233667L828.777705,816.350521L822.553282,831.408946L821.339056,834.535592L816.968263,842.522705L815.189727,845.551979L804.970604,859.977675L798.494299,868.880599L787.508969,880.549969L785.768948,882.761124L774.966773,894.245568L772.914019,896.719756L771.540700,899.018613L769.843645,903.061107L767.690575,906.002883L765.684041,911.506558L755.691614,935.294450L752.243967,943.584294L751.178530,946.302130L749.792140,949.302474L748.421623,952.341791L743.955785,961.342896L744.359446,961.342896L754.354515,961.284447L782.876051,961.440311L808.507380,961.596175L834.061946,961.761780L860.512221,961.985835L898.661163,962.131957L899.129409,962.131957L918.145105,962.239114L930.694575,962.287822L942.924662,962.404720L961.501285,962.385237L968.960521,962.443686L976.536469,962.550842L981.659956,950.627303L995.905237,915.441947L1005.927980,891.596050L1006.577961,890.475851L1007.129929,889.511507L1035.800092,822.126464L1034.556480,822.184905L1033.341194,822.233606L1015.501349,822.155684L1000.422332,822.077762L998.344099,821.473868L996.884073,820.782312L995.187768,820.382963L963.492740,820.119977L960.620684,820.421924L957.532775,821.522569L955.100745,821.814776L949.025322,821.921919L936.824988,821.736854L911.843856,821.805036L908.600427,821.571270L900.588312,821.581011L902.613972,812.512896L902.649729,809.366834L901.978944,806.785706L900.726220,804.301984L897.894823,802.422152L894.057752,800.629984L882.866965,798.263157L881.012501,797.970956L879.127062,798.039136L877.669476,797.571616L876.777111,797.084615L873.466454,794.006777L870.190878,791.630225L865.821580,789.243938L861.078407,788.260205L859.318616,788.260205L853.512705,789.565356L854.861815,777.741135Z " data-cartodb-id="15" data-created-at="2013-02-28T17:02:28.348Z" data-name="Indianola Hills" data-updated-at="2013-02-28T17:02:28.595Z"/><path d="M1056.482390,761.543916L1042.225507,762.235434L1022.596707,753.274954L1011.240658,748.259066L992.108884,739.824634L990.243239,738.889644L972.000993,729.763788L960.232412,723.871467L955.739916,730.250758L936.358452,729.218382L901.291039,739.474013L872.679963,763.637950L861.136915,771.001192L854.861815,777.741135L853.512705,789.565356L859.318616,788.260205L861.078407,788.260205L865.821580,789.243938L870.190878,791.630225L873.466454,794.006777L876.777111,797.084615L877.669476,797.571616L879.127062,798.039136L881.012501,797.970956L882.866965,798.263157L894.057752,800.629984L897.894823,802.422152L900.726220,804.301984L901.978944,806.785706L902.649729,809.366834L902.613972,812.512896L900.588312,821.581011L908.600427,821.571270L911.843856,821.805036L936.824988,821.736854L949.025322,821.921919L955.100745,821.814776L957.532775,821.522569L960.620684,820.421924L963.492740,820.119977L995.187768,820.382963L996.884073,820.782312L998.344099,821.473868L1000.422332,822.077762L1015.501349,822.155684L1033.341194,822.233606L1034.556480,822.184905L1035.800092,822.126464L1057.734066,770.611602L1061.610215,761.290684L1056.482390,761.543916Z " data-cartodb-id="16" data-created-at="2013-02-28T17:02:28.348Z" data-name="McKinley School/Columbus Park" data-updated-at="2013-02-28T17:02:28.595Z"/><path d="M869.640399,1032.623807L792.144744,1032.312059L762.794307,1102.623439L840.092979,1103.256720L853.478995,1071.680793L862.309215,1050.305952L869.640399,1032.623807Z " data-cartodb-id="17" data-created-at="2013-02-28T17:02:28.348Z" data-name="Magnolia Park" data-updated-at="2013-02-28T17:02:28.595Z"/><path d="M780.750966,1244.867959L739.214448,1244.468451L730.840520,1264.853294L729.593063,1264.843549L715.858988,1264.726618L709.405071,1280.034996L726.838373,1280.015507L716.025773,1305.409781L718.356840,1305.185654L737.134938,1303.334171L756.356829,1303.343916L780.750966,1244.867959Z " data-cartodb-id="18" data-created-at="2013-02-28T17:02:28.348Z" data-name="Somerset" data-updated-at="2013-02-28T17:02:28.595Z"/><path d="M1085.496167,1033.539570L986.952166,1033.305758L946.760042,1033.023236L916.944072,1105.565765L916.907130,1105.653450L895.769012,1156.580374L858.546217,1245.238234L840.891454,1288.113154L838.725190,1295.752869L837.536708,1303.295192L837.233528,1308.849651L837.447696,1314.940101L984.240006,1316.742880L1023.215120,1317.054713L1029.533349,1317.103437L1061.423392,1317.327566L1087.392511,1317.249608L1137.212984,1318.058424L1169.026144,1318.945199L1212.877541,1320.679772L1251.719394,1322.287666L1251.783993,1322.287666L1281.797030,1251.796035L1340.208037,1110.437184L1330.590679,1110.037727L1355.397014,1052.127765L1355.195174,1052.127765L1360.733701,1039.092613L1360.822511,1039.092613L1360.802792,1039.024418L1331.399726,1037.718963L1259.333800,1034.981410L1258.219919,1034.942441L1232.902888,1034.708629L1223.584264,1034.961925L1200.862680,1034.757340L1178.597189,1034.562497L1160.314982,1034.513786L1124.902445,1033.636991L1085.496167,1033.539570Z " data-cartodb-id="19" data-created-at="2013-02-28T17:02:28.348Z" data-name="Easter Lake Area" data-updated-at="2013-02-28T17:02:28.595Z"/><path d="M1106.911409,655.133339L1108.671070,655.133339L1138.484622,655.104123L1151.018093,653.273244L1155.773073,652.659705L1212.149380,635.977428L1220.032350,631.127637L1225.015242,628.157395L1226.154481,627.485439L1233.623801,621.320998L1238.710471,613.783483L1239.354074,612.488282L1278.026436,522.480457L1253.651144,522.499932L1253.247583,522.499932L1213.616411,539.589455L1186.864086,550.875502L1177.624695,554.176620L1168.324848,556.951904L1127.860565,565.978929L1126.657790,576.281709L1125.922455,581.540255L1125.213057,586.584587L1124.578938,591.813967L1123.423969,601.221072L1122.069731,612.400636L1121.237959,619.207762L1120.466025,622.470133L1118.686996,628.098964L1114.246963,637.564814L1106.911409,655.133339Z " data-cartodb-id="20" data-created-at="2013-02-28T17:02:28.348Z" data-name="Capitol East" data-updated-at="2013-02-28T17:02:28.595Z"/><path d="M1293.590242,521.652766L1278.026436,522.480457L1239.354074,612.488282L1238.710471,613.783483L1233.623801,621.320998L1226.154481,627.485439L1225.015242,628.157395L1275.831181,623.882207L1282.287858,623.443977L1289.577940,623.268685L1297.490968,623.434239L1305.783366,623.599792L1352.948811,624.856053L1367.591723,625.274806L1378.329975,625.956499L1384.656382,626.725838L1390.395600,627.758117L1397.044419,629.121505L1405.108562,631.186069L1424.347027,636.055337L1425.454759,636.337755L1425.569824,636.065075L1426.149113,634.711416L1436.413994,610.521137L1440.701203,600.286201L1445.387391,589.087285L1445.638109,588.493259L1453.487123,569.572232L1473.541012,521.837779L1451.516758,522.081218L1441.391165,522.110430L1429.191113,522.159118L1417.547673,522.246756L1396.830189,522.587570L1373.616852,522.645995L1330.983350,522.801796L1293.590242,521.652766Z " data-cartodb-id="21" data-created-at="2013-02-28T17:02:28.348Z" data-name="Fairground" data-updated-at="2013-02-28T17:02:28.595Z"/><path d="M1652.929617,625.381929L1603.991204,623.181039L1592.432370,622.664902L1590.572502,622.577256L1589.270602,622.353272L1588.992348,622.324057L1588.662430,622.187718L1587.454450,621.817658L1587.012842,621.506028L1586.610572,621.330737L1586.214016,620.931461L1585.816585,620.649047L1585.244790,619.938143L1583.922750,618.633196L1581.319676,617.552234L1570.153609,616.870547L1548.190602,615.799325L1540.262911,615.439005L1537.265391,615.292929L1503.892641,613.754267L1471.912239,612.225346L1447.786897,611.056746L1436.413994,610.521137L1426.149113,634.711416L1425.569824,636.065075L1425.454759,636.337755L1390.825552,719.430334L1420.879520,732.344732L1454.189106,746.671518L1487.061163,760.793960L1498.014277,765.371619L1520.461094,775.160083L1531.309002,779.815721L1542.580144,784.003865L1550.148672,786.156383L1554.222343,787.120634L1590.630724,793.071740L1598.116063,774.780230L1609.854358,746.671518L1618.197992,726.520573L1660.397585,625.703299L1660.320976,625.693560L1660.312759,625.713037L1652.929617,625.381929Z " data-cartodb-id="22" data-created-at="2013-02-28T17:02:28.348Z" data-name="Laurel Hill" data-updated-at="2013-02-28T17:02:28.595Z"/><path d="M1126.657790,576.281709L1125.922455,581.540255L1125.213057,586.584587L1124.578938,591.813967L1123.423969,601.221072L1122.069731,612.400636L1121.237959,619.207762L1120.466025,622.470133L1118.686996,628.098964L1114.246963,637.564814L1106.911409,655.133339L1113.917922,638.363377L1113.837054,638.382855L1062.496819,758.251907L1056.482390,761.543916L1042.225507,762.235434L1022.596707,753.274954L1011.240658,748.259066L992.108884,739.824634L990.243239,738.889644L972.000993,729.763788L960.232412,723.871467L957.550562,722.537177L955.925191,720.803577L948.486687,712.914758L939.921543,700.409635L940.960421,683.473411L942.382812,671.270533L947.079198,637.262919L948.284684,630.718620L953.058154,604.639202L965.592161,588.931475L986.756107,571.023189L986.804845,570.984238L1027.938279,573.886158L1062.686887,576.330399L1073.227475,576.427780L1076.933204,576.310923L1083.724403,575.405288L1091.969249,573.886158L1127.630453,565.988667L1127.860565,565.978929L1126.657790,576.281709Z " data-cartodb-id="23" data-created-at="2013-02-28T17:02:28.348Z" data-name="Historic East Village" data-updated-at="2013-02-28T17:02:28.595Z"/><path d="M986.756107,571.023189L986.804845,570.984238L1027.938279,573.886158L1062.686887,576.330399L1073.227475,576.427780L1076.933204,576.310923L1083.724403,575.405288L1091.969249,573.886158L1127.630453,565.988667L1127.860565,565.978929L1127.967808,565.170681L1128.330230,562.190881L1130.947033,540.475585L1133.374054,523.454212L1133.858817,521.866992L1140.919850,504.768009L1162.588072,452.674234L1162.752626,452.284757L1157.214249,452.498969L1099.136543,452.917657L1096.435745,459.042200L1082.037455,454.017930L1077.866031,453.365556L1068.649692,475.254390L1059.643692,490.132816L1043.739312,506.248092L1021.952212,529.812852L996.175783,554.205834L988.179689,564.537716L986.756107,571.023189Z " data-cartodb-id="24" data-created-at="2013-02-28T17:02:28.348Z" data-name="Capitol Park" data-updated-at="2013-02-28T17:02:28.595Z"/><path d="M1162.752626,452.284757L1162.588072,452.674234L1140.919850,504.768009L1133.858817,521.866992L1133.374054,523.454212L1130.947033,540.475585L1128.330230,562.190881L1127.967808,565.170681L1127.860565,565.978929L1168.324848,556.951904L1177.624695,554.176620L1186.864086,550.875502L1213.616411,539.589455L1253.247583,522.499932L1253.651144,522.499932L1280.407161,511.739999L1286.508564,496.948916L1294.118560,478.720812L1302.494665,458.604036L1303.337833,456.607958L1304.296172,454.339249L1304.785782,453.161080L1305.267013,452.021860L1296.841128,452.002387L1242.463539,451.973176L1239.705156,451.739490L1201.755384,451.778438L1184.276008,452.002387L1162.752626,452.284757Z " data-cartodb-id="25" data-created-at="2013-02-28T17:02:28.348Z" data-name="Martin Luther King Jr. Park" data-updated-at="2013-02-28T17:02:28.595Z"/><path d="M1703.994921,521.311952L1675.787450,521.117202L1550.194131,521.759879L1541.872388,521.798829L1533.788671,521.847517L1529.373555,521.866992L1529.492766,521.584603L1498.615282,521.711191L1473.541012,521.837779L1453.487123,569.572232L1445.638109,588.493259L1445.387391,589.087285L1440.701203,600.286201L1436.413994,610.521137L1446.524203,610.988577L1447.786897,611.056746L1471.912239,612.225346L1503.892641,613.754267L1537.265391,615.292929L1548.190602,615.799325L1570.153609,616.870547L1581.319676,617.552234L1583.922750,618.633196L1585.244790,619.938143L1585.816585,620.649047L1586.214016,620.931461L1587.012842,621.506028L1587.454450,621.817658L1588.662430,622.187718L1589.097280,622.324057L1589.270602,622.353272L1590.572502,622.577256L1592.432370,622.664902L1603.991204,623.181039L1652.929617,625.381929L1660.312759,625.713037L1660.320976,625.693560L1662.223450,621.145707L1703.330871,523.191298L1703.994921,521.311952Z " data-cartodb-id="27" data-created-at="2013-02-28T17:02:28.348Z" data-name="Valley High Manor" data-updated-at="2013-02-28T17:02:28.595Z"/><path d="M1373.616852,522.645995L1396.830189,522.587570L1417.547673,522.246756L1429.191113,522.159118L1441.391165,522.110430L1451.516758,522.081218L1473.541012,521.837779L1498.615282,521.711191L1529.492766,521.584603L1578.164928,406.356669L1578.201939,406.269041L1551.511467,414.506160L1547.276960,415.703761L1540.530549,417.651081L1535.415396,418.965525L1514.226091,422.470715L1492.733994,425.985653L1491.747197,426.258280L1401.813999,456.276901L1400.025391,456.900067L1350.606612,474.270941L1333.872723,480.220335L1333.385998,480.531924L1332.757182,480.950622L1332.323919,481.135629L1326.398978,483.277809L1325.770316,483.677034L1325.246424,484.095734L1324.856244,484.446273L1319.505642,489.490157L1317.562547,490.765738L1316.187657,491.632354L1315.366329,492.411336L1312.978059,494.358793L1311.255616,495.799913L1306.450638,499.207976L1302.602387,501.554676L1301.657572,502.129180L1301.691483,502.947119L1301.576462,503.716372L1301.115860,505.323040L1300.006782,507.796340L1298.149450,512.022385L1293.590242,521.652766L1330.983350,522.801796L1373.616852,522.645995Z " data-cartodb-id="26" data-created-at="2013-02-28T17:02:28.348Z" data-name="Accent" data-updated-at="2013-02-28T17:44:25.125Z"/><path d="M1539.631454,257.806973L1508.084584,257.446771L1484.787017,257.368889L1464.059840,257.281273L1454.606350,257.213126L1450.930849,257.164450L1444.588602,257.067098L1442.212377,257.018422L1432.277032,257.154715L1407.723532,257.203391L1406.847381,259.218579L1406.472859,260.104483L1405.889321,260.893037L1405.376878,261.379798L1396.722830,269.537954L1395.693513,270.560162L1395.000795,271.377928L1394.372639,272.195696L1393.662335,273.188700L1393.513212,273.655996L1393.071892,274.814502L1378.010829,310.368577L1420.584559,310.495141L1393.215780,360.342874L1391.933120,362.767167L1391.106022,364.247059L1389.760384,366.476638L1388.738970,368.034424L1387.624197,369.660367L1386.493758,371.227894L1385.220906,372.941467L1378.724552,381.382799L1348.634654,381.217282L1348.166559,381.217282L1327.441852,430.785850L1317.208812,454.952676L1311.314743,468.944753L1307.211278,479.042138L1305.684824,481.719859L1301.562672,491.651829L1301.054953,493.599284L1301.476090,499.042441L1301.575607,500.240134L1301.657572,502.129180L1302.602387,501.554676L1306.450638,499.207976L1311.255616,495.799913L1312.978059,494.358793L1315.366329,492.411336L1316.187657,491.632354L1317.562547,490.765738L1319.505642,489.490157L1324.856244,484.446273L1325.246424,484.095734L1325.770316,483.677034L1326.398978,483.277809L1332.323919,481.135629L1332.757182,480.950622L1333.385998,480.531924L1333.872723,480.220335L1350.606612,474.270941L1400.025391,456.900067L1409.519546,447.377361L1489.581736,360.333138L1502.741735,346.167196L1504.573600,344.181058L1505.970981,343.032215L1506.871825,342.409114L1508.477781,341.416048L1516.880582,337.229602L1531.444722,330.093210L1543.260542,323.998592L1563.237483,313.659237L1569.387567,310.602233L1618.426523,310.115450L1618.483015,310.115450L1631.492212,279.195419L1631.516896,279.137007L1634.572756,272.020460L1640.282116,258.663671L1640.750997,257.573329L1632.006868,257.602534L1608.732390,257.660945L1596.937147,257.768033L1576.208684,257.836179L1562.145118,258.021148L1539.631454,257.806973Z " data-cartodb-id="28" data-created-at="2013-02-28T17:02:28.348Z" data-name="Fairmont Park" data-updated-at="2013-02-28T17:02:28.595Z"/><path d="M1450.035235,257.144980L1450.930849,257.164450L1454.606350,257.213126L1464.059840,257.281273L1484.787017,257.368889L1508.084584,257.446771L1539.631454,257.806973L1562.145118,258.021148L1576.208684,257.836179L1596.937147,257.768033L1608.732390,257.660945L1632.006868,257.602534L1640.750997,257.573329L1658.821089,257.417565L1661.352786,253.241173L1667.055637,251.586197L1670.909522,249.055061L1672.838636,246.533667L1674.519527,242.785658L1678.807912,236.954366L1678.561757,229.555777L1681.157510,225.457368L1679.841166,223.111256L1680.906886,220.589920L1685.826496,218.496924L1688.900740,215.099464L1690.963920,209.531156L1693.226894,206.659400L1694.490590,201.169013L1697.512367,199.251278L1700.810389,197.596382L1703.327941,196.642384L1706.319953,196.379548L1709.364494,194.637045L1710.673786,189.497163L1713.808341,186.625458L1718.029623,185.058192L1721.141220,184.970581L1724.692711,183.403318L1727.684902,180.181186L1733.238083,176.608623L1736.677431,173.474121L1743.265939,172.052890L1745.989209,169.638749L1746.351350,168.782120L1630.989677,169.521936L1631.199748,169.006012L1635.484111,158.911460L1653.193732,158.804382L1656.766229,150.374480L1644.653173,150.452354L1651.975419,133.193642L1644.345481,133.222844L1640.764454,141.672085L1636.904942,141.944642L1640.584940,133.242312L1636.707473,133.252046L1630.059647,148.972747L1622.108891,139.608439L1619.713666,145.215334L1610.247776,145.254271L1603.901809,160.108784L1592.492206,160.011440L1588.389213,169.619280L1522.231260,169.015746L1529.746990,151.377109L1494.106363,151.065613L1486.525386,168.743182L1482.736936,168.713979L1478.930076,178.078532L1458.825785,239.310244L1456.689208,244.917641L1455.277961,247.721350L1452.520773,252.754415L1450.035235,257.144980Z " data-cartodb-id="29" data-created-at="2013-02-28T17:02:28.348Z" data-name="Douglas Acres" data-updated-at="2013-02-28T17:02:28.595Z"/><path d="M1082.037455,454.017930L1096.435745,459.042200L1099.136543,452.917657L1157.214249,452.498969L1162.752626,452.284757L1184.276008,452.002387L1189.094718,448.944999L1193.577116,445.556567L1197.963258,441.593672L1255.853290,381.431480L1268.303706,368.355718L1271.096510,365.337508L1275.721752,359.301112L1278.294856,354.530435L1280.093199,350.256315L1290.296479,312.140470L1290.717116,310.553555L1180.539695,310.787211L1141.485268,310.582762L1065.652135,310.670383L1056.755672,331.787247L1041.963576,368.569914L1032.636719,390.710205L1029.839559,397.652262L1048.246529,403.328618L1054.066085,410.640743L1056.804010,409.910502L1065.897672,419.043418L1076.396037,429.646653L1082.040034,440.259728L1080.807892,450.872905L1082.037455,454.017930Z " data-cartodb-id="30" data-created-at="2013-02-28T17:02:28.348Z" data-name="Union Park" data-updated-at="2013-02-28T17:02:28.595Z"/><path d="M819.528865,408.907638L818.878857,416.706630L818.616313,421.107584L818.328947,425.586449L818.000617,430.143226L817.399028,438.954996L817.105919,440.240254L816.598354,444.037618L813.136464,452.284757L832.587063,452.323705L825.120838,470.064516L844.546781,470.181361L863.937124,470.210572L883.351680,470.239783L890.704649,452.460022L898.093827,434.748706L904.724855,418.984998L885.686229,418.946052L879.299100,418.838949L881.996202,412.325167L881.633421,411.789656L881.232223,411.020468L880.926341,409.949448L880.974283,409.034213L870.296551,409.053686L872.244476,404.331477L877.457505,404.409369L881.338644,395.286311L876.217727,395.296047L882.012314,381.265963L864.937688,380.934930L847.328130,380.876512L822.418308,380.866776L819.528865,408.907638Z " data-cartodb-id="31" data-created-at="2013-02-28T17:02:28.348Z" data-name="Mondamin Presidential" data-updated-at="2013-02-28T17:02:28.595Z"/><path d="M946.154372,389.902087L945.583778,389.609996L944.903505,389.405532L944.383352,389.356850L943.709051,389.405532L943.090112,389.590523L942.361171,389.902087L941.768784,390.291541L941.122243,390.885460L940.169905,391.859098L938.335202,393.640858L937.191026,394.877381L936.032163,395.938651L934.952149,396.737037L934.412626,397.077812L933.565450,397.535425L932.544835,397.983301L931.565702,398.294867L930.490205,398.548014L929.658280,398.625906L928.992207,398.655115L928.261407,398.703797L927.642467,398.888790L926.958317,399.151674L926.256412,399.609287L925.622382,400.154528L925.145327,400.748453L924.915316,401.235276L924.535518,402.267342L924.336909,403.348091L924.357661,404.253585L924.445559,404.847511L924.955494,406.619555L925.477945,408.342920L925.529289,408.966058L925.314138,409.608669L924.837091,410.202598L924.098792,410.669953L922.632035,411.390458L920.517043,412.422533L919.293856,412.967781L918.351442,413.230668L917.518225,413.464346L916.725200,413.717497L915.615002,414.262746L914.889050,414.700892L913.590651,415.557712L912.365854,416.297693L910.416231,417.339510L907.507568,418.702636L904.724855,418.984998L898.093827,434.748706L890.704649,452.460022L883.351680,470.239783L863.937124,470.210572L844.546781,470.181361L825.120838,470.064516L832.587063,452.323705L813.136464,452.284757L805.645351,470.083990L800.119287,483.044117L798.398926,487.133745L798.110857,487.815351L788.709697,510.328070L783.280119,523.424999L832.083437,523.356836L890.379318,523.191298L896.023701,521.370377L902.771802,505.323040L901.407776,505.323040L908.692428,487.854300L910.041407,487.717979L917.347218,470.181361L917.562305,469.538714L918.130007,468.214473L917.895948,468.214473L918.714824,466.276800L918.117730,466.257325L918.846081,464.533870L919.467547,464.533870L920.808881,461.379078L921.006381,461.408289L924.747957,452.440548L935.003024,428.215357L944.778659,404.974085L950.250144,391.859098L946.154372,389.902087Z " data-cartodb-id="32" data-created-at="2013-02-28T17:02:28.348Z" data-name="King Irving" data-updated-at="2013-02-28T17:02:28.595Z"/><path d="M882.012314,381.265963L876.217727,395.296047L881.338644,395.286311L877.457505,404.409369L872.244476,404.331477L870.296551,409.053686L880.974283,409.034213L880.926341,409.949448L881.232223,411.020468L881.633421,411.789656L881.996202,412.325167L879.299100,418.838949L885.686229,418.946052L904.724855,418.984998L907.507568,418.702636L910.416231,417.339510L912.365854,416.297693L913.590651,415.557712L914.889050,414.700892L915.615002,414.262746L916.725200,413.717497L917.518225,413.464346L918.351442,413.230668L919.293856,412.967781L920.517043,412.422533L922.632035,411.390458L924.098792,410.669953L924.837091,410.202598L925.314138,409.608669L925.529289,408.966058L925.477945,408.342920L924.955494,406.619555L924.445559,404.847511L924.357661,404.253585L924.336909,403.348091L924.535518,402.267342L924.915316,401.235276L925.145327,400.748453L925.622382,400.154528L926.256412,399.609287L926.958317,399.151674L927.642467,398.888790L928.261407,398.703797L928.992207,398.655115L929.658280,398.625906L930.490205,398.548014L931.565702,398.294867L932.544835,397.983301L933.565450,397.535425L934.412626,397.077812L934.952149,396.737037L936.032163,395.938651L937.191026,394.877381L938.335202,393.640858L940.169905,391.859098L941.122243,390.885460L941.768784,390.291541L942.361171,389.902087L943.090112,389.590523L943.709051,389.405532L944.383352,389.356850L944.903505,389.405532L945.583778,389.609996L946.154372,389.902087L946.339594,389.463950L947.137949,387.594570L945.725035,386.202274L944.631881,385.179959L943.508138,384.439999L942.009356,383.670830L941.466126,383.485840L940.375551,383.125596L939.513452,382.950343L937.884969,382.736144L937.098975,382.629045L934.225191,382.706935L931.683667,383.106124L930.119981,383.349531L927.885624,383.690302L924.095650,384.274481L920.933171,384.615252L918.820842,384.839188L917.140535,385.033914L913.923988,385.082596L912.955190,385.121541L910.751588,385.160486L908.000479,385.043650L905.300226,384.634725L903.377897,384.332899L899.355464,383.271641L897.041248,382.541418L894.591517,382.093548L891.470304,381.840405L882.012314,381.265963Z " data-cartodb-id="33" data-created-at="2013-02-28T17:02:28.348Z" data-name="Chautauqua Park" data-updated-at="2013-02-28T17:02:28.595Z"/><path d="M896.023701,521.370377L901.509354,519.714998L918.956171,519.607885L930.719589,519.656573L932.441933,519.763686L934.217483,520.279774L935.914869,520.980876L940.215787,523.619750L941.179638,524.204003L942.336845,524.330592L944.943388,524.389017L977.559607,524.350067L984.252907,507.991088L990.818108,492.051057L1006.925602,452.995553L1025.840465,407.476369L1026.902224,404.964349L1020.223666,403.007314L994.109226,395.383675L988.314243,392.482227L980.839564,390.194178L974.250588,388.159278L973.746161,386.698827L965.218099,382.492737L947.137949,387.594570L946.339594,389.463950L946.154372,389.902087L950.250144,391.859098L944.778659,404.974085L935.003024,428.215357L924.747957,452.440548L921.006381,461.408289L920.808881,461.379078L919.467547,464.533870L918.846081,464.533870L918.117730,466.257325L918.714824,466.276800L917.895948,468.214473L918.130007,468.214473L917.562305,469.538714L917.347218,470.181361L910.041407,487.717979L908.692428,487.854300L901.407776,505.323040L902.771802,505.323040L896.023701,521.370377Z " data-cartodb-id="34" data-created-at="2013-02-28T17:02:28.348Z" data-name="River Bend" data-updated-at="2013-02-28T17:02:28.595Z"/><path d="M977.559607,524.350067L944.943388,524.389017L942.336845,524.330592L941.179638,524.204003L940.215787,523.619750L935.914869,520.980876L934.217483,520.279774L932.441933,519.763686L930.719589,519.656573L918.956171,519.607885L901.509354,519.714998L896.023701,521.370377L890.379318,523.191298L832.083437,523.356836L824.255826,542.130996L823.803631,544.156443L824.619995,547.515968L828.552207,564.898020L836.838441,565.287536L860.658817,566.602157L878.774901,567.644117L881.881472,567.760972L901.271398,568.481581L932.773320,568.598436L958.291983,569.007430L964.380214,557.039545L966.666428,551.722691L974.335652,532.344633L977.559607,524.350067Z " data-cartodb-id="35" data-created-at="2013-02-28T17:02:28.348Z" data-name="Cheatom Park" data-updated-at="2013-02-28T17:02:28.595Z"/><path d="M493.390849,789.838075L492.969414,790.052353L490.832212,785.133693L491.874020,770.601862L491.884841,769.218816L493.526663,762.118558L480.369241,762.060119L486.337186,747.869483L484.803457,747.869483L489.455556,736.795657L492.298355,736.620347L493.116413,736.269726L497.392537,726.316046L496.246291,726.316046L498.064433,721.991775L501.123773,721.991775L503.230010,716.966292L504.376251,716.966292L505.836435,713.508852L506.178805,713.596505L510.138905,704.850690L509.186402,704.850690L510.601554,701.480941L520.098018,695.929642L522.589228,690.222547L519.723670,690.222547L524.631663,678.545496L534.123956,678.584452L521.774662,678.487063L474.548695,678.116983L472.058579,678.107244L467.627084,678.107244L465.883545,678.107244L461.500481,678.107244L458.663117,678.116983L454.998612,678.097505L449.328152,678.087766L446.388322,684.836869L438.024048,704.733820L434.992135,704.840951L435.391324,703.876773L432.614537,703.876773L431.896649,705.327910L428.792864,705.337649L427.262314,709.496287L426.406673,709.496287L423.404170,709.457330L420.832879,715.067134L416.929938,715.076873L414.136937,721.670377L412.931817,724.504525L422.610479,724.485046L423.908336,721.660638L453.496983,721.631420L442.048762,748.892138L436.660452,748.901877L425.367366,775.549675L424.273253,778.159948L421.776165,783.653230L420.331618,786.175863L419.021565,789.049140L419.736662,788.961480L418.694383,791.659445L417.756607,791.834764L415.601408,796.977475L414.239612,799.763120L414.433352,799.763120L413.882302,801.068285L426.922885,801.136466L423.433016,809.230472L421.311826,811.061616L420.429586,817.587525L446.459073,812.454456L455.842992,808.870088L464.906329,802.909155L484.044160,801.097505L493.390849,789.838075Z " data-cartodb-id="36" data-created-at="2013-02-28T17:02:28.348Z" data-name="Salisbury Oaks" data-updated-at="2013-02-28T17:02:28.595Z"/><path d="M432.495451,677.922205L429.766777,677.464475L428.780391,677.162568L427.142057,676.626927L425.912062,676.003636L424.169423,675.390085L423.029360,675.127134L421.481116,674.932356L419.810541,674.893400L418.130640,675.010267L414.690942,675.643296L414.064349,675.769902L405.107166,677.444997L402.678492,677.824815L399.887991,678.029333L397.676907,677.951421L393.972357,677.892988L384.738844,677.795598L383.543726,677.854032L381.179936,678.194895L379.149954,678.681842L378.037157,679.042182L376.721776,679.499913L375.308433,680.093989L361.413905,684.934259L342.064069,691.605492L331.395660,695.267384L329.881956,695.793295L328.656142,696.153641L327.220298,696.533466L326.153536,696.689292L324.063039,696.669814L323.486595,696.582162L308.021113,694.517474L305.865072,694.118172L289.310364,694.994689L283.455791,695.286862L275.073572,695.715382L274.067739,695.822512L272.658148,695.949120L257.503008,695.939381L247.715289,695.988077L236.834205,695.988077L229.985017,695.997816L230.781033,698.870853L225.803067,712.525188L226.061671,715.485922L224.019721,720.949667L226.403105,724.192866L226.260273,731.906458L227.765239,734.477667L226.808760,737.983872L229.393400,743.827572L230.688920,745.346940L232.137695,749.905054L238.213365,753.274954L241.784977,755.846215L253.323878,760.959535L260.018389,763.170445L261.345282,764.309990L264.461332,768.858445L269.666981,772.033609L276.618075,777.020388L276.502663,780.887106L278.870496,783.614270L281.700368,784.062305L286.609111,778.364485L289.373982,778.354745L291.174032,782.445484L294.348753,782.669502L299.865527,779.698843L309.179412,777.867753L309.324683,779.913120L305.246225,784.237623L303.753656,787.198554L304.908013,789.243938L308.640175,789.925734L315.264673,786.721298L318.076161,788.990700L321.368884,790.120533L327.332338,798.078096L332.916885,800.337782L336.506601,803.746800L340.827776,806.016238L343.321973,809.649297L349.749821,813.506392L353.628486,819.214138L363.046255,796.373595L382.855655,795.915815L402.796911,748.444118L412.931817,724.504525L414.136937,721.670377L416.929938,715.076873L420.832879,715.067134L423.404170,709.457330L426.406673,709.496287L427.262314,709.496287L428.792864,705.337649L431.896649,705.327910L432.614537,703.876773L435.391324,703.876773L434.992135,704.840951L438.024048,704.733820L446.388322,684.836869L449.328152,678.087766L437.430426,678.048811L434.653522,678.068289L432.769584,677.961160L432.701051,677.951421L432.495451,677.922205Z " data-cartodb-id="37" data-created-at="2013-02-28T17:02:28.348Z" data-name="Westwood" data-updated-at="2013-02-28T17:02:28.595Z"/><path d="M976.536469,962.550842L968.960521,962.443686L961.501285,962.385237L942.924662,962.404720L930.694575,962.287822L918.145105,962.239114L899.129409,962.131957L898.661163,962.131957L895.642741,970.938313L888.221745,988.541501L881.499288,1004.488857L875.500034,1018.702370L869.640399,1032.623807L862.309215,1050.305952L853.478995,1071.680793L840.092979,1103.256720L826.959360,1134.736156L810.565043,1173.865102L797.559462,1204.800987L788.546569,1226.432286L780.917086,1244.780262L782.519807,1244.790006L783.670467,1244.185872L814.614044,1244.468451L858.546217,1245.238234L895.769012,1156.580374L916.907130,1105.653450L916.944072,1105.565765L946.760042,1033.023236L959.940906,1002.170289L968.847852,980.962451L968.979255,980.650717L976.536469,962.550842Z " data-cartodb-id="38" data-created-at="2013-02-28T17:02:28.348Z" data-name="South Park" data-updated-at="2013-02-28T17:02:28.595Z"/><path d="M960.232412,723.871467L957.550562,722.537177L955.925191,720.803577L948.486687,712.914758L939.921543,700.409635L940.960421,683.473411L947.507654,675.020006L943.758739,674.435672L942.173338,672.780060L942.382812,671.270533L947.079198,637.262919L948.284684,630.718620L951.071783,609.858931L927.206577,609.527828L903.566002,609.372015L874.461246,609.177249L841.702830,608.631903L796.620232,608.446875L796.477506,608.631903L789.324564,626.083099L788.781720,635.509978L788.868410,636.795467L788.381762,639.132725L779.049463,662.320545L776.527642,663.265209L774.083346,664.102746L772.335070,664.706552L769.391849,665.349314L765.557832,665.845994L760.986999,666.118681L754.636236,666.401107L753.081861,666.469279L750.529304,666.703011L745.043428,667.345774L738.781926,679.363568L740.949417,680.882844L740.780361,685.966593L738.405316,688.265001L722.495803,700.059026L726.980653,700.984244L730.429852,703.769642L728.810210,713.226414L717.738864,727.270504L709.325950,730.085188L698.153857,739.454534L695.671107,742.123157L686.838984,751.628961L680.295827,764.738538L678.138098,779.698843L682.624435,786.244042L694.486560,789.964694L702.110157,789.019920L713.232320,787.130374L734.589877,780.555950L757.326021,780.526731L776.687241,785.338231L779.777141,786.107683L810.441929,799.159239L820.770749,799.149499L831.733807,795.341155L833.864607,793.256799L834.989103,791.873724L851.047197,780.448812L854.861815,777.741135L861.136915,771.001192L872.679963,763.637950L901.291039,739.474013L936.358452,729.218382L955.739916,730.250758L960.232412,723.871467Z " data-cartodb-id="39" data-created-at="2013-02-28T17:02:28.348Z" data-name="Downtown Des Moines" data-updated-at="2013-02-28T17:02:28.595Z"/><path d="M710.030670,416.930572L710.075955,416.823470L713.473913,408.615542L739.430760,346.225612L764.287182,285.289790L777.483770,252.287127L769.364077,247.770025L762.137868,243.525524L757.369515,239.689910L626.945761,240.274013L574.666142,240.546594L572.636460,240.556329L514.152549,382.891925L528.892305,382.560891L514.586300,417.261617L514.334775,417.894497L533.854004,417.884760L543.627702,417.884760L552.958166,417.806867L553.313280,417.806867L592.940564,417.349247L592.928211,417.378456L600.486071,417.427139L642.898589,417.349247L694.104283,417.261617L710.030670,416.930572Z " data-cartodb-id="40" data-created-at="2013-02-28T17:02:28.348Z" data-name="Beaverdale" data-updated-at="2013-02-28T17:02:28.595Z"/><path d="M592.928211,417.378456L563.023073,488.467746L602.065732,488.613805L616.517808,454.086089L619.183040,458.701406L625.296622,470.833745L630.969193,467.114186L635.412484,463.209635L641.710846,458.487192L643.829755,457.484284L647.175652,455.488208L649.207832,453.755033L650.822006,452.304231L653.208497,450.668430L654.305922,450.210795L655.844162,450.123163L657.046728,450.123163L667.158608,426.092757L680.349765,426.160913L689.933274,426.229070L694.206031,426.316701L695.968561,425.946706L697.430633,425.313822L699.520554,424.398574L701.270686,423.580694L702.837678,422.947811L707.547065,422.938075L710.030670,416.930572L694.104283,417.261617L642.898589,417.349247L600.486071,417.427139L592.928211,417.378456Z " data-cartodb-id="41" data-created-at="2013-02-28T17:02:28.348Z" data-name="Shared Beaverdale / Drake" data-updated-at="2013-02-28T17:02:28.595Z"/><path d="M348.059443,599.653216L426.713147,604.571034L435.455909,605.905179L439.717683,606.898485L442.678361,607.589904L442.698460,607.599642L443.278505,607.735979L460.598383,611.923458L471.768897,612.498020L499.018293,612.556450L520.987252,560.360157L550.961243,488.419060L544.903002,488.526170L537.496889,488.633280L534.712365,488.633280L524.227863,488.652754L538.794539,453.151343L547.845546,431.155846L552.958166,417.806867L543.627702,417.884760L533.854004,417.884760L514.334775,417.894497L430.217466,417.865287L386.570667,521.954630L385.924142,523.502899L384.563283,526.988949L383.386721,528.702765L382.194288,529.900490L378.338074,533.065218L375.917303,535.411991L374.394235,537.544540L348.713716,598.124315L348.059443,599.653216Z " data-cartodb-id="42" data-created-at="2013-02-28T17:02:28.348Z" data-name="Waveland Park" data-updated-at="2013-02-28T17:02:28.595Z"/><path d="M552.958166,417.806867L547.845546,431.155846L538.794539,453.151343L524.227863,488.652754L534.712365,488.633280L537.496889,488.633280L544.903002,488.526170L550.961243,488.419060L563.023073,488.467746L592.928211,417.378456L592.940564,417.349247L553.313280,417.806867L552.958166,417.806867Z " data-cartodb-id="43" data-created-at="2013-02-28T17:02:28.348Z" data-name="Shared Beaverdale / Waveland Park" data-updated-at="2013-02-28T17:02:28.595Z"/><path d="M818.878857,416.706630L789.041417,416.687157L788.408106,416.657947L795.802279,398.596696L776.868140,398.635642L769.186697,416.765050L734.705640,417.096095L725.056799,417.125305L710.075955,416.823470L710.030670,416.930572L707.547065,422.938075L702.837678,422.947811L701.270686,423.580694L699.520554,424.398574L697.430633,425.313822L695.968561,425.946706L694.206031,426.316701L689.933274,426.229070L680.349765,426.160913L667.158608,426.092757L657.046728,450.123163L655.844162,450.123163L654.305922,450.210795L653.208497,450.668430L650.822006,452.304231L649.207832,453.755033L647.175652,455.488208L643.829755,457.484284L641.710846,458.487192L635.412484,463.209635L630.969193,467.114186L625.296622,470.833745L619.183040,458.701406L616.517808,454.086089L602.065732,488.613805L563.023073,488.467746L550.961243,488.419060L520.987252,560.360157L499.018293,612.556450L502.155470,612.390898L505.468164,611.981888L508.361763,611.494971L512.150675,610.589306L515.860766,609.449922L517.800165,608.680595L520.516494,607.658072L524.934817,605.778581L537.241600,600.607563L541.403998,598.932587L545.908407,597.384210L549.189419,596.400651L554.147255,595.173638L557.700007,594.521180L563.864301,593.820030L567.549996,593.693434L570.318382,593.712910L581.252661,594.044009L600.985104,594.355630L627.894118,594.550394L628.124079,594.560132L634.479727,594.647776L636.636118,594.988613L653.832823,594.959398L660.990040,594.238772L665.013917,593.712910L668.529755,593.128620L671.383567,592.563806L675.025845,591.813967L679.648703,590.577221L683.690093,589.379429L685.810173,588.717236L691.436215,586.691706L700.520093,583.263894L712.529892,578.833074L714.796405,573.525852L735.787659,523.580800L750.861146,488.010096L756.906546,487.990622L798.110857,487.815351L798.398926,487.133745L800.119287,483.044117L805.645351,470.083990L813.136464,452.284757L816.598354,444.037618L817.105919,440.240254L817.399028,438.954996L818.000617,430.143226L818.328947,425.586449L818.616313,421.107584L818.878857,416.706630Z " data-cartodb-id="44" data-created-at="2013-02-28T17:02:28.348Z" data-name="Drake" data-updated-at="2013-02-28T17:02:28.595Z"/><path d="M973.482452,993.889733L971.842469,988.950655L969.716133,982.599054L968.979255,980.650717L968.847852,980.962451L959.940906,1002.170289L946.760042,1033.023236L986.952166,1033.305758L1085.496167,1033.539570L1086.300863,1031.610625L1086.912632,1030.139563L1087.249236,1029.340709L1087.524404,1028.668503L1087.934899,1027.694292L1088.247013,1026.934409L1088.604146,1026.086847L1089.027097,1025.063928L1089.273397,1024.479403L1089.942651,1022.871963L1090.012437,1022.706348L1090.611909,1021.264524L1091.318117,1019.569410L1091.954405,1018.059397L1092.040612,1017.854814L1092.545677,1016.637063L1093.251896,1014.941957L1095.341840,1009.924846L1097.850012,1003.992021L1087.836602,1000.894105L1082.890536,999.335409L1081.363586,998.916510L1079.968817,998.643739L1078.436249,998.448902L1077.011916,998.361225L1076.927215,998.351484L1064.901979,998.341742L1053.531240,998.254065L1049.425994,998.244323L998.561654,997.961810L978.620402,997.961810L974.921128,998.195614L973.482452,993.889733Z " data-cartodb-id="45" data-created-at="2013-02-28T17:02:28.348Z" data-name="Ewing Woods - Evergreen" data-updated-at="2013-02-28T17:02:28.595Z"/><path d="M1001.148640,1369.346433L1008.204472,1352.613968L1008.569382,1351.746655L1011.250763,1345.392877L1012.915459,1341.436402L1014.465243,1337.772291L1014.686660,1337.246063L1020.418918,1323.642196L1022.678195,1318.292299L1023.215120,1317.054713L984.240006,1316.742880L978.972206,1329.011610L976.533101,1334.692889L970.789845,1348.111743L966.916048,1357.164938L963.612413,1364.844136L962.630885,1366.793180L962.029920,1367.952863L963.099801,1367.962608L963.337953,1367.972353L1001.148640,1369.346433Z " data-cartodb-id="46" data-created-at="2013-02-28T17:02:28.348Z" data-name="Hillsboro Estates" data-updated-at="2013-02-28T17:02:28.595Z"/><path d="M1162.271191,819.126476L1147.880753,814.889495L1142.472606,813.184967L1138.035130,811.762905L1135.572205,811.324599L1133.720205,811.236938L1131.548403,811.275899L1129.428138,811.441481L1127.892340,811.714205L1126.064778,812.142771L1114.283714,815.308322L1104.788383,817.762848L1096.033690,819.399202L1090.612813,819.964134L1086.877156,820.246600L1082.682369,820.392703L1056.216483,820.382963L1048.648511,820.373223L1045.026729,820.538807L1042.929943,820.801793L1040.965559,821.171921L1035.800092,822.126464L1006.577961,890.475851L995.905237,915.441947L981.659956,950.627303L976.536469,962.550842L968.979255,980.650717L969.716133,982.599054L974.921128,998.195614L978.620402,997.961810L1049.425994,998.244323L1053.531240,998.254065L1064.901979,998.341742L1076.987146,998.439160L1078.436249,998.448902L1079.968817,998.643739L1081.363586,998.916510L1082.890536,999.335409L1087.836602,1000.894105L1113.833700,1008.824007L1115.383800,1006.524914L1120.918497,993.276000L1122.646995,989.155232L1126.015120,980.933226L1133.024121,964.206900L1139.853276,947.851008L1155.005947,911.808530L1160.771153,898.190634L1161.520849,896.661311L1162.228217,895.404734L1163.060647,894.157900L1163.904275,893.037699L1165.002411,891.888276L1166.241754,890.748595L1167.682919,889.608916L1169.629837,888.303643L1176.328569,884.076130L1184.226450,879.244707L1188.192523,876.692634L1189.767248,875.504265L1191.022181,874.442528L1192.677053,872.776868L1194.314073,870.789769L1205.489776,856.461333L1207.268455,854.425561L1207.329495,854.357378L1200.471246,847.207856L1195.665822,841.967501L1193.296481,839.756430L1189.137345,836.123270L1185.980060,833.483635L1182.656953,830.892709L1180.103557,829.022571L1170.644969,823.178409L1167.256040,821.318025L1165.249162,820.334262L1162.271191,819.126476Z " data-cartodb-id="47" data-created-at="2013-02-28T17:02:28.348Z" data-name="Pioneer Park" data-updated-at="2013-02-28T17:02:28.595Z"/><path d="M682.624435,786.244042L678.138098,779.698843L680.295827,764.738538L686.838984,751.628961L695.671107,742.123157L698.153857,739.454534L709.325950,730.085188L717.738864,727.270504L728.810210,713.226414L730.429852,703.769642L726.980653,700.984244L722.495803,700.059026L714.978333,697.789811L699.631971,700.545983L698.263015,703.730686L678.103965,750.693960L643.864452,831.029074L617.626510,890.914190L558.690243,1031.776241L636.906496,1031.795725L675.718954,1031.941857L713.980275,1031.824952L717.651781,1023.134998L717.902311,1022.540733L718.653342,1020.835874L719.265914,1020.416967L722.022523,1014.337954L725.711096,1005.550723L729.549773,996.675889L734.186986,985.696916L736.880737,978.867993L737.991090,976.062399L737.647066,975.633767L739.340734,971.444876L741.472115,966.466936L743.955785,961.342896L748.421623,952.341791L749.792140,949.302474L752.243967,943.584294L755.691614,935.294450L765.684041,911.506558L767.690575,906.002883L769.843645,903.061107L771.540700,899.018613L772.914019,896.719756L774.966773,894.245568L785.181900,883.540387L785.768948,882.761124L787.508969,880.549969L798.494299,868.880599L804.970604,859.977675L815.189727,845.551979L821.339056,834.535592L822.553282,831.408946L828.777705,816.350521L829.479334,813.233667L831.733807,795.341155L820.770749,799.149499L810.441929,799.159239L779.777141,786.107683L776.687241,785.338231L757.326021,780.526731L734.589877,780.555950L713.232320,787.130374L694.486560,789.964694L682.624435,786.244042Z " data-cartodb-id="48" data-created-at="2013-02-28T17:02:28.348Z" data-name="Grays Lake" data-updated-at="2013-02-28T17:02:28.595Z"/><path d="M467.669773,1247.898377L479.657453,1244.244336L482.524787,1243.533018L484.655316,1243.114022L487.681707,1242.753491L493.007436,1242.665795L496.649162,1242.646306L500.948622,1242.675539L501.334310,1242.948373L509.279468,1242.967861L514.863041,1242.958117L526.110393,1243.016581L570.265242,1243.084790L604.285278,1243.347880L614.179426,1243.513530L617.037660,1243.533018L617.654125,1243.123766L625.857402,1243.182231L647.952243,1190.555752L684.857960,1102.545497L703.466757,1058.489523L710.619686,1041.080025L710.384946,1040.602656L713.980275,1031.824952L675.718954,1031.941857L636.906496,1031.795725L558.690243,1031.776241L528.881165,1102.272699L526.165790,1107.699444L471.170991,1239.031260L467.669773,1247.898377Z " data-cartodb-id="49" data-created-at="2013-02-28T17:02:28.348Z" data-name="Watrous South" data-updated-at="2013-02-28T17:02:28.595Z"/><path d="M1922.233882,239.466004L1894.672629,303.943058L1900.983565,303.943058L1898.705257,309.356069L1970.007370,309.200298L1999.270258,239.904081L1922.233882,239.466004Z " data-cartodb-id="50" data-created-at="2013-02-28T17:02:28.348Z" data-name="Brook Run" data-updated-at="2013-02-28T17:02:28.595Z"/><path d="M724.575005,381.752778L770.520619,381.791723L797.190466,381.246491L822.426379,380.866776L822.637206,378.822157L824.825365,367.158169L826.736513,358.707210L827.302994,356.127149L827.550128,353.615246L827.399333,350.441300L827.316919,347.773634L771.912460,347.870994L765.694433,362.630861L732.673503,362.679542L724.575005,381.752778Z " data-cartodb-id="51" data-created-at="2013-02-28T17:02:28.348Z" data-name="Martin-Hickman" data-updated-at="2013-02-28T17:02:28.595Z"/><path d="M757.369515,239.689910L762.137868,243.525524L769.364077,247.770025L777.483770,252.287127L764.287182,285.289790L739.430760,346.225612L732.673503,362.679542L765.694433,362.630861L771.912460,347.870994L827.316919,347.773634L827.399333,350.441300L827.550128,353.615246L827.302994,356.127149L826.736513,358.707210L824.825365,367.158169L822.637206,378.822157L822.426379,380.866776L847.328130,380.876512L864.937688,380.934930L882.012314,381.265963L891.470304,381.840405L894.591517,382.093548L897.041248,382.541418L899.355464,383.271641L903.377897,384.332899L905.300226,384.634725L908.000479,385.043650L910.751588,385.160486L913.923988,385.082596L917.140535,385.033914L918.820842,384.839188L920.933171,384.615252L924.095650,384.274481L927.885624,383.690302L930.119981,383.349531L931.683667,383.106124L934.225191,382.706935L937.098975,382.629045L939.513452,382.950343L941.466126,383.485840L943.508138,384.439999L944.631881,385.179959L945.725035,386.202274L947.137949,387.594570L965.218099,382.492737L973.746161,386.698827L971.373885,379.824993L972.157305,369.553268L985.370262,343.226934L983.309404,332.965286L970.033524,329.129362L947.893478,336.217069L919.707124,345.884853L904.642171,344.619176L886.930145,339.517542L878.517513,324.125157L876.792284,302.959762L880.781191,276.644750L885.329737,257.193656L878.939152,258.030883L859.669058,257.894590L848.024822,257.797238L838.066724,257.758297L834.313554,257.359154L832.286368,257.076833L827.133876,256.113049L820.742877,254.185484L817.301160,252.764150L812.109598,250.252482L808.593596,248.091284L799.772128,243.535259L792.801223,241.490895L786.169927,240.303218L782.456662,239.962491L778.372180,239.621765L769.010856,239.641235L757.369515,239.689910Z " data-cartodb-id="52" data-created-at="2013-02-28T17:02:28.348Z" data-name="Prospect Park" data-updated-at="2013-02-28T17:02:28.595Z"/><path d="M1861.920909,171.712185L1861.978513,171.575903L1862.023932,171.449355L1862.069352,171.322807L1862.098314,171.235197L1862.127275,171.147587L1862.148167,171.059977L1862.164944,170.982101L1862.193906,170.894491L1862.206728,170.806882L1862.227620,170.719272L1862.244397,170.641396L1862.257220,170.553786L1862.265927,170.475911L1862.278750,170.388301L1862.287457,170.310425L1862.300280,170.222815L1862.300918,170.144940L1862.305670,170.057330L1862.306309,169.979454L1862.306947,169.901579L1862.303630,169.813969L1862.304268,169.736094L1862.296837,169.658218L1862.289405,169.580343L1862.281974,169.502467L1862.274542,169.424592L1862.259041,169.346717L1862.255405,169.298044L1862.247814,169.239638L1862.236109,169.190966L1862.228039,169.190966L1862.220448,169.132559L1862.204788,169.074153L1862.189127,169.015746L1862.051978,168.519291L1861.620279,167.039660L1860.832199,164.245889L1853.729220,167.896288L1830.344242,179.597115L1729.865357,230.159344L1631.492212,279.195419L1631.390940,279.244096L1618.426523,310.115450L1578.068849,406.259304L1627.765264,393.348766L1666.310284,380.623368L1761.739783,380.272862L1763.289337,380.272862L1763.643101,379.416070L1785.541534,327.396386L1806.884134,327.328235L1814.392607,309.667610L1809.542525,309.648138L1839.977515,238.375680L1822.978076,238.385415L1847.158711,180.921010L1857.310388,180.921010L1858.044730,180.921010L1861.920909,171.712185Z " data-cartodb-id="53" data-created-at="2013-02-28T17:02:28.348Z" data-name="Sheridan Gardens" data-updated-at="2013-02-28T17:02:28.595Z"/><path d="M1324.997074,60.637935L1324.941969,57.698428L1323.359490,55.488936L1320.061158,54.340391L1292.718691,52.520242L1293.625001,50.378895L1254.352153,50.437295L1248.926464,63.256244L1268.566978,63.236777L1253.234473,99.523859L1272.841591,99.679600L1264.167753,120.140275L1273.072764,119.157142L1280.634478,119.079270L1279.501874,121.756120L1286.534464,121.746386L1281.576553,133.388324L1238.714751,133.475931L1238.261709,134.546684L1258.064562,134.507747L1254.551570,142.810985L1274.221450,142.762314L1270.474081,151.600998L1274.359659,151.591263L1270.608300,160.439752L1251.632212,160.488423L1247.901295,169.307779L1086.372176,169.667953L1085.255476,172.364393L1073.049089,201.558401L1042.617220,273.578113L1018.457523,330.842870L1009.282919,352.427449L1000.161592,374.479790L998.877324,377.040421L988.314243,392.482227L994.109226,395.383675L1020.223666,403.007314L1027.571495,399.638496L1029.839559,397.652262L1032.636719,390.710205L1041.963576,368.569914L1056.755672,331.787247L1065.652135,310.670383L1141.485268,310.582762L1180.539695,310.787211L1290.717116,310.553555L1327.716994,168.967074L1281.128796,169.220169L1288.454022,151.961166L1288.954335,151.961166L1289.074590,151.581529L1280.214210,151.581529L1278.245959,156.215052L1274.344232,156.224786L1280.132460,142.752580L1292.378211,142.723377L1304.670432,113.783993L1304.379934,113.783993L1306.624386,108.498475L1306.914884,108.498475L1310.563683,99.913212L1308.618975,99.913212L1309.735493,97.236415L1306.035627,97.246148L1308.185990,92.126183L1311.877776,92.116449L1324.997074,60.637935Z M1256.655203,92.622604L1266.947675,92.612870L1264.776940,97.742572L1254.492508,97.752306L1256.655203,92.622604Z M1352.591198,0.000000L1345.066883,0.009733L1341.086382,9.470203L1341.889325,9.460470L1339.754841,14.541126L1337.390640,14.541126L1331.959476,27.505662L1325.124861,27.525128L1323.143422,32.187336L1318.810356,32.187336L1316.952186,36.596499L1314.063469,36.596499L1313.041613,39.029819L1334.232468,36.547833L1337.602428,34.571981L1338.619978,32.167870L1336.840674,32.177603L1339.080456,27.495928L1334.307556,27.505662L1337.900715,18.940486L1342.838920,18.940486L1343.127139,18.278634L1344.898190,18.288367L1346.472151,14.550859L1341.978415,14.015540L1343.602019,10.141783L1348.322168,10.161249L1352.591198,0.000000Z " data-cartodb-id="54" data-created-at="2013-02-28T17:02:28.348Z" data-name="Highland Park" data-updated-at="2013-02-28T17:02:28.595Z"/><path d="M1038.551630,169.648484L994.063848,169.629015L997.832075,160.838860L1009.234426,160.838860L1010.909232,160.332674L1010.209631,142.441086L1010.176927,141.565009L1007.793234,142.392415L995.506073,142.080921L997.207376,138.080176L992.459581,137.953632L988.049888,138.381935L985.311807,139.131465L982.598819,140.241160L978.250922,142.830453L974.579202,146.071945L972.788976,148.242679L971.086031,151.046144L962.661250,169.580343L950.440537,169.492733L939.000106,190.577704L934.524145,199.572523L933.362150,200.964584L932.369866,202.794710L914.119179,223.899783L894.907107,246.115057L885.329737,257.193656L880.781191,276.644750L876.792284,302.959762L878.517513,324.125157L886.930145,339.517542L904.642171,344.619176L919.707124,345.884853L947.893478,336.217069L970.033524,329.129362L983.309404,332.965286L985.370262,343.226934L972.157305,369.553268L971.373885,379.824993L973.746161,386.698827L974.250588,388.159278L980.839564,390.194178L988.314243,392.482227L998.877324,377.040421L1000.161592,374.479790L1009.282919,352.427449L1018.457523,330.842870L1042.617220,273.578113L1073.049089,201.558401L1085.255476,172.364393L1086.372176,169.667953L1084.225650,169.667953L1081.078489,169.667953L1038.551630,169.648484Z " data-cartodb-id="55" data-created-at="2013-02-28T17:02:28.348Z" data-name="Oak Park" data-updated-at="2013-02-28T17:02:28.595Z"/><path d="M1769.349590,415.479819L1748.466739,415.450609L1763.289337,380.272862L1666.310284,380.623368L1627.765264,393.348766L1578.201939,406.269041L1578.164928,406.356669L1529.492766,521.584603L1529.373555,521.866992L1533.788671,521.847517L1541.872388,521.798829L1550.194131,521.759879L1675.787450,521.117202L1703.994921,521.311952L1705.047035,518.819147L1704.421144,518.867834L1704.424114,518.478334L1704.373358,518.254371L1704.151125,515.644723L1704.373556,514.524913L1704.405796,513.473266L1704.150842,512.509258L1703.847557,512.061335L1703.232285,510.191746L1703.009714,509.743824L1702.701693,508.331898L1702.754140,507.806077L1702.620354,507.358156L1702.672802,506.832337L1702.814540,505.712536L1702.672686,505.264616L1702.417748,504.300614L1701.479662,502.431039L1701.006279,501.009384L1701.309453,499.889589L1701.696786,499.373510L1702.666421,497.650003L1702.726949,497.124188L1702.504392,496.676271L1701.350657,494.514590L1700.257541,493.394801L1700.002629,492.430811L1700.233180,491.311024L1700.900697,489.519369L1701.546989,488.389849L1702.446250,487.425862L1703.519115,486.452139L1703.938142,486.013965L1704.825373,485.040243L1704.620481,483.345970L1703.083466,479.606893L1703.498625,478.623440L1703.765807,477.990525L1704.937156,475.234916L1706.371743,471.836665L1707.810306,468.448162L1709.252997,465.049933L1710.691593,461.661451L1712.134316,458.263242L1713.564874,454.874781L1714.974743,451.554488L1715.032295,451.418172L1715.315945,450.746325L1716.502369,450.746325L1733.596415,450.765799L1733.814330,450.765799L1754.310341,450.775536L1769.349590,415.479819Z " data-cartodb-id="56" data-created-at="2013-02-28T17:02:28.348Z" data-name="Grays Woods" data-updated-at="2013-02-28T17:02:28.595Z"/><path d="M684.857960,1102.545497L655.284817,1172.958962L625.697347,1243.562250L652.303024,1244.117663L666.091345,1243.952014L703.185672,1244.526915L741.717804,1244.429474L760.635017,1244.624356L780.807883,1244.809494L810.455841,1173.894332L840.117882,1103.159292L762.818392,1102.642924L684.857960,1102.545497Z " data-cartodb-id="57" data-created-at="2013-02-28T17:02:28.348Z" data-name="Fort Des Moines" data-updated-at="2013-02-28T17:02:28.595Z"/><path d="M1259.333800,1034.981410L1258.219919,1034.942441L1232.902888,1034.708629L1223.584264,1034.961925L1178.597189,1034.562497L1154.232580,1034.367653L1085.362069,1033.666218L1092.040612,1017.854814L1092.545677,1016.637063L1093.251896,1014.941957L1095.341840,1009.924846L1097.850012,1003.992021L1097.555949,1003.904344L1113.833700,1008.824007L1115.383800,1006.524914L1120.918497,993.276000L1122.646995,989.155232L1126.015120,980.933226L1133.024121,964.206900L1139.853276,947.851008L1155.005947,911.808530L1160.771153,898.190634L1161.520849,896.661311L1162.228217,895.404734L1163.060647,894.157900L1163.904275,893.037699L1165.002411,891.888276L1166.241754,890.748595L1167.682919,889.608916L1169.629837,888.303643L1176.328569,884.076130L1184.226450,879.244707L1188.192523,876.692634L1189.767248,875.504265L1191.022181,874.442528L1192.677053,872.776868L1194.314073,870.789769L1205.489776,856.461333L1207.268455,854.425561L1216.919970,864.370684L1227.734501,875.962079L1231.707464,880.286968L1237.265700,885.887920L1242.951154,892.336356L1245.253529,895.492402L1248.050512,901.171361L1251.035630,908.779069L1252.038148,914.234054L1252.363599,920.682660L1252.601623,928.085942L1252.599325,933.531284L1252.590466,939.911817L1252.591798,946.574889L1252.583203,954.085505L1252.572364,964.226383L1252.573448,968.668527L1252.643261,973.100947L1253.717821,980.475367L1258.918950,994.074827L1262.201695,999.160056L1269.258897,1005.979367L1270.517095,1007.323751L1269.601891,1010.070975L1259.333800,1034.981410Z " data-cartodb-id="58" data-created-at="2013-02-28T17:02:28.348Z" data-name="River Woods" data-updated-at="2013-02-28T17:02:28.595Z"/></g><g fill="#000" font-family="Arial" font-size="12px" id="mylayer-label" stroke="none"><text text-anchor="middle" y="331.870263446"><tspan dy="0" x="442.300069208"><![CDATA[Merle Hay]]></tspan></text><text text-anchor="middle" y="147.068411653"><tspan dy="0" x="593.120744206"><![CDATA[Meredith]]></tspan></text><text text-anchor="middle" y="171.680316674"><tspan dy="0" x="783.258006154"><![CDATA[Lower Beaver]]></tspan></text><text text-anchor="middle" y="553.872726065"><tspan dy="0" x="325.886179999"><![CDATA[Waveland Woods]]></tspan></text><text text-anchor="middle" y="499.725013684"><tspan dy="0" x="767.001320259"><![CDATA[Carpenter (and Drake)]]></tspan></text><text text-anchor="middle" y="541.512774723"><tspan dy="0" x="748.779039335"><![CDATA[Drake Park (and Drake)]]></tspan></text><text text-anchor="middle" y="638.016684279"><tspan dy="0" x="328.191462865"><![CDATA[Waterbury]]></tspan></text><text text-anchor="middle" y="638.470929909"><tspan dy="0" x="456.385204025"><![CDATA[Ingersoll Park]]></tspan></text><text text-anchor="middle" y="632.226712558"><tspan dy="0" x="551.42968303"><![CDATA[North of Grand]]></tspan></text><text text-anchor="middle" y="621.723685118"><tspan dy="0" x="678.305893312"><![CDATA[Woodland Heights]]></tspan></text><text text-anchor="middle" y="615.620022699"><tspan dy="0" x="763.872356896"><![CDATA[Sherman Hill]]></tspan></text><text text-anchor="middle" y="780.439934318"><tspan dy="0" x="403.118288279"><![CDATA[Linden Heights]]></tspan></text><text text-anchor="middle" y="719.999992732"><tspan dy="0" x="536.931280871"><![CDATA[Greenwood Historic]]></tspan></text><text text-anchor="middle" y="1069.58529589"><tspan dy="0" x="323.64187817"><![CDATA[Southwestern Hills]]></tspan></text><text text-anchor="middle" y="881.89015617"><tspan dy="0" x="891.773865884"><![CDATA[Indianola Hills]]></tspan></text><text text-anchor="middle" y="772.816568173"><tspan dy="0" x="959.700079809"><![CDATA[McKinley School/Columbus Park]]></tspan></text><text text-anchor="middle" y="1061.70198118"><tspan dy="0" x="816.240833576"><![CDATA[Magnolia Park]]></tspan></text><text text-anchor="middle" y="1267.74876285"><tspan dy="0" x="745.711087043"><![CDATA[Somerset]]></tspan></text><text text-anchor="middle" y="1170.60926349"><tspan dy="0" x="1099.11970775"><![CDATA[Easter Lake Area]]></tspan></text><text text-anchor="middle" y="586.222128188"><tspan dy="0" x="1189.74283444"><![CDATA[Capitol East]]></tspan></text><text text-anchor="middle" y="568.485012761"><tspan dy="0" x="1354.57383348"><![CDATA[Fairground]]></tspan></text><text text-anchor="middle" y="684.550893067"><tspan dy="0" x="1526.32064309"><![CDATA[Laurel Hill]]></tspan></text><text text-anchor="middle" y="649.450514138"><tspan dy="0" x="1029.49614888"><![CDATA[Historic East Village]]></tspan></text><text text-anchor="middle" y="513.629438646"><tspan dy="0" x="1083.84652827"><![CDATA[Capitol Park]]></tspan></text><text text-anchor="middle" y="492.762303757"><tspan dy="0" x="1208.29135265"><![CDATA[Martin Luther King Jr. Park]]></tspan></text><text text-anchor="middle" y="563.591936051"><tspan dy="0" x="1572.19727529"><![CDATA[Valley High Manor]]></tspan></text><text text-anchor="middle" y="473.461479778"><tspan dy="0" x="1451.02603167"><![CDATA[Accent]]></tspan></text><text text-anchor="middle" y="338.119109692"><tspan dy="0" x="1454.63335272"><![CDATA[Fairmont Park]]></tspan></text><text text-anchor="middle" y="201.331013034"><tspan dy="0" x="1581.99691109"><![CDATA[Douglas Acres]]></tspan></text><text text-anchor="middle" y="367.727714933"><tspan dy="0" x="1154.58569997"><![CDATA[Union Park]]></tspan></text><text text-anchor="middle" y="420.737232105"><tspan dy="0" x="854.657790661"><![CDATA[Mondamin Presidential]]></tspan></text><text text-anchor="middle" y="472.896368494"><tspan dy="0" x="866.562001209"><![CDATA[King Irving]]></tspan></text><text text-anchor="middle" y="393.024729147"><tspan dy="0" x="904.806959311"><![CDATA[Chautauqua Park]]></tspan></text><text text-anchor="middle" y="451.634396724"><tspan dy="0" x="962.788869332"><![CDATA[River Bend]]></tspan></text><text text-anchor="middle" y="538.638251483"><tspan dy="0" x="899.032057493"><![CDATA[Cheatom Park]]></tspan></text><text text-anchor="middle" y="735.439509686"><tspan dy="0" x="464.674139517"><![CDATA[Salisbury Oaks]]></tspan></text><text text-anchor="middle" y="728.685340495"><tspan dy="0" x="333.178638727"><![CDATA[Westwood]]></tspan></text><text text-anchor="middle" y="1097.69816202"><tspan dy="0" x="878.801868794"><![CDATA[South Park]]></tspan></text><text text-anchor="middle" y="696.022364954"><tspan dy="0" x="829.109486997"><![CDATA[Downtown Des Moines]]></tspan></text><text text-anchor="middle" y="322.188358315"><tspan dy="0" x="642.565404326"><![CDATA[Beaverdale]]></tspan></text><text text-anchor="middle" y="440.044996827"><tspan dy="0" x="619.016728329"><![CDATA[Shared Beaverdale / Drake]]></tspan></text><text text-anchor="middle" y="511.156629412"><tspan dy="0" x="459.338979533"><![CDATA[Waveland Park]]></tspan></text><text text-anchor="middle" y="446.926702225"><tspan dy="0" x="558.426120718"><![CDATA[Shared Beaverdale / Waveland Park]]></tspan></text><text text-anchor="middle" y="504.222545349"><tspan dy="0" x="662.129667316"><![CDATA[Drake]]></tspan></text><text text-anchor="middle" y="1009.39399493"><tspan dy="0" x="1021.42004881"><![CDATA[Ewing Woods - Evergreen]]></tspan></text><text text-anchor="middle" y="1336.81479213"><tspan dy="0" x="992.764607927"><![CDATA[Hillsboro Estates]]></tspan></text><text text-anchor="middle" y="901.509369921"><tspan dy="0" x="1081.71163641"><![CDATA[Pioneer Park]]></tspan></text><text text-anchor="middle" y="893.302852853"><tspan dy="0" x="693.27605174"><![CDATA[Grays Lake]]></tspan></text><text text-anchor="middle" y="1131.64858294"><tspan dy="0" x="591.924889179"><![CDATA[Watrous South]]></tspan></text><text text-anchor="middle" y="268.305979298"><tspan dy="0" x="1946.21371024"><![CDATA[Brook Run]]></tspan></text><text text-anchor="middle" y="360.700836182"><tspan dy="0" x="783.026732176"><![CDATA[Martin-Hickman]]></tspan></text><text text-anchor="middle" y="317.118984089"><tspan dy="0" x="845.881858278"><![CDATA[Prospect Park]]></tspan></text><text text-anchor="middle" y="294.803885585"><tspan dy="0" x="1722.2124491"><![CDATA[Sheridan Gardens]]></tspan></text><text text-anchor="middle" y="227.529470079"><tspan dy="0" x="1182.12644507"><![CDATA[Highland Park]]></tspan></text><text text-anchor="middle" y="250.622082643"><tspan dy="0" x="976.266585608"><![CDATA[Oak Park]]></tspan></text><text text-anchor="middle" y="446.153047173"><tspan dy="0" x="1648.5011572"><![CDATA[Grays Woods]]></tspan></text><text text-anchor="middle" y="1167.53689267"><tspan dy="0" x="732.878307446"><![CDATA[Fort Des Moines]]></tspan></text><text text-anchor="middle" y="959.855941538"><tspan dy="0" x="1192.12812997"><![CDATA[River Woods]]></tspan></text></g></svg>