<?xml version="1.0" encoding="utf-8"?><!DOCTYPE svg  PUBLIC '-//W3C//DTD SVG 1.1//EN'  'http://www.w3.org/Graphics/SVG/1.1/DTD/svg11.dtd'><svg enable_background="new 0 0 2000 2431" height="2431px" pretty_print="False" style="stroke-linejoin: round; stroke:#000; fill: none;" version="1.1" viewBox="0 0 2000 2431" width="2000px" xmlns="http://www.w3.org/2000/svg" xmlns:xlink="http://www.w3.org/1999/xlink"><defs><style type="text/css"><![CDATA[path { fill-rule: evenodd; }]]></style></defs><metadata><views><view h="2431.91900656" padding="0" w="2000"><proj flip="auto" id="robinson" lon0="-80.1168597047"/><bbox h="2.18" w="1.79" x="-1153.0" y="-439.54"/></view></views></metadata><g class="" id="mylayer"><path d="M1467.168591,1191.639987L1531.105053,1193.322887L1536.212867,1174.380919L1549.688559,1126.829665L1574.651167,1082.027153L1591.548262,1048.836648L1587.659595,1040.179069L1570.656391,1039.318921L1573.596055,1033.110895L1575.141967,1019.030642L1579.854163,1013.907151L1581.863993,1012.990906L1584.249682,1011.644588L1587.793256,1008.634069L1590.183584,1006.203216L1593.362129,1005.286971L1591.213997,984.362933L1573.081372,974.527327L1567.692379,978.715874L1558.701665,985.110888L1550.374077,1005.586153L1543.517992,1002.631731L1540.656038,1001.360208L1529.193741,1030.175171L1521.429399,1049.771592L1508.607979,1082.232841L1499.239255,1105.793427L1492.851083,1119.537102L1484.491844,1139.731892L1473.602549,1169.350920L1467.168591,1191.639987Z " data-cartodb-id="1" data-created-at="2013-10-29T02:55:27Z" data-name="Bal Harbour" data-updated-at="2013-10-29T02:55:28Z"/><path d="M1867.108156,124.758428L1872.642961,139.044320L1867.541981,166.868153L1890.061010,166.606370L1907.720104,167.167334L1918.437726,169.224204L1932.629114,173.674521L1943.142795,176.759826L1964.604915,121.261750L1968.947886,110.416441L1974.702796,95.532189L1978.764098,86.276279L1982.586982,76.627695L1986.732470,66.773424L1991.202765,55.647635L1892.000851,57.667106L1867.108156,124.758428Z " data-cartodb-id="2" data-created-at="2013-10-29T02:55:27Z" data-name="Bay Colony" data-updated-at="2013-10-29T02:55:28Z"/><path d="M1847.954344,123.468210L1867.108156,124.758428L1892.000851,57.667106L1991.202765,55.647635L1994.007227,49.121753L1999.588633,35.565120L1991.937489,34.891963L1880.256726,38.687820L1847.954344,123.468210Z " data-cartodb-id="3" data-created-at="2013-10-29T02:55:27Z" data-name="Bay Colony Club" data-updated-at="2013-10-29T02:55:28Z"/><path d="M1807.010406,717.623646L1814.868610,717.829334L1830.790668,717.679743L1855.606760,717.380561L1872.353818,716.987885L1877.180597,700.626388L1880.592742,687.275406L1886.133097,666.351391L1890.780666,651.354912L1897.116383,634.301561L1904.219621,617.734381L1909.725152,605.561431L1918.978870,585.703256L1927.305819,568.425523L1933.316980,553.129868L1938.635419,536.039126L1937.658482,535.945631L1930.014928,536.469199L1852.694403,536.170018L1845.789570,536.487898L1807.010406,717.623646Z " data-cartodb-id="4" data-created-at="2013-10-29T02:55:27Z" data-name="Bermuda Riviera" data-updated-at="2013-10-29T02:55:28Z"/><path d="M1114.735618,1654.194520L1113.809958,1661.206609L1112.618385,1670.107288L1111.344170,1679.120159L1110.477224,1685.683475L1110.263206,1687.067194L1108.368656,1699.427170L1110.203728,1699.464568L1111.452602,1699.464568L1137.787459,1699.389772L1159.839226,1698.978396L1181.766010,1698.548321L1199.956435,1698.249139L1200.372727,1698.249139L1202.495530,1698.193042L1203.942755,1698.155644L1205.909233,1684.206261L1208.426222,1667.620333L1210.939356,1650.866116L1196.220801,1651.277492L1179.901134,1651.688867L1114.735618,1654.194520Z " data-cartodb-id="5" data-created-at="2013-10-29T02:55:27Z" data-name="Beverly Heights" data-updated-at="2013-10-29T02:55:28Z"/><path d="M1708.494022,1296.634229L1707.449315,1304.450365L1726.333256,1306.712930L1788.743559,1100.819525L1761.037093,1099.529303L1742.610740,1155.083673L1741.375618,1168.172890L1737.777827,1179.971885L1725.471569,1218.304595L1725.506694,1227.036974L1717.038110,1258.095823L1708.494022,1296.634229Z " data-cartodb-id="6" data-created-at="2013-10-29T02:55:27Z" data-name="Birch Park" data-updated-at="2013-10-29T02:55:28Z"/><path d="M1455.633976,82.985289L1454.851722,89.286787L1451.436014,120.513798L1449.341563,135.042774L1465.337550,136.071209L1528.379811,135.192364L1598.288887,131.733084L1611.514418,45.026715L1598.245915,50.468066L1593.990027,51.029031L1589.066317,53.572068L1579.902143,57.349227L1557.407991,67.222196L1549.661019,69.896125L1542.535224,72.588753L1499.614329,88.015268L1488.749949,88.464040L1476.380100,88.725823L1471.398894,88.838016L1469.042359,81.395891L1459.743988,81.956855L1455.633976,82.985289Z " data-cartodb-id="7" data-created-at="2013-10-29T02:55:27Z" data-name="Boulevard Park Isles" data-updated-at="2013-10-29T02:55:28Z"/><path d="M1427.351141,2155.830221L1426.441627,2171.836496L1473.450874,2171.369023L1480.986476,2170.826754L1490.074838,2117.964912L1484.737290,2116.936472L1482.797123,2128.342812L1456.856940,2128.828983L1452.654022,2155.325350L1427.351141,2155.830221Z " data-cartodb-id="8" data-created-at="2013-10-29T02:55:27Z" data-name="Breakwater Surf" data-updated-at="2013-10-29T02:55:28Z"/><path d="M1591.769176,1477.976087L1590.076877,1490.653939L1586.183171,1521.768904L1626.551604,1571.040504L1624.920008,1589.907695L1623.476034,1605.913954L1619.172270,1612.926042L1619.094978,1619.844636L1606.133810,1647.444216L1598.325455,1663.020403L1593.776132,1663.226091L1584.210663,1665.675647L1571.684516,1706.270969L1568.382836,1718.817935L1568.894631,1724.988574L1576.398162,1726.372293L1573.041700,1738.190002L1574.738657,1741.275321L1576.060429,1743.631383L1593.057500,1744.154953L1595.859956,1744.248447L1566.843312,1760.946571L1564.456222,1763.171741L1563.112977,1765.378212L1563.407061,1772.764281L1565.228602,1775.774805L1590.891603,1780.131651L1595.906746,1787.050246L1595.305947,1792.884306L1594.963601,1795.427357L1595.237240,1795.707841L1595.799567,1796.081819L1595.849316,1797.035464L1595.658412,1797.895613L1593.445602,1805.337779L1592.606923,1807.880831L1591.642922,1808.479196L1590.724542,1808.610088L1588.659067,1808.610088L1576.199426,1806.216628L1568.546388,1805.057295L1556.477519,1803.299598L1545.415700,1833.460938L1529.395021,1855.787437L1541.454927,1871.195339L1546.934033,1874.261961L1562.620443,1880.077322L1575.418880,1881.685428L1579.462934,1882.208998L1606.916514,1885.911382L1609.203642,1875.608282L1616.765871,1838.360053L1620.709104,1819.436756L1625.999180,1804.552425L1629.985946,1793.370477L1638.569008,1758.085639L1644.339511,1714.292800L1646.730672,1699.034493L1649.311978,1692.171995L1658.395743,1671.808888L1666.876782,1632.242008L1670.365348,1617.899950L1678.913309,1592.675132L1685.853081,1564.028416L1692.752031,1537.363786L1701.823263,1479.154118L1708.481846,1429.976023L1712.044807,1412.118579L1712.337210,1410.360883L1712.576733,1408.921068L1712.748471,1406.060138L1712.993417,1401.796790L1715.198469,1394.990393L1718.344058,1383.397080L1721.623828,1369.746889L1723.780401,1361.500678L1753.523486,1245.604967L1777.449303,1174.212629L1811.258726,1044.180628L1818.163628,1018.207892L1826.953507,993.319692L1821.761189,992.197760L1819.502096,991.823783L1804.662896,991.524601L1810.836077,947.470062L1819.026602,913.026746L1826.890589,880.546815L1845.333394,810.743959L1834.340365,810.519573L1827.722681,810.650465L1821.703579,810.743959L1800.576013,811.099238L1795.148840,811.099238L1793.151205,811.174033L1786.930636,811.323624L1778.842098,834.098837L1764.781794,895.094533L1790.950572,895.711596L1782.323030,946.796902L1789.964583,946.479021L1777.673675,1023.499673L1768.732112,1089.375812L1763.186506,1088.740050L1761.037093,1099.529303L1788.743559,1100.819525L1726.333256,1306.712930L1710.514562,1358.957628L1704.632032,1358.901532L1698.916737,1358.995026L1688.345398,1359.406402L1688.009178,1359.406402L1675.266117,1359.013725L1656.208758,1359.331606L1633.895496,1359.780380L1633.226521,1363.800641L1631.131133,1380.049978L1634.781537,1380.049978L1634.492191,1381.788975L1632.990472,1391.680689L1631.493211,1397.215561L1629.875098,1403.573185L1628.768274,1408.397499L1627.219764,1412.604750L1623.971199,1418.177021L1615.729971,1433.454017L1593.950829,1471.020098L1591.769176,1477.976087Z " data-cartodb-id="9" data-created-at="2013-10-29T02:55:27Z" data-name="Central Beach Alliance" data-updated-at="2013-10-29T02:55:28Z"/><path d="M944.330023,1588.916653L939.444416,1624.164082L988.780813,1624.799845L992.916084,1588.093901L952.773109,1588.692266L944.330023,1588.916653Z " data-cartodb-id="10" data-created-at="2013-10-29T02:55:27Z" data-name="City View Townhome" data-updated-at="2013-10-29T02:55:28Z"/><path d="M1108.123098,1700.904383L1106.351110,1712.142426L1105.997251,1714.367595L1104.676500,1722.987791L1106.052997,1722.894296L1103.881602,1727.288539L1102.594562,1736.862379L1104.502069,1736.656691L1119.605481,1740.770451L1137.289797,1750.549979L1148.621258,1745.856553L1157.038820,1747.520756L1198.132574,1749.876818L1218.551081,1755.729576L1228.197988,1774.952053L1243.137124,1761.844119L1266.098714,1781.590165L1271.235178,1758.964487L1291.929167,1726.353594L1305.924311,1710.160342L1316.112336,1696.547539L1300.261997,1696.061367L1292.187551,1696.379248L1293.057781,1691.143555L1294.259749,1682.467263L1296.558160,1665.750443L1297.586209,1658.121290L1299.056519,1649.276709L1276.995092,1649.650687L1272.931848,1649.725483L1254.949206,1649.931170L1245.285652,1650.080762L1232.897569,1650.342546L1228.844119,1650.454740L1212.789959,1650.810019L1210.939356,1650.866116L1208.426222,1667.620333L1205.909233,1684.206261L1203.942755,1698.155644L1202.495530,1698.193042L1200.372727,1698.249139L1199.956435,1698.249139L1181.766010,1698.548321L1159.839226,1698.978396L1137.787459,1699.389772L1111.452602,1699.464568L1110.203728,1699.464568L1108.368656,1699.427170L1108.123098,1700.904383Z " data-cartodb-id="11" data-created-at="2013-10-29T02:55:27Z" data-name="Colee Hammock" data-updated-at="2013-10-29T02:55:28Z"/><path d="M1466.982455,1366.343690L1474.265886,1366.063207L1474.762856,1368.849342L1469.943202,1380.012580L1467.204990,1385.884032L1608.829360,1401.310619L1615.209295,1386.444999L1618.321657,1373.898043L1621.029924,1367.147743L1620.972711,1363.931533L1620.757781,1362.529117L1629.812818,1359.780380L1629.394457,1338.818923L1666.582378,1269.969616L1659.319608,1253.103220L1665.620055,1249.494336L1662.609653,1246.708202L1663.053931,1245.866752L1666.547682,1234.497829L1666.491348,1214.546120L1666.078019,1186.067720L1668.256202,1158.374676L1667.873130,1139.526205L1698.414078,1090.927819L1711.386638,1077.445928L1718.630037,1067.217643L1732.235846,1031.390598L1739.362276,1008.222694L1741.143428,999.359428L1746.260712,986.232820L1746.047988,976.845987L1754.422549,951.957790L1755.346850,939.784826L1762.661975,904.256977L1764.781794,895.094533L1778.842098,834.098837L1786.930636,811.323624L1779.813124,811.379720L1778.269989,811.417118L1770.342654,811.529311L1768.342297,810.276488L1743.735712,810.949647L1739.902203,811.473215L1732.320003,811.435817L1730.440671,811.473215L1725.996722,811.529311L1712.415380,811.753698L1579.190427,815.755254L1580.002320,817.606441L1580.674292,818.952759L1581.253743,820.373873L1583.018097,825.441264L1584.100920,828.451781L1585.661960,832.434639L1588.790794,844.775888L1589.076090,847.001053L1589.481168,850.235956L1592.535447,859.473195L1591.893466,868.411252L1589.678713,883.613429L1585.712174,897.992857L1580.268416,910.670689L1571.146460,931.295540L1560.070150,954.426041L1556.760650,962.466555L1550.595694,976.976879L1548.031516,983.427989L1547.817450,984.232041L1546.494774,986.980775L1545.949754,988.233599L1540.656038,1001.360208L1543.517992,1002.631731L1550.374077,1005.586153L1558.701665,985.110888L1567.692379,978.715874L1573.081372,974.527327L1591.213997,984.362933L1593.362129,1005.286971L1590.183584,1006.203216L1587.793256,1008.634069L1584.249682,1011.644588L1581.863993,1012.990906L1579.854163,1013.907151L1575.141967,1019.030642L1573.596055,1033.110895L1570.656391,1039.318921L1587.659595,1040.179069L1591.548262,1048.836648L1574.651167,1082.027153L1549.688559,1126.829665L1536.212867,1174.380919L1531.105053,1193.322887L1515.149436,1238.088015L1480.862425,1288.051440L1475.953174,1344.092010L1466.982455,1366.343690Z " data-cartodb-id="12" data-created-at="2013-10-29T02:55:27Z" data-name="Coral Ridge" data-updated-at="2013-10-29T02:55:28Z"/><path d="M1578.847391,564.648356L1578.852504,565.097128L1577.645918,573.474211L1575.853263,585.553665L1573.717804,600.550140L1571.841584,613.994611L1571.399537,616.930331L1568.547622,635.741372L1567.353822,643.277009L1565.533480,656.964567L1565.244849,659.077538L1562.900533,674.466692L1561.717234,682.899875L1560.499527,690.772092L1558.850162,701.710921L1558.379941,705.488090L1555.727412,725.701552L1555.372438,729.460022L1555.247381,730.881135L1554.865316,735.761536L1554.855009,740.716733L1554.962204,745.447544L1555.513487,750.683224L1556.075381,756.143290L1556.860436,760.649715L1558.128253,765.717105L1559.464307,770.279627L1561.310146,775.720995L1563.017389,779.498164L1564.915471,784.434663L1567.849142,791.128855L1568.577004,792.811752L1570.254574,796.383234L1575.443493,806.929392L1579.190427,815.755254L1712.415380,811.753698L1725.996722,811.529311L1730.440671,811.473215L1732.320003,811.435817L1739.902203,811.473215L1743.735712,810.949647L1768.342297,810.276488L1770.342654,811.529311L1778.269989,811.417118L1779.813124,811.379720L1786.930636,811.323624L1807.010406,717.623646L1845.789570,536.487898L1848.951797,522.725550L1872.538197,418.778711L1876.720961,393.834468L1876.997015,392.469453L1869.780700,392.544249L1861.597629,392.656442L1859.521988,393.198708L1836.584160,393.759673L1811.827998,394.376734L1782.378998,395.199483L1775.143937,395.386471L1754.137266,396.078328L1738.161161,396.938474L1713.861815,397.312451L1685.487712,397.929512L1682.878327,397.929512L1681.783851,399.593708L1677.281018,406.231794L1670.786079,415.786898L1668.385537,419.040495L1655.105347,437.589739L1645.670481,450.753719L1643.146229,454.269100L1630.313832,471.864706L1623.592756,480.858847L1620.595355,485.290472L1620.280271,485.739244L1610.785199,498.211370L1603.705845,508.009562L1599.930363,513.170442L1598.821563,515.208616L1595.699338,520.388195L1593.128421,524.950712L1590.927652,529.214048L1588.895953,533.327794L1586.322790,538.862651L1586.046774,539.461014L1584.339986,543.930037L1582.604370,549.147015L1581.096870,555.298934L1579.251467,564.049993L1578.847391,564.648356Z " data-cartodb-id="13" data-created-at="2013-10-29T02:55:27Z" data-name="Coral Ridge Country Club" data-updated-at="2013-10-29T02:55:28Z"/><path d="M1449.341563,135.042774L1449.306598,135.921618L1449.119647,137.230535L1436.026649,222.497132L1428.293712,270.179124L1428.023861,273.133538L1418.081340,339.981838L1422.444383,342.132203L1422.031672,342.206998L1421.476029,342.562276L1421.090227,342.954952L1420.612643,343.609411L1420.509504,344.226472L1430.565823,344.974425L1436.756418,344.619147L1454.249080,342.730566L1446.407038,390.898752L1473.970569,390.150798L1491.741569,389.758123L1493.412701,389.720725L1489.925481,407.428519L1490.692665,408.681341L1501.934545,408.849631L1510.971951,408.606546L1525.576811,408.288666L1525.434253,409.429294L1524.424215,419.115290L1523.540389,427.567163L1521.491009,442.133556L1525.380707,442.040062L1539.514737,441.666085L1553.610500,441.329506L1553.581988,442.170954L1558.279123,407.540712L1558.444709,406.549674L1577.487799,269.524665L1579.497457,255.014379L1598.288887,131.733084L1528.379811,135.192364L1465.337550,136.071209L1449.341563,135.042774Z " data-cartodb-id="14" data-created-at="2013-10-29T02:55:27Z" data-name="Coral Ridge Isles" data-updated-at="2013-10-29T02:55:28Z"/><path d="M1493.392508,866.747053L1493.987365,867.308019L1494.231461,867.476309L1495.015313,868.055974L1499.301770,871.440468L1501.721102,872.581099L1505.214782,875.535519L1507.388475,880.453321L1507.891098,883.295549L1507.993440,884.697963L1507.539694,888.475134L1507.264887,890.027140L1506.335188,892.626283L1503.880511,897.170107L1502.423060,902.742369L1501.303194,906.482143L1501.941271,910.240615L1503.141051,912.166598L1506.147640,914.298269L1508.065080,914.896633L1510.555497,914.747042L1516.314652,912.372286L1519.703379,910.483700L1523.869576,909.885336L1527.758046,910.184518L1532.929301,913.064144L1535.928997,917.925849L1538.418166,921.048560L1539.409847,922.974544L1543.257032,930.435392L1543.633028,937.110888L1564.760161,815.886146L1556.505979,815.942243L1543.664589,816.241424L1537.236304,816.484510L1536.953313,818.373095L1531.075582,818.578782L1519.028419,818.915362L1507.614977,819.195844L1506.693085,819.251941L1504.570905,819.401532L1502.547486,819.438930L1502.187562,821.308816L1493.392508,866.747053Z " data-cartodb-id="15" data-created-at="2013-10-29T02:55:27Z" data-name="Coral Shores" data-updated-at="2013-10-29T02:55:28Z"/><path d="M808.977028,1961.492386L807.527019,1970.897940L806.425844,1978.396204L804.897827,1988.175737L803.930264,1994.869948L802.340256,2005.023459L801.265923,2011.493283L799.934222,2020.188279L799.593664,2022.432148L798.930348,2027.873533L797.209173,2040.457903L797.147081,2040.831881L794.586200,2056.931648L793.659308,2063.382774L791.933195,2074.359038L791.189368,2080.286594L789.677104,2091.711632L789.294382,2095.657104L787.439349,2108.858539L787.204806,2111.139807L785.084002,2126.136339L785.118499,2126.603812L783.148537,2142.236108L782.999579,2143.133656L773.779515,2211.627796L870.976490,2212.095269L947.826604,2208.673366L947.583399,2191.993930L947.598078,2184.570459L947.159765,2174.473043L947.475906,2157.513124L948.394306,2144.162096L948.234506,2140.010936L945.575856,2068.524976L944.395810,2016.990764L944.904115,1933.705802L941.129912,1933.967586L928.315313,1934.191973L911.368246,1934.135877L904.815875,1934.061081L895.472707,1934.304167L878.827722,1934.453758L863.387685,1934.771640L852.727967,1934.939930L845.859915,1935.126919L818.125303,1935.912273L813.179135,1936.192757L813.266369,1936.342348L811.037407,1951.207984L810.590389,1953.320961L810.083956,1956.948550L808.977028,1961.492386Z " data-cartodb-id="16" data-created-at="2013-10-29T02:55:27Z" data-name="Croissant Park" data-updated-at="2013-10-29T02:55:28Z"/><path d="M512.826445,1307.573079L511.599115,1315.613601L510.001614,1325.972786L509.416382,1330.927992L507.660540,1343.007475L507.644482,1343.680635L507.171083,1346.522866L506.262071,1352.749597L505.850143,1354.357701L505.492434,1356.601568L505.199689,1358.359264L504.125273,1364.810381L503.347132,1370.251759L500.353700,1387.361245L566.722994,1381.751577L565.581980,1389.661209L579.222980,1389.661209L583.951439,1389.436822L590.131074,1389.343327L591.802400,1389.305930L593.963384,1389.212435L595.153951,1389.081543L596.630036,1389.062844L615.546541,1388.053104L615.914784,1388.053104L620.252761,1387.866115L629.662971,1387.697825L630.562676,1387.679126L632.849073,1387.697825L636.758763,1387.679126L657.336662,1238.854670L663.108517,1208.730767L665.968357,1198.390284L669.615552,1190.050582L671.366580,1186.460397L604.222930,1187.788018L601.740441,1193.173296L600.933138,1196.576493L600.431324,1200.260173L599.172745,1208.581176L598.730388,1213.349391L592.700345,1213.218499L586.305509,1213.835562L585.095396,1213.891659L583.569713,1227.467049L584.037125,1227.448350L582.109586,1240.649763L580.246727,1253.271510L578.134397,1266.622515L576.053776,1279.880026L575.690608,1282.348279L575.091569,1286.424637L575.060349,1287.284786L574.437709,1291.791217L573.254026,1298.896795L572.661824,1301.682929L572.465962,1303.627614L572.606817,1304.992633L573.115101,1305.497503L565.034715,1305.852781L546.053431,1306.675532L542.579176,1306.675532L515.576682,1307.498284L512.826445,1307.573079Z " data-cartodb-id="17" data-created-at="2013-10-29T02:55:27Z" data-name="Dillard Park" data-updated-at="2013-10-29T02:55:28Z"/><path d="M1698.414078,1090.927819L1710.596974,1088.721351L1758.130980,1088.141686L1763.186506,1088.740050L1768.732112,1089.375812L1777.673675,1023.499673L1789.964583,946.479021L1782.323030,946.796902L1790.950572,895.711596L1764.781794,895.094533L1762.661975,904.256977L1755.346850,939.784826L1754.422549,951.957790L1746.047988,976.845987L1746.260712,986.232820L1741.143428,999.359428L1739.362276,1008.222694L1732.235846,1031.390598L1718.630037,1067.217643L1711.386638,1077.445928L1698.414078,1090.927819Z " data-cartodb-id="18" data-created-at="2013-10-29T02:55:27Z" data-name="Dolphin Isles" data-updated-at="2013-10-29T02:55:28Z"/><path d="M612.802617,1529.379356L592.605267,1667.526839L600.107350,1667.377248L606.579422,1667.452043L610.185500,1667.526839L612.779304,1667.526839L621.911413,1667.395946L631.385173,1667.713828L634.068825,1667.751226L640.921593,1667.751226L648.002890,1667.339850L658.131599,1666.704087L667.965886,1666.105722L676.059792,1665.189476L678.921289,1664.927691L686.484640,1664.217133L697.313000,1663.899251L699.873856,1663.712262L707.440440,1663.656166L711.295551,1663.581370L714.968320,1663.543972L724.482505,1663.618768L727.022518,1663.749660L742.852105,1663.300887L759.427532,1662.796016L769.948565,1662.496834L772.849227,1662.384640L789.501596,1661.898469L791.973065,1661.767576L804.257967,1661.356201L811.484741,1661.225308L832.840340,1660.570847L855.438121,1659.860288L860.103113,1659.729396L866.580214,1591.422306L875.272800,1591.141822L886.068833,1522.011990L876.489493,1522.329871L872.679368,1522.423366L861.152927,1522.703849L858.946997,1522.778645L845.857716,1523.021731L836.886331,1523.246117L830.262771,1523.601397L815.540381,1523.844482L809.533658,1523.956676L796.156632,1524.293256L788.293104,1524.498944L783.150965,1524.611137L776.392185,1524.816825L770.769721,1524.929018L769.418587,1524.966416L764.750550,1525.116007L757.258382,1525.302996L756.099378,1525.340394L753.089792,1525.433889L743.654088,1525.658275L740.829956,1525.695673L730.280168,1525.976157L727.456035,1526.013554L716.607417,1526.742811L714.023447,1526.780209L707.130807,1527.116789L703.438524,1527.079392L691.305412,1527.060693L690.207792,1527.210284L677.399565,1527.303778L674.873415,1527.378574L664.756820,1527.846046L658.688708,1527.846046L651.239701,1528.350917L636.607139,1528.631400L626.263277,1529.117572L623.005946,1528.967980L619.641911,1529.267163L612.802617,1529.379356Z " data-cartodb-id="19" data-created-at="2013-10-29T02:55:27Z" data-name="Dorsey-Riverbend" data-updated-at="2013-10-29T02:55:28Z"/><path d="M983.718808,1657.840807L974.073694,1725.100767L997.328192,1734.599812L1004.519701,1736.993272L1004.052265,1740.190785L1003.773013,1741.967181L1000.725551,1765.022933L999.926872,1769.828552L996.228476,1797.671226L992.242394,1826.766729L1088.330815,1828.094351L1091.344401,1811.209236L1094.217886,1795.072078L1095.593884,1786.694967L1099.475485,1757.749058L1099.923044,1753.803589L1101.497703,1744.136254L1102.314581,1739.124947L1102.594562,1736.862379L1103.881602,1727.288539L1106.052997,1722.894296L1104.676500,1722.987791L1105.997251,1714.367595L1106.351110,1712.142426L1108.123098,1700.904383L1108.368656,1699.427170L1110.263206,1687.067194L1110.477224,1685.683475L1111.344170,1679.120159L1112.618385,1670.107288L1113.809958,1661.206609L1114.735618,1654.194520L983.718808,1657.840807Z " data-cartodb-id="20" data-created-at="2013-10-29T02:55:27Z" data-name="Downtown" data-updated-at="2013-10-29T02:55:28Z"/><path d="M612.802617,1529.379356L619.641911,1529.267163L623.005946,1528.967980L626.263277,1529.117572L636.607139,1528.631400L651.239701,1528.350917L658.688708,1527.846046L664.756820,1527.846046L674.873415,1527.378574L677.399565,1527.303778L690.207792,1527.210284L691.305412,1527.060693L703.438524,1527.079392L707.130807,1527.116789L714.023447,1526.780209L716.607417,1526.742811L727.456035,1526.013554L730.280168,1525.976157L740.829956,1525.695673L743.654088,1525.658275L753.089792,1525.433889L756.099378,1525.340394L757.258382,1525.302996L764.750550,1525.116007L769.418587,1524.966416L770.769721,1524.929018L776.392185,1524.816825L783.150965,1524.611137L788.293104,1524.498944L796.156632,1524.293256L809.533658,1523.956676L815.540381,1523.844482L829.121340,1425.020816L834.076017,1389.006747L825.691819,1388.782361L814.068151,1388.782361L802.747794,1388.595372L802.283488,1388.595372L761.952887,1387.922212L741.020415,1387.866115L733.024031,1387.716524L721.528449,1387.716524L711.810039,1387.716524L708.495853,1387.716524L705.504549,1387.604331L700.056072,1387.249052L697.410773,1387.174256L693.638508,1387.136858L677.385552,1388.015706L672.604178,1387.884814L659.435942,1387.641728L650.646145,1387.641728L648.756899,1387.641728L646.451378,1387.641728L645.282608,1387.641728L644.273942,1387.641728L640.063165,1387.641728L638.904178,1387.679126L636.758763,1387.679126L612.802617,1529.379356Z " data-cartodb-id="21" data-created-at="2013-10-29T02:55:27Z" data-name="Durrs Homeowners" data-updated-at="2013-10-29T02:55:28Z"/><path d="M484.657478,2429.919007L488.513474,2429.358039L492.450106,2427.731233L504.708652,2427.001975L518.702740,2426.814985L520.717812,2425.767846L525.201972,2424.122340L528.510462,2423.000405L531.603021,2422.215050L535.571101,2421.654082L540.343940,2421.261405L544.262928,2421.093115L545.713372,2421.037018L572.000027,2421.074416L591.223195,2417.259835L602.165692,2414.230610L607.720672,2411.631460L615.407755,2412.398115L615.723345,2412.715997L647.535373,2412.940384L663.820273,2412.940384L679.609293,2413.033879L695.417426,2413.108675L741.876920,2413.744438L789.594710,2414.324105L834.687982,2414.604588L864.625003,2413.968825L865.922031,2413.968825L882.949716,2413.931427L897.692252,2412.416814L919.722605,2412.435513L947.226732,2409.668073L952.643153,2409.256696L947.826604,2208.673366L870.976490,2212.095269L773.779515,2211.627796L770.457670,2212.057871L766.861013,2212.600139L755.830256,2214.713117L744.395486,2217.330966L739.972793,2218.508998L728.921213,2221.519524L724.323385,2222.884545L722.327953,2223.426814L710.060937,2226.717824L707.041719,2227.447082L691.406715,2232.121812L680.105537,2235.768101L673.108361,2237.600595L656.071972,2242.518411L643.080689,2246.314292L639.209114,2247.548421L498.917594,2295.174572L498.195098,2297.792421L497.143303,2302.298861L492.912914,2317.183203L485.211293,2338.612167L481.325397,2362.041916L479.139110,2375.804323L477.631420,2386.537505L475.771621,2396.111354L473.945650,2403.067353L472.827999,2408.359148L474.261598,2421.055717L476.209321,2423.505276L480.809057,2424.253233L480.311381,2428.703577L482.467378,2429.414136L484.657478,2429.919007Z " data-cartodb-id="22" data-created-at="2013-10-29T02:55:27Z" data-name="Edgewood" data-updated-at="2013-10-29T02:55:28Z"/><path d="M992.916084,1588.093901L988.780813,1624.799845L983.718808,1657.840807L1114.735618,1654.194520L1117.107044,1636.561455L1119.483187,1619.190174L1121.961824,1601.781497L1124.717567,1583.381778L1129.313631,1549.779855L1130.649330,1542.038511L1133.337207,1522.703849L1134.690709,1513.990163L1136.317560,1503.537479L1138.316804,1486.035311L1138.990473,1481.024007L1139.731768,1476.087499L1143.325394,1449.871647L1143.611657,1448.151348L1143.981934,1445.926180L1146.132297,1429.732937L1147.710414,1419.672932L1148.347870,1415.073004L1148.984113,1412.212074L1150.354967,1407.630845L1151.761495,1404.470732L1152.913245,1402.264262L1154.875277,1399.422031L1156.659435,1396.878981L1158.531221,1394.579017L1159.225417,1393.774965L1160.210017,1392.765225L1161.136800,1391.718087L1162.291742,1390.839239L1163.334611,1389.960391L1164.818204,1388.838457L1165.727662,1388.183996L1166.940423,1387.342546L1168.669951,1386.089720L1171.441482,1384.444218L1176.108005,1381.994663L1158.818856,1382.462135L1150.308815,1382.705221L1147.632784,1381.564588L1145.417552,1381.695481L1141.210339,1381.770276L1139.680052,1383.172693L1138.799947,1383.939348L1124.488824,1396.430208L1094.308945,1429.714238L1057.050117,1467.055932L1050.128719,1473.338761L1037.135454,1486.091408L1028.494324,1496.936768L1018.988148,1510.960941L1014.686059,1517.860835L1008.369882,1529.360657L1004.578470,1539.832041L1000.774684,1550.378220L998.768338,1555.894395L995.796794,1572.218535L994.328196,1580.277761L992.916084,1588.093901Z " data-cartodb-id="23" data-created-at="2013-10-29T02:55:27Z" data-name="Flagler Heights" data-updated-at="2013-10-29T02:55:28Z"/><path d="M417.648362,1953.694940L415.512034,1969.252436L413.298441,1984.697739L412.797893,1988.867596L409.411959,2012.914401L408.921502,2016.541990L408.854674,2022.824826L409.499576,2029.257252L409.903333,2031.164542L410.711542,2034.492949L413.341295,2041.411548L415.530038,2046.647244L416.427086,2048.573232L418.653902,2054.351197L420.283152,2058.521056L421.328023,2061.774667L422.347606,2068.169696L422.380041,2070.095685L422.520858,2070.694050L422.571673,2074.920005L439.532628,2074.508629L451.631478,2074.546027L530.832120,2075.574467L549.982889,1950.721812L550.477743,1946.682847L545.621418,1947.000729L541.653139,1946.888535L535.872908,1946.888535L523.822314,1948.103964L516.829984,1949.038910L509.937310,1950.048651L507.402682,1950.366533L499.414995,1951.413672L492.688879,1951.806349L492.073298,1954.162412L481.795664,1953.283563L470.129310,1951.993338L464.476923,1951.320178L463.493516,1951.264081L461.892332,1950.011254L460.096870,1950.216942L448.295757,1951.376274L443.625832,1951.825048L432.960113,1952.703897L417.648362,1953.694940Z " data-cartodb-id="24" data-created-at="2013-10-29T02:55:27Z" data-name="Flamingo Park" data-updated-at="2013-10-29T02:55:28Z"/><path d="M1786.930636,811.323624L1793.151205,811.174033L1795.148840,811.099238L1800.576013,811.099238L1821.703579,810.743959L1827.722681,810.650465L1834.340365,810.519573L1845.333394,810.743959L1847.254518,810.743959L1861.820525,810.182993L1875.887123,809.640726L1885.042801,809.266749L1892.109207,810.669164L1967.854578,536.020427L1940.082854,536.095222L1938.635419,536.039126L1933.316980,553.129868L1927.305819,568.425523L1918.978870,585.703256L1909.725152,605.561431L1904.219621,617.734381L1897.116383,634.301561L1890.780666,651.354912L1886.133097,666.351391L1880.592742,687.275406L1877.180597,700.626388L1872.353818,716.987885L1855.606760,717.380561L1830.790668,717.679743L1814.868610,717.829334L1807.010406,717.623646L1786.930636,811.323624Z " data-cartodb-id="25" data-created-at="2013-10-29T02:55:27Z" data-name="Galt Mile" data-updated-at="2013-10-29T02:55:28Z"/><path d="M1356.982917,1922.411658L1361.741788,1975.049099L1365.877376,1997.207312L1366.534719,2008.295769L1365.611564,2019.646010L1363.225163,2020.132182L1357.673441,2023.385793L1359.514020,2052.238220L1362.067618,2054.893466L1363.253251,2056.239788L1364.930917,2058.577152L1434.947662,2055.510530L1469.102251,2055.117853L1477.893239,2058.203174L1504.192902,2062.111247L1518.912090,2050.891898L1520.837148,2045.562707L1526.870353,2028.696285L1534.760422,2005.659222L1552.022200,1923.851475L1518.358231,1913.866255L1516.333506,1921.046638L1502.059290,1947.038126L1463.162192,2021.441106L1451.972004,2021.235418L1458.993748,1991.373251L1462.381291,1971.832886L1465.245459,1953.807133L1471.460468,1954.274606L1511.607282,1921.738497L1515.342113,1905.994013L1491.997166,1887.575585L1484.316312,1898.925825L1478.652936,1905.358250L1468.522063,1917.867823L1442.106845,1906.367992L1391.791369,1869.288050L1382.323349,1876.935905L1372.664485,1888.529230L1370.294083,1900.103856L1364.140520,1909.584205L1359.531057,1916.708490L1356.982917,1922.411658Z " data-cartodb-id="26" data-created-at="2013-10-29T02:55:27Z" data-name="Harbor Beach" data-updated-at="2013-10-29T02:55:28Z"/><path d="M1518.358231,1913.866255L1552.022200,1923.851475L1570.868089,1900.029061L1575.418880,1881.685428L1562.620443,1880.077322L1546.934033,1874.261961L1529.370060,1876.861109L1520.568604,1906.050110L1518.358231,1913.866255Z " data-cartodb-id="27" data-created-at="2013-10-29T02:55:27Z" data-name="Harbor Drive" data-updated-at="2013-10-29T02:55:28Z"/><path d="M1074.715671,1930.302599L1068.260763,1982.192084L1053.359354,2069.833900L1044.106327,2137.168701L1034.345715,2207.196152L1034.025139,2209.514818L1036.315396,2209.608312L1038.198136,2209.552216L1040.270086,2208.355485L1049.398666,2208.056302L1058.872809,2207.701022L1073.663230,2168.638980L1104.135410,2168.825970L1116.654116,2086.045861L1250.909547,2081.445927L1253.027707,2062.410430L1256.751295,2062.260839L1266.980456,2061.793366L1269.967493,2061.643775L1283.086500,2061.419388L1288.330727,2061.176302L1296.774738,2061.045409L1333.527138,2059.568195L1334.697747,2058.689346L1334.816780,2057.586110L1335.472338,2042.926160L1338.351196,2023.554083L1339.919661,2005.229147L1326.220028,1997.955269L1326.294628,1995.094335L1129.868971,2000.161741L1130.237407,1997.749581L1132.840430,1980.527881L1135.219491,1963.306181L1137.735679,1945.934891L1140.007542,1930.807470L1139.781627,1929.853826L1139.497685,1929.442449L1138.813451,1929.031073L1128.845354,1929.180665L1074.715671,1930.302599Z " data-cartodb-id="28" data-created-at="2013-10-29T02:55:27Z" data-name="Harbordale" data-updated-at="2013-10-29T02:55:28Z"/><path d="M1360.667176,2063.139688L1360.721322,2066.094117L1365.190154,2066.374600L1365.920139,2086.775118L1363.184116,2172.472259L1426.441627,2171.836496L1427.351141,2155.830221L1452.654022,2155.325350L1456.856940,2128.828983L1482.797123,2128.342812L1484.737290,2116.936472L1490.513401,2091.674235L1494.452864,2076.808596L1504.192902,2062.111247L1477.893239,2058.203174L1469.102251,2055.117853L1434.947662,2055.510530L1364.930917,2058.577152L1360.667176,2063.139688Z " data-cartodb-id="29" data-created-at="2013-10-29T02:55:27Z" data-name="Harbour Inlet" data-updated-at="2013-10-29T02:55:28Z"/><path d="M1484.737290,2116.936472L1490.074838,2117.964912L1480.986476,2170.826754L1499.172330,2169.499131L1513.646999,2158.784650L1529.397706,2159.588704L1540.011991,2161.626886L1543.049997,2163.197595L1544.467992,2161.888671L1550.841617,2141.899527L1559.760554,2116.992569L1574.559038,2046.516352L1520.837148,2045.562707L1518.912090,2050.891898L1504.192902,2062.111247L1494.452864,2076.808596L1490.513401,2091.674235L1484.737290,2116.936472Z " data-cartodb-id="30" data-created-at="2013-10-29T02:55:27Z" data-name="Harbour Isles" data-updated-at="2013-10-29T02:55:28Z"/><path d="M1362.441214,1570.329946L1350.622798,1641.797148L1348.382714,1701.895425L1355.910217,1700.436911L1357.023368,1700.193825L1359.934573,1699.632858L1368.025301,1698.735310L1375.224128,1698.772708L1377.077375,1698.604418L1387.207469,1698.249139L1411.824712,1536.597131L1390.419104,1536.784120L1392.453717,1533.792296L1392.930349,1533.044340L1393.574112,1531.772815L1395.067474,1528.762292L1395.925363,1526.107049L1396.676939,1523.320913L1398.059739,1516.065741L1400.506191,1510.212986L1396.979321,1509.951201L1394.956198,1510.082093L1388.623369,1517.449459L1386.667859,1517.655147L1382.701201,1520.422584L1370.323083,1547.966062L1367.053982,1553.856215L1362.441214,1570.329946Z " data-cartodb-id="31" data-created-at="2013-10-29T02:55:27Z" data-name="Hendricks And Venice Isles" data-updated-at="2013-10-29T02:55:28Z"/><path d="M829.121340,1425.020816L815.540381,1523.844482L830.262771,1523.601397L836.886331,1523.246117L845.857716,1523.021731L858.946997,1522.778645L861.152927,1522.703849L874.251742,1424.272860L843.953416,1424.983418L829.121340,1425.020816Z " data-cartodb-id="32" data-created-at="2013-10-29T02:55:27Z" data-name="Home Beautiful Park" data-updated-at="2013-10-29T02:55:28Z"/><path d="M1509.709640,1713.470048L1485.636660,1858.480080L1496.814168,1858.760564L1519.370570,1838.247859L1531.176171,1815.079911L1539.248770,1790.771329L1543.107098,1760.123819L1543.168492,1757.730359L1536.308510,1732.524233L1534.440145,1720.930911L1523.991853,1715.396035L1509.709640,1713.470048Z " data-cartodb-id="33" data-created-at="2013-10-29T02:55:27Z" data-name="Idlewyld" data-updated-at="2013-10-29T02:55:28Z"/><path d="M1815.607683,0.000000L1794.002042,1.215422L1781.879063,1.533302L1754.911436,2.075567L1707.607454,5.048676L1707.340608,3.104001L1685.966270,3.702362L1665.849194,4.057640L1664.420805,12.210317L1662.972963,20.288199L1658.393682,29.095334L1652.376235,36.069988L1644.187145,41.960111L1641.273291,43.493413L1637.612239,44.708835L1633.790746,45.830763L1611.514418,45.026715L1598.288887,131.733084L1579.497457,255.014379L1577.487799,269.524665L1759.087588,265.392225L1760.691794,263.073571L1767.026894,251.798182L1774.040005,239.531756L1774.840989,238.091947L1790.328180,210.567286L1803.627081,184.931208L1813.795623,162.604824L1814.620567,160.734942L1824.356558,135.828124L1827.437653,127.264069L1827.833394,126.142140L1828.226009,125.038910L1836.709365,101.403615L1837.244959,100.019903L1845.537337,78.198395L1846.433953,75.804948L1850.489650,65.053134L1859.955569,39.473170L1867.575971,20.811765L1849.475986,22.027187L1836.039621,22.158079L1824.473028,22.307669L1824.088843,22.307669L1827.562057,0.785350L1815.607683,0.000000Z " data-cartodb-id="34" data-created-at="2013-10-29T02:55:27Z" data-name="Imperial Point" data-updated-at="2013-10-29T02:55:28Z"/><path d="M1577.487799,269.524665L1558.444709,406.549674L1627.731942,405.577335L1646.401790,404.978972L1653.226501,404.661092L1655.926487,404.118826L1658.711210,403.165185L1666.083409,399.761998L1666.325129,398.602670L1682.878327,397.929512L1683.520646,396.863679L1693.861493,379.716850L1694.812299,378.146149L1701.054108,366.945549L1710.440180,350.340989L1717.802470,337.513593L1719.903713,333.848622L1720.854175,332.184427L1727.783550,319.936695L1730.328022,315.822954L1735.311251,306.791421L1737.078295,303.593922L1740.523749,297.442008L1743.073379,293.010387L1747.167889,285.848737L1750.240029,280.781356L1753.088830,275.900963L1759.087588,265.392225L1577.487799,269.524665Z " data-cartodb-id="35" data-created-at="2013-10-29T02:55:27Z" data-name="Knoll Ridge" data-updated-at="2013-10-29T02:55:28Z"/><path d="M412.330908,1124.080930L411.558011,1129.484906L408.435055,1149.081333L407.245819,1157.271442L406.983976,1158.842148L405.212051,1169.855790L404.158799,1176.942666L401.217771,1192.761920L498.772053,1188.124597L596.188995,1184.983185L592.700345,1213.218499L598.730388,1213.349391L599.172745,1208.581176L600.431324,1200.260173L600.933138,1196.576493L601.740441,1193.173296L604.222930,1187.788018L671.366580,1186.460397L706.448550,1113.721751L700.759194,1113.852643L672.388921,1114.432309L663.972056,1114.694093L622.000215,1116.096509L608.584263,1116.190003L600.967893,1116.451787L552.096571,1118.041192L541.665978,1118.377772L515.321711,1119.481006L507.200096,1119.892381L476.054085,1121.276098L451.314341,1122.454128L424.637801,1123.725651L412.330908,1124.080930Z " data-cartodb-id="36" data-created-at="2013-10-29T02:55:27Z" data-name="Lake Aire Palm View" data-updated-at="2013-10-29T02:55:28Z"/><path d="M1778.021304,262.830487L1780.454173,262.736993L1853.608456,260.362242L1865.933151,177.638670L1825.126903,178.797997L1778.021304,262.830487Z " data-cartodb-id="37" data-created-at="2013-10-29T02:55:27Z" data-name="Lake Estates" data-updated-at="2013-10-29T02:55:28Z"/><path d="M1141.210339,1381.770276L1145.417552,1381.695481L1147.632784,1381.564588L1150.308815,1382.705221L1158.818856,1382.462135L1176.108005,1381.994663L1177.665009,1381.489793L1180.098134,1380.723138L1183.085404,1379.993881L1189.641229,1378.890647L1192.717019,1378.591464L1207.909226,1378.217487L1212.769308,1378.067896L1223.293110,1377.750014L1227.573699,1377.619122L1231.607457,1377.432133L1232.039741,1377.432133L1238.354118,1377.394735L1249.518339,1377.076854L1253.331510,1376.964661L1269.077407,1376.534586L1283.706126,1376.179307L1299.810026,1375.618341L1315.284638,1375.375255L1330.324264,1374.571203L1333.001135,1374.552504L1344.821781,1374.234623L1346.134195,1374.141128L1355.028025,1373.804548L1360.989265,1373.580161L1376.267282,1373.075291L1391.374954,1372.439529L1396.824307,1372.308637L1406.291851,1372.084250L1417.930165,1365.165660L1432.726495,1357.069040L1437.382542,1351.122793L1439.164885,1348.205766L1440.003134,1346.728554L1441.049935,1344.671676L1441.828123,1342.689594L1442.339045,1341.062790L1442.515545,1339.809964L1442.971733,1337.453904L1444.972465,1323.317544L1448.715095,1297.083003L1452.123315,1273.148427L1374.435877,1275.392293L1359.209162,1275.878464L1343.963322,1276.383334L1328.765511,1276.888204L1313.157656,1277.355676L1241.375285,1279.711736L1200.350506,1324.271187L1200.757890,1325.767098L1199.564253,1329.955649L1195.301929,1331.227174L1189.960679,1332.536096L1178.427960,1344.204204L1142.271441,1380.685740L1141.210339,1381.770276Z " data-cartodb-id="38" data-created-at="2013-10-29T02:55:27Z" data-name="Lake Ridge" data-updated-at="2013-10-29T02:55:28Z"/><path d="M1760.931372,352.061281L1756.673657,378.501426L1754.137266,396.078328L1775.143937,395.386471L1782.378998,395.199483L1811.827998,394.376734L1836.584160,393.759673L1859.521988,393.198708L1861.597629,392.656442L1869.780700,392.544249L1876.997015,392.469453L1884.654867,366.178897L1909.909576,261.989040L1911.045075,257.015153L1919.818763,234.501773L1943.142795,176.759826L1932.629114,173.674521L1918.437726,169.224204L1907.720104,167.167334L1890.061010,166.606370L1867.541981,166.868153L1865.933151,177.638670L1853.608456,260.362242L1780.454173,262.736993L1778.021304,262.830487L1776.439084,271.338451L1760.931372,352.061281Z " data-cartodb-id="39" data-created-at="2013-10-29T02:55:27Z" data-name="Landings" data-updated-at="2013-10-29T02:55:28Z"/><path d="M1266.098714,1781.590165L1273.078442,1786.994150L1274.654249,1787.050246L1296.784377,1792.529027L1307.179161,1799.447623L1335.531840,1803.131308L1346.123815,1806.646703L1370.201311,1812.162881L1378.692818,1810.106001L1385.504819,1809.002765L1390.010758,1810.311689L1400.734810,1823.924495L1407.242418,1830.244726L1413.832956,1835.873098L1421.876294,1841.912846L1433.672246,1850.327355L1446.692597,1757.487273L1457.084477,1697.164602L1445.256253,1697.332893L1444.356518,1697.351591L1437.113713,1697.482484L1427.203725,1697.669473L1419.496594,1697.800365L1417.050461,1697.875161L1409.823193,1697.912559L1405.010036,1697.875161L1397.248183,1697.949956L1393.053720,1698.043451L1390.040979,1698.155644L1387.207469,1698.249139L1377.077375,1698.604418L1375.224128,1698.772708L1368.025301,1698.735310L1359.934573,1699.632858L1357.023368,1700.193825L1355.910217,1700.436911L1348.382714,1701.895425L1337.077236,1704.120595L1327.233574,1706.027883L1322.257120,1707.262011L1315.387017,1708.907515L1311.833671,1709.767665L1305.924311,1710.160342L1291.929167,1726.353594L1271.235178,1758.964487L1266.098714,1781.590165Z " data-cartodb-id="40" data-created-at="2013-10-29T02:55:27Z" data-name="Las Olas Isles" data-updated-at="2013-10-29T02:55:28Z"/><path d="M1810.836077,947.470062L1804.662896,991.524601L1819.502096,991.823783L1821.761189,992.197760L1826.953507,993.319692L1836.887631,963.008822L1844.396374,939.953116L1853.441742,926.602124L1867.507047,884.866253L1876.363391,858.631746L1892.109207,810.669164L1885.042801,809.266749L1875.887123,809.640726L1861.820525,810.182993L1847.254518,810.743959L1845.333394,810.743959L1826.890589,880.546815L1819.026602,913.026746L1810.836077,947.470062Z " data-cartodb-id="41" data-created-at="2013-10-29T02:55:27Z" data-name="Lauderdale Beach" data-updated-at="2013-10-29T02:55:28Z"/><path d="M1139.497685,1929.442449L1139.781627,1929.853826L1140.007542,1930.807470L1137.735679,1945.934891L1135.219491,1963.306181L1132.840430,1980.527881L1130.237407,1997.749581L1129.868971,2000.161741L1326.294628,1995.094335L1326.489545,1986.492834L1325.374463,1974.787314L1318.660291,1973.179208L1316.203936,1965.213470L1316.348065,1957.883496L1311.426468,1951.843747L1312.454289,1934.659446L1284.826315,1933.163533L1210.815030,1938.305734L1212.309581,1927.666053L1139.497685,1929.442449Z " data-cartodb-id="42" data-created-at="2013-10-29T02:55:27Z" data-name="Lauderdale Harbours" data-updated-at="2013-10-29T02:55:28Z"/><path d="M657.336662,1238.854670L636.758763,1387.679126L638.904178,1387.679126L640.063165,1387.641728L644.273942,1387.641728L645.282608,1387.641728L646.451378,1387.641728L648.756899,1387.641728L650.646145,1387.641728L659.435942,1387.641728L672.604178,1387.884814L677.385552,1388.015706L693.638508,1387.136858L697.410773,1387.174256L700.056072,1387.249052L705.504549,1387.604331L708.495853,1387.716524L711.810039,1387.716524L721.528449,1387.716524L733.024031,1387.716524L741.020415,1387.866115L761.952887,1387.922212L802.283488,1388.595372L802.747794,1388.595372L814.068151,1388.782361L825.691819,1388.782361L834.076017,1389.006747L849.107267,1389.118941L858.153235,1389.118941L864.121617,1389.044145L878.784179,1389.062844L882.002302,1389.062844L887.221745,1389.062844L893.225706,1389.062844L893.712647,1384.406820L893.908308,1381.115815L894.423291,1375.618341L896.125775,1362.603912L897.094471,1356.208891L898.373678,1346.410673L900.558565,1331.750743L901.461192,1323.541930L903.101808,1312.247801L905.808055,1293.305827L906.304130,1289.846533L906.639150,1287.546570L908.091475,1276.327238L910.886220,1257.721845L912.396152,1246.446417L913.432269,1237.919725L915.137803,1224.606119L916.361171,1217.070469L917.831353,1206.131622L919.849507,1191.808277L924.311592,1158.879546L927.096029,1139.096131L928.882951,1125.876023L931.346154,1109.271418L931.826658,1105.812126L932.458011,1099.622797L933.896636,1088.590459L935.460452,1079.016634L937.470350,1067.535524L940.884188,1050.706536L942.632760,1039.449813L939.953806,1031.895468L931.499930,1013.271389L897.471747,938.532002L871.761960,882.379304L870.013374,878.658230L869.099511,876.171281L867.537476,871.907940L866.321909,869.981957L864.861032,867.607201L862.358884,865.812110L856.808795,862.614604L854.816449,858.052081L848.531179,855.135058L835.716835,879.163099L825.128580,898.198545L796.233645,943.674191L745.968817,1044.629401L706.448550,1113.721751L671.366580,1186.460397L669.615552,1190.050582L665.968357,1198.390284L663.108517,1208.730767L657.336662,1238.854670Z " data-cartodb-id="43" data-created-at="2013-10-29T02:55:27Z" data-name="Lauderdale Manors" data-updated-at="2013-10-29T02:55:28Z"/><path d="M35.975093,1962.857407L35.913418,1963.324880L34.097207,1976.470216L33.979130,1977.180775L32.096617,1989.858639L33.883249,1989.802542L43.270954,1989.484661L180.211586,1985.969265L207.565238,1985.165211L286.178548,1968.616673L287.652640,1957.528217L288.106253,1954.798175L289.395165,1948.197459L273.865722,1947.318610L167.422064,1951.544565L168.649507,1942.905667L132.826729,1943.896709L124.107982,1944.139795L110.234412,1944.569870L101.890623,1944.869053L100.664802,1953.208768L99.623311,1960.632236L93.659776,1960.482645L67.931486,1961.623279L42.803998,1962.520827L37.764827,1962.782611L35.975093,1962.857407Z " data-cartodb-id="44" data-created-at="2013-10-29T02:55:27Z" data-name="Lauderdale West" data-updated-at="2013-10-29T02:55:28Z"/><path d="M1406.291851,1372.084250L1409.262638,1371.261499L1420.113806,1371.766369L1422.627459,1371.766369L1427.640200,1373.393173L1434.985922,1373.411871L1436.896496,1373.187485L1443.016389,1371.336294L1444.115747,1370.887521L1447.678874,1369.391610L1451.749016,1368.120085L1456.729548,1367.054248L1465.061193,1366.343690L1466.982455,1366.343690L1475.953174,1344.092010L1480.862425,1288.051440L1515.149436,1238.088015L1531.105053,1193.322887L1467.168591,1191.639987L1460.529356,1230.066194L1457.874059,1240.051398L1454.550287,1258.282812L1453.149323,1266.697311L1452.123315,1273.148427L1448.715095,1297.083003L1444.972465,1323.317544L1442.971733,1337.453904L1442.515545,1339.809964L1442.339045,1341.062790L1441.828123,1342.689594L1441.049935,1344.671676L1440.003134,1346.728554L1439.164885,1348.205766L1437.382542,1351.122793L1432.726495,1357.069040L1417.930165,1365.165660L1406.291851,1372.084250Z " data-cartodb-id="45" data-created-at="2013-10-29T02:55:27Z" data-name="Laudergate Isles" data-updated-at="2013-10-29T02:55:28Z"/><path d="M329.232598,1676.221829L326.954023,1690.208610L324.885569,1704.569369L324.708750,1705.728701L322.402588,1720.556933L320.388434,1733.533974L316.499284,1759.712443L312.452820,1786.358387L310.460706,1799.784203L308.839129,1811.078344L303.323873,1848.588357L302.305196,1856.161415L301.233721,1864.052355L299.044556,1879.535054L297.709044,1889.015402L296.832857,1894.961656L294.644022,1910.444355L292.441499,1925.721366L290.454256,1939.221981L289.395165,1948.197459L288.106253,1954.798175L287.652640,1957.528217L286.178548,1968.616673L293.776012,1967.027265L300.917736,1965.867932L315.193295,1963.885847L329.961390,1962.408633L343.574484,1961.137107L344.243392,1961.062311L358.528020,1959.603796L384.320782,1957.303830L389.777916,1956.742862L404.203531,1955.303046L414.245990,1954.031520L417.648362,1953.694940L419.438329,1939.259379L421.664358,1923.645787L426.329603,1892.680388L427.044321,1888.379639L427.995226,1882.657772L428.458256,1879.871634L428.880893,1877.328582L429.387236,1873.607499L431.121436,1861.920680L431.231429,1860.873541L433.307333,1847.709508L435.202425,1834.863357L435.842715,1831.011381L436.972537,1823.251334L437.728629,1818.221327L438.241518,1815.136007L443.580584,1780.131651L443.827428,1778.261760L444.033858,1776.634955L444.677411,1772.764281L445.939523,1764.499364L460.470242,1670.481266L444.609063,1671.023534L433.201173,1671.360114L430.489528,1671.491006L426.564145,1671.603200L416.091581,1671.995877L401.850174,1672.425952L391.172572,1672.799930L387.612335,1672.930822L379.383980,1673.211306L373.505694,1673.416994L359.238940,1673.903165L351.631449,1674.108853L345.000638,1674.314541L330.288679,1674.782014L329.815580,1675.604765L329.232598,1676.221829Z " data-cartodb-id="46" data-created-at="2013-10-29T02:55:27Z" data-name="Melrose Manors" data-updated-at="2013-10-29T02:55:28Z"/><path d="M1095.338962,1422.851744L1094.308945,1429.714238L1124.488824,1396.430208L1138.799947,1383.939348L1139.680052,1383.172693L1141.210339,1381.770276L1142.271441,1380.685740L1178.427960,1344.204204L1189.960679,1332.536096L1195.301929,1331.227174L1199.564253,1329.955649L1200.757890,1325.767098L1200.350506,1324.271187L1241.375285,1279.711736L1255.976654,1264.808723L1263.277622,1256.730804L1269.012262,1249.213852L1273.943304,1241.715599L1278.066724,1234.740915L1282.096345,1227.560543L1285.141347,1220.716751L1287.778493,1214.976194L1290.002508,1209.216938L1291.758210,1203.962551L1292.422801,1201.606492L1294.497523,1194.725303L1295.970119,1187.806716L1297.232257,1182.440137L1298.541258,1175.446755L1305.055179,1132.981597L1307.908227,1114.320115L1311.718469,1084.439308L1307.397070,1081.933659L1302.769356,1073.388272L1296.341592,1066.806268L1293.792359,1067.404632L1292.474173,1067.629018L1290.539006,1068.769650L1287.474542,1070.826526L1270.072344,1086.290497L1267.217313,1088.627857L1263.858666,1089.375812L1259.351385,1089.618897L1251.972522,1089.992875L1249.110181,1090.740830L1248.428415,1090.796927L1243.315981,1093.134286L1240.051890,1094.948077L1236.649407,1097.304136L1228.033947,1105.195063L1220.833823,1111.702272L1216.798346,1112.188443L1213.455275,1112.842904L1208.702364,1113.983535L1202.977880,1114.133126L1198.141040,1114.432309L1189.058766,1115.516844L1180.716927,1116.769668L1179.275497,1117.349334L1178.130732,1117.685913L1176.043101,1118.396471L1175.183831,1118.845244L1172.887639,1119.462307L1170.454980,1119.649296L1167.925400,1119.649296L1165.918879,1119.200523L1164.414801,1119.387511L1163.930954,1119.312716L1162.864947,1119.368813L1161.235042,1119.350114L1160.064488,1119.649296L1158.748552,1119.667995L1158.585336,1119.686694L1156.694433,1119.312716L1155.362589,1118.658255L1154.252301,1117.442828L1148.575723,1115.479446L1147.633203,1119.406210L1146.743231,1122.921600L1144.703949,1136.889663L1142.161310,1154.840588L1140.822758,1165.181069L1137.850733,1184.366122L1133.423488,1217.575339L1128.924539,1250.354484L1124.305360,1283.283224L1110.699212,1384.145035L1109.340426,1392.596935L1107.111755,1409.257648L1106.779168,1410.678764L1106.292663,1411.389322L1101.073961,1416.868098L1095.338962,1422.851744Z " data-cartodb-id="47" data-created-at="2013-10-29T02:55:27Z" data-name="Middle River Terrace" data-updated-at="2013-10-29T02:55:28Z"/><path d="M1305.924311,1710.160342L1311.833671,1709.767665L1315.387017,1708.907515L1322.257120,1707.262011L1327.233574,1706.027883L1337.077236,1704.120595L1348.382714,1701.895425L1350.622798,1641.797148L1335.549211,1641.647556L1318.963103,1682.093285L1315.517645,1694.827239L1316.112336,1696.547539L1305.924311,1710.160342Z " data-cartodb-id="48" data-created-at="2013-10-29T02:55:27Z" data-name="Navarrea Isle" data-updated-at="2013-10-29T02:55:28Z"/><path d="M1682.878327,397.929512L1685.487712,397.929512L1713.861815,397.312451L1738.161161,396.938474L1754.137266,396.078328L1756.673657,378.501426L1760.931372,352.061281L1776.439084,271.338451L1770.079928,271.170161L1764.572416,270.216521L1762.539156,268.589724L1759.087588,265.392225L1753.088830,275.900963L1750.240029,280.781356L1747.167889,285.848737L1743.073379,293.010387L1740.523749,297.442008L1737.078295,303.593922L1735.311251,306.791421L1730.328022,315.822954L1727.783550,319.936695L1720.854175,332.184427L1719.903713,333.848622L1717.802470,337.513593L1710.440180,350.340989L1701.054108,366.945549L1694.812299,378.146149L1693.861493,379.716850L1683.520646,396.863679L1682.878327,397.929512Z " data-cartodb-id="49" data-created-at="2013-10-29T02:55:27Z" data-name="North Golf Estates" data-updated-at="2013-10-29T02:55:28Z"/><path d="M1411.824712,1536.597131L1387.207469,1698.249139L1390.040979,1698.155644L1393.053720,1698.043451L1397.248183,1697.949956L1405.010036,1697.875161L1409.823193,1697.912559L1417.050461,1697.875161L1419.496594,1697.800365L1427.203725,1697.669473L1437.113713,1697.482484L1444.356518,1697.351591L1445.256253,1697.332893L1471.807718,1534.633747L1461.784121,1535.119918L1452.249714,1535.456498L1441.842651,1535.456498L1431.674953,1535.942670L1424.122656,1535.624788L1411.824712,1536.597131Z " data-cartodb-id="50" data-created-at="2013-10-29T02:55:27Z" data-name="Nurmi Isles" data-updated-at="2013-10-29T02:55:28Z"/><path d="M575.576455,23.111718L575.420218,24.140152L575.071215,26.701888L574.588255,30.254660L574.440370,30.946516L574.211429,33.078179L573.797011,35.265939L573.571539,36.612253L573.413930,38.126856L569.411189,66.904316L568.498311,72.738343L567.904820,76.665093L564.868105,99.103661L826.207822,84.406399L839.027757,17.876053L835.672752,17.932150L823.549360,18.156535L813.500706,18.418319L808.059492,18.792295L802.062897,19.615042L797.507347,20.531283L792.483420,22.045886L784.798095,25.018996L781.096898,26.664490L774.890510,28.740057L773.195451,29.207527L769.427408,30.105070L764.923009,31.002612L761.236376,31.413986L755.556093,32.068444L742.557811,32.068444L730.549933,32.367625L722.373462,32.442420L716.249113,32.498516L707.922310,32.610709L692.239965,33.152975L675.791326,33.396059L652.866866,33.882228L647.750652,33.844830L641.985762,33.283866L636.533013,32.292830L636.993032,31.170901L631.094150,29.880684L629.087250,29.151431L620.961164,25.579960L619.460953,25.075092L616.931367,24.121453L614.684707,23.485694L612.838940,23.036923L610.916616,22.662946L606.413219,22.120681L601.814127,21.671910L596.477644,21.802802L588.928615,21.858898L581.366710,21.896296L578.719523,22.027187L576.905096,23.111718L575.576455,23.111718Z " data-cartodb-id="51" data-created-at="2013-10-29T02:55:27Z" data-name="Palm-Aire Village" data-updated-at="2013-10-29T02:55:28Z"/><path d="M944.904115,1933.705802L944.395810,2016.990764L945.575856,2068.524976L948.234506,2140.010936L948.394306,2144.162096L947.475906,2157.513124L947.159765,2174.473043L947.598078,2184.570459L947.583399,2191.993930L947.826604,2208.673366L952.643153,2409.256696L966.604150,2407.723385L974.284542,2409.593277L974.927626,2411.220083L975.711729,2412.285922L976.824867,2413.202169L978.125509,2413.856631L989.340596,2417.297233L995.330385,2419.223222L1000.004553,2420.681738L1002.214827,2421.354900L1004.751555,2421.990663L1009.778520,2422.963007L1011.189691,2421.597986L1005.971053,2413.183470L1010.766393,2379.132732L1012.658340,2364.435379L1014.174435,2348.915273L1014.441549,2347.400660L1017.366071,2328.795233L1020.198714,2312.676763L1021.902745,2286.273886L1021.527954,2283.899123L1020.671032,2278.252049L1020.894244,2277.485393L1024.968159,2276.961823L1025.915705,2269.220470L1026.452812,2264.919718L1028.957124,2263.143321L1034.677899,2246.800464L1036.426378,2242.050938L1040.465778,2232.177908L1049.398666,2208.056302L1040.270086,2208.355485L1038.198136,2209.552216L1036.315396,2209.608312L1034.025139,2209.514818L1034.345715,2207.196152L1044.106327,2137.168701L1053.359354,2069.833900L1068.260763,1982.192084L1074.715671,1930.302599L977.890745,1932.340781L961.970365,1932.658662L951.641170,1932.957845L947.649981,1933.369221L944.904115,1933.705802Z " data-cartodb-id="52" data-created-at="2013-10-29T02:55:27Z" data-name="Poinciana Park" data-updated-at="2013-10-29T02:55:28Z"/><path d="M1241.375285,1279.711736L1313.157656,1277.355676L1328.765511,1276.888204L1343.963322,1276.383334L1359.209162,1275.878464L1374.435877,1275.392293L1452.123315,1273.148427L1453.149323,1266.697311L1454.550287,1258.282812L1457.874059,1240.051398L1460.529356,1230.066194L1467.168591,1191.639987L1473.602549,1169.350920L1484.491844,1139.731892L1492.851083,1119.537102L1499.239255,1105.793427L1508.607979,1082.232841L1521.429399,1049.771592L1529.193741,1030.175171L1540.656038,1001.360208L1529.866372,989.636015L1525.847404,992.328652L1524.645132,993.394488L1521.817549,996.143222L1519.702638,999.995190L1517.193474,1005.156079L1515.298445,1008.073103L1513.848027,1011.588491L1513.676076,1013.196594L1514.105904,1016.861573L1514.727359,1018.320085L1514.967268,1019.666404L1514.947555,1023.050900L1514.396212,1025.014282L1513.762250,1026.416698L1512.397956,1028.454875L1509.647787,1031.315803L1506.319010,1034.382418L1494.091649,1047.135051L1491.116297,1051.155309L1489.674339,1052.314639L1487.543528,1053.380475L1485.598277,1053.717055L1484.116556,1053.193486L1482.731861,1052.183747L1481.544226,1050.856127L1476.233470,1044.872487L1471.564745,1039.935984L1464.681869,1050.687837L1461.621519,1055.025976L1454.218305,1057.756012L1447.782335,1057.756012L1435.811356,1058.017796L1430.259045,1057.999097L1428.368913,1058.485268L1421.571808,1058.634859L1414.028792,1059.513706L1409.826037,1060.523445L1400.652914,1059.943780L1391.895522,1057.157648L1388.063470,1056.615380L1381.005487,1055.736533L1372.395181,1056.390994L1365.406477,1058.747052L1355.129059,1066.619279L1340.247490,1080.119868L1321.250402,1085.748230L1314.483676,1084.850684L1311.718469,1084.439308L1307.908227,1114.320115L1305.055179,1132.981597L1298.541258,1175.446755L1297.232257,1182.440137L1295.970119,1187.806716L1294.497523,1194.725303L1292.422801,1201.606492L1291.758210,1203.962551L1290.002508,1209.216938L1287.778493,1214.976194L1285.141347,1220.716751L1282.096345,1227.560543L1278.066724,1234.740915L1273.943304,1241.715599L1269.012262,1249.213852L1263.277622,1256.730804L1255.976654,1264.808723L1241.375285,1279.711736Z " data-cartodb-id="53" data-created-at="2013-10-29T02:55:27Z" data-name="Poinsettia Heights" data-updated-at="2013-10-29T02:55:28Z"/><path d="M972.729231,1387.361245L968.131731,1420.944457L963.624804,1453.891909L960.175018,1478.181775L959.118174,1486.745870L958.333110,1495.216470L957.477555,1501.031827L956.096155,1509.334137L955.087531,1513.952765L954.615247,1518.234813L954.587856,1519.842918L970.314439,1519.338048L985.688781,1518.833177L991.919194,1518.627490L1000.883892,1518.347006L1014.686059,1517.860835L1018.988148,1510.960941L1028.494324,1496.936768L1037.135454,1486.091408L1036.013978,1483.305273L1049.394827,1384.818196L1034.136340,1385.397861L1019.043735,1385.846635L1003.803921,1386.314107L988.573890,1386.818977L972.729231,1387.361245Z " data-cartodb-id="54" data-created-at="2013-10-29T02:55:27Z" data-name="Progresso Village" data-updated-at="2013-10-29T02:55:28Z"/><path d="M1102.594562,1736.862379L1102.314581,1739.124947L1101.497703,1744.136254L1099.923044,1753.803589L1099.475485,1757.749058L1095.593884,1786.694967L1094.217886,1795.072078L1091.344401,1811.209236L1088.330815,1828.094351L1085.425454,1846.064004L1083.902663,1858.218295L1083.501247,1861.116626L1082.545045,1868.222213L1081.141867,1878.693603L1074.715671,1930.302599L1128.845354,1929.180665L1138.813451,1929.031073L1139.497685,1929.442449L1212.309581,1927.666053L1210.815030,1938.305734L1284.826315,1933.163533L1290.447414,1913.679266L1292.950864,1901.207092L1295.575895,1893.016969L1348.607211,1882.695170L1354.981480,1868.801879L1358.142795,1854.684201L1361.195837,1847.485121L1362.250604,1845.858316L1368.652301,1821.680625L1370.201311,1812.162881L1346.123815,1806.646703L1335.531840,1803.131308L1307.179161,1799.447623L1296.784377,1792.529027L1274.654249,1787.050246L1273.078442,1786.994150L1266.098714,1781.590165L1243.137124,1761.844119L1228.197988,1774.952053L1218.551081,1755.729576L1198.132574,1749.876818L1157.038820,1747.520756L1148.621258,1745.856553L1137.289797,1750.549979L1119.605481,1740.770451L1104.502069,1736.656691L1102.594562,1736.862379Z " data-cartodb-id="55" data-created-at="2013-10-29T02:55:27Z" data-name="Rio Vista" data-updated-at="2013-10-29T02:55:28Z"/><path d="M546.420855,1531.211848L525.893638,1668.256096L527.356872,1668.218698L547.272890,1667.844720L553.123177,1667.807322L570.606421,1667.620333L588.582900,1667.452043L592.605267,1667.526839L612.802617,1529.379356L610.954693,1529.323259L601.928587,1529.491550L582.558164,1530.052516L579.019765,1530.052516L577.723337,1530.146011L563.482608,1530.669580L546.420855,1531.211848Z " data-cartodb-id="56" data-created-at="2013-10-29T02:55:27Z" data-name="River Garden Sweeting Estate" data-updated-at="2013-10-29T02:55:28Z"/><path d="M520.557382,2142.479194L513.285580,2205.008378L501.337475,2278.850414L500.060048,2289.060025L499.388593,2292.238841L498.917594,2295.174572L639.209114,2247.548421L643.080689,2246.314292L656.071972,2242.518411L673.108361,2237.600595L680.105537,2235.768101L691.406715,2232.121812L707.041719,2227.447082L710.060937,2226.717824L722.327953,2223.426814L724.323385,2222.884545L728.921213,2221.519524L739.972793,2218.508998L744.395486,2217.330966L755.830256,2214.713117L766.861013,2212.600139L770.457670,2212.057871L773.779515,2211.627796L782.999579,2143.133656L783.148537,2142.236108L785.118499,2126.603812L785.084002,2126.136339L787.204806,2111.139807L787.439349,2108.858539L789.294382,2095.657104L789.677104,2091.711632L791.189368,2080.286594L791.933195,2074.359038L793.659308,2063.382774L794.586200,2056.931648L797.147081,2040.831881L797.209173,2040.457903L798.930348,2027.873533L799.593664,2022.432148L799.934222,2020.188279L801.265923,2011.493283L802.340256,2005.023459L803.930264,1994.869948L804.897827,1988.175737L806.425844,1978.396204L807.527019,1970.897940L808.977028,1961.492386L810.083956,1956.948550L810.590389,1953.320961L811.037407,1951.207984L813.266369,1936.342348L813.179135,1936.192757L807.394628,1936.604133L721.794728,1938.829304L720.024122,1938.885400L719.148734,1945.504816L716.856472,1952.460811L708.501490,1963.624063L705.828887,1971.328015L703.945160,1974.282443L700.416447,1979.910817L694.431498,1989.241575L686.460725,2005.902308L686.093230,2006.668963L681.537128,2022.245159L673.880180,2040.682290L669.771672,2052.986176L662.638297,2066.150213L661.322021,2068.581073L657.474514,2075.649263L661.555280,2089.262074L655.623975,2089.785644L626.768363,2091.244160L613.277587,2094.479072L599.536495,2097.003426L587.828106,2095.096136L578.056374,2090.589697L566.089658,2094.385578L559.668985,2099.303393L541.120405,2117.572235L536.946518,2121.012836L534.554688,2122.303061L532.461863,2123.817673L527.348964,2135.037024L520.557382,2142.479194Z " data-cartodb-id="57" data-created-at="2013-10-29T02:55:27Z" data-name="River Oaks" data-updated-at="2013-10-29T02:55:28Z"/><path d="M286.178548,1968.616673L283.147418,1988.306629L281.181034,2000.143042L280.898355,2001.844643L278.790197,2015.981023L278.403371,2018.598871L287.284402,2016.897270L376.825104,2016.111915L370.918533,2051.770747L366.711766,2082.212583L366.380983,2084.493851L355.420414,2141.731237L359.158758,2142.553989L366.419452,2144.536075L369.082692,2144.311688L372.803224,2144.180795L378.462695,2144.330386L380.736909,2144.423881L394.665516,2145.882397L413.334164,2143.769419L414.574856,2134.270369L415.461220,2128.641994L416.620639,2120.115288L417.218995,2115.739741L417.451025,2113.570667L418.357735,2107.530916L419.164317,2101.322876L419.732482,2097.900974L420.488452,2091.805127L422.065432,2081.632916L422.571673,2074.920005L422.520858,2070.694050L422.380041,2070.095685L422.347606,2068.169696L421.328023,2061.774667L420.283152,2058.521056L418.653902,2054.351197L416.427086,2048.573232L415.530038,2046.647244L413.341295,2041.411548L410.711542,2034.492949L409.903333,2031.164542L409.499576,2029.257252L408.854674,2022.824826L408.921502,2016.541990L409.411959,2012.914401L412.797893,1988.867596L413.298441,1984.697739L415.512034,1969.252436L417.648362,1953.694940L414.245990,1954.031520L404.203531,1955.303046L389.777916,1956.742862L384.320782,1957.303830L358.528020,1959.603796L344.243392,1961.062311L343.574484,1961.137107L329.961390,1962.408633L315.193295,1963.885847L300.917736,1965.867932L293.776012,1967.027265L286.178548,1968.616673Z " data-cartodb-id="58" data-created-at="2013-10-29T02:55:27Z" data-name="River Run" data-updated-at="2013-10-29T02:55:28Z"/><path d="M553.529843,1863.846667L550.477743,1946.682847L554.252444,1946.514557L554.764819,1946.514557L559.442388,1946.308869L561.892660,1946.402363L563.583690,1946.439761L565.720420,1946.589353L567.221936,1946.514557L569.370133,1946.402363L578.112051,1946.308869L582.393873,1946.364966L587.334801,1946.308869L592.720471,1946.177976L599.423394,1945.635708L606.071843,1945.710504L610.375409,1945.635708L615.010193,1945.205633L616.150131,1945.186934L621.106814,1944.457676L624.183914,1943.765817L633.935465,1941.353657L640.578147,1940.306518L642.269431,1941.017076L644.365044,1940.643098L647.017959,1940.287819L651.119582,1940.175625L659.514487,1939.857744L667.730637,1939.652056L681.223475,1939.296776L713.481548,1938.848003L718.073800,1938.866701L720.024122,1938.885400L717.517834,1927.273376L716.850116,1915.100384L720.061664,1907.527324L722.757095,1905.470444L738.917285,1893.203958L737.528095,1891.446260L733.224804,1885.930081L734.706488,1882.601675L784.532390,1830.001640L791.427678,1821.942410L800.167956,1812.705149L829.149102,1808.367002L829.394541,1808.142615L829.469597,1807.787336L825.817687,1796.137916L832.739777,1781.945445L836.072433,1769.697660L836.713739,1764.779847L837.884216,1756.197049L837.770726,1755.916565L837.591024,1755.841770L798.112145,1772.764281L796.200871,1781.758455L775.696008,1792.416833L755.317570,1770.333423L737.779150,1776.148783L736.343587,1776.597557L733.920308,1777.401610L725.211019,1772.483797L726.414329,1771.698443L730.116749,1769.267585L724.106093,1758.422219L706.720788,1727.008056L703.573728,1719.453698L699.965689,1708.701827L693.319695,1696.192259L696.982973,1680.036406L699.366676,1669.938997L700.088136,1665.600852L699.873856,1663.712262L697.313000,1663.899251L686.484640,1664.217133L678.921289,1664.927691L676.059792,1665.189476L667.965886,1666.105722L658.131599,1666.704087L648.002890,1667.339850L640.921593,1667.751226L634.068825,1667.751226L631.385173,1667.713828L621.911413,1667.395946L612.779304,1667.526839L610.185500,1667.526839L606.579422,1667.452043L600.107350,1667.377248L592.605267,1667.526839L592.230223,1669.396729L589.579179,1682.448564L578.625434,1737.535540L578.325248,1739.629817L553.529843,1863.846667Z " data-cartodb-id="59" data-created-at="2013-10-29T02:55:27Z" data-name="Riverside Park" data-updated-at="2013-10-29T02:55:28Z"/><path d="M1446.692597,1757.487273L1433.672246,1850.327355L1440.900779,1852.982600L1449.270699,1855.899630L1457.629973,1856.759780L1466.239817,1855.918329L1479.658147,1858.517478L1485.636660,1858.480080L1509.709640,1713.470048L1499.409152,1713.694435L1495.162077,1738.676173L1486.096105,1738.601378L1462.640122,1755.654781L1446.692597,1757.487273Z " data-cartodb-id="60" data-created-at="2013-10-29T02:55:27Z" data-name="Riviera Isles" data-updated-at="2013-10-29T02:55:28Z"/><path d="M693.319695,1696.192259L699.965689,1708.701827L703.573728,1719.453698L706.720788,1727.008056L724.106093,1758.422219L730.116749,1769.267585L726.414329,1771.698443L725.211019,1772.483797L733.920308,1777.401610L736.343587,1776.597557L737.779150,1776.148783L755.317570,1770.333423L775.696008,1792.416833L796.200871,1781.758455L798.112145,1772.764281L837.591024,1755.841770L837.770726,1755.916565L837.884216,1756.197049L836.713739,1764.779847L836.072433,1769.697660L832.739777,1781.945445L869.562742,1787.648612L885.762688,1787.573816L887.922146,1782.095036L890.834511,1774.783763L917.486878,1748.717486L933.698150,1714.573283L942.383141,1710.197739L966.635956,1721.491878L971.306497,1723.735747L974.073694,1725.100767L983.718808,1657.840807L982.799491,1657.784710L979.994901,1657.896903L972.999755,1657.597721L968.896404,1657.335936L956.363592,1656.831066L951.579842,1656.905861L934.639292,1657.392033L919.034346,1657.934301L906.475550,1658.644859L903.417425,1658.644859L897.915818,1658.607462L883.949293,1658.925343L881.577002,1659.037536L878.689245,1659.168429L860.103113,1659.729396L855.438121,1659.860288L832.840340,1660.570847L811.484741,1661.225308L804.257967,1661.356201L791.973065,1661.767576L789.501596,1661.898469L772.849227,1662.384640L769.948565,1662.496834L759.427532,1662.796016L742.852105,1663.300887L727.022518,1663.749660L724.482505,1663.618768L714.968320,1663.543972L711.295551,1663.581370L707.440440,1663.656166L699.873856,1663.712262L700.088136,1665.600852L699.366676,1669.938997L696.982973,1680.036406L693.319695,1696.192259Z " data-cartodb-id="61" data-created-at="2013-10-29T02:55:27Z" data-name="Sailboat Bend" data-updated-at="2013-10-29T02:55:28Z"/><path d="M1471.807718,1534.633747L1445.256253,1697.332893L1457.084477,1697.164602L1471.538537,1696.996312L1486.335521,1696.884119L1502.613909,1696.528840L1517.758133,1696.061367L1521.505228,1696.154862L1526.673003,1696.659732L1531.323155,1697.388989L1535.120657,1697.949956L1539.954573,1698.922299L1539.543208,1694.845938L1541.775175,1689.797234L1545.865930,1683.776187L1555.116137,1663.955348L1560.373670,1653.708349L1565.509393,1643.423952L1570.543740,1634.616769L1577.906813,1624.033190L1584.901516,1612.776451L1588.097809,1602.024583L1591.409831,1591.347510L1596.064228,1582.708618L1597.629378,1579.361515L1598.052167,1576.818464L1597.711573,1575.303853L1596.933868,1574.107124L1596.025584,1571.769761L1558.908518,1563.317858L1526.367451,1554.211494L1523.248469,1552.266809L1519.242532,1549.686360L1515.473657,1547.124611L1509.185809,1533.810995L1502.729528,1534.315865L1491.485071,1534.633747L1471.807718,1534.633747Z " data-cartodb-id="62" data-created-at="2013-10-29T02:55:27Z" data-name="Seven Isles" data-updated-at="2013-10-29T02:55:28Z"/><path d="M550.477743,1946.682847L549.982889,1950.721812L530.832120,2075.574467L520.557382,2142.479194L527.348964,2135.037024L532.461863,2123.817673L534.554688,2122.303061L536.946518,2121.012836L541.120405,2117.572235L559.668985,2099.303393L566.089658,2094.385578L578.056374,2090.589697L587.828106,2095.096136L599.536495,2097.003426L613.277587,2094.479072L626.768363,2091.244160L655.623975,2089.785644L661.555280,2089.262074L657.474514,2075.649263L661.322021,2068.581073L662.638297,2066.150213L669.771672,2052.986176L673.880180,2040.682290L681.537128,2022.245159L686.093230,2006.668963L686.460725,2005.902308L694.431498,1989.241575L700.416447,1979.910817L703.945160,1974.282443L705.828887,1971.328015L708.501490,1963.624063L716.856472,1952.460811L719.148734,1945.504816L720.024122,1938.885400L718.073800,1938.866701L713.481548,1938.848003L681.223475,1939.296776L667.730637,1939.652056L659.514487,1939.857744L651.119582,1940.175625L647.017959,1940.287819L644.365044,1940.643098L642.269431,1941.017076L640.578147,1940.306518L633.935465,1941.353657L624.183914,1943.765817L621.106814,1944.457676L616.150131,1945.186934L615.010193,1945.205633L610.375409,1945.635708L606.071843,1945.710504L599.423394,1945.635708L592.720471,1946.177976L587.334801,1946.308869L582.393873,1946.364966L578.112051,1946.308869L569.370133,1946.402363L567.221936,1946.514557L565.720420,1946.589353L563.583690,1946.439761L561.892660,1946.402363L559.442388,1946.308869L554.764819,1946.514557L554.252444,1946.514557L550.477743,1946.682847Z " data-cartodb-id="63" data-created-at="2013-10-29T02:55:27Z" data-name="Shady Banks" data-updated-at="2013-10-29T02:55:28Z"/><path d="M935.460452,1079.016634L933.896636,1088.590459L932.458011,1099.622797L931.826658,1105.812126L931.346154,1109.271418L928.882951,1125.876023L927.096029,1139.096131L924.311592,1158.879546L919.849507,1191.808277L917.831353,1206.131622L916.361171,1217.070469L915.137803,1224.606119L913.432269,1237.919725L912.396152,1246.446417L910.886220,1257.721845L908.091475,1276.327238L906.639150,1287.546570L906.304130,1289.846533L905.808055,1293.305827L903.101808,1312.247801L901.461192,1323.541930L900.558565,1331.750743L898.373678,1346.410673L897.094471,1356.208891L896.125775,1362.603912L894.423291,1375.618341L893.908308,1381.115815L893.712647,1384.406820L893.225706,1389.062844L941.195515,1385.491356L941.091474,1387.174256L940.946509,1388.333587L956.522552,1387.866115L972.729231,1387.361245L988.573890,1386.818977L1003.803921,1386.314107L1019.043735,1385.846635L1034.136340,1385.397861L1049.394827,1384.818196L1079.832637,1383.845853L1095.062657,1383.340983L1102.756163,1383.097897L1110.772992,1382.836113L1110.699212,1384.145035L1124.305360,1283.283224L1128.924539,1250.354484L1133.423488,1217.575339L1137.850733,1184.366122L1140.822758,1165.181069L1142.161310,1154.840588L1144.703949,1136.889663L1146.743231,1122.921600L1147.633203,1119.406210L1148.575723,1115.479446L1145.152166,1116.040412L1142.260159,1115.909520L1139.613138,1116.133907L1137.601146,1116.582680L1135.338692,1117.573720L1133.359046,1118.789147L1130.452440,1121.051712L1127.904062,1121.837065L1125.153354,1122.491525L1123.239246,1122.641116L1122.095442,1122.491525L1121.868617,1122.603719L1119.766899,1122.341934L1116.139065,1120.958217L1111.970545,1118.976136L1108.142435,1118.602159L1103.667376,1120.285058L1098.800229,1120.958217L1093.619432,1119.574500L1078.473456,1111.795767L1066.416838,1115.741230L1064.322964,1116.489185L1063.517520,1116.807066L1062.426154,1116.919259L1061.129344,1116.919259L1051.080030,1113.815246L1043.780197,1106.990155L1039.961730,1102.427629L1034.263457,1097.809006L1031.785895,1093.078190L1028.441339,1085.000275L1026.519553,1083.466967L1025.568864,1082.831205L1024.072428,1082.588119L1022.188506,1083.036893L1019.905190,1083.672654L1014.249683,1081.391391L1013.797009,1081.129607L1008.679165,1076.679274L1007.767704,1073.406971L1007.298871,1071.705373L1005.543005,1067.928200L1002.876147,1065.198164L999.307641,1063.459169L992.668780,1063.907942L990.406145,1063.459169L985.481232,1055.643039L978.815102,1040.889626L967.407548,1043.245685L960.359189,1039.524608L957.576645,1037.392937L952.890788,1034.962083L949.506278,1032.119854L946.165260,1029.689001L944.592406,1027.407738L943.907810,1031.801973L942.632760,1039.449813L940.884188,1050.706536L937.470350,1067.535524L935.460452,1079.016634Z " data-cartodb-id="64" data-created-at="2013-10-29T02:55:27Z" data-name="South Middle River" data-updated-at="2013-10-29T02:55:28Z"/><path d="M1458.023991,1416.138841L1457.782369,1419.130664L1458.998631,1422.309476L1463.023458,1433.435318L1466.311930,1441.288854L1475.127429,1450.470011L1482.151814,1454.826854L1500.826277,1462.586896L1504.485232,1463.016970L1508.404386,1463.615335L1513.345117,1464.232398L1517.913775,1466.027492L1531.980840,1473.862330L1534.239131,1475.975305L1535.070632,1477.714302L1537.643603,1481.304491L1539.293484,1486.016613L1540.079262,1490.822229L1540.383008,1495.927028L1540.018114,1499.853796L1539.434497,1504.229338L1538.590687,1508.436590L1537.857828,1513.709679L1538.347824,1520.198197L1539.413648,1525.920060L1541.003552,1530.127312L1542.944318,1534.054081L1544.829645,1536.484938L1549.549741,1536.503637L1552.927107,1536.316648L1556.580420,1534.951628L1559.273681,1534.353263L1561.864849,1532.539470L1564.665414,1530.333000L1566.481052,1529.042776L1568.040115,1525.733071L1570.595829,1519.992509L1572.417712,1514.139754L1578.242544,1473.918427L1579.229015,1471.356678L1589.551443,1450.881387L1591.447712,1447.085511L1593.305556,1441.980713L1594.997547,1437.006807L1595.642454,1433.996285L1608.829360,1401.310619L1467.204990,1385.884032L1463.736956,1396.430208L1459.676869,1409.669024L1458.023991,1416.138841Z " data-cartodb-id="65" data-created-at="2013-10-29T02:55:27Z" data-name="Sunrise Intracoastal" data-updated-at="2013-10-29T02:55:28Z"/><path d="M1398.425798,1518.870575L1398.551006,1520.235595L1399.000347,1521.095744L1400.086091,1521.787603L1401.511056,1521.787603L1431.847681,1522.292474L1513.656007,1520.216896L1517.526006,1519.281951L1524.462253,1509.633320L1523.134210,1496.824575L1522.328726,1491.271003L1518.601688,1488.073491L1514.879501,1484.558099L1505.224830,1480.612631L1495.136468,1478.985827L1485.086768,1480.014267L1475.203751,1480.425642L1466.037038,1482.594714L1452.911593,1487.194643L1446.944170,1488.129588L1400.506191,1510.212986L1398.425798,1518.870575Z " data-cartodb-id="66" data-created-at="2013-10-29T02:55:27Z" data-name="Sunrise Key" data-updated-at="2013-10-29T02:55:28Z"/><path d="M32.096617,1989.858639L31.368816,1995.973184L29.765837,2008.800639L28.028900,2021.085826L26.804640,2029.032865L24.400273,2047.264308L22.276390,2063.326677L21.856360,2066.337203L18.604080,2089.579956L18.027158,2093.824610L15.292000,2113.570667L14.995324,2115.646246L14.639648,2118.077106L13.199321,2128.099726L12.394075,2132.755756L8.871934,2156.858662L8.421307,2162.561832L7.516424,2170.808055L4.917800,2186.459050L3.467493,2195.097951L2.609359,2201.231196L0.411367,2216.882192L1.686837,2220.098406L5.474080,2229.597458L21.145053,2229.242178L26.855880,2228.793404L27.798636,2228.419426L28.821454,2228.045447L30.193096,2227.017007L32.918400,2224.586147L35.111483,2226.904813L37.393751,2227.914555L39.144658,2228.363329L53.620913,2227.970651L69.870442,2227.409684L77.468598,2227.166598L84.585692,2225.577190L110.567239,2224.361760L132.169161,2225.221910L136.045065,2197.435316L139.051929,2174.211258L141.292453,2156.858662L143.161889,2142.610086L144.910858,2129.184263L146.819099,2115.571451L148.533190,2102.164327L150.444791,2088.532817L150.378806,2088.158838L152.187289,2074.377737L154.167753,2061.008011L154.804832,2054.762573L184.352748,2052.799187L188.651656,2021.328912L195.438545,2021.534600L236.617202,2019.533817L278.403371,2018.598871L278.790197,2015.981023L280.898355,2001.844643L281.181034,2000.143042L283.147418,1988.306629L286.178548,1968.616673L207.565238,1985.165211L180.211586,1985.969265L43.270954,1989.484661L33.883249,1989.802542L32.096617,1989.858639Z " data-cartodb-id="67" data-created-at="2013-10-29T02:55:27Z" data-name="Sunset" data-updated-at="2013-10-29T02:55:28Z"/><path d="M716.850116,1915.100384L717.517834,1927.273376L720.024122,1938.885400L721.794728,1938.829304L807.394628,1936.604133L813.179135,1936.192757L818.125303,1935.912273L845.859915,1935.126919L852.727967,1934.939930L863.387685,1934.771640L878.827722,1934.453758L895.472707,1934.304167L904.815875,1934.061081L911.368246,1934.135877L928.315313,1934.191973L941.129912,1933.967586L944.904115,1933.705802L947.649981,1933.369221L951.641170,1932.957845L961.970365,1932.658662L977.890745,1932.340781L979.339284,1921.401917L979.966581,1916.371910L980.389874,1912.763020L982.435660,1899.000620L982.516416,1898.514449L983.723673,1889.800756L984.973988,1880.731784L985.328102,1878.600108L986.036086,1873.663596L987.133062,1863.397894L989.251718,1846.886756L991.630331,1830.450414L992.242394,1826.766729L996.228476,1797.671226L999.926872,1769.828552L1000.725551,1765.022933L1003.773013,1741.967181L1004.052265,1740.190785L1004.519701,1736.993272L997.328192,1734.599812L974.073694,1725.100767L971.306497,1723.735747L966.635956,1721.491878L942.383141,1710.197739L933.698150,1714.573283L917.486878,1748.717486L890.834511,1774.783763L887.922146,1782.095036L885.762688,1787.573816L869.562742,1787.648612L832.739777,1781.945445L825.817687,1796.137916L829.469597,1807.787336L829.394541,1808.142615L829.149102,1808.367002L800.167956,1812.705149L791.427678,1821.942410L784.532390,1830.001640L734.706488,1882.601675L733.224804,1885.930081L737.528095,1891.446260L738.917285,1893.203958L722.757095,1905.470444L720.061664,1907.527324L716.850116,1915.100384Z " data-cartodb-id="68" data-created-at="2013-10-29T02:55:27Z" data-name="Tarpon River" data-updated-at="2013-10-29T02:55:28Z"/><path d="M1148.347870,1415.073004L1147.710414,1419.672932L1146.132297,1429.732937L1143.981934,1445.926180L1143.611657,1448.151348L1143.325394,1449.871647L1139.731768,1476.087499L1138.990473,1481.024007L1138.316804,1486.035311L1136.317560,1503.537479L1134.690709,1513.990163L1133.337207,1522.703849L1130.649330,1542.038511L1129.313631,1549.779855L1124.717567,1583.381778L1121.961824,1601.781497L1119.483187,1619.190174L1117.107044,1636.561455L1114.735618,1654.194520L1179.901134,1651.688867L1196.220801,1651.277492L1210.939356,1650.866116L1212.789959,1650.810019L1228.844119,1650.454740L1232.897569,1650.342546L1245.285652,1650.080762L1254.949206,1649.931170L1272.931848,1649.725483L1276.995092,1649.650687L1299.056519,1649.276709L1297.586209,1658.121290L1296.558160,1665.750443L1294.259749,1682.467263L1293.057781,1691.143555L1292.187551,1696.379248L1300.261997,1696.061367L1316.112336,1696.547539L1315.517645,1694.827239L1318.963103,1682.093285L1335.549211,1641.647556L1350.622798,1641.797148L1362.441214,1570.329946L1367.053982,1553.856215L1370.323083,1547.966062L1382.701201,1520.422584L1386.667859,1517.655147L1388.623369,1517.449459L1394.956198,1510.082093L1396.979321,1509.951201L1400.506191,1510.212986L1446.944170,1488.129588L1446.528955,1486.390590L1447.045272,1483.286574L1435.765802,1471.880247L1450.115580,1397.178164L1451.502140,1390.577454L1459.306480,1368.886740L1465.061193,1366.343690L1456.729548,1367.054248L1451.749016,1368.120085L1447.678874,1369.391610L1444.115747,1370.887521L1443.016389,1371.336294L1436.896496,1373.187485L1434.985922,1373.411871L1427.640200,1373.393173L1422.627459,1371.766369L1420.113806,1371.766369L1409.262638,1371.261499L1406.291851,1372.084250L1396.824307,1372.308637L1391.374954,1372.439529L1376.267282,1373.075291L1360.989265,1373.580161L1355.028025,1373.804548L1346.134195,1374.141128L1344.821781,1374.234623L1333.001135,1374.552504L1330.324264,1374.571203L1315.284638,1375.375255L1299.810026,1375.618341L1283.706126,1376.179307L1269.077407,1376.534586L1253.331510,1376.964661L1249.518339,1377.076854L1238.354118,1377.394735L1232.039741,1377.432133L1231.607457,1377.432133L1227.573699,1377.619122L1223.293110,1377.750014L1212.769308,1378.067896L1207.909226,1378.217487L1192.717019,1378.591464L1189.641229,1378.890647L1183.085404,1379.993881L1180.098134,1380.723138L1177.665009,1381.489793L1176.108005,1381.994663L1171.441482,1384.444218L1168.669951,1386.089720L1166.940423,1387.342546L1165.727662,1388.183996L1164.818204,1388.838457L1163.334611,1389.960391L1162.291742,1390.839239L1161.136800,1391.718087L1160.210017,1392.765225L1159.225417,1393.774965L1158.531221,1394.579017L1156.659435,1396.878981L1154.875277,1399.422031L1152.913245,1402.264262L1151.761495,1404.470732L1150.354967,1407.630845L1148.984113,1412.212074L1148.347870,1415.073004Z " data-cartodb-id="69" data-created-at="2013-10-29T02:55:27Z" data-name="Victoria Park" data-updated-at="2013-10-29T02:55:28Z"/></g><g fill="#000" font-family="Arial" font-size="12px" id="mylayer-label" stroke="none"><text text-anchor="middle" y="1087.85450817"><tspan dy="0" x="1534.51312262"><![CDATA[Bal Harbour]]></tspan></text><text text-anchor="middle" y="104.821609282"><tspan dy="0" x="1923.21689324"><![CDATA[Bay Colony]]></tspan></text><text text-anchor="middle" y="56.2947373865"><tspan dy="0" x="1913.40932812"><![CDATA[Bay Colony Club]]></tspan></text><text text-anchor="middle" y="614.811391259"><tspan dy="0" x="1866.46333218"><![CDATA[Bermuda Riviera]]></tspan></text><text text-anchor="middle" y="1669.66435696"><tspan dy="0" x="1159.85471127"><![CDATA[Beverly Heights]]></tspan></text><text text-anchor="middle" y="1191.11566701"><tspan dy="0" x="1746.36289554"><![CDATA[Birch Park]]></tspan></text><text text-anchor="middle" y="96.0941896386"><tspan dy="0" x="1536.46827654"><![CDATA[Boulevard Park Isles]]></tspan></text><text text-anchor="middle" y="2146.0106366"><tspan dy="0" x="1463.03347654"><![CDATA[Breakwater Surf]]></tspan></text><text text-anchor="middle" y="1431.97384983"><tspan dy="0" x="1675.00007328"><![CDATA[Central Beach Alliance]]></tspan></text><text text-anchor="middle" y="1600.53028711"><tspan dy="0" x="966.522705604"><![CDATA[City View Townhome]]></tspan></text><text text-anchor="middle" y="1705.46933548"><tspan dy="0" x="1220.83596588"><![CDATA[Colee Hammock]]></tspan></text><text text-anchor="middle" y="1084.84527606"><tspan dy="0" x="1625.56346166"><![CDATA[Coral Ridge]]></tspan></text><text text-anchor="middle" y="601.072894366"><tspan dy="0" x="1709.37796342"><![CDATA[Coral Ridge Country Club]]></tspan></text><text text-anchor="middle" y="261.060582524"><tspan dy="0" x="1509.30061377"><![CDATA[Coral Ridge Isles]]></tspan></text><text text-anchor="middle" y="857.345422183"><tspan dy="0" x="1529.18454353"><![CDATA[Coral Shores]]></tspan></text><text text-anchor="middle" y="2073.50053113"><tspan dy="0" x="868.956240981"><![CDATA[Croissant Park]]></tspan></text><text text-anchor="middle" y="1296.80072768"><tspan dy="0" x="595.327790549"><![CDATA[Dillard Park]]></tspan></text><text text-anchor="middle" y="999.998043093"><tspan dy="0" x="1758.04094746"><![CDATA[Dolphin Isles]]></tspan></text><text text-anchor="middle" y="1588.32137404"><tspan dy="0" x="737.212517563"><![CDATA[Dorsey-Riverbend]]></tspan></text><text text-anchor="middle" y="1729.45071342"><tspan dy="0" x="1046.03110974"><![CDATA[Downtown]]></tspan></text><text text-anchor="middle" y="1451.52111586"><tspan dy="0" x="723.962376575"><![CDATA[Durrs Homeowners]]></tspan></text><text text-anchor="middle" y="2318.71121237"><tspan dy="0" x="734.568277559"><![CDATA[Edgewood]]></tspan></text><text text-anchor="middle" y="1538.98357746"><tspan dy="0" x="1073.65656259"><![CDATA[Flagler Heights]]></tspan></text><text text-anchor="middle" y="2004.93295485"><tspan dy="0" x="478.115554393"><![CDATA[Flamingo Park]]></tspan></text><text text-anchor="middle" y="703.361139325"><tspan dy="0" x="1880.07580667"><![CDATA[Galt Mile]]></tspan></text><text text-anchor="middle" y="1969.34050325"><tspan dy="0" x="1443.95446902"><![CDATA[Harbor Beach]]></tspan></text><text text-anchor="middle" y="1891.75147404"><tspan dy="0" x="1546.1139164"><![CDATA[Harbor Drive]]></tspan></text><text text-anchor="middle" y="2042.21648983"><tspan dy="0" x="1154.48621357"><![CDATA[Harbordale]]></tspan></text><text text-anchor="middle" y="2101.62127973"><tspan dy="0" x="1421.72385878"><![CDATA[Harbour Inlet]]></tspan></text><text text-anchor="middle" y="2098.8893241"><tspan dy="0" x="1526.15163503"><![CDATA[Harbour Isles]]></tspan></text><text text-anchor="middle" y="1607.470768"><tspan dy="0" x="1378.36559327"><![CDATA[Hendricks And Venice Isles]]></tspan></text><text text-anchor="middle" y="1468.09382385"><tspan dy="0" x="844.982599958"><![CDATA[Home Beautiful Park]]></tspan></text><text text-anchor="middle" y="1778.93685761"><tspan dy="0" x="1515.85502605"><![CDATA[Idlewyld]]></tspan></text><text text-anchor="middle" y="127.127777852"><tspan dy="0" x="1712.05709906"><![CDATA[Imperial Point]]></tspan></text><text text-anchor="middle" y="325.516626098"><tspan dy="0" x="1645.14751665"><![CDATA[Knoll Ridge]]></tspan></text><text text-anchor="middle" y="1147.08047982"><tspan dy="0" x="550.215330012"><![CDATA[Lake Aire Palm View]]></tspan></text><text text-anchor="middle" y="218.046416908"><tspan dy="0" x="1829.18553396"><![CDATA[Lake Estates]]></tspan></text><text text-anchor="middle" y="1322.60904681"><tspan dy="0" x="1315.4115642"><![CDATA[Lake Ridge]]></tspan></text><text text-anchor="middle" y="290.505782795"><tspan dy="0" x="1846.94385126"><![CDATA[Landings]]></tspan></text><text text-anchor="middle" y="1752.16108135"><tspan dy="0" x="1371.81163451"><![CDATA[Las Olas Isles]]></tspan></text><text text-anchor="middle" y="885.289667996"><tspan dy="0" x="1844.6897243"><![CDATA[Lauderdale Beach]]></tspan></text><text text-anchor="middle" y="1959.82704094"><tspan dy="0" x="1223.87019355"><![CDATA[Lauderdale Harbours]]></tspan></text><text text-anchor="middle" y="1169.31406824"><tspan dy="0" x="804.353520455"><![CDATA[Lauderdale Manors]]></tspan></text><text text-anchor="middle" y="1961.41448464"><tspan dy="0" x="158.408078186"><![CDATA[Lauderdale West]]></tspan></text><text text-anchor="middle" y="1265.31698662"><tspan dy="0" x="1474.96218641"><![CDATA[Laudergate Isles]]></tspan></text><text text-anchor="middle" y="1810.28974021"><tspan dy="0" x="372.865454405"><![CDATA[Melrose Manors]]></tspan></text><text text-anchor="middle" y="1211.67706731"><tspan dy="0" x="1204.71533853"><![CDATA[Middle River Terrace]]></tspan></text><text text-anchor="middle" y="1672.44475732"><tspan dy="0" x="1334.45703416"><![CDATA[Navarrea Isle]]></tspan></text><text text-anchor="middle" y="339.251949656"><tspan dy="0" x="1737.84649748"><![CDATA[North Golf Estates]]></tspan></text><text text-anchor="middle" y="1610.25907764"><tspan dy="0" x="1429.11254542"><![CDATA[Nurmi Isles]]></tspan></text><text text-anchor="middle" y="53.5705557215"><tspan dy="0" x="697.382968002"><![CDATA[Palm-Aire Village]]></tspan></text><text text-anchor="middle" y="2133.79500742"><tspan dy="0" x="996.45907619"><![CDATA[Poinciana Park]]></tspan></text><text text-anchor="middle" y="1156.84479892"><tspan dy="0" x="1392.66668741"><![CDATA[Poinsettia Heights]]></tspan></text><text text-anchor="middle" y="1444.94059051"><tspan dy="0" x="1001.39159297"><![CDATA[Progresso Village]]></tspan></text><text text-anchor="middle" y="1839.39238635"><tspan dy="0" x="1205.14695246"><![CDATA[Rio Vista]]></tspan></text><text text-anchor="middle" y="1593.05259252"><tspan dy="0" x="569.485677274"><![CDATA[River Garden Sweeting Estate]]></tspan></text><text text-anchor="middle" y="2121.27745965"><tspan dy="0" x="669.983487643"><![CDATA[River Oaks]]></tspan></text><text text-anchor="middle" y="2028.30057737"><tspan dy="0" x="369.699984362"><![CDATA[River Run]]></tspan></text><text text-anchor="middle" y="1809.3443223"><tspan dy="0" x="659.828077736"><![CDATA[Riverside Park]]></tspan></text><text text-anchor="middle" y="1791.50922233"><tspan dy="0" x="1470.71126938"><![CDATA[Riviera Isles]]></tspan></text><text text-anchor="middle" y="1707.42935843"><tspan dy="0" x="831.296095625"><![CDATA[Sailboat Bend]]></tspan></text><text text-anchor="middle" y="1613.61095688"><tspan dy="0" x="1513.4155065"><![CDATA[Seven Isles]]></tspan></text><text text-anchor="middle" y="2011.63801625"><tspan dy="0" x="611.286597071"><![CDATA[Shady Banks]]></tspan></text><text text-anchor="middle" y="1229.96445671"><tspan dy="0" x="1015.76779381"><![CDATA[South Middle River]]></tspan></text><text text-anchor="middle" y="1435.411203"><tspan dy="0" x="1535.33115585"><![CDATA[Sunrise Intracoastal]]></tspan></text><text text-anchor="middle" y="1497.83556682"><tspan dy="0" x="1469.0441007"><![CDATA[Sunrise Key]]></tspan></text><text text-anchor="middle" y="2085.97312026"><tspan dy="0" x="102.656257317"><![CDATA[Sunset]]></tspan></text><text text-anchor="middle" y="1844.29795619"><tspan dy="0" x="883.074122884"><![CDATA[Tarpon River]]></tspan></text><text text-anchor="middle" y="1502.03244175"><tspan dy="0" x="1272.73459574"><![CDATA[Victoria Park]]></tspan></text></g></svg>