<?xml version="1.0" encoding="utf-8"?><!DOCTYPE svg  PUBLIC '-//W3C//DTD SVG 1.1//EN'  'http://www.w3.org/Graphics/SVG/1.1/DTD/svg11.dtd'><svg enable_background="new 0 0 2000 1970" height="1970px" pretty_print="False" style="stroke-linejoin: round; stroke:#000; fill: none;" version="1.1" viewBox="0 0 2000 1970" width="2000px" xmlns="http://www.w3.org/2000/svg" xmlns:xlink="http://www.w3.org/1999/xlink"><defs><style type="text/css"><![CDATA[path { fill-rule: evenodd; }]]></style></defs><metadata><views><view h="1970.0342239" padding="0" w="2000"><proj flip="auto" id="robinson" lon0="-122.261807826"/><bbox h="1.32" w="1.34" x="-1687.92" y="-634.63"/></view></views></metadata><g class="" id="mylayer"><path d="M1151.340712,660.545079L1117.756668,728.725056L1231.058879,811.672636L1277.224997,860.224829L1342.310017,807.599059L1402.006328,748.838067L1282.618694,664.134816L1220.203634,662.683645L1151.340712,660.545079Z " data-admincode1="CA" data-admincode2="001" data-admincode3="" data-admincode4="" data-cartodb-id="1" data-countrycod="US" data-created-at="2014-02-09T00:00:00Z" data-fclass="P" data-fcode="PPLX" data-geonameid="" data-lat="37.768034616" data-lng="-122.263627088" data-name="Gold Coast" data-parents="5322737" data-updated-at="2014-02-09T00:00:00Z"/><path d="M216.234534,0.000000L164.919999,31.056188L169.579691,63.894498L153.717043,106.991922L0.507863,383.277283L10.598599,404.076302L134.502559,407.462196L164.356126,447.176618L268.713656,447.176618L286.534291,524.977047L596.608694,547.405989L579.904250,564.590546L545.146562,587.121497L548.081372,638.879412L594.731177,655.300502L612.694185,666.578894L629.203661,670.856033L658.160058,681.243386L711.062416,708.917636L848.399718,381.546157L895.351097,281.421875L900.147545,157.115733L834.373756,177.786540L622.358933,138.074226L216.234534,0.000000Z " data-admincode1="CA" data-admincode2="001" data-admincode3="" data-admincode4="" data-cartodb-id="3" data-countrycod="US" data-created-at="2014-02-09T00:00:00Z" data-fclass="P" data-fcode="PPLX" data-geonameid="8394421" data-lat="37.7844944734" data-lng="-122.310668954" data-name="Alameda Poimt" data-parents="5322737" data-updated-at="2014-02-09T00:00:00Z"/><path d="M1080.408582,709.401364L1074.879890,721.647332L1082.100875,764.164743L1078.319615,778.931351L1026.336997,890.446062L1043.667213,901.903188L1101.187889,935.027156L1252.411816,1030.199269L1468.011579,1147.830119L1531.523180,1178.893252L1597.009747,1204.940594L1601.697985,1205.602600L1608.531252,1201.325022L1562.649729,1124.405583L1533.285159,1089.549049L1499.113434,1059.734039L1450.109751,1005.247611L1429.169250,925.199424L1411.622577,884.310144L1399.764017,890.726124L1386.787053,903.456267L1369.167675,927.159877L1349.303826,910.356018L1370.752023,889.173049L1380.667328,876.926685L1383.160552,871.401827L1380.981166,865.775135L1366.823601,847.698472L1358.778148,839.729485L1347.008908,835.172146L1317.812116,828.094276L1274.620901,862.159797L1245.682108,828.578015L1204.858796,794.487255L1115.666211,731.347381L1102.107755,725.415328L1094.029507,718.617661L1080.408582,709.401364Z " data-admincode1="CA" data-admincode2="001" data-admincode3="" data-admincode4="" data-cartodb-id="2" data-countrycod="US" data-created-at="2014-02-09T00:00:00Z" data-fclass="P" data-fcode="PPLX" data-geonameid="5397785" data-lat="37.7598629158" data-lng="-122.257457999" data-name="South Shore" data-parents="5322737" data-updated-at="2014-02-09T00:00:00Z"/><path d="M1082.712178,311.614242L1061.241556,309.475823L1037.478229,315.101905L944.990238,314.236354L907.582609,313.854493L881.169350,313.854493L842.955698,396.286207L827.356004,436.789739L1007.123439,442.899665L1026.098930,407.462196L1055.483435,347.254705L1072.184283,330.172709L1082.712178,311.614242Z " data-admincode1="CA" data-admincode2="001" data-admincode3="" data-admincode4="" data-cartodb-id="4" data-countrycod="US" data-created-at="2014-02-09T00:00:00Z" data-fclass="P" data-fcode="PPLX" data-geonameid="" data-lat="37.7824686255" data-lng="-122.286625743" data-name="Bayport" data-parents="5322737" data-updated-at="2014-02-09T00:00:00Z"/><path d="M899.242185,258.586789L895.313259,265.867529L979.049203,262.481729L1054.036108,282.287421L1076.454815,245.578218L1083.150462,236.642800L1083.200439,225.772670L1079.384660,220.630368L1072.537086,221.877757L1071.245181,213.247864L1065.522696,205.076209L1056.478472,198.966569L1014.678728,199.552076L994.514549,215.768097L951.966417,257.033905L927.502657,256.550219L899.242185,258.586789Z " data-admincode1="CA" data-admincode2="001" data-admincode3="" data-admincode4="" data-cartodb-id="5" data-countrycod="US" data-created-at="2014-02-09T00:00:00Z" data-fclass="P" data-fcode="PPLX" data-geonameid="" data-lat="37.7877881688" data-lng="-122.286136151" data-name="North Housing" data-parents="5322737" data-updated-at="2014-02-09T00:00:00Z"/><path d="M1264.676902,1968.034224L1506.622679,1778.600232L1465.066052,1763.066889L1434.814268,1732.458695L1410.137051,1716.925486L1387.729855,1700.883038L1350.220194,1660.089601L1290.836837,1712.851209L1263.713157,1694.287823L1233.028203,1679.238542L1206.217051,1658.154340L1173.600715,1604.909461L1251.989516,1520.599790L1311.222285,1539.926474L1379.163392,1563.938512L1438.685283,1499.541679L1548.137630,1323.339229L1600.231158,1250.670160L1561.988801,1249.702604L1264.961701,1245.323141L1022.793557,1366.370789L981.730152,1473.492884L1048.498938,1590.165995L1134.361032,1793.853509L1264.676902,1968.034224Z " data-admincode1="CA" data-admincode2="001" data-admincode3="" data-admincode4="" data-cartodb-id="6" data-countrycod="US" data-created-at="2014-02-09T00:00:00Z" data-fclass="P" data-fcode="PPLX" data-geonameid="" data-lat="37.7368359022" data-lng="-122.245801564" data-name="Harbor Bay" data-parents="5322737" data-updated-at="2014-02-09T00:00:00Z"/><path d="M1432.567996,934.517947L1435.668051,961.989866L1451.752774,1005.807749L1501.824985,1062.356531L1643.020072,933.448607L1814.804722,778.829513L1725.522092,777.098253L1848.663206,664.822213L1812.497955,633.838530L1778.777980,598.399739L1706.125069,665.407773L1432.567996,934.517947Z " data-admincode1="CA" data-admincode2="001" data-admincode3="" data-admincode4="" data-cartodb-id="7" data-countrycod="US" data-created-at="2014-02-09T00:00:00Z" data-fclass="P" data-fcode="PPLX" data-geonameid="" data-lat="37.764346855" data-lng="-122.243379725" data-name="Park Street" data-parents="5322737" data-updated-at="2014-02-09T00:00:00Z"/><path d="M1759.384230,937.547744L1767.607141,932.201045L1775.065144,924.028244L1818.577708,904.220077L1828.122136,898.593349L1848.542089,877.996013L1864.864461,908.497413L1880.749014,930.928022L1974.730000,860.912252L1930.799567,803.601865L1917.815988,795.251048L1910.026332,784.659788L1906.655148,781.171806L1896.250184,772.540969L1888.765625,779.720602L1736.851352,913.640404L1759.384230,937.547744Z " data-admincode1="CA" data-admincode2="001" data-admincode3="" data-admincode4="" data-cartodb-id="8" data-countrycod="US" data-created-at="2014-02-09T00:00:00Z" data-fclass="P" data-fcode="PPLX" data-geonameid="5348024" data-lat="37.7634021192" data-lng="-122.231339913" data-name="Fernside" data-parents="5322737" data-updated-at="2014-02-09T00:00:00Z"/><path d="M1849.544440,664.924049L1728.189942,775.341534L1777.652430,777.098253L1815.568714,779.236868L1826.068720,770.580575L1835.822025,758.054435L1849.253198,750.391100L1881.244091,720.094307L1897.221424,700.261461L1849.544440,664.924049Z " data-admincode1="CA" data-admincode2="001" data-admincode3="" data-admincode4="" data-cartodb-id="14" data-countrycod="US" data-created-at="2014-02-09T00:00:00Z" data-fclass="P" data-fcode="PPLX" data-geonameid="" data-lat="37.7685679825" data-lng="-122.236540268" data-name="Wedgwood or Triangle" data-parents="5322737" data-updated-at="2014-02-09T00:00:00Z"/><path d="M823.996038,654.434893L811.854687,685.520537L797.899933,681.243386L759.637750,707.160940L739.217358,726.968354L750.683967,728.725056L745.401357,742.524101L718.889225,775.825268L705.273284,802.150655L715.477001,818.572265L756.606180,839.245745L808.809967,854.878210L820.211736,847.011051L827.176359,831.582290L826.338818,823.715167L756.127053,803.016289L753.985146,790.006335L758.919218,767.576335L778.083415,749.500016L790.815830,747.768766L800.753737,752.911598L801.119716,762.917222L802.653858,770.198680L816.950028,767.194441L828.617867,758.054435L835.238734,743.389725L835.986759,727.859435L826.464976,715.817127L841.560249,701.916317L857.024555,679.486700L866.050275,655.300502L823.996038,654.434893Z " data-admincode1="CA" data-admincode2="001" data-admincode3="" data-admincode4="" data-cartodb-id="9" data-countrycod="US" data-created-at="2014-02-09T00:00:00Z" data-fclass="P" data-fcode="PPLX" data-geonameid="" data-lat="37.7675767486" data-lng="-122.286275607" data-name="Ballena Bay" data-parents="5322737" data-updated-at="2014-02-09T00:00:00Z"/><path d="M825.268768,437.578938L766.027599,579.356582L763.622280,588.012554L773.876010,606.368354L797.493108,628.212096L792.747565,633.838530L777.007339,661.028802L757.165255,661.028802L751.589509,667.444505L779.259000,674.522155L794.943592,641.705363L802.283955,633.252973L828.443758,654.714943L931.121796,657.439067L897.213199,733.587815L923.298770,733.587815L956.136832,739.214364L1037.501387,718.821337L1054.325718,757.774380L1070.401793,722.894844L1081.420080,707.160940L1094.548122,719.203228L1106.516595,726.968354L1115.861035,728.725056L1123.193244,716.682747L1133.716515,695.016844L1152.537710,658.304676L1233.465936,661.512525L1281.274559,661.818035L1298.506947,665.407773L1359.721312,535.084061L1390.191732,478.744712L1394.126956,451.555406L1382.453452,424.849947L1318.453359,419.707443L1285.455937,407.462196L1266.184479,413.088387L1193.826427,440.863023L1106.642898,448.729560L1018.888119,442.899665L861.656675,437.757144L825.268768,437.578938Z " data-admincode1="CA" data-admincode2="001" data-admincode3="" data-admincode4="" data-cartodb-id="10" data-countrycod="US" data-created-at="2014-02-09T00:00:00Z" data-fclass="P" data-fcode="PPLX" data-geonameid="5407956" data-lat="37.7751869744" data-lng="-122.276555974" data-name="West End" data-parents="5322737" data-updated-at="2014-02-09T00:00:00Z"/><path d="M1546.967586,557.996761L1586.641653,587.223332L1683.926207,651.914444L1703.948812,667.444505L1780.739994,595.879317L1746.893010,559.447902L1711.806765,550.817437L1706.437748,541.397772L1674.326384,563.826787L1652.885281,550.028222L1655.051356,541.397772L1650.172050,530.985244L1632.826319,516.423015L1623.705947,497.380162L1627.827726,490.990130L1627.603333,482.818029L1616.563889,481.850616L1605.022949,470.496256L1596.844621,469.808885L1557.040606,474.365900L1544.734825,486.331267L1521.750148,509.625625L1496.989784,496.336372L1485.662239,485.923935L1521.968527,452.522814L1559.387168,413.877582L1540.768278,392.696657L1511.101349,378.414857L1457.928335,473.882194L1446.614281,491.270171L1432.934940,488.164262L1434.728903,478.261006L1448.692822,453.592054L1456.956113,436.025999L1453.888101,436.204205L1437.844719,471.361834L1420.922055,473.703987L1404.307241,473.220281L1392.123336,474.467733L1383.533571,491.753878L1367.537742,518.459688L1421.867033,515.455595L1485.288663,547.024111L1518.268556,516.423015L1529.652945,513.113423L1535.154187,513.113423L1552.623437,522.838537L1570.199228,535.567772L1546.967586,557.996761Z " data-admincode1="CA" data-admincode2="001" data-admincode3="" data-admincode4="" data-cartodb-id="11" data-countrycod="US" data-created-at="2014-02-09T00:00:00Z" data-fclass="P" data-fcode="PPLX" data-geonameid="" data-lat="37.7762056978" data-lng="-122.252014424" data-name="Northern Waterfront" data-parents="5322737" data-updated-at="2014-02-09T00:00:00Z"/><path d="M1170.252507,440.277488L1199.857005,437.273442L1248.786965,416.983446L1274.955812,407.080328L1292.582830,406.189303L1305.941146,412.604687L1324.609960,418.256342L1352.372105,420.471181L1371.288129,421.744078L1383.784521,424.366246L1390.777611,432.512796L1394.837383,448.933225L1393.832349,472.736576L1438.627662,471.361834L1469.614662,399.697554L1477.301695,377.752956L1476.374988,374.239793L1470.180547,372.992366L1464.898900,374.239793L1459.685787,377.752956L1453.424765,379.891405L1410.266100,339.286494L1403.691343,337.148063L1400.703872,337.148063L1386.125894,350.080495L1380.050592,357.463198L1359.113189,361.714621L1345.522203,360.467197L1340.042301,356.954046L1338.565797,350.462359L1340.361096,340.559371L1348.164931,331.038264L1346.650954,320.753452L1344.485965,309.857683L1342.420768,304.715296L1345.454847,296.950810L1333.179090,287.913473L1333.744896,283.560283L1325.603114,281.014559L1328.740382,273.250110L1332.499712,268.896932L1321.382686,265.001986L1311.042775,274.115654L1303.839172,267.624073L1322.461321,245.196362L1308.777706,231.296831L1284.817442,222.768750L1269.148602,179.161203L1260.231122,162.741646L1197.300548,159.254088L1179.283920,184.303463L1164.318881,211.491339L1186.434247,206.730905L1197.136172,227.911054L1215.523104,239.061217L1210.093078,264.620129L1200.441749,283.152967L1192.119317,321.135313L1185.152702,389.412603L1170.252507,440.277488Z " data-admincode1="CA" data-admincode2="001" data-admincode3="" data-admincode4="" data-cartodb-id="12" data-countrycod="US" data-created-at="2014-02-09T00:00:00Z" data-fclass="P" data-fcode="PPLX" data-geonameid="" data-lat="37.7842260073" data-lng="-122.270871907" data-name="Marina Village" data-parents="5322737" data-updated-at="2014-02-09T00:00:00Z"/><path d="M900.347807,160.501463L897.716841,238.984846L896.448124,250.135032L897.254678,258.790445L938.669458,256.550219L952.360801,256.753876L987.989251,222.183241L1013.335015,200.519435L1016.114762,199.246594L1056.169431,198.966569L1066.860583,206.629077L1071.849428,215.284416L1072.846128,221.877757L1080.167567,220.630368L1082.826349,225.187160L1083.242494,236.439144L1076.163449,245.858245L1032.359034,315.305564L1080.569450,311.614242L1120.416340,312.479794L1153.184855,313.370802L1161.665721,273.351938L1167.802458,254.208166L1183.602125,230.049440L1192.912577,219.841203L1186.480264,206.629077L1164.627923,211.491339L1178.643652,184.990795L1197.763435,159.050435L1242.677414,161.876121L1247.554071,161.570641L1250.694436,158.770413L1247.456007,154.493703L1224.745471,143.521923L1227.543402,138.379705L1184.056949,130.208170L1045.551167,132.066493L1026.244231,174.782649L1012.426003,175.088130L1029.831926,133.797534L1026.067809,134.103012L1010.295668,171.778760L1007.686922,169.436746L1006.438182,169.920423L1003.592541,175.851831L976.881864,176.055484L992.925433,137.870574L990.012474,137.386901L973.526834,176.640989L963.919845,176.335508L964.030154,172.262437L961.390067,172.542461L961.015521,170.225903L965.793770,158.286737L965.166117,156.530231L949.609536,157.217559L946.932829,156.530231L927.603826,164.880004L916.800218,167.222016L906.990178,166.636513L903.469995,161.570641L900.347807,160.501463Z " data-admincode1="CA" data-admincode2="001" data-admincode3="" data-admincode4="" data-cartodb-id="13" data-countrycod="US" data-created-at="2014-02-09T00:00:00Z" data-fclass="P" data-fcode="PPLX" data-geonameid="" data-lat="37.7890177454" data-lng="-122.284333872" data-name="FISC" data-parents="5322737" data-updated-at="2014-02-09T00:00:00Z"/><path d="M895.905935,265.969358L896.618739,279.665326L881.169350,313.854493L922.792906,314.618215L1031.431892,315.305564L1052.251716,282.771108L977.711894,262.659929L895.905935,265.969358Z " data-admincode1="CA" data-admincode2="001" data-admincode3="" data-admincode4="" data-cartodb-id="15" data-countrycod="US" data-created-at="2014-02-09T00:00:00Z" data-fclass="P" data-fcode="PPLX" data-geonameid="" data-lat="37.7858043748" data-lng="-122.287778794" data-name="Coast Guard Housing -- Marina Village" data-parents="5322737" data-updated-at="2014-02-09T00:00:00Z"/><path d="M1599.492851,1249.702604L1502.342225,1389.770938L1470.105297,1447.571532L1439.511247,1495.925905L1378.015428,1564.702418L1359.469176,1555.280925L1251.047526,1519.352089L1172.552959,1606.182647L1207.041376,1658.154340L1232.210004,1680.002464L1291.138099,1713.920706L1316.331623,1690.799238L1327.603001,1682.523407L1352.762362,1661.948472L1380.086518,1693.422043L1408.653250,1716.925486L1435.906514,1732.458695L1452.362598,1751.786145L1466.376250,1762.583064L1479.187355,1768.592679L1493.034166,1771.113664L1502.650390,1750.818498L1524.966968,1721.865551L1575.085971,1663.680022L1608.687735,1632.690439L1643.242829,1575.575350L1739.968687,1341.392072L1783.148310,1253.292747L1599.492851,1249.702604Z " data-admincode1="CA" data-admincode2="001" data-admincode3="" data-admincode4="" data-cartodb-id="16" data-countrycod="US" data-created-at="2014-02-09T00:00:00Z" data-fclass="P" data-fcode="PPLX" data-geonameid="" data-lat="37.7376062284" data-lng="-122.234610379" data-name="Bay Farm" data-parents="5322737" data-updated-at="2014-02-09T00:00:00Z"/><path d="M1944.496305,734.758951L1923.343777,752.911598L1907.954679,763.681010L1899.721295,772.337292L1909.168945,781.171806L1915.430423,789.624439L1923.000943,795.632945L1931.310175,802.150655L1941.649920,815.949895L1953.442633,830.411132L1975.350304,859.537406L1983.590924,853.146925L1998.454095,841.486226L1999.492137,837.998205L1999.398699,813.225688L1996.500197,797.593349L1990.056020,783.106745L1982.320586,767.372658L1964.859106,750.772994L1953.681166,740.385501L1944.496305,734.758951Z " data-admincode1="CA" data-admincode2="001" data-admincode3="" data-admincode4="" data-cartodb-id="17" data-countrycod="US" data-created-at="2014-02-09T00:00:00Z" data-fclass="P" data-fcode="PPLX" data-geonameid="" data-lat="37.7660744213" data-lng="-122.228512526" data-name="Marina Drive" data-parents="5322737" data-updated-at="2014-02-09T00:00:00Z"/></g><g fill="#000" font-family="Arial" font-size="12px" id="mylayer-label" stroke="none"><text text-anchor="middle" y="737.42583528"><tspan dy="0" x="1256.98154216"><![CDATA[Gold Coast]]></tspan></text><text text-anchor="middle" y="318.393410798"><tspan dy="0" x="477.01809973"><![CDATA[Alameda Poimt]]></tspan></text><text text-anchor="middle" y="945.481965006"><tspan dy="0" x="1290.20924343"><![CDATA[South Shore]]></tspan></text><text text-anchor="middle" y="369.955654519"><tspan dy="0" x="949.065608389"><![CDATA[Bayport]]></tspan></text><text text-anchor="middle" y="234.533621827"><tspan dy="0" x="1020.34291846"><![CDATA[North Housing]]></tspan></text><text text-anchor="middle" y="1531.80662237"><tspan dy="0" x="1266.00835617"><![CDATA[Harbor Bay]]></tspan></text><text text-anchor="middle" y="831.320695338"><tspan dy="0" x="1631.80083076"><![CDATA[Park Street]]></tspan></text><text text-anchor="middle" y="855.36818695"><tspan dy="0" x="1869.0285"><![CDATA[Fernside]]></tspan></text><text text-anchor="middle" y="723.846155914"><tspan dy="0" x="1821.22579423"><![CDATA[Wedgwood or Triangle]]></tspan></text><text text-anchor="middle" y="749.083464207"><tspan dy="0" x="785.050228313"><![CDATA[Ballena Bay]]></tspan></text><text text-anchor="middle" y="555.335384461"><tspan dy="0" x="1072.80634682"><![CDATA[West End]]></tspan></text><text text-anchor="middle" y="529.399324653"><tspan dy="0" x="1590.175564"><![CDATA[Northern Waterfront]]></tspan></text><text text-anchor="middle" y="325.219110808"><tspan dy="0" x="1293.86328401"><![CDATA[Marina Village]]></tspan></text><text text-anchor="middle" y="203.233238568"><tspan dy="0" x="1071.62156317"><![CDATA[FISC]]></tspan></text><text text-anchor="middle" y="285.035266321"><tspan dy="0" x="963.678422289"><![CDATA[Coast Guard Housing -- Marina Village]]></tspan></text><text text-anchor="middle" y="1512.18251372"><tspan dy="0" x="1505.45822569"><![CDATA[Bay Farm]]></tspan></text><text text-anchor="middle" y="787.331196717"><tspan dy="0" x="1957.98642574"><![CDATA[Marina Drive]]></tspan></text></g></svg>