<?xml version="1.0" encoding="utf-8"?><!DOCTYPE svg  PUBLIC '-//W3C//DTD SVG 1.1//EN'  'http://www.w3.org/Graphics/SVG/1.1/DTD/svg11.dtd'><svg enable_background="new 0 0 2000 2039" height="2039px" pretty_print="False" style="stroke-linejoin: round; stroke:#000; fill: none;" version="1.1" viewBox="0 0 2000 2039" width="2000px" xmlns="http://www.w3.org/2000/svg" xmlns:xlink="http://www.w3.org/1999/xlink"><defs><style type="text/css"><![CDATA[path { fill-rule: evenodd; }]]></style></defs><metadata><views><view h="2039.04474967" padding="0" w="2000"><proj flip="auto" id="robinson" lon0="-0.522921443073"/><bbox h="1.46" w="1.43" x="-8.08" y="-794.7"/></view></views></metadata><g class="" id="mylayer"><path d="M1994.683850,848.537020L1993.112953,849.155369L1888.212367,916.990561L1726.816976,1023.758790L1675.412972,1057.103808L1636.786167,1082.181272L1551.134659,1139.710560L1466.322649,1196.232148L1400.322237,1239.905822L1412.156971,1243.295283L1438.037351,1249.112331L1505.850692,1283.648187L1565.736459,1314.519753L1590.207100,1329.062365L1600.269272,1333.482402L1660.551820,1359.911017L1689.902894,1371.865727L1714.957117,1380.041649L1746.755624,1384.530390L1779.346295,1386.248020L1791.847761,1386.270922L1792.235186,1384.690702L1792.640076,1383.408204L1792.768674,1383.087580L1794.382013,1380.316470L1797.351790,1375.300988L1798.230703,1374.201705L1798.377128,1374.041393L1799.843974,1371.453496L1803.951226,1364.170742L1804.208780,1363.392083L1804.319970,1362.750834L1804.376048,1362.246995L1804.304374,1361.743157L1804.141388,1361.262220L1803.959910,1360.872891L1803.650681,1360.483561L1803.159009,1360.071330L1802.156993,1359.407179L1782.462849,1346.376086L1781.898060,1346.009658L1781.770731,1345.849346L1784.498291,1342.711807L1800.637487,1326.566074L1797.217151,1322.512464L1796.380544,1321.413180L1794.615962,1319.260415L1791.595571,1315.802251L1790.304166,1314.153325L1789.795702,1313.191451L1788.923748,1311.657034L1789.080380,1307.626325L1790.425556,1302.725350L1790.793878,1301.465753L1791.970814,1298.076293L1792.669143,1296.244153L1797.279697,1284.930685L1800.734389,1275.930294L1801.321581,1274.716501L1801.672310,1273.204985L1802.437264,1266.861197L1803.631161,1263.952674L1807.964518,1253.921702L1809.192616,1251.883445L1811.061561,1249.043626L1815.515157,1241.852472L1827.792395,1229.783241L1833.666094,1223.851683L1837.290090,1219.820972L1838.383802,1220.301909L1838.857749,1220.508025L1853.458907,1226.897618L1853.495527,1226.851815L1853.641883,1226.714404L1861.870628,1220.439320L1866.881015,1216.614724L1867.250919,1214.736779L1867.361614,1214.278744L1864.088839,1202.667546L1861.467008,1193.369426L1861.231864,1192.567864L1861.123926,1191.972418L1860.817524,1190.506704L1861.091864,1190.277687L1861.824239,1189.361616L1863.102177,1189.178402L1863.377477,1188.582955L1863.506002,1188.285232L1863.782021,1187.414965L1864.465040,1184.437734L1864.502858,1183.933895L1867.195850,1173.009748L1878.299136,1128.168062L1878.575865,1127.022972L1878.760451,1126.221410L1882.376640,1111.152035L1882.487211,1110.739803L1882.910587,1109.342794L1883.002490,1109.090874L1883.167748,1108.701544L1883.406182,1108.243508L1883.662745,1107.831276L1883.572636,1107.396142L1883.465176,1106.617481L1883.394155,1105.861722L1883.286515,1105.151767L1883.307935,1103.937972L1883.365733,1102.769981L1883.513639,1102.037123L1883.569044,1101.785204L1883.661306,1101.395873L1886.326005,1094.273417L1888.548894,1088.616675L1889.578843,1085.547835L1889.781614,1084.769174L1891.347234,1079.226940L1891.257484,1078.654396L1891.276390,1078.402476L1892.388774,1071.715152L1892.611107,1070.432652L1893.181302,1068.715018L1893.584867,1067.913455L1898.040409,1059.829121L1900.424571,1055.294566L1900.828252,1054.447199L1903.232567,1049.179786L1903.471232,1048.630143L1904.004623,1047.027017L1904.409378,1045.767419L1905.017434,1043.523042L1906.195913,1039.469424L1910.992932,1026.369595L1911.286699,1025.682541L1911.360110,1025.522229L1912.460333,1023.483968L1928.236333,991.856579L1921.860297,987.665548L1919.000726,985.581484L1906.888598,976.741387L1903.774702,974.222188L1904.067273,973.993170L1910.000549,966.000439L1933.916055,933.960805L1934.520325,933.159242L1935.325979,932.105758L1938.584194,928.235352L1940.999304,925.784858L1941.457350,925.074901L1953.031525,909.112336L1958.745257,901.257013L1962.499852,895.943791L1969.093887,886.370831L1982.648705,866.492050L1994.683850,848.537020Z " data-admincode1="B5" data-admincode2="49" data-admincode3="491" data-admincode4="49007" data-cartodb-id="1" data-countrycod="FR" data-created-at="2014-01-17T00:00:00Z" data-fclass="P" data-fcode="PPLX" data-geonameid="" data-lat="47.4752887022" data-lng="-0.523853445661" data-name="Deux Croix - Banchais" data-parents="3037656" data-updated-at="2014-01-17T00:00:00Z"/><path d="M1300.666233,843.338306L1299.731471,844.826925L1280.595514,875.538269L1273.520376,886.851769L1253.137173,919.692975L1226.518419,963.549945L1218.907142,977.222325L1210.397019,992.543633L1209.828369,993.597116L1206.231217,1000.902792L1202.174886,1009.261950L1197.145908,1019.567761L1192.392235,1029.301026L1186.849219,1040.683220L1182.132247,1050.324876L1176.938144,1060.905506L1172.900315,1069.127250L1168.660379,1077.829931L1163.888242,1087.586094L1159.630207,1096.220069L1156.142477,1103.479936L1154.472344,1106.846499L1153.517400,1108.976365L1169.094542,1118.137080L1177.003499,1122.099089L1185.914052,1126.816856L1208.945633,1139.412837L1221.919177,1146.512390L1233.581259,1152.741674L1338.793650,1210.133523L1349.090273,1215.332225L1369.964056,1229.920652L1395.745159,1238.600421L1400.322237,1239.905822L1466.322649,1196.232148L1551.134659,1139.710560L1636.786167,1082.181272L1675.412972,1057.103808L1672.134807,1054.630414L1666.524178,1050.897421L1649.472460,1040.041969L1591.801686,1001.269220L1581.250841,995.704082L1565.427172,989.795416L1541.424071,985.444073L1514.775702,980.840810L1530.962187,953.839578L1543.211827,931.739329L1518.420525,922.120567L1507.207436,918.639491L1488.528562,916.028684L1470.562761,912.914038L1457.104620,909.661980L1434.993264,901.096700L1318.215724,858.224492L1300.666233,843.338306Z " data-admincode1="B5" data-admincode2="49" data-admincode3="491" data-admincode4="49007" data-cartodb-id="2" data-countrycod="FR" data-created-at="2014-01-17T00:00:00Z" data-fclass="P" data-fcode="PPLX" data-geonameid="" data-lat="47.480500566" data-lng="-0.541590784429" data-name="St Serge - Ney - Chalouère" data-parents="3037656" data-updated-at="2014-01-17T00:00:00Z"/><path d="M1536.989229,608.525747L1530.673144,616.289475L1451.295869,698.209382L1381.146819,760.731403L1373.937155,768.082892L1372.089132,769.915039L1364.056471,777.930681L1363.250684,778.984165L1361.623008,780.312472L1360.324415,781.411760L1352.861607,787.892978L1340.163493,800.351575L1338.461542,802.137917L1334.857105,805.641898L1332.039330,808.413019L1321.427189,818.741744L1312.882233,827.169617L1310.649554,829.505603L1309.588082,830.627792L1308.343372,832.024804L1306.073238,834.704318L1305.121250,835.826507L1301.564371,841.895491L1300.666233,843.338306L1318.215724,858.224492L1434.993264,901.096700L1457.104620,909.661980L1470.562761,912.914038L1488.528562,916.028684L1507.207436,918.639491L1518.420525,922.120567L1543.211827,931.739329L1530.962187,953.839578L1514.775702,980.840810L1541.424071,985.444073L1565.427172,989.795416L1581.250841,995.704082L1591.801686,1001.269220L1649.472460,1040.041969L1666.524178,1050.897421L1672.134807,1054.630414L1675.412972,1057.103808L1726.816976,1023.758790L1888.212367,916.990561L1993.112953,849.155369L1994.683850,848.537020L1999.509334,845.399470L1996.775614,844.071164L1995.244763,843.315404L1994.714398,843.773441L1992.982173,843.269600L1992.708636,843.200895L1991.342073,842.422233L1983.597838,838.162493L1980.463748,836.421955L1973.084016,832.345429L1961.622602,826.047427L1961.640968,826.001623L1956.283846,823.047288L1955.026548,822.360233L1953.222655,821.352552L1951.364080,820.321970L1953.817209,817.253125L1955.373296,815.306470L1957.680022,812.397937L1961.249916,807.909179L1956.636632,806.626676L1954.120265,805.939621L1952.460934,805.481585L1953.030348,804.038769L1946.757981,802.206623L1924.658532,795.885718L1922.068175,795.587994L1912.436170,794.580313L1902.803991,793.641338L1902.913894,793.481025L1899.578265,792.084014L1898.411687,791.603075L1891.074684,792.198523L1889.140042,792.358836L1881.766480,792.977185L1881.459567,791.717584L1880.422220,790.664100L1875.241761,789.977045L1874.220627,789.702223L1867.874857,788.053291L1851.499411,783.976765L1843.183610,782.075913L1831.402631,779.488006L1830.253712,779.236086L1819.511523,777.152019L1816.556603,776.716884L1812.327027,775.274068L1811.670787,775.022148L1807.022794,773.098394L1803.613327,772.044910L1800.458902,771.151738L1789.828474,768.220303L1784.028989,767.029408L1783.918779,767.304230L1779.049847,766.136236L1778.156337,765.907218L1766.356847,763.456722L1756.327355,761.006225L1749.744779,759.242784L1747.447330,758.601533L1746.772851,758.349612L1746.517632,758.258005L1746.043630,758.097692L1745.278036,757.799968L1744.676607,757.525146L1744.166293,757.296128L1743.583415,756.906797L1743.419676,756.723582L1743.001326,756.219742L1742.619411,755.738803L1741.110665,753.563129L1738.373830,753.471521L1735.416994,753.769245L1732.332428,754.066969L1731.654848,748.112492L1731.014739,741.791584L1730.077872,737.279922L1729.222570,736.409653L1727.966258,735.379070L1726.217944,734.096567L1725.106697,733.409512L1723.193371,732.424733L1722.300481,731.966696L1720.623759,731.210935L1715.975141,729.562003L1713.294893,728.783340L1712.328530,728.508518L1712.292097,728.485616L1712.255603,728.485616L1711.817917,728.394009L1709.830146,727.958874L1707.076181,727.455034L1702.844327,726.905389L1700.509802,726.493156L1698.668009,726.058021L1693.964056,724.638107L1691.704232,723.584623L1690.847843,723.126586L1689.518131,722.256316L1684.746515,718.843942L1679.884225,715.225451L1678.408787,714.263574L1677.333499,713.782635L1672.192928,711.881782L1662.169832,707.118199L1663.161968,704.576095L1663.731544,703.110377L1663.878745,702.652340L1664.340370,700.614076L1664.675491,698.117775L1664.787913,697.018487L1665.036699,692.690038L1665.131792,691.247222L1665.196456,687.537123L1665.144716,686.414933L1665.312919,684.926313L1664.055847,684.193454L1653.943753,678.628306L1639.566733,671.276814L1631.312992,666.788052L1624.607230,663.421480L1608.810663,654.741680L1601.248954,650.779661L1600.046771,650.000998L1595.965502,647.779519L1547.556547,614.297014L1536.989229,608.525747Z " data-admincode1="B5" data-admincode2="49" data-admincode3="491" data-admincode4="49007" data-cartodb-id="3" data-countrycod="FR" data-created-at="2014-01-17T00:00:00Z" data-fclass="P" data-fcode="PPLX" data-geonameid="" data-lat="47.489656652" data-lng="-0.528295644354" data-name="Montplaisir" data-parents="3037656" data-updated-at="2014-01-17T00:00:00Z"/><path d="M1153.517400,1108.976365L1132.790147,1146.512390L1120.478322,1170.101222L1074.161519,1221.584408L1040.855075,1247.577913L989.179848,1276.708954L978.596137,1282.663411L934.203256,1317.588587L891.090077,1338.818509L857.015237,1345.734837L819.700945,1374.591034L789.450290,1409.264266L786.074296,1415.401930L745.927365,1488.756159L728.249841,1535.956592L749.836169,1543.834780L857.481268,1588.126673L863.328775,1591.997060L863.644642,1596.371284L865.773372,1598.684356L869.455468,1600.310376L874.213016,1602.417332L878.692164,1606.127407L878.928441,1606.470932L880.528091,1608.715298L883.741679,1614.578131L884.286315,1615.585806L888.262317,1622.891446L892.111169,1629.990969L896.162720,1636.426344L908.473203,1646.022151L912.483042,1647.945892L929.566290,1660.770835L953.279541,1678.405129L959.430560,1671.992659L966.784077,1666.313042L973.351039,1661.228869L979.334712,1655.869875L983.439224,1650.236061L990.060771,1638.808119L998.010917,1628.685573L1007.748170,1619.089765L1013.639093,1614.211704L1021.301249,1609.035922L1051.048170,1590.851975L1058.842730,1584.004367L1064.481778,1577.798007L1068.953306,1571.385530L1074.571918,1559.499547L1078.208122,1545.140177L1266.324460,1636.586656L1267.721524,1633.013992L1298.897216,1606.012898L1339.033711,1572.461910L1327.590327,1552.583232L1299.369679,1494.870918L1290.534353,1475.816687L1270.664255,1434.616483L1263.913132,1420.921248L1255.402097,1403.515930L1265.552110,1402.531155L1292.426234,1399.141699L1411.855597,1386.454136L1482.300310,1380.430978L1491.911344,1376.262862L1539.027510,1365.086811L1549.428278,1359.040751L1569.064434,1352.696968L1600.269272,1333.482402L1590.207100,1329.062365L1565.736459,1314.519753L1505.850692,1283.648187L1438.037351,1249.112331L1412.156971,1243.295283L1400.322237,1239.905822L1395.745159,1238.600421L1369.964056,1229.920652L1349.090273,1215.332225L1338.793650,1210.133523L1233.581259,1152.741674L1221.919177,1146.512390L1208.945633,1139.412837L1185.914052,1126.816856L1177.003499,1122.099089L1169.094542,1118.137080L1153.517400,1108.976365Z " data-admincode1="B5" data-admincode2="49" data-admincode3="491" data-admincode4="49007" data-cartodb-id="7" data-countrycod="FR" data-created-at="2014-01-17T00:00:00Z" data-fclass="P" data-fcode="PPLX" data-geonameid="" data-lat="47.4650550932" data-lng="-0.556209126156" data-name="Centre Ville - La Fayette - Eblé" data-parents="3037656" data-updated-at="2014-01-17T00:00:00Z"/><path d="M905.742119,1289.167510L917.183428,1289.648447L926.258051,1288.114029L937.659817,1283.304660L951.630668,1273.571413L960.914786,1268.968159L970.153586,1267.433741L989.179848,1276.708954L1040.855075,1247.577913L1074.161519,1221.584408L1120.478322,1170.101222L1132.790147,1146.512390L1153.517400,1108.976365L1151.148707,1107.670963L1137.920410,1100.411096L1123.908498,1092.784801L1095.411292,1077.211583L1092.295477,1075.539752L1087.641571,1075.700064L1073.114270,1076.135198L1049.790246,1076.845154L1047.016228,1076.913859L1047.786262,1075.654261L1048.558055,1073.776314L1049.696582,1071.280018L1051.421153,1068.050866L1052.448425,1066.172918L1053.348345,1064.157561L1055.514721,1059.577202L1058.376950,1054.149476L1060.525065,1049.569117L1061.909332,1044.072686L1052.283284,1040.820630L1020.265983,1037.637280L1009.113850,1057.584745L1007.364522,1056.691575L1006.841393,1054.561708L998.442236,1043.454337L978.936354,1030.033883L946.651870,1005.574759L937.010946,1007.567216L920.371885,1025.339014L902.991613,1009.010030L888.395963,995.291850L881.171008,988.490013L878.786895,986.268538L865.901864,974.245090L859.914559,968.588343L857.167963,965.519501L855.349310,963.389633L853.313207,960.733023L851.260188,957.618377L838.145681,936.709023L827.828676,920.219717L825.394957,916.257703L809.156920,890.264140L808.521245,889.233558L798.477498,872.996167L774.011338,834.108870L764.403368,818.718842L759.988451,812.146017L750.652837,797.259828L742.952044,784.938642L742.207125,783.839354L741.087995,785.900519L740.171062,787.457844L738.282384,790.595395L738.080655,790.938922L737.420459,792.061112L733.747628,793.801651L735.850088,798.656839L735.904427,798.794250L735.904024,798.931661L735.830430,799.137778L735.647351,799.343894L735.446159,799.504207L735.263349,799.618716L720.496896,807.290829L716.915683,808.893957L714.520688,810.451282L711.337480,813.222403L708.245708,815.924819L704.931121,819.932639L702.732995,822.795367L691.135560,838.666334L691.827890,839.032763L695.637330,840.498480L695.873672,840.796203L695.505349,841.941295L693.611345,846.865187L693.556197,847.002598L693.060408,848.056082L692.913550,848.353806L690.508266,853.392207L689.424839,855.705291L689.406254,855.819800L687.957061,858.407706L686.379458,861.224631L683.994699,865.484370L683.976181,865.575977L681.720771,869.286072L681.555866,869.515090L680.858400,870.889200L679.977442,872.606836L679.205903,874.347375L678.709431,875.629877L678.194441,877.003986L677.351598,878.171979L675.226204,881.103412L673.100875,884.011943L672.477881,884.882212L668.246405,890.378649L665.590320,893.813922L663.996465,895.943791L662.695453,897.775936L660.020163,901.531834L657.363184,905.264831L656.795197,906.043493L656.188007,907.738227L655.097639,912.387296L654.802017,913.623994L654.527485,913.898816L653.392792,915.021005L651.168401,920.563244L650.690838,921.616727L649.882576,923.425971L649.533426,924.250436L649.092629,925.212312L648.631417,926.907047L646.279952,932.220267L645.780683,934.441743L645.762029,934.579154L645.848055,936.342594L645.827165,937.235764L645.589631,943.510861L646.026368,943.923094L647.411332,944.564344L646.567718,945.984257L643.890547,950.358503L643.047337,951.641004L642.186216,952.808996L639.217810,956.931322L637.990367,958.557351L655.343583,971.199149L658.984923,974.016072L660.495475,975.390180L666.917802,981.940097L675.650471,990.940507L678.944115,994.100956L677.750744,996.551449L676.005664,1000.444756L675.105345,1002.528820L672.899994,1007.796234L661.535409,1037.270852L660.860480,1037.179244L658.306213,1036.996030L658.214631,1037.110539L656.864571,1036.996030L652.431304,1036.606700L651.209052,1036.469289L648.345777,1035.873842L642.345705,1034.614243L641.524856,1034.499734L639.810841,1034.041698L637.805187,1033.469153L637.039491,1033.217233L633.867622,1032.072143L634.718107,1028.339150L633.735599,1027.354373L633.517294,1027.125355L632.349452,1027.102453L632.310108,1028.064328L630.213080,1027.537587L630.195306,1027.377274L629.411160,1027.194060L629.010030,1027.079551L628.371804,1026.919238L627.514935,1026.644417L623.795754,1025.453523L622.665428,1025.087094L621.881486,1024.835175L614.169812,1022.315977L612.529005,1021.789235L611.799946,1021.491512L609.045433,1021.147985L608.443571,1021.033476L603.845548,1020.827360L602.951573,1020.758654L600.615895,1020.712851L592.258604,1020.529636L591.090697,1020.529636L590.415637,1020.483833L588.080640,1020.209011L585.472051,1019.888386L597.330802,1039.263308L606.409008,1048.653045L618.540844,1056.004522L624.152224,1059.119166L645.935435,1067.249303L661.945968,1071.280018L665.285635,1071.234215L669.706778,1069.562384L675.138909,1071.600643L675.424543,1073.753412L676.624509,1075.264930L703.567517,1085.043995L706.415621,1084.608861L708.947906,1086.074576L712.821394,1090.677836L714.196268,1094.777256L712.871850,1098.349935L706.732670,1107.121320L700.893595,1113.121589L696.819213,1114.770517L688.742488,1118.388999L683.018933,1122.328106L678.623497,1127.641321L678.102263,1131.122392L676.896493,1137.763909L675.593310,1140.306007L674.926887,1143.512256L677.321265,1148.436139L680.631349,1152.260737L688.143013,1154.642522L696.368630,1156.268548L704.589475,1159.520601L722.535381,1163.391001L730.120093,1165.772786L735.230620,1171.750150L742.192131,1175.070908L744.814468,1176.971755L750.147849,1181.643718L750.279700,1186.475992L748.169688,1190.346392L742.304450,1192.796882L742.983240,1204.041652L729.917083,1203.881340L718.509680,1204.385179L716.675990,1207.362409L738.048422,1219.042312L755.264503,1229.210697L788.170062,1247.463404L814.977398,1260.517409L849.908495,1272.746950L905.742119,1289.167510Z " data-admincode1="B5" data-admincode2="49" data-admincode3="491" data-admincode4="49007" data-cartodb-id="4" data-countrycod="FR" data-created-at="2014-01-17T00:00:00Z" data-fclass="P" data-fcode="PPLX" data-geonameid="" data-lat="47.4789484321" data-lng="-0.570803179886" data-name="Doutre - St Jacques - Nazareth" data-parents="3037656" data-updated-at="2014-01-17T00:00:00Z"/><path d="M1600.269272,1333.482402L1569.064434,1352.696968L1549.428278,1359.040751L1539.027510,1365.086811L1491.911344,1376.262862L1482.300310,1380.430978L1411.855597,1386.454136L1292.426234,1399.141699L1265.552110,1402.531155L1255.402097,1403.515930L1263.913132,1420.921248L1270.664255,1434.616483L1290.534353,1475.816687L1299.369679,1494.870918L1327.590327,1552.583232L1339.033711,1572.461910L1402.799056,1687.313882L1410.042020,1701.741937L1426.196102,1734.697440L1439.210171,1761.309172L1439.428009,1761.744303L1447.178151,1777.706759L1448.514694,1782.882533L1454.130753,1791.653866L1462.335904,1808.143054L1475.987113,1835.579225L1484.871994,1850.533997L1486.652607,1860.244291L1491.254704,1872.794386L1506.383658,1914.131825L1508.320970,1913.215760L1519.863308,1910.856893L1524.977517,1909.620205L1534.091062,1907.673567L1538.968528,1906.230765L1547.446853,1902.932931L1550.462253,1901.581735L1556.640368,1898.398409L1567.039978,1893.337149L1577.824599,1887.634643L1594.649772,1875.565484L1604.674814,1867.206388L1606.963617,1864.526897L1611.683547,1860.542012L1628.493237,1847.350669L1638.281880,1838.602242L1648.976919,1845.816259L1653.495944,1848.678964L1656.307112,1848.587357L1659.275439,1844.327652L1672.751853,1828.433913L1674.621565,1825.456699L1675.760620,1822.685600L1676.682413,1819.250353L1677.288179,1811.120269L1677.419367,1809.837776L1678.584973,1803.952053L1681.100771,1798.249542L1688.452844,1785.928453L1695.185055,1766.462045L1706.058992,1747.545273L1708.244220,1742.575612L1709.086927,1741.407627L1710.860008,1740.422856L1714.839171,1740.354151L1719.987994,1739.712904L1726.302646,1739.941921L1745.025100,1734.674538L1755.746031,1732.063748L1768.593151,1726.063511L1777.275606,1721.254161L1779.195642,1719.902962L1780.476129,1718.826584L1780.786294,1718.872387L1812.180320,1732.590486L1817.357975,1734.857751L1836.683412,1743.193957L1840.840294,1744.957385L1851.852103,1749.743833L1865.379941,1755.606658L1884.887826,1764.057371L1900.001757,1770.675950L1905.380179,1772.989017L1913.730231,1776.653282L1932.600283,1784.806272L1941.862299,1788.745356L1951.415782,1792.913457L1970.924192,1801.318363L1974.771328,1802.921478L1975.097482,1796.783836L1978.815572,1777.683857L1979.246972,1773.195132L1976.370647,1763.210009L1975.922270,1760.141187L1976.187330,1756.454020L1977.852816,1747.636880L1978.706825,1734.995161L1981.405510,1728.949121L1976.017435,1723.315311L1975.434670,1722.811474L1970.608875,1718.551764L1965.617934,1714.635578L1959.751558,1710.467474L1959.040854,1710.032342L1958.949772,1709.963637L1956.142931,1708.429225L1953.025689,1706.940617L1951.020398,1706.001648L1950.308391,1706.070353L1949.851853,1706.161960L1949.358811,1706.253567L1925.790104,1701.283904L1920.007375,1700.070115L1911.561171,1698.352489L1874.949475,1690.680428L1875.391470,1689.168918L1877.418683,1681.702971L1877.621249,1681.015921L1860.106676,1678.244817L1857.643810,1677.809686L1846.532914,1676.092060L1836.717371,1674.580549L1827.357891,1673.160645L1829.397736,1667.870357L1831.824890,1661.045655L1835.925322,1649.503207L1837.102384,1646.090856L1841.976378,1631.868908L1842.307549,1630.861234L1846.483868,1625.158713L1848.535430,1622.341805L1849.323369,1621.150917L1851.193190,1618.036287L1852.695697,1615.791921L1854.326263,1613.433047L1854.676641,1612.058945L1856.765111,1609.081725L1860.512489,1606.860261L1862.596039,1605.760979L1865.410306,1604.409779L1866.416236,1603.608220L1867.075266,1602.852464L1867.698452,1601.844790L1869.368080,1598.501142L1870.891753,1595.134593L1871.938910,1592.523799L1872.307769,1591.058091L1872.474666,1590.050416L1871.689561,1583.179906L1871.114375,1579.790455L1872.912588,1576.126183L1875.076122,1572.347402L1877.865103,1566.690681L1865.086204,1560.850747L1862.151221,1559.522448L1857.284484,1557.094868L1856.318546,1556.568128L1856.303412,1555.377240L1856.347410,1552.514527L1856.393146,1548.987664L1855.409537,1541.269788L1854.819542,1536.574938L1854.290198,1536.597840L1853.887994,1529.887639L1853.611571,1523.933194L1856.302278,1520.955971L1861.012078,1520.566642L1861.030329,1520.566642L1861.945100,1519.719279L1864.945766,1516.856565L1865.922896,1513.100684L1865.977949,1512.986175L1866.363737,1512.024303L1866.694292,1511.245645L1867.832744,1508.611948L1868.199860,1507.810388L1868.804899,1506.756909L1869.428188,1505.703430L1870.069728,1504.649951L1870.289578,1504.329327L1870.857395,1503.550669L1870.948949,1503.436160L1872.670768,1501.054382L1873.440183,1499.955099L1872.802715,1499.451261L1872.802955,1499.359655L1882.295771,1484.496439L1887.719734,1476.183115L1888.342594,1475.289948L1885.028351,1472.450134L1866.065987,1465.373502L1865.555623,1465.121583L1861.128230,1462.235966L1860.508902,1461.777931L1848.341624,1452.525634L1845.900887,1450.670594L1845.572974,1450.441577L1844.388719,1449.662918L1841.764758,1448.082699L1840.817042,1447.578861L1838.210375,1446.365070L1835.001496,1445.128376L1830.753471,1443.456550L1827.288246,1442.540481L1817.074484,1440.021291L1814.995533,1439.402944L1810.983156,1438.349465L1803.979604,1436.563130L1802.320060,1436.082194L1800.806281,1435.692864L1800.350316,1435.578356L1791.942320,1433.471397L1789.039461,1406.172531L1788.579506,1400.653213L1788.818393,1400.034866L1789.096136,1398.523352L1789.965867,1393.988808L1790.150726,1393.095640L1791.847761,1386.270922L1779.346295,1386.248020L1746.755624,1384.530390L1714.957117,1380.041649L1689.902894,1371.865727L1660.551820,1359.911017L1600.269272,1333.482402Z " data-admincode1="B5" data-admincode2="49" data-admincode3="491" data-admincode4="49007" data-cartodb-id="8" data-countrycod="FR" data-created-at="2014-01-17T00:00:00Z" data-fclass="P" data-fcode="PPLX" data-geonameid="" data-lat="47.4568203054" data-lng="-0.529956128879" data-name="Madeleine - St Léonard - Justices" data-parents="3037656" data-updated-at="2014-01-17T00:00:00Z"/><path d="M142.924008,855.751095L143.104729,862.209409L143.175663,862.873562L143.947038,884.836409L145.654860,934.395940L146.273173,952.763193L146.741793,966.435573L147.350166,982.123311L148.936895,1017.781420L150.556687,1054.561708L151.016592,1065.165239L152.882681,1110.831410L152.863936,1110.991722L153.168218,1112.915472L153.180870,1114.724714L153.102844,1116.350740L163.171497,1117.908062L163.163782,1120.404357L163.254956,1120.427258L163.364238,1120.495964L163.509877,1120.610473L163.637196,1120.747883L163.746265,1120.885294L163.800588,1121.022705L163.799951,1121.228821L163.781135,1121.412035L163.725893,1121.572348L163.652543,1121.686856L163.506125,1121.824267L163.305032,1121.938776L163.158756,1122.030383L163.196020,1127.687124L163.756564,1135.267615L164.061491,1136.985248L164.929311,1139.618953L165.994194,1143.443551L166.388175,1145.871140L174.527170,1145.916943L174.212408,1147.382657L169.816120,1152.718772L164.687444,1158.833547L163.020534,1160.848904L165.587735,1162.772653L172.125927,1167.078188L172.290807,1166.872072L178.374762,1170.536356L180.323975,1171.658543L185.042424,1174.292247L212.429380,1187.873000L250.871999,1202.667546L274.951106,1211.965665L279.726878,1213.797807L292.705504,1218.721687L186.643223,1223.302041L183.065741,1223.485255L179.505801,1223.897487L178.611289,1223.989094L175.835656,1224.538736L174.904362,1224.721950L173.242447,1225.111280L171.324968,1225.523512L169.334207,1226.027351L163.561816,1227.813689L157.532297,1230.126768L81.068699,1258.708170L80.483210,1259.189107L81.627954,1260.792230L98.019557,1283.213053L108.195897,1297.251830L108.597182,1297.320535L134.219351,1303.458206L131.168055,1304.603294L132.004787,1305.496462L132.241470,1305.679676L132.787408,1306.183515L133.860611,1307.328602L133.804442,1307.786637L151.627330,1310.168420L193.523937,1311.931855L236.543257,1310.626455L272.976813,1308.496592L361.979843,1303.229188L431.522980,1299.679416L468.881346,1299.450399L500.974798,1302.198609L529.735988,1308.565297L561.677394,1319.512335L589.686781,1333.299188L608.032265,1344.223322L644.520922,1366.712835L679.783042,1384.438783L717.435150,1396.347687L753.749765,1403.882358L789.450290,1409.264266L819.700945,1374.591034L857.015237,1345.734837L891.090077,1338.818509L934.203256,1317.588587L978.596137,1282.663411L989.179848,1276.708954L970.153586,1267.433741L960.914786,1268.968159L951.630668,1273.571413L937.659817,1283.304660L926.258051,1288.114029L917.183428,1289.648447L905.742119,1289.167510L849.908495,1272.746950L814.977398,1260.517409L788.170062,1247.463404L755.264503,1229.210697L738.048422,1219.042312L716.675990,1207.362409L718.509680,1204.385179L729.917083,1203.881340L742.983240,1204.041652L742.304450,1192.796882L748.169688,1190.346392L750.279700,1186.475992L750.147849,1181.643718L744.814468,1176.971755L742.192131,1175.070908L735.230620,1171.750150L730.120093,1165.772786L722.535381,1163.391001L704.589475,1159.520601L696.368630,1156.268548L688.143013,1154.642522L680.631349,1152.260737L677.321265,1148.436139L674.926887,1143.512256L675.593310,1140.306007L676.896493,1137.763909L678.102263,1131.122392L678.623497,1127.641321L683.018933,1122.328106L688.742488,1118.388999L696.819213,1114.770517L700.893595,1113.121589L706.732670,1107.121320L712.871850,1098.349935L714.196268,1094.777256L712.821394,1090.677836L708.947906,1086.074576L706.415621,1084.608861L703.567517,1085.043995L676.624509,1075.264930L675.424543,1073.753412L675.138909,1071.600643L669.706778,1069.562384L665.285635,1071.234215L661.945968,1071.280018L645.935435,1067.249303L624.152224,1059.119166L618.540844,1056.004522L606.409008,1048.653045L597.330802,1039.263308L585.472051,1019.888386L583.702624,1019.659368L583.118875,1019.590662L582.157356,1017.689813L581.122300,1015.972178L580.613930,1015.101909L578.834093,1012.239184L578.561592,1011.826952L578.270502,1011.529228L576.142652,1009.101637L576.015731,1008.826815L575.925307,1008.551994L575.999118,1008.277172L576.164309,1007.956547L576.530983,1007.384002L576.750919,1007.063377L576.824662,1006.811457L576.825548,1006.513733L576.826434,1006.216010L576.754258,1005.941188L576.590840,1005.666367L576.500007,1005.528956L576.245414,1005.231232L576.008934,1004.979313L575.735752,1004.796098L575.480683,1004.658687L575.079762,1004.475473L574.624027,1004.315160L574.095367,1004.131946L573.438832,1003.994535L572.946396,1003.902928L572.289724,1003.811321L571.486860,1003.788419L570.903045,1003.742615L567.018647,1002.895248L566.307298,1002.780739L565.577906,1002.597525L564.994569,1002.391409L564.429550,1002.162391L563.244901,1001.658551L559.454548,999.872210L558.324511,999.414174L558.087417,999.368371L556.391405,999.001942L553.983909,998.566808L553.217816,998.452299L552.488152,998.360691L551.557687,998.291986L549.678508,998.154575L549.313334,998.223281L549.020949,998.360691L548.710316,998.498102L548.162111,998.750022L547.687378,998.841629L547.213056,998.795826L543.510127,998.291986L542.707675,998.131673L538.258067,997.123994L535.413364,996.436940L534.027305,996.162118L533.516623,996.070511L532.276278,995.887296L531.419013,995.749886L530.671238,995.612475L529.448868,995.520868L524.614132,995.154439L524.103313,995.108635L522.771658,994.948322L521.440757,994.536090L520.857219,994.398679L516.570487,993.849036L511.699806,993.299393L510.404512,993.184884L509.510477,993.139080L508.762155,993.184884L507.922386,993.299393L506.955151,993.322294L506.462581,993.276491L504.966761,993.093276L504.073001,992.955865L503.398015,992.887160L502.650105,992.795553L497.487454,992.245910L496.064285,992.177204L495.535493,992.039793L493.912553,991.650463L491.779139,991.100819L491.031298,990.986310L490.356313,990.917605L489.681329,990.848899L483.368140,990.596980L482.054324,990.574078L474.281196,990.345060L473.387093,990.322158L471.891000,990.230551L471.234127,990.207649L470.467901,990.138943L469.811303,990.024434L469.136525,989.887024L468.534741,989.749613L463.775700,988.490013L463.210551,988.306799L462.809362,988.215192L462.116681,987.963272L461.496994,987.711352L460.950301,987.459432L460.513166,987.184611L459.930321,986.818182L459.511986,986.360146L458.966395,985.741797L458.857181,985.650190L458.456061,985.535681L458.000059,985.466975L457.580346,985.466975L457.251738,985.512779L456.246768,985.947913L455.059176,986.428851L454.693933,986.520458L454.146344,986.566262L451.810345,986.634967L450.660697,986.634967L449.857838,986.612065L449.383656,986.520458L441.958224,985.970815L439.112099,985.764699L437.050585,985.581484L436.612901,985.489877L435.445627,985.283761L435.007804,985.237957L431.066571,985.100546L427.562262,985.306662L423.510709,985.444073L422.579973,985.466975L421.339015,985.489877L419.076563,985.375368L417.598653,985.306662L416.174934,985.421171L415.627345,985.466975L414.915727,985.444073L404.755541,984.069965L402.220196,983.680634L384.070710,981.161436L382.337881,980.909516L378.341701,980.840810L375.349320,980.726301L369.748189,980.359872L369.054822,980.336970L365.715236,980.382774L361.883014,980.405676L360.130339,980.680498L359.326925,980.840810L358.961818,980.886614L358.323891,980.634694L353.378520,980.657596L348.798116,980.680498L346.754650,980.565989L344.455637,980.474381L342.978008,980.314069L341.847168,980.130854L339.293446,979.787327L339.038247,979.695720L337.707303,979.306389L336.814110,978.985764L336.176255,978.710942L335.520151,978.436121L335.101067,978.230004L334.718619,977.978084L334.336101,977.749066L333.990498,977.382637L333.717679,977.084914L332.896365,977.130718L327.531566,977.062012L327.130242,977.016208L322.534455,976.100136L324.178668,927.571199L324.207313,924.158829L324.209616,923.403069L324.103267,922.372487L323.959167,921.754138L323.235176,919.807484L323.036262,919.212037L322.727651,918.685295L322.400652,918.204357L321.946056,917.677615L321.253888,917.265383L320.124395,916.647033L319.122359,916.120292L310.429513,912.364394L309.753708,912.570510L309.278212,912.914038L308.418530,913.578190L306.315816,914.952299L305.602745,915.410335L304.890024,915.753863L304.067885,916.074488L303.300629,916.349310L302.131707,916.692837L301.218607,916.921855L300.488267,917.059266L299.612152,917.127972L298.626828,917.105070L297.641435,917.105070L294.740699,916.876052L293.208075,916.807346L291.328599,916.784444L288.518404,916.784444L285.087566,916.853150L282.788035,916.944757L279.904217,917.150873L277.458422,917.334088L276.527632,917.379892L275.414082,917.517302L274.099594,917.723419L267.216581,918.868510L262.944156,919.647171L261.647914,919.853288L257.430722,920.471637L255.641572,920.746458L254.601223,920.815164L253.341897,920.883869L251.790533,920.975477L250.166387,920.998378L249.053396,920.952575L247.922369,920.838066L246.992000,920.746458L246.207615,920.654851L238.347773,919.005920L236.888845,918.708197L235.776630,918.410473L234.409083,918.066946L233.406426,917.746321L232.495151,917.379892L231.565627,917.013463L230.599467,916.692837L229.050779,915.914175L220.997481,911.906358L206.349085,904.440365L204.509004,903.478489L193.177419,897.432409L192.466950,897.043078L188.859301,895.279638L171.647930,878.721623L171.758266,878.446801L175.470851,869.858618L184.426752,865.163744L182.841176,864.522493L166.318195,861.453649L142.924008,855.751095Z " data-admincode1="B5" data-admincode2="49" data-admincode3="491" data-admincode4="49007" data-cartodb-id="5" data-countrycod="FR" data-created-at="2014-01-17T00:00:00Z" data-fclass="P" data-fcode="PPLX" data-geonameid="" data-lat="47.4753582782" data-lng="-0.592600321511" data-name="Belle Beille" data-parents="3037656" data-updated-at="2014-01-17T00:00:00Z"/><path d="M1151.148707,1107.670963L1153.517400,1108.976365L1154.472344,1106.846499L1156.142477,1103.479936L1159.630207,1096.220069L1163.888242,1087.586094L1168.660379,1077.829931L1172.900315,1069.127250L1176.938144,1060.905506L1182.132247,1050.324876L1186.849219,1040.683220L1192.392235,1029.301026L1197.145908,1019.567761L1202.174886,1009.261950L1206.231217,1000.902792L1209.828369,993.597116L1210.397019,992.543633L1218.907142,977.222325L1226.518419,963.549945L1253.137173,919.692975L1273.520376,886.851769L1280.595514,875.538269L1299.731471,844.826925L1300.666233,843.338306L1301.564371,841.895491L1305.121250,835.826507L1306.073238,834.704318L1308.343372,832.024804L1309.588082,830.627792L1310.649554,829.505603L1312.882233,827.169617L1321.427189,818.741744L1332.039330,808.413019L1334.857105,805.641898L1338.461542,802.137917L1340.163493,800.351575L1352.861607,787.892978L1360.324415,781.411760L1361.623008,780.312472L1363.250684,778.984165L1364.056471,777.930681L1372.089132,769.915039L1373.937155,768.082892L1381.146819,760.731403L1451.295869,698.209382L1530.673144,616.289475L1536.989229,608.525747L1537.758125,607.586771L1551.452090,590.731008L1559.413847,581.638971L1565.199182,574.424887L1571.168131,566.775667L1574.684458,561.943375L1578.861780,555.576659L1583.424975,548.202261L1590.468541,534.461145L1594.433146,525.758439L1601.976792,509.223295L1605.006547,502.100816L1612.584370,486.390138L1613.905462,483.641914L1618.066350,476.542336L1621.310195,471.206202L1624.828393,465.618147L1627.118705,462.045456L1630.818605,456.732223L1634.920574,451.167069L1638.654853,446.632499L1642.534105,442.464360L1643.686834,441.250561L1644.418193,440.678014L1645.387482,439.830645L1646.210068,439.258098L1650.049069,436.486972L1664.509267,426.043720L1664.911710,425.654388L1665.680044,424.898627L1667.090402,422.860360L1667.695505,421.738169L1668.612314,420.043430L1673.489799,410.997192L1679.084093,399.981392L1692.438783,372.980085L1698.992032,358.093867L1702.168776,350.467543L1708.964072,333.726273L1712.672137,325.252578L1714.876780,319.527109L1715.925096,316.389552L1717.210899,313.137486L1719.270117,307.205899L1720.375842,303.060660L1720.986393,299.877298L1721.340905,296.922956L1721.564291,295.251119L1724.243808,261.883081L1724.623256,242.691304L1724.220381,236.393287L1723.194606,224.209485L1722.289117,214.819713L1722.310835,213.514306L1721.833711,207.697228L1720.901028,201.674032L1719.963899,197.322674L1719.512727,195.467622L1717.813728,189.467328L1716.131334,184.085385L1714.882661,180.260770L1711.948497,172.222208L1702.642214,145.495707L1700.088485,138.487730L1695.520861,127.288707L1689.194181,112.127657L1688.469438,110.249702L1683.344282,96.073433L1681.516585,90.485372L1679.200903,83.179669L1676.039471,71.499705L1674.808941,67.743795L1673.903309,65.293293L1673.341981,63.713063L1671.691179,60.209073L1670.874871,58.468530L1667.897374,53.063683L1665.408725,49.055852L1659.774491,41.108896L1653.847710,33.413861L1651.120205,30.047283L1647.917576,26.978429L1647.480654,26.634901L1639.579081,20.634605L1633.496712,16.558068L1628.561107,13.443411L1624.462492,11.153222L1622.786560,10.237146L1615.388978,6.801862L1609.338953,4.282654L1599.242303,0.503842L1597.948136,0.091608L1595.047688,0.000000L1587.674773,0.961879L1583.805262,1.671838L1579.187091,2.633718L1572.157510,4.809397L1570.623579,5.359043L1565.746895,7.466017L1561.179413,9.916519L1557.944750,11.977690L1554.362403,14.428192L1552.407005,15.664894L1550.743936,16.741283L1547.837705,18.779552L1546.411736,19.878843L1542.681500,23.039304L1535.419079,30.322105L1527.002993,39.185137L1507.223812,60.460994L1506.400167,61.445775L1494.536961,76.606827L1490.235010,81.988771L1487.690009,85.332447L1486.591385,86.798168L1483.311502,92.019798L1475.175357,105.165483L1474.698703,106.012853L1473.634804,108.119826L1472.386777,110.845151L1466.097235,129.189563L1465.710481,130.517873L1465.561838,131.502654L1464.833738,137.571654L1464.556510,138.877062L1464.132453,140.503096L1463.856414,141.373368L1463.341887,142.724579L1462.405931,144.739945L1461.049044,147.236251L1458.172069,151.862432L1451.906572,161.366715L1442.336139,171.855778L1441.952195,172.153503L1436.795773,176.367450L1431.384233,180.466887L1426.229483,184.062483L1419.521567,188.528351L1414.203476,191.803320L1409.836535,194.185116L1406.950025,195.605033L1398.421091,198.811297L1392.396035,200.414429L1363.535483,206.277311L1334.058267,210.788982L1320.424214,212.758544L1309.638251,214.018148L1292.702434,215.804494L1283.924682,216.583158L1280.202238,216.789275L1274.272531,216.880883L1260.498024,216.857981L1253.091346,216.651864L1242.839556,216.079317L1232.497381,215.209045L1222.028653,213.926540L1209.680819,212.621133L1185.296556,209.575182L1181.776733,209.094243L1155.698628,205.040609L1146.361885,203.483281L1141.055674,202.452696L1128.091483,199.773176L1109.492980,195.971463L1104.403322,195.788248L1092.095655,193.223237L1079.879421,190.589520L1068.357011,187.772588L1060.171697,185.528204L1033.919754,178.566031L1021.485860,175.520080L1005.354301,170.412959L1002.146724,169.222061L1000.470156,168.557907L996.188862,166.428031L993.930055,165.214231L988.685632,161.756047L989.004448,165.099722L989.371634,170.664880L989.338103,176.001020L989.112218,178.428619L986.318614,191.940731L985.665493,197.024950L985.413221,202.292383L985.456666,206.231507L986.704639,216.399943L987.323511,223.270508L987.589502,225.950029L987.947306,228.423432L988.181729,229.385311L988.742192,231.171658L990.066894,233.667963L990.920780,234.927566L994.811215,239.782765L995.010529,240.263705L996.424101,243.584478L997.291910,246.355605L997.995388,249.172537L1000.752902,267.402434L995.387446,267.929177L991.903294,267.723060L986.719495,268.524626L985.146510,263.532016L983.826986,259.226463L981.601666,252.676525L979.212153,246.126587L977.114547,245.943372L976.257116,245.920470L975.654978,245.943372L974.414082,246.034979L972.351915,246.218194L958.463881,247.569405L940.288349,248.920616L940.318576,251.096295L940.403867,253.157464L940.903843,256.936275L941.403556,260.806692L941.563144,262.409824L941.682158,265.432872L941.642308,266.600868L941.678336,266.761181L941.639935,267.425336L941.584147,267.791766L941.510443,268.043687L940.754566,270.769010L940.662683,270.998029L940.460739,271.433165L940.259058,271.776693L940.112573,271.959908L939.929598,272.143123L939.746623,272.326338L939.636957,272.395044L938.214394,272.211829L936.700410,272.097319L936.426738,272.097319L935.641951,272.188927L935.368213,272.211829L931.190628,272.051516L930.843912,272.074417L930.478951,272.097319L930.186837,272.166025L928.415909,272.578259L927.977771,272.669866L925.841485,273.242413L925.348415,273.402726L924.234429,273.769157L923.702558,274.731035L923.447264,274.685232L923.192101,274.593624L922.900317,274.547820L922.571977,274.524919L922.170527,274.547820L921.933345,274.547820L921.641429,274.547820L921.367691,274.570722L921.039088,274.639428L920.692173,274.731035L916.876640,275.555503L916.602770,275.624209L915.963873,275.738718L914.649391,276.036443L914.393832,276.082246L912.257807,276.563186L908.789648,277.135733L904.080380,277.868593L901.469922,278.372434L896.686282,279.586234L889.456181,281.372581L886.279864,281.968029L886.351320,282.494773L885.538302,292.342581L884.410346,303.839323L883.088469,319.298091L883.214991,319.710324L883.559327,320.511890L883.813034,321.107339L884.048893,321.565376L884.648460,322.435648L885.410576,323.878466L888.473119,331.092557L892.836012,342.909925L893.542804,344.558860L902.122208,362.055892L909.126187,375.453487L910.033229,377.262735L917.451976,398.698887L921.327771,408.661201L922.199591,410.035313L929.684525,421.211426L930.665429,422.722949L932.334717,425.952113L936.695700,438.525238L941.070743,452.564083L942.582693,459.755269L942.143412,460.236208L941.357398,460.740049L940.827547,460.991970L940.480484,461.129381L939.623463,460.946166L938.164663,460.648442L932.604207,459.091115L931.255345,458.633078L928.649113,457.625395L920.194337,453.732078L918.110699,454.991681L911.270231,460.740049L894.548982,476.198808L890.634387,479.656990L889.426986,480.756279L888.604137,481.374630L883.594251,485.016026L882.003948,486.023708L875.058861,490.054436L874.482233,493.856145L871.630172,495.825706L854.073597,509.795842L851.843005,511.376070L851.148529,511.765402L847.678073,513.047906L845.979535,513.620452L842.163865,514.399116L840.119850,514.559429L838.513406,514.834251L812.507549,516.666400L811.284734,516.780909L810.225999,516.941222L809.313099,517.147339L808.217539,517.422161L806.774704,517.903101L806.226724,518.109217L804.892563,518.864979L803.649832,519.552035L802.571449,520.193287L799.061603,522.460571L798.037355,523.307940L797.031486,524.109505L796.116846,524.911070L795.311482,525.781341L794.139793,527.132550L793.663191,527.888312L793.112936,528.873092L791.974931,531.186180L791.460633,532.354174L790.190825,536.064276L790.042851,536.751331L789.837465,538.354462L789.779050,539.614064L789.808056,542.179072L790.502544,548.041948L793.768819,566.729863L786.541533,598.586343L761.766069,622.450073L782.988427,634.381937L806.524381,647.642108L786.496895,663.879517L793.045142,670.933286L787.297472,677.162588L780.027099,673.704409L765.819659,696.331431L762.335237,696.079511L759.549846,700.133137L747.876906,717.080500L722.261128,734.692015L723.477294,736.867689L718.235530,738.516622L725.318287,749.967540L719.178423,752.967681L741.106242,785.900519L742.207125,783.839354L742.952044,784.938642L750.652837,797.259828L759.988451,812.146017L764.403368,818.718842L774.011338,834.108870L798.477498,872.996167L808.521245,889.233558L809.156920,890.264140L825.394957,916.257703L827.828676,920.219717L838.145681,936.709023L851.260188,957.618377L853.313207,960.733023L855.349310,963.389633L857.167963,965.519501L859.914559,968.588343L865.901864,974.245090L878.786895,986.268538L881.171008,988.490013L888.395963,995.291850L902.991613,1009.010030L920.371885,1025.339014L937.010946,1007.567216L946.651870,1005.574759L978.936354,1030.033883L998.442236,1043.454337L1006.841393,1054.561708L1007.364522,1056.691575L1009.113850,1057.584745L1020.265983,1037.637280L1052.283284,1040.820630L1061.909332,1044.072686L1060.525065,1049.569117L1058.376950,1054.149476L1055.514721,1059.577202L1053.348345,1064.157561L1052.448425,1066.172918L1051.421153,1068.050866L1049.696582,1071.280018L1048.558055,1073.776314L1047.786262,1075.654261L1047.016228,1076.913859L1049.790246,1076.845154L1073.114270,1076.135198L1087.641571,1075.700064L1092.295477,1075.539752L1095.411292,1077.211583L1123.908498,1092.784801L1137.920410,1100.411096L1151.148707,1107.670963Z " data-admincode1="B5" data-admincode2="49" data-admincode3="491" data-admincode4="49007" data-cartodb-id="6" data-countrycod="FR" data-created-at="2014-01-17T00:00:00Z" data-fclass="P" data-fcode="PPLX" data-geonameid="" data-lat="47.5026275997" data-lng="-0.55133222765" data-name="Les Hauts de St Aubin" data-parents="3037656" data-updated-at="2014-01-17T00:00:00Z"/><path d="M728.249841,1535.956592L724.308426,1548.117399L722.729462,1557.530000L721.520623,1565.202071L721.242419,1566.713583L721.112040,1567.606750L720.446660,1570.446561L719.042423,1576.286495L718.506682,1578.485058L717.840291,1581.668394L717.673810,1582.424150L717.360983,1583.294415L717.067078,1583.935662L715.250778,1587.141900L713.838292,1589.569480L712.297506,1592.180274L710.812145,1594.562050L707.292190,1599.898145L705.789042,1602.119610L702.435557,1606.699949L697.984211,1612.219257L697.837525,1612.448274L693.222709,1617.692762L692.673411,1618.288206L692.105995,1618.837846L691.063094,1619.708110L689.306831,1621.105114L685.794976,1623.670103L683.252811,1625.433533L682.649563,1625.754157L681.826757,1626.257994L681.607535,1626.326699L680.913164,1626.601519L680.219603,1626.601519L679.745667,1626.395404L664.027268,1640.044811L641.474402,1656.465319L604.468015,1678.313523L558.429757,1705.177188L558.355999,1705.429106L557.058604,1705.932943L555.377098,1706.711600L552.325461,1707.902487L543.482186,1711.017114L529.598385,1715.116513L523.547232,1718.368550L507.383054,1728.170465L522.152914,1732.979815L523.921116,1733.735570L524.868997,1734.147800L531.598167,1736.117343L535.701353,1737.308229L537.123588,1737.789164L538.016579,1738.247198L541.678779,1740.422856L548.110678,1744.155827L551.717111,1746.675010L560.131503,1752.766852L562.027147,1753.637115L574.386453,1758.927399L594.473532,1774.157002L615.035414,1789.363701L630.660384,1801.409969L637.906064,1807.776628L651.763867,1818.746517L659.434430,1823.418453L665.922844,1826.647585L697.183846,1841.029816L705.889406,1847.579685L711.830928,1850.602701L715.186412,1851.633275L718.139732,1852.869964L717.754745,1853.442505L721.564471,1855.183029L721.821621,1854.633390L725.139264,1856.121996L730.952375,1859.374029L740.646444,1864.984929L743.999604,1866.817060L745.785367,1867.847634L748.627788,1869.565256L754.877472,1873.344026L760.507909,1876.664762L762.895560,1877.855647L764.116430,1878.565598L765.245903,1879.321352L765.664851,1879.619073L767.558807,1881.107679L771.419469,1884.176497L778.302445,1889.879003L779.849673,1891.344707L785.054002,1896.841098L790.185401,1902.314587L798.211518,1910.375958L801.233863,1913.009645L808.771923,1919.445001L818.930812,1928.514043L826.194674,1935.109709L826.376740,1935.270020L826.813421,1935.750954L827.286342,1936.323494L827.413782,1936.438002L828.668998,1937.903706L837.102831,1943.903929L838.870008,1945.071912L839.689545,1945.713157L840.563510,1946.468910L844.258565,1950.041562L845.041332,1950.774414L849.485644,1954.049344L850.488049,1954.576081L861.206273,1959.660239L863.375370,1960.713713L867.002416,1962.568744L878.026562,1969.187309L880.869060,1970.927831L887.880284,1976.584528L904.050834,1989.936164L911.553131,1996.234105L926.317412,2009.906360L931.579137,2014.624089L936.622491,2019.112802L938.625785,2020.715914L940.647466,2022.273222L946.296432,2025.639757L957.794859,2032.487333L958.179630,2031.983498L962.283478,2026.739033L969.996064,2017.028757L973.548732,2013.020977L977.613933,2008.509363L977.632580,2008.371953L977.960227,2008.692575L982.768166,2012.540044L983.280773,2012.013307L988.069684,2016.135595L989.253223,2017.166166L992.310866,2020.303685L992.766487,2020.555603L992.693146,2020.670111L993.239904,2020.967831L992.946799,2021.334257L994.820383,2023.624416L999.156184,2026.624525L1003.585549,2028.823078L1003.749570,2028.914684L1003.931911,2028.983389L1006.776020,2030.197174L1009.966625,2031.525466L1014.816555,2033.472101L1014.998896,2033.540806L1015.162983,2033.609511L1015.345390,2033.655314L1015.198577,2033.930133L1019.136089,2035.785162L1021.068893,2036.518013L1021.305996,2036.586718L1023.677803,2036.998946L1024.298299,2037.044750L1024.411734,2035.670654L1024.522626,2035.189721L1024.982294,2034.021740L1026.433528,2030.792615L1028.544499,2026.647427L1029.260172,2025.319134L1031.441545,2022.090009L1039.356742,2011.669783L1046.996399,2001.844997L1049.451349,1998.684576L1050.422688,1997.310480L1052.091497,1994.585189L1055.357328,1988.699478L1061.243397,1979.286918L1063.169231,1976.034890L1068.839076,1965.614658L1069.187643,1964.996314L1070.069711,1962.912268L1072.166300,1957.370078L1072.479917,1956.202096L1073.459350,1951.965298L1073.773809,1950.499594L1075.012678,1944.888699L1080.228317,1933.689808L1081.678685,1930.735500L1086.927354,1920.750393L1087.312679,1920.040443L1087.917754,1919.078575L1088.650730,1918.070904L1089.273669,1917.246445L1091.047200,1916.192971L1094.225181,1915.505922L1097.256943,1914.887578L1106.189172,1912.597416L1106.922530,1911.452335L1107.252508,1910.948499L1112.624129,1902.635209L1112.880641,1902.291685L1113.265119,1901.879456L1113.539496,1901.673341L1113.978409,1901.375620L1114.398939,1901.123702L1114.472016,1901.100800L1114.947176,1900.894686L1115.257672,1900.825981L1115.969927,1900.688571L1116.517776,1900.596965L1117.102131,1900.505358L1117.722604,1900.551161L1118.452337,1900.688571L1119.036175,1900.780178L1121.933976,1895.879230L1122.190681,1895.467000L1125.380844,1890.451544L1126.516467,1889.054544L1128.660779,1885.962824L1134.896832,1888.252987L1137.795697,1889.443872L1138.434034,1889.627085L1143.468821,1890.703462L1144.070782,1890.840871L1148.339784,1891.619527L1149.324929,1891.802740L1149.379688,1891.802740L1153.996852,1892.100461L1157.008206,1892.237871L1157.920790,1892.260772L1160.695306,1892.237871L1166.320373,1891.115691L1168.969432,1890.268331L1174.923946,1888.825528L1193.244168,1884.359710L1198.504603,1883.077219L1199.362939,1882.916908L1199.490773,1882.894006L1200.367170,1882.802399L1202.302429,1882.642088L1202.795065,1882.710793L1203.524926,1882.802399L1203.907853,1882.939809L1204.892293,1883.374940L1205.238394,1883.626858L1205.438535,1883.855874L1205.532940,1882.733695L1205.751270,1882.985613L1205.969728,1883.191727L1206.096858,1883.420744L1206.205543,1883.718465L1206.277786,1883.993284L1206.313843,1884.153596L1206.312754,1884.542923L1206.312113,1884.771940L1206.311280,1885.069661L1205.904142,1887.062103L1203.611874,1897.390737L1197.310590,1924.895587L1195.260057,1933.621104L1194.613050,1936.529609L1194.167854,1939.071688L1193.424191,1943.903929L1192.255312,1950.659906L1192.144959,1950.957627L1194.809359,1951.163741L1206.707864,1952.102707L1221.782510,1953.018772L1225.670523,1952.995870L1235.710401,1952.789756L1243.814792,1952.812657L1246.133086,1952.766854L1247.483957,1952.721051L1250.478387,1952.400428L1254.203649,1951.827888L1255.226661,1951.530167L1257.492298,1950.728610L1258.734476,1950.385086L1261.620339,1949.720939L1269.802066,1948.186531L1273.546147,1947.407876L1279.226724,1946.033780L1281.199664,1945.461239L1283.226981,1945.026108L1285.053259,1944.682584L1288.705113,1944.247454L1292.301699,1943.995536L1297.869380,1943.835225L1309.697601,1943.789421L1324.191681,1943.422995L1325.396457,1943.400094L1338.317595,1944.178749L1354.888502,1945.278026L1355.892115,1945.392534L1370.214732,1947.636893L1377.605158,1948.415547L1387.406653,1948.598760L1397.354678,1948.598760L1399.928262,1948.644564L1400.804795,1948.507154L1407.432987,1947.682696L1410.281248,1947.407876L1412.728564,1946.904041L1416.710344,1945.965075L1420.564537,1944.957404L1422.976346,1944.087142L1424.767294,1943.308487L1426.193427,1942.438226L1427.308879,1941.705374L1430.363744,1939.300705L1432.303782,1937.399870L1434.043785,1935.224217L1436.133663,1931.926384L1440.898509,1924.964292L1442.379641,1924.002424L1442.946114,1923.773407L1444.316412,1923.292473L1445.704525,1922.971851L1456.024477,1920.429771L1459.111002,1919.788525L1459.859567,1919.719820L1462.178211,1919.536607L1463.109494,1919.399198L1473.681350,1918.185412L1475.653433,1917.910592L1482.793199,1916.880019L1489.859389,1916.055561L1493.218953,1915.689135L1501.763825,1914.795972L1506.219131,1914.223431L1506.383658,1914.131825L1491.254704,1872.794386L1486.652607,1860.244291L1484.871994,1850.533997L1475.987113,1835.579225L1462.335904,1808.143054L1454.130753,1791.653866L1448.514694,1782.882533L1447.178151,1777.706759L1439.428009,1761.744303L1439.210171,1761.309172L1426.196102,1734.697440L1410.042020,1701.741937L1402.799056,1687.313882L1339.033711,1572.461910L1298.897216,1606.012898L1267.721524,1633.013992L1266.324460,1636.586656L1078.208122,1545.140177L1074.571918,1559.499547L1068.953306,1571.385530L1064.481778,1577.798007L1058.842730,1584.004367L1051.048170,1590.851975L1021.301249,1609.035922L1013.639093,1614.211704L1007.748170,1619.089765L998.010917,1628.685573L990.060771,1638.808119L983.439224,1650.236061L979.334712,1655.869875L973.351039,1661.228869L966.784077,1666.313042L959.430560,1671.992659L953.279541,1678.405129L929.566290,1660.770835L912.483042,1647.945892L908.473203,1646.022151L896.162720,1636.426344L892.111169,1629.990969L888.262317,1622.891446L884.286315,1615.585806L883.741679,1614.578131L880.528091,1608.715298L878.928441,1606.470932L878.692164,1606.127407L874.213016,1602.417332L869.455468,1600.310376L865.773372,1598.684356L863.644642,1596.371284L863.328775,1591.997060L857.481268,1588.126673L749.836169,1543.834780L728.249841,1535.956592Z " data-admincode1="B5" data-admincode2="49" data-admincode3="491" data-admincode4="49007" data-cartodb-id="9" data-countrycod="FR" data-created-at="2014-01-17T00:00:00Z" data-fclass="P" data-fcode="PPLX" data-geonameid="" data-lat="47.4488010238" data-lng="-0.560839352498" data-name="La Roseraie" data-parents="3037656" data-updated-at="2014-01-17T00:00:00Z"/><path d="M133.804442,1307.786637L134.813814,1311.863149L136.633872,1319.352022L138.062152,1323.703355L138.460462,1324.733934L143.752204,1336.780254L143.824779,1336.917664L144.188010,1337.490208L144.315194,1337.673422L144.442520,1337.810833L144.551737,1337.902440L144.970073,1338.360475L145.224938,1338.566590L145.880455,1339.047527L146.135249,1339.276544L146.372359,1339.322348L146.645828,1339.413955L150.439029,1340.330025L153.977225,1341.085783L155.145307,1341.062881L156.076208,1341.017077L166.008972,1339.505562L166.410688,1339.436857L163.932056,1344.246224L159.213797,1353.292413L155.138170,1361.079006L155.281198,1362.040880L155.599719,1365.270025L155.863419,1368.522073L156.186119,1370.400016L156.996481,1373.926884L157.518945,1376.125451L158.240677,1378.804955L158.403231,1379.354597L158.381937,1380.339371L158.342109,1381.415753L158.282757,1382.904366L158.245194,1383.247892L158.390065,1383.614320L159.588433,1385.606771L160.369166,1386.912171L160.969802,1387.438911L161.497790,1387.851142L161.989914,1388.057258L162.518468,1388.286275L162.864943,1388.377882L163.831720,1388.538194L170.088430,1389.568772L174.502770,1390.301628L179.646847,1391.126090L182.383069,1391.561223L185.319976,1392.019258L187.910196,1392.454391L190.099190,1392.797917L193.492148,1393.324657L195.389135,1393.668183L197.979287,1394.126218L200.623980,1394.652958L203.560469,1395.248403L206.022659,1395.775143L207.992439,1396.187374L210.053402,1396.622507L211.494272,1396.920230L213.719630,1397.309560L215.652982,1397.698889L217.221606,1397.996612L218.279500,1398.202727L219.319142,1398.408843L219.775123,1398.500450L220.103279,1398.614959L221.069216,1399.050092L221.451984,1399.210404L221.670567,1399.347814L222.106537,1400.011964L221.681498,1401.729595L221.607088,1402.187629L221.606032,1402.531155L221.034636,1404.363294L220.261076,1406.653468L219.505907,1408.897838L218.935213,1410.500959L217.996340,1413.134659L217.793683,1413.753005L217.572705,1414.394254L217.002220,1415.928670L216.615297,1417.119560L216.210264,1418.264647L215.786839,1419.455537L214.958169,1421.860219L214.277193,1423.715259L213.447676,1426.394762L213.097181,1427.608554L212.709622,1429.005559L212.303811,1430.402565L211.584570,1432.830148L211.381347,1433.631709L211.215542,1434.135547L211.196023,1434.547778L211.121330,1435.097419L211.119709,1435.624159L210.985967,1437.570806L211.002809,1438.028841L209.505831,1438.166251L209.359756,1438.189153L208.848807,1438.166251L207.698592,1438.303661L203.098296,1438.670089L194.153351,1439.357141L193.824769,1439.380043L192.583370,1439.494551L192.272756,1439.609060L192.071645,1439.723569L186.112253,1442.861105L182.310035,1444.830654L168.088006,1452.273715L167.100839,1452.800455L160.483314,1456.281517L139.534905,1466.953721L139.189416,1466.541490L138.170987,1465.373502L137.825569,1464.938369L137.334286,1464.457433L137.261425,1464.411630L135.951126,1463.197838L134.421890,1461.961145L132.965303,1460.838961L131.708766,1459.945793L131.526542,1459.854186L130.123928,1458.983921L129.723121,1458.754904L127.609367,1457.678523L127.390642,1457.586916L125.603771,1457.037274L123.780753,1456.373124L122.395542,1455.777679L120.755602,1454.930315L119.425996,1454.060050L119.280274,1453.968443L118.260718,1453.166883L116.713597,1451.815681L114.622223,1449.410999L111.798905,1447.624665L110.432660,1446.800203L106.060668,1444.166504L103.856316,1442.884007L102.927238,1442.334366L99.228326,1440.410621L98.809272,1440.181603L95.748141,1438.578482L94.181288,1437.708217L90.263733,1435.669963L86.528690,1433.631709L80.371091,1430.059039L79.381993,1431.204125L78.797260,1431.433143L73.205505,1433.700414L69.258443,1435.280633L65.311306,1436.883754L61.382487,1438.463974L56.156224,1440.570933L44.296588,1445.357394L41.007313,1446.685694L39.733984,1445.334492L27.063664,1464.228416L24.314010,1468.075905L21.215936,1472.450134L24.914124,1474.602896L27.156329,1475.450260L27.263686,1476.137311L26.477968,1476.435034L25.801827,1476.709855L25.655390,1476.847265L25.545384,1477.007577L25.160468,1477.534316L25.068712,1477.694629L23.711988,1479.664177L22.960549,1480.671852L20.759194,1484.267422L18.980615,1486.901120L17.660385,1488.870668L17.293647,1489.420309L15.698433,1491.779186L14.488279,1493.565520L6.602276,1505.726332L4.561561,1510.466987L0.490666,1516.581744L5.216858,1522.673600L11.803677,1529.086079L33.187350,1554.575680L51.863303,1576.401003L62.027773,1588.607609L66.925193,1598.386634L70.970732,1612.127650L70.893077,1625.341926L69.033962,1636.243130L82.046894,1630.540610L82.412425,1630.380298L82.722988,1630.288691L83.325791,1630.128380L88.824591,1628.502360L94.067435,1627.013750L96.405849,1626.303797L99.329666,1625.158713L102.052642,1624.036530L104.996412,1622.341805L117.558274,1614.921657L117.814151,1614.807148L117.814223,1614.784247L125.144101,1611.234484L128.452101,1609.791678L137.809366,1605.760979L143.164359,1603.402105L148.061996,1601.386756L150.401374,1600.356179L160.840521,1594.676559L162.173656,1594.424640L162.809486,1595.386511L164.318133,1597.401861L164.463438,1597.630878L164.844809,1598.249223L164.917249,1598.432437L165.097713,1599.096586L165.188122,1599.371406L165.460338,1599.875244L166.260080,1600.951623L169.477375,1605.234240L171.713476,1608.096952L172.568259,1609.081725L172.840901,1609.448152L173.367299,1610.387122L173.530502,1610.730647L174.490909,1612.975013L175.941566,1616.043840L177.393215,1618.792043L177.938219,1619.616504L178.465467,1620.280653L178.883912,1620.715785L179.029500,1620.853195L179.757799,1621.425737L180.777981,1622.044083L181.470271,1622.456313L181.980610,1622.685330L182.181166,1622.754035L184.825036,1623.601398L185.063648,1623.166266L185.614867,1621.975378L186.257908,1620.601276L187.634965,1617.944680L187.708465,1617.784368L188.680386,1616.295758L188.772208,1616.112545L189.780561,1614.646837L192.403162,1610.547433L192.861920,1609.745874L193.668514,1608.600789L194.071812,1608.028247L194.291606,1607.776329L195.243930,1606.722851L195.701769,1606.219013L196.594190,1606.837359L196.903831,1607.043474L197.559757,1607.409901L198.926648,1608.051149L199.637682,1608.303067L200.239348,1608.509183L200.695143,1608.669495L202.318331,1609.058823L203.777678,1609.310742L204.726335,1609.448152L206.094707,1609.608464L208.247755,1609.814579L210.218569,1609.929088L210.510523,1609.951989L210.802548,1609.951989L211.131075,1609.951989L211.331842,1609.951989L211.642118,1609.951989L211.897640,1609.951989L212.262741,1609.929088L212.664345,1609.906186L213.303290,1609.860383L213.504127,1609.837481L213.613707,1609.814579L214.179646,1609.768776L214.435308,1609.722972L214.490063,1609.722972L214.727403,1609.700071L215.220476,1609.608464L216.206693,1609.402349L217.320881,1609.127528L218.727657,1608.669495L219.056677,1608.509183L219.330872,1608.371773L220.098633,1607.982444L220.811709,1607.570213L222.256464,1606.631244L223.262760,1605.829685L224.397520,1604.799108L224.782209,1604.341074L224.818852,1604.295271L225.368437,1603.631122L226.101452,1602.669251L226.834536,1601.684478L227.091182,1601.318051L227.788396,1600.127162L228.779531,1598.317928L231.110546,1594.058213L231.844892,1592.661209L233.515614,1589.454972L233.754289,1588.996938L234.782343,1587.050293L235.149550,1586.340341L238.564056,1579.904963L239.500216,1578.164434L243.166636,1578.851485L243.677323,1578.965994L246.449146,1579.744651L249.002235,1580.431702L258.538033,1583.592137L265.848787,1586.225832L268.163705,1587.210605L271.589859,1588.882429L284.583820,1595.203298L285.852469,1598.134715L292.239586,1610.387122L308.220389,1624.838089L310.473260,1628.227539L319.398936,1628.021424L319.472012,1627.998522L319.581522,1627.998522L319.691171,1627.952719L320.020258,1627.769506L320.020328,1627.746604L320.112004,1627.609194L321.082827,1626.464109L321.192685,1626.349601L321.265831,1626.303797L321.393941,1626.189289L321.540233,1626.097682L321.595058,1626.074780L321.741210,1626.028977L321.887293,1626.006075L322.069809,1626.006075L328.658783,1625.960272L345.140205,1625.891567L340.544958,1618.517222L343.538913,1618.288206L379.062802,1616.204152L382.421784,1615.975135L379.870772,1602.531840L376.003098,1571.866466L376.105595,1568.156390L378.624511,1531.925891L378.834222,1528.971570L381.571544,1529.086079L387.795942,1528.834160L393.471904,1528.879964L395.059682,1528.902865L398.620383,1528.330323L398.656747,1528.376126L409.626849,1527.986797L409.754676,1527.963895L417.124674,1529.108981L426.409042,1530.918216L430.038809,1531.651071L429.268878,1532.773254L429.834387,1532.864861L435.196912,1533.964143L436.637856,1534.261866L444.225717,1535.796280L444.572282,1535.864985L444.918917,1535.910789L445.064857,1535.933690L445.411422,1536.002395L456.357506,1537.536810L459.768960,1538.040648L461.812610,1538.200959L464.677425,1538.407075L465.042311,1538.452878L465.224685,1538.498682L465.352443,1538.498682L465.844950,1538.590289L469.036842,1539.277340L471.499169,1539.804079L473.961497,1540.330818L485.088745,1542.323267L485.307690,1542.346169L498.512500,1545.369194L506.154616,1547.086822L505.867410,1551.575557L505.349671,1559.911777L505.209022,1564.217298L504.787555,1576.973546L503.497897,1617.578253L503.478411,1617.990484L503.336662,1622.662429L503.316422,1623.326578L508.561028,1627.288570L523.384044,1638.602004L523.584402,1638.739414L523.657204,1638.808119L539.891507,1648.174909L544.391899,1650.785701L546.104626,1651.770474L546.250094,1651.953687L540.137473,1657.495895L525.148758,1671.053690L513.816753,1682.458726L510.138185,1685.779469L508.728949,1687.061963L503.824680,1691.321675L504.457466,1693.337023L512.657323,1691.756807L515.433606,1691.092658L533.388811,1686.558126L538.758704,1685.275633L545.545842,1692.260644L546.419204,1693.176711L546.710143,1693.543138L547.584394,1694.161483L558.429757,1705.177188L604.468015,1678.313523L641.474402,1656.465319L664.027268,1640.044811L679.745667,1626.395404L680.219603,1626.601519L680.913164,1626.601519L681.607535,1626.326699L681.826757,1626.257994L682.649563,1625.754157L683.252811,1625.433533L685.794976,1623.670103L689.306831,1621.105114L691.063094,1619.708110L692.105995,1618.837846L692.673411,1618.288206L693.222709,1617.692762L697.837525,1612.448274L697.984211,1612.219257L702.435557,1606.699949L705.789042,1602.119610L707.292190,1599.898145L710.812145,1594.562050L712.297506,1592.180274L713.838292,1589.569480L715.250778,1587.141900L717.067078,1583.935662L717.360983,1583.294415L717.673810,1582.424150L717.840291,1581.668394L718.506682,1578.485058L719.042423,1576.286495L720.446660,1570.446561L721.112040,1567.606750L721.242419,1566.713583L721.520623,1565.202071L722.729462,1557.530000L724.308426,1548.117399L728.249841,1535.956592L745.927365,1488.756159L786.074296,1415.401930L789.450290,1409.264266L753.749765,1403.882358L717.435150,1396.347687L679.783042,1384.438783L644.520922,1366.712835L608.032265,1344.223322L589.686781,1333.299188L561.677394,1319.512335L529.735988,1308.565297L500.974798,1302.198609L468.881346,1299.450399L431.522980,1299.679416L361.979843,1303.229188L272.976813,1308.496592L236.543257,1310.626455L193.523937,1311.931855L151.627330,1310.168420L133.804442,1307.786637Z " data-admincode1="B5" data-admincode2="49" data-admincode3="491" data-admincode4="49007" data-cartodb-id="10" data-countrycod="FR" data-created-at="2014-01-17T00:00:00Z" data-fclass="P" data-fcode="PPLX" data-geonameid="" data-lat="47.4618711633" data-lng="-0.595303671701" data-name="Lac de Maine" data-parents="3037656" data-updated-at="2014-01-17T00:00:00Z"/></g><g fill="#000" font-family="Arial" font-size="12px" id="mylayer-label" stroke="none"><text text-anchor="middle" y="1162.34780113"><tspan dy="0" x="1714.35815138"><![CDATA[Deux Croix - Banchais]]></tspan></text><text text-anchor="middle" y="1042.98544951"><tspan dy="0" x="1390.99646126"><![CDATA[St Serge - Ney - Chalouère]]></tspan></text><text text-anchor="middle" y="833.294666142"><tspan dy="0" x="1634.17942113"><![CDATA[Montplaisir]]></tspan></text><text text-anchor="middle" y="1396.71601957"><tspan dy="0" x="1123.22685612"><![CDATA[Centre Ville - La Fayette - Eblé]]></tspan></text><text text-anchor="middle" y="1078.53352861"><tspan dy="0" x="857.80914115"><![CDATA[Doutre - St Jacques - Nazareth]]></tspan></text><text text-anchor="middle" y="1585.30766"><tspan dy="0" x="1601.85678504"><![CDATA[Madeleine - St Léonard - Justices]]></tspan></text><text text-anchor="middle" y="1160.75495474"><tspan dy="0" x="459.79153706"><![CDATA[Belle Beille]]></tspan></text><text text-anchor="middle" y="536.250738131"><tspan dy="0" x="1214.62818107"><![CDATA[Les Hauts de St Aubin]]></tspan></text><text text-anchor="middle" y="1768.96082034"><tspan dy="0" x="1037.67123398"><![CDATA[La Roseraie]]></tspan></text><text text-anchor="middle" y="1469.63188748"><tspan dy="0" x="409.517487595"><![CDATA[Lac de Maine]]></tspan></text></g></svg>