<?xml version="1.0" encoding="utf-8"?><!DOCTYPE svg  PUBLIC '-//W3C//DTD SVG 1.1//EN'  'http://www.w3.org/Graphics/SVG/1.1/DTD/svg11.dtd'><svg enable_background="new 0 0 2000 1161" height="1161px" pretty_print="False" style="stroke-linejoin: round; stroke:#000; fill: none;" version="1.1" viewBox="0 0 2000 1161" width="2000px" xmlns="http://www.w3.org/2000/svg" xmlns:xlink="http://www.w3.org/1999/xlink"><defs><style type="text/css"><![CDATA[path { fill-rule: evenodd; }]]></style></defs><metadata><views><view h="1161.15222566" padding="0" w="2000"><proj flip="auto" id="robinson" lon0="16.7845048175"/><bbox h="2.54" w="4.38" x="226.84" y="-691.15"/></view></views></metadata><g class="" id="mylayer"><path d="M223.917406,343.025823L233.099455,385.088681L225.475573,410.460955L269.890473,415.740724L297.361017,434.927978L336.369904,434.688321L449.647219,368.359078L510.551408,426.360300L572.571885,388.099155L567.990271,347.908185L612.428961,345.010214L609.882097,317.895689L631.814242,284.005927L501.875804,223.508733L469.297413,278.682257L422.796822,268.035044L223.917406,343.025823Z " data-admincode1="13" data-admincode2="BA" data-admincode3="072006" data-admincode4="" data-cartodb-id="1" data-countrycod="IT" data-created-at="2013-12-03T00:00:00Z" data-fclass="P" data-fcode="PPLX" data-geonameid="" data-lat="41.1243024134" data-lng="16.7839130463" data-name="San Paolo" data-parents="3182351" data-updated-at="2013-12-03T00:00:00Z"/><path d="M62.624518,87.791379L45.134773,89.842398L4.295997,100.958431L0.861956,111.123958L18.060856,114.260480L41.330601,125.713772L40.370087,149.811226L150.128171,239.358778L141.134034,259.417063L196.751817,325.675747L223.917406,343.025823L353.502779,294.174176L289.375168,189.152009L62.624518,87.791379Z " data-admincode1="13" data-admincode2="BA" data-admincode3="072006" data-admincode4="" data-cartodb-id="2" data-countrycod="IT" data-created-at="2013-12-03T00:00:00Z" data-fclass="P" data-fcode="PPLX" data-geonameid="" data-lat="41.1407398381" data-lng="16.746929253" data-name="Catino - San Pio" data-parents="3182351" data-updated-at="2013-12-03T00:00:00Z"/><path d="M83.634484,0.000000L79.775472,86.099667L66.026010,87.065289L244.177553,167.373930L277.927296,106.415459L276.216549,97.709687L282.182609,70.619945L273.627450,55.627104L219.686532,37.730435L208.037464,45.469882L194.641781,44.017794L188.463163,25.155889L167.404580,13.547092L164.006192,17.903175L83.634484,0.000000Z " data-admincode1="13" data-admincode2="BA" data-admincode3="072006" data-admincode4="" data-cartodb-id="3" data-countrycod="IT" data-created-at="2013-12-03T00:00:00Z" data-fclass="P" data-fcode="PPLX" data-geonameid="3167267" data-lat="41.1590076428" data-lng="16.7462200674" data-name="Santo Spirito" data-parents="3182351" data-updated-at="2013-12-03T00:00:00Z"/><path d="M282.182609,70.619945L276.216549,97.709687L277.927296,106.415459L244.177553,167.373930L289.375168,189.152009L357.153233,293.208260L422.796822,268.035044L469.297413,278.682257L501.875804,223.508733L423.812095,188.665382L448.562844,135.445478L376.044095,74.976388L353.822779,69.167803L282.182609,70.619945Z " data-admincode1="13" data-admincode2="BA" data-admincode3="072006" data-admincode4="" data-cartodb-id="4" data-countrycod="IT" data-created-at="2013-12-03T00:00:00Z" data-fclass="P" data-fcode="PPLX" data-geonameid="3171607" data-lat="41.1459523247" data-lng="16.7756065692" data-name="Palese" data-parents="3182351" data-updated-at="2013-12-03T00:00:00Z"/><path d="M903.170977,305.308508L915.775563,392.457626L986.452527,388.585924L978.629532,329.996376L979.238416,326.948720L941.294329,328.304064L929.817761,306.274440L927.342162,294.413783L916.787895,294.563537L917.821917,299.962208L903.170977,305.308508Z " data-admincode1="13" data-admincode2="BA" data-admincode3="072006" data-admincode4="" data-cartodb-id="5" data-countrycod="IT" data-created-at="2013-12-03T00:00:00Z" data-fclass="P" data-fcode="PPLX" data-geonameid="" data-lat="41.1226601375" data-lng="16.8662954042" data-name="Murat" data-parents="3182351" data-updated-at="2013-12-03T00:00:00Z"/><path d="M927.342162,294.413783L929.817761,306.274440L941.294329,328.304064L979.238416,326.948720L993.593866,309.666447L968.168514,296.592714L971.381057,287.599988L972.485555,253.996251L962.754142,254.131022L935.489128,293.208260L927.342162,294.413783Z " data-admincode1="13" data-admincode2="BA" data-admincode3="072006" data-admincode4="" data-cartodb-id="6" data-countrycod="IT" data-created-at="2013-12-03T00:00:00Z" data-fclass="P" data-fcode="PPLX" data-geonameid="" data-lat="41.1297172945" data-lng="16.869520729" data-name="Barivecchia" data-parents="3182351" data-updated-at="2013-12-03T00:00:00Z"/><path d="M859.016114,390.518028L631.814242,284.005927L609.882097,317.895689L612.428961,345.010214L567.990271,347.908185L572.571885,388.099155L510.551408,426.360300L597.697269,538.565064L604.685034,562.961836L603.647123,590.063742L616.423942,606.574120L701.908984,533.404178L676.960634,505.308381L706.966801,494.163266L731.658596,483.025826L810.553620,421.514817L830.815220,415.216490L853.035150,413.763614L837.287026,402.140721L848.151740,391.004799L859.016114,390.518028Z " data-admincode1="13" data-admincode2="BA" data-admincode3="072006" data-admincode4="" data-cartodb-id="7" data-countrycod="IT" data-created-at="2013-12-03T00:00:00Z" data-fclass="P" data-fcode="PPLX" data-geonameid="" data-lat="41.1125535156" data-lng="16.8207837812" data-name="Stanic" data-parents="3182351" data-updated-at="2013-12-03T00:00:00Z"/><path d="M958.724762,391.004799L964.625408,416.669369L958.956767,447.667357L959.636326,467.522096L959.769023,515.727134L964.816603,551.336368L955.481373,597.367512L1069.052757,601.727338L1062.045437,557.628478L1035.826561,512.573777L1029.744556,484.478851L1009.294622,427.566059L1009.073722,421.028024L986.452527,388.585924L958.724762,391.004799Z " data-admincode1="13" data-admincode2="BA" data-admincode3="072006" data-admincode4="" data-cartodb-id="8" data-countrycod="IT" data-created-at="2013-12-03T00:00:00Z" data-fclass="P" data-fcode="PPLX" data-geonameid="" data-lat="41.1009869228" data-lng="16.8738196266" data-name="Carrassi" data-parents="3182351" data-updated-at="2013-12-03T00:00:00Z"/><path d="M958.724762,391.004799L956.860510,391.004799L848.151740,391.004799L837.287026,402.140721L853.035150,413.763614L830.815220,415.216490L810.553620,421.514817L731.658596,483.025826L676.960634,505.308381L701.908984,533.404178L728.634281,549.636010L862.391168,589.614282L848.950484,494.650112L853.997167,476.726924L861.902995,465.102947L879.324234,463.410297L905.059160,466.316265L911.032146,468.008923L959.636326,467.522096L958.848560,446.214412L964.625408,416.669369L958.724762,391.004799Z " data-admincode1="13" data-admincode2="BA" data-admincode3="072006" data-admincode4="" data-cartodb-id="9" data-countrycod="IT" data-created-at="2013-12-03T00:00:00Z" data-fclass="P" data-fcode="PPLX" data-geonameid="" data-lat="41.1054896081" data-lng="16.8462960415" data-name="Picone" data-parents="3182351" data-updated-at="2013-12-03T00:00:00Z"/><path d="M862.391168,589.614282L897.986535,596.393671L955.481373,597.367512L964.816603,551.336368L959.769023,515.727134L959.636326,467.522096L911.032146,468.008923L879.324234,463.410297L861.902995,465.102947L853.997167,476.726924L848.950484,494.650112L862.391168,589.614282Z " data-admincode1="13" data-admincode2="BA" data-admincode3="072006" data-admincode4="" data-cartodb-id="10" data-countrycod="IT" data-created-at="2013-12-03T00:00:00Z" data-fclass="P" data-fcode="PPLX" data-geonameid="" data-lat="41.098902391" data-lng="16.8586367724" data-name="Poggiofranco" data-parents="3182351" data-updated-at="2013-12-03T00:00:00Z"/><path d="M979.567460,327.457910L978.629532,329.996376L986.452527,388.585924L1020.414906,384.227478L1082.381548,395.363289L1089.196794,379.869060L1013.872002,349.967475L992.204429,337.379699L995.267172,323.219666L985.262074,331.568882L979.567460,327.457910Z " data-admincode1="13" data-admincode2="BA" data-admincode3="072006" data-admincode4="" data-cartodb-id="11" data-countrycod="IT" data-created-at="2013-12-03T00:00:00Z" data-fclass="P" data-fcode="PPLX" data-geonameid="" data-lat="41.1204053244" data-lng="16.8792053986" data-name="Madonnella" data-parents="3182351" data-updated-at="2013-12-03T00:00:00Z"/><path d="M1069.052757,601.727338L1105.203604,601.727338L1137.078078,579.920999L1148.243048,558.602262L1099.077710,448.154169L1087.386682,455.418949L1020.414906,384.227478L986.452527,388.585924L1009.073722,421.028024L1009.294622,427.566059L1029.744556,484.478851L1035.826561,512.573777L1062.045437,557.628478L1069.052757,601.727338Z " data-admincode1="13" data-admincode2="BA" data-admincode3="072006" data-admincode4="" data-cartodb-id="12" data-countrycod="IT" data-created-at="2013-12-03T00:00:00Z" data-fclass="P" data-fcode="PPLX" data-geonameid="" data-lat="41.1026635325" data-lng="16.8857863202" data-name="San Pasquale" data-parents="3182351" data-updated-at="2013-12-03T00:00:00Z"/><path d="M1093.481642,380.685325L1089.196794,379.869060L1082.381548,395.363289L1020.414906,384.227478L1087.386682,455.418949L1099.077710,448.154169L1148.243048,558.602262L1172.959411,540.677369L1223.592120,528.078545L1332.123739,657.725917L1452.492195,571.516272L1493.776544,572.167971L1515.897614,555.209005L1510.714147,528.565416L1326.202247,434.628407L1179.808374,397.302901L1093.481642,380.685325Z " data-admincode1="13" data-admincode2="BA" data-admincode3="072006" data-admincode4="" data-cartodb-id="13" data-countrycod="IT" data-created-at="2013-12-03T00:00:00Z" data-fclass="P" data-fcode="PPLX" data-geonameid="" data-lat="41.102347649" data-lng="16.9191211258" data-name="Japigia" data-parents="3182351" data-updated-at="2013-12-03T00:00:00Z"/><path d="M1493.776544,572.167971L1511.997602,571.718523L1957.228019,713.227205L1999.138044,654.586876L1784.528670,613.840613L1713.083181,584.685223L1693.219335,566.931920L1560.033880,544.976902L1533.119713,550.849481L1539.766281,537.111923L1510.714147,528.565416L1515.897614,555.209005L1493.776544,572.167971Z " data-admincode1="13" data-admincode2="BA" data-admincode3="072006" data-admincode4="" data-cartodb-id="14" data-countrycod="IT" data-created-at="2013-12-03T00:00:00Z" data-fclass="P" data-fcode="PPLX" data-geonameid="3165476" data-lat="41.0865146488" data-lng="16.9947993478" data-name="Torre a Mare" data-parents="3182351" data-updated-at="2013-12-03T00:00:00Z"/><path d="M869.264135,1159.152226L960.553925,1097.323561L961.411834,1072.119959L957.507891,1059.833368L971.099127,933.007835L958.137080,919.314840L929.218752,866.441716L904.665985,850.921579L905.135053,828.612488L883.137536,840.250291L887.409310,826.184538L888.691984,800.481776L838.836555,823.756595L822.847734,823.277003L829.320642,844.724117L829.415276,866.883869L819.318932,897.835324L815.829228,1010.689311L869.264135,1159.152226Z " data-admincode1="13" data-admincode2="BA" data-admincode3="072006" data-admincode4="" data-cartodb-id="15" data-countrycod="IT" data-created-at="2013-12-03T00:00:00Z" data-fclass="P" data-fcode="PPLX" data-geonameid="3174555" data-lat="41.0388239824" data-lng="16.8501805979" data-name="Loseto" data-parents="3182351" data-updated-at="2013-12-03T00:00:00Z"/><path d="M616.423942,606.574120L671.790291,697.538332L688.704645,712.358089L707.808456,719.858000L745.194608,758.272959L792.672940,782.055832L791.600418,774.780011L805.005452,747.625642L889.895054,766.537673L950.825493,763.630400L968.087965,759.749061L972.994478,775.754112L986.325069,776.233670L997.495060,776.233670L1003.069246,758.295438L1027.730236,775.267061L1041.053147,768.478360L1079.211386,781.081721L1086.619249,809.211611L1173.715417,799.912280L1177.839291,785.652560L1222.261234,730.377499L1323.962720,678.778102L1332.123739,657.725917L1223.592120,528.078545L1172.959411,540.677369L1148.243048,558.602262L1137.078078,579.920999L1105.203604,601.727338L897.986535,596.393671L728.634281,549.636010L701.908984,533.404178L616.423942,606.574120Z " data-admincode1="13" data-admincode2="BA" data-admincode3="072006" data-admincode4="" data-cartodb-id="16" data-countrycod="IT" data-created-at="2013-12-03T00:00:00Z" data-fclass="P" data-fcode="PPLX" data-geonameid="" data-lat="41.0806238115" data-lng="16.8683334051" data-name="Carbonara" data-parents="3182351" data-updated-at="2013-12-03T00:00:00Z"/><path d="M792.672940,782.055832L822.847734,823.277003L838.836555,823.756595L888.691984,800.481776L887.409310,826.184538L883.137536,840.250291L905.135053,828.612488L904.665985,850.921579L929.218752,866.441716L958.137080,919.314840L971.099127,933.007835L1017.318486,925.970184L1030.523032,853.596921L1045.975693,826.686613L1086.619249,809.211611L1079.211386,781.081721L1041.053147,768.478360L1027.730236,775.267061L1003.069246,758.295438L997.495060,776.233670L972.994478,775.754112L968.087965,759.749061L950.825493,763.630400L889.895054,766.537673L805.005452,747.625642L792.672940,782.055832Z " data-admincode1="13" data-admincode2="BA" data-admincode3="072006" data-admincode4="" data-cartodb-id="17" data-countrycod="IT" data-created-at="2013-12-03T00:00:00Z" data-fclass="P" data-fcode="PPLX" data-geonameid="" data-lat="41.0598787571" data-lng="16.8620736537" data-name="Ceglie" data-parents="3182351" data-updated-at="2013-12-03T00:00:00Z"/><path d="M859.016114,390.518028L845.806314,298.771652L801.111806,266.095802L814.255544,235.607742L801.946513,223.748315L763.236771,239.238984L746.472900,238.991909L740.512799,248.193635L696.639241,244.322755L701.719134,316.203407L859.016114,390.518028Z " data-admincode1="13" data-admincode2="BA" data-admincode3="072006" data-admincode4="" data-cartodb-id="19" data-countrycod="IT" data-created-at="2013-12-03T00:00:00Z" data-fclass="P" data-fcode="PPLX" data-geonameid="" data-lat="41.1293690556" data-lng="16.8404835989" data-name="Marconi" data-parents="3182351" data-updated-at="2013-12-03T00:00:00Z"/><path d="M701.719134,316.203407L696.639241,244.322755L571.799242,213.101959L553.340745,247.220297L701.719134,316.203407Z " data-admincode1="13" data-admincode2="BA" data-admincode3="072006" data-admincode4="" data-cartodb-id="20" data-countrycod="IT" data-created-at="2013-12-03T00:00:00Z" data-fclass="P" data-fcode="PPLX" data-geonameid="" data-lat="41.1351730542" data-lng="16.8180826634" data-name="San Girolamo" data-parents="3182351" data-updated-at="2013-12-03T00:00:00Z"/><path d="M553.340745,247.220297L571.799242,213.101959L474.048151,164.087439L448.562844,135.445478L423.812095,188.665382L553.340745,247.220297Z " data-admincode1="13" data-admincode2="BA" data-admincode3="072006" data-admincode4="" data-cartodb-id="21" data-countrycod="IT" data-created-at="2013-12-03T00:00:00Z" data-fclass="P" data-fcode="PPLX" data-geonameid="" data-lat="41.1434141525" data-lng="16.7958950984" data-name="Fesca" data-parents="3182351" data-updated-at="2013-12-03T00:00:00Z"/><path d="M851.028537,302.283426L845.806314,298.771652L859.016114,390.518028L913.889300,388.585924L903.170977,305.308508L869.465415,307.187959L851.028537,302.283426Z " data-admincode1="13" data-admincode2="BA" data-admincode3="072006" data-admincode4="" data-cartodb-id="18" data-countrycod="IT" data-created-at="2013-12-03T00:00:00Z" data-fclass="P" data-fcode="PPLX" data-geonameid="" data-lat="41.1232921152" data-lng="16.8563489076" data-name="Libertá" data-parents="3182351" data-updated-at="2013-12-03T00:00:00Z"/></g><g fill="#000" font-family="Arial" font-size="12px" id="mylayer-label" stroke="none"><text text-anchor="middle" y="333.68136033"><tspan dy="0" x="431.163113535"><![CDATA[San Paolo]]></tspan></text><text text-anchor="middle" y="210.610800801"><tspan dy="0" x="193.017340623"><![CDATA[Catino - San Pio]]></tspan></text><text text-anchor="middle" y="73.8482400041"><tspan dy="0" x="178.488380815"><![CDATA[Santo Spirito]]></tspan></text><text text-anchor="middle" y="171.58479486"><tspan dy="0" x="367.708154166"><![CDATA[Palese]]></tspan></text><text text-anchor="middle" y="345.974934054"><tspan dy="0" x="942.305220754"><![CDATA[Murat]]></tspan></text><text text-anchor="middle" y="293.129856069"><tspan dy="0" x="958.341546621"><![CDATA[Barivecchia]]></tspan></text><text text-anchor="middle" y="421.672573105"><tspan dy="0" x="666.053902275"><![CDATA[Stanic]]></tspan></text><text text-anchor="middle" y="508.299257142"><tspan dy="0" x="1000.99993751"><![CDATA[Carrassi]]></tspan></text><text text-anchor="middle" y="474.571941988"><tspan dy="0" x="828.001716775"><![CDATA[Picone]]></tspan></text><text text-anchor="middle" y="523.9072521"><tspan dy="0" x="908.116695249"><![CDATA[Poggiofranco]]></tspan></text><text text-anchor="middle" y="362.858991247"><tspan dy="0" x="1023.52086289"><![CDATA[Madonnella]]></tspan></text><text text-anchor="middle" y="495.740683845"><tspan dy="0" x="1074.18864793"><![CDATA[San Pasquale]]></tspan></text><text text-anchor="middle" y="498.108365672"><tspan dy="0" x="1280.84945583"><![CDATA[Japigia]]></tspan></text><text text-anchor="middle" y="616.703363296"><tspan dy="0" x="1758.49877032"><![CDATA[Torre a Mare]]></tspan></text><text text-anchor="middle" y="974.083573109"><tspan dy="0" x="889.162468114"><![CDATA[Loseto]]></tspan></text><text text-anchor="middle" y="660.840225023"><tspan dy="0" x="978.368918443"><![CDATA[Carbonara]]></tspan></text><text text-anchor="middle" y="816.272742887"><tspan dy="0" x="951.142581087"><![CDATA[Ceglie]]></tspan></text><text text-anchor="middle" y="295.740244931"><tspan dy="0" x="778.706813767"><![CDATA[Marconi]]></tspan></text><text text-anchor="middle" y="252.279939794"><tspan dy="0" x="636.744300379"><![CDATA[San Girolamo]]></tspan></text><text text-anchor="middle" y="190.579073155"><tspan dy="0" x="494.756574741"><![CDATA[Fesca]]></tspan></text><text text-anchor="middle" y="341.242583824"><tspan dy="0" x="880.350233777"><![CDATA[Libertá]]></tspan></text></g></svg>