<?xml version="1.0" encoding="utf-8"?><!DOCTYPE svg  PUBLIC '-//W3C//DTD SVG 1.1//EN'  'http://www.w3.org/Graphics/SVG/1.1/DTD/svg11.dtd'><svg enable_background="new 0 0 2000 1685" height="1685px" pretty_print="False" style="stroke-linejoin: round; stroke:#000; fill: none;" version="1.1" viewBox="0 0 2000 1685" width="2000px" xmlns="http://www.w3.org/2000/svg" xmlns:xlink="http://www.w3.org/1999/xlink"><defs><style type="text/css"><![CDATA[path { fill-rule: evenodd; }]]></style></defs><metadata><views><view h="1685.17497137" padding="0" w="2000"><proj flip="auto" id="robinson" lon0="18.7444143807"/><bbox h="1.56" w="1.85" x="244.17" y="-799.44"/></view></views></metadata><g class="" id="mylayer"><path d="M419.395120,524.644933L447.835964,530.058272L474.904514,534.850409L488.973351,535.240880L470.112926,497.418514L452.781215,455.372033L420.965771,454.502351L422.345666,504.784199L419.395120,524.644933Z " data-admincode1="12" data-admincode2="" data-admincode3="" data-admincode4="" data-cartodb-id="11" data-countrycod="HU" data-created-at="2013-11-28T00:00:00Z" data-fclass="P" data-fcode="PPLX" data-geonameid="" data-lat="47.7870714171" data-lng="18.7446803185" data-name="Csutimonostor" data-parents="3053163" data-updated-at="2013-11-28T00:00:00Z"/><path d="M278.152749,203.254274L277.004084,234.828762L273.899924,249.258262L299.100956,251.973778L305.142645,241.093968L309.162876,233.124910L313.052402,224.676646L308.464215,224.960621L306.648369,214.861754L302.155804,207.904365L299.888786,206.342502L288.417690,206.236011L278.152749,203.254274Z " data-admincode1="12" data-admincode2="" data-admincode3="" data-admincode4="" data-cartodb-id="2" data-countrycod="HU" data-created-at="2013-11-28T00:00:00Z" data-fclass="P" data-fcode="PPLX" data-geonameid="" data-lat="47.802240841" data-lng="18.7354847653" data-name="Petény" data-parents="3053163" data-updated-at="2013-11-28T00:00:00Z"/><path d="M405.471627,296.859697L381.316015,282.980374L374.328847,288.713137L371.194384,299.734955L382.946777,296.149757L391.449528,295.031602L404.787040,298.403817L405.471627,296.859697Z " data-admincode1="12" data-admincode2="" data-admincode3="" data-admincode4="" data-cartodb-id="5" data-countrycod="HU" data-created-at="2013-11-28T00:00:00Z" data-fclass="P" data-fcode="PPLX" data-geonameid="" data-lat="47.7986546687" data-lng="18.7416568568" data-name="Libád" data-parents="3053163" data-updated-at="2013-11-28T00:00:00Z"/><path d="M371.669392,75.128636L316.103043,109.826677L288.641247,144.578011L281.268554,166.000333L278.209206,203.254274L288.288957,206.218263L299.936729,206.253760L302.057004,207.904365L306.593614,214.879502L308.263207,224.925124L313.417676,224.658897L326.623322,220.629999L327.652348,225.617313L339.894967,225.084860L341.256062,236.621356L357.042233,234.331805L360.554768,252.843453L383.904040,248.175606L386.081553,252.186760L401.794296,242.513845L402.992088,244.111207L438.260112,232.450468L440.725576,235.343467L448.411858,232.485965L455.355602,227.480901L512.607386,211.347562L505.311228,195.924171L508.035723,194.752774L428.203286,44.938717L371.669392,75.128636Z " data-admincode1="12" data-admincode2="" data-admincode3="" data-admincode4="" data-cartodb-id="1" data-countrycod="HU" data-created-at="2013-11-28T00:00:00Z" data-fclass="P" data-fcode="PPLX" data-geonameid="" data-lat="47.8060837454" data-lng="18.7430970527" data-name="Szentgyörgymező" data-parents="3053163" data-updated-at="2013-11-28T00:00:00Z"/><path d="M355.264402,374.970965L395.012763,387.767675L398.794947,379.816321L392.385751,352.004347L387.013374,347.354230L366.810291,339.953092L352.262739,327.795352L352.027021,325.044332L334.718214,345.455137L341.680178,349.608294L348.526325,353.583967L354.041409,360.310664L355.768975,367.871545L355.264402,374.970965Z " data-admincode1="12" data-admincode2="" data-admincode3="" data-admincode4="" data-cartodb-id="3" data-countrycod="HU" data-created-at="2013-11-28T00:00:00Z" data-fclass="P" data-fcode="PPLX" data-geonameid="" data-lat="47.7949126792" data-lng="18.7401430951" data-name="Hévíz" data-parents="3053163" data-updated-at="2013-11-28T00:00:00Z"/><path d="M485.270202,256.357650L491.811941,251.281588L517.299840,235.520952L522.084215,230.959598L512.749755,211.507298L455.363638,227.711631L448.812176,232.539211L440.499259,235.485455L438.124813,232.805437L402.989898,244.235446L401.697927,242.833318L385.189893,252.896698L375.292890,269.047812L371.879961,274.372357L381.343030,282.820637L407.848021,297.942356L422.644478,306.514884L430.237797,308.715699L447.224354,306.869854L453.984653,305.538716L461.421177,296.841949L465.651637,288.713137L478.746077,266.616270L485.270202,256.357650Z " data-admincode1="12" data-admincode2="" data-admincode3="" data-admincode4="" data-cartodb-id="4" data-countrycod="HU" data-created-at="2013-11-28T00:00:00Z" data-fclass="P" data-fcode="PPLX" data-geonameid="" data-lat="47.8004010556" data-lng="18.7460524198" data-name="Bánom" data-parents="3053163" data-updated-at="2013-11-28T00:00:00Z"/><path d="M334.481662,345.490634L352.078864,324.849098L347.673167,314.679198L339.726457,314.679198L339.430348,313.064084L332.042372,313.738527L331.900195,315.051917L331.202695,315.726360L329.734248,315.868349L329.798953,316.542792L323.602669,318.015919L318.645630,318.282146L311.242905,316.596038L315.686840,313.188323L315.140670,309.407890L312.989252,306.550381L311.196612,307.579794L297.630770,292.262836L284.866073,268.817081L285.230338,264.521949L309.590919,261.859678L306.094084,256.748117L301.518212,258.043755L300.415810,251.849539L299.121882,252.044772L273.887512,249.276011L268.796821,253.003189L263.605544,266.864749L265.029923,292.014357L266.862518,313.916012L279.012260,330.510876L291.898130,337.415053L315.863629,340.485548L334.481662,345.490634Z " data-admincode1="12" data-admincode2="" data-admincode3="" data-admincode4="" data-cartodb-id="6" data-countrycod="HU" data-created-at="2013-11-28T00:00:00Z" data-fclass="P" data-fcode="PPLX" data-geonameid="" data-lat="47.7979838014" data-lng="18.735338056" data-name="Víziváros" data-parents="3053163" data-updated-at="2013-11-28T00:00:00Z"/><path d="M266.479431,314.483965L258.932643,363.540899L248.568687,397.653626L252.804896,409.740404L241.036260,463.216918L149.966400,546.777510L0.593763,655.310815L3.581545,662.925023L65.664582,642.709216L187.992189,587.102509L265.707940,527.378225L303.217180,487.958494L338.685402,416.680098L354.338398,374.882222L354.965394,367.587568L353.344882,360.701132L348.138136,354.098675L334.625948,346.111833L315.419692,341.301981L291.490496,337.432801L278.229124,330.439882L266.479431,314.483965Z " data-admincode1="12" data-admincode2="" data-admincode3="" data-admincode4="" data-cartodb-id="7" data-countrycod="HU" data-created-at="2013-11-28T00:00:00Z" data-fclass="P" data-fcode="PPLX" data-geonameid="" data-lat="47.7875827957" data-lng="18.7291368103" data-name="Prímás-sziget" data-parents="3053163" data-updated-at="2013-11-28T00:00:00Z"/><path d="M268.550366,527.431471L228.268408,557.231477L233.664027,562.272100L209.898975,584.138478L208.410611,591.291201L209.785496,599.597591L267.253927,641.573297L347.453376,582.718582L372.087153,551.818132L378.378484,539.997521L382.057911,526.260060L383.504269,523.384778L384.806194,518.415157L380.079748,515.202652L359.151261,510.108791L334.800652,502.743105L304.288576,487.355041L268.550366,527.431471Z " data-admincode1="12" data-admincode2="" data-admincode3="" data-admincode4="" data-cartodb-id="8" data-countrycod="HU" data-created-at="2013-11-28T00:00:00Z" data-fclass="P" data-fcode="PPLX" data-geonameid="" data-lat="47.7833773519" data-lng="18.7334920519" data-name="Szentpál" data-parents="3053163" data-updated-at="2013-11-28T00:00:00Z"/><path d="M304.393491,487.124309L334.831085,502.618865L356.900802,509.310102L380.041301,515.096160L384.952957,518.326413L390.634391,518.397408L393.695942,520.882219L397.512152,520.491748L419.301416,524.698179L422.249545,504.517969L420.849440,454.466854L420.274460,438.617353L409.103990,403.404163L405.767426,395.257569L401.171362,389.578028L395.299687,387.962909L355.245895,375.219445L340.214329,415.402200L304.393491,487.124309Z " data-admincode1="12" data-admincode2="" data-admincode3="" data-admincode4="" data-cartodb-id="9" data-countrycod="HU" data-created-at="2013-11-28T00:00:00Z" data-fclass="P" data-fcode="PPLX" data-geonameid="" data-lat="47.7894615748" data-lng="18.7397152535" data-name="Királyi város" data-parents="3053163" data-updated-at="2013-11-28T00:00:00Z"/><path d="M382.196375,526.526290L378.744011,540.423489L372.423242,552.084362L347.818900,583.144551L267.273331,642.070262L295.836429,662.445807L317.112288,685.732163L323.806579,699.309963L345.584000,706.178735L379.713761,714.076937L384.817293,591.823661L388.198876,526.118071L383.780489,523.615511L382.196375,526.526290Z " data-admincode1="12" data-admincode2="" data-admincode3="" data-admincode4="" data-cartodb-id="10" data-countrycod="HU" data-created-at="2013-11-28T00:00:00Z" data-fclass="P" data-fcode="PPLX" data-geonameid="" data-lat="47.7791985492" data-lng="18.7364850257" data-name="Szentlázár" data-parents="3053163" data-updated-at="2013-11-28T00:00:00Z"/><path d="M447.230184,530.218010L448.532719,574.252459L503.829374,557.515455L489.159774,535.418366L474.088696,535.027896L447.230184,530.218010Z " data-admincode1="12" data-admincode2="" data-admincode3="" data-admincode4="" data-cartodb-id="12" data-countrycod="HU" data-created-at="2013-11-28T00:00:00Z" data-fclass="P" data-fcode="PPLX" data-geonameid="" data-lat="47.7840674256" data-lng="18.7459265191" data-name="Ripária" data-parents="3053163" data-updated-at="2013-11-28T00:00:00Z"/><path d="M448.585998,574.660679L448.489324,575.565862L475.293594,624.978243L522.391719,611.205243L538.365581,607.318276L506.930942,560.710217L504.204911,557.604199L448.585998,574.660679Z " data-admincode1="12" data-admincode2="" data-admincode3="" data-admincode4="" data-cartodb-id="13" data-countrycod="HU" data-created-at="2013-11-28T00:00:00Z" data-fclass="P" data-fcode="PPLX" data-geonameid="" data-lat="47.7817920449" data-lng="18.7472015195" data-name="Csalamádé" data-parents="3053163" data-updated-at="2013-11-28T00:00:00Z"/><path d="M421.361994,454.218373L452.587983,455.123552L441.118128,426.796791L443.232995,417.798259L443.389383,411.337776L436.932162,395.825523L418.912465,364.552566L414.923326,370.640318L403.786644,379.763075L399.020300,379.958309L395.085043,387.785424L401.156035,389.418291L405.954331,395.293066L409.257556,403.386414L420.632950,438.528610L421.361994,454.218373Z " data-admincode1="12" data-admincode2="" data-admincode3="" data-admincode4="" data-cartodb-id="14" data-countrycod="HU" data-created-at="2013-11-28T00:00:00Z" data-fclass="P" data-fcode="PPLX" data-geonameid="" data-lat="47.7918504161" data-lng="18.7437324892" data-name="Szentanna" data-parents="3053163" data-updated-at="2013-11-28T00:00:00Z"/><path d="M398.953621,379.851818L403.603636,379.621086L414.607192,370.729061L418.959196,364.304087L420.394895,359.849202L427.424390,350.584464L430.913887,338.408970L427.484427,337.237568L427.343810,332.977921L424.297643,332.711693L421.120924,340.645285L417.298625,342.881600L414.338353,342.775109L411.116943,343.183325L402.522625,340.112829L401.495331,342.792857L399.541337,344.053003L394.958087,343.360810L390.544426,344.141746L389.703556,345.969845L393.418948,347.620458L392.530308,352.039844L398.953621,379.851818Z " data-admincode1="12" data-admincode2="" data-admincode3="" data-admincode4="" data-cartodb-id="15" data-countrycod="HU" data-created-at="2013-11-28T00:00:00Z" data-fclass="P" data-fcode="PPLX" data-geonameid="" data-lat="47.795063959" data-lng="18.7429586268" data-name="Örmény" data-parents="3053163" data-updated-at="2013-11-28T00:00:00Z"/><path d="M352.056235,324.760355L352.442829,327.759855L367.001090,339.882098L387.147713,347.283236L392.565842,351.968850L393.417245,347.602710L389.692356,346.147330L390.517899,344.159494L394.885809,343.343062L399.553749,344.035255L401.452986,342.792857L402.505104,340.077332L411.187518,343.183325L414.490212,342.739612L417.192517,342.952594L421.117518,340.609788L424.253594,332.693945L427.363035,333.031167L427.525069,337.219819L430.912183,338.391222L437.328254,332.001752L438.622502,322.985503L442.125464,317.128493L449.070012,311.981424L453.915297,305.698452L447.301743,306.940848L430.232199,308.804441L422.716268,306.674620L405.464325,296.930691L404.797748,298.368320L391.465346,295.049350L383.054587,296.096512L371.199493,299.788200L367.784858,302.006763L350.307336,320.802436L352.056235,324.760355Z " data-admincode1="12" data-admincode2="" data-admincode3="" data-admincode4="" data-cartodb-id="16" data-countrycod="HU" data-created-at="2013-11-28T00:00:00Z" data-fclass="P" data-fcode="PPLX" data-geonameid="" data-lat="47.797031012" data-lng="18.7423103016" data-name="Szenttamás" data-parents="3053163" data-updated-at="2013-11-28T00:00:00Z"/><path d="M367.453404,301.935769L370.966120,299.415482L374.216418,288.571149L381.159049,282.962625L371.498863,274.372357L373.852432,270.804911L384.632609,252.825705L385.491906,251.778545L383.864128,248.495078L360.273200,253.145177L356.801309,234.615780L340.982287,236.710098L339.325514,225.475326L327.265167,225.848043L326.112028,221.038213L313.205468,224.800885L309.184261,234.083326L299.394449,251.796293L300.783775,251.565563L301.629919,257.884019L306.147629,256.570632L310.013867,262.001665L285.929978,264.752680L285.263974,268.550854L298.043505,292.298333L311.176180,307.366812L313.046205,306.408393L315.411049,309.283651L315.833097,313.241569L311.562441,316.542792L318.445602,317.962673L323.447897,317.873931L329.613756,316.525044L329.602105,315.815103L331.082964,315.655366L331.718896,314.927677L331.776383,313.614287L340.040469,312.655868L340.041376,314.430719L347.831610,314.270982L350.439024,319.968255L367.453404,301.935769Z " data-admincode1="12" data-admincode2="" data-admincode3="" data-admincode4="" data-cartodb-id="17" data-countrycod="HU" data-created-at="2013-11-28T00:00:00Z" data-fclass="P" data-fcode="PPLX" data-geonameid="" data-lat="47.7997622132" data-lng="18.7382484299" data-name="Várhegy" data-parents="3053163" data-updated-at="2013-11-28T00:00:00Z"/><path d="M380.273837,713.881701L446.019852,707.438897L460.606020,704.971819L460.252498,664.344922L459.147073,660.031979L452.579834,657.351919L449.406500,653.997408L444.607531,630.604586L436.121871,611.897442L415.369498,584.511200L448.033703,575.672354L446.789181,530.182513L397.592452,520.740230L393.768224,520.899967L393.734885,520.846721L393.455557,523.526768L391.741287,525.816344L388.393096,526.082573L385.100494,590.066541L380.273837,713.881701Z " data-admincode1="12" data-admincode2="" data-admincode3="" data-admincode4="" data-cartodb-id="18" data-countrycod="HU" data-created-at="2013-11-28T00:00:00Z" data-fclass="P" data-fcode="PPLX" data-geonameid="" data-lat="47.7799016015" data-lng="18.7415821538" data-name="Kovácsi" data-parents="3053163" data-updated-at="2013-11-28T00:00:00Z"/><path d="M454.691124,304.811027L460.482368,305.148249L481.042446,307.739531L493.830086,297.001685L516.697230,309.656370L513.316672,317.962673L531.575592,326.428716L562.353581,352.377066L595.634997,366.025696L610.545267,370.924295L630.935511,385.850830L637.842049,386.188053L660.010245,384.058226L688.724387,387.181973L706.592812,382.904570L698.735496,370.906547L677.383013,357.133675L677.989139,349.484055L688.763525,339.686865L687.720696,330.741607L647.920093,318.583871L640.970712,308.981926L666.093852,306.763363L672.846963,302.272991L631.062713,232.432720L630.123434,224.712142L615.001624,200.414524L521.832122,231.421058L517.389160,235.716185L492.398421,251.068606L485.398938,256.375399L465.634849,288.979364L461.510977,296.895194L454.691124,304.811027Z " data-admincode1="12" data-admincode2="" data-admincode3="" data-admincode4="" data-cartodb-id="19" data-countrycod="HU" data-created-at="2013-11-28T00:00:00Z" data-fclass="P" data-fcode="PPLX" data-geonameid="" data-lat="47.7984389988" data-lng="18.756036309" data-name="Szentjánoskút" data-parents="3053163" data-updated-at="2013-11-28T00:00:00Z"/><path d="M452.522052,454.289368L468.492455,454.200625L479.482187,456.046480L517.445308,450.668652L534.418874,451.325351L546.348052,451.928803L574.055718,459.560704L589.876535,462.471476L628.780246,459.099240L621.424283,413.804828L645.675196,401.611557L638.104647,386.276796L630.864455,385.992819L610.271485,371.013038L596.556157,366.504906L562.303938,352.448060L531.348048,326.410968L518.303450,320.358723L513.150701,317.998170L516.600129,309.674118L493.833010,297.179170L481.158288,307.917016L460.672676,305.219243L454.741987,304.899769L449.147401,312.052418L442.215264,317.181739L438.740533,323.038749L437.451395,332.108243L431.040922,338.408970L427.632710,350.548967L420.518525,359.813705L419.082827,364.268590L435.988434,393.198736L443.589192,411.213536L443.318154,418.685688L441.363692,426.708048L452.522052,454.289368Z " data-admincode1="12" data-admincode2="" data-admincode3="" data-admincode4="" data-cartodb-id="20" data-countrycod="HU" data-created-at="2013-11-28T00:00:00Z" data-fclass="P" data-fcode="PPLX" data-geonameid="3055877" data-lat="47.7931197773" data-lng="18.7507234419" data-name="Aranyhegy" data-parents="3053163" data-updated-at="2013-11-28T00:00:00Z"/><path d="M615.228120,199.686838L630.455836,224.499161L631.565914,231.793775L673.122440,302.201997L666.467185,306.976345L641.591292,309.123914L647.893293,318.157907L687.883256,330.670613L688.929496,339.651367L678.167045,349.572797L677.598626,357.027184L699.410092,370.729061L706.621518,382.762581L714.519850,389.897503L730.570780,388.300132L738.914822,390.376714L743.165231,398.328072L745.259583,445.841033L758.620160,456.348206L780.395229,455.851245L841.786292,373.036373L867.451252,368.226516L887.863246,321.991586L901.181036,297.551889L914.808154,294.534644L930.733381,304.260823L946.080499,337.184322L953.715494,360.363910L999.825177,382.478604L1044.029369,412.952896L1098.233183,377.597751L1098.201863,371.403506L1088.605405,352.643294L1105.135995,338.284731L1135.611135,361.322331L1183.332950,298.244080L1195.109555,278.791730L1195.341273,266.829252L1132.361360,231.190328L1115.205530,207.655887L1094.650769,190.599642L1039.089515,168.520608L957.630505,144.542514L949.524688,127.184589L906.014957,57.380296L688.137576,145.287947L509.720921,194.664032L506.557443,196.261391L522.421739,230.799862L615.228120,199.686838Z " data-admincode1="12" data-admincode2="" data-admincode3="" data-admincode4="" data-cartodb-id="21" data-countrycod="HU" data-created-at="2013-11-28T00:00:00Z" data-fclass="P" data-fcode="PPLX" data-geonameid="" data-lat="47.8009258262" data-lng="18.7765778923" data-name="Döbönkút" data-parents="3053163" data-updated-at="2013-11-28T00:00:00Z"/><path d="M906.934617,56.670362L951.081326,128.107505L957.985289,143.388868L1038.765438,167.792923L1095.400175,190.173680L1115.923655,207.638138L1132.373853,230.586880L1196.522674,266.492030L1213.218498,267.645682L1268.828799,258.540713L1277.706335,242.851066L1258.901269,236.355129L1254.986034,235.858172L1242.637899,240.277539L1243.547185,232.716695L1230.074685,224.871879L1273.736075,190.191428L1263.693672,183.961731L1280.609896,162.202174L1305.418794,167.437954L1307.673061,157.285865L1313.653006,146.690070L1311.501407,108.531046L1311.526079,78.607312L1320.314076,52.481756L1296.864865,45.968120L1299.741192,33.047342L1256.070695,24.368417L1246.041043,19.292401L1246.807977,10.258515L1200.135031,10.258515L1176.175836,7.968985L1130.074331,11.997849L1035.226027,5.040516L1007.332833,5.572964L906.934617,56.670362Z " data-admincode1="12" data-admincode2="" data-admincode3="" data-admincode4="" data-cartodb-id="22" data-countrycod="HU" data-created-at="2013-11-28T00:00:00Z" data-fclass="P" data-fcode="PPLX" data-geonameid="3044927" data-lat="47.808825573" data-lng="18.7961341339" data-name="Szamárhegy" data-parents="3053163" data-updated-at="2013-11-28T00:00:00Z"/><path d="M1246.379329,19.434388L1256.958568,24.208683L1300.041430,32.940853L1297.253205,45.897127L1320.542037,52.357518L1311.935811,78.465325L1312.131239,111.406282L1313.974174,147.240270L1307.997686,157.285865L1305.694636,167.810671L1280.736485,162.344161L1263.866462,183.997228L1274.109884,190.262422L1230.341151,224.854130L1243.776878,232.610204L1242.782906,240.171048L1254.698616,235.804927L1258.827721,236.177645L1277.888557,242.691330L1301.695739,205.277596L1325.014764,212.039751L1332.796107,186.588498L1343.677444,147.754974L1360.085839,125.569487L1357.931542,92.664008L1365.639151,72.466384L1368.850771,50.724672L1380.366156,51.736326L1394.009207,16.541414L1351.491576,12.210828L1306.006600,2.715489L1274.709750,0.000000L1247.306265,1.952312L1247.073985,10.382753L1246.379329,19.434388Z " data-admincode1="12" data-admincode2="" data-admincode3="" data-admincode4="" data-cartodb-id="23" data-countrycod="HU" data-created-at="2013-11-28T00:00:00Z" data-fclass="P" data-fcode="PPLX" data-geonameid="" data-lat="47.8091703101" data-lng="18.808952345" data-name="Búbánatvölgy" data-parents="3053163" data-updated-at="2013-11-28T00:00:00Z"/><path d="M1324.919383,212.075248L1301.648268,205.224350L1278.694911,241.537680L1268.738984,258.487467L1214.419956,267.663430L1196.623186,266.509779L1195.647624,278.809478L1184.048495,298.492560L1135.768007,361.925782L1335.237033,571.519162L1333.947030,535.240880L1338.405262,476.563877L1370.620912,441.563620L1332.228749,415.490943L1358.554267,375.769650L1372.629305,356.885195L1363.757960,349.484055L1362.922635,319.560040L1371.379646,319.435800L1371.638848,308.644705L1384.757730,306.656872L1374.287171,281.773476L1356.333939,260.386554L1321.515819,248.104612L1324.919383,212.075248Z " data-admincode1="12" data-admincode2="" data-admincode3="" data-admincode4="" data-cartodb-id="24" data-countrycod="HU" data-created-at="2013-11-28T00:00:00Z" data-fclass="P" data-fcode="PPLX" data-geonameid="3050296" data-lat="47.7942769446" data-lng="18.8041765829" data-name="Kerektó" data-parents="3053163" data-updated-at="2013-11-28T00:00:00Z"/><path d="M1847.445414,1434.792089L1835.259782,1445.210859L1840.430690,1460.492910L1866.823751,1471.799148L1884.276601,1489.832337L1856.071825,1532.022228L1901.410284,1577.442532L1926.864398,1620.200502L1989.796953,1642.706585L1999.406237,1581.773349L1954.501976,1534.720111L1954.366496,1533.459915L1947.485082,1478.721336L1922.460885,1451.281081L1900.021402,1437.773952L1868.658383,1429.698075L1847.445414,1434.792089Z " data-admincode1="12" data-admincode2="" data-admincode3="" data-admincode4="" data-cartodb-id="25" data-countrycod="HU" data-created-at="2013-11-28T00:00:00Z" data-fclass="P" data-fcode="PPLX" data-geonameid="3053163" data-lat="47.7286810905" data-lng="18.8420721214" data-name="Pilisszentlélek" data-parents="3053163" data-updated-at="2013-11-28T00:00:00Z"/><path d="M256.494862,1412.481378L315.674160,1176.098793L337.838718,1092.642908L345.588995,1088.063668L337.282015,1083.147197L339.322393,1071.432866L313.343171,1066.267913L283.832968,1129.046119L233.969373,1119.514899L158.802317,1266.175305L126.288937,1288.947396L55.598742,1245.639613L30.468888,1259.253160L85.851780,1314.062386L77.779865,1329.610615L80.567441,1351.371049L154.162070,1426.343481L195.634993,1398.459539L198.425183,1400.908923L211.116514,1392.762059L212.406141,1393.401029L220.695835,1387.952038L228.177619,1396.045653L256.494862,1412.481378Z " data-admincode1="12" data-admincode2="" data-admincode3="" data-admincode4="" data-cartodb-id="26" data-countrycod="HU" data-created-at="2013-11-28T00:00:00Z" data-fclass="P" data-fcode="PPLX" data-geonameid="3050325" data-lat="47.7434790761" data-lng="18.722634703" data-name="Kenyérmező" data-parents="3053163" data-updated-at="2013-11-28T00:00:00Z"/><path d="M317.926465,1424.799303L312.304325,1429.644828L329.284712,1440.489576L338.108626,1451.831306L359.116892,1481.294970L379.872920,1502.221286L448.278801,1581.010131L487.792003,1594.002586L520.864022,1615.230706L532.529639,1617.307371L537.648224,1624.158590L572.235940,1683.174971L594.544839,1665.443423L643.233125,1585.074710L605.196405,1562.000687L533.442695,1515.675192L547.738179,1487.720182L528.176449,1469.545000L552.627679,1453.268990L427.086411,1339.958356L453.874875,1315.074085L435.658502,1301.939742L420.610242,1314.949842L393.290865,1291.982493L379.391769,1301.070035L356.926527,1279.540373L379.036167,1262.270505L387.586345,1266.920767L429.661431,1237.865517L395.169071,1201.479933L373.989954,1189.836555L316.199456,1176.276284L265.385820,1378.793475L317.926465,1424.799303Z " data-admincode1="12" data-admincode2="" data-admincode3="" data-admincode4="" data-cartodb-id="27" data-countrycod="HU" data-created-at="2013-11-28T00:00:00Z" data-fclass="P" data-fcode="PPLX" data-geonameid="" data-lat="47.7345698642" data-lng="18.7371579778" data-name="Tábor" data-parents="3053163" data-updated-at="2013-11-28T00:00:00Z"/><path d="M316.101001,1175.690566L369.044170,1188.026152L380.411409,1193.049133L392.097597,1199.190305L409.823453,1177.145987L419.180714,1103.576291L349.897891,1085.880542L338.048285,1092.767151L316.101001,1175.690566Z " data-admincode1="12" data-admincode2="" data-admincode3="" data-admincode4="" data-cartodb-id="28" data-countrycod="HU" data-created-at="2013-11-28T00:00:00Z" data-fclass="P" data-fcode="PPLX" data-geonameid="" data-lat="47.7508204321" data-lng="18.7348519724" data-name="Szalézi lakótelep" data-parents="3053163" data-updated-at="2013-11-28T00:00:00Z"/><path d="M452.873962,454.573345L459.932068,471.345783L468.204558,491.064504L475.019143,506.328330L489.197996,535.081142L502.515718,553.681742L509.716127,563.550005L519.669760,563.567753L540.340417,556.113310L559.231151,565.413616L581.630138,573.613506L591.198045,573.436020L617.758590,587.634970L642.772128,598.656910L671.679593,612.447652L693.086484,612.660637L712.886643,616.281374L723.786421,613.654565L770.765603,624.232797L790.485628,632.308464L798.637389,615.180954L798.904664,589.747064L778.400361,562.041367L770.530544,543.156783L775.426640,519.622065L745.853785,518.006938L730.652523,525.372627L695.559385,509.931304L692.646787,502.973837L682.410217,500.595520L690.059612,477.504554L678.022268,477.540051L629.033846,459.241229L590.062963,462.648962L575.408885,460.128660L546.269688,452.141787L517.457233,450.792893L479.409417,456.170720L468.462031,454.324865L452.873962,454.573345Z " data-admincode1="12" data-admincode2="" data-admincode3="" data-admincode4="" data-cartodb-id="29" data-countrycod="HU" data-created-at="2013-11-28T00:00:00Z" data-fclass="P" data-fcode="PPLX" data-geonameid="" data-lat="47.785036056" data-lng="18.7573978727" data-name="Újfalu" data-parents="3053163" data-updated-at="2013-11-28T00:00:00Z"/><path d="M448.176074,575.832092L415.790789,584.635441L436.474782,611.897442L445.456439,631.066053L449.593919,653.890916L452.668436,657.245427L459.329385,659.872240L460.463255,664.628902L461.037334,704.758833L492.086753,690.843804L524.692869,670.645726L567.165931,651.477088L538.783474,607.407020L524.644524,610.850269L474.978140,625.368715L448.176074,575.832092Z " data-admincode1="12" data-admincode2="" data-admincode3="" data-admincode4="" data-cartodb-id="30" data-countrycod="HU" data-created-at="2013-11-28T00:00:00Z" data-fclass="P" data-fcode="PPLX" data-geonameid="" data-lat="47.7789950885" data-lng="18.7467687104" data-name="Kovácsi lakótelep" data-parents="3053163" data-updated-at="2013-11-28T00:00:00Z"/><path d="M447.835831,707.385651L458.089365,730.689792L447.932842,907.592436L439.721666,930.328771L508.496863,950.562526L555.198842,950.846509L594.782010,934.464265L601.530439,944.030926L639.890411,929.618815L652.393232,948.982873L722.559340,922.341766L670.396958,850.583060L660.852961,797.176805L567.384725,651.991802L524.987124,670.769967L492.230335,691.163282L460.860832,705.273548L447.835831,707.385651Z " data-admincode1="12" data-admincode2="" data-admincode3="" data-admincode4="" data-cartodb-id="31" data-countrycod="HU" data-created-at="2013-11-28T00:00:00Z" data-fclass="P" data-fcode="PPLX" data-geonameid="" data-lat="47.7686379316" data-lng="18.7503640429" data-name="Ipari park" data-parents="3053163" data-updated-at="2013-11-28T00:00:00Z"/><path d="M509.626550,563.940476L538.809773,606.945553L545.664959,617.186558L567.338507,651.068867L599.131273,700.073160L660.980999,796.892824L690.544971,785.001115L686.229415,768.867447L719.543475,765.015957L719.827234,750.177961L696.764675,740.522619L676.788636,708.752306L682.865235,696.612151L731.157588,682.040422L763.285713,667.468701L790.246393,632.610192L771.238533,624.747510L723.909097,613.903046L712.991793,616.494358L693.126646,612.784878L671.688114,612.536396L616.445771,587.634970L591.093875,573.968480L581.679542,574.128218L557.929541,565.236129L540.284677,556.415038L519.603798,563.762989L509.626550,563.940476Z " data-admincode1="12" data-admincode2="" data-admincode3="" data-admincode4="" data-cartodb-id="32" data-countrycod="HU" data-created-at="2013-11-28T00:00:00Z" data-fclass="P" data-fcode="PPLX" data-geonameid="" data-lat="47.7778342571" data-lng="18.7577597097" data-name="Kenderes" data-parents="3053163" data-updated-at="2013-11-28T00:00:00Z"/><path d="M660.909921,797.034815L701.216453,834.555849L753.484184,875.928436L802.083646,905.107592L852.144173,931.997168L861.269860,934.553010L937.341385,1019.410640L968.255068,1016.996782L985.531842,986.965570L1022.914363,990.462110L1021.325916,962.170318L1057.725480,956.614906L1079.742782,932.298899L1072.919500,910.804985L999.116797,891.618441L982.267615,895.665185L941.305533,870.763515L957.247847,851.399508L943.502076,843.661008L939.258550,798.312730L899.184805,745.758512L819.414773,760.667500L792.850933,795.561662L773.661080,800.957305L756.983363,814.286675L719.924101,795.011449L690.607277,785.356092L660.909921,797.034815Z " data-admincode1="12" data-admincode2="" data-admincode3="" data-admincode4="" data-cartodb-id="33" data-countrycod="HU" data-created-at="2013-11-28T00:00:00Z" data-fclass="P" data-fcode="PPLX" data-geonameid="3053669" data-lat="47.7657293119" data-lng="18.7731091486" data-name="Diósvölgy" data-parents="3053163" data-updated-at="2013-11-28T00:00:00Z"/></g><g fill="#000" font-family="Arial" font-size="12px" id="mylayer-label" stroke="none"><text text-anchor="middle" y="491.677530498"><tspan dy="0" x="447.302818983"><![CDATA[Csutimonostor]]></tspan></text><text text-anchor="middle" y="222.442200071"><tspan dy="0" x="291.67403518"><![CDATA[Petény]]></tspan></text><text text-anchor="middle" y="286.091233367"><tspan dy="0" x="384.898355743"><![CDATA[Libád]]></tspan></text><text text-anchor="middle" y="154.237426597"><tspan dy="0" x="392.570699179"><![CDATA[Szentgyörgymező]]></tspan></text><text text-anchor="middle" y="352.506074475"><tspan dy="0" x="369.904507149"><![CDATA[Hévíz]]></tspan></text><text text-anchor="middle" y="255.095712021"><tspan dy="0" x="443.965321815"><![CDATA[Bánom]]></tspan></text><text text-anchor="middle" y="297.998388773"><tspan dy="0" x="296.852013907"><![CDATA[Víziváros]]></tspan></text><text text-anchor="middle" y="482.60471301"><tspan dy="0" x="227.015877821"><![CDATA[Prímás-sziget]]></tspan></text><text text-anchor="middle" y="557.242407042"><tspan dy="0" x="295.656640027"><![CDATA[Szentpál]]></tspan></text><text text-anchor="middle" y="449.255848064"><tspan dy="0" x="373.146953935"><![CDATA[Királyi város]]></tspan></text><text text-anchor="middle" y="631.410913466"><tspan dy="0" x="345.018230799"><![CDATA[Szentlázár]]></tspan></text><text text-anchor="middle" y="544.994170623"><tspan dy="0" x="470.009716492"><![CDATA[Ripária]]></tspan></text><text text-anchor="middle" y="585.379223958"><tspan dy="0" x="491.882806895"><![CDATA[Csalamádé]]></tspan></text><text text-anchor="middle" y="406.856994271"><tspan dy="0" x="425.784895579"><![CDATA[Szentanna]]></tspan></text><text text-anchor="middle" y="349.821055838"><tspan dy="0" x="409.388427949"><![CDATA[Örmény]]></tspan></text><text text-anchor="middle" y="314.908773"><tspan dy="0" x="396.887046618"><![CDATA[Szenttamás]]></tspan></text><text text-anchor="middle" y="266.434202048"><tspan dy="0" x="334.90289828"><![CDATA[Várhegy]]></tspan></text><text text-anchor="middle" y="618.933403137"><tspan dy="0" x="415.775669937"><![CDATA[Kovácsi]]></tspan></text><text text-anchor="middle" y="289.919838789"><tspan dy="0" x="588.229899028"><![CDATA[Szentjánoskút]]></tspan></text><text text-anchor="middle" y="384.328062563"><tspan dy="0" x="522.302960934"><![CDATA[Aranyhegy]]></tspan></text><text text-anchor="middle" y="245.784094432"><tspan dy="0" x="873.927536047"><![CDATA[Döbönkút]]></tspan></text><text text-anchor="middle" y="105.57520452"><tspan dy="0" x="1136.46020684"><![CDATA[Szamárhegy]]></tspan></text><text text-anchor="middle" y="99.4573738543"><tspan dy="0" x="1316.7834851"><![CDATA[Búbánatvölgy]]></tspan></text><text text-anchor="middle" y="363.790973303"><tspan dy="0" x="1274.83363053"><![CDATA[Kerektó]]></tspan></text><text text-anchor="middle" y="1528.04520518"><tspan dy="0" x="1921.946477"><![CDATA[Pilisszentlélek]]></tspan></text><text text-anchor="middle" y="1265.39446763"><tspan dy="0" x="210.209617396"><![CDATA[Kenyérmező]]></tspan></text><text text-anchor="middle" y="1423.52809815"><tspan dy="0" x="430.429913918"><![CDATA[Tábor]]></tspan></text><text text-anchor="middle" y="1135.09030596"><tspan dy="0" x="370.237314252"><![CDATA[Szalézi lakótelep]]></tspan></text><text text-anchor="middle" y="527.803011199"><tspan dy="0" x="630.29218725"><![CDATA[Újfalu]]></tspan></text><text text-anchor="middle" y="635.021806024"><tspan dy="0" x="490.535940552"><![CDATA[Kovácsi lakótelep]]></tspan></text><text text-anchor="middle" y="818.850661732"><tspan dy="0" x="558.926276732"><![CDATA[Ipari park]]></tspan></text><text text-anchor="middle" y="655.625937729"><tspan dy="0" x="647.669760715"><![CDATA[Kenderes]]></tspan></text><text text-anchor="middle" y="870.474735741"><tspan dy="0" x="884.991599026"><![CDATA[Diósvölgy]]></tspan></text></g></svg>