<?xml version="1.0" encoding="utf-8"?><!DOCTYPE svg  PUBLIC '-//W3C//DTD SVG 1.1//EN'  'http://www.w3.org/Graphics/SVG/1.1/DTD/svg11.dtd'><svg enable_background="new 0 0 2000 1987" height="1987px" pretty_print="False" style="stroke-linejoin: round; stroke:#000; fill: none;" version="1.1" viewBox="0 0 2000 1987" width="2000px" xmlns="http://www.w3.org/2000/svg" xmlns:xlink="http://www.w3.org/1999/xlink"><defs><style type="text/css"><![CDATA[path { fill-rule: evenodd; }]]></style></defs><metadata><views><view h="1987.29478864" padding="0" w="2000"><proj flip="auto" id="robinson" lon0="3.7465036597"/><bbox h="3.37" w="3.39" x="45.68" y="-854.45"/></view></views></metadata><g class="" id="mylayer"><path d="M1204.006994,1232.867405L1203.669459,1239.132076L1189.486628,1244.378043L1210.098723,1291.754406L1217.201460,1302.294320L1226.657030,1313.234198L1255.306608,1345.892432L1258.748385,1343.502550L1265.359602,1341.407835L1273.378922,1341.188843L1280.520645,1343.112171L1295.052024,1347.301608L1303.206694,1347.777681L1314.506722,1345.711525L1336.146712,1338.551411L1378.752607,1323.326757L1395.233118,1318.013873L1410.173813,1314.100632L1402.155932,1298.190695L1392.806396,1301.132736L1383.310041,1302.856070L1371.982917,1301.932515L1334.682481,1298.542978L1317.948309,1297.029114L1310.083434,1296.391197L1314.107495,1288.660045L1314.043863,1286.079829L1267.507945,1228.249845L1236.166450,1237.980060L1229.288410,1229.135273L1219.779011,1196.984088L1213.316427,1200.011622L1208.966977,1205.219374L1205.883452,1211.645784L1204.499670,1221.975698L1204.006994,1232.867405Z " data-admincode1="VLG" data-admincode2="VOV" data-admincode3="44" data-admincode4="44021" data-cartodb-id="4" data-countrycod="BE" data-created-at="2013-07-23T14:48:23Z" data-descriptio="" data-fclass="P" data-fcode="PPLX" data-geonameid="" data-lat="51.05258962" data-lng="3.75014837854" data-name="Dampoort" data-parents="2797656" data-updated-at="2013-07-23T14:50:24Z"/><path d="M944.060753,1060.237134L922.522231,1070.946830L908.728207,1079.571759L888.637955,1091.642932L862.841193,1108.055308L842.943702,1122.506721L844.453504,1123.906173L879.679489,1146.811673L893.760260,1162.377325L907.163975,1177.533754L915.235969,1175.962886L965.271786,1166.033133L988.228105,1161.453854L1025.106129,1154.523077L1022.521805,1146.145258L1020.458221,1137.529479L1020.679087,1127.904615L1024.228321,1118.308372L1029.610361,1110.454348L1038.097039,1103.057322L1048.710647,1098.154550L1061.394006,1095.879289L1073.969941,1095.241454L1068.159943,1092.994757L1058.857211,1093.194675L1047.305535,1090.471986L1038.491249,1086.149965L1030.950811,1080.285745L1025.099498,1073.326773L1020.591790,1066.320232L1017.539621,1057.838172L1007.722343,1059.247086L1003.788124,1058.285598L984.730874,1061.055828L973.513844,1064.092616L967.511850,1067.224607L949.555351,1068.795365L944.060753,1060.237134Z " data-admincode1="VLG" data-admincode2="VOV" data-admincode3="44" data-admincode4="44021" data-cartodb-id="6" data-countrycod="BE" data-created-at="2013-07-23T14:48:23Z" data-descriptio="" data-fclass="P" data-fcode="PPLX" data-geonameid="" data-lat="51.0707872264" data-lng="3.70759107536" data-name="Bloemekenswijk" data-parents="2797656" data-updated-at="2013-07-23T14:51:07Z"/><path d="M1101.936357,1141.842122L1083.774619,1142.994067L1070.804841,1145.593085L1025.106129,1154.523077L988.228105,1161.453854L965.271786,1166.033133L915.235969,1175.962886L907.163975,1177.533754L940.136925,1216.453708L944.207758,1222.708791L958.419878,1245.720481L961.966252,1250.985512L963.052347,1253.632315L969.478327,1249.909654L973.160691,1252.061370L975.234798,1249.643070L977.123129,1247.319982L979.547920,1233.257757L991.634098,1223.756068L1001.564830,1216.387063L1010.169738,1218.976683L1018.147186,1207.075890L1019.373103,1192.138143L1032.739197,1194.308820L1038.133893,1177.962173L1040.331237,1178.485796L1044.333851,1173.192450L1061.594203,1165.404791L1075.078487,1161.225366L1100.004942,1152.933192L1103.082007,1153.494888L1101.936357,1141.842122Z " data-admincode1="VLG" data-admincode2="VOV" data-admincode3="44" data-admincode4="44021" data-cartodb-id="8" data-countrycod="BE" data-created-at="2013-07-23T14:48:23Z" data-descriptio="" data-fclass="P" data-fcode="PPLX" data-geonameid="" data-lat="51.0631702594" data-lng="3.71247726082" data-name="Rabot  - Blaisantvest" data-parents="2797656" data-updated-at="2013-07-23T14:51:26Z"/><path d="M1328.162334,1472.694793L1303.192545,1505.861080L1300.343299,1510.641350L1297.725169,1517.069027L1296.508155,1525.734530L1296.396878,1535.837997L1266.312305,1515.174050L1255.399776,1518.897349L1262.395236,1528.934113L1273.233791,1548.817382L1280.949581,1556.368901L1285.209130,1557.702086L1295.637613,1565.939291L1295.711553,1568.653292L1300.911839,1578.357078L1317.503824,1561.054099L1340.330084,1582.709041L1367.711961,1612.354139L1379.771884,1612.297000L1390.371267,1606.249849L1395.732555,1609.506737L1401.954989,1604.688070L1406.551534,1601.126455L1409.402933,1604.383332L1413.563856,1600.488413L1407.183559,1596.679211L1408.860097,1593.955637L1417.298992,1596.022124L1420.071066,1590.813057L1414.127018,1585.642100L1410.864926,1580.090244L1408.856932,1571.395867L1411.726331,1565.482196L1409.242025,1556.654583L1408.891485,1550.569560L1410.690505,1545.884393L1422.283685,1547.884157L1441.564243,1544.379810L1434.198884,1536.742646L1420.031170,1524.877500L1361.598806,1488.549389L1354.233204,1487.082951L1344.542496,1484.083424L1336.446749,1479.446070L1328.162334,1472.694793Z " data-admincode1="VLG" data-admincode2="VOV" data-admincode3="44" data-admincode4="44021" data-cartodb-id="13" data-countrycod="BE" data-created-at="2013-07-23T14:48:23Z" data-descriptio="" data-fclass="P" data-fcode="PPLX" data-geonameid="" data-lat="51.025928072" data-lng="3.75975914011" data-name="Moscou - Vogelhoek" data-parents="2797656" data-updated-at="2013-07-23T14:53:51Z"/><path d="M1215.063169,689.879444L1165.319844,722.020125L1160.651125,723.162240L1138.056728,736.420355L1135.145923,733.783951L1132.026926,735.401960L1127.933301,734.669097L1117.082870,742.692539L1110.051701,741.902566L1107.401045,743.996471L1102.538122,743.111320L1096.950643,745.528831L1091.107229,750.002188L1074.949255,755.351198L1040.941403,792.052373L1017.984502,789.320694L1002.981086,789.739488L985.719631,793.061287L968.643967,799.086229L952.530935,806.576988L918.817381,828.202355L879.199079,854.006609L844.956127,874.880671L811.885181,891.614389L773.736022,905.882929L795.453091,936.961959L839.675587,995.818684L843.170976,1000.854402L840.022651,1001.853932L864.365055,1036.485673L881.507884,1057.238433L882.779538,1055.239301L885.963556,1051.345763L905.792632,1041.835669L916.311885,1033.239509L925.491656,1038.875082L931.605166,1041.635758L944.060753,1060.237134L949.555351,1068.795365L967.511850,1067.224607L973.513844,1064.092616L984.730874,1061.055828L1003.788124,1058.285598L1007.722343,1059.247086L1017.539621,1057.838172L1020.591790,1066.320232L1025.099498,1073.326773L1030.950811,1080.285745L1038.491249,1086.149965L1047.305535,1090.471986L1058.857211,1093.194675L1068.159943,1092.994757L1073.969941,1095.241454L1061.394006,1095.879289L1048.710647,1098.154550L1038.097039,1103.057322L1029.610361,1110.454348L1024.228321,1118.308372L1020.679087,1127.904615L1020.458221,1137.529479L1022.521805,1146.145258L1025.106129,1154.523077L1070.804841,1145.593085L1083.774619,1142.994067L1101.936357,1141.842122L1104.880776,1140.785381L1112.090806,1122.640002L1107.043448,1119.888702L1102.711922,1115.499959L1100.347215,1109.311948L1098.797525,1094.603620L1092.516912,1033.020560L1086.829239,981.492201L1087.779156,968.793622L1091.453127,959.112691L1101.156819,941.026552L1113.874242,914.364159L1135.012833,854.520605L1140.600153,841.328110L1152.361288,819.845333L1170.976294,787.521787L1183.547869,770.560760L1209.636906,742.549773L1238.904354,712.264592L1215.063169,689.879444Z " data-admincode1="VLG" data-admincode2="VOV" data-admincode3="44" data-admincode4="44021" data-cartodb-id="5" data-countrycod="BE" data-created-at="2013-07-23T14:48:23Z" data-descriptio="" data-fclass="P" data-fcode="PPLX" data-geonameid="2783456" data-lat="51.0914127322" data-lng="3.71499912732" data-name="Wondelgem" data-parents="2797656" data-updated-at="2013-07-23T14:50:59Z"/><path d="M886.952159,1280.081558L891.588971,1284.004234L896.589502,1284.213698L900.753994,1283.623391L961.966252,1250.985512L958.419878,1245.720481L944.207758,1222.708791L940.136925,1216.453708L907.163975,1177.533754L893.760260,1162.377325L879.679489,1146.811673L844.453504,1123.906173L824.835041,1140.537856L808.752978,1156.055843L796.335336,1168.708353L790.837270,1176.134254L785.994774,1185.064423L791.751514,1195.022859L777.910951,1205.095607L775.837807,1209.332273L776.943251,1215.368353L780.439493,1221.137877L789.387021,1227.478666L796.997012,1234.504977L800.847696,1240.331697L793.720723,1241.855026L781.965947,1242.321546L774.807424,1240.255530L758.065713,1232.686511L751.984405,1232.867405L743.402815,1235.228555L736.131573,1240.912466L731.170788,1242.559566L719.493071,1238.532266L714.340286,1237.513542L711.615742,1240.807737L710.601561,1245.749043L702.882125,1252.975374L694.982918,1259.878028L694.199131,1264.352868L695.827891,1269.932155L698.015991,1272.845579L697.108219,1275.730446L692.768146,1281.490674L694.012751,1283.137817L792.175782,1267.313887L794.325964,1271.960126L795.507314,1280.843242L793.612763,1285.356227L794.349517,1289.250353L798.765980,1285.679944L804.128863,1283.156859L814.296313,1281.519237L819.919181,1282.023853L828.081548,1285.698986L832.474163,1286.289293L838.545267,1284.565978L844.213781,1284.042319L844.040376,1290.688041L848.513861,1301.380286L853.076722,1308.521186L858.547621,1311.748884L863.583221,1312.539147L875.320699,1309.130545L881.884761,1310.777717L887.309794,1302.389532L880.493941,1291.087927L880.887307,1284.899215L886.952159,1280.081558Z " data-admincode1="VLG" data-admincode2="VOV" data-admincode3="44" data-admincode4="44021" data-cartodb-id="7" data-countrycod="BE" data-created-at="2013-07-23T14:48:23Z" data-descriptio="" data-fclass="P" data-fcode="PPLX" data-geonameid="" data-lat="51.0592194702" data-lng="3.69277428571" data-name="Brugse Poort - Rooigem" data-parents="2797656" data-updated-at="2013-07-23T14:51:17Z"/><path d="M885.963556,1051.345763L882.779538,1055.239301L881.507884,1057.238433L864.365055,1036.485673L840.022651,1001.853932L843.170976,1000.854402L839.675587,995.818684L795.453091,936.961959L773.736022,905.882929L636.024940,945.643257L617.083869,951.364182L612.193597,949.565087L601.223810,951.859172L585.153884,946.004978L575.030584,946.423814L564.649192,949.193845L602.398200,971.439944L644.115567,996.922923L637.424615,1001.587391L630.515806,1008.726910L612.406223,1019.693275L605.409388,1029.774404L587.442689,1043.606313L585.632310,1044.662988L577.356094,1034.458010L576.158439,1072.203439L576.655415,1109.816508L579.433292,1139.509675L583.649411,1160.149571L588.249859,1178.362031L591.770375,1185.673732L601.530867,1197.812375L614.293803,1212.302707L631.065277,1230.525301L647.937318,1246.034668L668.387105,1263.019936L688.454853,1276.501648L692.768146,1281.490674L697.108219,1275.730446L698.015991,1272.845579L695.827891,1269.932155L694.199131,1264.352868L694.982918,1259.878028L702.882125,1252.975374L710.601561,1245.749043L711.615742,1240.807737L714.340286,1237.513542L719.493071,1238.532266L731.170788,1242.559566L736.131573,1240.912466L743.402815,1235.228555L751.984405,1232.867405L758.065713,1232.686511L774.807424,1240.255530L781.965947,1242.321546L793.720723,1241.855026L800.847696,1240.331697L796.997012,1234.504977L789.387021,1227.478666L780.439493,1221.137877L776.943251,1215.368353L775.837807,1209.332273L777.910951,1205.095607L791.751514,1195.022859L785.994774,1185.064423L790.837270,1176.134254L796.335336,1168.708353L808.752978,1156.055843L824.835041,1140.537856L844.453504,1123.906173L842.943702,1122.506721L862.841193,1108.055308L888.637955,1091.642932L908.728207,1079.571759L922.522231,1070.946830L944.060753,1060.237134L931.605166,1041.635758L925.491656,1038.875082L916.311885,1033.239509L905.792632,1041.835669L885.963556,1051.345763Z " data-admincode1="VLG" data-admincode2="VOV" data-admincode3="44" data-admincode4="44021" data-cartodb-id="9" data-countrycod="BE" data-created-at="2013-07-23T14:48:23Z" data-descriptio="" data-fclass="P" data-fcode="PPLX" data-geonameid="2791700" data-lat="51.0743793462" data-lng="3.67690181232" data-name="Mariakerke" data-parents="2797656" data-updated-at="2013-07-23T14:51:47Z"/><path d="M1100.008739,1489.054073L1099.508711,1490.606214L1126.902508,1500.242853L1125.051122,1503.937549L1087.584849,1524.468030L1085.142566,1523.763362L1069.655169,1531.762321L1067.747219,1541.913440L1063.845613,1546.722389L1054.953735,1552.197944L1054.540157,1543.456111L1052.105166,1540.646927L974.606313,1582.851885L976.135068,1605.068991L973.339892,1605.783220L974.103014,1614.382558L967.494521,1614.592067L963.605585,1611.611338L954.455574,1610.697122L966.382167,1623.343824L981.383652,1634.990691L996.711972,1643.647331L1016.775893,1651.999274L1038.605226,1656.465724L1060.789294,1658.551342L1079.069639,1659.427493L1122.228023,1660.456018L1142.018782,1663.065428L1157.516837,1666.989075L1194.908051,1680.026702L1217.685432,1689.359768L1231.060908,1697.273870L1240.630477,1700.521426L1263.185500,1677.017277L1263.332220,1671.303194L1257.644517,1666.503381L1247.851254,1663.674926L1237.992891,1664.779642L1222.368677,1669.274700L1217.562832,1662.503548L1226.366558,1650.170794L1227.860655,1644.552044L1226.670722,1632.628932L1228.855977,1624.572312L1236.406660,1611.306599L1239.653971,1601.288347L1244.086300,1582.842362L1250.568130,1559.806616L1249.561726,1548.388860L1245.773405,1533.428776L1238.677814,1519.459177L1228.721446,1505.927737L1220.914515,1498.652613L1203.398076,1491.310867L1196.177503,1492.025043L1186.366250,1495.595929L1177.694806,1495.586406L1168.719311,1491.939342L1162.634330,1483.312117L1146.938001,1488.549389L1131.656660,1490.739526L1114.830577,1490.291976L1100.912263,1487.397188L1100.008739,1489.054073Z " data-admincode1="VLG" data-admincode2="VOV" data-admincode3="44" data-admincode4="44021" data-cartodb-id="14" data-countrycod="BE" data-created-at="2013-07-23T14:48:23Z" data-descriptio="" data-fclass="P" data-fcode="PPLX" data-geonameid="" data-lat="51.0210180699" data-lng="3.72989940369" data-name="Nieuw Gent - UZ" data-parents="2797656" data-updated-at="2013-07-23T14:54:01Z"/><path d="M991.634098,1223.756068L979.547920,1233.257757L977.123129,1247.319982L975.234798,1249.643070L973.160691,1252.061370L969.478327,1249.909654L963.052347,1253.632315L965.142742,1260.363595L978.849897,1307.740446L979.109955,1308.654483L979.615831,1311.567980L1010.878159,1340.588993L1014.458519,1341.826778L1037.327381,1345.606789L1055.195573,1343.597764L1049.559935,1324.031334L1049.921911,1317.118873L1050.957945,1308.016562L1055.519389,1292.725560L1054.065104,1278.929512L1052.574181,1268.313589L1055.715273,1258.240430L1049.270857,1250.290488L1047.588326,1237.056544L1038.074351,1225.755416L1010.169738,1218.976683L1001.564830,1216.387063L991.634098,1223.756068Z " data-admincode1="VLG" data-admincode2="VOV" data-admincode3="44" data-admincode4="44021" data-cartodb-id="10" data-countrycod="BE" data-created-at="2013-07-23T14:48:23Z" data-descriptio="" data-fclass="P" data-fcode="PPLX" data-geonameid="" data-lat="51.0535883443" data-lng="3.71540815786" data-name="Elisabethbegijnhof - Papegaai" data-parents="2797656" data-updated-at="2013-07-23T14:52:53Z"/><path d="M1142.521566,1246.291731L1149.168355,1254.889073L1155.369260,1269.265686L1158.448091,1280.662342L1165.690440,1304.969775L1182.558147,1330.705792L1184.521184,1336.704259L1183.279509,1356.051854L1184.511040,1363.659563L1194.161414,1380.817510L1199.491511,1384.083445L1206.746941,1385.007049L1209.915438,1379.703476L1225.279755,1366.849289L1238.872906,1355.832860L1255.306608,1345.892432L1226.657030,1313.234198L1217.201460,1302.294320L1210.098723,1291.754406L1189.486628,1244.378043L1184.061653,1246.072751L1153.165137,1248.986131L1151.543919,1245.929939L1142.521566,1246.291731Z " data-admincode1="VLG" data-admincode2="VOV" data-admincode3="44" data-admincode4="44021" data-cartodb-id="11" data-countrycod="BE" data-created-at="2013-07-23T14:48:23Z" data-descriptio="" data-fclass="P" data-fcode="PPLX" data-geonameid="" data-lat="51.0500288445" data-lng="3.73963132221" data-name="Macharius - Heirnis" data-parents="2797656" data-updated-at="2013-07-23T14:53:26Z"/><path d="M1091.453127,959.112691L1087.779156,968.793622L1086.829239,981.492201L1092.516912,1033.020560L1098.797525,1094.603620L1100.347215,1109.311948L1102.711922,1115.499959L1107.043448,1119.888702L1112.090806,1122.640002L1113.484845,1120.060063L1122.980089,1120.764548L1125.198673,1121.231031L1143.191193,1125.467468L1162.451488,1175.772478L1189.486628,1244.378043L1203.669459,1239.132076L1204.006994,1232.867405L1200.292562,1229.944536L1200.524647,1218.119823L1194.302583,1190.300686L1195.468545,1182.398695L1210.266628,1139.043187L1213.597499,1131.217618L1213.882487,1123.230247L1211.261306,1113.900593L1206.198052,1106.960510L1195.810646,1100.096617L1183.946286,1094.746419L1170.989227,1092.004688L1158.159669,1090.986060L1151.078377,1091.090778L1153.009941,1074.135954L1146.763561,1032.992001L1130.794053,1034.020111L1128.720727,1022.901333L1123.490329,991.535004L1115.584643,961.140256L1135.791770,962.301585L1133.955503,951.725906L1101.156819,941.026552L1091.453127,959.112691Z " data-admincode1="VLG" data-admincode2="VOV" data-admincode3="44" data-admincode4="44021" data-cartodb-id="19" data-countrycod="BE" data-created-at="2013-07-23T14:48:23Z" data-descriptio="" data-fclass="P" data-fcode="PPLX" data-geonameid="" data-lat="51.0736090354" data-lng="3.73330827643" data-name="Muide - Meulestede - Afrikalaan" data-parents="2797656" data-updated-at="2013-07-23T14:55:01Z"/><path d="M1419.465195,1313.310368L1410.173813,1314.100632L1395.233118,1318.013873L1378.752607,1323.326757L1385.486294,1331.343723L1386.520173,1336.723302L1385.258012,1341.550657L1381.561894,1345.359231L1345.991436,1364.897366L1370.227601,1382.750410L1353.184125,1390.548684L1350.405390,1387.844516L1332.400804,1397.061558L1332.515974,1404.774208L1347.527930,1405.459778L1350.469284,1412.182196L1369.234797,1406.849964L1372.259235,1414.277007L1374.088061,1422.694364L1375.300072,1436.253643L1339.052268,1448.270463L1338.690006,1454.069421L1336.514205,1459.744613L1332.716709,1466.172078L1328.162334,1472.694793L1336.446749,1479.446070L1344.542496,1484.083424L1354.233204,1487.082951L1361.598806,1488.549389L1420.031170,1524.877500L1434.198884,1536.742646L1441.564243,1544.379810L1456.712673,1535.752293L1447.976029,1531.390940L1484.000324,1511.488849L1489.991807,1508.175033L1498.164593,1505.994394L1511.604178,1502.413962L1518.673857,1509.917643L1543.637807,1506.575263L1553.944295,1504.385103L1554.546520,1496.890972L1571.867094,1496.576733L1572.943560,1480.902978L1574.220150,1466.476789L1576.793958,1458.097281L1582.052027,1449.460723L1593.305213,1435.653757L1600.326963,1423.170460L1602.961899,1411.087183L1603.348600,1399.956177L1601.305898,1388.025428L1596.312929,1375.180694L1589.255615,1364.126119L1579.537704,1354.052338L1569.683680,1345.302103L1557.714646,1338.427632L1544.491882,1332.962355L1528.770491,1327.982686L1512.820274,1323.183937L1494.366015,1318.966002L1477.753350,1315.814459L1457.491667,1313.795952L1438.546824,1312.900954L1419.465195,1313.310368Z " data-admincode1="VLG" data-admincode2="VOV" data-admincode3="44" data-admincode4="44021" data-cartodb-id="12" data-countrycod="BE" data-created-at="2013-07-23T14:48:23Z" data-descriptio="" data-fclass="P" data-fcode="PPLX" data-geonameid="2797652" data-lat="51.0390542133" data-lng="3.77542813346" data-name="Gentbrugge" data-parents="2797656" data-updated-at="2013-07-23T14:53:39Z"/><path d="M1081.480205,1217.681873L1058.195022,1228.992462L1055.398498,1234.133667L1047.588326,1237.056544L1049.270857,1250.290488L1055.715273,1258.240430L1052.574181,1268.313589L1054.065104,1278.929512L1055.519389,1292.725560L1050.957945,1308.016562L1049.921911,1317.118873L1049.559935,1324.031334L1055.195573,1343.597764L1058.199068,1362.345588L1057.449143,1366.944505L1051.323379,1373.809580L1030.482407,1384.683311L1044.550989,1393.567074L1046.652482,1391.367552L1090.713051,1421.056594L1096.088638,1422.256356L1096.119104,1422.275400L1102.213416,1426.141304L1102.280218,1426.103217L1125.442092,1425.627120L1148.118991,1454.174164L1151.452663,1454.059899L1151.294467,1444.652076L1153.712837,1437.301064L1161.536395,1431.473603L1173.520419,1429.026456L1178.053017,1428.417051L1181.946330,1427.779080L1185.687233,1428.778885L1184.189459,1423.798908L1188.534535,1419.733049L1192.937108,1406.869008L1195.959706,1398.984956L1202.405813,1390.634379L1206.746941,1385.007049L1199.491511,1384.083445L1194.161414,1380.817510L1184.511040,1363.659563L1183.279509,1356.051854L1184.521184,1336.704259L1182.558147,1330.705792L1165.690440,1304.969775L1158.448091,1280.662342L1155.369260,1269.265686L1149.168355,1254.889073L1142.521566,1246.291731L1138.377886,1240.883903L1133.074848,1229.106711L1129.417400,1224.641493L1119.599653,1219.129014L1108.678673,1214.359165L1105.084196,1211.065026L1100.164904,1210.779407L1092.441366,1218.748187L1091.237110,1221.775763L1081.480205,1217.681873Z " data-admincode1="VLG" data-admincode2="VOV" data-admincode3="44" data-admincode4="44021" data-cartodb-id="21" data-countrycod="BE" data-created-at="2013-07-23T14:48:23Z" data-descriptio="" data-fclass="P" data-fcode="PPLX" data-geonameid="" data-lat="51.0480134984" data-lng="3.72870206927" data-name="Binnenstad" data-parents="2797656" data-updated-at="2013-07-23T14:55:23Z"/><path d="M961.966252,1250.985512L900.753994,1283.623391L896.589502,1284.213698L891.588971,1284.004234L886.952159,1280.081558L880.887307,1284.899215L880.493941,1291.087927L887.309794,1302.389532L881.884761,1310.777717L875.320699,1309.130545L863.583221,1312.539147L858.547621,1311.748884L853.076722,1308.521186L848.513861,1301.380286L844.040376,1290.688041L844.213781,1284.042319L838.545267,1284.565978L832.474163,1286.289293L828.081548,1285.698986L819.919181,1282.023853L814.296313,1281.519237L804.128863,1283.156859L798.765980,1285.679944L794.349517,1289.250353L793.612763,1285.356227L795.507314,1280.843242L794.325964,1271.960126L792.175782,1267.313887L694.012751,1283.137817L710.238207,1298.562020L725.011495,1316.338129L732.955178,1331.619842L741.097197,1355.499607L749.455852,1391.653204L752.843818,1410.668221L759.439681,1424.370224L770.303248,1439.472085L782.194220,1450.593852L790.097541,1456.878448L812.890041,1444.347370L827.125896,1428.388485L833.113556,1414.286528L837.697271,1405.164602L842.710777,1399.632437L861.855902,1388.073037L873.222033,1378.513269L873.235226,1378.427574L873.317262,1378.399009L878.491241,1374.409442L882.675607,1372.276599L887.853933,1369.896198L887.883375,1369.867633L887.899013,1369.896198L900.642426,1367.477713L912.972282,1368.201354L938.471780,1375.171172L950.891403,1378.322836L966.476018,1378.408530L980.086169,1380.665163L984.046014,1382.426673L1000.376903,1394.157422L1006.662087,1396.785427L1013.903821,1395.328597L1030.482407,1384.683311L1051.323379,1373.809580L1057.449143,1366.944505L1058.199068,1362.345588L1055.195573,1343.597764L1037.327381,1345.606789L1014.458519,1341.826778L1010.878159,1340.588993L979.615831,1311.567980L979.109955,1308.654483L978.849897,1307.740446L965.142742,1260.363595L963.052347,1253.632315L961.966252,1250.985512Z " data-admincode1="VLG" data-admincode2="VOV" data-admincode3="44" data-admincode4="44021" data-cartodb-id="25" data-countrycod="BE" data-created-at="2013-07-23T14:48:23Z" data-descriptio="" data-fclass="P" data-fcode="PPLX" data-geonameid="" data-lat="51.0469596266" data-lng="3.69484102843" data-name="Watersportbaan - Ekkergem" data-parents="2797656" data-updated-at="2013-07-23T14:56:09Z"/><path d="M1113.484845,1120.060063L1112.090806,1122.640002L1104.880776,1140.785381L1101.936357,1141.842122L1103.082007,1153.494888L1100.004942,1152.933192L1075.078487,1161.225366L1061.594203,1165.404791L1044.333851,1173.192450L1040.331237,1178.485796L1038.133893,1177.962173L1032.739197,1194.308820L1019.373103,1192.138143L1018.147186,1207.075890L1010.169738,1218.976683L1038.074351,1225.755416L1047.588326,1237.056544L1055.398498,1234.133667L1058.195022,1228.992462L1081.480205,1217.681873L1091.237110,1221.775763L1092.441366,1218.748187L1100.164904,1210.779407L1105.084196,1211.065026L1108.678673,1214.359165L1119.599653,1219.129014L1129.417400,1224.641493L1133.074848,1229.106711L1138.377886,1240.883903L1142.521566,1246.291731L1151.543919,1245.929939L1153.165137,1248.986131L1184.061653,1246.072751L1189.486628,1244.378043L1162.451488,1175.772478L1143.191193,1125.467468L1125.198673,1121.231031L1122.980089,1120.764548L1113.484845,1120.060063Z " data-admincode1="VLG" data-admincode2="VOV" data-admincode3="44" data-admincode4="44021" data-cartodb-id="20" data-countrycod="BE" data-created-at="2013-07-23T14:48:23Z" data-descriptio="" data-fclass="P" data-fcode="PPLX" data-geonameid="" data-lat="51.062935581" data-lng="3.72819205634" data-name="Sluizeken - Tolhuis - Ham" data-parents="2797656" data-updated-at="2013-07-23T14:55:11Z"/><path d="M833.113556,1414.286528L827.125896,1428.388485L812.890041,1444.347370L790.097541,1456.878448L807.419948,1467.229042L831.138341,1474.827774L856.180497,1478.608110L875.188517,1483.416863L891.725821,1491.444180L904.893080,1501.042735L915.255523,1512.993400L922.683609,1527.915197L928.330095,1544.551218L933.319275,1563.120543L940.682751,1585.527824L948.103210,1601.469284L954.455574,1610.697122L963.605585,1611.611338L967.494521,1614.592067L974.103014,1614.382558L973.339892,1605.783220L976.135068,1605.068991L974.606313,1582.851885L1052.105166,1540.646927L1054.540157,1543.456111L1054.953735,1552.197944L1063.845613,1546.722389L1067.747219,1541.913440L1069.655169,1531.762321L1085.142566,1523.763362L1087.584849,1524.468030L1125.051122,1503.937549L1126.902508,1500.242853L1099.508711,1490.606214L1100.008739,1489.054073L1060.418454,1477.941551L1021.467311,1466.819588L969.719801,1451.803159L968.925782,1453.317174L958.565228,1450.212968L842.644986,1416.943133L833.113556,1414.286528Z " data-admincode1="VLG" data-admincode2="VOV" data-admincode3="44" data-admincode4="44021" data-cartodb-id="17" data-countrycod="BE" data-created-at="2013-07-23T14:48:23Z" data-descriptio="" data-fclass="P" data-fcode="PPLX" data-geonameid="" data-lat="51.0304998248" data-lng="3.70765618579" data-name="Stationsbuurt Zuid" data-parents="2797656" data-updated-at="2013-07-23T14:54:39Z"/><path d="M887.883375,1369.867633L887.853933,1369.896198L882.675607,1372.276599L878.491241,1374.409442L873.317262,1378.399009L873.235226,1378.427574L873.222033,1378.513269L861.855902,1388.073037L842.710777,1399.632437L837.697271,1405.164602L833.113556,1414.286528L842.644986,1416.943133L958.565228,1450.212968L968.925782,1453.317174L969.719801,1451.803159L1021.467311,1466.819588L1060.418454,1477.941551L1100.008739,1489.054073L1100.912263,1487.397188L1114.830577,1490.291976L1131.656660,1490.739526L1146.938001,1488.549389L1162.634330,1483.312117L1157.494386,1468.343139L1152.703714,1458.754309L1151.452663,1454.059899L1148.118991,1454.174164L1125.442092,1425.627120L1102.280218,1426.103217L1102.213416,1426.141304L1096.119104,1422.275400L1096.088638,1422.256356L1090.713051,1421.056594L1046.652482,1391.367552L1044.550989,1393.567074L1030.482407,1384.683311L1013.903821,1395.328597L1006.662087,1396.785427L1000.376903,1394.157422L984.046014,1382.426673L980.086169,1380.665163L966.476018,1378.408530L950.891403,1378.322836L938.471780,1375.171172L912.972282,1368.201354L900.642426,1367.477713L887.899013,1369.896198L887.883375,1369.867633Z " data-admincode1="VLG" data-admincode2="VOV" data-admincode3="44" data-admincode4="44021" data-cartodb-id="24" data-countrycod="BE" data-created-at="2013-07-23T14:48:23Z" data-descriptio="" data-fclass="P" data-fcode="PPLX" data-geonameid="" data-lat="51.0380880717" data-lng="3.71354035685" data-name="Stationsbuurt Noord" data-parents="2797656" data-updated-at="2013-07-23T14:55:59Z"/><path d="M1209.915438,1379.703476L1206.746941,1385.007049L1202.405813,1390.634379L1207.987803,1393.386160L1208.011581,1393.443291L1244.184968,1414.048482L1266.636000,1429.302593L1268.398091,1427.750514L1295.586054,1444.861561L1294.516065,1446.451746L1311.261394,1457.383121L1313.796628,1459.944578L1328.162334,1472.694793L1332.716709,1466.172078L1336.514205,1459.744613L1338.690006,1454.069421L1339.052268,1448.270463L1375.300072,1436.253643L1374.088061,1422.694364L1372.259235,1414.277007L1369.234797,1406.849964L1350.469284,1412.182196L1347.527930,1405.459778L1332.515974,1404.774208L1332.400804,1397.061558L1350.405390,1387.844516L1353.184125,1390.548684L1370.227601,1382.750410L1345.991436,1364.897366L1381.561894,1345.359231L1385.258012,1341.550657L1386.520173,1336.723302L1385.486294,1331.343723L1378.752607,1323.326757L1336.146712,1338.551411L1314.506722,1345.711525L1303.206694,1347.777681L1295.052024,1347.301608L1280.520645,1343.112171L1273.378922,1341.188843L1265.359602,1341.407835L1258.748385,1343.502550L1255.306608,1345.892432L1238.872906,1355.832860L1225.279755,1366.849289L1209.915438,1379.703476Z " data-admincode1="VLG" data-admincode2="VOV" data-admincode3="44" data-admincode4="44021" data-cartodb-id="22" data-countrycod="BE" data-created-at="2013-07-23T14:48:23Z" data-descriptio="" data-fclass="P" data-fcode="PPLX" data-geonameid="" data-lat="51.041863858" data-lng="3.75338365058" data-name="Oud Gentbrugge" data-parents="2797656" data-updated-at="2013-07-23T14:55:38Z"/><path d="M1173.520419,1429.026456L1161.536395,1431.473603L1153.712837,1437.301064L1151.294467,1444.652076L1151.452663,1454.059899L1152.703714,1458.754309L1157.494386,1468.343139L1162.634330,1483.312117L1168.719311,1491.939342L1177.694806,1495.586406L1186.366250,1495.595929L1196.177503,1492.025043L1203.398076,1491.310867L1220.914515,1498.652613L1228.721446,1505.927737L1238.677814,1519.459177L1245.773405,1533.428776L1262.395236,1528.934113L1255.399776,1518.897349L1266.312305,1515.174050L1296.396878,1535.837997L1296.508155,1525.734530L1297.725169,1517.069027L1300.343299,1510.641350L1303.192545,1505.861080L1328.162334,1472.694793L1313.796628,1459.944578L1311.261394,1457.383121L1294.516065,1446.451746L1295.586054,1444.861561L1268.398091,1427.750514L1266.636000,1429.302593L1244.184968,1414.048482L1208.011581,1393.443291L1207.987803,1393.386160L1202.405813,1390.634379L1195.959706,1398.984956L1192.937108,1406.869008L1188.534535,1419.733049L1184.189459,1423.798908L1185.687233,1428.778885L1181.946330,1427.779080L1178.053017,1428.417051L1173.520419,1429.026456Z " data-admincode1="VLG" data-admincode2="VOV" data-admincode3="44" data-admincode4="44021" data-cartodb-id="23" data-countrycod="BE" data-created-at="2013-07-23T14:48:23Z" data-descriptio="" data-fclass="P" data-fcode="PPLX" data-geonameid="2793070" data-lat="51.0342040505" data-lng="3.74446314365" data-name="Ledeberg" data-parents="2797656" data-updated-at="2013-07-23T14:55:47Z"/><path d="M1613.338666,0.000000L1603.959890,12.015229L1598.877077,12.281601L1579.760837,36.074506L1573.256035,46.387098L1564.829363,43.085919L1562.288803,47.680933L1565.930641,49.792931L1564.840357,55.824510L1561.641520,61.542164L1565.950192,62.579145L1559.333372,66.127719L1554.621295,72.321093L1547.308447,75.964825L1553.230938,88.570492L1560.083750,99.111763L1567.873181,107.874010L1561.407323,115.894221L1556.188377,119.195553L1552.246716,125.617473L1548.605591,137.500474L1549.228868,143.979555L1551.725357,150.306436L1555.761723,155.320389L1542.463769,162.275253L1527.883520,165.548141L1509.346119,173.197592L1503.010088,181.693855L1472.477046,191.055973L1420.071446,190.932286L1400.922321,201.198330L1375.183325,210.493963L1361.229109,213.262683L1353.778797,221.664019L1356.267342,227.667719L1361.345851,227.163445L1362.440707,231.911236L1358.010883,232.558230L1362.696126,244.603797L1361.731054,266.354559L1347.942977,263.709437L1346.909628,273.091076L1351.741692,284.299641L1344.557154,286.687894L1336.558076,316.707881L1332.902041,321.170489L1325.888388,324.862380L1331.733585,341.894668L1315.285900,352.247345L1320.228346,354.768918L1319.515882,356.177194L1326.828364,359.621767L1321.075359,362.609607L1318.154222,360.858770L1314.040916,367.424419L1325.159248,372.562772L1315.112781,380.060992L1318.568124,383.581742L1313.131296,387.302327L1312.897062,390.670844L1305.255943,393.154416L1306.017200,395.009962L1309.346327,396.532462L1311.315008,399.358607L1305.116825,401.223675L1311.319295,411.586263L1294.576323,418.437598L1304.555826,419.198860L1329.237656,408.369952L1333.611483,409.597478L1341.446746,404.316267L1343.342599,401.404472L1351.259490,396.770353L1354.441958,400.852564L1357.668532,402.831822L1361.838434,403.317121L1373.811879,400.852564L1379.868171,397.997870L1398.377617,393.335213L1411.593845,394.829165L1431.202429,393.049745L1434.609179,389.890566L1442.608109,387.644888L1446.972053,384.999560L1456.400328,383.572226L1459.526361,377.206335L1463.728943,372.686473L1441.882285,416.838951L1437.435683,422.224877L1391.690718,517.566479L1380.273364,529.366824L1294.743454,620.213447L1293.838707,623.144685L1274.128166,644.196471L1256.115344,659.100393L1215.063169,689.879444L1238.904354,712.264592L1209.636906,742.549773L1183.547869,770.560760L1170.976294,787.521787L1152.361288,819.845333L1140.600153,841.328110L1135.012833,854.520605L1113.874242,914.364159L1101.156819,941.026552L1133.955503,951.725906L1135.791770,962.301585L1115.584643,961.140256L1123.490329,991.535004L1128.720727,1022.901333L1130.794053,1034.020111L1146.763561,1032.992001L1153.009941,1074.135954L1151.078377,1091.090778L1158.159669,1090.986060L1170.989227,1092.004688L1183.946286,1094.746419L1195.810646,1100.096617L1206.198052,1106.960510L1211.261306,1113.900593L1213.882487,1123.230247L1213.597499,1131.217618L1210.266628,1139.043187L1195.468545,1182.398695L1194.302583,1190.300686L1200.524647,1218.119823L1200.292562,1229.944536L1204.006994,1232.867405L1204.499670,1221.975698L1205.883452,1211.645784L1208.966977,1205.219374L1213.316427,1200.011622L1219.779011,1196.984088L1219.539776,1192.880743L1239.705546,1171.545424L1240.983324,1170.193530L1242.054086,1166.918526L1239.565867,1152.304855L1252.044890,1143.032147L1251.796993,1141.994445L1250.040015,1134.768631L1246.965912,1127.771334L1239.918604,1119.069976L1234.283506,1106.903390L1230.584852,1096.736081L1231.527144,1088.929766L1235.982948,1081.380525L1242.691769,1074.849938L1241.158366,1070.651717L1240.012814,1068.747766L1241.473716,1061.998279L1245.992267,1054.925152L1254.660474,1047.661666L1265.565743,1040.341096L1279.127536,1023.586735L1292.510282,1007.251407L1302.735385,990.107113L1309.378265,974.381365L1313.675095,958.198860L1314.829317,940.503009L1313.250331,920.084969L1311.741377,911.499002L1309.072726,884.846635L1310.071603,862.097297L1312.700279,843.146117L1316.656562,823.433707L1313.624567,823.186233L1303.920321,826.926907L1296.915836,815.666839L1293.569727,815.133821L1285.526603,816.523477L1280.052609,804.492517L1288.286342,801.513345L1283.717346,793.794177L1302.893973,786.722273L1309.310543,783.762172L1333.051009,793.470563L1344.368230,772.121700L1359.986583,748.983784L1392.890022,742.264241L1404.741598,741.978708L1407.948151,744.377182L1428.766091,746.137968L1432.804298,753.933042L1471.736366,749.202694L1474.171144,745.509796L1478.767894,743.492030L1483.922285,744.301040L1487.702485,748.536448L1496.635264,746.651928L1495.302420,744.091649L1505.296088,741.617034L1508.418462,747.013604L1528.588481,741.835942L1527.954852,739.999018L1538.058207,738.419076L1539.836429,743.130356L1553.667558,744.757892L1557.485400,744.548502L1557.160986,741.407644L1564.386459,740.094196L1565.478736,742.978072L1569.354075,741.969190L1569.230238,735.658938L1574.811082,734.688132L1575.496779,737.181772L1583.646520,737.943189L1589.190544,733.936234L1594.294668,734.507296L1593.161175,736.915276L1597.525965,740.741402L1605.848299,734.678615L1608.366133,734.773792L1612.327671,731.204658L1620.371457,730.566974L1621.054093,732.917841L1637.734997,730.624080L1646.833686,730.148196L1673.993004,709.951826L1703.103552,701.966623L1695.138024,693.905321L1688.720912,689.984136L1686.355201,685.215913L1697.601777,680.009905L1700.818136,675.022813L1704.200372,670.406913L1709.512319,667.142480L1718.868492,663.392673L1732.067905,650.420697L1738.866089,644.424882L1744.055106,641.722015L1750.756546,639.837624L1768.027191,637.791444L1766.516713,635.707199L1772.350571,632.966279L1769.798267,630.291982L1781.532477,623.411162L1769.139751,611.429281L1796.057680,599.514111L1790.644061,594.451143L1778.039775,587.142225L1775.258956,582.964357L1769.852719,576.873635L1760.938944,570.059669L1777.102740,560.133790L1813.798446,531.108334L1784.372336,494.556063L1802.204129,488.456172L1782.498276,440.913997L1789.437329,440.314496L1795.135771,439.296295L1801.807614,435.794450L1813.982078,432.264066L1818.154870,429.152386L1827.489689,419.474817L1839.426298,410.663238L1842.607708,411.253212L1851.027659,405.686526L1862.170655,401.033362L1866.925010,400.110343L1878.859297,395.932977L1894.490083,392.554933L1904.893464,392.117215L1909.714705,387.464092L1919.967266,385.989178L1936.659134,389.795410L1943.188961,394.419993L1959.045921,396.132805L1970.852241,391.955450L1986.100911,388.624993L1999.496550,385.694196L1977.022980,351.638363L1983.782267,349.069218L1975.051090,325.566504L1965.064104,329.829318L1953.295311,311.807590L1964.199231,303.567524L1935.126299,273.757118L1929.952938,276.735278L1916.585637,254.660870L1880.227355,235.022521L1846.593720,188.030404L1849.929664,186.146563L1848.098908,183.825064L1851.619783,182.493058L1845.772839,173.758934L1854.637307,171.037856L1856.227809,165.947738L1854.852067,161.476061L1864.743968,147.271433L1868.546007,145.425697L1864.197476,132.524635L1865.881771,124.913439L1869.203453,124.418713L1869.960468,111.917409L1884.441053,116.017902L1887.280983,108.064287L1883.720458,106.599152L1888.740956,93.774522L1885.199386,91.139207L1897.344497,56.205052L1889.514065,51.410229L1872.340204,59.782152L1871.267643,39.632533L1831.620523,16.619665L1653.751115,50.991635L1653.153732,24.354005L1639.868862,19.264367L1630.714850,15.316342L1622.065082,8.714124L1613.338666,0.000000Z " data-admincode1="VLG" data-admincode2="VOV" data-admincode3="44" data-admincode4="44021" data-cartodb-id="1" data-countrycod="BE" data-created-at="2013-07-23T14:48:23Z" data-descriptio="" data-fclass="P" data-fcode="PPLX" data-geonameid="" data-lat="51.1377628248" data-lng="3.78871423032" data-name="Kanaaldorpen en -zone" data-parents="2797656" data-updated-at="2013-07-23T14:49:53Z"/><path d="M1522.081394,1039.322501L1530.086142,1033.734525L1565.202053,1012.886885L1579.771311,1004.909643L1642.928238,1045.595910L1660.450822,1057.447866L1674.600781,1072.355756L1686.417307,1088.053938L1694.642302,1103.019242L1726.825104,1082.037393L1719.002862,1068.995280L1714.339250,1062.921691L1703.679058,1056.057993L1697.719273,1045.024733L1693.638723,1041.197857L1680.650495,1032.982482L1669.792996,1020.559545L1660.548164,1007.003903L1648.715680,993.267513L1639.172811,977.417983L1638.138813,975.828279L1644.227058,973.296180L1624.857595,946.423814L1619.970249,935.952951L1612.401697,924.120961L1600.935720,910.946912L1612.194753,901.761316L1629.395541,890.919527L1622.501134,882.409870L1617.117230,885.189305L1612.179081,877.517314L1615.187704,876.013380L1611.856098,869.331360L1607.489372,858.956202L1602.514211,861.535707L1597.377717,850.646607L1584.929803,855.957889L1569.103060,854.482531L1561.512976,857.004918L1556.891257,848.676297L1558.441361,846.420438L1551.711730,836.835453L1547.317207,837.130522L1540.173227,820.987521L1544.691457,821.539578L1541.239865,813.477656L1547.109596,812.649574L1542.986265,801.018404L1539.397987,802.112986L1537.540359,799.600206L1546.401514,792.052373L1560.744211,768.428747L1557.518563,760.738297L1556.967993,757.216693L1569.684851,758.025710L1602.473229,752.257907L1608.888173,749.945081L1624.501136,741.778836L1630.789883,740.217926L1642.293843,739.837217L1646.833686,730.148196L1637.734997,730.624080L1621.054093,732.917841L1620.371457,730.566974L1612.327671,731.204658L1608.366133,734.773792L1605.848299,734.678615L1597.525965,740.741402L1593.161175,736.915276L1594.294668,734.507296L1589.190544,733.936234L1583.646520,737.943189L1575.496779,737.181772L1574.811082,734.688132L1569.230238,735.658938L1569.354075,741.969190L1565.478736,742.978072L1564.386459,740.094196L1557.160986,741.407644L1557.485400,744.548502L1553.667558,744.757892L1539.836429,743.130356L1538.058207,738.419076L1527.954852,739.999018L1528.588481,741.835942L1508.418462,747.013604L1505.296088,741.617034L1495.302420,744.091649L1496.635264,746.651928L1487.702485,748.536448L1483.922285,744.301040L1478.767894,743.492030L1474.171144,745.509796L1471.736366,749.202694L1432.804298,753.933042L1428.766091,746.137968L1407.948151,744.377182L1404.741598,741.978708L1392.890022,742.264241L1359.986583,748.983784L1344.368230,772.121700L1333.051009,793.470563L1309.310543,783.762172L1302.893973,786.722273L1283.717346,793.794177L1288.286342,801.513345L1280.052609,804.492517L1285.526603,816.523477L1293.569727,815.133821L1296.915836,815.666839L1303.920321,826.926907L1313.624567,823.186233L1316.656562,823.433707L1312.700279,843.146117L1310.071603,862.097297L1309.072726,884.846635L1311.741377,911.499002L1313.250331,920.084969L1314.829317,940.503009L1313.675095,958.198860L1309.378265,974.381365L1302.735385,990.107113L1292.510282,1007.251407L1279.127536,1023.586735L1265.565743,1040.341096L1254.660474,1047.661666L1245.992267,1054.925152L1241.473716,1061.998279L1240.012814,1068.747766L1241.158366,1070.651717L1253.528820,1063.683268L1269.291082,1058.637826L1285.381784,1055.229782L1298.190536,1054.268296L1302.447698,1055.562970L1312.659123,1056.057993L1312.425709,1058.447432L1327.100422,1059.351803L1339.734412,1062.778895L1363.844602,1073.022140L1400.921010,1092.928118L1403.295868,1091.604852L1442.042097,1110.530508L1470.982416,1091.185977L1487.011189,1076.039911L1505.888713,1055.172664L1512.541964,1047.204724L1522.081394,1039.322501Z " data-admincode1="VLG" data-admincode2="VOV" data-admincode3="44" data-admincode4="44021" data-cartodb-id="2" data-countrycod="BE" data-created-at="2013-07-23T14:48:23Z" data-descriptio="" data-fclass="P" data-fcode="PPLX" data-geonameid="2789800" data-lat="51.091129628" data-lng="3.77559267579" data-name="Oostakker" data-parents="2797656" data-updated-at="2013-07-23T14:50:03Z"/><path d="M1298.190536,1054.268296L1285.381784,1055.229782L1269.291082,1058.637826L1253.528820,1063.683268L1241.158366,1070.651717L1242.691769,1074.849938L1235.982948,1081.380525L1231.527144,1088.929766L1230.584852,1096.736081L1234.283506,1106.903390L1239.918604,1119.069976L1246.965912,1127.771334L1250.040015,1134.768631L1251.796993,1141.994445L1252.044890,1143.032147L1239.565867,1152.304855L1242.054086,1166.918526L1240.983324,1170.193530L1239.705546,1171.545424L1219.539776,1192.880743L1219.779011,1196.984088L1229.288410,1229.135273L1236.166450,1237.980060L1267.507945,1228.249845L1314.043863,1286.079829L1314.107495,1288.660045L1310.083434,1296.391197L1317.948309,1297.029114L1359.037612,1269.836945L1358.654610,1263.981551L1355.198962,1263.991072L1341.050341,1244.225710L1362.432632,1223.260992L1377.557861,1209.598850L1388.959679,1194.699161L1395.736475,1198.516895L1402.432016,1194.480189L1404.583121,1195.974912L1411.660809,1195.679775L1415.921648,1197.117376L1422.256475,1202.020460L1427.314330,1202.801147L1430.291398,1204.619577L1433.441260,1206.438010L1443.033799,1205.714445L1442.261377,1200.620937L1465.038795,1192.376156L1478.037337,1187.673032L1487.620273,1188.920215L1496.048866,1188.567957L1500.561940,1184.026692L1506.905482,1177.314785L1511.884665,1167.994326L1513.688431,1162.891422L1534.782705,1160.501822L1545.940475,1158.892890L1557.444950,1154.941970L1564.503054,1151.371869L1572.030195,1147.611373L1595.589161,1142.879824L1620.903883,1135.673046L1640.271446,1127.219167L1657.490466,1119.793501L1658.402158,1116.509083L1682.306244,1109.073948L1694.642302,1103.019242L1686.417307,1088.053938L1674.600781,1072.355756L1660.450822,1057.447866L1642.928238,1045.595910L1579.771311,1004.909643L1565.202053,1012.886885L1530.086142,1033.734525L1522.081394,1039.322501L1512.541964,1047.204724L1505.888713,1055.172664L1487.011189,1076.039911L1470.982416,1091.185977L1442.042097,1110.530508L1403.295868,1091.604852L1400.921010,1092.928118L1363.844602,1073.022140L1339.734412,1062.778895L1327.100422,1059.351803L1312.425709,1058.447432L1312.659123,1056.057993L1302.447698,1055.562970L1298.190536,1054.268296Z " data-admincode1="VLG" data-admincode2="VOV" data-admincode3="44" data-admincode4="44021" data-cartodb-id="3" data-countrycod="BE" data-created-at="2013-07-23T14:48:23Z" data-descriptio="" data-fclass="P" data-fcode="PPLX" data-geonameid="2786743" data-lat="51.0690217239" data-lng="3.77051637966" data-name="Sint Amandsberg" data-parents="2797656" data-updated-at="2013-07-23T14:50:17Z"/><path d="M996.802514,1985.294789L1013.437307,1968.815953L1030.514600,1949.860747L1050.568743,1922.895224L1070.042506,1894.149028L1076.689388,1885.871976L1089.448858,1872.794514L1094.295284,1866.784442L1096.462962,1859.240931L1095.608777,1844.696918L1089.643512,1821.762038L1088.828383,1808.332720L1092.301089,1795.779746L1098.587825,1785.122180L1107.828539,1775.531385L1117.130084,1769.816938L1126.175637,1765.131108L1133.938502,1762.654861L1142.249939,1760.873871L1151.647353,1760.311955L1159.887688,1761.854844L1172.718451,1766.454949L1187.147247,1771.616987L1199.264334,1773.788477L1216.005260,1776.036162L1229.375794,1777.083814L1237.591772,1776.102831L1244.630908,1772.836069L1251.274046,1766.207324L1255.684451,1759.207171L1256.660555,1750.835602L1254.534801,1742.559317L1253.333970,1733.959266L1254.917791,1726.235451L1259.543333,1720.502139L1266.520939,1717.187875L1278.852686,1715.064083L1240.630477,1700.521426L1231.060908,1697.273870L1217.685432,1689.359768L1194.908051,1680.026702L1157.516837,1666.989075L1142.018782,1663.065428L1122.228023,1660.456018L1079.069639,1659.427493L1060.789294,1658.551342L1038.605226,1656.465724L1016.775893,1651.999274L996.711972,1643.647331L981.383652,1634.990691L966.382167,1623.343824L954.455574,1610.697122L948.103210,1601.469284L940.682751,1585.527824L933.319275,1563.120543L914.199009,1569.976965L908.872157,1571.424436L894.455269,1574.395564L897.922004,1584.346982L887.043062,1593.231891L886.828677,1597.964815L892.047386,1602.345403L893.863731,1608.916307L884.089901,1612.211292L872.780800,1607.668785L861.762154,1611.792276L842.082419,1618.191804L830.028057,1629.076776L817.739599,1616.315749L813.194381,1615.668178L808.880090,1618.096573L802.361065,1626.381715L797.702330,1621.467763L779.634094,1630.514779L752.821637,1604.764254L736.142669,1608.116369L685.081757,1706.968940L716.013783,1727.797354L720.973095,1733.416407L723.672548,1741.264068L725.483761,1754.349941L747.103575,1780.036289L758.719705,1796.141666L769.189569,1809.228004L780.318256,1811.590033L797.662309,1818.171351L806.370140,1821.904904L824.720599,1827.029030L838.796821,1831.905537L856.823959,1838.067864L868.310896,1836.772535L910.665671,1876.937762L913.249761,1883.195516L916.602669,1891.310632L925.132439,1900.387803L933.689851,1904.778772L947.803700,1913.113076L950.787651,1922.590424L950.557665,1930.458096L947.096691,1937.678102L931.854916,1953.585093L936.055142,1957.023692L940.125186,1954.375684L947.628473,1956.909389L953.557682,1961.405297L957.216886,1966.253653L962.498082,1962.948387L971.528853,1973.273794L972.942934,1969.806583L976.128789,1966.939473L982.093693,1965.024893L988.721730,1965.644036L992.040837,1968.996934L990.578669,1978.636556L996.802514,1985.294789Z " data-admincode1="VLG" data-admincode2="VOV" data-admincode3="44" data-admincode4="44021" data-cartodb-id="15" data-countrycod="BE" data-created-at="2013-07-23T14:48:23Z" data-descriptio="" data-fclass="P" data-fcode="PPLX" data-geonameid="2783084" data-lat="51.0042113953" data-lng="3.70617055906" data-name="Zwijnaarde" data-parents="2797656" data-updated-at="2013-07-23T14:54:10Z"/><path d="M523.740266,1397.889952L500.363475,1405.612127L495.978080,1408.935246L493.209543,1414.819753L492.110923,1429.340681L492.570888,1482.836003L492.406292,1498.186016L489.782316,1509.155846L490.491324,1516.764307L495.693729,1524.010948L497.688645,1528.457984L496.138079,1539.732753L489.574739,1550.264833L517.973499,1573.138548L539.425274,1593.669947L550.237771,1609.268660L558.435935,1610.316199L561.710145,1607.011694L569.721941,1613.106463L553.157624,1629.381519L538.480233,1640.371325L535.440187,1645.875781L535.181581,1651.780237L534.329371,1661.960714L530.795085,1671.112725L555.378160,1725.606881L573.223042,1714.740277L590.234775,1711.045077L609.589619,1687.036020L627.144284,1653.646811L635.844486,1657.446631L646.055851,1678.293425L662.575279,1690.397837L671.670483,1699.340496L685.081757,1706.968940L736.142669,1608.116369L752.821637,1604.764254L779.634094,1630.514779L797.702330,1621.467763L802.361065,1626.381715L808.880090,1618.096573L813.194381,1615.668178L817.739599,1616.315749L830.028057,1629.076776L842.082419,1618.191804L861.762154,1611.792276L872.780800,1607.668785L884.089901,1612.211292L893.863731,1608.916307L892.047386,1602.345403L886.828677,1597.964815L887.043062,1593.231891L897.922004,1584.346982L894.455269,1574.395564L908.872157,1571.424436L914.199009,1569.976965L933.319275,1563.120543L928.330095,1544.551218L922.683609,1527.915197L915.255523,1512.993400L904.893080,1501.042735L891.725821,1491.444180L875.188517,1483.416863L856.180497,1478.608110L831.138341,1474.827774L807.419948,1467.229042L790.097541,1456.878448L765.221823,1468.638328L764.399294,1471.647348L771.311026,1489.225475L770.455780,1493.167726L764.041973,1495.434048L759.793500,1494.586558L754.643500,1488.454166L750.813858,1486.102153L746.155143,1486.806804L741.970355,1494.243752L740.536703,1501.376019L737.291515,1503.889937L720.851718,1506.061051L713.161949,1505.575407L697.743554,1500.299988L693.080822,1499.404882L688.833540,1501.795005L684.025958,1501.509333L675.450623,1496.119659L663.049820,1485.378457L659.928166,1480.264985L659.611093,1474.884908L662.269364,1469.143005L666.465187,1460.439730L664.265071,1451.660327L657.701317,1446.861195L651.338185,1442.661967L648.539471,1438.243744L647.961530,1430.483317L645.609932,1428.721754L635.913523,1427.836212L626.618989,1420.390060L620.094189,1418.123848L616.649453,1413.705694L612.949947,1410.382566L611.636379,1414.343660L606.409971,1418.742771L599.756684,1420.694762L574.530134,1425.865168L567.685183,1425.865168L561.873653,1423.570381L559.089174,1419.809224L560.036657,1414.162744L565.018475,1401.393967L562.862433,1395.728511L557.113503,1393.900335L544.071783,1394.690640L523.740266,1397.889952Z " data-admincode1="VLG" data-admincode2="VOV" data-admincode3="44" data-admincode4="44021" data-cartodb-id="16" data-countrycod="BE" data-created-at="2013-07-23T14:48:23Z" data-descriptio="" data-fclass="P" data-fcode="PPLX" data-geonameid="2786713" data-lat="51.0251142815" data-lng="3.669386337" data-name="Sint Denijs Westrem" data-parents="2797656" data-updated-at="2013-07-23T14:54:19Z"/><path d="M591.770375,1185.673732L588.249859,1178.362031L583.649411,1160.149571L579.433292,1139.509675L576.655415,1109.816508L576.158439,1072.203439L577.356094,1034.458010L549.861929,1003.500779L532.083213,1018.769889L528.971106,1023.977033L521.902510,1025.376396L506.456901,1032.725454L500.643281,1037.351952L496.619461,1039.236825L471.020407,1036.742700L464.072519,1038.884601L449.942543,1040.617163L445.110617,1007.422755L447.683639,998.369858L424.570533,989.412207L414.954670,989.336053L406.219929,992.220392L390.623224,1002.034800L367.997944,1014.095850L359.101566,1032.516025L342.220652,1046.671626L351.024736,1052.773710L327.238297,1079.705036L318.269693,1084.369753L311.584793,1079.743116L308.116433,1074.830898L305.529054,1067.871950L281.176852,1046.405076L274.143477,1052.726112L268.981423,1053.363928L266.758181,1055.163144L255.203269,1055.058428L252.099237,1058.199920L243.241737,1059.209007L231.715220,1079.476561L222.574999,1086.007168L213.436583,1095.860249L208.046170,1098.878065L204.533167,1105.104114L197.208339,1111.891869L191.417440,1124.505939L193.985075,1126.952604L193.359693,1129.018469L187.068995,1131.741225L188.978962,1134.349745L183.451467,1136.929708L179.093443,1134.721031L163.867769,1146.288061L162.413976,1151.495633L162.055027,1162.729577L157.048875,1163.662569L156.247242,1167.365982L166.943353,1172.345136L172.693462,1175.020366L177.814901,1169.174851L176.410528,1165.956971L181.824121,1165.109660L184.129832,1167.242218L192.107736,1161.130163L208.873503,1171.126527L211.449587,1171.097966L218.489479,1176.172335L226.949381,1180.894465L234.459054,1183.284097L236.934985,1193.185399L236.767656,1206.009583L241.818979,1213.330936L228.367374,1242.930878L217.515850,1237.742041L212.366768,1244.787439L204.635904,1252.318434L225.866601,1262.372512L220.595253,1269.322812L215.595580,1266.990174L211.351667,1272.778932L206.913851,1273.245461L198.613515,1281.938163L196.515580,1282.928354L187.509057,1299.904505L185.698579,1306.388434L178.030466,1314.433876L172.103821,1321.689092L163.963357,1331.591278L154.818656,1326.487836L148.570830,1320.508451L140.185635,1320.118078L131.767861,1317.442597L120.770580,1324.383623L113.880375,1333.009962L114.978028,1339.179824L96.438842,1357.756206L88.559910,1355.347263L75.960459,1368.010922L83.762583,1379.732041L86.473185,1388.320601L88.024116,1402.203320L50.514355,1420.913766L0.503450,1505.042151L54.867285,1531.790888L52.454767,1534.666715L61.693541,1542.446709L71.418484,1545.770121L83.361246,1553.845375L88.652918,1549.579198L94.775236,1553.826330L101.009874,1556.245105L109.561483,1556.254628L117.057788,1564.415642L124.037283,1567.958126L132.032923,1573.024274L144.049236,1580.633048L164.797530,1563.349090L173.282508,1550.064856L176.933480,1532.714580L180.100446,1519.906736L199.623763,1523.934768L197.982426,1517.297567L199.755348,1511.155563L204.816144,1501.975931L211.178821,1493.253427L219.497899,1483.588264L233.609697,1473.904117L245.600381,1467.000509L253.354685,1462.686960L261.441194,1458.811442L272.817238,1455.583438L287.304934,1453.479050L296.038395,1453.593315L300.324737,1455.193031L303.371114,1458.935230L302.845160,1464.315252L305.433744,1467.724196L312.349555,1470.019048L332.934368,1474.875386L348.708946,1480.379253L354.756354,1483.178805L357.219365,1486.683014L357.804561,1490.577647L361.614857,1495.262646L378.212048,1505.927737L382.904555,1506.460993L386.247209,1504.261312L390.231771,1501.499811L393.932931,1500.985601L402.490842,1503.813758L414.751405,1512.269692L419.674959,1517.354702L421.908049,1523.849065L425.655336,1529.095996L432.113608,1534.619102L444.311646,1546.865230L451.966913,1555.340445L455.949057,1567.091550L455.092012,1573.852762L453.675532,1577.957117L462.877517,1581.366312L476.036617,1577.852365L484.919738,1573.262345L488.534386,1567.567691L488.070628,1561.254078L486.913396,1556.264151L489.574739,1550.264833L496.138079,1539.732753L497.688645,1528.457984L495.693729,1524.010948L490.491324,1516.764307L489.782316,1509.155846L492.406292,1498.186016L492.570888,1482.836003L492.110923,1429.340681L493.209543,1414.819753L495.978080,1408.935246L500.363475,1405.612127L523.740266,1397.889952L544.071783,1394.690640L557.113503,1393.900335L562.862433,1395.728511L565.018475,1401.393967L560.036657,1414.162744L559.089174,1419.809224L561.873653,1423.570381L567.685183,1425.865168L574.530134,1425.865168L599.756684,1420.694762L606.409971,1418.742771L611.636379,1414.343660L612.949947,1410.382566L616.649453,1413.705694L620.094189,1418.123848L626.618989,1420.390060L635.913523,1427.836212L645.609932,1428.721754L647.961530,1430.483317L648.539471,1438.243744L651.338185,1442.661967L657.701317,1446.861195L664.265071,1451.660327L666.465187,1460.439730L662.269364,1469.143005L659.611093,1474.884908L659.928166,1480.264985L663.049820,1485.378457L675.450623,1496.119659L684.025958,1501.509333L688.833540,1501.795005L693.080822,1499.404882L697.743554,1500.299988L713.161949,1505.575407L720.851718,1506.061051L737.291515,1503.889937L740.536703,1501.376019L741.970355,1494.243752L746.155143,1486.806804L750.813858,1486.102153L754.643500,1488.454166L759.793500,1494.586558L764.041973,1495.434048L770.455780,1493.167726L771.311026,1489.225475L764.399294,1471.647348L765.221823,1468.638328L790.097541,1456.878448L782.194220,1450.593852L770.303248,1439.472085L759.439681,1424.370224L752.843818,1410.668221L749.455852,1391.653204L741.097197,1355.499607L732.955178,1331.619842L725.011495,1316.338129L710.238207,1298.562020L694.012751,1283.137817L692.768146,1281.490674L688.454853,1276.501648L668.387105,1263.019936L647.937318,1246.034668L631.065277,1230.525301L614.293803,1212.302707L601.530867,1197.812375L591.770375,1185.673732Z " data-admincode1="VLG" data-admincode2="VOV" data-admincode3="44" data-admincode4="44021" data-cartodb-id="18" data-countrycod="BE" data-created-at="2013-07-23T14:48:23Z" data-descriptio="" data-fclass="P" data-fcode="PPLX" data-geonameid="2799108" data-lat="51.0511693999" data-lng="3.63308968657" data-name="Drongen" data-parents="2797656" data-updated-at="2013-07-23T14:54:48Z"/></g><g fill="#000" font-family="Arial" font-size="12px" id="mylayer-label" stroke="none"><text text-anchor="middle" y="1283.6843158"><tspan dy="0" x="1275.82646924"><![CDATA[Dampoort]]></tspan></text><text text-anchor="middle" y="1110.43213078"><tspan dy="0" x="952.374156975"><![CDATA[Bloemekenswijk]]></tspan></text><text text-anchor="middle" y="1182.94732623"><tspan dy="0" x="990.63812682"><![CDATA[Rabot  - Blaisantvest]]></tspan></text><text text-anchor="middle" y="1537.55219994"><tspan dy="0" x="1353.5548623"><![CDATA[Moscou - Vogelhoek]]></tspan></text><text text-anchor="middle" y="914.104579265"><tspan dy="0" x="1003.7868028"><![CDATA[Wondelgem]]></tspan></text><text text-anchor="middle" y="1220.56304868"><tspan dy="0" x="843.428830101"><![CDATA[Brugse Poort - Rooigem]]></tspan></text><text text-anchor="middle" y="1076.2463352"><tspan dy="0" x="721.109726373"><![CDATA[Mariakerke]]></tspan></text><text text-anchor="middle" y="1584.31163275"><tspan dy="0" x="1130.1858159"><![CDATA[Nieuw Gent - UZ]]></tspan></text><text text-anchor="middle" y="1274.17530179"><tspan dy="0" x="1014.62098704"><![CDATA[Elisabethbegijnhof - Papegaai]]></tspan></text><text text-anchor="middle" y="1308.06628687"><tspan dy="0" x="1197.34016182"><![CDATA[Macharius - Heirnis]]></tspan></text><text text-anchor="middle" y="1083.57573573"><tspan dy="0" x="1144.98199886"><![CDATA[Muide - Meulestede - Afrikalaan]]></tspan></text><text text-anchor="middle" y="1412.56496648"><tspan dy="0" x="1468.56485207"><![CDATA[Gentbrugge]]></tspan></text><text text-anchor="middle" y="1327.25864266"><tspan dy="0" x="1115.64304162"><![CDATA[Binnenstad]]></tspan></text><text text-anchor="middle" y="1337.29003908"><tspan dy="0" x="861.453467563"><![CDATA[Watersportbaan - Ekkergem]]></tspan></text><text text-anchor="middle" y="1185.18197708"><tspan dy="0" x="1108.74185679"><![CDATA[Sluizeken - Tolhuis - Ham]]></tspan></text><text text-anchor="middle" y="1494.01888399"><tspan dy="0" x="961.103374082"><![CDATA[Stationsbuurt Zuid]]></tspan></text><text text-anchor="middle" y="1421.76076211"><tspan dy="0" x="1003.765361"><![CDATA[Stationsbuurt Noord]]></tspan></text><text text-anchor="middle" y="1385.80869185"><tspan dy="0" x="1302.35028267"><![CDATA[Oud Gentbrugge]]></tspan></text><text text-anchor="middle" y="1458.74478853"><tspan dy="0" x="1236.9080703"><![CDATA[Ledeberg]]></tspan></text><text text-anchor="middle" y="473.073750484"><tspan dy="0" x="1547.65638524"><![CDATA[Kanaaldorpen en -zone]]></tspan></text><text text-anchor="middle" y="916.798089"><tspan dy="0" x="1458.95608068"><![CDATA[Oostakker]]></tspan></text><text text-anchor="middle" y="1127.24408852"><tspan dy="0" x="1425.42067284"><![CDATA[Sint Amandsberg]]></tspan></text><text text-anchor="middle" y="1744.37728729"><tspan dy="0" x="955.307775283"><![CDATA[Zwijnaarde]]></tspan></text><text text-anchor="middle" y="1545.30827804"><tspan dy="0" x="674.627177252"><![CDATA[Sint Denijs Westrem]]></tspan></text><text text-anchor="middle" y="1297.23784149"><tspan dy="0" x="396.651911699"><![CDATA[Drongen]]></tspan></text></g></svg>