<?xml version="1.0" encoding="utf-8"?><!DOCTYPE svg  PUBLIC '-//W3C//DTD SVG 1.1//EN'  'http://www.w3.org/Graphics/SVG/1.1/DTD/svg11.dtd'><svg enable_background="new 0 0 2000 2064" height="2064px" pretty_print="False" style="stroke-linejoin: round; stroke:#000; fill: none;" version="1.1" viewBox="0 0 2000 2064" width="2000px" xmlns="http://www.w3.org/2000/svg" xmlns:xlink="http://www.w3.org/1999/xlink"><defs><style type="text/css"><![CDATA[path { fill-rule: evenodd; }]]></style></defs><metadata><views><view h="2064.80220976" padding="0" w="2000"><proj flip="auto" id="robinson" lon0="-72.6760162602"/><bbox h="1.37" w="1.32" x="-983.65" y="-701.58"/></view></views></metadata><g class="" id="mylayer"><path d="M1294.179425,1121.629483L1299.666267,1082.593905L1312.488095,1021.527897L1319.297550,998.363552L1316.731558,975.495097L1320.568096,953.661797L1330.927917,929.093363L1317.465858,924.559191L1312.918297,914.874812L1313.261309,887.842499L1316.238657,851.101611L1319.119944,809.703961L1319.864492,790.680945L1320.171425,771.313074L1323.483155,749.530527L1318.999702,743.863148L1294.352883,753.891952L1278.206821,760.889958L1265.473966,762.565539L1248.602018,779.247479L1225.428388,796.323770L1214.048034,803.494363L1194.330110,813.572646L1179.458166,819.930114L1171.574684,823.133494L1158.355673,827.889288L1121.124096,840.628938L1110.757880,845.409401L1102.029063,849.130282L1092.010595,854.157175L1066.028115,873.550216L1044.365691,898.487830L1024.936498,918.891484L984.872198,959.452781L967.706097,976.160448L956.076767,983.651821L937.861741,993.139278L883.654697,1013.962501L864.018949,1073.426532L915.854345,1086.586157L925.389809,1089.025869L933.987833,1090.529127L937.214395,1091.588801L939.949712,1092.155603L967.771891,1099.745839L975.853021,1102.629148L971.526249,1114.187054L965.093185,1130.082329L1011.595663,1145.657315L1029.243264,1152.187990L1030.780999,1152.730160L1052.056365,1160.591634L1069.904742,1167.319494L1075.123373,1169.217099L1088.206984,1174.096659L1092.763111,1175.772469L1108.082767,1180.750617L1118.203411,1183.338271L1148.374870,1132.053842L1151.590374,1126.213239L1160.129061,1128.825490L1192.498345,1137.130493L1209.374846,1141.911425L1228.346336,1148.023143L1243.132163,1151.522600L1256.877160,1155.884604L1272.030436,1161.552756L1286.292563,1172.026541L1301.598088,1190.361915L1308.784043,1202.585560L1316.053736,1213.503091L1328.645827,1212.689820L1314.015600,1185.433040L1302.680454,1160.640922L1299.555379,1142.059289L1294.179425,1121.629483Z " data-admincode1="CT" data-admincode2="003" data-admincode3="" data-admincode4="" data-cartodb-id="1" data-countrycod="US" data-created-at="2013-08-22T04:08:48+0200" data-fclass="P" data-fcode="PPLX" data-geonameid="" data-lat="41.7671383292" data-lng="-72.6755239536" data-name="Downtown" data-parents="4835797" data-updated-at="2013-08-22T04:08:48+0200"/><path d="M1815.854942,4.976228L1814.555727,5.197942L1788.914474,9.459768L1784.583198,9.706116L1782.503153,9.632212L1781.493295,9.164150L1774.099173,11.134938L1771.811632,11.873984L1770.210354,12.391316L1766.321533,13.647695L1757.636202,12.046428L1757.016338,13.179632L1755.767367,14.485281L1754.391250,15.372138L1752.160998,16.185089L1729.163234,20.175946L1722.449011,19.904962L1714.201987,19.264454L1503.360931,57.030030L1448.009052,67.105855L1427.903691,70.751883L1287.194168,96.372742L1282.083012,97.308893L1240.748334,104.847381L1223.490431,107.976105L1199.400332,180.331819L1159.588826,172.201879L1150.535209,170.354168L1131.691907,166.166028L1121.583583,163.924143L1110.850891,196.936673L1106.277253,211.324334L1104.254024,218.493553L1102.454637,224.800509L1100.034811,231.748030L1093.818270,249.560363L1093.176644,253.231244L1092.523556,257.616597L1087.332442,282.278168L1009.453796,282.302805L1006.749322,290.482310L1002.869542,300.115431L996.763116,313.887643L993.908808,319.554224L987.687866,329.532359L980.931266,339.214878L979.181202,341.974278L962.433142,362.842321L952.557958,375.653941L947.033929,383.833696L942.326694,391.520714L937.804517,400.193271L924.685289,431.163368L895.655565,495.617655L890.198189,507.986331L888.902115,510.918356L876.098536,541.618544L961.070357,543.269366L969.712045,548.221835L970.545875,558.126799L963.999070,577.936823L971.220156,580.819635L976.031329,581.534179L1004.953519,584.170600L1018.266385,585.624329L1035.311933,584.934424L1054.743051,583.332859L1058.548644,583.874927L1060.155141,584.145961L1063.900225,585.304016L1077.194423,591.266774L1100.148018,601.886426L1104.797216,603.709757L1108.464754,604.917099L1141.278393,614.083056L1145.452669,615.241122L1168.920279,621.770653L1181.287840,625.220223L1191.635721,628.103080L1232.516894,639.880936L1237.643360,640.940452L1242.912536,641.753570L1248.998433,642.073889L1250.710963,642.147809L1255.758707,630.394584L1259.622137,622.288088L1263.923523,614.649769L1266.762104,610.263904L1276.483849,597.352742L1281.023848,590.847902L1282.961660,588.260754L1295.290328,571.850894L1306.019326,557.190508L1317.327864,541.889575L1328.685307,526.440884L1337.970372,513.801105L1359.322109,512.322772L1373.668917,510.770522L1393.683298,508.577664L1420.018639,505.374614L1439.011111,503.058566L1448.507086,498.623583L1467.372702,474.551597L1478.405850,461.197517L1487.673289,450.775461L1499.414982,438.554846L1517.356896,420.495033L1523.948533,413.965932L1534.843393,404.184626L1576.334481,368.164064L1619.292379,331.848277L1633.272502,318.667280L1636.395056,315.710803L1649.711802,301.445839L1664.628345,285.431709L1675.133230,274.172595L1717.452883,227.116347L1759.592265,179.371007L1805.859272,128.103486L1809.119900,124.358847L1811.588842,121.525735L1812.519267,120.441762L1814.784179,117.855011L1816.685895,115.687069L1829.944779,100.486881L1843.530184,84.917235L1889.189338,33.823731L1865.490966,36.164061L1841.838356,53.384018L1835.726167,57.842992L1831.676046,57.424193L1823.958150,65.627737L1803.525471,93.194759L1801.096058,94.919245L1799.736398,95.880031L1796.902774,97.900146L1785.250124,99.526093L1782.161042,103.246066L1781.789696,103.689507L1764.614054,124.309575L1745.019661,141.801019L1735.842565,149.659884L1728.544511,146.580389L1687.973767,146.555753L1699.242856,113.888663L1723.112151,53.679640L1771.938352,44.490723L1775.406949,43.825575L1781.175945,50.107538L1782.597479,49.639470L1785.722312,48.530887L1789.130458,48.604793L1791.786812,55.896809L1792.992128,59.296472L1806.915499,45.919561L1809.070746,43.850210L1809.750748,41.731590L1811.932945,34.636687L1812.750292,31.113877L1815.854942,4.976228Z " data-admincode1="CT" data-admincode2="003" data-admincode3="" data-admincode4="" data-cartodb-id="2" data-countrycod="US" data-created-at="2013-08-22T04:08:48+0200" data-fclass="P" data-fcode="PPLX" data-geonameid="" data-lat="41.7946419113" data-lng="-72.67733054" data-name="North East" data-parents="4835797" data-updated-at="2013-08-22T04:08:48+0200"/><path d="M896.434261,1303.284654L905.176912,1283.174139L913.785192,1263.285564L931.399617,1221.561881L965.093185,1130.082329L971.526249,1114.187054L975.853021,1102.629148L967.771891,1099.745839L939.949712,1092.155603L937.214395,1091.588801L933.987833,1090.529127L925.389809,1089.025869L915.854345,1086.586157L864.018949,1073.426532L883.654697,1013.962501L748.039262,1064.209900L738.600532,1068.966073L723.683612,1078.429154L713.553699,1085.649702L703.777503,1091.613444L700.596478,1093.634219L695.194772,1097.552555L690.830258,1100.805516L688.053807,1102.777010L684.546715,1105.413885L680.137351,1108.740786L671.023256,1114.679930L638.453703,1130.131617L633.004720,1132.522076L625.007315,1136.317243L621.952688,1138.140896L613.213447,1143.316133L600.449144,1151.892261L595.685308,1155.983181L591.705475,1159.556579L587.031899,1163.869307L583.770970,1167.122341L579.474149,1171.903320L576.361380,1175.821757L572.723280,1181.021704L564.988186,1193.368533L562.049140,1198.617799L559.331881,1204.557120L558.419758,1206.824416L557.133327,1210.225363L556.558996,1211.531525L540.082394,1240.760125L526.943357,1255.423822L502.110890,1281.177882L502.071885,1287.610270L513.360899,1300.154700L515.272285,1306.932163L499.895130,1327.757557L505.654770,1330.493211L513.257799,1333.154931L520.492763,1335.693426L536.614621,1341.090814L545.149315,1343.530733L553.256416,1344.417976L564.445084,1345.009472L577.545789,1345.009472L579.556642,1344.861598L590.268884,1344.048292L599.369301,1342.421679L655.624594,1333.598552L668.600034,1331.996590L674.094880,1320.117455L672.386052,1335.077286L664.087420,1364.553547L714.042170,1362.187549L746.078359,1360.733447L750.104556,1345.872071L753.033898,1335.077286L788.652017,1331.996590L798.089935,1331.824071L812.976217,1331.429742L846.802783,1330.123528L871.297574,1328.915897L885.551092,1329.014479L896.434261,1303.284654Z " data-admincode1="CT" data-admincode2="003" data-admincode3="" data-admincode4="" data-cartodb-id="3" data-countrycod="US" data-created-at="2013-08-22T04:08:48+0200" data-fclass="P" data-fcode="PPLX" data-geonameid="" data-lat="41.7583415907" data-lng="-72.6914020898" data-name="Frog Hollow" data-parents="4835797" data-updated-at="2013-08-22T04:08:48+0200"/><path d="M1149.707150,0.000000L1061.705582,6.676031L1015.732393,9.336594L936.911265,10.248083L810.550428,16.948771L661.798262,21.727948L589.692072,24.142173L579.084548,94.549712L574.328045,126.157258L566.128212,180.652090L560.642250,217.187818L555.005083,244.731560L538.949670,323.175914L538.132361,327.191806L534.035000,336.677217L524.702932,358.284354L535.439146,498.598945L539.822258,500.422214L542.087683,501.604876L547.298535,505.374614L549.937594,508.084887L551.656009,509.809607L572.838232,531.467244L581.896245,539.918446L602.218287,559.358762L605.997385,561.773411L608.139859,562.586507L610.919656,563.202489L614.847055,563.128571L621.474050,561.502379L628.673783,560.368972L630.357255,560.097940L641.561390,558.348552L647.777140,558.028242L654.131929,557.781850L662.821252,558.323913L680.226242,560.935675L692.698430,563.572079L701.038008,565.543223L706.626360,566.873746L716.388662,569.239122L722.390601,571.234910L725.404375,569.288401L738.202080,553.691737L740.272782,549.158124L743.106822,543.860705L753.963778,521.710201L755.121613,519.320222L758.889644,512.372049L761.153769,508.922608L766.022277,502.910733L769.133219,500.175826L772.432647,497.859781L773.367747,497.194535L777.578707,495.026325L781.961861,493.326252L783.093589,493.055226L786.578654,492.217509L792.401055,491.108767L797.460117,490.763825L807.488939,490.591354L811.449288,490.788464L826.595927,491.576902L830.940962,492.217509L835.552663,493.720471L841.146080,495.962597L857.647714,502.048375L864.360450,503.871646L888.902115,510.918356L890.198189,507.986331L895.655565,495.617655L924.685289,431.163368L937.804517,400.193271L942.326694,391.520714L947.033929,383.833696L952.557958,375.653941L962.433142,362.842321L979.181202,341.974278L980.931266,339.214878L987.687866,329.532359L993.908808,319.554224L996.763116,313.887643L1002.869542,300.115431L1006.749322,290.482310L1009.453796,282.302805L1087.332442,282.278168L1092.523556,257.616597L1093.176644,253.231244L1093.818270,249.560363L1100.034811,231.748030L1102.454637,224.800509L1104.254024,218.493553L1106.277253,211.324334L1110.850891,196.936673L1121.583583,163.924143L1122.360762,160.770726L1125.883746,133.991447L1127.964098,110.710662L1130.115310,88.514014L1133.364453,68.805692L1134.068446,65.874090L1138.581196,46.855697L1142.670883,29.611141L1147.411872,9.656847L1149.707150,0.000000Z " data-admincode1="CT" data-admincode2="003" data-admincode3="" data-admincode4="" data-cartodb-id="5" data-countrycod="US" data-created-at="2013-08-22T04:08:48+0200" data-fclass="P" data-fcode="PPLX" data-geonameid="5282550" data-lat="41.7972947804" data-lng="-72.7043258295" data-name="Blue Hills" data-parents="4835797" data-updated-at="2013-08-22T04:08:48+0200"/><path d="M1286.292563,1172.026541L1272.030436,1161.552756L1256.877160,1155.884604L1243.132163,1151.522600L1228.346336,1148.023143L1209.374846,1141.911425L1192.498345,1137.130493L1160.129061,1128.825490L1151.590374,1126.213239L1148.374870,1132.053842L1118.203411,1183.338271L1108.082767,1180.750617L1092.763111,1175.772469L1089.739931,1181.711745L1071.584435,1222.104063L1068.110826,1229.965719L1062.627798,1241.253021L1064.112829,1249.385820L1062.356426,1272.108484L1061.032448,1284.480333L1059.152986,1301.879871L1054.820333,1342.692781L1052.401541,1362.286132L1051.126740,1369.679883L1049.184147,1380.893774L1044.289470,1405.638419L1038.455361,1430.629732L1058.406923,1428.140450L1088.927268,1424.591378L1118.597296,1421.017664L1153.570682,1416.113056L1201.757418,1410.124024L1243.001893,1405.663065L1263.333904,1403.444911L1294.713484,1400.512021L1298.640233,1399.698699L1300.796991,1398.860732L1302.814858,1398.072056L1326.761452,1382.914743L1341.031912,1374.165434L1354.902174,1365.637964L1357.502167,1363.518423L1399.449950,1329.852427L1377.670579,1297.123330L1363.664674,1272.675321L1347.535594,1246.921334L1331.281125,1221.611170L1328.645827,1212.689820L1316.053736,1213.503091L1302.159688,1191.323047L1301.598088,1190.361915L1286.292563,1172.026541Z " data-admincode1="CT" data-admincode2="003" data-admincode3="" data-admincode4="" data-cartodb-id="10" data-countrycod="US" data-created-at="2013-08-22T04:08:48+0200" data-fclass="P" data-fcode="PPLX" data-geonameid="" data-lat="41.7550927709" data-lng="-72.6679086033" data-name="Sheldon Charter Oak" data-parents="4835797" data-updated-at="2013-08-22T04:08:48+0200"/><path d="M1555.790086,1548.318456L1548.051250,1512.037794L1531.572908,1464.518680L1470.879975,1397.012274L1440.084532,1359.328637L1428.813452,1356.198625L1414.018552,1343.801835L1399.449950,1329.852427L1357.502167,1363.518423L1354.902174,1365.637964L1341.031912,1374.165434L1326.761452,1382.914743L1302.814858,1398.072056L1300.796991,1398.860732L1298.640233,1399.698699L1294.713484,1400.512021L1263.333904,1403.444911L1243.001893,1405.663065L1201.757418,1410.124024L1153.570682,1416.113056L1118.597296,1421.017664L1103.340774,1463.729987L1099.354142,1492.542050L1073.809918,1494.760269L1066.399700,1564.561097L1045.084094,1567.962450L1030.591806,1678.705728L1011.679037,1775.107249L1004.614098,1832.737675L995.490527,1865.990300L972.161038,1872.645799L965.963430,1897.024775L976.336363,1938.043041L976.739234,1953.129228L979.219671,1952.611564L984.069710,1951.354379L996.725949,1947.065163L1003.550274,1961.584429L1047.222488,1939.103015L1050.970232,1938.585353L1167.758152,1928.010275L1170.565866,1927.615868L1172.929451,1925.964286L1175.105393,1924.509908L1184.020665,1918.174747L1249.498963,1911.888901L1364.566498,1952.241803L1496.610518,1822.187625L1511.292630,1799.657969L1526.179757,1773.406453L1536.897396,1747.155169L1554.982627,1660.860328L1555.288950,1603.331823L1555.790086,1548.318456Z " data-admincode1="CT" data-admincode2="003" data-admincode3="" data-admincode4="" data-cartodb-id="13" data-countrycod="US" data-created-at="2013-08-22T04:08:48+0200" data-fclass="P" data-fcode="PPLX" data-geonameid="" data-lat="41.7398487313" data-lng="-72.6580532788" data-name="South Meadows" data-parents="4835797" data-updated-at="2013-08-22T04:08:48+0200"/><path d="M1902.877219,331.133792L1898.630880,324.752705L1943.766696,181.736084L1948.160755,133.203100L1999.515457,38.726108L1889.189338,33.823731L1843.530184,84.917235L1829.944779,100.486881L1816.685895,115.687069L1814.784179,117.855011L1812.519267,120.441762L1811.588842,121.525735L1809.119900,124.358847L1805.859272,128.103486L1759.592265,179.371007L1717.452883,227.116347L1675.133230,274.172595L1664.628345,285.431709L1649.711802,301.445839L1636.395056,315.710803L1633.272502,318.667280L1619.292379,331.848277L1576.334481,368.164064L1534.843393,404.184626L1523.948533,413.965932L1517.356896,420.495033L1499.414982,438.554846L1487.673289,450.775461L1478.405850,461.197517L1467.372702,474.551597L1448.507086,498.623583L1442.020316,507.123972L1417.450968,541.347514L1408.232388,554.529470L1382.578321,593.213297L1377.537266,600.802284L1347.608324,648.036758L1316.253906,695.444448L1294.970975,720.158833L1281.009051,739.846707L1270.945874,753.546980L1265.473966,762.565539L1278.206821,760.889958L1294.352883,753.891952L1318.999702,743.863148L1323.483155,749.530527L1320.171425,771.313074L1319.864492,790.680945L1319.119944,809.703961L1316.238657,851.101611L1313.261309,887.842499L1312.918297,914.874812L1317.465858,924.559191L1338.103850,880.252796L1349.097464,866.206966L1366.635591,841.934940L1401.135347,817.663108L1437.092284,792.134772L1501.030019,758.918687L1571.518641,728.265590L1642.240802,706.557272L1700.020881,669.522896L1741.476553,640.151975L1757.549471,617.163020L1827.319401,534.177539L1864.508506,472.876174L1902.877219,331.133792Z " data-admincode1="CT" data-admincode2="003" data-admincode3="" data-admincode4="" data-cartodb-id="16" data-countrycod="US" data-created-at="2013-08-22T04:08:48+0200" data-fclass="P" data-fcode="PPLX" data-geonameid="" data-lat="41.7883170007" data-lng="-72.6590885621" data-name="North Meadows" data-parents="4835797" data-updated-at="2013-08-22T04:08:48+0200"/><path d="M1010.147738,1562.342825L965.182313,1571.388454L935.426540,1577.698229L924.246064,1579.743979L904.452047,1583.736892L867.115064,1591.032600L799.708728,1603.233232L790.475996,1604.145201L787.164534,1608.483217L768.474686,1633.106506L760.384020,1643.877719L749.866963,1657.853241L730.802722,1683.241041L710.138499,1709.886139L680.707872,1748.609460L675.910321,1749.521473L672.126626,1750.458135L664.650041,1752.799792L599.037375,1772.075397L590.904834,1773.431103L565.093345,1777.818664L532.612334,1783.340098L528.568051,1811.218570L526.683654,1828.769077L526.024896,1834.980798L523.259705,1853.591390L519.460251,1878.561811L514.335083,1911.272642L510.962053,1930.179519L506.192801,1954.189208L503.761255,1971.420101L501.540122,1983.301834L486.497222,2002.825449L471.747738,2021.831517L479.134536,2023.606408L496.893608,2021.511050L641.671518,2004.477074L646.404433,2001.839405L648.851178,2000.804059L652.754153,2000.187782L654.091680,2000.532897L655.181723,2003.860796L656.289967,2004.033354L658.770949,2003.762192L664.389950,2000.606850L667.410996,1998.511508L671.156572,1994.838500L672.766211,1992.250142L690.090466,1993.581297L718.342400,1990.845034L861.011485,1968.856414L863.402301,1968.486652L888.712476,1964.690427L916.561202,1960.820255L918.311310,1956.999390L920.289283,1954.657572L938.037840,1957.615658L975.537423,1953.178530L976.739234,1953.129228L976.336363,1938.043041L965.963430,1897.024775L972.161038,1872.645799L995.490527,1865.990300L1004.614098,1832.737675L1011.679037,1775.107249L1030.591806,1678.705728L1045.084094,1567.962450L1026.894713,1570.870856L1008.623557,1573.779266L1010.147738,1562.342825Z " data-admincode1="CT" data-admincode2="003" data-admincode3="" data-admincode4="" data-cartodb-id="22" data-countrycod="US" data-created-at="2013-08-22T04:08:48+0200" data-fclass="P" data-fcode="PPLX" data-geonameid="" data-lat="41.7340108448" data-lng="-72.679728163" data-name="South End" data-parents="4835797" data-updated-at="2013-08-22T04:08:48+0200"/><path d="M970.545875,558.126799L969.712045,548.221835L961.070357,543.269366L876.098536,541.618544L888.902115,510.918356L864.360450,503.871646L857.647714,502.048375L841.146080,495.962597L835.552663,493.720471L830.940962,492.217509L826.595927,491.576902L811.449288,490.788464L807.488939,490.591354L797.460117,490.763825L792.401055,491.108767L786.578654,492.217509L783.093589,493.055226L781.961861,493.326252L777.578707,495.026325L773.367747,497.194535L772.432647,497.859781L769.133219,500.175826L766.022277,502.910733L761.153769,508.922608L758.889644,512.372049L755.121613,519.320222L753.963778,521.710201L743.106822,543.860705L740.272782,549.158124L738.202080,553.691737L725.404375,569.288401L722.390601,571.234910L716.388662,569.239122L706.626360,566.873746L701.038008,565.543223L696.846905,604.498225L697.124812,611.200211L697.500018,617.236939L699.438486,628.250919L701.270896,636.061752L703.631880,644.932122L706.593363,650.254357L712.668050,661.243816L722.740501,679.181852L732.013482,691.748396L740.909052,703.107611L755.988891,718.015105L770.780744,728.167027L792.679907,741.300510L816.202374,751.748200L836.606261,758.894046L852.993971,763.970071L868.380402,769.046105L882.889481,772.076944L910.551007,778.286479L937.014147,786.763007L980.543629,805.933846L989.740166,788.734296L967.156319,774.886018L986.810893,738.959641L1077.194423,591.266774L1063.900225,585.304016L1060.155141,584.145961L1058.548644,583.874927L1054.743051,583.332859L1035.311933,584.934424L1018.266385,585.624329L1004.953519,584.170600L976.031329,581.534179L971.220156,580.819635L963.999070,577.936823L970.545875,558.126799Z " data-admincode1="CT" data-admincode2="003" data-admincode3="" data-admincode4="" data-cartodb-id="23" data-countrycod="US" data-created-at="2013-08-22T04:08:48+0200" data-fclass="P" data-fcode="PPLX" data-geonameid="" data-lat="41.7815133809" data-lng="-72.6946572794" data-name="Upper Albany" data-parents="4835797" data-updated-at="2013-08-22T04:08:48+0200"/><path d="M1.972435,2062.802210L85.591687,2053.459264L130.480609,2045.028452L154.699522,2043.056335L393.633323,2029.547374L435.237720,2028.906439L471.747738,2021.831517L486.497222,2002.825449L501.540122,1983.301834L503.761255,1971.420101L506.192801,1954.189208L510.962053,1930.179519L514.335083,1911.272642L519.460251,1878.561811L523.259705,1853.591390L526.024896,1834.980798L526.683654,1828.769077L528.568051,1811.218570L532.612334,1783.340098L533.054934,1779.519462L536.988077,1764.310912L541.663705,1748.215076L545.726133,1734.288428L550.263748,1718.611783L554.052138,1706.755759L572.779172,1647.944663L573.415204,1644.715756L597.124617,1617.085324L599.940878,1612.328281L602.323566,1605.106465L573.377339,1621.102935L549.638253,1634.388205L518.870833,1651.567945L502.037328,1660.958921L474.010013,1676.585965L455.583713,1686.839717L450.593618,1689.822185L446.256927,1692.434928L441.041337,1697.339990L425.989771,1715.703232L412.302006,1733.154579L406.212642,1740.894334L395.913692,1753.711806L388.152314,1763.670035L365.269623,1787.185389L355.050079,1798.647343L349.153712,1804.563208L346.639238,1806.609114L343.140365,1809.098712L337.741018,1811.834808L334.951115,1813.042635L325.699328,1814.940649L301.184202,1819.796614L291.171933,1821.645333L272.635776,1825.539973L270.229143,1826.205513L257.556807,1828.744427L255.247971,1829.237421L249.963904,1830.198758L237.249031,1829.582516L227.294694,1829.582516L217.081874,1829.064873L207.469061,1828.029587L201.143329,1824.899083L198.018171,1823.839149L194.200637,1819.673366L193.315206,1809.221960L206.999636,1769.043548L207.781076,1760.169862L204.401106,1755.979519L201.871491,1751.813831L197.371054,1749.718665L180.482344,1748.929897L170.395336,1752.430057L160.416640,1757.088727L151.617045,1762.758017L144.978810,1767.761792L139.350912,1773.110663L132.348887,1780.456134L126.605976,1790.118659L122.263602,1796.527495L119.030291,1801.309481L113.609686,1805.968228L106.174548,1808.802918L99.424266,1810.553033L99.511626,1802.172211L89.755104,1805.351991L70.509319,1810.281888L65.087168,1848.587471L46.907688,1875.998205L30.416674,1934.789167L11.643970,1999.078483L5.855345,2018.922668L0.484543,2039.112107L1.972435,2062.802210Z " data-admincode1="CT" data-admincode2="003" data-admincode3="" data-admincode4="" data-cartodb-id="28" data-countrycod="US" data-created-at="2013-08-22T04:08:48+0200" data-fclass="P" data-fcode="PPLX" data-geonameid="" data-lat="41.7306788345" data-lng="-72.7024883009" data-name="South West" data-parents="4835797" data-updated-at="2013-08-22T04:08:48+0200"/><path d="M1377.537266,600.802284L1382.578321,593.213297L1408.232388,554.529470L1417.450968,541.347514L1442.020316,507.123972L1448.507086,498.623583L1439.011111,503.058566L1420.018639,505.374614L1393.683298,508.577664L1373.668917,510.770522L1359.322109,512.322772L1337.970372,513.801105L1328.685307,526.440884L1317.327864,541.889575L1306.019326,557.190508L1295.290328,571.850894L1282.961660,588.260754L1281.023848,590.847902L1276.483849,597.352742L1266.762104,610.263904L1263.923523,614.649769L1259.622137,622.288088L1255.758707,630.394584L1250.710963,642.147809L1248.998433,642.073889L1242.912536,641.753570L1237.643360,640.940452L1232.516894,639.880936L1191.635721,628.103080L1181.287840,625.220223L1168.920279,621.770653L1145.452669,615.241122L1141.278393,614.083056L1108.464754,604.917099L1104.797216,603.709757L1100.148018,601.886426L1077.194423,591.266774L986.810893,738.959641L967.156319,774.886018L989.740166,788.734296L980.543629,805.933846L994.136805,817.244205L1006.858052,836.144181L1019.147185,855.611032L1033.079704,872.268842L1066.028115,873.550216L1092.010595,854.157175L1102.029063,849.130282L1110.757880,845.409401L1121.124096,840.628938L1158.355673,827.889288L1171.574684,823.133494L1179.458166,819.930114L1194.330110,813.572646L1214.048034,803.494363L1225.428388,796.323770L1248.602018,779.247479L1265.473966,762.565539L1270.945874,753.546980L1281.009051,739.846707L1294.970975,720.158833L1316.253906,695.444448L1347.608324,648.036758L1377.537266,600.802284Z " data-admincode1="CT" data-admincode2="003" data-admincode3="" data-admincode4="" data-cartodb-id="29" data-countrycod="US" data-created-at="2013-08-22T04:08:48+0200" data-fclass="P" data-fcode="PPLX" data-geonameid="" data-lat="41.7790350007" data-lng="-72.6788261604" data-name="Clay Arsenal" data-parents="4835797" data-updated-at="2013-08-22T04:08:48+0200"/><path d="M1054.820333,1342.692781L1059.152986,1301.879871L1061.032448,1284.480333L1062.356426,1272.108484L1064.112829,1249.385820L1062.627798,1241.253021L1068.110826,1229.965719L1071.584435,1222.104063L1089.739931,1181.711745L1092.763111,1175.772469L1088.206984,1174.096659L1075.123373,1169.217099L1069.904742,1167.319494L1052.056365,1160.591634L1030.780999,1152.730160L1029.243264,1152.187990L1011.595663,1145.657315L965.093185,1130.082329L931.399617,1221.561881L913.785192,1263.285564L905.176912,1283.174139L896.434261,1303.284654L885.551092,1329.014479L873.569303,1357.578787L865.698127,1375.422376L863.083952,1381.362047L859.913180,1389.298057L867.647508,1384.812484L876.016040,1380.696606L912.590648,1365.490089L921.760192,1361.300300L929.344538,1357.578787L936.165346,1371.158636L937.931611,1373.795746L940.310602,1376.186399L944.844574,1379.045327L956.076446,1383.284433L963.991759,1372.366284L971.186169,1362.951569L962.295390,1414.979329L1044.289470,1405.638419L1049.184147,1380.893774L1051.126740,1369.679883L1052.401541,1362.286132L1054.820333,1342.692781Z " data-admincode1="CT" data-admincode2="003" data-admincode3="" data-admincode4="" data-cartodb-id="36" data-countrycod="US" data-created-at="2013-08-22T04:08:48+0200" data-fclass="P" data-fcode="PPLX" data-geonameid="4843297" data-lat="41.755614393" data-lng="-72.6786097643" data-name="South Green" data-parents="4835797" data-updated-at="2013-08-22T04:08:48+0200"/><path d="M502.071885,1287.610270L502.110890,1281.177882L526.943357,1255.423822L540.082394,1240.760125L556.558996,1211.531525L557.133327,1210.225363L558.419758,1206.824416L559.331881,1204.557120L562.049140,1198.617799L564.988186,1193.368533L572.723280,1181.021704L576.361380,1175.821757L579.474149,1171.903320L583.770970,1167.122341L587.031899,1163.869307L591.705475,1159.556579L595.685308,1155.983181L600.449144,1151.892261L613.213447,1143.316133L621.952688,1138.140896L625.007315,1136.317243L633.004720,1132.522076L638.453703,1130.131617L612.374391,1118.006841L588.604323,1127.667228L587.182795,1128.258681L579.891586,1131.462388L575.970264,1133.187462L571.056404,1135.380772L554.231339,1142.700033L549.091559,1144.154030L545.605704,1144.622266L535.285933,1145.238367L512.146026,1147.234533L489.373968,1149.230701L459.388527,1151.842973L435.702553,1154.997416L402.993314,1159.359426L396.732334,1160.000174L378.235505,1161.922418L359.656914,1163.844663L341.307276,1165.816198L320.329914,1168.132753L299.087029,1170.572531L273.017694,1173.579129L270.075406,1188.119276L265.704579,1209.584605L261.273207,1231.419758L255.993543,1257.124322L239.001358,1303.136782L215.971439,1364.282443L213.532943,1370.739656L211.449475,1376.802547L200.488863,1407.215773L197.687722,1414.338527L194.586325,1422.866136L192.600237,1428.386913L189.372093,1436.865269L186.429334,1444.850720L181.663110,1457.740860L180.267266,1461.659670L175.571369,1475.018170L173.407001,1481.450975L170.233992,1493.601865L169.265235,1498.703775L165.883786,1513.344087L162.664946,1527.368292L161.310543,1534.072328L158.749323,1542.698868L155.705005,1545.853723L139.732777,1562.540005L134.256865,1600.743806L163.145574,1571.240569L234.547776,1499.689653L257.527014,1475.831513L281.327642,1451.776390L304.527894,1427.992572L313.554975,1418.725560L321.676026,1410.345839L338.930168,1392.502043L359.136229,1372.464868L382.336933,1348.804907L406.228627,1325.219070L430.776068,1300.080764L434.330647,1296.433262L499.895130,1327.757557L515.272285,1306.932163L513.360899,1300.154700L502.071885,1287.610270Z " data-admincode1="CT" data-admincode2="003" data-admincode3="" data-admincode4="" data-cartodb-id="37" data-countrycod="US" data-created-at="2013-08-22T04:08:48+0200" data-fclass="P" data-fcode="PPLX" data-geonameid="4840383" data-lat="41.7548799406" data-lng="-72.7092010714" data-name="Parkville" data-parents="4835797" data-updated-at="2013-08-22T04:08:48+0200"/><path d="M553.256416,1344.417976L545.149315,1343.530733L536.614621,1341.090814L520.492763,1335.693426L513.257799,1333.154931L505.654770,1330.493211L499.895130,1327.757557L434.330647,1296.433262L430.776068,1300.080764L406.228627,1325.219070L382.336933,1348.804907L359.136229,1372.464868L338.930168,1392.502043L321.676026,1410.345839L313.554975,1418.725560L304.527894,1427.992572L281.327642,1451.776390L257.527014,1475.831513L234.547776,1499.689653L163.145574,1571.240569L134.256865,1600.743806L132.090515,1608.236738L115.524168,1662.832190L96.280612,1721.643580L92.500517,1734.214481L70.509319,1810.281888L89.755104,1805.351991L99.511626,1802.172211L99.424266,1810.553033L106.174548,1808.802918L113.609686,1805.968228L119.030291,1801.309481L122.263602,1796.527495L126.605976,1790.118659L132.348887,1780.456134L139.350912,1773.110663L144.978810,1767.761792L151.617045,1762.758017L160.416640,1757.088727L170.395336,1752.430057L180.482344,1748.929897L197.371054,1749.718665L201.871491,1751.813831L204.401106,1755.979519L207.781076,1760.169862L206.999636,1769.043548L193.315206,1809.221960L194.200637,1819.673366L198.018171,1823.839149L201.143329,1824.899083L207.469061,1828.029587L217.081874,1829.064873L227.294694,1829.582516L237.249031,1829.582516L249.963904,1830.198758L255.247971,1829.237421L257.556807,1828.744427L270.229143,1826.205513L272.635776,1825.539973L291.171933,1821.645333L301.184202,1819.796614L325.699328,1814.940649L334.951115,1813.042635L337.741018,1811.834808L343.140365,1809.098712L346.639238,1806.609114L349.153712,1804.563208L355.050079,1798.647343L365.269623,1787.185389L388.152314,1763.670035L395.913692,1753.711806L406.212642,1740.894334L412.302006,1733.154579L425.989771,1715.703232L441.041337,1697.339990L446.256927,1692.434928L450.593618,1689.822185L455.583713,1686.839717L474.010013,1676.585965L502.037328,1660.958921L518.870833,1651.567945L549.638253,1634.388205L573.377339,1621.102935L602.323566,1605.106465L604.221611,1601.212114L613.937521,1577.525696L615.669287,1572.029290L617.423393,1562.934364L617.773607,1531.582960L620.260973,1506.640097L627.914735,1466.786172L629.655345,1459.096423L635.528998,1441.917790L642.937708,1425.971572L646.581325,1417.098906L654.786889,1393.537177L661.062752,1374.584415L664.087420,1364.553547L672.386052,1335.077286L674.094880,1320.117455L668.600034,1331.996590L655.624594,1333.598552L599.369301,1342.421679L590.268884,1344.048292L579.556642,1344.861598L577.545789,1345.009472L564.445084,1345.009472L553.256416,1344.417976Z " data-admincode1="CT" data-admincode2="003" data-admincode3="" data-admincode4="" data-cartodb-id="43" data-countrycod="US" data-created-at="2013-08-22T04:08:48+0200" data-fclass="P" data-fcode="PPLX" data-geonameid="" data-lat="41.7438459271" data-lng="-72.7037329127" data-name="Behind The Rocks" data-parents="4835797" data-updated-at="2013-08-22T04:08:48+0200"/><path d="M706.593363,650.254357L703.631880,644.932122L701.270896,636.061752L699.438486,628.250919L697.500018,617.236939L697.124812,611.200211L696.846905,604.498225L701.038008,565.543223L692.698430,563.572079L680.226242,560.935675L662.821252,558.323913L654.131929,557.781850L647.777140,558.028242L641.561390,558.348552L630.357255,560.097940L649.289759,592.769785L657.005162,619.257398L654.150217,634.139841L650.449433,639.092459L647.563017,641.581090L627.680033,641.581090L608.502890,653.974999L603.433963,663.067183L606.322407,668.857612L607.020299,681.276272L604.296628,706.089104L606.245582,725.111591L610.780282,730.064356L613.786135,725.111591L618.704438,710.228702L626.090212,687.879866L676.805134,654.812760L687.083830,654.812760L692.986407,655.625881L695.052482,663.904947L693.138858,669.695377L685.203119,677.136713L680.402035,681.276272L675.204585,688.717636L676.156931,692.019440L681.108364,693.670343L688.369716,686.228966L696.028567,679.625376L699.192914,680.438504L700.990418,689.530767L695.795385,705.251329L695.251028,711.041838L701.444057,715.181443L703.638040,720.971972L701.307884,730.064356L689.393672,739.156767L686.934732,746.598273L694.475321,746.598273L709.031419,748.249206L708.637829,759.830400L701.078110,763.970071L689.434009,776.389120L684.236868,783.830717L682.869065,787.970421L681.232597,792.923289L672.174821,795.412047L661.895804,795.412047L667.532730,805.317815L665.619477,811.108515L662.060251,817.737033L654.381198,824.340923L646.714442,830.969469L632.459573,840.899995L627.446814,845.557250L623.560685,849.154923L616.024333,861.574321L610.280387,866.527309L603.831994,867.365128L595.596387,867.365128L587.241476,869.829305L584.782851,877.271132L581.852236,886.265416L581.297015,892.770888L580.716695,895.826494L581.539487,899.769215L582.187306,901.272378L583.142673,903.514804L584.011354,908.122872L583.737489,914.086263L585.104368,921.331061L588.852121,927.121983L589.816859,930.202265L588.836534,933.602900L587.246777,936.683189L586.275349,937.644240L584.303917,939.590985L583.258203,940.034547L581.179071,940.946314L566.444924,944.100537L558.536154,944.100537L555.404597,943.558405L554.047844,943.706259L552.328586,944.765882L551.655894,945.998001L551.221146,947.870824L550.881845,956.692821L553.428076,965.440917L555.426972,968.545880L561.780341,972.759765L564.070748,973.868683L583.419215,990.896785L584.347360,994.026418L584.490616,997.057483L582.816829,1004.228550L571.770023,1027.959731L560.524423,1041.217730L552.646896,1063.027019L551.866344,1071.578275L556.193724,1082.051748L565.544671,1087.029741L586.327945,1091.983098L596.823434,1096.961107L599.840696,1100.263356L602.085894,1103.861332L612.374391,1118.006841L638.453703,1130.131617L671.023256,1114.679930L680.137351,1108.740786L684.546715,1105.413885L688.053807,1102.777010L690.830258,1100.805516L695.194772,1097.552555L700.596478,1093.634219L703.777503,1091.613444L713.553699,1085.649702L723.683612,1078.429154L738.600532,1068.966073L748.039262,1064.209900L883.654697,1013.962501L937.861741,993.139278L956.076767,983.651821L967.706097,976.160448L984.872198,959.452781L1024.936498,918.891484L1044.365691,898.487830L1066.028115,873.550216L1033.079704,872.268842L1019.147185,855.611032L1006.858052,836.144181L994.136805,817.244205L980.543629,805.933846L937.014147,786.763007L910.551007,778.286479L882.889481,772.076944L868.380402,769.046105L852.993971,763.970071L836.606261,758.894046L816.202374,751.748200L792.679907,741.300510L770.780744,728.167027L755.988891,718.015105L740.909052,703.107611L732.013482,691.748396L722.740501,679.181852L712.668050,661.243816L706.593363,650.254357Z " data-admincode1="CT" data-admincode2="003" data-admincode3="" data-admincode4="" data-cartodb-id="44" data-countrycod="US" data-created-at="2013-08-22T04:08:48+0200" data-fclass="P" data-fcode="PPLX" data-geonameid="" data-lat="41.7710746058" data-lng="-72.695517129" data-name="Asylum Hill" data-parents="4835797" data-updated-at="2013-08-22T04:08:48+0200"/><path d="M608.139859,562.586507L605.997385,561.773411L602.218287,559.358762L581.896245,539.918446L572.838232,531.467244L551.656009,509.809607L549.937594,508.084887L547.298535,505.374614L542.087683,501.604876L539.822258,500.422214L535.439146,498.598945L524.702932,358.284354L516.300621,401.055600L507.590281,445.379659L496.817213,500.890351L489.721495,532.797752L484.713681,556.722362L469.583959,627.092848L467.115252,640.743333L461.172955,668.241609L457.019126,687.362420L452.338759,706.902239L445.629538,734.869285L443.436447,742.803596L441.786394,746.992526L438.536249,752.807755L402.768707,806.870214L351.961380,883.135895L343.525604,895.801852L338.276705,904.451202L337.701799,905.510811L331.244934,927.959819L323.981240,955.140345L321.838003,963.173802L317.107665,980.398986L305.491736,1022.612190L303.464575,1031.656193L297.664031,1060.784475L292.018220,1086.290434L286.880327,1109.455454L281.998470,1131.413100L276.398543,1156.968946L275.018585,1163.746087L273.017694,1173.579129L299.087029,1170.572531L320.329914,1168.132753L341.307276,1165.816198L359.656914,1163.844663L378.235505,1161.922418L396.732334,1160.000174L402.993314,1159.359426L435.702553,1154.997416L459.388527,1151.842973L489.373968,1149.230701L512.146026,1147.234533L535.285933,1145.238367L545.605704,1144.622266L549.091559,1144.154030L554.231339,1142.700033L571.056404,1135.380772L575.970264,1133.187462L579.891586,1131.462388L587.182795,1128.258681L588.604323,1127.667228L612.374391,1118.006841L602.085894,1103.861332L599.840696,1100.263356L596.823434,1096.961107L586.327945,1091.983098L565.544671,1087.029741L556.193724,1082.051748L551.866344,1071.578275L552.646896,1063.027019L560.524423,1041.217730L571.770023,1027.959731L582.816829,1004.228550L584.490616,997.057483L584.347360,994.026418L583.419215,990.896785L564.070748,973.868683L561.780341,972.759765L555.426972,968.545880L553.428076,965.440917L550.881845,956.692821L551.221146,947.870824L551.655894,945.998001L552.328586,944.765882L554.047844,943.706259L555.404597,943.558405L558.536154,944.100537L566.444924,944.100537L581.179071,940.946314L583.258203,940.034547L584.303917,939.590985L586.275349,937.644240L587.246777,936.683189L588.836534,933.602900L589.816859,930.202265L588.852121,927.121983L585.104368,921.331061L583.737489,914.086263L584.011354,908.122872L583.142673,903.514804L582.187306,901.272378L581.539487,899.769215L580.716695,895.826494L581.297015,892.770888L581.852236,886.265416L584.782851,877.271132L587.241476,869.829305L595.596387,867.365128L603.831994,867.365128L610.280387,866.527309L616.024333,861.574321L623.560685,849.154923L627.446814,845.557250L632.459573,840.899995L646.714442,830.969469L654.381198,824.340923L662.060251,817.737033L665.619477,811.108515L667.532730,805.317815L661.895804,795.412047L672.174821,795.412047L681.232597,792.923289L682.869065,787.970421L684.236868,783.830717L689.434009,776.389120L701.078110,763.970071L708.637829,759.830400L709.031419,748.249206L694.475321,746.598273L686.934732,746.598273L689.393672,739.156767L701.307884,730.064356L703.638040,720.971972L701.444057,715.181443L695.251028,711.041838L695.795385,705.251329L700.990418,689.530767L699.192914,680.438504L696.028567,679.625376L688.369716,686.228966L681.108364,693.670343L676.156931,692.019440L675.204585,688.717636L680.402035,681.276272L685.203119,677.136713L693.138858,669.695377L695.052482,663.904947L692.986407,655.625881L687.083830,654.812760L676.805134,654.812760L626.090212,687.879866L618.704438,710.228702L613.786135,725.111591L610.780282,730.064356L606.245582,725.111591L604.296628,706.089104L607.020299,681.276272L606.322407,668.857612L603.433963,663.067183L608.502890,653.974999L627.680033,641.581090L647.563017,641.581090L650.449433,639.092459L654.150217,634.139841L657.005162,619.257398L649.289759,592.769785L630.357255,560.097940L628.673783,560.368972L621.474050,561.502379L614.847055,563.128571L610.919656,563.202489L608.139859,562.586507Z " data-admincode1="CT" data-admincode2="003" data-admincode3="" data-admincode4="" data-cartodb-id="47" data-countrycod="US" data-created-at="2013-08-22T04:08:48+0200" data-fclass="P" data-fcode="PPLX" data-geonameid="" data-lat="41.7724108215" data-lng="-72.7095093523" data-name="West End" data-parents="4835797" data-updated-at="2013-08-22T04:08:48+0200"/><path d="M863.083952,1381.362047L865.698127,1375.422376L873.569303,1357.578787L885.551092,1329.014479L871.297574,1328.915897L846.802783,1330.123528L812.976217,1331.429742L798.089935,1331.824071L788.652017,1331.996590L753.033898,1335.077286L750.104556,1345.872071L746.078359,1360.733447L714.042170,1362.187549L664.087420,1364.553547L661.062752,1374.584415L654.786889,1393.537177L646.581325,1417.098906L642.937708,1425.971572L635.528998,1441.917790L629.655345,1459.096423L627.914735,1466.786172L620.260973,1506.640097L617.773607,1531.582960L617.423393,1562.934364L615.669287,1572.029290L613.937521,1577.525696L604.221611,1601.212114L602.323566,1605.106465L599.940878,1612.328281L597.124617,1617.085324L573.415204,1644.715756L572.779172,1647.944663L554.052138,1706.755759L550.263748,1718.611783L545.726133,1734.288428L541.663705,1748.215076L536.988077,1764.310912L533.054934,1779.519462L532.612334,1783.340098L565.093345,1777.818664L590.904834,1773.431103L599.037375,1772.075397L664.650041,1752.799792L672.126626,1750.458135L675.910321,1749.521473L680.707872,1748.609460L710.138499,1709.886139L730.802722,1683.241041L749.866963,1657.853241L760.384020,1643.877719L768.474686,1633.106506L787.164534,1608.483217L790.475996,1604.145201L799.708728,1603.233232L867.115064,1591.032600L904.452047,1583.736892L924.246064,1579.743979L935.426540,1577.698229L965.182313,1571.388454L1010.147738,1562.342825L1008.623557,1573.779266L1026.894713,1570.870856L1045.084094,1567.962450L1066.399700,1564.561097L1073.809918,1494.760269L1099.354142,1492.542050L1103.340774,1463.729987L1118.597296,1421.017664L1088.927268,1424.591378L1058.406923,1428.140450L1038.455361,1430.629732L1044.289470,1405.638419L962.295390,1414.979329L971.186169,1362.951569L963.991759,1372.366284L956.076446,1383.284433L944.844574,1379.045327L940.310602,1376.186399L937.931611,1373.795746L936.165346,1371.158636L929.344538,1357.578787L921.760192,1361.300300L912.590648,1365.490089L876.016040,1380.696606L867.647508,1384.812484L859.913180,1389.298057L863.083952,1381.362047Z " data-admincode1="CT" data-admincode2="003" data-admincode3="" data-admincode4="" data-cartodb-id="50" data-countrycod="US" data-created-at="2013-08-22T04:08:48+0200" data-fclass="P" data-fcode="PPLX" data-geonameid="" data-lat="41.7456846017" data-lng="-72.6840676211" data-name="Barry Square" data-parents="4835797" data-updated-at="2013-08-22T04:08:48+0200"/></g><g fill="#000" font-family="Arial" font-size="12px" id="mylayer-label" stroke="none"><text text-anchor="middle" y="987.828198515"><tspan dy="0" x="1145.02536871"><![CDATA[Downtown]]></tspan></text><text text-anchor="middle" y="310.147905901"><tspan dy="0" x="1331.98424738"><![CDATA[North East]]></tspan></text><text text-anchor="middle" y="1204.60966281"><tspan dy="0" x="748.952450991"><![CDATA[Frog Hollow]]></tspan></text><text text-anchor="middle" y="244.788085449"><tspan dy="0" x="802.005545374"><![CDATA[Blue Hills]]></tspan></text><text text-anchor="middle" y="1284.67570773"><tspan dy="0" x="1202.67527325"><![CDATA[Sheldon Charter Oak]]></tspan></text><text text-anchor="middle" y="1660.40496647"><tspan dy="0" x="1280.16827213"><![CDATA[South Meadows]]></tspan></text><text text-anchor="middle" y="465.991537116"><tspan dy="0" x="1653.23539088"><![CDATA[North Meadows]]></tspan></text><text text-anchor="middle" y="1804.29489985"><tspan dy="0" x="789.684258726"><![CDATA[South End]]></tspan></text><text text-anchor="middle" y="633.60400431"><tspan dy="0" x="871.034721685"><![CDATA[Upper Albany]]></tspan></text><text text-anchor="middle" y="1886.42596257"><tspan dy="0" x="297.375082983"><![CDATA[South West]]></tspan></text><text text-anchor="middle" y="694.673290703"><tspan dy="0" x="1174.35878634"><![CDATA[Clay Arsenal]]></tspan></text><text text-anchor="middle" y="1271.8201881"><tspan dy="0" x="988.210914759"><![CDATA[South Green]]></tspan></text><text text-anchor="middle" y="1289.92503935"><tspan dy="0" x="357.0166055"><![CDATA[Parkville]]></tspan></text><text text-anchor="middle" y="1561.87766615"><tspan dy="0" x="379.009394574"><![CDATA[Behind The Rocks]]></tspan></text><text text-anchor="middle" y="890.831216339"><tspan dy="0" x="768.479696609"><![CDATA[Asylum Hill]]></tspan></text><text text-anchor="middle" y="857.91888146"><tspan dy="0" x="493.414861764"><![CDATA[West End]]></tspan></text><text text-anchor="middle" y="1516.55517667"><tspan dy="0" x="795.899940574"><![CDATA[Barry Square]]></tspan></text></g></svg>