<?xml version="1.0" encoding="utf-8"?><!DOCTYPE svg  PUBLIC '-//W3C//DTD SVG 1.1//EN'  'http://www.w3.org/Graphics/SVG/1.1/DTD/svg11.dtd'><svg enable_background="new 0 0 2000 1549" height="1549px" pretty_print="False" style="stroke-linejoin: round; stroke:#000; fill: none;" version="1.1" viewBox="0 0 2000 1549" width="2000px" xmlns="http://www.w3.org/2000/svg" xmlns:xlink="http://www.w3.org/1999/xlink"><defs><style type="text/css"><![CDATA[path { fill-rule: evenodd; }]]></style></defs><metadata><views><view h="1549.14902837" padding="0" w="2000"><proj flip="auto" id="robinson" lon0="-83.643371148"/><bbox h="2.09" w="2.7" x="-1179.14" y="-551.45"/></view></views></metadata><g class="" id="mylayer"><path d="M920.357014,869.115681L976.741463,808.741105L985.084710,815.781321L998.428196,821.447102L1012.552789,815.452997L1006.341903,798.623319L1002.665868,789.740126L998.934783,770.592233L951.389920,773.153848L920.520638,803.795324L898.177461,844.276610L920.357014,869.115681Z " data-admincode1="GA" data-admincode2="021" data-admincode3="" data-admincode4="" data-countrycod="US" data-fclass="P" data-fcode="PPLX" data-geonameid="" data-lat="32.8305175538" data-lng="-83.6422859258" data-name="Beall's Hill" data-parents="4207400"/><path d="M355.967900,750.289969L358.397319,750.300733L377.798877,740.123858L409.406475,720.669486L424.141312,712.338302L432.553406,708.643957L456.776598,708.286462L459.866466,710.632982L471.483521,708.819436L497.959575,691.209709L526.421564,673.145019L522.677098,660.996125L522.990255,649.334389L520.860450,638.128013L525.063205,629.280972L525.063308,622.283012L531.671631,607.850636L541.219041,577.100688L545.888430,561.257537L552.346846,535.158516L507.756275,533.556510L493.389825,533.491694L490.511018,530.604940L490.202242,531.800782L490.079759,532.038825L489.903065,532.896548L489.674451,533.758287L487.861361,540.464841L487.702743,541.062747L485.785278,548.099006L482.501697,548.079970L479.674699,548.065131L478.998567,548.057831L475.644434,548.017195L472.196611,547.978274L473.484115,542.613595L470.269368,542.590648L470.899855,540.181986L471.043234,539.321991L470.662844,539.030565L470.230506,539.669838L469.456132,540.831640L466.863314,541.691298L465.325783,547.966631L466.782464,547.971026L466.662803,548.454070L466.343338,549.594470L466.162157,550.245525L464.380858,556.609209L464.169777,556.606138L462.470985,556.619826L458.708808,556.647700L452.857274,556.691814L446.361770,556.671298L438.200188,556.668952L430.847357,556.781042L426.857364,571.536620L421.771603,587.963761L416.916936,604.447238L416.015181,606.824824L414.984640,606.811716L413.879758,609.987238L412.639497,614.184652L412.487430,619.839727L414.365954,625.284418L419.921728,628.464031L424.577722,628.708485L428.546313,628.828459L426.204115,637.117346L422.690091,649.537855L422.520266,650.210243L422.319974,650.965568L421.944215,652.414569L421.853942,652.755000L420.738527,657.025342L420.377444,658.419021L419.918101,658.904781L418.931695,659.939916L418.181161,660.628886L416.603355,662.104464L415.501831,663.158252L412.997443,665.539297L412.273443,666.224115L410.548369,667.871590L408.588556,669.765110L407.976857,670.378015L406.368609,671.936533L404.931345,673.329669L404.462981,673.785568L402.543815,675.653721L400.290033,677.856943L398.451573,679.644510L397.144694,681.057396L395.780276,682.655346L394.165316,684.495033L393.609499,685.057053L393.033932,685.661600L392.474171,686.270466L392.065070,686.726640L391.101858,687.834310L390.841730,688.144159L390.317528,688.778745L389.799532,689.421891L389.305241,690.071527L388.784995,690.755131L388.320614,691.387859L387.847208,692.054629L387.389041,692.727852L387.043159,693.233296L386.916767,693.422325L386.540424,694.042663L386.170290,694.671549L385.797338,695.311068L384.883874,697.030322L383.871155,699.251844L382.979196,701.369528L382.874278,701.765273L382.192891,704.431349L382.131980,704.725041L381.508746,707.523432L381.402678,707.731717L379.760875,710.919666L379.632239,711.181110L378.965941,712.543577L378.748729,712.979301L378.283278,713.903847L377.520496,715.374528L376.878452,716.613564L376.163628,717.967293L375.450498,719.314645L374.712538,720.659762L373.966680,722.002707L373.212925,723.343481L372.452398,724.677840L371.683971,726.010038L370.899181,727.340028L370.175298,728.376328L364.954158,736.019550L357.155804,746.959448L356.711605,749.850197L355.967900,750.289969Z " data-admincode1="GA" data-admincode2="021" data-admincode3="" data-admincode4="" data-countrycod="US" data-fclass="P" data-fcode="PPLX" data-geonameid="4181870" data-lat="32.8452558799" data-lng="-83.6934268774" data-name="Bellevue" data-parents="4207400"/><path d="M586.904305,937.529046L570.249114,938.343702L524.951960,895.679734L522.262399,897.066813L529.772589,905.498502L533.080647,908.779308L521.838153,923.188762L519.302394,936.241068L517.641442,953.027180L513.441305,961.873250L509.707307,970.719319L509.519976,981.914206L513.075880,991.262565L522.067727,994.103155L519.598418,1003.421473L560.146250,1004.532577L564.354412,993.833565L572.570505,959.349150L589.298581,939.781178L590.048320,938.902810L586.904305,937.529046Z " data-admincode1="GA" data-admincode2="021" data-admincode3="" data-admincode4="" data-countrycod="US" data-fclass="P" data-fcode="PPLX" data-geonameid="" data-lat="32.8185602035" data-lng="-83.6779666756" data-name="Bird City" data-parents="4207400"/><path d="M264.042199,1146.762252L286.588190,1061.610470L308.108761,1013.656409L317.862688,990.842968L218.006891,982.471303L179.482479,986.035779L129.161136,1009.610343L112.780177,1062.718799L110.664500,1063.157018L103.010305,1089.257447L99.011684,1102.892555L97.457317,1108.157228L97.315358,1108.565547L100.610580,1108.824563L102.734629,1109.378887L106.006352,1110.014805L115.919809,1110.110564L115.210750,1112.501448L114.308180,1115.943634L113.672491,1118.345473L113.037385,1120.777140L112.400581,1123.183230L111.780125,1125.559582L111.361225,1127.142370L111.141660,1128.003998L110.504324,1130.444169L109.921046,1132.680097L109.320335,1135.013931L108.683598,1137.483905L108.056417,1139.885776L107.443338,1142.266397L106.809976,1144.691660L106.220513,1146.919044L105.940124,1147.946531L105.174397,1150.743944L104.489206,1153.269074L103.775832,1155.836689L110.921194,1155.281677L112.634610,1155.146352L112.588464,1155.352739L112.288010,1156.808234L112.245259,1157.033809L112.146246,1157.536017L112.005045,1158.261679L111.872310,1158.987366L111.623764,1160.438822L111.507953,1161.164593L111.427559,1161.660485L111.384826,1161.918013L111.312330,1162.416075L111.264569,1162.756638L111.187607,1163.335612L111.089288,1164.059322L110.910705,1165.502558L110.750175,1166.941612L110.678374,1167.661175L120.988739,1162.990180L134.414648,1155.223181L144.658517,1150.451945L154.699249,1148.689353L176.264633,1146.376370L200.781953,1146.483442L237.407565,1146.043794L259.971570,1146.744201L264.042199,1146.762252Z " data-admincode1="GA" data-admincode2="021" data-admincode3="" data-admincode4="" data-countrycod="US" data-fclass="P" data-fcode="PPLX" data-geonameid="" data-lat="32.8098877151" data-lng="-83.708062079" data-name="Bloomfield" data-parents="4207400"/><path d="M1334.393240,449.734967L1324.123297,445.737006L1314.707990,443.816853L1304.755247,436.903752L1296.915614,433.743389L1289.519656,431.209708L1278.989572,431.154891L1271.513098,433.611137L1268.039674,437.334677L1262.457377,446.663885L1260.801845,452.891930L1257.070147,471.586688L1242.824320,471.512844L1202.921886,476.921353L1192.844125,477.493877L1187.803830,482.458063L1180.570016,488.659586L1172.759923,501.718900L1165.520501,509.345811L1175.656058,528.937898L1176.955567,527.938899L1203.263773,575.853915L1205.193974,575.064903L1217.389699,571.463272L1220.359767,569.759215L1227.419202,565.711346L1242.516995,556.930436L1251.803301,550.563278L1260.689616,541.140820L1274.409705,523.800366L1289.206693,505.854021L1304.198193,487.145883L1325.048813,461.289993L1333.966849,450.254768L1334.393240,449.734967Z " data-admincode1="GA" data-admincode2="021" data-admincode3="" data-admincode4="" data-countrycod="US" data-fclass="P" data-fcode="PPLX" data-geonameid="" data-lat="32.8555899658" data-lng="-83.622116421" data-name="Boulevard" data-parents="4207400"/><path d="M1681.931883,454.666357L1677.691253,456.905769L1666.587086,462.386475L1653.621076,469.704423L1635.877034,481.155507L1657.397869,515.916924L1698.448945,496.283978L1686.468013,453.259669L1681.931883,454.666357Z " data-admincode1="GA" data-admincode2="021" data-admincode3="" data-admincode4="" data-countrycod="US" data-fclass="P" data-fcode="PPLX" data-geonameid="" data-lat="32.8568793398" data-lng="-83.5816594405" data-name="Bristol" data-parents="4207400"/><path d="M758.303061,1186.301168L672.466940,1181.155434L666.316768,1190.777140L658.614592,1201.716246L643.001812,1216.131929L627.297587,1228.975278L717.275830,1246.107284L731.210848,1226.001395L758.303061,1186.301168Z " data-admincode1="GA" data-admincode2="021" data-admincode3="" data-admincode4="" data-countrycod="US" data-fclass="P" data-fcode="PPLX" data-geonameid="" data-lat="32.7982234933" data-lng="-83.6569688395" data-name="Colonial Terrace" data-parents="4207400"/><path d="M1319.790394,594.753912L1309.146529,632.798393L1339.544357,621.106205L1347.568966,667.931884L1352.654642,668.248711L1352.775068,667.795515L1359.721515,641.687060L1367.994880,609.216807L1405.495990,594.751325L1410.653795,593.649668L1417.500261,591.807073L1420.941351,591.201239L1422.569657,586.000327L1406.216875,589.647842L1390.849851,591.436451L1357.688153,592.508463L1319.790394,594.753912Z " data-admincode1="GA" data-admincode2="021" data-admincode3="" data-admincode4="" data-countrycod="US" data-fclass="P" data-fcode="PPLX" data-geonameid="" data-lat="32.8464148419" data-lng="-83.6089633905" data-name="Davis Homes" data-parents="4207400"/><path d="M1118.635838,652.363647L1056.074819,721.419595L1064.723814,723.796315L1066.386409,728.003939L1053.067932,734.468494L1032.104150,757.122291L1033.350777,758.268375L1049.455448,772.304362L1063.754442,784.139222L1132.336966,843.487279L1205.231466,765.622642L1223.532399,746.078714L1222.472650,745.122952L1119.339337,652.682560L1118.635838,652.363647Z " data-admincode1="GA" data-admincode2="021" data-admincode3="" data-admincode4="" data-countrycod="US" data-fclass="P" data-fcode="PPLX" data-geonameid="" data-lat="32.8356139052" data-lng="-83.6271696292" data-name="Downtown" data-parents="4207400"/><path d="M958.265337,895.866148L928.913295,926.202249L915.690267,935.703534L887.863702,953.907015L871.759392,963.794774L856.026795,1017.141627L921.640100,1019.619820L924.941780,1003.976698L940.023223,1003.119262L951.389726,1002.243330L962.072548,1000.430993L968.563689,993.465689L970.047384,987.872589L967.672227,977.596768L973.319675,965.028675L989.669928,936.649936L995.905985,930.616345L958.265337,895.866148Z " data-admincode1="GA" data-admincode2="021" data-admincode3="" data-admincode4="" data-countrycod="US" data-fclass="P" data-fcode="PPLX" data-geonameid="" data-lat="32.8180074532" data-lng="-83.6408970385" data-name="Edgewood Ave Area" data-parents="4207400"/><path d="M1411.528451,450.592715L1411.221180,451.812021L1333.966849,450.254768L1325.048813,461.289993L1304.198193,487.145883L1289.206693,505.854021L1274.409705,523.800366L1260.689616,541.140820L1251.803301,550.563278L1242.516995,556.930436L1227.419202,565.711346L1220.359767,569.759215L1213.145415,594.869777L1304.539094,594.098275L1303.187938,595.738172L1319.790394,594.753912L1357.688153,592.508463L1390.849851,591.436451L1406.216875,589.647842L1422.569657,586.000327L1444.013184,517.487969L1428.237348,516.156840L1434.526904,501.841864L1445.332421,480.585463L1443.874267,480.682057L1446.103561,476.952324L1469.857841,464.601932L1475.525174,459.642060L1475.650971,452.157126L1463.885757,452.093824L1464.154846,451.432589L1411.528451,450.592715Z " data-admincode1="GA" data-admincode2="021" data-admincode3="" data-admincode4="" data-countrycod="US" data-fclass="P" data-fcode="PPLX" data-geonameid="" data-lat="32.8534093636" data-lng="-83.6110640691" data-name="Fort Hill" data-parents="4207400"/><path d="M1861.466367,272.427408L1851.721042,280.563900L1824.186089,303.299672L1771.140519,345.731817L1780.892322,365.876016L1786.914280,375.893898L1790.750507,377.786634L1797.436224,385.310769L1809.728736,399.730813L1830.312824,383.002080L1864.200477,358.238691L1865.085486,359.594853L1898.202331,334.356624L1861.466367,272.427408Z " data-admincode1="GA" data-admincode2="021" data-admincode3="" data-admincode4="" data-countrycod="US" data-fclass="P" data-fcode="PPLX" data-geonameid="" data-lat="32.8687784508" data-lng="-83.5694585191" data-name="Griswoldville / Belvedere Manor" data-parents="4207400"/><path d="M179.102966,1547.149028L180.722884,1541.118681L182.836631,1533.156807L183.375477,1531.118996L184.627670,1526.543671L186.662189,1518.849749L188.003730,1513.744525L191.680359,1499.841363L193.567098,1492.674873L194.786147,1488.065287L195.729429,1485.107091L201.459531,1462.896501L202.718566,1458.008057L203.201291,1456.182922L203.505086,1455.002285L204.237059,1452.234804L204.943701,1449.531089L205.691441,1446.704043L206.366590,1444.119448L207.158795,1441.124342L207.831703,1438.548262L208.802288,1434.878821L209.250709,1433.151489L209.940539,1430.543527L210.365334,1428.905535L211.386030,1425.046767L212.003271,1422.681264L217.032694,1422.658949L219.455901,1422.465297L219.938200,1422.467448L220.428960,1422.469636L220.911823,1422.469654L221.402583,1422.471843L221.884882,1422.473995L222.206414,1422.475429L222.527947,1422.476864L222.841579,1422.476139L223.163111,1422.477574L223.484644,1422.479008L223.696178,1422.479952L223.907712,1422.480896L224.110786,1422.481803L224.322320,1422.482747L224.533854,1422.483691L224.821541,1422.484975L226.395921,1422.489868L226.700530,1422.491229L227.487998,1422.492621L229.646211,1422.500127L230.035434,1422.501866L233.065162,1422.513284L235.147219,1422.520461L239.825994,1416.714437L241.498895,1414.649695L242.382690,1413.550446L243.350331,1411.237619L243.870774,1410.006822L244.093259,1408.589408L244.575815,1405.420383L245.024715,1402.538714L245.339342,1400.516861L245.631460,1398.580096L245.711818,1398.084218L246.087694,1395.670763L246.516356,1392.865667L246.942813,1390.132971L247.570961,1386.061563L247.781635,1384.656866L247.886721,1384.003495L247.949754,1383.765244L248.202973,1382.744093L249.032983,1379.414737L251.297682,1369.830278L253.006597,1363.659470L225.919683,1362.678143L185.206105,1358.766380L162.908711,1355.403328L134.668750,1346.417911L127.742009,1369.177759L127.576519,1369.707340L112.639596,1421.187088L113.625644,1421.174351L115.175291,1421.240743L117.655736,1421.343150L117.990825,1421.357391L118.560589,1421.381175L122.674729,1421.552484L123.596503,1421.590588L127.751799,1421.734404L129.497742,1421.795291L133.535694,1421.934357L134.375661,1421.961469L137.643581,1422.065237L138.890245,1422.060049L139.591429,1422.067384L144.145454,1422.112922L145.615512,1422.127896L150.364146,1422.174315L150.710505,1422.177973L151.031482,1422.181508L155.878271,1422.241161L157.812019,1422.264586L159.610385,1422.287407L162.692105,1422.358491L162.015771,1424.819565L161.281492,1427.499746L160.518525,1430.288419L159.774133,1433.006886L158.810380,1436.618854L158.269730,1438.663097L157.229304,1442.308796L157.137017,1442.625718L156.379627,1445.265315L156.026824,1446.503236L155.913138,1446.869041L155.513575,1448.187683L154.421828,1451.803331L154.284517,1452.258477L153.555255,1454.759767L153.350978,1455.436104L152.795035,1457.346105L152.041573,1459.906915L151.970128,1460.177075L151.655574,1461.238391L151.177273,1462.854835L150.868908,1463.892757L150.438450,1465.360334L150.042871,1466.696025L149.738446,1467.719061L149.251719,1469.367405L149.107665,1469.848075L148.448759,1472.083459L148.185405,1472.951203L147.606925,1474.850441L146.606587,1478.377018L146.524999,1478.653515L145.858871,1481.012382L145.662511,1481.690873L145.098789,1483.694530L144.353083,1486.738793L144.095556,1487.840822L143.761389,1489.040476L143.675868,1489.331857L143.444097,1490.176315L142.932726,1492.014085L142.104659,1495.017509L141.584297,1496.889311L140.915423,1499.290735L140.116060,1502.185672L139.614834,1503.985147L137.176292,1512.791135L132.885872,1527.992751L128.514433,1543.181177L127.622224,1546.203435L140.311405,1546.427629L150.663178,1546.745974L159.897337,1546.806030L179.102966,1547.149028Z " data-admincode1="GA" data-admincode2="021" data-admincode3="" data-admincode4="" data-countrycod="US" data-fclass="P" data-fcode="PPLX" data-geonameid="4198508" data-lat="32.7804430982" data-lng="-83.7013273624" data-name="Groveland Park" data-parents="4207400"/><path d="M552.740049,0.000000L552.999308,1.130376L553.794000,4.585497L554.467520,7.507426L554.635485,8.215534L553.053257,8.937179L548.664575,10.967353L549.765377,15.663831L550.159370,17.340235L551.169434,21.644276L570.493777,14.042989L632.161458,14.319515L634.208168,10.127113L637.483803,1.278382L552.740049,0.000000Z " data-admincode1="GA" data-admincode2="021" data-admincode3="" data-admincode4="" data-countrycod="US" data-fclass="P" data-fcode="PPLX" data-geonameid="" data-lat="32.8954024001" data-lng="-83.6972236253" data-name="Hill Place / Underwood Assoc" data-parents="4207400"/><path d="M1118.635838,652.363647L1113.124614,649.851304L1105.807269,644.214932L1100.031788,636.251373L1083.602244,621.237085L1071.778068,612.049982L1068.667271,616.295366L1059.396644,631.799392L1048.306863,649.686774L1039.531900,664.794789L1033.483895,674.134305L1024.709409,689.242252L1014.230030,706.335716L1004.799947,719.446165L990.691237,739.710641L1001.411168,744.150977L1012.261894,746.597978L1020.734322,749.033127L1025.067742,750.650671L1032.104150,757.122291L1053.067932,734.468494L1066.386409,728.003939L1064.723814,723.796315L1056.074819,721.419595L1118.635838,652.363647Z " data-admincode1="GA" data-admincode2="021" data-admincode3="" data-admincode4="" data-countrycod="US" data-fclass="P" data-fcode="PPLX" data-geonameid="" data-lat="32.8406299385" data-lng="-83.6355917128" data-name="In Town" data-parents="4207400"/><path d="M1911.021223,234.880880L1910.879819,234.679740L1922.483034,225.522655L1936.316983,214.579739L1946.601064,206.461591L1957.608102,197.921405L1954.150284,193.080684L1964.222484,184.963479L1973.076932,177.821774L1976.913753,182.767072L1987.941864,173.926646L1999.354067,164.917996L1995.494101,159.614404L1989.458039,151.246293L1982.807415,141.971021L1977.165643,133.681993L1946.346953,91.212170L1939.089632,97.257418L1930.432840,104.164220L1927.856257,106.229563L1923.078776,110.064033L1920.758677,111.930514L1918.574186,113.669899L1917.002619,114.922605L1913.839163,117.440692L1911.019174,119.687947L1908.835842,121.423084L1908.027468,122.070623L1906.694313,123.128625L1904.574256,124.817240L1902.376805,126.573614L1900.288957,128.236842L1893.785627,133.203857L1877.296740,146.758217L1884.637840,157.899207L1863.406270,174.333479L1903.082854,237.599494L1911.021223,234.880880Z " data-admincode1="GA" data-admincode2="021" data-admincode3="" data-admincode4="" data-countrycod="US" data-fclass="P" data-fcode="PPLX" data-geonameid="4204000" data-lat="32.8827451757" data-lng="-83.5647937001" data-name="Kings View" data-parents="4207400"/><path d="M1898.202331,334.356624L1865.085486,359.594853L1925.882855,452.803916L1997.885410,392.080332L1973.256399,330.792462L1960.923099,307.587316L1960.091194,308.228224L1959.475001,308.727603L1955.946968,304.054878L1950.950899,297.255302L1951.080077,296.802121L1951.363299,295.866055L1952.043661,293.566216L1951.933813,293.405750L1898.202331,334.356624Z " data-admincode1="GA" data-admincode2="021" data-admincode3="" data-admincode4="" data-countrycod="US" data-fclass="P" data-fcode="PPLX" data-geonameid="4204287" data-lat="32.8659363838" data-lng="-83.5589596998" data-name="Lake Arrowhead" data-parents="4207400"/><path d="M837.271091,1248.941662L831.741698,1254.045561L813.394663,1263.750664L802.866904,1270.229293L783.227084,1281.329921L773.184841,1285.945185L755.340655,1293.787481L723.013097,1330.016201L715.386133,1343.042227L707.266389,1357.929565L700.447738,1371.423819L692.546534,1387.247187L687.542294,1395.619107L680.665054,1405.849862L675.442415,1413.287772L666.401799,1428.170414L660.257207,1435.603817L834.246628,1440.664450L847.961734,1317.107160L839.036100,1296.534848L835.174886,1277.855936L841.189010,1263.889025L841.434913,1255.959854L837.271091,1248.941662Z " data-admincode1="GA" data-admincode2="021" data-admincode3="" data-admincode4="" data-countrycod="US" data-fclass="P" data-fcode="PPLX" data-geonameid="4207180" data-lat="32.7858140008" data-lng="-83.6456028535" data-name="Lynmore Estates" data-parents="4207400"/><path d="M1739.562505,533.825420L1679.074239,540.246868L1629.840933,559.197244L1640.236209,584.708017L1640.498464,584.837327L1640.988017,585.068047L1642.379908,585.793898L1642.838412,586.045755L1643.742426,586.566454L1644.187936,586.835297L1645.499623,587.671499L1646.353371,588.253721L1646.774035,588.552247L1647.592774,589.170495L1648.551347,589.900326L1649.028935,590.271631L1649.496930,590.647133L1650.420492,591.413001L1650.876061,591.803356L1651.330498,592.197967L1651.775340,592.596786L1652.661629,593.407191L1653.094612,593.818729L1654.369845,595.078784L1654.789837,595.507297L1655.151180,595.901390L1655.327620,596.098413L1655.679935,596.494581L1655.855807,596.693737L1656.206991,597.094161L1656.382298,597.295439L1656.732347,597.700130L1660.684649,597.594359L1662.844451,597.536108L1665.737698,597.492623L1668.255742,597.457705L1669.889680,597.432755L1670.698186,597.420234L1672.697728,597.390937L1678.093213,597.308232L1679.395397,597.287824L1680.365828,597.271956L1684.928544,597.197401L1687.703862,597.151176L1693.392777,596.984959L1697.912061,596.882507L1704.213069,596.773053L1710.743185,596.598864L1718.530264,596.478693L1724.800734,596.420326L1724.870966,596.092567L1739.562505,533.825420Z " data-admincode1="GA" data-admincode2="021" data-admincode3="" data-admincode4="" data-countrycod="US" data-fclass="P" data-fcode="PPLX" data-geonameid="" data-lat="32.8502314712" data-lng="-83.5777794889" data-name="McCall / Morningside" data-parents="4207400"/><path d="M1464.154846,451.432589L1487.795848,394.830212L1446.681299,372.150435L1438.380896,368.364350L1422.138129,375.763529L1417.181475,385.093690L1423.690113,402.596917L1411.528451,450.592715L1464.154846,451.432589Z " data-admincode1="GA" data-admincode2="021" data-admincode3="" data-admincode4="" data-countrycod="US" data-fclass="P" data-fcode="PPLX" data-geonameid="" data-lat="32.8627324146" data-lng="-83.6048402728" data-name="Meriwood" data-parents="4207400"/><path d="M1636.188570,436.813056L1583.025407,420.815682L1579.203897,423.104652L1582.712307,425.433758L1558.079662,450.703452L1531.085292,496.075548L1531.777012,496.151764L1536.810299,498.930112L1538.011044,502.605961L1551.065076,504.705804L1557.967528,509.825618L1576.190754,517.315317L1596.453285,525.741400L1607.717036,511.021773L1617.290269,468.118208L1620.332408,458.435159L1628.042688,450.162952L1636.188570,436.813056Z " data-admincode1="GA" data-admincode2="021" data-admincode3="" data-admincode4="" data-countrycod="US" data-fclass="P" data-fcode="PPLX" data-geonameid="" data-lat="32.8578789894" data-lng="-83.5901168076" data-name="Ollie Drive" data-parents="4207400"/><path d="M1108.259094,520.438333L1108.403945,522.030632L1118.548301,529.564798L1131.430682,543.988521L1139.413069,556.246147L1139.617761,556.560386L1175.656058,528.937898L1165.520501,509.345811L1155.041930,489.449524L1108.259094,520.438333Z " data-admincode1="GA" data-admincode2="021" data-admincode3="" data-admincode4="" data-countrycod="US" data-fclass="P" data-fcode="PPLX" data-geonameid="" data-lat="32.8538334197" data-lng="-83.6311340379" data-name="Parkview" data-parents="4207400"/><path d="M856.026795,1017.141627L825.160091,1016.239499L814.146169,1056.148100L818.375706,1059.434503L840.698978,1065.136436L857.199095,1040.648171L852.228908,1031.399671L856.026795,1017.141627Z " data-admincode1="GA" data-admincode2="021" data-admincode3="" data-admincode4="" data-countrycod="US" data-fclass="P" data-fcode="PPLX" data-geonameid="" data-lat="32.8121235433" data-lng="-83.6478325923" data-name="Piedmont / Dixie Ave Area" data-parents="4207400"/><path d="M865.067214,626.999228L866.182113,627.652309L874.580499,634.870697L903.408594,663.719482L933.573700,694.968311L948.566855,710.194276L963.478831,724.224920L972.265742,731.446164L977.377219,733.740604L989.435458,715.485379L997.596408,698.727502L1003.004098,701.087440L1010.546257,686.661435L1006.155492,685.706279L1021.828056,663.387006L1037.256286,635.000860L1045.510077,626.643833L1058.275983,604.776337L1053.239507,601.018254L1045.402587,585.114777L1032.249581,554.251650L1027.955551,547.697874L1027.036258,540.692246L1022.494671,535.070443L1008.230442,501.402421L971.519429,513.820729L951.800055,521.655537L932.643134,523.894338L903.447493,523.751525L888.913736,547.011845L865.067214,626.999228Z " data-admincode1="GA" data-admincode2="021" data-admincode3="" data-admincode4="" data-countrycod="US" data-fclass="P" data-fcode="PPLX" data-geonameid="" data-lat="32.8469714937" data-lng="-83.646519867" data-name="Pleasant Hill" data-parents="4207400"/><path d="M837.271091,1248.941662L846.868984,1242.456463L857.775182,1227.582990L864.226324,1215.486225L873.242359,1188.471980L889.946324,1130.704119L821.809675,1132.231253L811.652496,1158.307433L815.824070,1158.328047L795.753455,1230.540235L842.543847,1230.772455L837.271091,1248.941662Z " data-admincode1="GA" data-admincode2="021" data-admincode3="" data-admincode4="" data-countrycod="US" data-fclass="P" data-fcode="PPLX" data-geonameid="" data-lat="32.8006642725" data-lng="-83.6436893079" data-name="Robert Henry St Area" data-parents="4207400"/><path d="M190.284172,1149.091867L133.020903,1346.623816L169.049306,1354.274466L187.446531,1357.752025L227.847384,1359.838570L278.553649,1360.534072L297.716889,1363.316119L326.503969,1369.575713L337.860642,1323.671758L339.586053,1312.543429L295.951792,1275.680584L284.392961,1272.898468L272.750357,1265.943157L265.842421,1252.032510L258.196494,1220.733319L253.726469,1201.953675L254.186173,1195.693767L256.861909,1153.960751L258.895449,1148.396311L190.284172,1149.091867Z " data-admincode1="GA" data-admincode2="021" data-admincode3="" data-admincode4="" data-countrycod="US" data-fclass="P" data-fcode="PPLX" data-geonameid="" data-lat="32.7929385107" data-lng="-83.7001933743" data-name="Sherwood" data-parents="4207400"/><path d="M1216.925167,239.693498L1210.175514,239.731542L1206.890641,239.842663L1206.285555,239.918417L1205.036313,240.248726L1203.568608,240.635463L1203.078062,240.758679L1202.623052,240.907657L1201.952370,241.166329L1201.531747,241.377271L1201.116196,241.601023L1200.705715,241.837585L1200.300870,242.084836L1199.901662,242.342765L1199.508093,242.611370L1199.120160,242.890664L1198.737861,243.180646L1198.361201,243.481306L1197.990179,243.792642L1197.633823,244.112588L1197.283673,244.441077L1196.939722,244.778132L1196.610443,245.123773L1196.287363,245.477981L1195.971054,245.838610L1195.669413,246.207836L1195.373975,246.585618L1194.957120,247.069322L1194.554933,247.561624L1194.166851,248.064647L1193.793435,248.576278L1193.435255,249.094373L1193.091743,249.621066L1192.763468,250.154223L1192.458892,250.693899L1192.170116,251.237916L1191.897141,251.786275L1191.639967,252.338976L1191.407059,252.896061L1191.190515,253.455367L1190.990340,254.016880L1190.806532,254.580601L1190.648119,255.144463L1190.506641,255.708400L1190.430777,256.057465L1185.253059,259.365870L1180.616851,262.327575L1177.941624,264.035683L1176.396198,265.065546L1172.045704,267.877440L1145.067159,284.727546L1134.613828,291.523094L1128.540209,295.587812L1123.062114,299.549004L1117.739532,303.052878L1115.104269,299.509022L1111.671487,295.074775L1110.225383,296.241562L1093.616836,348.965960L1096.262807,375.306065L1123.665276,489.984520L1153.153818,482.743236L1174.747916,474.079423L1178.847574,469.018744L1200.566320,452.966680L1236.324287,448.069088L1251.006520,434.288915L1258.672799,408.925922L1265.400799,404.343428L1252.743192,393.191617L1237.242185,387.569536L1243.156680,377.438466L1292.662359,332.545454L1292.786032,332.431032L1245.879072,270.759782L1244.113624,268.440917L1242.218103,272.126021L1225.124671,265.571454L1216.925167,239.693498Z " data-admincode1="GA" data-admincode2="021" data-admincode3="" data-admincode4="" data-countrycod="US" data-fclass="P" data-fcode="PPLX" data-geonameid="4222580" data-lat="32.8666102863" data-lng="-83.6313756315" data-name="Shirley Hills" data-parents="4207400"/><path d="M1655.664867,325.872484L1652.725678,334.591161L1652.508058,347.066823L1649.893930,363.897693L1649.050198,376.369795L1649.706421,383.237234L1700.944786,376.431987L1722.452004,376.584072L1686.453220,302.527269L1702.138234,298.409839L1716.157286,281.571697L1716.235522,281.214118L1709.599907,281.652423L1709.617127,281.364824L1709.630733,280.740511L1709.581529,280.288458L1709.537296,279.945109L1709.432868,279.413906L1709.238196,278.839569L1709.073886,278.374089L1708.919011,278.064234L1708.705580,277.624053L1707.798108,276.001546L1706.386830,273.692181L1704.785910,274.770116L1701.591974,276.928170L1698.066668,279.216502L1694.894907,281.227643L1692.597662,282.851531L1691.425816,283.750724L1690.000380,284.870127L1688.937508,285.710257L1687.797765,286.679948L1686.707113,287.656300L1685.376933,288.895582L1684.337010,289.936145L1683.239471,291.033933L1682.042436,292.314437L1681.761657,292.636797L1681.160349,291.233394L1680.691237,290.256917L1679.985585,288.799656L1667.504962,261.483434L1662.259872,280.137147L1662.517207,298.151979L1661.948386,317.551588L1655.664867,325.872484Z " data-admincode1="GA" data-admincode2="021" data-admincode3="" data-admincode4="" data-countrycod="US" data-fclass="P" data-fcode="PPLX" data-geonameid="" data-lat="32.8690154369" data-lng="-83.5843361954" data-name="Skyline / Horseshoe" data-parents="4207400"/><path d="M1222.472650,745.122952L1223.532399,746.078714L1205.231466,765.622642L1319.146814,894.501007L1364.475110,858.347813L1338.537384,823.212001L1299.543138,779.608906L1266.446161,743.504081L1247.238480,721.471057L1222.472650,745.122952Z " data-admincode1="GA" data-admincode2="021" data-admincode3="" data-admincode4="" data-countrycod="US" data-fclass="P" data-fcode="PPLX" data-geonameid="" data-lat="32.8307385588" data-lng="-83.6105203207" data-name="Smokey Glover Dr" data-parents="4207400"/><path d="M1514.058799,475.989341L1445.332421,480.585463L1434.526904,501.841864L1428.237348,516.156840L1444.013184,517.487969L1422.569657,586.000327L1420.941351,591.201239L1430.827857,589.464529L1433.528039,588.967671L1435.375364,588.937119L1435.777086,588.956327L1436.167516,588.986133L1436.555686,589.024438L1436.941590,589.071266L1437.316204,589.128682L1437.688556,589.194608L1438.058081,589.271168L1438.425341,589.356249L1438.790341,589.449830L1439.144049,589.554010L1439.495493,589.666701L1439.844675,589.787903L1440.183132,589.917570L1440.518758,590.057881L1442.380810,590.800886L1443.264680,591.238183L1443.451944,591.330820L1446.632411,593.235802L1448.003515,594.072049L1449.798750,595.162026L1450.208789,595.405006L1453.257845,597.198504L1456.936872,599.395995L1456.456263,600.088021L1459.875783,602.209552L1464.929182,605.358421L1470.155719,608.589236L1475.663093,612.006974L1479.754298,614.502961L1484.236300,617.282360L1488.751532,620.128009L1498.729537,613.583335L1509.186547,609.668564L1519.590059,604.839482L1523.735770,601.806595L1525.114388,596.621412L1525.120984,592.038140L1525.788138,586.086234L1527.287830,578.150842L1529.721115,568.999590L1531.735460,558.013521L1534.026609,548.249888L1535.791066,542.762028L1539.976695,537.285261L1544.861124,531.507599L1548.660675,526.335546L1548.991771,520.532974L1547.597361,517.776575L1543.660165,513.171644L1539.152667,506.121670L1538.011044,502.605961L1536.810299,498.930112L1531.777012,496.151764L1531.085292,496.075548L1525.879329,495.508110L1525.835918,488.787218L1524.550986,484.503631L1521.437848,480.210118L1518.204107,478.664733L1514.360387,477.118185L1514.058799,475.989341Z " data-admincode1="GA" data-admincode2="021" data-admincode3="" data-admincode4="" data-countrycod="US" data-fclass="P" data-fcode="PPLX" data-geonameid="" data-lat="32.8522249413" data-lng="-83.5979126038" data-name="Trinity Sunnydale" data-parents="4207400"/><path d="M717.275830,1246.107284L627.297587,1228.975278L617.919188,1236.649596L608.066927,1245.825469L599.642981,1254.567276L588.331166,1269.223087L576.306460,1284.972428L568.373194,1296.790115L562.867927,1306.989900L607.835712,1297.270043L654.777862,1295.163314L661.230887,1297.060370L681.546734,1297.540039L700.119915,1270.857973L717.275830,1246.107284Z " data-admincode1="GA" data-admincode2="021" data-admincode3="" data-admincode4="" data-countrycod="US" data-fclass="P" data-fcode="PPLX" data-geonameid="" data-lat="32.7936654293" data-lng="-83.6607176166" data-name="Triple Hill Dr" data-parents="4207400"/><path d="M851.581072,784.278282L776.152519,783.113130L767.523846,784.268800L692.643727,806.436418L633.532210,824.498529L618.669336,831.205003L608.798424,835.544870L598.975689,842.675602L602.807011,868.049239L605.925066,868.530360L599.501487,892.758801L595.082730,907.668468L590.883212,923.509980L587.642866,937.492038L586.904305,937.529046L590.048320,938.902810L589.298581,939.781178L612.755341,939.009467L636.698080,941.454982L656.875928,940.617589L671.144804,940.685434L691.168535,940.780956L708.524655,941.797079L728.854744,868.646683L782.584547,871.956333L783.467185,867.478507L789.398564,851.698425L799.198877,839.447774L820.948601,816.718720L839.593721,797.485382L851.581072,784.278282Z " data-admincode1="GA" data-admincode2="021" data-admincode3="" data-admincode4="" data-countrycod="US" data-fclass="P" data-fcode="PPLX" data-geonameid="4227915" data-lat="32.8266463324" data-lng="-83.6655001985" data-name="Unionville" data-parents="4207400"/><path d="M127.742009,1369.177759L14.920652,1366.022914L10.443058,1382.187038L9.796217,1384.665322L0.645933,1419.624714L1.634873,1419.665124L13.706019,1419.763455L19.275051,1419.814941L24.040768,1419.860882L32.218544,1420.266468L32.752157,1422.381354L33.276160,1424.468508L33.765654,1426.429870L34.076875,1427.655750L34.350114,1428.640813L34.906179,1430.606720L35.492816,1432.713314L37.998301,1441.660001L40.669270,1451.550816L40.763188,1451.900478L41.218618,1453.574198L44.779469,1466.635593L48.012962,1478.019556L50.742282,1487.433588L56.742274,1510.141985L57.873068,1520.251848L61.388426,1524.417673L68.851778,1523.838883L70.289269,1523.431986L84.771945,1523.569550L88.514403,1509.253552L89.220226,1506.615900L90.247747,1502.761503L90.414778,1502.129738L91.224102,1499.100680L93.572135,1490.155821L92.529736,1490.189611L93.167400,1487.617671L97.304728,1471.970091L97.987581,1469.419619L98.667062,1466.881920L99.343739,1464.354850L100.026610,1461.804373L100.713423,1459.239010L101.655073,1455.741968L102.161339,1453.859438L102.868421,1451.217489L102.930860,1450.981364L103.045071,1450.581486L103.099632,1450.375153L103.913038,1447.331155L104.421007,1445.442233L105.411079,1441.762237L105.493767,1441.449543L106.117626,1439.122412L106.379762,1438.131132L107.216829,1434.997780L108.094968,1431.709144L108.281167,1431.005041L109.393923,1426.861297L109.897428,1424.989382L110.904986,1421.211476L112.639596,1421.187088L127.576519,1369.707340L127.742009,1369.177759Z " data-admincode1="GA" data-admincode2="021" data-admincode3="" data-admincode4="" data-countrycod="US" data-fclass="P" data-fcode="PPLX" data-geonameid="4228472" data-lat="32.780875825" data-lng="-83.7119596985" data-name="Village Green" data-parents="4207400"/><path d="M1655.664867,325.872484L1612.056761,277.593935L1515.078226,322.609946L1516.167210,348.817522L1516.321432,366.909705L1524.396158,383.173749L1527.112074,396.289169L1534.125306,411.923151L1544.438126,424.457654L1543.483246,435.057838L1547.696508,433.207737L1548.901170,426.352868L1547.294735,420.729250L1542.921524,413.844006L1536.852000,406.325212L1542.972459,401.990147L1557.970678,394.585934L1575.434883,396.552160L1596.833575,395.422710L1617.033592,391.789630L1649.706421,383.237234L1649.050198,376.369795L1649.893930,363.897693L1652.508058,347.066823L1652.725678,334.591161L1655.664867,325.872484Z " data-admincode1="GA" data-admincode2="021" data-admincode3="" data-admincode4="" data-countrycod="US" data-fclass="P" data-fcode="PPLX" data-geonameid="" data-lat="32.8680720137" data-lng="-83.5932671102" data-name="Walnut Creek" data-parents="4207400"/><path d="M624.810648,256.933763L631.183819,250.428543L648.556878,223.445918L675.981350,198.840155L716.239720,162.628849L809.384734,124.796744L808.025788,122.923885L759.117882,142.761614L716.051204,159.828355L704.132127,145.306483L694.172947,151.328598L685.768236,148.021619L693.999729,134.525816L696.909778,113.075322L701.856955,108.431983L715.039015,83.295672L710.675942,80.475918L708.544149,83.265787L701.739807,94.897652L697.682346,108.412797L693.571821,111.662301L691.933062,119.584956L673.046238,119.033928L657.592178,121.294230L640.813865,105.817876L627.832542,105.758999L628.177178,99.228147L625.270125,92.682566L606.008571,100.529912L585.910591,109.771410L574.105212,115.786296L576.328677,121.395387L582.848227,133.556077L588.872602,147.580942L601.989567,194.303382L609.276686,215.799399L616.166900,226.564297L618.140731,240.104229L624.810648,256.933763Z " data-admincode1="GA" data-admincode2="021" data-admincode3="" data-admincode4="" data-countrycod="US" data-fclass="P" data-fcode="PPLX" data-geonameid="" data-lat="32.8830267452" data-lng="-83.6883171253" data-name="Wimbish Woods Assoc" data-parents="4207400"/><path d="M1245.879072,270.759782L1292.786032,332.431032L1292.662359,332.545454L1308.780233,339.673698L1316.300808,335.555674L1341.823619,312.132659L1361.614725,308.541476L1378.903391,297.085214L1387.454946,273.573404L1275.707198,229.112635L1266.583091,239.225531L1263.273415,244.752946L1245.879072,270.759782Z " data-admincode1="GA" data-admincode2="021" data-admincode3="" data-admincode4="" data-countrycod="US" data-fclass="P" data-fcode="PPLX" data-geonameid="4231716" data-lat="32.8732274717" data-lng="-83.6210759181" data-name="Wood Valley" data-parents="4207400"/></g><g fill="#000" font-family="Arial" font-size="12px" id="mylayer-label" stroke="none"><text text-anchor="middle" y="805.714748139"><tspan dy="0" x="953.027805443"><![CDATA[Beall's Hill]]></tspan></text><text text-anchor="middle" y="623.172755214"><tspan dy="0" x="468.122345492"><![CDATA[Bellevue]]></tspan></text><text text-anchor="middle" y="953.805008875"><tspan dy="0" x="542.93534268"><![CDATA[Bird City]]></tspan></text><text text-anchor="middle" y="1061.20851056"><tspan dy="0" x="201.585500522"><![CDATA[Bloomfield]]></tspan></text><text text-anchor="middle" y="495.173976626"><tspan dy="0" x="1243.93629653"><![CDATA[Boulevard]]></tspan></text><text text-anchor="middle" y="479.203446599"><tspan dy="0" x="1669.30481376"><![CDATA[Bristol]]></tspan></text><text text-anchor="middle" y="1205.65766345"><tspan dy="0" x="696.031377614"><![CDATA[Colonial Terrace]]></tspan></text><text text-anchor="middle" y="608.818312004"><tspan dy="0" x="1351.26566561"><![CDATA[Davis Homes]]></tspan></text><text text-anchor="middle" y="742.594407106"><tspan dy="0" x="1126.86097044"><![CDATA[Downtown]]></tspan></text><text text-anchor="middle" y="960.650594275"><tspan dy="0" x="927.147902102"><![CDATA[Edgewood Ave Area]]></tspan></text><text text-anchor="middle" y="522.183533037"><tspan dy="0" x="1351.96693638"><![CDATA[Fort Hill]]></tspan></text><text text-anchor="middle" y="331.812743936"><tspan dy="0" x="1834.73367223"><![CDATA[Griswoldville / Belvedere Manor]]></tspan></text><text text-anchor="middle" y="1425.83650195"><tspan dy="0" x="176.815239583"><![CDATA[Groveland Park]]></tspan></text><text text-anchor="middle" y="2.00592932956"><tspan dy="0" x="590.729669597"><![CDATA[Hill Place / Underwood Assoc]]></tspan></text><text text-anchor="middle" y="680.468737656"><tspan dy="0" x="1055.35315691"><![CDATA[In Town]]></tspan></text><text text-anchor="middle" y="158.802575404"><tspan dy="0" x="1928.39584575"><![CDATA[Kings View]]></tspan></text><text text-anchor="middle" y="367.016852142"><tspan dy="0" x="1934.86198337"><![CDATA[Lake Arrowhead]]></tspan></text><text text-anchor="middle" y="1359.32893396"><tspan dy="0" x="774.428544756"><![CDATA[Lynmore Estates]]></tspan></text><text text-anchor="middle" y="561.545629654"><tspan dy="0" x="1688.25143885"><![CDATA[McCall / Morningside]]></tspan></text><text text-anchor="middle" y="406.704106906"><tspan dy="0" x="1446.85980345"><![CDATA[Meriwood]]></tspan></text><text text-anchor="middle" y="466.821371407"><tspan dy="0" x="1584.47975072"><![CDATA[Ollie Drive]]></tspan></text><text text-anchor="middle" y="516.931273168"><tspan dy="0" x="1144.3800949"><![CDATA[Parkview]]></tspan></text><text text-anchor="middle" y="1033.51971211"><tspan dy="0" x="835.961789661"><![CDATA[Piedmont / Dixie Ave Area]]></tspan></text><text text-anchor="middle" y="601.923361569"><tspan dy="0" x="962.040432197"><![CDATA[Pleasant Hill]]></tspan></text><text text-anchor="middle" y="1175.4315758"><tspan dy="0" x="842.180488517"><![CDATA[Robert Henry St Area]]></tspan></text><text text-anchor="middle" y="1271.10458103"><tspan dy="0" x="228.883713077"><![CDATA[Sherwood]]></tspan></text><text text-anchor="middle" y="358.668914846"><tspan dy="0" x="1183.12777092"><![CDATA[Shirley Hills]]></tspan></text><text text-anchor="middle" y="328.877333659"><tspan dy="0" x="1680.61139294"><![CDATA[Skyline / Horseshoe]]></tspan></text><text text-anchor="middle" y="802.9767184"><tspan dy="0" x="1284.49279241"><![CDATA[Smokey Glover Dr]]></tspan></text><text text-anchor="middle" y="536.854068306"><tspan dy="0" x="1485.06926386"><![CDATA[Trinity Sunnydale]]></tspan></text><text text-anchor="middle" y="1262.10271051"><tspan dy="0" x="642.309678948"><![CDATA[Triple Hill Dr]]></tspan></text><text text-anchor="middle" y="853.659953236"><tspan dy="0" x="698.826266987"><![CDATA[Unionville]]></tspan></text><text text-anchor="middle" y="1420.47824125"><tspan dy="0" x="67.48192169"><![CDATA[Village Green]]></tspan></text><text text-anchor="middle" y="340.563369318"><tspan dy="0" x="1584.5873545"><![CDATA[Walnut Creek]]></tspan></text><text text-anchor="middle" y="155.314723566"><tspan dy="0" x="643.402019968"><![CDATA[Wimbish Woods Assoc]]></tspan></text><text text-anchor="middle" y="276.70239158"><tspan dy="0" x="1311.73038716"><![CDATA[Wood Valley]]></tspan></text></g></svg>