<?xml version="1.0" encoding="utf-8"?><!DOCTYPE svg  PUBLIC '-//W3C//DTD SVG 1.1//EN'  'http://www.w3.org/Graphics/SVG/1.1/DTD/svg11.dtd'><svg enable_background="new 0 0 2000 1714" height="1714px" pretty_print="False" style="stroke-linejoin: round; stroke:#000; fill: none;" version="1.1" viewBox="0 0 2000 1714" width="2000px" xmlns="http://www.w3.org/2000/svg" xmlns:xlink="http://www.w3.org/1999/xlink"><defs><style type="text/css"><![CDATA[path { fill-rule: evenodd; }]]></style></defs><metadata><views><view h="1714.37735675" padding="0" w="2000"><proj flip="auto" id="robinson" lon0="-72.9515975211"/><bbox h="1.7" w="1.99" x="-989.69" y="-694.11"/></view></views></metadata><g class="" id="mylayer"><path d="M514.848554,719.649004L516.006290,735.972812L516.378949,738.937800L518.044638,739.267244L521.050118,737.027030L524.126475,736.121062L527.004176,737.965943L526.366146,745.131349L523.058500,751.028419L520.148110,751.423754L519.010621,750.056554L519.667310,743.714737L518.925298,742.347543L517.492437,742.182821L516.130642,744.274793L511.822905,765.458214L502.966573,780.036391L505.466541,786.526605L502.987712,803.427641L508.432496,811.977063L520.767896,823.788189L530.135679,829.372559L535.572234,836.983148L541.215235,839.174082L542.152343,844.264308L540.803731,860.292860L548.930124,866.635137L550.844965,874.970739L555.523949,874.756583L558.423190,874.311796L572.151524,872.730336L580.788971,871.791344L582.369866,871.626609L582.729325,870.226359L600.823201,861.923729L601.811925,863.455758L603.713422,862.220250L605.174717,861.248318L607.234869,859.650397L670.069272,824.661260L675.634579,821.383127L671.846952,793.000373L670.420066,785.011121L669.949109,779.871665L668.261949,776.082974L662.473365,764.436923L657.580361,753.812239L652.703328,742.215766L652.562926,737.570611L653.793987,732.859581L670.359386,731.904199L683.476842,731.739478L686.462763,731.657117L698.362609,731.294731L703.814850,731.344148L713.039369,730.569959L727.896329,729.878132L740.835091,729.927548L744.334746,729.565163L756.654770,728.790975L760.103824,728.626255L767.281457,717.029962L769.464010,714.048543L776.396676,706.059683L787.442743,694.183534L780.535320,689.884423L776.146873,688.072540L766.159708,686.326546L781.274871,662.854640L768.707247,659.230938L763.276775,657.814402L753.815129,655.459002L754.449998,654.470723L744.134140,652.016500L739.093298,650.534085L732.861168,648.689304L714.365615,643.879707L705.202998,640.898423L699.127779,639.284249L684.580600,634.787630L664.481849,628.660390L642.748742,621.940218L621.967871,615.269487L615.642422,613.292979L610.261350,611.892954L605.186627,610.641169L566.202345,599.062195L565.078166,608.055245L563.270976,623.636730L562.595772,630.620446L558.490566,641.359615L553.234988,654.882506L550.434052,657.583803L548.395697,663.266425L542.586067,669.937355L537.258517,676.048280L529.514308,694.249421L523.734315,699.948644L514.848554,719.649004Z " data-admincode1="CT" data-admincode2="009" data-admincode3="" data-admincode4="" data-cartodb-id="6" data-countrycod="US" data-created-at="2013-08-22T04:08:48+0200" data-fclass="P" data-fcode="PPLX" data-geonameid="" data-lat="41.3060441732" data-lng="-72.9494529262" data-name="West River" data-parents="4839366" data-updated-at="2013-08-22T04:08:48+0200"/><path d="M15.706629,562.036390L0.583643,597.662183L78.562306,606.441105L117.658242,610.838819L150.352181,614.083582L203.037246,619.716638L240.277113,623.323781L337.621278,633.107578L367.342688,638.575989L384.227428,640.914894L414.559636,644.966806L451.750135,650.237602L477.538499,651.950615L483.990950,652.362397L492.959774,652.625938L526.489140,653.597744L538.303335,655.804899L544.476787,656.529638L550.685359,657.649688L553.234988,654.882506L556.394682,647.009238L558.014402,642.446713L559.596208,638.378336L562.595772,630.620446L563.270976,623.636730L565.078166,608.055245L566.202345,599.062195L568.155042,590.876257L573.116140,570.419828L575.587567,560.471706L576.841295,554.855327L584.617925,523.018565L586.987479,516.068254L592.011551,495.464543L597.722131,472.835350L600.053504,463.991275L603.909479,446.813815L606.851964,432.403334L608.555978,422.093743L610.208030,418.272953L613.527022,414.106325L619.426914,418.519986L633.489763,402.578163L636.917366,398.329232L641.307198,394.475560L644.520389,392.268761L653.264227,388.233949L662.903543,384.841421L681.971811,377.529395L670.285121,360.435191L663.673127,355.445298L661.097215,354.226647L651.953025,354.127837L621.786533,363.448896L611.045654,366.874316L604.385189,369.031675L595.320974,371.913649L593.509519,362.856035L593.477787,355.494703L592.952221,345.251472L591.635430,342.007247L583.018404,333.542650L579.950218,332.538099L575.680672,331.747634L559.803184,329.672663L549.502701,328.602243L546.957993,333.740266L535.123178,347.524080L530.101022,354.786567L526.931398,354.638353L516.544408,387.229365L478.941516,381.103061L466.111087,379.719705L464.902923,379.703237L464.712032,379.703237L460.452049,379.637363L459.936832,379.670300L455.653921,379.884391L451.785895,380.164355L450.122888,380.246698L433.934972,381.135998L428.659065,381.761802L424.123389,382.124110L416.642056,382.404075L414.964464,382.321733L413.523555,382.140579L412.134269,381.926488L410.494193,381.728865L408.383744,381.300683L406.914618,380.954844L406.247994,380.740754L401.805151,379.225650L393.547250,375.816672L379.428219,369.888033L375.219660,368.323534L362.480612,363.350085L361.630912,363.070124L358.737172,361.571505L345.663071,357.125062L338.830540,354.490139L336.834197,353.502043L334.084920,352.942123L328.355243,350.982403L293.755980,338.647752L281.743703,334.333116L279.126032,333.410905L271.477090,330.561936L261.935610,326.741361L258.251181,325.242776L251.949359,321.899783L251.415741,321.570424L250.857766,321.274002L239.076466,315.329093L213.696305,332.686311L204.078596,353.979623L99.461827,419.853968L93.613011,425.255783L83.011623,433.654982L79.353357,436.306503L68.404558,441.164891L56.755511,464.304193L51.063301,478.484384L15.706629,562.036390Z " data-admincode1="CT" data-admincode2="009" data-admincode3="" data-admincode4="" data-cartodb-id="7" data-countrycod="US" data-created-at="2013-08-22T04:08:48+0200" data-fclass="P" data-fcode="PPLX" data-geonameid="4845599" data-lat="41.3203064232" data-lng="-72.975827278" data-name="Westville" data-parents="4839366" data-updated-at="2013-08-22T04:08:48+0200"/><path d="M1496.661206,470.052014L1506.711169,484.232255L1510.032708,488.613167L1517.116626,495.892755L1541.238362,504.704064L1550.493386,514.618903L1553.050928,521.519799L1568.111034,525.571412L1572.019453,534.778165L1571.393124,542.749707L1557.139234,559.845833L1549.888251,572.511576L1542.477066,606.869346L1537.348739,617.031875L1529.942446,628.792159L1493.609655,659.247409L1475.577501,682.060399L1493.853531,694.101176L1519.274543,674.862331L1602.958692,622.763767L1611.356343,615.549492L1621.169662,607.083467L1627.212869,601.450455L1657.299283,567.010448L1658.547346,565.561052L1669.376076,553.340061L1675.847906,546.471970L1682.624203,538.582760L1710.278479,507.141594L1713.952334,503.304133L1728.386497,485.862743L1732.217730,487.542642L1736.217601,489.584875L1751.800324,495.217498L1756.520669,496.469194L1762.937187,497.704422L1764.692907,498.050286L1771.634654,498.676135L1779.679672,498.676135L1782.146681,498.511438L1787.730716,497.902059L1797.004805,496.469194L1813.672105,493.307015L1818.828789,485.912152L1820.240814,484.084028L1821.973504,480.345440L1825.289274,473.790578L1842.103825,449.399480L1848.825823,439.369756L1854.229157,432.139829L1862.389158,421.797302L1887.248315,389.436157L1896.840456,376.952997L1926.535505,332.356951L1941.274231,309.828836L1951.566393,294.942008L1985.969493,246.313747L1999.416357,226.421534L1955.469935,236.664018L1942.445213,234.704438L1915.660760,236.779287L1862.228633,256.194076L1769.896964,269.861962L1764.826816,269.730223L1728.449464,268.346962L1690.857983,274.933929L1674.519785,277.881606L1669.916276,278.704981L1662.955118,280.615211L1657.782875,281.636197L1656.627357,281.751469L1645.038183,283.595833L1634.407422,286.098901L1598.203007,293.031761L1588.702044,292.982358L1571.369411,312.743641L1524.575558,330.858360L1523.604922,350.620103L1527.780060,360.929240L1540.736278,392.169949L1539.491194,418.108264L1523.964080,428.417829L1517.689250,433.753796L1507.540368,442.367138L1496.256417,460.598588L1496.661206,470.052014Z " data-admincode1="CT" data-admincode2="009" data-admincode3="" data-admincode4="" data-cartodb-id="11" data-countrycod="US" data-created-at="2013-08-22T04:08:48+0200" data-fclass="P" data-fcode="PPLX" data-geonameid="4841229" data-lat="41.3255951593" data-lng="-72.8776301708" data-name="Quinnipiac" data-parents="4839366" data-updated-at="2013-08-22T04:08:48+0200"/><path d="M831.903608,738.311858L844.630195,746.778573L856.990791,758.638637L857.677157,765.046403L871.558464,777.977318L878.815407,782.672008L887.159692,789.392850L889.686292,791.731973L895.603134,796.690267L904.102936,803.394695L912.849303,808.962522L919.540102,811.202836L927.671400,811.779388L961.062773,812.174738L973.697235,812.784236L975.964106,813.278424L980.289039,815.749366L981.498844,813.410207L981.956108,808.517754L986.784951,802.258070L996.259478,787.070203L1000.624687,778.207934L1005.160138,768.653871L1038.654249,710.342366L1058.381685,675.521191L1062.423614,666.774837L1082.802187,654.124826L1099.230725,643.517341L1101.432874,641.524327L1136.180742,619.568400L1119.321252,598.897488L1104.371375,587.960953L1081.191123,612.881207L1047.507536,593.462152L1109.432211,506.400453L1052.710717,496.535073L1054.643149,490.507174L1050.677956,486.010970L1043.340398,484.841629L1029.526092,480.987752L1023.329848,478.237341L1015.590112,499.400803L1010.982376,513.531891L1003.690126,542.716767L998.492178,562.398738L977.001329,564.078717L978.665723,575.822145L978.869902,578.885662L972.768578,577.897430L950.638768,572.313931L950.475395,573.697451L949.802428,579.165661L933.740266,582.015067L893.666841,602.142227L891.818191,612.024721L891.335197,617.328352L892.676678,618.613085L891.464960,620.704896L888.640547,621.759038L886.391490,621.462560L883.702983,617.987189L882.554902,619.337806L877.657139,624.295570L848.955135,654.915448L827.034441,676.838914L817.590519,688.023125L802.890759,703.127699L791.604322,715.366297L831.903608,738.311858Z " data-admincode1="CT" data-admincode2="009" data-admincode3="" data-admincode4="" data-cartodb-id="12" data-countrycod="US" data-created-at="2013-08-22T04:08:48+0200" data-fclass="P" data-fcode="PPLX" data-geonameid="" data-lat="41.310071733" data-lng="-72.9255854985" data-name="Downtown" data-parents="4839366" data-updated-at="2013-08-22T04:08:48+0200"/><path d="M1122.133610,994.540332L1071.089267,1116.441985L1088.426898,1114.876761L1114.999784,1114.860285L1113.644398,1126.393552L1161.460363,1118.155496L1167.905046,1091.777526L1196.057154,1086.851271L1214.665063,1086.834795L1186.427052,1128.008216L1167.653513,1146.148584L1162.809775,1156.034430L1182.446844,1160.960899L1184.636048,1157.533788L1193.524511,1143.924277L1196.726228,1144.649236L1209.533113,1147.549075L1225.433762,1151.338645L1241.657178,1154.848125L1261.540746,1157.879794L1273.238242,1159.659255L1276.167964,1160.087644L1290.501959,1161.685866L1294.740488,1149.081378L1295.115337,1147.631457L1300.628044,1125.718030L1301.996324,1120.280910L1308.056556,1123.839750L1315.850380,1129.243929L1318.573660,1131.023358L1320.547744,1132.127264L1323.101277,1133.000503L1325.326936,1133.791362L1327.091444,1132.934599L1328.911043,1130.940977L1338.992680,1121.220048L1339.894633,1117.430549L1343.480620,1102.256168L1350.139374,1081.562565L1352.021495,1067.690093L1353.396641,1065.301140L1381.226556,1028.874172L1383.253968,1026.534703L1385.584106,1022.547728L1386.800154,1021.658074L1387.662582,1020.092942L1397.788800,1008.807568L1410.256612,996.484359L1437.280682,968.806910L1464.369425,941.393528L1442.547649,913.371078L1412.845832,874.674215L1402.071600,863.669913L1398.988202,860.523488L1396.097318,853.423461L1396.220577,850.145269L1399.800477,841.974528L1397.580827,842.468725L1397.466666,839.585912L1395.936188,831.530536L1395.422300,828.828947L1384.711950,823.804662L1376.984672,819.505204L1374.533531,817.940271L1373.660568,815.798785L1373.116526,813.064276L1371.683900,805.338490L1369.812923,795.603065L1365.642668,796.014884L1313.304829,812.685399L1215.332830,842.303992L1202.400517,842.485198L1196.787888,842.551091L1193.736929,846.109313L1182.303091,858.348998L1198.096039,875.860312L1183.857520,893.421238L1157.450248,930.108708L1152.738592,936.220623L1154.191146,942.332560L1132.923290,994.869828L1122.133610,994.540332Z " data-admincode1="CT" data-admincode2="009" data-admincode3="" data-admincode4="" data-cartodb-id="15" data-countrycod="US" data-created-at="2013-08-22T04:08:48+0200" data-fclass="P" data-fcode="PPLX" data-geonameid="" data-lat="41.2907155372" data-lng="-72.8957043658" data-name="Annex" data-parents="4839366" data-updated-at="2013-08-22T04:08:48+0200"/><path d="M608.555978,422.093743L604.893391,441.609558L600.053504,463.991275L588.594440,508.821515L586.987479,516.068254L583.757984,526.543142L576.841295,554.855327L573.116140,570.419828L567.592692,592.605677L566.202345,599.062195L605.186627,610.641169L610.418687,612.205901L615.746208,613.770635L621.967871,615.269487L642.748742,621.940218L664.481849,628.660390L684.580600,634.787630L699.127779,639.284249L702.879326,639.992509L714.365615,643.879707L725.851740,626.667395L735.334270,611.382357L746.084939,595.175105L756.627327,579.231543L759.901303,574.488034L772.948116,555.497668L759.505382,549.074265L755.645756,547.147248L748.214815,543.161462L747.724872,542.864999L731.052843,533.625260L712.996980,524.616153L700.517957,518.291691L694.733370,515.952964L692.309468,512.840157L684.180270,503.748817L681.781735,500.306638L676.132494,493.652878L667.917351,484.281663L665.070401,481.086569L659.547961,474.169376L657.658952,472.011877L656.779462,470.397872L652.172155,464.650050L649.188941,461.454994L645.663778,455.608388L644.130812,453.236813L640.574053,447.571398L633.468939,436.257096L629.067002,428.747210L626.108807,425.140500L624.778461,423.822983L619.426914,418.519986L615.538598,415.802619L613.527022,414.106325L610.208030,418.272953L608.555978,422.093743Z " data-admincode1="CT" data-admincode2="009" data-admincode3="" data-admincode4="" data-cartodb-id="19" data-countrycod="US" data-created-at="2013-08-22T04:08:48+0200" data-fclass="P" data-fcode="PPLX" data-geonameid="" data-lat="41.3169675009" data-lng="-72.9510238944" data-name="Edgewood" data-parents="4839366" data-updated-at="2013-08-22T04:08:48+0200"/><path d="M523.334695,921.031488L525.022396,927.884702L532.803548,933.024632L536.405249,935.413387L541.390061,938.708228L542.148794,942.250189L544.567696,945.215558L546.509408,944.737804L549.001658,945.923952L566.190488,960.602616L580.722567,945.462672L585.466375,945.133186L589.790245,946.978308L587.833872,961.525185L590.815551,965.907396L598.298604,976.879450L611.932665,996.879755L616.244516,1007.077700L617.886788,1010.965786L634.784845,1017.473410L648.396466,1031.246595L648.957245,1034.475732L648.979797,1040.538620L636.656294,1049.006930L631.562136,1060.622098L630.827787,1071.117010L629.645273,1100.888668L630.106671,1109.802150L630.619481,1119.901960L631.109653,1129.441643L632.197833,1136.130989L635.958926,1142.359026L641.651673,1134.400983L644.444299,1129.705262L646.767117,1130.364310L649.496139,1130.150119L650.827086,1129.705262L653.380397,1128.057644L654.022203,1127.761073L654.984112,1127.612788L656.711379,1127.711645L658.893536,1128.551929L664.060655,1130.364310L665.270488,1131.847168L666.169292,1132.061359L674.517353,1131.847168L677.022275,1131.567073L703.879174,1126.558313L716.453756,1133.659552L711.632554,1143.891324L705.825914,1153.167528L706.347002,1156.100336L711.462582,1157.105400L723.322142,1155.358895L738.200172,1150.531301L743.661126,1149.295571L750.184262,1147.812697L753.672407,1158.538854L760.585484,1153.711250L757.234928,1144.830475L760.069677,1141.601115L782.684789,1129.491072L808.737139,1114.942665L820.210816,1110.938993L805.790819,1104.859363L800.748151,1105.814967L793.062334,1107.182471L780.563281,1109.555010L782.579929,1091.283253L781.822316,1090.129947L762.857427,1093.556913L763.456341,1083.308989L765.111103,1072.665716L784.574119,1069.090515L786.037599,1049.122258L788.375343,1028.478769L789.384595,1009.450091L791.189508,993.222349L791.439274,989.218982L793.526920,968.971656L804.512432,966.681697L805.436494,955.940354L805.639419,953.551569L807.061075,936.994910L807.251450,934.770894L809.360379,919.878305L825.711001,917.193041L828.944657,915.298533L855.014416,892.218654L924.723129,828.202970L934.035888,817.627284L935.997747,811.713496L919.540102,811.202836L912.849303,808.962522L904.102936,803.394695L887.165043,789.376377L878.357974,782.359028L871.558464,777.977318L859.605756,766.413616L857.677157,765.046403L856.990791,758.638637L844.630195,746.778573L831.903608,738.311858L791.604322,715.366297L786.846228,721.279730L784.400400,724.903572L781.973434,729.812244L768.046601,728.313285L762.208203,728.445062L756.654770,728.790975L744.334746,729.565163L740.835091,729.927548L727.896329,729.878132L713.039369,730.569959L699.541616,730.981762L698.690790,730.998234L695.384971,731.393564L683.476842,731.739478L669.171587,732.118336L653.793987,732.859581L652.562926,737.570611L652.703328,742.215766L657.425394,753.449848L662.473365,764.436923L669.949109,779.871665L670.551329,784.187489L671.091113,788.107981L675.634579,821.383127L670.069272,824.661260L607.234869,859.650397L603.713422,862.220250L601.811925,863.455758L600.823201,861.923729L582.729325,870.226359L581.670917,871.511294L580.788971,871.791344L572.151524,872.730336L558.423190,874.311796L550.844965,874.970739L561.638533,892.581076L559.994177,896.551254L547.248689,898.297476L523.334695,921.031488Z " data-admincode1="CT" data-admincode2="009" data-admincode3="" data-admincode4="" data-cartodb-id="20" data-countrycod="US" data-created-at="2013-08-22T04:08:48+0200" data-fclass="P" data-fcode="PPLX" data-geonameid="" data-lat="41.2947150863" data-lng="-72.9372298344" data-name="Hill" data-parents="4839366" data-updated-at="2013-08-22T04:08:48+0200"/><path d="M744.655884,0.000000L730.929263,14.225550L725.382971,21.585345L711.593968,22.062827L689.386185,22.770818L684.539873,30.492881L678.875611,40.684742L671.596759,52.276209L667.285182,60.031341L663.879447,67.391341L653.881954,67.654787L650.477788,63.999480L647.829031,63.801897L642.396666,64.658094L635.534757,65.382569L628.350129,83.132303L620.372009,102.314746L617.705385,108.703455L612.582156,103.878990L604.330924,95.053383L598.548101,87.314551L594.088064,81.584545L591.100890,59.652640L592.700846,51.140110L593.814158,40.898788L587.408301,39.762697L527.297628,47.172002L523.336187,49.246613L521.861300,49.296009L526.302541,78.900670L530.659133,105.377372L534.860158,123.374529L534.947408,145.883603L508.424855,157.327618L509.042915,168.870512L520.818989,176.461532L522.999788,189.947618L523.103122,199.597072L523.228484,203.944284L517.459585,214.795900L505.811749,235.330186L502.590864,236.219407L498.384919,236.993359L498.403750,245.144579L511.533182,241.670014L525.188511,238.129587L528.306141,237.306233L533.266233,255.074302L532.008966,288.091478L532.065233,298.894250L533.092291,308.725494L532.242139,313.599968L521.207221,324.254698L529.486642,329.063347L531.584914,329.277431L550.641724,328.454031L565.384112,330.413724L579.121951,332.192270L583.018404,333.542650L587.777740,338.400730L591.249783,341.809630L592.584740,343.950488L593.020333,345.712581L593.756514,357.948476L593.627994,361.653847L594.658835,366.363796L595.320974,371.913649L651.953025,354.127837L661.097215,354.226647L663.673127,355.445298L670.285121,360.435191L672.489814,363.465364L681.971811,377.529395L685.813128,375.948420L705.322831,364.848706L708.807300,361.933808L744.766345,321.817443L752.454565,311.640296L767.125277,289.474755L767.613209,289.441820L770.187363,284.715626L772.993919,279.149603L777.366730,275.642030L797.836997,266.074464L838.415571,247.087704L868.488477,232.563723L819.283176,227.113147L800.599072,224.824240L764.581884,219.488957L754.634327,218.550345L726.245972,214.450096L711.644441,193.043341L698.409852,173.596371L698.153510,166.845148L705.916638,159.583498L711.262605,159.830493L715.558642,158.611988L718.780858,156.043250L727.406208,147.431422L733.340740,140.844968L736.497373,132.447279L748.443259,125.152850L755.138231,120.921108L763.230280,116.376526L775.789801,108.621127L797.188892,106.085399L803.980438,81.205838L808.346824,64.822747L812.439388,54.054453L802.345730,46.365209L796.556810,46.348744L795.057572,46.431070L792.750279,45.854790L788.913252,47.715352L783.597043,52.276209L780.920118,48.983170L804.929051,21.601809L785.369631,3.753953L777.690094,2.552028L771.890709,2.107481L752.323945,0.609193L744.655884,0.000000Z " data-admincode1="CT" data-admincode2="009" data-admincode3="" data-admincode4="" data-cartodb-id="21" data-countrycod="US" data-created-at="2013-08-22T04:08:48+0200" data-fclass="P" data-fcode="PPLX" data-geonameid="" data-lat="41.3387426707" data-lng="-72.9596225973" data-name="West Rock" data-parents="4839366" data-updated-at="2013-08-22T04:08:48+0200"/><path d="M714.745425,643.550283L732.861168,648.689304L739.260277,650.188189L739.637242,650.287016L748.590964,652.988306L753.807169,654.602493L753.815129,655.459002L768.707247,659.230938L781.274871,662.854640L766.159708,686.326546L776.146873,688.072540L780.535320,689.884423L787.442743,694.183534L776.396676,706.059683L769.464010,714.048543L767.281457,717.029962L763.075398,724.014083L760.103824,728.626255L768.046601,728.313285L772.981663,728.527422L778.045828,728.889808L782.072715,729.548690L784.400400,724.903572L788.886139,718.611270L791.604322,715.366297L817.590519,688.023125L827.034441,676.838914L848.955135,654.915448L878.868549,623.043774L883.702983,617.987189L880.923667,615.714201L880.027934,615.071836L876.495118,612.222372L870.532809,607.659946L869.708195,607.050525L869.529920,606.885817L860.881927,600.182206L853.290666,595.471577L850.738979,593.840978L839.271565,588.092718L815.036117,576.151555L810.794633,574.685680L799.017576,567.751617L784.993121,560.768173L772.948116,555.497668L759.497140,574.850385L754.524880,582.426831L746.084939,595.175105L735.334270,611.382357L725.655479,626.683866L714.745425,643.550283Z " data-admincode1="CT" data-admincode2="009" data-admincode3="" data-admincode4="" data-cartodb-id="24" data-countrycod="US" data-created-at="2013-08-22T04:08:48+0200" data-fclass="P" data-fcode="PPLX" data-geonameid="" data-lat="41.3120679047" data-lng="-72.9388094984" data-name="Dwight" data-parents="4839366" data-updated-at="2013-08-22T04:08:48+0200"/><path d="M792.677559,531.220630L772.948116,555.497668L784.993121,560.768173L799.017576,567.751617L810.412262,574.142154L815.036117,576.151555L839.271565,588.092718L851.218246,594.170392L853.290666,595.471577L860.881927,600.182206L869.716389,606.605813L869.708195,607.050525L870.532809,607.659946L880.027934,615.071836L880.923667,615.714201L883.238252,617.361294L886.391490,621.462560L888.640547,621.759038L891.464960,620.704896L892.676678,618.613085L891.335197,617.328352L891.818191,612.024721L893.666841,602.142227L933.740266,582.015067L949.462534,579.330366L950.418755,572.906868L950.453305,572.758633L973.052508,577.946841L978.869902,578.885662L977.001329,564.078717L998.492178,562.398738L1006.871400,529.952437L1010.982376,513.531891L1015.590112,499.400803L1017.484750,494.328135L1023.329848,478.237341L983.020327,474.136437L978.394170,475.783385L972.047704,474.795216L966.344542,473.757639L960.813693,471.896591L912.170803,456.942400L907.118795,455.789550L905.719178,455.229594L902.580628,455.740142L903.388355,453.088590L895.500742,452.940366L868.377390,451.606357L859.238652,449.728865L855.834053,446.780876L849.278648,441.823657L846.376226,440.769632L835.579004,442.021286L834.369652,450.519387L833.150404,454.142622L830.130452,460.829159L824.320729,469.804972L809.059926,490.820098L817.414014,501.904204L792.677559,531.220630Z " data-admincode1="CT" data-admincode2="009" data-admincode3="" data-admincode4="" data-cartodb-id="25" data-countrycod="US" data-created-at="2013-08-22T04:08:48+0200" data-fclass="P" data-fcode="PPLX" data-geonameid="" data-lat="41.3185080524" data-lng="-72.9339378203" data-name="Dixwell" data-parents="4839366" data-updated-at="2013-08-22T04:08:48+0200"/><path d="M1254.283126,573.911567L1253.551740,572.511576L1255.528923,568.986899L1266.909534,563.716368L1272.207762,559.203490L1266.985851,556.222362L1249.790635,554.838857L1244.328125,555.283554L1238.097916,556.831763L1173.626313,596.822176L1136.180742,619.568400L1103.166313,640.470172L1085.129110,652.461225L1062.423614,666.774837L1054.749696,682.208643L1039.440894,709.222279L1006.426449,766.183001L999.114666,781.387144L993.462985,792.110846L988.022755,800.462534L981.956108,808.517754L981.498844,813.410207L980.534315,815.288123L1025.074428,834.429808L1030.798120,837.675021L1038.297703,840.113054L1045.426154,840.376626L1056.779060,837.164353L1062.508422,833.589677L1068.408559,828.565378L1077.392372,818.665082L1090.590892,808.468335L1098.746181,803.806516L1109.949543,798.535218L1118.192892,797.003250L1128.900220,795.652483L1138.169469,794.614700L1143.555952,795.454810L1150.135145,797.283287L1155.423977,798.634054L1163.065313,802.356907L1166.175615,804.663104L1172.651707,810.840432L1175.299044,814.530367L1180.806919,821.547857L1184.924555,826.967489L1196.787888,842.551091L1199.132944,819.076907L1204.060247,772.327237L1206.423248,748.887022L1206.821580,747.618658L1196.470858,741.952210L1183.573053,730.273462L1197.559795,687.594863L1203.489765,685.124118L1208.174445,670.662100L1214.655654,655.623715L1213.611560,654.388366L1218.676868,638.378336L1222.314080,624.246157L1223.915074,620.326063L1234.472395,611.168236L1236.524061,607.791712L1282.967797,597.596300L1290.143488,564.770473L1290.676378,560.109359L1255.509606,574.669210L1254.283126,573.911567Z " data-admincode1="CT" data-admincode2="009" data-admincode3="" data-admincode4="" data-cartodb-id="26" data-countrycod="US" data-created-at="2013-08-22T04:08:48+0200" data-fclass="P" data-fcode="PPLX" data-geonameid="" data-lat="41.3071356799" data-lng="-72.9125797502" data-name="Wooster Square/Mill River" data-parents="4839366" data-updated-at="2013-08-22T04:08:48+0200"/><path d="M839.660984,352.382203L840.669403,354.144305L844.485930,361.357417L846.904437,368.718776L847.927884,374.416853L848.193554,385.253135L848.197440,385.911878L847.306216,392.005263L846.361940,398.345701L844.058560,404.966133L841.890088,409.495050L839.187932,416.922503L838.521777,419.096398L836.607089,425.486349L835.579004,442.021286L838.901627,441.280175L846.376226,440.769632L849.278648,441.823657L855.834053,446.780876L859.238652,449.728865L861.277178,450.420572L868.377390,451.606357L903.388355,453.088590L902.453569,456.382444L905.719178,455.229594L907.084722,456.020120L911.060485,456.876523L912.170803,456.942400L960.813693,471.896591L966.344542,473.757639L972.815210,474.992850L978.394170,475.783385L978.972618,470.397872L980.169330,467.598070L1021.185918,408.259890L1030.432654,393.536847L1038.311219,381.218341L1038.778676,380.493726L1038.867785,380.345509L1044.445143,371.287848L1054.300337,355.659385L1058.900524,349.187368L1060.007839,347.375867L1063.343428,341.941375L1074.296926,324.781673L1077.925237,319.495467L1082.862023,311.360343L1091.381444,297.115740L1095.734924,290.396941L1098.237484,285.176718L1102.424090,274.653983L1103.815909,271.129952L1107.314016,261.760020L1079.374422,260.426168L1064.342920,258.433625L1049.389306,257.165644L1034.194712,255.255442L1017.431208,253.180569L988.948965,249.952994L971.458023,247.976932L967.823723,245.276316L957.241014,244.403557L945.933294,243.119120L935.876881,243.184989L913.881289,241.225401L900.982299,239.677494L897.399909,246.873631L916.105752,248.635619L910.974689,267.589462L908.099210,278.145086L906.839257,280.467003L902.923720,291.286192L892.270738,302.237196L886.201902,307.605684L881.736618,312.990658L877.181651,319.824825L873.859736,325.802686L865.765429,335.469412L862.737369,338.071368L839.660984,352.382203Z " data-admincode1="CT" data-admincode2="009" data-admincode3="" data-admincode4="" data-cartodb-id="32" data-countrycod="US" data-created-at="2013-08-22T04:08:48+0200" data-fclass="P" data-fcode="PPLX" data-geonameid="4839356" data-lat="41.3290431949" data-lng="-72.9335417026" data-name="Newhallville" data-parents="4839366" data-updated-at="2013-08-22T04:08:48+0200"/><path d="M963.667278,1712.377357L967.020083,1711.207117L972.368794,1707.581027L974.791632,1706.460238L980.594018,1703.328624L980.941610,1702.718784L985.079098,1701.021123L989.646300,1694.922743L988.165069,1691.115389L987.614431,1686.961922L988.630788,1682.182151L992.904266,1678.506683L998.869178,1675.210306L1000.085006,1675.078451L1004.101410,1674.386213L1019.951713,1678.935213L1028.893029,1678.704466L1056.416544,1665.535480L1059.949946,1660.228360L1060.412593,1659.684464L1061.361651,1658.102221L1065.993166,1656.058493L1066.666317,1655.959603L1072.023656,1655.086075L1079.574162,1654.558662L1085.502317,1657.607770L1089.827476,1659.667982L1092.014811,1658.810933L1093.640554,1657.245173L1097.055998,1650.701960L1098.434545,1647.751755L1102.113106,1644.059885L1109.947560,1637.813393L1118.655403,1633.923770L1117.300156,1634.780805L1119.285837,1633.956733L1124.308536,1634.368769L1128.933248,1635.209322L1133.751309,1636.000432L1137.533268,1636.873950L1141.777839,1637.582653L1145.464434,1636.939875L1148.382984,1636.478394L1149.894869,1634.632472L1169.869745,1617.310571L1184.494149,1604.883749L1185.673409,1602.296214L1185.638852,1597.813360L1189.371900,1594.879735L1192.185773,1591.204470L1195.512493,1589.061943L1196.897331,1583.145288L1197.626187,1572.811795L1198.334144,1569.153063L1288.194632,1285.379907L1300.117652,1245.833676L1302.000580,1240.742170L1304.443188,1232.915454L1306.421857,1224.248440L1305.647587,1222.304136L1308.271575,1217.871789L1312.306099,1206.650923L1317.536384,1178.244854L1329.627752,1146.642874L1338.992680,1121.220048L1336.225766,1123.905654L1328.911043,1130.940977L1327.091444,1132.934599L1325.326936,1133.791362L1323.101277,1133.000503L1320.547744,1132.127264L1318.573660,1131.023358L1315.850380,1129.243929L1308.056556,1123.839750L1301.996324,1120.280910L1300.628044,1125.718030L1295.115337,1147.631457L1294.740488,1149.081378L1290.501959,1161.685866L1279.034282,1160.417174L1273.238242,1159.659255L1261.540746,1157.879794L1241.657178,1154.848125L1228.681759,1152.047131L1225.433762,1151.338645L1209.249841,1147.203071L1196.726228,1144.649236L1193.450974,1143.940753L1184.636048,1157.533788L1182.446844,1160.960899L1162.809775,1156.034430L1167.653513,1146.148584L1186.427052,1128.008216L1214.665063,1086.834795L1196.057154,1086.851271L1167.905046,1091.777526L1161.460363,1118.155496L1113.644398,1126.393552L1114.999784,1114.860285L1096.705387,1114.876761L1090.580461,1146.280395L1093.055355,1148.867185L1098.480033,1184.275335L1099.177345,1198.774944L1096.787071,1204.756071L1091.375641,1210.506542L1085.904392,1237.759775L1080.962950,1250.892243L1077.959850,1256.576971L1072.690462,1261.932169L1054.865410,1281.062729L1038.673815,1299.699181L1030.393985,1313.244113L1028.905419,1314.974314L1026.114660,1316.556213L1025.714691,1318.714849L1039.902036,1325.899337L1051.050458,1332.655423L1056.256993,1337.714266L1057.087863,1339.147883L1065.372170,1344.305618L1069.990635,1350.715734L1077.118353,1355.066058L1093.406521,1373.357327L1095.381942,1378.581088L1094.766282,1386.243735L1095.746354,1388.732043L1101.554907,1396.773754L1104.327020,1403.579579L1109.788234,1407.518072L1120.907081,1428.001690L1126.595899,1444.283306L1128.236143,1458.917129L1132.118336,1492.222764L1121.231273,1530.868729L1111.821743,1541.679880L1102.458012,1555.507055L1096.539867,1559.248159L1090.076537,1560.335882L1069.907488,1565.708588L1070.656543,1558.555972L1063.870850,1561.522491L1059.495639,1562.775023L1057.617583,1561.835624L1054.480104,1562.972791L1053.308507,1564.736226L1051.297323,1565.428416L1050.179009,1564.291247L1043.434865,1566.961124L1040.125347,1564.966956L1038.052389,1566.186529L1036.626762,1569.070659L1031.516944,1572.548102L1025.845294,1577.212174L1019.153056,1577.953812L1013.013314,1580.063362L1011.810575,1580.112804L1011.173143,1579.470051L1010.316374,1578.283429L1010.111545,1572.811795L1011.989125,1569.795813L1014.219995,1567.752199L1018.706291,1565.609704L1024.614545,1567.834603L1023.660774,1565.263609L1021.783372,1564.027556L1017.033566,1563.994594L1014.702587,1565.378974L1007.746857,1573.668797L1003.919707,1581.101657L1000.208917,1588.007162L989.446405,1596.132293L987.810454,1597.813360L982.551983,1599.939418L972.149249,1605.691325L971.515198,1609.795134L968.840003,1616.535952L966.196750,1620.062944L960.887601,1623.903089L954.390610,1627.199359L950.131515,1632.934884L946.918644,1638.472653L941.978863,1652.119379L939.881875,1655.728859L938.090133,1665.848633L933.307594,1670.463535L933.593036,1674.171949L932.299947,1675.721244L932.497275,1682.775501L930.797618,1687.390453L926.284906,1692.730629L930.360731,1691.181317L933.419884,1690.917604L937.722629,1691.741706L947.070360,1696.867629L953.535796,1701.416694L961.355921,1705.405377L962.334621,1712.196052L963.667278,1712.377357Z " data-admincode1="CT" data-admincode2="009" data-admincode3="" data-admincode4="" data-cartodb-id="33" data-countrycod="US" data-created-at="2013-08-22T04:08:48+0200" data-fclass="P" data-fcode="PPLX" data-geonameid="" data-lat="41.2667192539" data-lng="-72.8949495297" data-name="East Shore" data-parents="4839366" data-updated-at="2013-08-22T04:08:48+0200"/><path d="M809.360379,919.878305L807.668942,931.805545L807.061075,936.994910L806.582280,943.172748L805.436494,955.940354L804.827750,963.106733L804.512432,966.681697L793.526920,968.971656L791.189508,993.222349L789.384595,1009.450091L788.375343,1028.478769L786.037599,1049.122258L784.574119,1069.090515L765.111103,1072.665716L763.456341,1083.308989L762.857427,1093.556913L781.822316,1090.129947L782.579929,1091.283253L780.563281,1109.555010L800.748151,1105.814967L805.790819,1104.859363L821.473135,1101.251138L861.423145,1061.660053L886.411049,1028.544669L919.028871,993.815441L942.625528,973.222090L973.846299,951.030992L986.850389,935.676974L991.344418,930.026338L1003.697635,920.751429L1005.731006,915.875122L1013.376324,907.407516L1021.982290,897.325522L1035.898939,886.008065L1042.508071,884.805487L1047.658236,890.867808L1067.027549,883.882962L1091.489524,882.927490L1098.675870,882.845122L1106.666034,878.397244L1108.225805,870.275780L1111.376016,870.275780L1119.073492,851.232508L1132.062048,850.458262L1127.723240,872.219656L1128.117024,873.652854L1129.503446,874.212955L1133.080522,872.730336L1134.406386,871.082982L1135.920345,867.722387L1147.561039,866.437455L1155.609354,863.406338L1164.451963,858.348998L1174.217308,850.029956L1182.303091,858.348998L1193.736929,846.109313L1196.787888,842.551091L1184.924555,826.967489L1180.806919,821.547857L1174.936500,814.135017L1173.089977,810.708649L1168.310557,806.277443L1163.065313,802.356907L1155.423977,798.634054L1150.482992,797.513905L1143.555952,795.454810L1138.169469,794.614700L1118.192892,797.003250L1109.949543,798.535218L1098.746181,803.806516L1090.590892,808.468335L1080.414252,816.078825L1077.392372,818.665082L1071.682721,824.908356L1068.408559,828.565378L1062.508422,833.589677L1056.779060,837.164353L1048.343242,839.750644L1045.426154,840.376626L1038.297703,840.113054L1032.671125,838.416315L1025.505989,834.528647L1014.444454,830.377418L996.186879,822.602131L980.012841,815.634055L976.569154,813.640829L973.819968,812.784236L966.431449,812.355940L952.181617,812.059428L935.997747,811.713496L934.035888,817.627284L924.723129,828.202970L855.014416,892.218654L828.944657,915.298533L825.711001,917.193041L809.360379,919.878305Z " data-admincode1="CT" data-admincode2="009" data-admincode3="" data-admincode4="" data-cartodb-id="35" data-countrycod="US" data-created-at="2013-08-22T04:08:48+0200" data-fclass="P" data-fcode="PPLX" data-geonameid="" data-lat="41.2942760392" data-lng="-72.9214278581" data-name="Long Wharf" data-parents="4839366" data-updated-at="2013-08-22T04:08:48+0200"/><path d="M239.076466,315.329093L265.814194,328.816327L294.084620,338.894773L323.964148,349.434391L328.539265,351.212959L339.792697,354.885377L374.832047,368.257660L396.074863,377.183556L405.838468,380.658411L407.933785,381.300683L410.397252,381.942956L411.751465,382.222921L416.642056,382.404075L424.123389,382.124110L432.117093,381.317152L446.168167,380.625474L450.357602,380.279635L454.119464,380.032607L457.554558,379.867922L460.987752,379.373867L465.517452,379.867922L471.301108,380.279635L474.478085,380.279635L478.054283,380.938376L516.544408,387.229365L522.089768,370.019780L526.931398,354.638353L530.101022,354.786567L535.123178,347.524080L545.068684,336.194007L548.455832,331.023040L549.502701,328.602243L529.486642,329.063347L528.222067,328.717519L523.665112,325.835622L521.207221,324.254698L532.200291,313.435290L533.092291,308.725494L532.133861,296.588774L532.008966,288.091478L533.296416,255.107236L528.306141,237.306233L525.188511,238.129587L511.533182,241.670014L498.403750,245.144579L498.384919,236.993359L505.811749,235.330186L523.228484,203.944284L522.999788,189.947618L520.572650,176.296868L509.042915,168.870512L508.424855,157.327618L534.947408,145.883603L534.860158,123.374529L516.425223,129.911514L474.946276,144.829770L430.198032,166.186494L422.999892,171.208740L399.895496,180.528753L372.416259,191.643678L359.457202,197.818670L325.952170,215.421640L279.704109,286.065966L239.076466,315.329093Z " data-admincode1="CT" data-admincode2="009" data-admincode3="" data-admincode4="" data-cartodb-id="38" data-countrycod="US" data-created-at="2013-08-22T04:08:48+0200" data-fclass="P" data-fcode="PPLX" data-geonameid="" data-lat="41.3336987549" data-lng="-72.9749507949" data-name="Amity" data-parents="4839366" data-updated-at="2013-08-22T04:08:48+0200"/><path d="M1369.812923,795.603065L1371.683900,805.338490L1373.685965,815.930568L1375.054930,818.434460L1384.711950,823.804662L1395.422300,828.828947L1397.466666,839.585912L1397.580827,842.468725L1399.800477,841.974528L1396.220577,850.145269L1395.955592,851.759654L1396.988300,856.223932L1399.210947,860.803536L1402.071600,863.669913L1412.845832,874.674215L1446.714136,918.181482L1464.369425,941.393528L1506.562174,887.276539L1526.977970,861.182424L1566.615420,811.038107L1574.153309,802.982875L1591.151662,784.731086L1658.239692,717.079378L1661.635371,712.038970L1685.139484,685.008816L1691.607674,671.304487L1729.971035,618.003660L1762.985143,571.605701L1807.865882,504.506427L1812.521764,495.546891L1813.672105,493.307015L1797.004805,496.469194L1787.730716,497.902059L1782.146681,498.511438L1779.679672,498.676135L1771.634654,498.676135L1764.692907,498.050286L1762.937187,497.704422L1756.520669,496.469194L1751.800324,495.217498L1735.231700,488.926090L1728.386497,485.862743L1713.952334,503.304133L1704.058397,514.157747L1681.575131,539.587438L1675.847906,546.471970L1669.376076,553.340061L1658.547346,565.561052L1650.322498,575.097443L1627.212869,601.450455L1621.169662,607.083467L1602.958692,622.763767L1569.946220,643.039676L1559.864700,649.644637L1519.274543,674.862331L1493.853531,694.101176L1475.577501,682.060399L1405.759899,771.454194L1388.136515,788.981033L1369.812923,795.603065Z " data-admincode1="CT" data-admincode2="009" data-admincode3="" data-admincode4="" data-cartodb-id="41" data-countrycod="US" data-created-at="2013-08-22T04:08:48+0200" data-fclass="P" data-fcode="PPLX" data-geonameid="" data-lat="41.3069927102" data-lng="-72.8801108185" data-name="Fair Haven Heights" data-parents="4839366" data-updated-at="2013-08-22T04:08:48+0200"/><path d="M1081.191123,612.881207L1104.371375,587.960953L1119.321252,598.897488L1136.180742,619.568400L1215.772770,570.436298L1238.097916,556.831763L1244.328125,555.283554L1249.790635,554.838857L1263.003539,555.678842L1266.985851,556.222362L1272.384386,553.373001L1279.239664,549.271907L1293.304866,541.530915L1393.895623,519.461056L1463.708889,497.687952L1493.847033,489.453118L1506.711169,484.232255L1496.661206,470.052014L1496.256417,460.598588L1507.540368,442.367138L1523.964080,428.417829L1539.491194,418.108264L1540.736278,392.169949L1527.793695,360.929240L1508.954891,368.422344L1508.012932,353.913750L1487.280605,357.668515L1461.294288,363.827668L1443.168513,367.071936L1427.529643,370.299743L1373.141139,381.827676L1311.783157,322.492628L1306.616151,317.585191L1303.541777,314.670378L1299.234377,310.767502L1281.964096,294.694993L1268.964438,283.184144L1258.932251,297.428626L1254.980355,302.830034L1250.747518,308.676090L1249.933381,309.795901L1241.366026,322.262077L1239.227484,325.358051L1232.340078,335.551752L1228.195936,341.167373L1225.438066,345.119727L1209.506342,366.857847L1186.844522,399.020918L1172.876989,418.536455L1169.388415,423.394790L1159.494881,437.426401L1150.491461,450.272349L1136.832050,469.261481L1131.849322,475.948080L1120.904397,491.034203L1119.787014,492.500002L1109.432211,506.400453L1098.938376,521.190400L1088.152015,536.293414L1060.362131,575.476264L1047.507536,593.462152L1081.191123,612.881207Z " data-admincode1="CT" data-admincode2="009" data-admincode3="" data-admincode4="" data-cartodb-id="48" data-countrycod="US" data-created-at="2013-08-22T04:08:48+0200" data-fclass="P" data-fcode="PPLX" data-geonameid="4833545" data-lat="41.3226092513" data-lng="-72.9064918175" data-name="East Rock" data-parents="4839366" data-updated-at="2013-08-22T04:08:48+0200"/><path d="M978.972618,470.397872L978.394170,475.783385L983.020327,474.136437L1023.329848,478.237341L1029.127237,480.872465L1043.340398,484.841629L1050.677956,486.010970L1054.643149,490.507174L1052.872846,496.288028L1109.432211,506.400453L1119.787014,492.500002L1120.904397,491.034203L1131.849322,475.948080L1150.491461,450.272349L1159.494881,437.426401L1169.388415,423.394790L1172.876989,418.536455L1186.844522,399.020918L1209.506342,366.857847L1225.438066,345.119727L1228.195936,341.167373L1233.101602,334.300180L1239.227484,325.358051L1241.366026,322.262077L1249.933381,309.795901L1250.747518,308.676090L1254.980355,302.830034L1258.932251,297.428626L1268.964438,283.184144L1261.464229,276.564208L1219.082401,271.508703L1197.161361,270.240712L1188.631466,268.840983L1185.133707,268.528103L1172.730622,267.424788L1159.651175,266.305007L1107.314016,261.760020L1103.815909,271.129952L1102.424090,274.653983L1098.237484,285.176718L1097.423254,287.218696L1094.579833,292.438926L1091.381444,297.115740L1082.862023,311.360343L1077.925237,319.495467L1074.296926,324.781673L1063.343428,341.941375L1060.007839,347.375867L1058.900524,349.187368L1054.300337,355.659385L1052.374478,358.771891L1044.445143,371.287848L1038.867785,380.345509L1038.778676,380.493726L1037.271619,382.947537L1030.432654,393.536847L1021.185918,408.259890L980.169330,467.598070L978.972618,470.397872Z " data-admincode1="CT" data-admincode2="009" data-admincode3="" data-admincode4="" data-cartodb-id="51" data-countrycod="US" data-created-at="2013-08-22T04:08:48+0200" data-fclass="P" data-fcode="PPLX" data-geonameid="4841106" data-lat="41.3274536586" data-lng="-72.9210715587" data-name="Prospect Hill" data-parents="4839366" data-updated-at="2013-08-22T04:08:48+0200"/><path d="M619.426914,418.519986L624.778461,423.822983L626.108807,425.140500L630.047692,430.427049L633.468939,436.257096L640.574053,447.571398L644.104017,453.780299L649.188941,461.454994L650.913319,463.447786L655.213332,468.882684L657.658952,472.011877L659.547961,474.169376L665.070401,481.086569L667.917351,484.281663L676.132494,493.652878L678.540241,496.815058L689.438036,509.677946L692.309468,512.840157L694.733370,515.952964L699.775316,518.604620L712.996980,524.616153L731.052843,533.625260L740.795607,539.307446L748.214815,543.161462L759.505382,549.074265L772.948116,555.497668L792.677559,531.220630L817.414014,501.904204L809.059926,490.820098L821.250535,474.004682L826.804137,465.984069L830.130452,460.829159L833.150404,454.142622L833.483952,453.368567L834.301457,450.058249L834.668090,448.427796L835.653041,442.548299L836.705435,424.135893L838.824171,417.663603L839.793705,414.682735L841.890088,409.495050L844.058560,404.966133L844.435962,404.225038L846.251396,399.020918L847.306216,392.005263L848.197440,385.911878L848.193554,385.253135L847.927884,374.416853L846.904437,368.718776L843.605082,359.496497L839.660984,352.382203L851.745796,345.202068L862.737369,338.071368L865.765429,335.469412L873.859736,325.802686L880.718309,314.192811L886.201902,307.605684L892.270738,302.237196L902.923720,291.286192L904.007406,288.667843L906.753529,280.730483L907.713917,279.413083L912.723924,261.710618L916.105752,248.635619L897.399909,246.873631L901.576023,238.607133L898.925163,238.080186L887.975036,235.906533L878.591874,234.029289L868.488477,232.563723L862.368111,235.659527L846.047414,244.123616L833.192213,249.689519L795.991793,267.177778L777.747548,275.477356L772.993919,279.149603L770.187363,284.715626L768.686714,287.399839L767.613209,289.441820L763.821648,294.431511L755.710406,306.914037L752.829070,311.327407L743.482181,322.327949L715.960051,353.485575L711.757529,359.529433L708.448910,361.736188L708.807300,361.933808L702.546532,366.215580L681.616337,377.364710L666.120538,383.754496L648.736226,390.374868L641.307198,394.475560L636.917366,398.329232L624.712886,412.624128L619.426914,418.519986Z " data-admincode1="CT" data-admincode2="009" data-admincode3="" data-admincode4="" data-cartodb-id="52" data-countrycod="US" data-created-at="2013-08-22T04:08:48+0200" data-fclass="P" data-fcode="PPLX" data-geonameid="" data-lat="41.3263859114" data-lng="-72.9463849413" data-name="Beaver Hills" data-parents="4839366" data-updated-at="2013-08-22T04:08:48+0200"/><path d="M1183.573053,730.273462L1196.470858,741.952210L1206.821580,747.618658L1204.034972,771.355359L1199.559097,814.069125L1196.787888,842.551091L1215.332830,842.303992L1307.019121,814.530367L1365.642668,796.014884L1369.812923,795.603065L1388.136515,788.981033L1405.759899,771.454194L1475.577501,682.060399L1493.609655,659.247409L1529.942446,628.792159L1537.348739,617.031875L1542.477066,606.869346L1549.888251,572.511576L1557.139234,559.845833L1571.393124,542.749707L1572.019453,534.778165L1568.111034,525.571412L1553.050928,521.519799L1550.493386,514.618903L1541.238362,504.704064L1517.116626,495.892755L1510.032708,488.613167L1506.711169,484.232255L1495.677887,488.728455L1463.708889,497.687952L1393.895623,519.461056L1293.304866,541.530915L1266.985851,556.222362L1272.443266,558.478795L1266.909534,563.716368L1255.528923,568.986899L1253.551740,572.511576L1255.509606,574.669210L1290.676378,560.109359L1290.143488,564.770473L1282.967797,597.596300L1236.524061,607.791712L1234.472395,611.168236L1223.915074,620.326063L1221.500763,627.210939L1218.676868,638.378336L1213.611560,654.388366L1214.655654,655.623715L1207.946077,670.777400L1203.489765,685.124118L1197.559795,687.594863L1183.573053,730.273462Z " data-admincode1="CT" data-admincode2="009" data-admincode3="" data-admincode4="" data-cartodb-id="53" data-countrycod="US" data-created-at="2013-08-22T04:08:48+0200" data-fclass="P" data-fcode="PPLX" data-geonameid="4834146" data-lat="41.3105770367" data-lng="-72.896711051" data-name="Fair Haven" data-parents="4839366" data-updated-at="2013-08-22T04:08:48+0200"/></g><g fill="#000" font-family="Arial" font-size="12px" id="mylayer-label" stroke="none"><text text-anchor="middle" y="724.308950536"><tspan dy="0" x="620.111383865"><![CDATA[West River]]></tspan></text><text text-anchor="middle" y="489.399787614"><tspan dy="0" x="336.855960556"><![CDATA[Westville]]></tspan></text><text text-anchor="middle" y="402.302411159"><tspan dy="0" x="1704.13022375"><![CDATA[Quinnipiac]]></tspan></text><text text-anchor="middle" y="657.969875818"><tspan dy="0" x="967.13878688"><![CDATA[Downtown]]></tspan></text><text text-anchor="middle" y="976.827650363"><tspan dy="0" x="1271.08063109"><![CDATA[Annex]]></tspan></text><text text-anchor="middle" y="544.386612133"><tspan dy="0" x="657.182405169"><![CDATA[Edgewood]]></tspan></text><text text-anchor="middle" y="910.943063776"><tspan dy="0" x="726.165947156"><![CDATA[Hill]]></tspan></text><text text-anchor="middle" y="185.791873178"><tspan dy="0" x="656.613150418"><![CDATA[West Rock]]></tspan></text><text text-anchor="middle" y="625.08482739"><tspan dy="0" x="797.500127525"><![CDATA[Dwight]]></tspan></text><text text-anchor="middle" y="519.012386233"><tspan dy="0" x="898.413099418"><![CDATA[Dixwell]]></tspan></text><text text-anchor="middle" y="706.330766891"><tspan dy="0" x="1128.77719096"><![CDATA[Wooster Square/Mill River]]></tspan></text><text text-anchor="middle" y="345.510523434"><tspan dy="0" x="960.237448136"><![CDATA[Newhallville]]></tspan></text><text text-anchor="middle" y="1372.23353621"><tspan dy="0" x="1153.12990802"><![CDATA[East Shore]]></tspan></text><text text-anchor="middle" y="918.168560609"><tspan dy="0" x="939.308745534"><![CDATA[Long Wharf]]></tspan></text><text text-anchor="middle" y="268.843703766"><tspan dy="0" x="420.581707439"><![CDATA[Amity]]></tspan></text><text text-anchor="middle" y="708.6935286"><tspan dy="0" x="1570.77190831"><![CDATA[Fair Haven Heights]]></tspan></text><text text-anchor="middle" y="451.471250054"><tspan dy="0" x="1294.61095354"><![CDATA[East Rock]]></tspan></text><text text-anchor="middle" y="371.688330055"><tspan dy="0" x="1121.75352224"><![CDATA[Prospect Hill]]></tspan></text><text text-anchor="middle" y="389.275108147"><tspan dy="0" x="770.883556484"><![CDATA[Beaver Hills]]></tspan></text><text text-anchor="middle" y="649.648856782"><tspan dy="0" x="1363.58301657"><![CDATA[Fair Haven]]></tspan></text></g></svg>