<?xml version="1.0" encoding="utf-8"?><!DOCTYPE svg  PUBLIC '-//W3C//DTD SVG 1.1//EN'  'http://www.w3.org/Graphics/SVG/1.1/DTD/svg11.dtd'><svg enable_background="new 0 0 2000 882" height="882px" pretty_print="False" style="stroke-linejoin: round; stroke:#000; fill: none;" version="1.1" viewBox="0 0 2000 882" width="2000px" xmlns="http://www.w3.org/2000/svg" xmlns:xlink="http://www.w3.org/1999/xlink"><defs><style type="text/css"><![CDATA[path { fill-rule: evenodd; }]]></style></defs><metadata><views><view h="882.212466636" padding="0" w="2000"><proj flip="auto" id="robinson" lon0="2.34650094735"/><bbox h="1.39" w="3.16" x="28.84" y="-817.24"/></view></views></metadata><g class="" id="mylayer"><path d="M932.369837,303.057620L835.050547,324.114356L836.213665,326.212802L853.421387,340.953651L1023.302251,391.430758L1049.959025,330.471721L997.092470,316.196096L932.369837,303.057620Z " data-admincode1="A8" data-admincode2="75" data-admincode3="751" data-admincode4="75056" data-cartodb-id="2" data-countrycod="FR" data-created-at="2013-02-26T07:07:16.384Z" data-fclass="P" data-fcode="PPLX" data-geonameid="3030864" data-lat="48.8682635521" data-lng="2.34281251875" data-name="Bourse" data-parents="2988507" data-updated-at="2013-02-26T18:36:18.682Z"/><path d="M1115.838111,344.974835L1049.299160,330.699140L1016.876772,405.665395L1043.320026,414.142117L1071.559227,425.544381L1086.469936,439.541417L1111.250461,454.996123L1133.481345,463.483323L1167.264424,469.903012L1151.908375,393.715325L1135.696944,360.160280L1115.838111,344.974835Z " data-admincode1="A8" data-admincode2="75" data-admincode3="751" data-admincode4="75056" data-cartodb-id="3" data-countrycod="FR" data-created-at="2013-02-26T07:07:16.384Z" data-fclass="P" data-fcode="PPLX" data-geonameid="2973189" data-lat="48.8628625699" data-lng="2.35995392619" data-name="Temple" data-parents="2988507" data-updated-at="2013-02-26T18:36:24.060Z"/><path d="M1033.444332,667.048921L1115.184462,633.449469L1139.911603,588.178673L1148.587234,581.789746L1107.042390,544.438570L1056.192862,521.922640L1018.144027,509.424201L990.892913,495.974740L971.495666,488.324804L969.068465,491.198697L956.237687,527.401708L907.569945,637.357324L981.698529,658.250998L1033.444332,667.048921Z " data-admincode1="A8" data-admincode2="75" data-admincode3="751" data-admincode4="75056" data-cartodb-id="5" data-countrycod="FR" data-created-at="2013-02-26T07:07:16.384Z" data-fclass="P" data-fcode="PPLX" data-geonameid="2988623" data-lat="48.8444311095" data-lng="2.35065009208" data-name="Panthéon" data-parents="2988507" data-updated-at="2013-02-26T18:36:34.699Z"/><path d="M743.047907,562.623045L772.081713,580.724926L908.043543,637.274618L956.741516,526.460961L969.484867,491.126332L971.215189,488.800340L955.074081,475.826505L939.171460,460.288990L913.641186,442.301549L883.778328,435.168628L865.641451,464.537764L842.153315,509.889403L828.941563,513.445612L805.213775,526.853800L763.958766,552.285069L743.047907,562.623045Z " data-admincode1="A8" data-admincode2="75" data-admincode3="751" data-admincode4="75056" data-cartodb-id="6" data-countrycod="FR" data-created-at="2013-02-26T07:07:16.384Z" data-fclass="P" data-fcode="PPLX" data-geonameid="2997000" data-lat="48.8490931757" data-lng="2.33282544934" data-name="Luxembourg" data-parents="2988507" data-updated-at="2013-02-26T18:36:40.774Z"/><path d="M686.407689,573.384915L701.408393,579.536050L720.108265,572.361451L765.879863,552.801967L829.482499,513.517977L840.688355,511.191967L847.257219,502.435849L856.157176,484.334440L865.578153,465.375114L883.647415,435.168628L864.094407,430.041206L756.119425,387.016690L607.981419,390.521067L563.596226,407.443437L524.030564,445.382149L668.325910,559.500973L686.407689,573.384915Z " data-admincode1="A8" data-admincode2="75" data-admincode3="751" data-admincode4="75056" data-cartodb-id="7" data-countrycod="FR" data-created-at="2013-02-26T07:07:16.384Z" data-fclass="P" data-fcode="PPLX" data-geonameid="2988760" data-lat="48.8560112065" data-lng="2.31220390984" data-name="Palais-Bourbon" data-parents="2988507" data-updated-at="2013-02-26T18:36:45.091Z"/><path d="M618.732500,379.129274L619.850349,390.283306L755.713763,387.295800L776.168923,394.666367L812.159403,333.459171L811.228284,329.603398L816.667252,328.135517L821.905391,297.775370L820.130344,296.472898L824.774007,288.906172L825.586163,283.779002L822.398702,267.456882L824.281559,262.247054L826.273041,184.286799L739.816998,206.097269L677.754037,215.203963L594.505374,238.038013L588.343164,235.867272L585.043220,240.322461L586.141886,243.206451L567.266431,278.693189L559.006780,278.972288L556.057782,285.391579L560.543820,290.322347L568.462942,289.619428L583.127476,311.420341L595.709534,336.860112L604.912182,373.650479L618.732500,379.129274Z " data-admincode1="A8" data-admincode2="75" data-admincode3="751" data-admincode4="75056" data-cartodb-id="8" data-countrycod="FR" data-created-at="2013-02-26T07:07:16.384Z" data-fclass="P" data-fcode="PPLX" data-geonameid="3020270" data-lat="48.87276495" data-lng="2.31244832091" data-name="Élysée" data-parents="2988507" data-updated-at="2013-02-26T18:36:51.084Z"/><path d="M927.808669,199.161315L909.834840,196.473767L844.689957,171.872476L832.133169,182.519228L825.949765,184.607236L824.038951,261.812902L822.549682,267.095088L825.616572,284.254505L824.862471,288.782127L820.286809,296.555595L822.019930,297.775370L816.425147,327.742704L932.705273,303.057620L997.092470,316.196096L996.355878,283.303499L998.490076,264.810619L1005.333250,248.685005L1006.829387,231.525794L1012.003662,212.795493L1008.742569,180.865361L927.808669,199.161315Z " data-admincode1="A8" data-admincode2="75" data-admincode3="751" data-admincode4="75056" data-cartodb-id="9" data-countrycod="FR" data-created-at="2013-02-26T07:07:16.384Z" data-fclass="P" data-fcode="PPLX" data-geonameid="2989487" data-lat="48.8771415714" data-lng="2.33741886701" data-name="Opéra" data-parents="2988507" data-updated-at="2013-02-26T18:37:00.221Z"/><path d="M1166.059929,177.785036L1133.717798,174.870101L1088.063412,173.722734L1008.462364,180.699974L1012.028204,212.795493L1007.300628,227.980259L1005.088661,248.095801L998.609266,263.869955L996.035728,282.559233L997.504707,315.792948L1049.659147,330.699140L1116.198101,344.974835L1125.064856,351.993829L1130.948030,346.163618L1201.855028,316.661268L1234.676459,301.527731L1182.008471,245.170459L1183.677759,239.340458L1179.054942,234.089332L1178.174722,192.690529L1169.328446,185.951004L1166.059929,177.785036Z " data-admincode1="A8" data-admincode2="75" data-admincode3="751" data-admincode4="75056" data-cartodb-id="10" data-countrycod="FR" data-created-at="2013-02-26T07:07:16.384Z" data-fclass="P" data-fcode="PPLX" data-geonameid="3020216" data-lat="48.8761501002" data-lng="2.36067498876" data-name="Enclos-St-Laurent" data-parents="2988507" data-updated-at="2013-02-26T18:37:05.756Z"/><path d="M1286.240939,353.141266L1233.972862,301.527731L1130.948030,346.163618L1125.060972,351.683711L1135.340448,360.439387L1152.260195,393.715325L1173.592807,498.218036L1182.354219,496.760410L1192.984034,504.648137L1262.423987,525.075687L1297.584305,528.311440L1392.806025,547.116095L1418.736703,549.679905L1419.884504,543.415115L1412.863296,516.319529L1378.819148,462.377195L1361.576133,451.801799L1340.384662,442.777078L1321.901433,397.509157L1291.294559,363.943732L1286.240939,353.141266Z " data-admincode1="A8" data-admincode2="75" data-admincode3="751" data-admincode4="75056" data-cartodb-id="11" data-countrycod="FR" data-created-at="2013-02-26T07:07:16.384Z" data-fclass="P" data-fcode="PPLX" data-geonameid="2986082" data-lat="48.8591263684" data-lng="2.37999119663" data-name="Popincourt" data-parents="2988507" data-updated-at="2013-02-26T18:37:14.753Z"/><path d="M1130.545347,880.212467L1256.470657,824.919616L1308.833742,785.446009L1335.612427,773.215290L1148.251738,581.789746L1139.911603,588.178673L1115.925117,633.128983L1034.191457,667.245350L1009.901170,663.771666L981.223387,658.209644L953.373919,650.797078L946.588466,716.704423L948.291539,722.059780L951.717249,773.970016L950.514575,802.401608L958.652736,825.116055L971.236101,837.346980L976.678916,846.610672L972.893135,864.714240L972.636479,877.017696L995.466755,877.338206L1034.794334,861.012873L1057.208545,866.058312L1076.979419,877.017696L1130.545347,880.212467Z " data-admincode1="A8" data-admincode2="75" data-admincode3="751" data-admincode4="75056" data-cartodb-id="13" data-countrycod="FR" data-created-at="2013-02-26T07:07:16.384Z" data-fclass="P" data-fcode="PPLX" data-geonameid="3015772" data-lat="48.8285268674" data-lng="2.36182531202" data-name="Gobelins" data-parents="2988507" data-updated-at="2013-02-26T18:37:25.726Z"/><path d="M622.964176,784.101971L880.940435,855.957104L904.331302,873.192246L972.857822,876.387013L973.424241,865.303564L976.363193,846.889824L972.050482,839.001209L959.245742,826.739260L950.926419,806.578490L951.673450,782.323707L950.216871,749.312286L946.641267,716.342574L953.918882,651.189933L907.020523,636.602632L809.939867,595.704805L785.343917,623.152603L781.065231,617.911140L622.964176,784.101971Z " data-admincode1="A8" data-admincode2="75" data-admincode3="751" data-admincode4="75056" data-cartodb-id="14" data-countrycod="FR" data-created-at="2013-02-26T07:07:16.384Z" data-fclass="P" data-fcode="PPLX" data-geonameid="2989781" data-lat="48.829508018" data-lng="2.32655602473" data-name="Observatoire" data-parents="2988507" data-updated-at="2013-02-26T18:37:30.531Z"/><path d="M548.239922,762.762872L622.953600,783.233517L780.363246,616.722249L786.040925,622.604679L809.603437,596.294078L772.178819,579.970248L743.167284,563.015889L701.235627,578.791710L684.299402,572.950718L524.723691,444.513792L506.074724,471.360624L429.665659,540.262048L316.194017,683.331866L333.115888,687.994491L357.613899,681.605353L369.771009,699.707945L342.689013,725.378452L347.268000,755.742920L369.747687,756.332223L387.916829,747.585735L406.061086,738.828933L399.665892,732.398335L421.722755,697.929730L548.239922,762.762872Z " data-admincode1="A8" data-admincode2="75" data-admincode3="751" data-admincode4="75056" data-cartodb-id="15" data-countrycod="FR" data-created-at="2013-02-26T07:07:16.384Z" data-fclass="P" data-fcode="PPLX" data-geonameid="2970479" data-lat="48.8402968254" data-lng="2.29299376719" data-name="Vaugirard" data-parents="2988507" data-updated-at="2013-02-26T18:37:35.322Z"/><path d="M441.277839,237.603864L262.075112,214.573420L237.585480,279.912957L168.517795,257.791831L108.861474,318.480605L46.101574,359.291948L1.134800,473.727954L13.192960,544.955466L131.206982,547.353868L201.769646,576.496664L238.360514,577.644187L232.067686,640.706919L264.838458,678.131653L315.488754,683.890140L423.452057,550.868770L492.874917,485.399226L516.357562,451.605385L557.984267,409.531604L620.934286,391.947628L618.907721,379.408383L605.230247,372.223926L597.706229,339.578800L583.842154,310.986182L563.478844,283.427543L441.277839,237.603864Z " data-admincode1="A8" data-admincode2="75" data-admincode3="751" data-admincode4="75056" data-cartodb-id="16" data-countrycod="FR" data-created-at="2013-02-26T07:07:16.384Z" data-fclass="P" data-fcode="PPLX" data-geonameid="2988394" data-lat="48.8605474849" data-lng="2.26242526512" data-name="Passy" data-parents="2988507" data-updated-at="2013-02-26T18:37:40.880Z"/><path d="M440.614736,236.890621L564.135239,282.910692L588.553880,239.061363L674.987925,215.793160L742.284259,206.490066L826.273041,184.286799L812.738044,141.503604L847.944399,4.961295L780.485011,6.894136L717.002105,32.248571L652.798850,63.753291L583.915351,120.220775L536.377946,132.913964L466.732989,191.305411L440.614736,236.890621Z " data-admincode1="A8" data-admincode2="75" data-admincode3="751" data-admincode4="75056" data-cartodb-id="17" data-countrycod="FR" data-created-at="2013-02-26T07:07:16.384Z" data-fclass="P" data-fcode="PPLX" data-geonameid="3034610" data-lat="48.887248602" data-lng="2.30763127415" data-name="Batignolles-Monceau" data-parents="2988507" data-updated-at="2013-02-26T18:37:46.239Z"/><path d="M1036.663638,0.000000L848.594948,4.651214L812.595151,141.193508L826.130252,184.648583L832.071664,183.501211L845.127209,174.156873L908.589437,196.318716L928.972064,200.618794L1008.755833,181.930037L1084.488163,174.353269L1133.007778,174.353269L1148.348389,151.685100L1151.909621,141.472595L1177.260319,70.492534L1189.830654,61.189902L1177.704089,47.236010L1177.182840,5.788179L1036.663638,0.000000Z " data-admincode1="A8" data-admincode2="75" data-admincode3="751" data-admincode4="75056" data-cartodb-id="18" data-countrycod="FR" data-created-at="2013-02-26T07:07:16.384Z" data-fclass="P" data-fcode="PPLX" data-geonameid="3029374" data-lat="48.8923152899" data-lng="2.34792869922" data-name="Butte-Montmartre" data-parents="2988507" data-updated-at="2013-02-26T18:37:52.398Z"/><path d="M1494.060185,242.100404L1476.180799,218.718473L1437.342678,201.755835L1398.932280,159.168781L1369.168975,31.421680L1354.229810,15.100969L1325.334546,6.387669L1230.581884,10.439402L1177.174910,5.157680L1176.894017,47.866518L1189.080011,60.042580L1177.253951,69.986057L1161.935455,114.494386L1149.572755,150.816829L1133.188790,174.435962L1165.349508,177.237193L1167.505829,185.434170L1178.132772,191.305411L1180.123430,239.691912L1233.573883,300.380314L1298.000429,283.427543L1312.615206,275.261304L1322.448103,276.481070L1342.694196,265.958021L1384.006242,268.955743L1441.618886,261.306391L1494.060185,242.100404Z " data-admincode1="A8" data-admincode2="75" data-admincode3="751" data-admincode4="75056" data-cartodb-id="19" data-countrycod="FR" data-created-at="2013-02-26T07:07:16.384Z" data-fclass="P" data-fcode="PPLX" data-geonameid="3029372" data-lat="48.8864182999" data-lng="2.3841234501" data-name="Buttes-Chaumont" data-parents="2988507" data-updated-at="2013-02-26T18:37:58.058Z"/><path d="M776.176677,395.296949L864.069350,429.999856L911.606787,442.539314L938.158641,459.772108L954.157666,475.826505L971.736292,488.593585L983.319483,474.523956L990.838041,457.994035L994.426844,456.422715L1023.016402,391.472107L853.504224,341.036349L834.605431,323.845590L811.200300,329.324294L811.916094,334.296484L776.176677,395.296949Z " data-admincode1="A8" data-admincode2="75" data-admincode3="751" data-admincode4="75056" data-cartodb-id="1" data-countrycod="FR" data-created-at="2013-02-26T07:07:16.384Z" data-fclass="P" data-fcode="PPLX" data-geonameid="6269531" data-lat="48.8625725206" data-lng="2.33633516799" data-name="Louvre" data-parents="2988507" data-updated-at="2013-02-26T18:36:13.177Z"/><path d="M1137.411988,571.534409L1150.779874,561.516880L1173.758882,501.019573L1166.488938,469.396466L1133.436654,463.834803L1111.570083,455.037473L1086.086411,439.624118L1071.184582,425.027505L1042.563936,413.873343L1016.852741,405.706745L994.243880,456.184950L991.460915,458.076736L983.316529,474.286189L971.914378,488.438519L991.637510,495.974740L1017.827356,509.620620L1055.121270,521.292031L1106.375718,544.128432L1137.411988,571.534409Z " data-admincode1="A8" data-admincode2="75" data-admincode3="751" data-admincode4="75056" data-cartodb-id="4" data-countrycod="FR" data-created-at="2013-02-26T07:07:16.384Z" data-fclass="P" data-fcode="PPLX" data-geonameid="3013131" data-lat="48.8542860609" data-lng="2.35767391" data-name="Hôtel-de-Ville" data-parents="2988507" data-updated-at="2013-02-26T18:36:29.259Z"/><path d="M1545.207253,563.057241L1393.308184,547.353868L1298.970855,529.252187L1263.838188,526.264542L1192.989488,505.082324L1183.364411,497.711485L1173.553721,497.711485L1151.834172,560.762207L1136.485448,570.076748L1335.777672,773.339355L1353.187584,765.802444L1393.184915,757.004236L1437.898342,740.048888L1457.582140,744.070605L1483.919841,768.045939L1520.026170,788.516620L1571.310624,792.662466L1591.010120,797.831858L1609.245695,796.684252L1655.665129,797.314918L1690.968700,813.050599L1735.652366,844.046612L1737.202471,856.360324L1827.840357,859.275921L1871.530927,871.465626L1912.274156,869.687311L1942.155408,845.824911L1959.933024,809.535394L1969.265014,765.171784L1955.143021,761.656634L1962.301823,721.356760L1993.622278,693.949427L1998.865200,669.333697L1945.477660,610.374614L1881.227810,591.094013L1806.004183,582.379015L1808.003012,572.444155L1760.207769,571.844549L1761.147186,587.548050L1747.794821,586.441876L1741.277786,627.370592L1627.301399,615.068141L1605.167501,586.441876L1590.556939,596.335430L1585.113342,612.152778L1593.082194,627.370592L1609.184489,676.353450L1543.429231,698.601730L1506.847402,692.688138L1530.371110,669.333697L1545.207253,563.057241Z " data-admincode1="A8" data-admincode2="75" data-admincode3="751" data-admincode4="75056" data-cartodb-id="12" data-countrycod="FR" data-created-at="2013-02-26T07:07:16.384Z" data-fclass="P" data-fcode="PPLX" data-geonameid="2983854" data-lat="48.83498763" data-lng="2.42123240859" data-name="Reuilly" data-parents="2988507" data-updated-at="2013-02-26T18:37:20.571Z"/><path d="M1532.956530,372.223926L1532.841453,312.050906L1512.698888,278.765548L1492.678514,242.172762L1440.815403,261.812902L1384.299014,269.462255L1344.004099,266.030380L1323.847092,276.481070L1312.536083,274.827150L1300.032675,282.393841L1233.580502,300.256269L1286.360139,352.862160L1289.023488,362.920339L1321.106110,396.082593L1340.348400,442.497963L1379.550774,462.645974L1412.479597,517.032839L1420.577702,542.588081L1418.540845,549.721257L1544.479914,563.129607L1550.958250,519.441556L1545.885386,503.469628L1540.035224,490.692147L1540.651384,436.502173L1532.956530,372.223926Z " data-admincode1="A8" data-admincode2="75" data-admincode3="751" data-admincode4="75056" data-cartodb-id="20" data-countrycod="FR" data-created-at="2013-02-26T07:07:16.384Z" data-fclass="P" data-fcode="PPLX" data-geonameid="2994540" data-lat="48.8634458911" data-lng="2.40054925289" data-name="Ménilmontant" data-parents="2988507" data-updated-at="2013-02-26T18:38:05.143Z"/></g><g fill="#000" font-family="Arial" font-size="12px" id="mylayer-label" stroke="none"><text text-anchor="middle" y="335.268689677"><tspan dy="0" x="955.863317834"><![CDATA[Bourse]]></tspan></text><text text-anchor="middle" y="391.101273559"><tspan dy="0" x="1096.80528593"><![CDATA[Temple]]></tspan></text><text text-anchor="middle" y="581.641764332"><tspan dy="0" x="1023.05397322"><![CDATA[Panthéon]]></tspan></text><text text-anchor="middle" y="533.445653403"><tspan dy="0" x="876.600760296"><![CDATA[Luxembourg]]></tspan></text><text text-anchor="middle" y="461.928532978"><tspan dy="0" x="706.989032401"><![CDATA[Palais-Bourbon]]></tspan></text><text text-anchor="middle" y="288.739706277"><tspan dy="0" x="706.864686992"><![CDATA[Élysée]]></tspan></text><text text-anchor="middle" y="243.497262811"><tspan dy="0" x="910.596865421"><![CDATA[Opéra]]></tspan></text><text text-anchor="middle" y="253.746811881"><tspan dy="0" x="1100.98605175"><![CDATA[Enclos-St-Laurent]]></tspan></text><text text-anchor="middle" y="429.727174515"><tspan dy="0" x="1261.23738055"><![CDATA[Popincourt]]></tspan></text><text text-anchor="middle" y="746.067904069"><tspan dy="0" x="1116.55539177"><![CDATA[Gobelins]]></tspan></text><text text-anchor="middle" y="735.924224836"><tspan dy="0" x="827.795720522"><![CDATA[Observatoire]]></tspan></text><text text-anchor="middle" y="624.385731389"><tspan dy="0" x="551.777275041"><![CDATA[Vaugirard]]></tspan></text><text text-anchor="middle" y="415.044148998"><tspan dy="0" x="299.119713856"><![CDATA[Passy]]></tspan></text><text text-anchor="middle" y="139.026774944"><tspan dy="0" x="665.616752379"><![CDATA[Batignolles-Monceau]]></tspan></text><text text-anchor="middle" y="86.6537079205"><tspan dy="0" x="994.624557763"><![CDATA[Butte-Montmartre]]></tspan></text><text text-anchor="middle" y="147.611242908"><tspan dy="0" x="1291.48085722"><![CDATA[Buttes-Chaumont]]></tspan></text><text text-anchor="middle" y="394.099564224"><tspan dy="0" x="903.597963772"><![CDATA[Louvre]]></tspan></text><text text-anchor="middle" y="479.761675597"><tspan dy="0" x="1079.25845203"><![CDATA[Hôtel-de-Ville]]></tspan></text><text text-anchor="middle" y="679.276355802"><tspan dy="0" x="1601.88907626"><![CDATA[Reuilly]]></tspan></text><text text-anchor="middle" y="385.077474718"><tspan dy="0" x="1428.87660298"><![CDATA[Ménilmontant]]></tspan></text></g></svg>