<?xml version="1.0" encoding="utf-8"?><!DOCTYPE svg  PUBLIC '-//W3C//DTD SVG 1.1//EN'  'http://www.w3.org/Graphics/SVG/1.1/DTD/svg11.dtd'><svg enable_background="new 0 0 2000 1680" height="1680px" pretty_print="False" style="stroke-linejoin: round; stroke:#000; fill: none;" version="1.1" viewBox="0 0 2000 1680" width="2000px" xmlns="http://www.w3.org/2000/svg" xmlns:xlink="http://www.w3.org/1999/xlink"><defs><style type="text/css"><![CDATA[path { fill-rule: evenodd; }]]></style></defs><metadata><views><view h="1680.43602948" padding="0" w="2000"><proj flip="auto" id="robinson" lon0="-122.845398175"/><bbox h="3.54" w="4.21" x="-1590.25" y="-822.43"/></view></views></metadata><g class="" id="mylayer"><path d="M1040.733378,94.191410L1036.321936,96.527054L1025.784793,102.160548L1020.554787,105.784307L1009.720987,111.821334L1005.377815,114.956251L868.706848,319.327464L901.753895,319.606846L900.298960,320.949428L880.676617,349.935484L916.438124,350.129502L918.151051,347.537423L946.442553,347.397731L952.776939,347.358927L970.442106,320.662286L1004.437329,320.871822L1135.016805,125.889705L1135.639180,122.785807L1127.126618,96.364102L1125.279171,95.099285L1040.733378,94.191410Z " data-admincode1="02" data-admincode2="" data-admincode3="" data-admincode4="" data-cartodb-id="1" data-countrycod="CA" data-created-at="2013-03-21T04:05:51.121Z" data-fclass="P" data-fcode="PPLX" data-geonameid="" data-lat="49.1903305326" data-lng="-122.845463804" data-name="City Centre" data-parents="6159905" data-updated-at="2013-03-21T04:07:11.643Z"/><path d="M1270.585931,0.000000L1228.452815,3.437328L1178.697572,6.859144L1165.903817,8.248046L1078.961784,10.211133L1039.824384,12.965666L989.592264,17.109113L966.084486,20.593030L939.956794,25.481388L890.211677,42.994236L846.616648,64.037818L799.310275,90.699588L755.306879,118.774028L716.721165,141.230796L667.019733,172.813530L615.081227,206.507570L568.153308,241.614610L525.166429,274.619270L478.993320,318.869590L508.371447,319.203295L664.740425,319.218816L630.946005,369.143368L610.688130,399.604772L678.715946,399.899688L693.617383,402.033946L691.179716,405.549657L693.757438,405.642788L691.595837,408.879111L692.332317,408.879111L687.794785,416.003697L701.046671,416.477118L694.787678,426.589736L694.511761,427.008832L683.672713,426.450037L681.820975,429.244016L724.499026,432.752018L715.292756,447.063495L716.708434,447.001406L718.203935,446.985883L749.502132,446.776333L758.866635,432.596796L793.081722,432.309637L777.345752,456.477776L830.068006,481.220570L857.899336,494.042250L899.299956,510.674866L934.362820,529.294572L934.452883,529.325618L937.060863,525.538018L962.705818,487.421844L970.016843,476.206790L1037.181619,373.970593L1105.143497,374.195657L1139.547081,321.989348L1140.941944,319.870706L1178.307424,265.174893L1110.170367,265.850044L1123.314548,245.828433L1151.130969,203.853618L1199.473917,130.879231L1206.109755,123.259151L1210.596681,118.890424L1216.289106,115.848617L1226.369890,111.185040L1231.956217,106.824102L1240.817921,97.884989L1247.249454,91.692817L1251.636031,84.879901L1255.352974,77.966137L1257.445832,75.731391L1258.700298,73.093153L1259.223299,71.564528L1262.980965,66.078562L1267.335834,60.794359L1273.485102,56.324913L1276.309216,54.097953L1281.440852,50.241518L1290.084092,40.891444L1289.223915,31.634531L1310.309113,1.482007L1288.290103,1.435452L1270.585931,0.000000Z M1040.733378,94.191410L1125.279171,95.099285L1127.126618,96.364102L1135.639180,122.785807L1135.016805,125.889705L1004.437329,320.871822L970.442106,320.662286L952.776939,347.358927L946.442553,347.397731L918.151051,347.537423L916.438124,350.129502L880.676617,349.935484L900.298960,320.949428L901.753895,319.606846L868.706848,319.327464L1005.377815,114.956251L1009.720987,111.821334L1020.554787,105.784307L1025.784793,102.160548L1036.321936,96.527054L1040.733378,94.191410Z " data-admincode1="02" data-admincode2="" data-admincode3="" data-admincode4="" data-cartodb-id="2" data-countrycod="CA" data-created-at="2013-03-21T04:05:51.121Z" data-fclass="P" data-fcode="PPLX" data-geonameid="6179830" data-lat="49.1871590319" data-lng="-122.860428838" data-name="Whalley" data-parents="6159905" data-updated-at="2013-03-21T04:07:11.643Z"/><path d="M1122.289621,657.914619L1047.596240,771.297981L973.052629,884.525191L898.869524,997.976565L898.437958,998.737382L898.432865,998.745145L899.046914,998.745145L899.323236,998.745145L903.651231,998.737382L957.020571,999.164371L1069.345841,999.280822L1167.987286,999.467144L1353.315528,999.482671L1439.596944,999.583596L1501.152587,999.381747L1509.090680,999.234241L1527.004199,971.270555L1548.895854,936.793960L1581.837807,884.237962L1582.426186,884.230199L1601.649275,855.212461L1617.479511,831.202135L1631.410004,810.211787L1652.381353,778.586981L1652.525235,777.740865L1653.005574,776.475574L1653.531010,775.590647L1694.638499,714.190156L1695.565482,714.190156L1733.879389,657.417849L1771.550734,601.555410L1846.446304,488.221258L1436.530926,489.377694L1436.525823,489.385455L1411.619015,527.439578L1398.368854,547.728189L1381.934737,572.844776L1363.014647,601.850358L1362.134785,601.834834L1362.129684,601.842596L1322.808258,601.252700L1273.440886,600.911181L1246.505852,600.957752L1220.130360,600.965514L1219.245400,600.957752L1160.469331,600.810278L1153.399074,611.343051L1152.870673,612.212377L1147.824268,619.283421L1133.376016,641.342768L1122.289621,657.914619Z " data-admincode1="02" data-admincode2="" data-admincode3="" data-admincode4="" data-cartodb-id="5" data-countrycod="CA" data-created-at="2013-03-21T04:05:51.121Z" data-fclass="P" data-fcode="PPLX" data-geonameid="5924204" data-lat="49.1204652674" data-lng="-122.726753976" data-name="Cloverdale" data-parents="6159905" data-updated-at="2013-03-21T04:07:11.643Z"/><path d="M1330.200667,4.671043L1310.200641,1.637191L1289.223915,31.634531L1290.084092,40.891444L1281.440852,50.241518L1276.309216,54.097953L1273.485102,56.324913L1267.335834,60.794359L1262.980965,66.078562L1259.223299,71.564528L1258.700298,73.093153L1257.445832,75.731391L1255.352974,77.966137L1251.636031,84.879901L1247.249454,91.692817L1240.817921,97.884989L1231.956217,106.824102L1226.369890,111.185040L1216.289106,115.848617L1210.596681,118.890424L1206.109755,123.259151L1199.473917,130.879231L1151.130969,203.853618L1123.314548,245.828433L1110.170367,265.850044L1178.307424,265.174893L1140.941944,319.870706L1139.547081,321.989348L1229.872380,321.779812L1277.030888,321.477149L1344.538463,321.539233L1413.657667,321.213288L1378.637933,373.955072L1359.550734,403.097196L1386.787481,402.584973L1368.344404,430.641007L1409.772966,430.462503L1397.282464,449.453926L1462.865600,450.447353L1458.856493,456.058673L1436.530926,489.377694L1846.446304,488.221258L1885.636572,430.346087L1904.460599,400.869805L1955.587462,320.444989L1997.726818,256.343631L1999.404562,253.914654L1986.256583,259.106306L1912.040726,273.005108L1821.418279,281.851973L1790.669401,279.648013L1768.144841,274.355416L1740.221938,253.441275L1735.919010,240.753223L1736.091220,223.859240L1754.931552,185.190700L1763.947639,169.026677L1780.764971,135.985168L1792.536967,109.268398L1792.212843,86.742199L1789.976084,74.769210L1783.627779,67.715815L1777.840933,58.544115L1748.223471,44.383167L1709.164797,39.347328L1684.402778,35.762503L1626.125794,40.534512L1583.372712,47.463649L1561.648940,50.505338L1528.139478,43.808972L1481.237620,35.250386L1445.928042,30.951710L1367.822036,16.961687L1330.200667,4.671043Z " data-admincode1="02" data-admincode2="" data-admincode3="" data-admincode4="" data-cartodb-id="6" data-countrycod="CA" data-created-at="2013-03-21T04:05:51.121Z" data-fclass="P" data-fcode="PPLX" data-geonameid="5967687" data-lat="49.185255776" data-lng="-122.753348554" data-name="Guildford" data-parents="6159905" data-updated-at="2013-03-21T04:07:11.643Z"/><path d="M582.845456,1678.436029L747.939097,1678.311772L930.174741,1677.830272L1061.898294,1677.830272L1139.291634,1562.180549L1168.924579,1515.229846L1207.736473,1453.363149L1244.441145,1396.444698L1291.046841,1323.136464L1427.133361,1115.324402L1439.219255,1098.507857L1470.040072,1054.301077L1489.402640,1027.454535L1509.035416,999.234241L1501.152587,999.381747L1439.596944,999.583596L1353.315528,999.482671L1167.987286,999.467144L1069.345841,999.280822L957.020571,999.164371L903.651231,998.737382L899.323236,998.745145L899.046914,998.745145L898.432865,998.745145L898.437958,998.737382L762.302481,997.409835L702.068836,997.534050L696.543450,997.541813L688.915661,1003.729275L683.515834,1010.227297L675.887630,1017.594853L663.575451,1026.383166L656.631044,1031.351841L649.683935,1037.438486L644.587977,1042.407190L639.227920,1046.009508L633.159778,1045.318546L632.847930,1038.362353L637.334313,1032.469795L639.883694,1027.695205L642.393214,1023.945414L641.255022,1021.150543L636.987379,1020.832239L630.055797,1021.569774L616.760496,1022.656668L613.577955,1021.732808L612.870652,1018.215934L617.964049,1011.492744L621.473203,1007.913781L622.091136,1006.073840L619.872656,1005.468290L616.010805,1005.654613L612.221220,1006.058313L609.733285,1004.637600L612.464913,998.613167L615.442865,994.599477L616.938851,992.712967L619.360867,990.407237L622.543245,986.999108L626.019086,981.300792L625.595812,979.251265L624.677917,977.815045L622.756136,976.766994L619.264508,976.099346L614.471193,977.302665L607.010121,981.541456L604.069719,985.881181L602.205258,990.686719L600.010080,995.771753L598.477681,998.892650L594.664391,1003.542953L587.804154,1006.314507L580.514942,1008.317482L563.599428,1012.478707L557.194245,1013.705339L550.469925,1015.708321L547.178866,1016.166368L542.756782,1016.934955L540.405228,1017.393002L537.979696,1017.393002L535.204264,1017.074698L531.782627,1016.608887L526.824638,1015.358963L521.658485,1016.119787L517.693275,1017.043644L513.402776,1018.743853L507.980198,1020.746840L503.403577,1022.602323L499.671871,1024.302537L496.995019,1025.536939L494.229708,1026.616072L487.314945,1028.619068L484.195674,1029.395423L481.348037,1030.319287L477.008218,1031.243151L474.097835,1031.701201L471.385108,1031.848709L468.844208,1032.314523L466.016140,1032.927845L463.543074,1033.851711L460.792230,1034.628068L458.066058,1035.086119L454.508401,1035.388899L451.980931,1035.544171L448.554893,1036.778581L445.591899,1038.168263L443.595306,1038.936859L441.471096,1040.171271L439.339835,1041.444502L437.876841,1042.345081L433.718240,1045.435000L428.729708,1049.611834L423.692355,1053.881840L422.932990,1053.897367L417.985503,1058.788477L393.210516,1070.705758L384.879728,1078.422916L375.131336,1074.028635L369.582254,1074.455640L353.990772,1076.280120L336.375645,1081.179051L329.735915,1093.834033L333.262339,1098.764064L334.091271,1106.504626L325.299264,1119.858528L313.724727,1137.436130L305.861857,1149.384954L287.285960,1171.178743L281.737143,1179.610606L273.102267,1190.154369L262.864082,1199.285096L255.403214,1204.199868L242.094900,1207.701553L227.102701,1211.195480L210.719328,1216.801306L202.081271,1217.461272L164.085644,1204.075639L150.021093,1206.164227L137.270870,1215.116451L130.488984,1222.694428L120.622260,1225.124666L109.552375,1226.514485L86.011312,1239.147125L79.471866,1242.656637L67.938481,1244.753031L58.468588,1255.297147L54.879978,1280.663822L51.227017,1296.511367L44.231761,1312.980216L40.375379,1321.420458L26.442531,1336.181263L16.279124,1351.648779L12.411023,1367.830789L8.299545,1395.971031L11.344741,1417.084242L11.154180,1443.120813L0.595438,1465.624514L0.728538,1478.297518L7.124841,1491.848093L13.612966,1497.314941L22.589007,1502.960409L34.571320,1507.899237L55.695886,1507.930298L71.114634,1505.445352L84.884698,1505.468649L121.589522,1506.454861L158.007430,1506.687825L193.960349,1452.423554L204.811896,1452.446850L261.095291,1452.687573L279.152922,1452.578859L292.752023,1452.749695L464.974841,1453.246671L599.200291,1453.852360L525.660346,1565.900310L441.399021,1565.698402L480.517909,1583.047020L535.224200,1609.575008L559.569147,1634.286114L568.190597,1644.148896L577.209183,1660.480837L581.045432,1669.536074L582.845456,1678.436029Z " data-admincode1="02" data-admincode2="" data-admincode3="" data-admincode4="" data-cartodb-id="3" data-countrycod="CA" data-created-at="2013-03-21T04:05:51.121Z" data-fclass="P" data-fcode="PPLX" data-geonameid="6152674" data-lat="49.0503934998" data-lng="-122.767419358" data-name="South Surrey" data-parents="6159905" data-updated-at="2013-03-21T04:07:11.643Z"/><path d="M934.452883,529.325618L961.512835,543.878459L1062.047480,543.505905L1053.240441,556.964472L1018.693358,610.574630L1044.834367,610.923913L1051.203984,601.112988L1160.377256,600.810278L1160.469331,600.810278L1219.245400,600.957752L1220.130360,600.965514L1246.505852,600.957752L1273.440886,600.911181L1322.808258,601.252700L1362.134785,601.834834L1363.014647,601.850358L1381.934737,572.844776L1398.368854,547.728189L1411.619015,527.439578L1436.525823,489.385455L1436.530926,489.377694L1458.856493,456.058673L1462.865600,450.447353L1397.282464,449.453926L1409.772966,430.462503L1368.344404,430.641007L1386.787481,402.584973L1359.550734,403.097196L1378.637933,373.955072L1413.657667,321.213288L1344.538463,321.539233L1277.030888,321.477149L1229.872380,321.779812L1139.547081,321.989348L1105.143497,374.195657L1037.181619,373.970593L970.016843,476.206790L962.705818,487.421844L937.060863,525.538018L934.452883,529.325618Z " data-admincode1="02" data-admincode2="" data-admincode3="" data-admincode4="" data-cartodb-id="4" data-countrycod="CA" data-created-at="2013-03-21T04:05:51.121Z" data-fclass="P" data-fcode="PPLX" data-geonameid="5954556" data-lat="49.1579320505" data-lng="-122.785521592" data-name="Fleetwood" data-parents="6159905" data-updated-at="2013-03-21T04:07:11.643Z"/><path d="M610.688130,399.604772L678.715946,399.899688L693.617383,402.033946L691.179716,405.549657L693.757438,405.642788L691.595837,408.879111L692.332317,408.879111L687.794785,416.003697L701.046671,416.477118L694.787678,426.589736L694.511761,427.008832L683.672713,426.450037L681.820975,429.244016L724.499026,432.752018L715.292756,447.063495L716.708434,447.001406L718.203935,446.985883L749.502132,446.776333L758.866635,432.596796L793.081722,432.309637L777.345752,456.477776L830.068006,481.220570L857.899336,494.042250L899.299956,510.674866L934.362820,529.294572L934.452883,529.325618L961.512835,543.878459L1062.047480,543.505905L1053.240441,556.964472L1018.693358,610.574630L1044.834367,610.923913L1051.203984,601.112988L1160.377256,600.810278L1160.469331,600.810278L1153.399074,611.343051L1152.870673,612.212377L1147.824268,619.283421L1133.376016,641.342768L1122.289621,657.914619L1047.596240,771.297981L973.052629,884.525191L898.869524,997.976565L898.437958,998.737382L762.302481,997.409835L702.068836,997.534050L696.543450,997.541813L688.915661,1003.729275L683.515834,1010.227297L675.887630,1017.594853L663.575451,1026.383166L656.631044,1031.351841L649.683935,1037.438486L644.587977,1042.407190L639.227920,1046.009508L633.159778,1045.318546L632.847930,1038.362353L637.334313,1032.469795L639.883694,1027.695205L642.393214,1023.945414L641.255022,1021.150543L636.987379,1020.832239L630.055797,1021.569774L616.760496,1022.656668L613.577955,1021.732808L612.870652,1018.215934L617.964049,1011.492744L621.473203,1007.913781L622.091136,1006.073840L619.872656,1005.468290L616.010805,1005.654613L612.221220,1006.058313L609.733285,1004.637600L612.464913,998.613167L615.442865,994.599477L616.938851,992.712967L619.360867,990.407237L622.543245,986.999108L626.019086,981.300792L625.595812,979.251265L624.677917,977.815045L622.756136,976.766994L619.264508,976.099346L614.471193,977.302665L607.010121,981.541456L604.069719,985.881181L602.205258,990.686719L600.010080,995.771753L598.477681,998.892650L594.664391,1003.542953L587.804154,1006.314507L580.514942,1008.317482L563.599428,1012.478707L557.194245,1013.705339L550.469925,1015.708321L547.178866,1016.166368L542.756782,1016.934955L540.405228,1017.393002L537.979696,1017.393002L535.204264,1017.074698L531.782627,1016.608887L526.824638,1015.358963L521.658485,1016.119787L517.693275,1017.043644L513.402776,1018.743853L507.980198,1020.746840L503.403577,1022.602323L499.671871,1024.302537L496.995019,1025.536939L494.229708,1026.616072L487.314945,1028.619068L484.195674,1029.395423L481.348037,1030.319287L477.008218,1031.243151L474.097835,1031.701201L471.385108,1031.848709L468.844208,1032.314523L466.016140,1032.927845L463.543074,1033.851711L460.792230,1034.628068L458.066058,1035.086119L454.508401,1035.388899L451.980931,1035.544171L448.554893,1036.778581L445.591899,1038.168263L443.595306,1038.936859L441.471096,1040.171271L439.339835,1041.444502L437.876841,1042.345081L433.718240,1045.435000L428.729708,1049.611834L423.692355,1053.881840L412.832992,1054.091459L409.290069,1051.723545L407.262641,1047.476834L406.929368,1045.823181L406.218481,1043.463041L405.751569,1041.592011L404.349882,1040.668142L403.614785,1039.495838L402.232172,1038.075100L402.077965,1036.382638L401.510399,1035.815896L398.344540,1034.969666L395.947713,1034.635832L393.783840,1033.797366L391.594756,1033.455768L387.118472,1032.819155L383.838338,1030.986953L382.815360,1029.682675L383.298586,1027.159520L382.991769,1025.016782L382.169875,1024.248192L380.247090,1023.968705L377.425598,1022.897337L374.825155,1022.190856L373.753147,1018.650690L376.546815,1014.404053L374.020734,1013.930480L370.668350,1015.576341L368.264562,1017.928684L363.175599,1022.641141L357.043033,1023.339858L359.577525,1018.627400L359.714407,1016.267293L358.860867,1016.267293L352.850594,1019.791927L350.743862,1016.958245L355.522085,1012.719375L357.745881,1008.480515L356.600631,1007.315994L356.775282,1005.646849L358.325652,1003.294522L356.528683,1002.580285L357.044224,1000.934434L355.648057,1000.460864L352.013135,1002.106714L347.625824,1004.459040L345.185079,1002.564758L343.903686,1000.204671L345.765026,997.378781L345.376851,996.090053L343.257537,995.763989L340.052018,996.082290L337.200486,996.749944L333.117513,998.488952L326.841879,1000.817983L322.538782,1001.741832L320.806065,1001.322606L320.698686,1000.569553L321.834213,999.606886L323.344264,998.232759L323.191460,997.324437L322.311239,996.897449L320.185000,997.844587L318.930859,998.061963L318.963921,997.394308L318.355970,996.982847L316.620664,997.138115L316.245811,996.633493L317.003413,995.554377L316.208082,994.708164L316.292125,993.962877L317.535756,992.844945L317.088937,990.616848L317.265934,990.197625L312.594568,984.771017L305.713234,984.375085L304.958618,983.420191L304.669635,982.457533L303.804896,982.876755L301.844672,981.494876L294.981914,981.556983L291.949643,983.210580L288.853369,983.016495L288.691839,981.859754L286.616385,981.859754L284.751681,982.240159L282.343135,982.046075L280.184373,981.471586L278.303086,980.128524L275.811370,981.463822L271.071449,981.650143L266.487703,981.261975L259.033850,980.671959L251.247966,979.895624L243.728356,978.358480L238.494947,977.201741L229.637993,976.999894L259.092527,931.786716L259.914369,931.825532L292.204509,882.436955L310.174703,855.235750L319.940103,840.486402L334.556236,818.160767L348.191768,797.675135L366.988132,769.303020L386.147856,740.232722L413.983753,697.897242L441.371575,656.354452L444.492133,651.805915L459.591409,629.055633L473.945127,607.011955L515.677793,543.249774L520.295151,536.186783L527.319684,525.615632L545.778324,497.635752L589.689780,430.990255L610.688130,399.604772Z M899.046914,998.745145L899.323236,998.745145L899.323236,998.745145L899.046914,998.745145Z " data-admincode1="02" data-admincode2="" data-admincode3="" data-admincode4="" data-cartodb-id="7" data-countrycod="CA" data-created-at="2013-03-21T04:05:51.121Z" data-fclass="P" data-fcode="PPLX" data-geonameid="6087790" data-lat="49.1215429301" data-lng="-122.838909563" data-name="Newton" data-parents="6159905" data-updated-at="2013-03-21T04:07:11.643Z"/></g><g fill="#000" font-family="Arial" font-size="12px" id="mylayer-label" stroke="none"><text text-anchor="middle" y="211.329554256"><tspan dy="0" x="1004.89166533"><![CDATA[City Centre]]></tspan></text><text text-anchor="middle" y="235.961844114"><tspan dy="0" x="896.845493214"><![CDATA[Whalley]]></tspan></text><text text-anchor="middle" y="753.599757524"><tspan dy="0" x="1376.86466359"><![CDATA[Cloverdale]]></tspan></text><text text-anchor="middle" y="250.728685978"><tspan dy="0" x="1544.25117811"><![CDATA[Guildford]]></tspan></text><text text-anchor="middle" y="1297.62379633"><tspan dy="0" x="770.458557834"><![CDATA[South Surrey]]></tspan></text><text text-anchor="middle" y="462.765199929"><tspan dy="0" x="1207.22942631"><![CDATA[Fleetwood]]></tspan></text><text text-anchor="middle" y="745.241681392"><tspan dy="0" x="693.838902064"><![CDATA[Newton]]></tspan></text></g></svg>