<?xml version="1.0" encoding="utf-8"?><!DOCTYPE svg  PUBLIC '-//W3C//DTD SVG 1.1//EN'  'http://www.w3.org/Graphics/SVG/1.1/DTD/svg11.dtd'><svg enable_background="new 0 0 2000 2109" height="2109px" pretty_print="False" style="stroke-linejoin: round; stroke:#000; fill: none;" version="1.1" viewBox="0 0 2000 2109" width="2000px" xmlns="http://www.w3.org/2000/svg" xmlns:xlink="http://www.w3.org/1999/xlink"><defs><style type="text/css"><![CDATA[path { fill-rule: evenodd; }]]></style></defs><metadata><views><view h="2109.21554416" padding="0" w="2000"><proj flip="auto" id="robinson" lon0="-84.5267858656"/><bbox h="2.47" w="2.34" x="-1165.75" y="-639.78"/></view></views></metadata><g class="" id="mylayer"><path d="M564.746557,757.466646L561.853997,778.431922L560.495832,804.508113L566.475995,823.920255L567.700514,830.047382L587.917233,852.465256L646.200593,898.811699L690.477726,931.394149L732.673797,960.042106L818.874700,908.017212L869.688652,876.175586L883.781237,867.957526L896.900012,850.287344L896.384687,849.314544L895.897461,848.327225L895.374974,847.339907L894.840171,846.279992L893.677426,843.971412L892.486591,841.677353L891.304941,839.354258L890.120724,837.002127L888.920171,834.664517L888.623839,834.040187L887.717051,832.297872L887.507259,831.920370L886.826610,830.541038L886.106113,829.176226L885.418304,827.782376L884.725909,826.403047L884.010008,825.023718L883.305865,823.644390L882.608889,822.279582L881.878667,820.871217L881.174532,819.491891L880.482153,818.112567L879.801531,816.733243L879.095389,815.397477L878.393840,814.047193L877.696882,812.682391L877.004516,811.303070L876.286071,809.894712L875.541547,808.457316L874.801615,807.005402L874.052506,805.582528L873.296237,804.145135L872.699597,802.983606L872.062548,801.764001L871.418338,800.529878L870.793047,799.310274L870.144251,798.090671L869.535309,796.856550L868.886517,795.636948L868.599957,795.056186L868.175267,794.243119L867.816171,793.705914L867.862409,793.299380L867.964745,791.934590L868.074247,790.584320L868.136737,789.234050L868.250833,787.869263L868.336833,786.518995L868.430000,785.183246L868.520594,783.818461L868.617796,782.395601L868.722165,780.987260L868.812208,779.549882L868.916925,777.880202L869.020742,776.399270L868.897634,775.673323L869.671934,766.903901L869.757617,765.814985L869.833564,764.682513L869.909513,763.550041L869.985463,762.417570L870.061415,761.285100L870.146548,760.123592L870.226537,758.904010L870.315708,757.655391L870.393127,756.406772L870.488353,755.027485L870.561741,753.865980L870.656064,752.675439L870.694601,752.181800L870.764512,751.180004L870.816618,750.308877L870.850565,749.829757L870.880478,749.437750L870.909280,748.900556L870.954982,748.421436L870.973142,748.029430L871.013144,747.419642L871.086389,746.853410L871.276464,746.809854L871.915192,746.722741L872.546756,746.621110L872.964739,746.563035L873.706676,746.446885L874.826744,746.287179L877.047965,745.953247L877.529305,745.880654L879.478176,745.590279L880.018284,745.517685L880.811825,745.387016L881.959991,745.212791L882.737188,745.096641L883.427520,744.995010L884.070838,744.893379L884.780086,744.806266L885.608888,744.675598L886.677351,744.530410L886.826412,743.426986L886.986674,742.250969L887.218719,740.624872L887.498136,738.737439L887.777557,736.850008L888.121049,734.425387L888.459957,732.015288L888.815215,729.590672L889.158726,727.166059L889.255487,726.599832L889.431005,725.264119L889.525195,724.668855L889.600828,723.797738L891.146589,723.667071L893.420511,723.463810L893.546478,723.028252L893.936361,722.984696L894.490793,722.941140L894.905032,720.850462L888.301052,720.734313L881.537115,720.603646L873.110989,720.748832L867.112686,720.835943L821.106908,723.260550L812.731284,724.175222L700.158834,738.142172L630.337319,747.042154L564.746557,757.466646Z " data-name="Cardinal Hill-Pine Meadow"/><path d="M763.359866,1827.688497L764.028267,1823.476150L764.028267,1823.476150L764.032843,1823.461625L764.032843,1823.461625L764.542881,1820.759917L764.542881,1820.759917L764.542881,1820.759917L764.547456,1820.745392L764.714828,1819.990076L765.938437,1812.858164L765.938437,1812.858164L765.938437,1812.858164L765.938437,1812.858164L767.732300,1802.908383L768.708764,1797.345238L768.708764,1797.345238L768.084157,1800.932957L773.585044,1799.407813L773.613135,1799.393287L800.408169,1785.957535L826.630157,1787.627922L852.469295,1809.662610L852.603203,1809.648084L884.543451,1787.453620L884.587874,1787.424570L916.880625,1749.107639L950.591019,1772.914032L950.745833,1772.870457L991.567696,1733.566067L1014.080497,1741.336841L1014.087679,1741.351365L1024.717207,1743.065296L1024.780569,1743.050771L1040.057487,1735.236418L1039.967311,1735.410716L1036.377560,1737.923507L1036.365803,1737.923507L1036.361227,1737.938032L1036.349470,1737.938032L1034.496820,1739.041918L1034.492245,1739.056443L1034.480487,1739.056443L1034.468730,1739.056443L1031.084920,1740.654173L1032.865851,1751.983566L1032.865851,1751.983566L1032.865851,1751.983566L1032.865851,1751.983566L1033.202477,1754.162302L1033.202477,1754.162302L1033.209659,1754.176827L1033.209659,1754.176827L1033.386853,1756.675112L1033.382278,1756.689637L1033.389461,1756.704162L1033.384886,1756.718687L1032.989742,1763.647086L1032.989742,1763.647086L1032.985167,1763.661611L1032.992349,1763.676136L1032.544964,1767.074980L1032.556721,1767.074980L1032.552146,1767.089505L1032.547572,1767.104030L1031.497008,1772.231356L1031.492434,1772.245881L1031.487859,1772.260406L1031.487859,1772.260406L1030.872826,1774.511784L1030.872826,1774.511784L1030.868251,1774.526309L1030.863676,1774.540834L1029.978184,1777.053666L1029.978184,1777.053666L1029.978184,1777.053666L1029.973610,1777.068191L1028.964649,1779.711751L1028.964649,1779.711751L1028.960074,1779.726276L1028.955500,1779.740801L1025.774687,1786.480439L1025.774687,1786.480439L1025.758355,1786.494964L1025.753780,1786.509489L1023.031823,1791.418978L1023.031823,1791.418978L1023.010916,1791.448028L1023.006342,1791.462553L1020.363610,1795.224565L1020.363610,1795.224565L1020.363610,1795.224565L1020.363610,1795.224565L1018.489209,1797.853619L1018.489209,1797.853619L1018.472877,1797.868144L1018.468302,1797.882669L1015.530363,1801.499439L1015.525788,1801.513964L1015.514031,1801.513964L1015.509456,1801.528489L1011.825510,1805.610071L1011.825510,1805.610071L1011.825510,1805.610071L1011.825510,1805.610071L1005.247506,1812.683861L1022.812437,1824.783429L1022.812437,1824.783429L1022.824194,1824.783429L1022.824194,1824.783429L1037.746047,1835.532196L1037.746047,1835.532196L1037.746047,1835.532196L1037.746047,1835.532196L1039.648019,1837.071888L1039.648019,1837.071888L1039.648019,1837.071888L1039.648019,1837.071888L1042.720439,1839.599309L1042.727623,1839.613834L1042.727623,1839.613834L1042.727623,1839.613834L1043.804655,1840.674190L1043.816413,1840.674190L1043.835354,1840.688715L1043.830781,1840.703241L1050.098038,1851.045363L1051.197250,1852.744845L1051.197250,1852.744845L1051.197250,1852.744845L1051.197250,1852.744845L1053.382614,1856.260017L1053.394372,1856.260017L1053.401556,1856.274543L1053.396983,1856.289068L1054.301512,1858.569575L1054.296938,1858.584100L1054.304123,1858.598626L1054.315880,1858.598626L1054.471288,1859.412056L1054.471288,1859.412056L1054.466714,1859.426581L1054.466714,1859.426581L1054.906166,1861.765193L1054.901593,1861.779719L1054.908777,1861.794244L1054.908777,1861.794244L1055.035383,1863.595413L1055.030810,1863.609938L1055.033421,1863.638989L1055.028847,1863.653515L1054.709217,1867.096074L1054.704644,1867.110600L1054.707255,1867.139651L1054.702682,1867.154177L1053.580247,1871.017984L1053.575674,1871.032509L1053.566527,1871.061560L1053.561954,1871.076086L1050.916126,1877.351154L1050.916126,1877.351154L1050.916126,1877.351154L1050.916126,1877.351154L1048.994172,1881.737901L1047.483065,1887.097877L1047.398128,1887.591751L1046.755196,1892.210927L1046.706776,1894.680302L1046.822988,1896.626752L1047.597570,1901.449306L1048.195876,1903.134298L1048.195876,1903.134298L1048.195876,1903.134298L1048.195876,1903.134298L1048.499603,1903.962268L1049.927481,1906.635016L1049.927481,1906.635016L1049.922908,1906.649541L1049.922908,1906.649541L1050.312865,1907.390358L1053.492015,1911.297805L1057.961288,1916.410906L1064.551615,1923.339755L1070.986541,1929.193704L1077.749438,1934.640939L1077.749438,1934.640939L1077.749438,1934.640939L1077.749438,1934.640939L1090.903067,1945.709757L1090.920709,1945.840492L1090.859314,1946.072908L1090.771134,1946.203643L1073.071873,1958.841333L1073.071873,1958.841333L1073.071873,1958.841333L1073.071873,1958.841333L1063.859060,1965.174729L1063.859060,1965.174729L1063.859060,1965.174729L1063.859060,1965.174729L1056.125107,1970.433203L1049.196570,1975.299480L1049.196570,1975.299480L1049.196570,1975.299480L1049.196570,1975.299480L1043.174683,1979.526612L1043.174683,1979.526612L1043.158353,1979.541139L1043.158353,1979.541139L1040.635672,1981.168078L1040.635672,1981.168078L1040.623914,1981.168078L1040.623914,1981.168078L1036.225861,1983.710173L1036.209531,1983.724699L1036.209531,1983.724699L1036.197773,1983.724699L1030.664406,1986.324902L1030.664406,1986.324902L1030.664406,1986.324902L1030.664406,1986.324902L1027.559028,1987.748478L1027.559028,1987.748478L1027.542698,1987.763004L1027.530940,1987.763004L1023.224926,1989.302791L1023.224926,1989.302791L1023.213168,1989.302791L1023.213168,1989.302791L1017.249263,1991.104053L1017.249263,1991.104053L1017.232934,1991.118579L1017.221175,1991.118579L1010.003677,1992.382368L1010.003677,1992.382368L1009.991919,1992.382368L1009.991919,1992.382368L1006.181634,1992.832684L1006.181634,1992.832684L1006.169876,1992.832684L1006.169876,1992.832684L1001.933022,1993.181315L1001.933022,1993.181315L1001.921264,1993.181315L1001.921264,1993.181315L993.983156,1993.036052L993.971398,1993.036052L993.971398,1993.036052L993.959640,1993.036052L989.013974,1992.498578L982.971526,1991.859421L982.971526,1991.859421L982.971526,1991.859421L982.971526,1991.859421L976.304569,1990.813526L974.358580,1990.682790L970.331389,1990.552053L967.039762,1990.886158L964.545078,1991.191210L961.423962,1991.917526L958.575254,1992.861736L955.259501,1994.169105L951.544636,1995.810581L946.868919,1998.599639L945.354775,1999.674589L943.331138,2001.359647L939.954731,2004.540924L939.954731,2004.540924L939.954731,2004.540924L939.954731,2004.540924L938.364181,2006.008089L929.680571,2014.956364L929.680571,2014.956364L929.680571,2014.956364L929.680571,2014.956364L924.715616,2019.822729L924.711044,2019.837256L924.699286,2019.837256L924.682956,2019.851782L922.229522,2021.856437L922.224950,2021.870963L922.196862,2021.885490L922.185104,2021.885490L918.980437,2023.773934L918.980437,2023.773934L918.964107,2023.788460L918.964107,2023.788460L911.992312,2027.260296L908.830088,2028.901793L908.830088,2028.901793L908.830088,2028.901793L908.830088,2028.901793L902.766260,2031.879733L899.954810,2033.303335L899.943051,2033.303335L899.943051,2033.303335L899.943051,2033.303335L898.064386,2034.116823L898.064386,2034.116823L898.048056,2034.131349L898.048056,2034.131349L895.799012,2035.075576L893.841311,2035.990749L892.467597,2036.731605L891.368238,2037.385301L887.296123,2040.087246L880.877748,2045.200612L880.877748,2045.200612L880.873176,2045.215139L880.861418,2045.215139L877.535297,2047.713719L870.778576,2053.117635L866.991972,2056.182764L865.765274,2057.315846L864.451719,2058.724936L864.451719,2058.724936L864.435390,2058.739463L864.435390,2058.739463L863.384410,2059.799912L862.597984,2060.729622L861.949385,2061.557645L859.144685,2065.276488L856.364197,2069.329452L856.364197,2069.329452L856.364197,2069.329452L856.359626,2069.343979L856.036967,2069.808836L856.036967,2069.808836L856.032396,2069.823362L856.020637,2069.823362L855.383801,2070.651388L855.383801,2070.651388L855.383801,2070.651388L855.383801,2070.651388L854.951405,2071.203406L854.586944,2071.726370L854.582373,2071.740896L854.566043,2071.755423L854.549713,2071.769950L854.051338,2072.307441L854.051338,2072.307441L854.051338,2072.307441L854.051338,2072.307441L846.959788,2079.934013L846.959788,2079.934013L846.943459,2079.948540L846.943459,2079.948540L841.551461,2085.425160L841.551461,2085.425160L841.551461,2085.425160L841.551461,2085.425160L836.646059,2090.102813L836.629729,2090.117340L836.613400,2090.131867L836.597070,2090.146394L832.129207,2093.545688L832.129207,2093.545688L832.117448,2093.545688L832.117448,2093.545688L830.732013,2094.548044L830.732013,2094.548044L830.715683,2094.562571L830.703925,2094.562571L829.962534,2095.012906L827.680230,2096.436544L827.668471,2096.436544L827.663900,2096.451071L827.652142,2096.451071L823.645327,2098.572002L823.645327,2098.572002L823.645327,2098.572002L823.633568,2098.572002L821.662158,2099.530780L821.662158,2099.530780L821.662158,2099.530780L821.657587,2099.545307L819.104141,2100.634828L819.099570,2100.649355L819.099570,2100.649355L819.087811,2100.649355L813.814311,2102.610494L809.715977,2104.237514L809.715977,2104.237514L809.704218,2104.237514L809.687889,2104.252041L807.436192,2104.905754L800.668047,2106.983112L800.668047,2106.983112L800.668047,2106.983112L800.656289,2106.983112L799.795324,2107.215544L799.729343,2107.201017L799.622853,2107.128382L799.594102,2107.070274L799.326710,2105.341564L798.302555,2101.085164L797.145887,2097.511536L793.844273,2090.814631L789.869210,2084.016055L789.869210,2084.016055L789.869210,2084.016055L789.869210,2084.016055L787.375357,2079.759692L787.375357,2079.759692L787.363598,2079.759692L787.363598,2079.759692L780.155879,2066.569368L779.170012,2064.956900L779.170012,2064.956900L779.170012,2064.956900L779.158253,2064.956900L776.149037,2059.611065L776.137278,2059.611065L776.137278,2059.611065L776.137278,2059.611065L774.607203,2056.850992L774.607203,2056.850992L774.607203,2056.850992L774.607203,2056.850992L772.218688,2052.522042L772.223260,2052.507515L772.223260,2052.507515L772.211501,2052.507515L766.252638,2039.012278L766.252638,2039.012278L766.257211,2038.997751L766.257211,2038.997751L761.444389,2025.822171L761.444389,2025.822171L761.437203,2025.807644L761.437203,2025.807644L759.595609,2019.517673L758.073512,2015.014470L758.078084,2014.999944L758.078084,2014.999944L758.078084,2014.999944L754.751777,2004.424712L754.751777,2004.424712L754.744591,2004.410186L754.744591,2004.410186L754.406223,2002.870390L754.406223,2002.870390L754.406223,2002.870390L754.406223,2002.870390L753.014894,1996.420687L753.014894,1996.420687L753.019467,1996.406161L753.019467,1996.406161L752.088075,1989.578791L752.076316,1989.578791L752.080889,1989.564264L752.080889,1989.564264L751.657714,1984.596275L751.657714,1984.596275L751.662287,1984.581749L751.662287,1984.581749L751.483099,1971.406458L751.256040,1965.479778L751.256040,1965.479778L751.248855,1965.465252L751.248855,1965.465252L751.718137,1949.297692L751.769864,1947.452883L752.061303,1937.153934L752.162846,1933.507913L752.455184,1922.235786L752.613955,1915.234311L752.618529,1915.219785L752.623103,1915.205259L752.611345,1915.205259L754.430799,1901.100688L755.301660,1889.523669L755.301660,1889.523669L755.306234,1889.509144L755.306234,1889.509144L755.521471,1886.996197L755.367734,1888.753807L755.670829,1888.724755L755.840690,1888.521395L755.830254,1888.405190L755.830254,1888.405190L755.827002,1888.303510L755.931707,1886.850940L756.381323,1880.532271L758.572709,1868.011186L758.577284,1867.996660L763.359866,1827.688497Z " data-name="Southeastern Hills"/><path d="M230.581784,896.967697L228.975058,909.483708L233.806712,908.031731L239.592828,906.274841L245.441944,904.764787L246.043590,904.125918L252.026872,899.552205L255.031460,897.112894L256.530843,897.054815L276.121854,880.894450L276.741157,881.649469L289.517334,897.635603L294.948163,903.545129L291.527433,905.665011L284.223325,909.657946L279.454192,912.213427L280.176542,912.605462L296.570081,921.055996L343.398189,943.924864L355.757048,950.081347L356.960685,950.996109L362.285278,953.116034L367.681311,956.571807L374.170402,959.098300L379.973500,961.377954L380.058355,961.406994L384.653343,963.715691L428.533835,985.728281L428.625858,985.771842L434.539980,988.704934L442.863894,993.162659L465.888140,997.634913L475.018058,999.319271L476.397611,999.566117L482.666042,1001.192395L496.397050,1004.125506L504.528189,1005.548501L509.146338,1008.379975L520.138235,1016.671131L524.761569,1020.156038L557.378733,1044.158481L569.375450,1060.842718L572.781749,1059.027630L581.672645,1053.916349L587.198241,1050.750846L594.502822,1046.307532L603.405764,1040.934908L607.996429,1038.161477L614.177728,1033.776269L621.906650,1028.287510L628.366624,1024.062045L637.558300,1018.036052L639.796585,1016.569488L642.647269,1014.652791L650.568004,1009.338321L651.748933,1008.539699L657.212340,1004.938646L663.164578,1001.018151L664.201007,1000.379256L667.698490,998.201206L668.940772,997.431629L678.423454,991.638029L702.961987,977.553397L710.483899,973.240902L722.407851,966.082470L732.081757,960.390588L732.198732,960.317987L732.673797,960.042106L690.477726,931.394149L646.200593,898.811699L587.917233,852.465256L567.700514,830.047382L566.475995,823.920255L560.495832,804.508113L561.853997,778.431922L564.746557,757.466646L509.149586,762.751504L427.575652,770.678813L297.571684,782.076183L296.502323,783.673271L290.711242,792.283047L267.787681,825.851315L247.344675,855.964438L241.941689,866.099029L236.976062,877.787259L230.581784,896.967697Z " data-name="Gardenside-Colony"/><path d="M693.068132,1318.497731L739.803896,1348.689762L789.769290,1381.656004L805.604651,1391.270033L810.021958,1402.757541L816.049751,1410.556298L821.708987,1410.541775L854.242102,1372.739099L869.819350,1384.662199L891.314209,1394.261718L922.067730,1397.616475L929.162813,1374.191361L935.381891,1352.799626L936.962286,1348.050774L936.998937,1347.934594L940.233698,1338.277172L943.790887,1328.082462L947.598778,1317.205248L950.065346,1311.846532L951.232619,1309.711762L956.601443,1299.923795L974.164662,1259.276569L976.111452,1254.150334L946.437934,1249.241938L887.689380,1239.541350L860.865957,1306.473306L837.201697,1293.621179L856.278849,1256.749755L783.871900,1244.623988L785.363611,1242.169799L804.785459,1201.421909L820.565679,1166.628471L792.860909,1152.324972L788.032069,1160.210037L785.093898,1165.234420L783.270394,1168.254864L778.672400,1175.893118L776.997388,1178.666710L772.313169,1186.392127L772.016233,1186.885857L766.171604,1196.760488L765.976706,1197.079962L763.474306,1201.320258L757.177810,1211.993639L756.674233,1212.806851L755.326313,1215.028664L753.293681,1218.339604L751.500385,1221.302029L746.261821,1229.927932L746.210806,1230.015063L738.547358,1242.561888L738.224935,1243.099196L737.568336,1244.173811L735.755947,1247.383139L730.158301,1256.067225L726.298043,1263.008708L724.154711,1266.857028L719.184052,1274.858650L718.857058,1275.410487L713.830641,1283.775189L704.125862,1299.923795L693.068132,1318.497731Z " data-name="Crestwood-Hinda Heights"/><path d="M935.381891,1352.799626L929.162813,1374.191361L922.067730,1397.616475L922.053988,1397.660043L916.982145,1414.448425L915.394546,1419.705710L912.500043,1429.479644L905.967348,1451.423942L905.693159,1452.367943L905.386910,1453.413607L898.377035,1476.984726L897.373332,1480.354122L896.504614,1486.613660L891.759867,1506.321870L890.185140,1514.150009L884.726099,1541.309058L877.015926,1578.446284L942.342195,1572.869128L1013.103578,1566.086511L1033.388428,1564.169372L1088.702696,1558.911771L1145.087481,1553.203947L1155.679153,1550.633251L1164.221027,1548.672554L1172.213134,1546.218053L1197.599837,1536.356503L1204.347279,1533.262977L1220.157304,1524.243845L1237.772383,1512.407193L1239.817989,1510.766042L1239.784696,1510.722472L1248.021332,1504.172403L1256.004647,1497.419025L1264.893232,1489.024530L1270.146389,1484.144699L1270.053693,1484.028512L1286.489801,1464.930459L1298.368367,1447.909355L1308.350550,1430.714097L1318.105875,1411.703604L1332.095283,1385.417379L1334.583963,1380.842734L1360.322629,1335.082244L1362.308475,1331.916365L1364.683927,1328.111506L1386.317035,1293.548568L1395.696568,1278.271328L1404.221898,1264.286640L1404.586029,1263.691240L1405.882399,1261.556513L1368.727766,1205.981688L1298.505025,1091.728473L1244.467811,1128.858710L1267.652126,1155.069495L1172.492795,1238.481258L1157.633008,1263.037752L1112.898274,1320.066139L1137.496008,1364.664536L1116.631299,1388.365488L1052.349216,1347.368218L1103.749084,1240.412658L1004.921930,1174.484540L1004.315775,1175.399389L1001.386909,1181.512913L994.677613,1203.440409L993.164983,1207.637151L984.622335,1231.278455L981.293640,1240.485268L976.290771,1253.656589L976.111452,1254.150334L974.164662,1259.276569L956.601443,1299.923795L951.232619,1309.711762L950.065346,1311.846532L947.598778,1317.205248L943.790887,1328.082462L940.233698,1338.277172L936.998937,1347.934594L936.962286,1348.050774L935.381891,1352.799626Z " data-name="Reservorir"/><path d="M985.667270,359.946579L947.283220,563.677523L949.429318,565.884200L984.136735,520.633237L992.034837,512.126097L1001.966849,504.025472L1026.492782,488.245304L1073.460026,455.436841L1123.401042,423.296618L1125.652300,427.695185L1127.165034,426.925798L1129.567394,375.740374L1130.095214,364.345024L1130.447248,364.272442L1130.534108,364.257926L1079.266546,371.661267L985.667270,359.946579Z " data-name="Douglas High School"/><path d="M1691.699581,225.427981L1693.140003,229.231029L1701.858849,260.758841L1704.011070,270.223076L1706.545182,281.414731L1709.408380,292.272576L1720.782299,335.327060L1720.911711,335.660931L1723.617253,342.933534L1768.983574,316.325503L1788.618290,308.385251L1807.851654,299.893422L1817.014460,294.667696L1831.597719,285.087232L1837.001149,281.603437L1856.687577,268.931177L1880.942683,253.036518L1904.906721,237.504860L1929.748278,221.131414L1937.948434,215.717172L1937.862415,215.209134L1949.805369,207.399876L1946.945726,184.872205L1945.371146,175.626055L1946.295761,156.553269L1944.699548,145.594474L1938.203730,134.708307L1932.814255,127.900850L1928.678169,121.180503L1923.731268,109.931587L1913.886051,87.579070L1909.439188,78.130119L1899.397866,84.458444L1884.699124,93.805820L1866.753951,105.315919L1863.433007,107.899531L1852.160990,114.663382L1826.967208,129.990984L1796.448690,148.032983L1782.596423,158.716005L1777.524351,162.562485L1750.247410,183.246505L1717.109611,207.559544L1691.699581,225.427981Z " data-name="Thoroughbred Acres-Kingston"/><path d="M1130.095214,364.345024L1129.567394,375.740374L1127.165034,426.925798L1125.741061,459.428996L1123.962011,498.073418L1123.454044,507.814471L1119.632896,578.151619L1123.873714,571.023442L1177.739942,483.294970L1247.474987,376.117801L1256.745324,364.315991L1256.679406,364.301475L1220.198785,357.290097L1201.999882,355.417496L1183.939127,356.041696L1166.493717,357.246548L1130.534108,364.257926L1130.447248,364.272442L1130.095214,364.345024Z " data-name="Douglas Park"/><path d="M1227.066989,358.611079L1227.023511,358.451400L1227.229295,357.986879L1227.308465,357.885265L1227.486246,357.769134L1227.577700,357.740102L1250.970799,362.138542L1253.592687,362.617581L1253.592687,362.617581L1253.592687,362.617581L1253.592687,362.617581L1255.809877,363.038554L1255.869171,363.111136L1255.898868,363.314364L1255.857519,363.445011L1255.394794,364.127279L1255.525032,363.938566L1227.023511,358.451400L1227.066989,358.611079Z " data-name="Meadowthorpe"/><path d="M949.429318,565.884200L968.690955,585.802456L1012.621285,629.806155L1039.886364,660.511974L1063.294967,638.967045L1092.488101,617.973999L1101.171045,609.248730L1119.632896,578.151619L1123.454044,507.814471L1123.962011,498.073418L1125.741061,459.428996L1127.165034,426.925798L1125.652300,427.695185L1123.401042,423.296618L1073.460026,455.436841L1026.492782,488.245304L1001.966849,504.025472L992.034837,512.126097L984.136735,520.633237L949.429318,565.884200Z " data-name="Lexington Cemetery"/><path d="M1039.886364,660.511974L1059.100459,693.787961L1029.795420,715.101106L1027.459390,719.776086L1022.295740,716.814296L1007.748261,710.484209L981.451404,713.286287L1019.028971,780.464577L1109.944401,929.593681L1115.670189,975.622211L1169.856198,938.523435L1193.476034,922.653180L1190.280686,917.251800L1250.960836,875.783558L1284.478971,845.771814L1266.855081,830.831424L1229.603286,800.341129L1208.761695,792.834771L1124.823697,649.594303L1101.171045,609.248730L1092.488101,617.973999L1063.294967,638.967045L1039.886364,660.511974Z " data-name="Central Downtown"/><path d="M1608.379713,710.309987L1613.372345,721.068241L1617.277846,740.029604L1616.087061,753.880499L1613.524450,766.642561L1609.713792,777.923759L1599.688644,805.306664L1594.928990,818.402951L1593.811389,821.234197L1658.481958,832.544700L1724.465718,845.132961L1758.929064,851.085912L1788.365513,849.024156L1836.112988,838.889640L1880.971254,840.138303L1985.858687,851.768324L1986.326591,850.621291L1988.660134,845.016806L1993.680855,832.762489L1998.208450,816.486416L1999.525665,802.896491L1997.124313,789.321164L1992.802412,777.473672L1986.996867,767.905704L1977.525239,758.744303L1952.502496,737.938910L1947.038396,732.204030L1939.919336,720.545572L1939.381914,716.814296L1936.393780,713.213694L1932.587625,705.170434L1922.027711,682.826577L1913.877556,664.910997L1902.066744,630.982115L1895.668324,615.375288L1787.843113,665.259435L1723.216509,690.129321L1645.562815,692.916856L1608.379713,710.309987Z " data-name="Eastland Park-Dixie Plantation"/><path d="M326.051018,1220.372640L327.122700,1219.733686L323.294980,1263.124883L320.011911,1302.973454L321.094680,1322.593020L323.234271,1333.615483L323.292820,1333.876886L327.435149,1347.716757L331.040058,1355.587947L338.169056,1368.309704L352.115785,1383.790838L358.093756,1388.539761L399.012060,1335.663139L406.223131,1320.937477L423.472977,1305.543884L443.279501,1288.233471L460.560141,1266.450413L475.321189,1248.515844L490.740724,1230.581411L503.094221,1212.008161L540.310344,1162.054246L594.471963,1093.514545L663.164578,1001.018151L657.212340,1004.938646L651.748933,1008.539699L650.568004,1009.338321L642.647269,1014.652791L639.796585,1016.569488L637.558300,1018.036052L628.366624,1024.062045L621.906650,1028.287510L614.177728,1033.776269L607.996429,1038.161477L603.405764,1040.934908L594.502822,1046.307532L587.198241,1050.750846L581.672645,1053.916349L572.781749,1059.027630L569.375450,1060.842718L498.073913,1099.308396L417.657410,1160.268123L366.210209,1193.972353L326.051018,1220.372640Z " data-name="Twin Oaks"/><path d="M1190.280686,917.251800L1193.476034,922.653180L1201.795001,936.171204L1210.638114,950.821868L1210.947780,951.330070L1211.269201,951.838271L1214.027494,955.758684L1217.328940,961.160153L1217.504993,961.421514L1223.963354,970.598233L1224.305716,971.077398L1227.580613,976.377261L1228.609456,978.032563L1298.505025,1091.728473L1485.035064,970.540152L1563.082372,918.239148L1564.117749,911.647156L1566.845697,898.318029L1569.237824,887.355679L1569.364207,886.992688L1577.863223,863.616196L1589.076497,833.285184L1593.811389,821.234197L1566.689940,823.223332L1469.035547,833.764321L1445.643094,836.450393L1431.595508,838.018480L1402.672366,841.096579L1394.516029,842.098414L1379.958679,843.419676L1364.610084,845.162000L1347.856164,846.962403L1343.457328,847.194713L1336.460301,847.949721L1306.523302,850.664849L1297.826818,849.953398L1291.174672,848.240109L1284.478971,845.771814L1250.960836,875.783558L1190.280686,917.251800Z " data-name="Fairway-Liberty Heights"/><path d="M1101.171045,609.248730L1124.823697,649.594303L1208.761695,792.834771L1229.603286,800.341129L1266.855081,830.831424L1284.478971,845.771814L1291.174672,848.240109L1297.826818,849.953398L1306.523302,850.664849L1324.165054,826.112661L1373.668741,788.624251L1423.458783,741.713776L1410.873814,727.645174L1386.098377,698.114456L1356.856855,648.882914L1311.518144,572.257442L1306.673277,584.902356L1285.070790,552.571584L1274.557993,549.319660L1256.524977,553.123251L1190.294023,600.218620L1167.001130,616.231846L1149.084865,614.388069L1146.676062,610.744073L1139.590109,598.476480L1133.123752,587.297784L1126.111857,575.131940L1124.420688,572.489725L1123.574315,572.155819L1123.873714,571.023442L1101.171045,609.248730Z " data-name="Duncan Park"/><path d="M24.171981,1416.597811L35.579336,1446.863694L36.740556,1467.283215L31.525077,1489.358567L16.726101,1517.998733L7.988104,1543.342368L0.474335,1572.781985L1.381603,1594.015912L12.362620,1607.058458L47.417845,1631.444430L70.529067,1648.524923L83.920114,1667.275841L105.719370,1677.820572L136.596104,1683.441543L155.553441,1692.374119L194.898099,1711.038227L226.380743,1728.090229L252.328316,1728.017605L281.374858,1728.743843L301.111699,1735.207369L327.810711,1751.475195L396.669483,1791.404453L411.326195,1768.512954L426.015521,1744.997101L433.352680,1733.580592L441.221305,1721.336227L453.973455,1700.798368L455.859177,1697.762730L469.209536,1676.745763L470.961283,1673.986119L486.086678,1650.137119L489.083485,1645.852457L502.093093,1627.261470L509.963933,1616.281236L518.629657,1604.197225L529.622508,1588.685627L529.664341,1588.627532L535.313119,1580.668436L538.795023,1575.890086L538.832276,1575.846514L552.402469,1557.270588L565.403209,1536.661499L574.502274,1521.789369L574.640910,1521.498898L580.253293,1510.562714L585.381132,1500.715833L586.077543,1499.365158L559.973246,1487.790048L533.266084,1475.779297L517.630331,1468.735534L500.788145,1461.081820L463.433750,1442.913423L454.842212,1438.919589L407.660089,1415.537640L404.130683,1413.794896L401.467643,1412.473315L386.740997,1405.197373L364.677485,1393.753421L358.093756,1388.539761L352.115785,1383.790838L338.169056,1368.309704L331.040058,1355.587947L327.435149,1347.716757L323.292820,1333.876886L323.234271,1333.615483L321.094680,1322.593020L320.011911,1302.973454L323.294980,1263.124883L327.122700,1219.733686L326.051018,1220.372640L314.894412,1227.038106L312.575880,1228.461236L276.914335,1250.447253L275.337495,1251.420219L275.236864,1251.478306L271.425785,1253.830852L233.922562,1277.182175L206.584239,1294.216586L174.838749,1313.443980L174.157841,1313.850603L150.951393,1329.825144L150.535112,1330.101069L135.874751,1340.194131L135.386521,1340.586236L105.349418,1362.892783L76.718801,1384.952653L76.625342,1385.025267L61.120209,1397.050087L54.702886,1401.290739L53.169912,1402.162106L44.119136,1407.259614L41.763597,1408.465009L35.443836,1411.689081L26.670361,1415.610255L25.273516,1416.162124L24.171981,1416.597811Z " data-name="Indian Hills-Stonewall Estates-Monticello"/><path d="M228.975058,909.483708L228.111715,916.191853L228.428559,925.673312L228.970394,930.130917L229.640696,935.706566L255.114779,1015.422373L266.836916,1043.345327L289.859936,1074.419622L333.286576,1131.777459L366.210209,1193.972353L417.657410,1160.268123L498.073913,1099.308396L569.375450,1060.842718L557.378733,1044.158481L524.761569,1020.156038L520.138235,1016.671131L509.146338,1008.379975L504.528189,1005.548501L496.397050,1004.125506L482.666042,1001.192395L476.397611,999.566117L475.018058,999.319271L465.888140,997.634913L442.863894,993.162659L434.539980,988.704934L428.625858,985.771842L428.533835,985.728281L384.653343,963.715691L380.058355,961.406994L379.973500,961.377954L374.170402,959.098300L367.681311,956.571807L362.285278,953.116034L356.960685,950.996109L355.757048,950.081347L343.398189,943.924864L296.570081,921.055996L280.176542,912.605462L279.454192,912.213427L284.223325,909.657946L291.527433,905.665011L294.948163,903.545129L289.517334,897.635603L276.741157,881.649469L276.121854,880.894450L256.530843,897.054815L255.031460,897.112894L252.026872,899.552205L246.043590,904.125918L245.441944,904.764787L239.592828,906.274841L233.806712,908.031731L228.975058,909.483708Z " data-name="Garden Springs"/><path d="M1487.976343,464.147006L1495.222401,476.239674L1496.062645,477.633311L1508.084319,499.859033L1522.078098,525.699790L1546.020189,574.536716L1809.253619,480.652861L1757.672417,412.975261L1733.774382,375.391980L1723.794761,343.412568L1706.358080,353.617479L1666.367614,379.021084L1610.853692,411.480047L1591.256805,424.167621L1575.639215,429.030726L1545.920027,438.756967L1522.597078,445.129854L1502.003247,453.723845L1487.976343,464.147006Z " data-name="Warrenton-Harmitage Hills-Pinehurst"/><path d="M382.168672,1814.063761L384.803361,1814.993378L388.207874,1816.838088L445.176075,1847.428520L445.195014,1847.443046L446.467233,1848.256472L450.588400,1850.290038L468.401387,1859.993077L507.571328,1880.953515L527.883450,1891.048869L541.883753,1897.890493L542.189457,1897.890493L550.826663,1885.587205L580.583541,1857.785196L584.825254,1861.750668L594.154405,1877.598090L594.017147,1878.033859L594.307206,1877.859551L596.283831,1881.214977L596.579645,1881.694324L608.323632,1900.926378L611.104482,1904.267309L613.805613,1907.898761L617.861610,1911.036340L626.720112,1913.970561L634.432405,1915.728190L647.572617,1915.147156L659.548250,1913.709096L676.153951,1911.719055L686.522019,1910.121213L692.363288,1908.523372L710.950810,1901.434781L728.619331,1893.605397L734.969522,1891.324858L741.094205,1890.133749L749.880049,1889.116949L755.716573,1888.579498L755.706136,1888.463293L755.695700,1888.347087L755.800406,1886.894517L756.254596,1880.561322L758.445982,1868.040237L763.769653,1823.214695L763.806308,1822.837036L767.683532,1801.906144L767.899976,1800.845806L773.147447,1774.410109L779.244706,1760.132047L779.546662,1759.434850L783.036186,1753.770129L786.521156,1748.119947L790.238470,1743.225070L796.243143,1736.369353L799.218700,1732.970551L805.048010,1727.305892L810.257684,1723.122768L811.721803,1721.946265L820.444429,1715.047034L828.968780,1707.247295L840.803094,1696.368371L841.336988,1695.569520L844.955341,1690.093767L849.747328,1683.020332L853.657137,1677.254118L859.712914,1664.864793L862.665352,1651.429781L863.649067,1642.264966L866.410365,1628.989845L866.757840,1627.290519L871.346958,1605.606055L873.915603,1593.391382L875.121784,1587.625381L876.754115,1579.724384L877.015926,1578.446284L837.205843,1581.510821L784.248192,1580.857246L729.988520,1563.414135L680.989679,1539.580746L624.131431,1517.374223L586.077543,1499.365158L585.381132,1500.715833L580.253293,1510.562714L574.640910,1521.498898L574.502274,1521.789369L565.403209,1536.661499L552.402469,1557.270588L538.832276,1575.846514L538.795023,1575.890086L535.313119,1580.668436L529.664341,1588.627532L529.622508,1588.685627L518.629657,1604.197225L509.963933,1616.281236L502.093093,1627.261470L489.083485,1645.852457L486.086678,1650.137119L470.961283,1673.986119L469.209536,1676.745763L455.859177,1697.762730L453.973455,1700.798368L441.221305,1721.336227L433.352680,1733.580592L426.015521,1744.997101L411.326195,1768.512954L396.669483,1791.404453L396.349246,1791.898307L395.973451,1792.493838L395.813333,1792.740765L395.121879,1793.815626L382.168672,1814.063761Z " data-name="Blueberry Hill-Brigadoon-Stoneybrook-Baralto"/><path d="M297.571684,782.076183L427.575652,770.678813L499.034817,763.738786L504.741589,743.354392L503.374547,725.975531L493.732567,706.593247L497.470436,684.597817L504.298357,672.823453L510.579073,666.159566L513.295229,657.463151L522.909711,645.166273L526.998198,635.439154L533.178985,619.062845L546.644815,601.133244L562.836137,582.056882L563.516523,581.243890L561.788411,579.908260L556.831568,576.148178L554.305540,577.222486L537.021860,584.597484L505.062327,600.131513L471.362063,619.643563L448.326492,634.684216L448.059807,634.858432L443.643158,637.747526L417.687639,656.853387L392.244971,677.904860L368.625975,699.508227L348.174117,720.240681L328.135491,742.454231L313.545229,760.152630L300.435567,777.778570L297.571684,782.076183Z " data-name="Holiday Hills"/><path d="M1454.295691,417.664142L1454.354994,417.736725L1462.608199,426.011244L1467.885397,432.659915L1476.504984,444.941135L1487.933378,464.059904L1487.976343,464.147006L1502.003247,453.723845L1522.597078,445.129854L1545.920027,438.756967L1575.639215,429.030726L1591.256805,424.167621L1610.853692,411.480047L1666.367614,379.021084L1706.358080,353.617479L1723.794761,343.412568L1723.746669,343.267406L1723.708303,343.165793L1723.617253,342.933534L1720.911711,335.660931L1720.782299,335.327060L1709.408380,292.272576L1706.545182,281.414731L1704.011070,270.223076L1701.858849,260.758841L1693.140003,229.231029L1691.699581,225.427981L1685.747860,211.522231L1671.841494,179.980595L1659.036555,158.846640L1610.965160,229.811648L1598.006052,249.814053L1578.366478,274.476189L1569.333510,292.620957L1543.921919,320.448058L1538.797239,325.427069L1531.253323,332.220606L1519.308770,345.270642L1514.516681,351.352943L1510.117851,356.898157L1490.001900,384.929278L1487.974975,387.658375L1483.288947,392.811732L1479.705611,396.745711L1472.973242,403.278163L1464.684736,410.420333L1461.647951,412.626861L1454.295691,417.664142Z " data-name="Elkhorn Parks-Radcliff"/><path d="M1432.325645,751.630086L1444.789077,760.021960L1455.790940,767.571769L1459.546702,773.466445L1459.193538,781.466386L1454.173792,797.466351L1446.645897,821.481024L1445.736969,829.902190L1444.788216,836.552028L1445.643094,836.450393L1469.035547,833.764321L1566.689940,823.223332L1593.811389,821.234197L1594.928990,818.402951L1599.688644,805.306664L1609.713792,777.923759L1613.524450,766.642561L1616.087061,753.880499L1617.277846,740.029604L1613.372345,721.068241L1606.665378,706.622284L1606.615786,706.593247L1603.247077,699.363043L1592.481183,675.001197L1545.189489,708.016061L1524.134578,680.285867L1432.325645,751.630086Z " data-name="Eastland"/><path d="M773.147447,1774.410109L767.899976,1800.845806L773.607285,1799.262561L800.430411,1785.812284L826.706609,1787.497196L852.569258,1809.531882L884.509508,1787.337420L916.893079,1748.918815L841.336988,1695.569520L840.803094,1696.368371L828.968780,1707.247295L820.444429,1715.047034L811.721803,1721.946265L810.257684,1723.122768L805.048010,1727.305892L799.218700,1732.970551L796.243143,1736.369353L790.238470,1743.225070L786.521156,1748.119947L783.036186,1753.770129L779.546662,1759.434850L779.244706,1760.132047L773.147447,1774.410109Z " data-name="Jamestown"/><path d="M792.860909,1152.324972L820.565679,1166.628471L804.785459,1201.421909L785.363611,1242.169799L783.871900,1244.623988L856.278849,1256.749755L837.201697,1293.621179L860.865957,1306.473306L887.689380,1239.541350L946.437934,1249.241938L976.111452,1254.150334L976.290771,1253.656589L981.293640,1240.485268L984.622335,1231.278455L993.164983,1207.637151L994.677613,1203.440409L1001.386909,1181.512913L1004.315775,1175.399389L1004.921930,1174.484540L943.477475,1130.993317L982.430337,1088.112771L1039.682392,1025.107520L1009.738931,1006.289040L1018.760192,995.776313L1007.594328,981.110847L990.520097,994.454965L959.083308,948.367985L990.543972,927.996493L1000.839764,945.449464L1016.099085,935.619446L1006.745215,917.455077L1033.679160,897.795320L1073.517546,869.845064L1019.028971,780.464577L1003.821919,791.092486L990.261492,800.341129L979.988803,807.034441L972.225335,812.333931L970.320804,813.190562L959.761206,819.564487L946.476082,826.417566L935.390542,831.963928L929.173773,834.824230L927.496587,835.593753L927.835998,839.949551L927.608491,841.227253L922.908866,843.898815L961.179435,870.716236L878.338892,1009.439964L860.935839,1038.524492L792.860909,1152.324972Z " data-name="University Of Kentucky"/><path d="M1279.576284,1473.063452L1279.618731,1473.077975L1270.227437,1483.999466L1270.246372,1484.013989L1270.201216,1484.231839L1264.955238,1489.126194L1256.071232,1497.506166L1256.054898,1497.520689L1248.055249,1504.288591L1240.196898,1510.533667L1240.174009,1510.606284L1240.491330,1510.867706L1241.509879,1511.739114L1243.317155,1513.278601L1243.328912,1513.278601L1247.905329,1516.923994L1248.991825,1517.766357L1255.774574,1523.140056L1270.006942,1534.308675L1270.222415,1534.482958L1283.129134,1543.778078L1289.656738,1549.253501L1293.249801,1552.811806L1305.845214,1566.565796L1307.521190,1568.671746L1320.063500,1584.386550L1320.070680,1584.401074L1321.853866,1586.390849L1321.931587,1586.405373L1322.093576,1586.376325L1322.189601,1586.332753L1326.666295,1581.714155L1330.665325,1577.865330L1333.105477,1575.643181L1346.144853,1564.706751L1353.735591,1558.563201L1361.758730,1552.390619L1367.648167,1547.989941L1384.454551,1536.254838L1394.805131,1529.225422L1402.639869,1524.098609L1402.656202,1524.084086L1411.199192,1518.202062L1411.210948,1518.202062L1418.405729,1512.755756L1418.410306,1512.741233L1418.422062,1512.741233L1418.426639,1512.726709L1423.632986,1508.180869L1423.649319,1508.166345L1429.958795,1501.761518L1429.970552,1501.761518L1429.975129,1501.746994L1432.109044,1499.452298L1434.650666,1496.721904L1434.655243,1496.707380L1434.666999,1496.707380L1437.434780,1493.483194L1437.439357,1493.468671L1441.131241,1488.617877L1441.147574,1488.603354L1446.941746,1480.513878L1452.447788,1472.816557L1462.844215,1458.816209L1466.456113,1455.040195L1474.414741,1447.357478L1482.400870,1441.228750L1485.396180,1439.297188L1493.381700,1434.736963L1493.393456,1434.736963L1496.756536,1432.645652L1498.454410,1431.585475L1499.474174,1430.960987L1502.313327,1429.189185L1518.724343,1419.008611L1546.482025,1400.579122L1546.486603,1400.564599L1546.498359,1400.564599L1550.681469,1397.587430L1550.697803,1397.572907L1562.297000,1388.336443L1574.202049,1380.218260L1592.404547,1368.643724L1592.409125,1368.629201L1598.940780,1364.243382L1602.776825,1361.919772L1609.471361,1358.434362L1616.621542,1355.442722L1622.117525,1353.670976L1625.483375,1352.727013L1633.696810,1351.173107L1640.409843,1350.127488L1640.498690,1350.069398L1640.659430,1349.895128L1640.719566,1349.778948L1642.756821,1336.156901L1643.830580,1328.910236L1645.932479,1313.182579L1645.925302,1313.168057L1645.929881,1313.153535L1646.043374,1310.742841L1647.202727,1291.965655L1647.207306,1291.951133L1647.261724,1288.945055L1647.254548,1288.930533L1647.259127,1288.916010L1646.952746,1285.227397L1646.957325,1285.212875L1646.945569,1285.212875L1646.204307,1280.144672L1645.973972,1278.489159L1645.978551,1278.474636L1645.971374,1278.460114L1644.578542,1273.072442L1644.583121,1273.057920L1644.571366,1273.057920L1642.470168,1267.307209L1642.474747,1267.292687L1641.461064,1265.027260L1641.449308,1265.027260L1639.742621,1261.716254L1639.747201,1261.701733L1639.735445,1261.701733L1637.734274,1258.318122L1637.727098,1258.303600L1633.923640,1253.366151L1628.507393,1246.758699L1623.004035,1239.570393L1622.992279,1239.570393L1616.440482,1231.830282L1607.937878,1221.069682L1607.926123,1221.069682L1605.128396,1217.715172L1600.548057,1211.775815L1596.662519,1207.099852L1593.243256,1202.511027L1586.453783,1194.407999L1574.754530,1179.436346L1574.742775,1179.436346L1574.747356,1179.421825L1571.286117,1175.413911L1564.424831,1166.831770L1561.232229,1162.606057L1540.090383,1136.656570L1540.078628,1136.656570L1537.405897,1133.578082L1537.394142,1133.578082L1535.312222,1131.719374L1535.300467,1131.719374L1535.288712,1131.719374L1533.671252,1130.586725L1533.675834,1130.572204L1533.664079,1130.572204L1531.018342,1129.047485L1530.994832,1129.047485L1527.232188,1127.784147L1516.332009,1124.255516L1516.336591,1124.240995L1506.080789,1121.017313L1503.523369,1120.218654L1495.501451,1117.328961L1494.919079,1117.125666L1494.613062,1117.648425L1488.772859,1127.290429L1458.051365,1177.156481L1451.349960,1188.076619L1450.809291,1188.933387L1439.793244,1206.562552L1421.427782,1236.273945L1405.981632,1261.614601L1404.689842,1263.734805L1404.309375,1264.344728L1395.800383,1278.314894L1395.788627,1278.314894L1386.420851,1293.592134L1364.771410,1328.169596L1364.530200,1328.561699L1364.541199,1328.750490L1363.298372,1331.088590L1361.312812,1333.731662L1361.308232,1333.746184L1361.296476,1333.746184L1358.785164,1337.609141L1360.811464,1334.501348L1360.426448,1335.125811L1336.406354,1377.822021L1334.761535,1380.987961L1314.475855,1418.631016L1319.743935,1408.857126L1318.197943,1411.747172L1308.447198,1430.743143L1308.442620,1430.757666L1298.472194,1447.952924L1298.455860,1447.967448L1296.435127,1450.872064L1297.894553,1448.591940L1292.112432,1457.610788L1289.348250,1461.009204L1286.577295,1464.988551L1286.560961,1465.003075L1280.587141,1471.945163L1279.800276,1473.136068L1279.576284,1473.063452Z " data-name="Idle Hour"/><path d="M1485.441013,0.000000L1443.713259,78.971959L1424.559923,111.542719L1395.344151,153.403517L1341.420006,236.895208L1407.469872,293.825775L1409.357186,297.033787L1413.558407,304.886904L1417.802131,312.754563L1423.002366,318.677100L1428.248715,323.191593L1434.142745,330.115769L1457.152815,358.712694L1483.288947,392.811732L1487.974975,387.658375L1490.001900,384.929278L1510.117851,356.898157L1514.516681,351.352943L1519.308770,345.270642L1531.253323,332.220606L1538.797239,325.427069L1543.921919,320.448058L1569.333510,292.620957L1578.366478,274.476189L1598.006052,249.814053L1610.965160,229.811648L1659.036555,158.846640L1650.388853,144.404250L1632.158223,121.296621L1610.765800,97.637675L1576.408905,68.463491L1559.358347,55.255403L1555.922320,52.599281L1552.282957,49.768990L1524.919009,29.391001L1486.239538,0.595073L1485.441013,0.000000Z " data-name="Marriott's Griffin Gate Golf Culb"/><path d="M1546.020189,574.536716L1546.170614,574.841587L1546.180350,574.885140L1568.783980,623.766667L1570.013631,626.234725L1575.323930,637.805599L1589.502029,668.250195L1603.247077,699.363043L1606.615786,706.593247L1606.665378,706.622284L1608.379713,710.309987L1645.562815,692.916856L1723.216509,690.129321L1787.843113,665.259435L1895.668324,615.375288L1889.406941,600.116995L1882.034340,581.272925L1881.585572,577.672535L1881.215761,577.875783L1855.124058,542.365782L1846.748065,538.896110L1844.488604,537.604058L1836.779207,523.028597L1827.401815,512.503547L1808.863232,484.006308L1809.253619,480.652861L1546.020189,574.536716Z " data-name="Kenawood-Rockwood"/><path d="M586.077543,1499.365158L624.131431,1517.374223L680.989679,1539.580746L729.988520,1563.414135L784.248192,1580.857246L837.205843,1581.510821L877.015926,1578.446284L884.726099,1541.309058L890.185140,1514.150009L891.759867,1506.321870L896.504614,1486.613660L897.373332,1480.354122L898.377035,1476.984726L905.386910,1453.413607L905.693159,1452.367943L905.967348,1451.423942L912.500043,1429.479644L915.394546,1419.705710L916.982145,1414.448425L922.053988,1397.660043L922.067730,1397.616475L891.314209,1394.261718L869.819350,1384.662199L854.242102,1372.739099L821.708987,1410.541775L816.049751,1410.556298L810.021958,1402.757541L805.604651,1391.270033L789.769290,1381.656004L739.803896,1348.689762L693.068132,1318.497731L690.461497,1322.883467L689.213777,1324.974681L684.909543,1332.206812L677.323729,1345.218894L676.579540,1346.496870L665.993632,1363.764137L662.376979,1369.674828L647.899645,1393.128943L645.599872,1397.064610L637.915254,1410.280364L634.041613,1416.931837L632.741043,1419.153840L623.420702,1434.126997L620.228090,1439.253618L613.616273,1450.523510L606.197711,1463.158632L601.179265,1472.061349L600.707908,1472.772987L597.383524,1477.870644L597.066381,1478.466098L592.360267,1487.310779L586.609815,1498.348521L586.077543,1499.365158Z " data-name="Brookhaven-Lansdowne"/><path d="M358.093756,1388.539761L364.677485,1393.753421L386.740997,1405.197373L401.467643,1412.473315L404.130683,1413.794896L407.660089,1415.537640L454.842212,1438.919589L463.433750,1442.913423L500.788145,1461.081820L517.630331,1468.735534L533.266084,1475.779297L559.973246,1487.790048L586.077543,1499.365158L586.609815,1498.348521L592.360267,1487.310779L597.066381,1478.466098L597.383524,1477.870644L600.707908,1472.772987L601.179265,1472.061349L606.197711,1463.158632L613.616273,1450.523510L620.228090,1439.253618L623.420702,1434.126997L632.741043,1419.153840L634.041613,1416.931837L637.915254,1410.280364L645.599872,1397.064610L647.899645,1393.128943L662.376979,1369.674828L665.993632,1363.764137L676.579540,1346.496870L677.323729,1345.218894L684.909543,1332.206812L689.213777,1324.974681L690.461497,1322.883467L704.125862,1299.923795L713.830641,1283.775189L718.857058,1275.410487L719.184052,1274.858650L724.154711,1266.857028L726.298043,1263.008708L730.158301,1256.067225L735.755947,1247.383139L737.568336,1244.173811L738.224935,1243.099196L738.547358,1242.561888L746.210806,1230.015063L746.261821,1229.927932L751.500385,1221.302029L753.293681,1218.339604L755.326313,1215.028664L756.674233,1212.806851L757.177810,1211.993639L763.474306,1201.320258L765.976706,1197.079962L766.171604,1196.760488L772.016233,1186.885857L772.313169,1186.392127L776.997388,1178.666710L778.672400,1175.893118L783.270394,1168.254864L785.093898,1165.234420L788.032069,1160.210037L792.860909,1152.324972L860.935839,1038.524492L802.688341,1021.230553L792.657027,1018.268379L782.284554,1013.781565L770.693668,1006.230959L764.615736,1001.657046L753.480459,987.456191L737.136825,963.178447L732.673797,960.042106L732.198732,960.317987L732.081757,960.390588L722.407851,966.082470L710.483899,973.240902L702.961987,977.553397L678.423454,991.638029L668.940772,997.431629L667.698490,998.201206L664.201007,1000.379256L663.164578,1001.018151L594.471963,1093.514545L540.310344,1162.054246L503.094221,1212.008161L490.740724,1230.581411L475.321189,1248.515844L460.560141,1266.450413L443.279501,1288.233471L423.472977,1305.543884L406.223131,1320.937477L399.012060,1335.663139L358.093756,1388.539761Z " data-name="Southland-Deerfield-Open Gates"/><path d="M871.086389,746.853410L871.013144,747.419642L870.973142,748.029430L870.954982,748.421436L870.909280,748.900556L870.880478,749.437750L870.850565,749.829757L870.816618,750.308877L870.764512,751.180004L870.694601,752.181800L870.656064,752.675439L870.561741,753.865980L870.488353,755.027485L870.393127,756.406772L870.315708,757.655391L870.226537,758.904010L870.146548,760.123592L870.061415,761.285100L869.985463,762.417570L869.909513,763.550041L869.833564,764.682513L869.757617,765.814985L869.671934,766.903901L868.897634,775.673323L869.020742,776.399270L868.916925,777.880202L868.812208,779.549882L868.722165,780.987260L868.617796,782.395601L868.520594,783.818461L868.430000,785.183246L868.336833,786.518995L868.250833,787.869263L868.136737,789.234050L868.074247,790.584320L867.964745,791.934590L867.862409,793.299380L867.816171,793.705914L868.175267,794.243119L868.599957,795.056186L868.886517,795.636948L869.535309,796.856550L870.144251,798.090671L870.793047,799.310274L871.418338,800.529878L872.062548,801.764001L872.699597,802.983606L873.296237,804.145135L874.052506,805.582528L874.801615,807.005402L875.541547,808.457316L876.286071,809.894712L877.004516,811.303070L877.696882,812.682391L878.393840,814.047193L879.095389,815.397477L879.801531,816.733243L880.482153,818.112567L881.174532,819.491891L881.878667,820.871217L882.608889,822.279582L883.305865,823.644390L884.010008,825.023718L884.725909,826.403047L885.418304,827.782376L886.106113,829.176226L886.826610,830.541038L887.507259,831.920370L887.717051,832.297872L888.623839,834.040187L888.920171,834.664517L890.120724,837.002127L891.304941,839.354258L892.486591,841.677353L893.677426,843.971412L894.840171,846.279992L895.374974,847.339907L895.897461,848.327225L896.384687,849.314544L896.900012,850.287344L899.766895,856.501658L907.567139,852.610450L927.608491,841.227253L927.835998,839.949551L927.496587,835.593753L929.173773,834.824230L935.390542,831.963928L946.476082,826.417566L959.761206,819.564487L970.320804,813.190562L972.225335,812.333931L979.988803,807.034441L990.261492,800.341129L1003.821919,791.092486L1019.028971,780.464577L981.451404,713.286287L974.895962,713.983177L920.340593,720.066458L894.905032,720.850462L894.490793,722.941140L893.936361,722.984696L893.546478,723.028252L893.420511,723.463810L891.146589,723.667071L889.600828,723.797738L889.525195,724.668855L889.431005,725.264119L889.255487,726.599832L889.158726,727.166059L888.815215,729.590672L888.459957,732.015288L888.121049,734.425387L887.777557,736.850008L887.498136,738.737439L887.218719,740.624872L886.986674,742.250969L886.826412,743.426986L886.677351,744.530410L885.608888,744.675598L884.780086,744.806266L884.070838,744.893379L883.427520,744.995010L882.737188,745.096641L881.959991,745.212791L880.811825,745.387016L880.018284,745.517685L879.478176,745.590279L877.529305,745.880654L877.047965,745.953247L874.826744,746.287179L873.706676,746.446885L872.964739,746.563035L872.546756,746.621110L871.915192,746.722741L871.276464,746.809854L871.086389,746.853410Z " data-name="Southern Park"/><path d="M1306.523302,850.664849L1336.460301,847.949721L1343.457328,847.194713L1347.856164,846.962403L1364.610084,845.162000L1379.958679,843.419676L1394.516029,842.098414L1402.672366,841.096579L1431.595508,838.018480L1444.788216,836.552028L1445.736969,829.902190L1446.645897,821.481024L1454.173792,797.466351L1459.193538,781.466386L1459.546702,773.466445L1455.790940,767.571769L1444.789077,760.021960L1432.325645,751.630086L1423.458783,741.713776L1373.668741,788.624251L1324.165054,826.112661L1306.523302,850.664849Z " data-name="Lexington Manor"/><path d="M732.673797,960.042106L737.136825,963.178447L753.480459,987.456191L764.615736,1001.657046L770.693668,1006.230959L782.284554,1013.781565L792.657027,1018.268379L802.688341,1021.230553L860.935839,1038.524492L878.338892,1009.439964L961.179435,870.716236L922.908866,843.898815L907.567139,852.610450L899.766895,856.501658L896.900012,850.287344L883.781237,867.957526L869.688652,876.175586L818.874700,908.017212L732.673797,960.042106Z " data-name="Virginia Ave"/><path d="M959.083308,948.367985L990.520097,994.454965L1007.594328,981.110847L1018.760192,995.776313L1009.738931,1006.289040L1039.682392,1025.107520L982.430337,1088.112771L943.477475,1130.993317L1004.921930,1174.484540L1007.864445,1170.040993L1014.225339,1162.998133L1014.299862,1162.911005L1041.897960,1131.937192L1053.532508,1118.839152L1060.588419,1111.084914L1074.582815,1113.858431L1087.024053,1116.152756L1103.677599,1082.986907L1104.118184,1081.070156L1096.023027,1078.935594L1088.667132,1077.512554L1080.849156,1076.510618L1082.046314,1074.245373L1083.407698,1071.646152L1089.040683,1060.581346L1091.990513,1054.961838L1095.624545,1048.180693L1102.453458,1034.371611L1107.212895,1025.441492L1109.429401,1021.288634L1117.233392,1007.668476L1118.360724,1005.475900L1117.445285,994.193600L1115.670189,975.622211L1109.944401,929.593681L1073.517546,869.845064L1033.679160,897.795320L1006.745215,917.455077L1016.099085,935.619446L1000.839764,945.449464L990.543972,927.996493L959.083308,948.367985Z " data-name="Mount Vernon-Hollywood-Montclair"/><path d="M1123.873714,571.023442L1123.574315,572.155819L1124.420688,572.489725L1126.111857,575.131940L1133.123752,587.297784L1139.590109,598.476480L1146.676062,610.744073L1149.084865,614.388069L1167.001130,616.231846L1190.294023,600.218620L1256.524977,553.123251L1274.557993,549.319660L1285.070790,552.571584L1306.673277,584.902356L1322.680981,543.091656L1347.375166,496.563631L1402.001344,481.886813L1419.058612,478.083340L1449.873260,478.010755L1495.222401,476.239674L1487.976343,464.147006L1487.933378,464.059904L1476.504984,444.941135L1467.885397,432.659915L1462.608199,426.011244L1454.354994,417.736725L1431.425445,403.437846L1408.235770,394.568231L1364.821302,385.771233L1295.782477,372.793545L1256.533354,364.577285L1247.474987,376.117801L1177.739942,483.294970L1123.873714,571.023442Z " data-name="Eastern State Hospital"/><path d="M1004.921930,1174.484540L1103.749084,1240.412658L1052.349216,1347.368218L1116.631299,1388.365488L1137.496008,1364.664536L1112.898274,1320.066139L1157.633008,1263.037752L1172.492795,1238.481258L1267.652126,1155.069495L1244.467811,1128.858710L1298.505025,1091.728473L1228.609456,978.032563L1227.580613,976.377261L1224.305716,971.077398L1223.963354,970.598233L1217.504993,961.421514L1217.328940,961.160153L1214.027494,955.758684L1211.269201,951.838271L1210.947780,951.330070L1210.638114,950.821868L1201.795001,936.171204L1193.476034,922.653180L1169.856198,938.523435L1115.670189,975.622211L1117.445285,994.193600L1118.360724,1005.475900L1117.233392,1007.668476L1109.429401,1021.288634L1107.212895,1025.441492L1102.453458,1034.371611L1095.624545,1048.180693L1091.990513,1054.961838L1089.040683,1060.581346L1083.407698,1071.646152L1082.046314,1074.245373L1080.849156,1076.510618L1088.667132,1077.512554L1096.023027,1078.935594L1104.118184,1081.070156L1103.677599,1082.986907L1087.024053,1116.152756L1074.582815,1113.858431L1060.588419,1111.084914L1053.532508,1118.839152L1041.897960,1131.937192L1014.299862,1162.911005L1014.225339,1162.998133L1007.864445,1170.040993L1004.921930,1174.484540Z " data-name="Chevy Chase-Ashland Park"/><path d="M1311.518144,572.257442L1337.145331,615.578539L1508.084319,499.859033L1496.062645,477.633311L1495.222401,476.239674L1449.873260,478.010755L1419.058612,478.083340L1402.001344,481.886813L1347.375166,496.563631L1322.680981,543.091656L1311.518144,572.257442Z " data-name="Northland"/><path d="M1256.533354,364.577285L1295.782477,372.793545L1364.821302,385.771233L1408.235770,394.568231L1431.425445,403.437846L1454.354994,417.736725L1454.295691,417.664142L1461.647951,412.626861L1464.684736,410.420333L1472.973242,403.278163L1479.705611,396.745711L1483.288947,392.811732L1457.152815,358.712694L1434.142745,330.115769L1428.248715,323.191593L1423.002366,318.677100L1417.802131,312.754563L1413.558407,304.886904L1409.357186,297.033787L1407.469872,293.825775L1341.420006,236.895208L1340.724813,237.940325L1324.853029,261.644297L1316.598813,273.982653L1311.699970,281.327636L1308.419280,286.233982L1290.604152,312.144891L1272.487140,340.422233L1256.745324,364.315991L1256.533354,364.577285Z " data-name="Hollow Creek"/><path d="M1337.145331,615.578539L1356.856855,648.882914L1386.098377,698.114456L1410.873814,727.645174L1432.325645,751.630086L1524.134578,680.285867L1545.189489,708.016061L1592.481183,675.001197L1589.502029,668.250195L1575.323930,637.805599L1570.013631,626.234725L1568.783980,623.766667L1546.180350,574.885140L1546.170614,574.841587L1546.020189,574.536716L1522.078098,525.699790L1508.084319,499.859033L1337.145331,615.578539Z " data-name="Castlewood Park"/></g><g fill="#000" font-family="Arial" font-size="12px" id="mylayer-label" stroke="none"><text text-anchor="middle" y="818.53023629"><tspan dy="0" x="734.554774712"><![CDATA[Cardinal Hill-Pine Meadow]]></tspan></text><text text-anchor="middle" y="1903.56876336"><tspan dy="0" x="897.130446295"><![CDATA[Southeastern Hills]]></tspan></text><text text-anchor="middle" y="889.522272243"><tspan dy="0" x="477.160857194"><![CDATA[Gardenside-Colony]]></tspan></text><text text-anchor="middle" y="1297.13544901"><tspan dy="0" x="831.59233102"><![CDATA[Crestwood-Hinda Heights]]></tspan></text><text text-anchor="middle" y="1364.44883849"><tspan dy="0" x="1138.72103441"><![CDATA[Reservorir]]></tspan></text><text text-anchor="middle" y="425.793381998"><tspan dy="0" x="1032.03551712"><![CDATA[Douglas High School]]></tspan></text><text text-anchor="middle" y="205.254528888"><tspan dy="0" x="1823.59494573"><![CDATA[Thoroughbred Acres-Kingston]]></tspan></text><text text-anchor="middle" y="424.999107058"><tspan dy="0" x="1169.51176575"><![CDATA[Douglas Park]]></tspan></text><text text-anchor="middle" y="354.865902964"><tspan dy="0" x="1241.86111778"><![CDATA[Meadowthorpe]]></tspan></text><text text-anchor="middle" y="541.012232724"><tspan dy="0" x="1053.5108762"><![CDATA[Lexington Cemetery]]></tspan></text><text text-anchor="middle" y="790.542099438"><tspan dy="0" x="1126.27785179"><![CDATA[Central Downtown]]></tspan></text><text text-anchor="middle" y="751.969635212"><tspan dy="0" x="1802.71207281"><![CDATA[Eastland Park-Dixie Plantation]]></tspan></text><text text-anchor="middle" y="1202.32069142"><tspan dy="0" x="444.703446363"><![CDATA[Twin Oaks]]></tspan></text><text text-anchor="middle" y="926.049505415"><tspan dy="0" x="1381.05484137"><![CDATA[Fairway-Liberty Heights]]></tspan></text><text text-anchor="middle" y="689.523794739"><tspan dy="0" x="1266.77056573"><![CDATA[Duncan Park]]></tspan></text><text text-anchor="middle" y="1523.09670348"><tspan dy="0" x="273.480834855"><![CDATA[Indian Hills-Stonewall Estates-Monticello]]></tspan></text><text text-anchor="middle" y="1034.45951322"><tspan dy="0" x="377.753148356"><![CDATA[Garden Springs]]></tspan></text><text text-anchor="middle" y="461.118018407"><tspan dy="0" x="1645.926774"><![CDATA[Warrenton-Harmitage Hills-Pinehurst]]></tspan></text><text text-anchor="middle" y="1712.58089795"><tspan dy="0" x="634.364142226"><![CDATA[Blueberry Hill-Brigadoon-Stoneybrook-Baralto]]></tspan></text><text text-anchor="middle" y="695.642416001"><tspan dy="0" x="437.882564269"><![CDATA[Holiday Hills]]></tspan></text><text text-anchor="middle" y="324.117274465"><tspan dy="0" x="1606.49510467"><![CDATA[Elkhorn Parks-Radcliff]]></tspan></text><text text-anchor="middle" y="755.859773053"><tspan dy="0" x="1531.94998686"><![CDATA[Eastland]]></tspan></text><text text-anchor="middle" y="1749.81674337"><tspan dy="0" x="841.990442803"><![CDATA[Jamestown]]></tspan></text><text text-anchor="middle" y="1057.00579579"><tspan dy="0" x="928.570377376"><![CDATA[University Of Kentucky]]></tspan></text><text text-anchor="middle" y="1342.97467129"><tspan dy="0" x="1459.31644146"><![CDATA[Idle Hour]]></tspan></text><text text-anchor="middle" y="186.985033758"><tspan dy="0" x="1501.03821332"><![CDATA[Marriott's Griffin Gate Golf Culb]]></tspan></text><text text-anchor="middle" y="592.783377827"><tspan dy="0" x="1720.39543101"><![CDATA[Kenawood-Rockwood]]></tspan></text><text text-anchor="middle" y="1459.00463355"><tspan dy="0" x="760.964730062"><![CDATA[Brookhaven-Lansdowne]]></tspan></text><text text-anchor="middle" y="1230.88842924"><tspan dy="0" x="615.699029255"><![CDATA[Southland-Deerfield-Open Gates]]></tspan></text><text text-anchor="middle" y="769.663655497"><tspan dy="0" x="935.107464833"><![CDATA[Southern Park]]></tspan></text><text text-anchor="middle" y="799.960876363"><tspan dy="0" x="1398.10849887"><![CDATA[Lexington Manor]]></tspan></text><text text-anchor="middle" y="939.288632638"><tspan dy="0" x="851.579997657"><![CDATA[Virginia Ave]]></tspan></text><text text-anchor="middle" y="1013.63787318"><tspan dy="0" x="1042.84587719"><![CDATA[Mount Vernon-Hollywood-Montclair]]></tspan></text><text text-anchor="middle" y="471.43649947"><tspan dy="0" x="1289.2616783"><![CDATA[Eastern State Hospital]]></tspan></text><text text-anchor="middle" y="1126.04160963"><tspan dy="0" x="1153.99384458"><![CDATA[Chevy Chase-Ashland Park]]></tspan></text><text text-anchor="middle" y="525.674145086"><tspan dy="0" x="1396.8550284"><![CDATA[Northland]]></tspan></text><text text-anchor="middle" y="330.856642361"><tspan dy="0" x="1368.5386132"><![CDATA[Hollow Creek]]></tspan></text><text text-anchor="middle" y="624.11674832"><tspan dy="0" x="1466.96305139"><![CDATA[Castlewood Park]]></tspan></text></g></svg>