<?xml version="1.0" encoding="utf-8"?><!DOCTYPE svg  PUBLIC '-//W3C//DTD SVG 1.1//EN'  'http://www.w3.org/Graphics/SVG/1.1/DTD/svg11.dtd'><svg enable_background="new 0 0 2000 1176" height="1176px" pretty_print="False" style="stroke-linejoin: round; stroke:#000; fill: none;" version="1.1" viewBox="0 0 2000 1176" width="2000px" xmlns="http://www.w3.org/2000/svg" xmlns:xlink="http://www.w3.org/1999/xlink"><defs><style type="text/css"><![CDATA[path { fill-rule: evenodd; }]]></style></defs><metadata><views><view h="1176.21997034" padding="0" w="2000"><proj flip="auto" id="robinson" lon0="-0.07521"/><bbox h="1.96" w="3.34" x="-3.28" y="-860.54"/></view></views></metadata><g class="" id="mylayer"><circle cx="1387.59773744" cy="492.832781516" data-name="Aldgate" r="2"/><circle cx="1410.25200483" cy="483.290785216" data-name="Aldgate East" r="2"/><circle cx="1078.15607195" cy="515.579586851" data-name="Aldwych" r="2"/><circle cx="1154.97288654" cy="316.845063186" data-name="Angel" r="2"/><circle cx="934.149664087" cy="0.192709210675" data-name="Archway" r="2"/><circle cx="1154.67309087" cy="66.8714786772" data-name="Arsenal" r="2"/><circle cx="762.738327154" cy="413.703392199" data-name="Baker Street" r="2"/><circle cx="790.247109718" cy="1174.21997034" data-name="Balham" r="2"/><circle cx="1283.84329536" cy="501.121834344" data-name="Bank (N)" r="2"/><circle cx="1271.82367158" cy="520.591638055" data-name="Bank (S)" r="2"/><circle cx="1215.62623116" cy="435.196130042" data-name="Barbican" r="2"/><circle cx="334.98445925" cy="723.882036728" data-name="Barons Court" r="2"/><circle cx="530.518861876" cy="510.374780978" data-name="Bayswater" r="2"/><circle cx="711.467694689" cy="146.080190437" data-name="Belsize Park" r="2"/><circle cx="1471.90620302" cy="651.006846555" data-name="Bermondsey" r="2"/><circle cx="1540.48881676" cy="369.080373306" data-name="Bethnal Green" r="2"/><circle cx="1171.64470393" cy="519.04946679" data-name="Blackfriars" r="2"/><circle cx="822.1005569" cy="495.242385492" data-name="Bond Street" r="2"/><circle cx="1244.55621017" cy="622.089036088" data-name="Borough" r="2"/><circle cx="1766.96878316" cy="371.393415157" data-name="Bow Rd" r="2"/><circle cx="1870.7076489" cy="392.69283177" data-name="Bromley-By-Bow" r="2"/><circle cx="1057.95786436" cy="160.823847543" data-name="Caledonian Rd" r="2"/><circle cx="875.053943672" cy="252.565190049" data-name="Camden Town" r="2"/><circle cx="1581.06607119" cy="651.48881447" data-name="Canada Water" r="2"/><circle cx="790.211398777" cy="206.404764902" data-name="Chalk Farm" r="2"/><circle cx="1110.65169946" cy="454.95428132" data-name="Chancery Lane" r="2"/><circle cx="1010.33188269" cy="548.736523392" data-name="Charing Cross (E)" r="2"/><circle cx="988.434999473" cy="556.447536843" data-name="Charing Cross (W)" r="2"/><circle cx="903.394556697" cy="1001.72493369" data-name="Clapham Common" r="2"/><circle cx="973.221864182" cy="968.94429658" data-name="Clapham North" r="2"/><circle cx="834.12680462" cy="1086.47562645" data-name="Clapham South" r="2"/><circle cx="1013.78232132" cy="507.868769342" data-name="Covent Garden" r="2"/><circle cx="146.683966899" cy="126.711277281" data-name="Dollis Hill" r="2"/><circle cx="488.564693531" cy="708.265646325" data-name="Earls Court (N)" r="2"/><circle cx="472.203162418" cy="723.207251289" data-name="Earls Court (S)" r="2"/><circle cx="78.1768374911" cy="469.12247088" data-name="East Acton" r="2"/><circle cx="355.055863818" cy="1028.52842292" data-name="East Putney" r="2"/><circle cx="684.430444977" cy="439.051360021" data-name="Edgeware Road (S)" r="2"/><circle cx="666.649320339" cy="435.196130042" data-name="Edgware Road (N)" r="2"/><circle cx="1195.04138091" cy="671.153228667" data-name="Elephant &amp;amp; Castle (N)" r="2"/><circle cx="1199.51996907" cy="682.14227081" data-name="Elephant &amp;amp; Castle (S)" r="2"/><circle cx="1027.954743" cy="564.833305941" data-name="Embankment" r="2"/><circle cx="955.902615205" cy="360.599248287" data-name="Euston" r="2"/><circle cx="929.738428539" cy="386.042757406" data-name="Euston Square" r="2"/><circle cx="1162.04245579" cy="436.738220925" data-name="Farringdon" r="2"/><circle cx="588.411482316" cy="177.398577386" data-name="Finchley Rd" r="2"/><circle cx="1148.33271875" cy="0.0" data-name="Finsbury Park" r="2"/><circle cx="477.791154288" cy="822.210944917" data-name="Fulham Broadway" r="2"/><circle cx="566.666031268" cy="681.660293702" data-name="Gloucester Road" r="2"/><circle cx="235.092508238" cy="610.32927529" data-name="Goldhawk Rd" r="2"/><circle cx="936.615843387" cy="434.810607553" data-name="Goodge Street" r="2"/><circle cx="865.351997832" cy="401.945154857" data-name="Great Portland Street" r="2"/><circle cx="880.340777258" cy="564.062198911" data-name="Green Park" r="2"/><circle cx="249.880880086" cy="693.709764773" data-name="Hammersmith" r="2"/><circle cx="604.61813983" cy="85.1797158243" data-name="Hampstead" r="2"/><circle cx="0.85090453297" cy="287.355027722" data-name="Harlesdon" r="2"/><circle cx="497.177116798" cy="621.607076988" data-name="High St Kensington" r="2"/><circle cx="1173.06311453" cy="187.516955581" data-name="Highbury &amp;amp; Islington" r="2"/><circle cx="1047.40940228" cy="463.435903619" data-name="Holborn" r="2"/><circle cx="391.816347981" cy="562.327209445" data-name="Holland Park" r="2"/><circle cx="1098.71245397" cy="123.242242788" data-name="Holloway Rd" r="2"/><circle cx="790.987088362" cy="608.305062848" data-name="Hyde Park Corner" r="2"/><circle cx="1158.50770144" cy="743.836534244" data-name="Kennington" r="2"/><circle cx="254.760984011" cy="337.372759658" data-name="Kensal Green" r="2"/><circle cx="361.375081385" cy="653.320293867" data-name="Kensington" r="2"/><circle cx="892.696968393" cy="145.598373854" data-name="Kentish Town" r="2"/><circle cx="405.809122745" cy="178.458594979" data-name="Kilburn" r="2"/><circle cx="485.699278177" cy="288.704233241" data-name="Kilburn Park" r="2"/><circle cx="1019.83598589" cy="336.312637468" data-name="King&amp;apos;s Cross" r="2"/><circle cx="738.8328656" cy="617.269451587" data-name="Knightsbridge" r="2"/><circle cx="360.165322024" cy="464.110580039" data-name="Ladbroke Grove" r="2"/><circle cx="1109.69275263" cy="641.560304587" data-name="Lambeth North" r="2"/><circle cx="624.838646776" cy="516.832598188" data-name="Lancaster Gate" r="2"/><circle cx="300.906802397" cy="503.04952717" data-name="Latimer Rd" r="2"/><circle cx="986.559579002" cy="523.483213162" data-name="Leicester Square" r="2"/><circle cx="1334.10334" cy="462.279316127" data-name="Liverpool Street" r="2"/><circle cx="1293.91182633" cy="579.677188346" data-name="London Bridge" r="2"/><circle cx="1239.90455343" cy="512.206099642" data-name="Mansion House" r="2"/><circle cx="756.426534682" cy="499.001374903" data-name="Marble Arch" r="2"/><circle cx="719.187276342" cy="415.245462485" data-name="Marylebone" r="2"/><circle cx="1698.9445581" cy="391.247161093" data-name="Mile End" r="2"/><circle cx="1301.46532766" cy="524.254300735" data-name="Monument" r="2"/><circle cx="1281.66251555" cy="456.49639114" data-name="Moorgate" r="2"/><circle cx="904.804090405" cy="300.461643472" data-name="Mornington Cres" r="2"/><circle cx="61.221386843" cy="112.160654847" data-name="Neasden" r="2"/><circle cx="1713.90334432" cy="862.026224982" data-name="New Cross" r="2"/><circle cx="1655.20802815" cy="865.496853076" data-name="New Cross Gate" r="2"/><circle cx="1994.74923786" cy="652.356357082" data-name="North Greenwich" r="2"/><circle cx="1294.01286734" cy="383.826072057" data-name="Old Street" r="2"/><circle cx="1099.77686792" cy="806.497195665" data-name="Oval" r="2"/><circle cx="883.750631323" cy="485.7003749" data-name="Oxford Circus" r="2"/><circle cx="624.574312624" cy="478.471616677" data-name="Paddington (N)" r="2"/><circle cx="626.470790706" cy="482.037800007" data-name="Paddington (S)" r="2"/><circle cx="430.522605613" cy="869.449521989" data-name="Parsons Green" r="2"/><circle cx="939.724956314" cy="539.868903633" data-name="Piccadilly Circus" r="2"/><circle cx="944.892097815" cy="735.257033925" data-name="Pimlico" r="2"/><circle cx="371.364922157" cy="936.742793321" data-name="Putney Bridge" r="2"/><circle cx="403.908256729" cy="305.280279024" data-name="Queens Park" r="2"/><circle cx="533.461774394" cy="529.748310394" data-name="Queensway" r="2"/><circle cx="164.672431257" cy="687.154841304" data-name="Ravenscourt Park" r="2"/><circle cx="843.004059151" cy="405.800305175" data-name="Regents Park" r="2"/><circle cx="1562.07054722" cy="623.342130425" data-name="Rotherhithe" r="2"/><circle cx="526.639238185" cy="444.834222307" data-name="Royal Oak" r="2"/><circle cx="1012.71401342" cy="410.040981192" data-name="Russell Square" r="2"/><circle cx="1525.54257902" cy="518.374767327" data-name="Shadwell" r="2"/><circle cx="301.635505192" cy="586.617232326" data-name="Shepherd&amp;apos;s Bush" r="2"/><circle cx="238.025545454" cy="576.978290443" data-name="Shepherd&amp;apos;s Bush" r="2"/><circle cx="1419.40313262" cy="410.908393572" data-name="Shoreditch" r="2"/><circle cx="771.134037045" cy="705.373738832" data-name="Sloane Square" r="2"/><circle cx="639.029554206" cy="687.63682006" data-name="South Kensington" r="2"/><circle cx="390.944093554" cy="1155.70647829" data-name="Southfields" r="2"/><circle cx="944.21019028" cy="635.680342212" data-name="St James&amp;apos;s Park" r="2"/><circle cx="633.958799315" cy="295.932139201" data-name="St John&amp;apos;s Wood" r="2"/><circle cx="1009.57538038" cy="337.469134437" data-name="St Pancras" r="2"/><circle cx="1220.23082353" cy="490.423181149" data-name="St Paul&amp;apos;s" r="2"/><circle cx="93.2282313465" cy="677.80448204" data-name="Stamford Brook" r="2"/><circle cx="1602.71898765" cy="419.389783701" data-name="Stepney Green" r="2"/><circle cx="1023.68459288" cy="898.178968948" data-name="Stockwell" r="2"/><circle cx="1943.97502031" cy="230.01483797" data-name="Stratford" r="2"/><circle cx="1597.16880412" cy="697.180029199" data-name="Surrey Quays" r="2"/><circle cx="625.685460565" cy="212.668628114" data-name="Swiss Cottage" r="2"/><circle cx="1096.01225556" cy="524.350686708" data-name="Temple" r="2"/><circle cx="965.085753054" cy="475.772888601" data-name="Tottenham Court Road" r="2"/><circle cx="1383.55114659" cy="533.603766976" data-name="Tower Hill" r="2"/><circle cx="912.047186101" cy="84.6979174461" data-name="Tufnell Park" r="2"/><circle cx="20.8560610845" cy="679.635991426" data-name="Turnham Green" r="2"/><circle cx="1008.9553874" cy="766.490491259" data-name="Vauxhall" r="2"/><circle cx="860.567516734" cy="665.369552457" data-name="Victoria" r="2"/><circle cx="1536.46473757" cy="588.930586976" data-name="Wapping" r="2"/><circle cx="910.348814314" cy="397.511743407" data-name="Warren Street" r="2"/><circle cx="564.988590912" cy="405.029274373" data-name="Warwick Ave" r="2"/><circle cx="1087.68094533" cy="592.882575537" data-name="Waterloo" r="2"/><circle cx="469.885057935" cy="755.693671899" data-name="West Brompton" r="2"/><circle cx="1999.14909547" cy="357.707965881" data-name="West Ham" r="2"/><circle cx="510.897597941" cy="182.120479303" data-name="West Hampstead" r="2"/><circle cx="391.318838708" cy="721.568487832" data-name="West Kensington" r="2"/><circle cx="430.059148871" cy="426.521896364" data-name="Westbourne Park" r="2"/><circle cx="1010.81216077" cy="619.197283654" data-name="Westminster" r="2"/><circle cx="253.084890706" cy="512.784411233" data-name="White City" r="2"/><circle cx="1496.60898245" cy="446.472703733" data-name="Whitechapel" r="2"/><circle cx="277.870809077" cy="157.836559716" data-name="Willesden Green" r="2"/><circle cx="97.8495479133" cy="320.121767134" data-name="Willesden Junction" r="2"/></g><g fill="#000" font-family="Arial" font-size="12px" id="mylayer-label" stroke="none"><text text-anchor="middle" y="486.832781516"><tspan dy="0" x="1387.59773744"><![CDATA[Aldgate]]></tspan></text><text text-anchor="middle" y="477.290785216"><tspan dy="0" x="1410.25200483"><![CDATA[Aldgate East]]></tspan></text><text text-anchor="middle" y="509.579586851"><tspan dy="0" x="1078.15607195"><![CDATA[Aldwych]]></tspan></text><text text-anchor="middle" y="310.845063186"><tspan dy="0" x="1154.97288654"><![CDATA[Angel]]></tspan></text><text text-anchor="middle" y="-5.80729078932"><tspan dy="0" x="934.149664087"><![CDATA[Archway]]></tspan></text><text text-anchor="middle" y="60.8714786772"><tspan dy="0" x="1154.67309087"><![CDATA[Arsenal]]></tspan></text><text text-anchor="middle" y="407.703392199"><tspan dy="0" x="762.738327154"><![CDATA[Baker Street]]></tspan></text><text text-anchor="middle" y="1168.21997034"><tspan dy="0" x="790.247109718"><![CDATA[Balham]]></tspan></text><text text-anchor="middle" y="495.121834344"><tspan dy="0" x="1283.84329536"><![CDATA[Bank (N)]]></tspan></text><text text-anchor="middle" y="514.591638055"><tspan dy="0" x="1271.82367158"><![CDATA[Bank (S)]]></tspan></text><text text-anchor="middle" y="429.196130042"><tspan dy="0" x="1215.62623116"><![CDATA[Barbican]]></tspan></text><text text-anchor="middle" y="717.882036728"><tspan dy="0" x="334.98445925"><![CDATA[Barons Court]]></tspan></text><text text-anchor="middle" y="504.374780978"><tspan dy="0" x="530.518861876"><![CDATA[Bayswater]]></tspan></text><text text-anchor="middle" y="140.080190437"><tspan dy="0" x="711.467694689"><![CDATA[Belsize Park]]></tspan></text><text text-anchor="middle" y="645.006846555"><tspan dy="0" x="1471.90620302"><![CDATA[Bermondsey]]></tspan></text><text text-anchor="middle" y="363.080373306"><tspan dy="0" x="1540.48881676"><![CDATA[Bethnal Green]]></tspan></text><text text-anchor="middle" y="513.04946679"><tspan dy="0" x="1171.64470393"><![CDATA[Blackfriars]]></tspan></text><text text-anchor="middle" y="489.242385492"><tspan dy="0" x="822.1005569"><![CDATA[Bond Street]]></tspan></text><text text-anchor="middle" y="616.089036088"><tspan dy="0" x="1244.55621017"><![CDATA[Borough]]></tspan></text><text text-anchor="middle" y="365.393415157"><tspan dy="0" x="1766.96878316"><![CDATA[Bow Rd]]></tspan></text><text text-anchor="middle" y="386.69283177"><tspan dy="0" x="1870.7076489"><![CDATA[Bromley-By-Bow]]></tspan></text><text text-anchor="middle" y="154.823847543"><tspan dy="0" x="1057.95786436"><![CDATA[Caledonian Rd]]></tspan></text><text text-anchor="middle" y="246.565190049"><tspan dy="0" x="875.053943672"><![CDATA[Camden Town]]></tspan></text><text text-anchor="middle" y="645.48881447"><tspan dy="0" x="1581.06607119"><![CDATA[Canada Water]]></tspan></text><text text-anchor="middle" y="200.404764902"><tspan dy="0" x="790.211398777"><![CDATA[Chalk Farm]]></tspan></text><text text-anchor="middle" y="448.95428132"><tspan dy="0" x="1110.65169946"><![CDATA[Chancery Lane]]></tspan></text><text text-anchor="middle" y="542.736523392"><tspan dy="0" x="1010.33188269"><![CDATA[Charing Cross (E)]]></tspan></text><text text-anchor="middle" y="550.447536843"><tspan dy="0" x="988.434999473"><![CDATA[Charing Cross (W)]]></tspan></text><text text-anchor="middle" y="995.724933692"><tspan dy="0" x="903.394556697"><![CDATA[Clapham Common]]></tspan></text><text text-anchor="middle" y="962.94429658"><tspan dy="0" x="973.221864182"><![CDATA[Clapham North]]></tspan></text><text text-anchor="middle" y="1080.47562645"><tspan dy="0" x="834.12680462"><![CDATA[Clapham South]]></tspan></text><text text-anchor="middle" y="501.868769342"><tspan dy="0" x="1013.78232132"><![CDATA[Covent Garden]]></tspan></text><text text-anchor="middle" y="120.711277281"><tspan dy="0" x="146.683966899"><![CDATA[Dollis Hill]]></tspan></text><text text-anchor="middle" y="702.265646325"><tspan dy="0" x="488.564693531"><![CDATA[Earls Court (N)]]></tspan></text><text text-anchor="middle" y="717.207251289"><tspan dy="0" x="472.203162418"><![CDATA[Earls Court (S)]]></tspan></text><text text-anchor="middle" y="463.12247088"><tspan dy="0" x="78.1768374911"><![CDATA[East Acton]]></tspan></text><text text-anchor="middle" y="1022.52842292"><tspan dy="0" x="355.055863818"><![CDATA[East Putney]]></tspan></text><text text-anchor="middle" y="433.051360021"><tspan dy="0" x="684.430444977"><![CDATA[Edgeware Road (S)]]></tspan></text><text text-anchor="middle" y="429.196130042"><tspan dy="0" x="666.649320339"><![CDATA[Edgware Road (N)]]></tspan></text><text text-anchor="middle" y="665.153228667"><tspan dy="0" x="1195.04138091"><![CDATA[Elephant &amp; Castle (N)]]></tspan></text><text text-anchor="middle" y="676.14227081"><tspan dy="0" x="1199.51996907"><![CDATA[Elephant &amp; Castle (S)]]></tspan></text><text text-anchor="middle" y="558.833305941"><tspan dy="0" x="1027.954743"><![CDATA[Embankment]]></tspan></text><text text-anchor="middle" y="354.599248287"><tspan dy="0" x="955.902615205"><![CDATA[Euston]]></tspan></text><text text-anchor="middle" y="380.042757406"><tspan dy="0" x="929.738428539"><![CDATA[Euston Square]]></tspan></text><text text-anchor="middle" y="430.738220925"><tspan dy="0" x="1162.04245579"><![CDATA[Farringdon]]></tspan></text><text text-anchor="middle" y="171.398577386"><tspan dy="0" x="588.411482316"><![CDATA[Finchley Rd]]></tspan></text><text text-anchor="middle" y="-6.0"><tspan dy="0" x="1148.33271875"><![CDATA[Finsbury Park]]></tspan></text><text text-anchor="middle" y="816.210944917"><tspan dy="0" x="477.791154288"><![CDATA[Fulham Broadway]]></tspan></text><text text-anchor="middle" y="675.660293702"><tspan dy="0" x="566.666031268"><![CDATA[Gloucester Road]]></tspan></text><text text-anchor="middle" y="604.32927529"><tspan dy="0" x="235.092508238"><![CDATA[Goldhawk Rd]]></tspan></text><text text-anchor="middle" y="428.810607553"><tspan dy="0" x="936.615843387"><![CDATA[Goodge Street]]></tspan></text><text text-anchor="middle" y="395.945154857"><tspan dy="0" x="865.351997832"><![CDATA[Great Portland Street]]></tspan></text><text text-anchor="middle" y="558.062198911"><tspan dy="0" x="880.340777258"><![CDATA[Green Park]]></tspan></text><text text-anchor="middle" y="687.709764773"><tspan dy="0" x="249.880880086"><![CDATA[Hammersmith]]></tspan></text><text text-anchor="middle" y="79.1797158243"><tspan dy="0" x="604.61813983"><![CDATA[Hampstead]]></tspan></text><text text-anchor="middle" y="281.355027722"><tspan dy="0" x="0.85090453297"><![CDATA[Harlesdon]]></tspan></text><text text-anchor="middle" y="615.607076988"><tspan dy="0" x="497.177116798"><![CDATA[High St Kensington]]></tspan></text><text text-anchor="middle" y="181.516955581"><tspan dy="0" x="1173.06311453"><![CDATA[Highbury &amp; Islington]]></tspan></text><text text-anchor="middle" y="457.435903619"><tspan dy="0" x="1047.40940228"><![CDATA[Holborn]]></tspan></text><text text-anchor="middle" y="556.327209445"><tspan dy="0" x="391.816347981"><![CDATA[Holland Park]]></tspan></text><text text-anchor="middle" y="117.242242788"><tspan dy="0" x="1098.71245397"><![CDATA[Holloway Rd]]></tspan></text><text text-anchor="middle" y="602.305062848"><tspan dy="0" x="790.987088362"><![CDATA[Hyde Park Corner]]></tspan></text><text text-anchor="middle" y="737.836534244"><tspan dy="0" x="1158.50770144"><![CDATA[Kennington]]></tspan></text><text text-anchor="middle" y="331.372759658"><tspan dy="0" x="254.760984011"><![CDATA[Kensal Green]]></tspan></text><text text-anchor="middle" y="647.320293867"><tspan dy="0" x="361.375081385"><![CDATA[Kensington]]></tspan></text><text text-anchor="middle" y="139.598373854"><tspan dy="0" x="892.696968393"><![CDATA[Kentish Town]]></tspan></text><text text-anchor="middle" y="172.458594979"><tspan dy="0" x="405.809122745"><![CDATA[Kilburn]]></tspan></text><text text-anchor="middle" y="282.704233241"><tspan dy="0" x="485.699278177"><![CDATA[Kilburn Park]]></tspan></text><text text-anchor="middle" y="330.312637468"><tspan dy="0" x="1019.83598589"><![CDATA[King&apos;s Cross]]></tspan></text><text text-anchor="middle" y="611.269451587"><tspan dy="0" x="738.8328656"><![CDATA[Knightsbridge]]></tspan></text><text text-anchor="middle" y="458.110580039"><tspan dy="0" x="360.165322024"><![CDATA[Ladbroke Grove]]></tspan></text><text text-anchor="middle" y="635.560304587"><tspan dy="0" x="1109.69275263"><![CDATA[Lambeth North]]></tspan></text><text text-anchor="middle" y="510.832598188"><tspan dy="0" x="624.838646776"><![CDATA[Lancaster Gate]]></tspan></text><text text-anchor="middle" y="497.04952717"><tspan dy="0" x="300.906802397"><![CDATA[Latimer Rd]]></tspan></text><text text-anchor="middle" y="517.483213162"><tspan dy="0" x="986.559579002"><![CDATA[Leicester Square]]></tspan></text><text text-anchor="middle" y="456.279316127"><tspan dy="0" x="1334.10334"><![CDATA[Liverpool Street]]></tspan></text><text text-anchor="middle" y="573.677188346"><tspan dy="0" x="1293.91182633"><![CDATA[London Bridge]]></tspan></text><text text-anchor="middle" y="506.206099642"><tspan dy="0" x="1239.90455343"><![CDATA[Mansion House]]></tspan></text><text text-anchor="middle" y="493.001374903"><tspan dy="0" x="756.426534682"><![CDATA[Marble Arch]]></tspan></text><text text-anchor="middle" y="409.245462485"><tspan dy="0" x="719.187276342"><![CDATA[Marylebone]]></tspan></text><text text-anchor="middle" y="385.247161093"><tspan dy="0" x="1698.9445581"><![CDATA[Mile End]]></tspan></text><text text-anchor="middle" y="518.254300735"><tspan dy="0" x="1301.46532766"><![CDATA[Monument]]></tspan></text><text text-anchor="middle" y="450.49639114"><tspan dy="0" x="1281.66251555"><![CDATA[Moorgate]]></tspan></text><text text-anchor="middle" y="294.461643472"><tspan dy="0" x="904.804090405"><![CDATA[Mornington Cres]]></tspan></text><text text-anchor="middle" y="106.160654847"><tspan dy="0" x="61.221386843"><![CDATA[Neasden]]></tspan></text><text text-anchor="middle" y="856.026224982"><tspan dy="0" x="1713.90334432"><![CDATA[New Cross]]></tspan></text><text text-anchor="middle" y="859.496853076"><tspan dy="0" x="1655.20802815"><![CDATA[New Cross Gate]]></tspan></text><text text-anchor="middle" y="646.356357082"><tspan dy="0" x="1994.74923786"><![CDATA[North Greenwich]]></tspan></text><text text-anchor="middle" y="377.826072057"><tspan dy="0" x="1294.01286734"><![CDATA[Old Street]]></tspan></text><text text-anchor="middle" y="800.497195665"><tspan dy="0" x="1099.77686792"><![CDATA[Oval]]></tspan></text><text text-anchor="middle" y="479.7003749"><tspan dy="0" x="883.750631323"><![CDATA[Oxford Circus]]></tspan></text><text text-anchor="middle" y="472.471616677"><tspan dy="0" x="624.574312624"><![CDATA[Paddington (N)]]></tspan></text><text text-anchor="middle" y="476.037800007"><tspan dy="0" x="626.470790706"><![CDATA[Paddington (S)]]></tspan></text><text text-anchor="middle" y="863.449521989"><tspan dy="0" x="430.522605613"><![CDATA[Parsons Green]]></tspan></text><text text-anchor="middle" y="533.868903633"><tspan dy="0" x="939.724956314"><![CDATA[Piccadilly Circus]]></tspan></text><text text-anchor="middle" y="729.257033925"><tspan dy="0" x="944.892097815"><![CDATA[Pimlico]]></tspan></text><text text-anchor="middle" y="930.742793321"><tspan dy="0" x="371.364922157"><![CDATA[Putney Bridge]]></tspan></text><text text-anchor="middle" y="299.280279024"><tspan dy="0" x="403.908256729"><![CDATA[Queens Park]]></tspan></text><text text-anchor="middle" y="523.748310394"><tspan dy="0" x="533.461774394"><![CDATA[Queensway]]></tspan></text><text text-anchor="middle" y="681.154841304"><tspan dy="0" x="164.672431257"><![CDATA[Ravenscourt Park]]></tspan></text><text text-anchor="middle" y="399.800305175"><tspan dy="0" x="843.004059151"><![CDATA[Regents Park]]></tspan></text><text text-anchor="middle" y="617.342130425"><tspan dy="0" x="1562.07054722"><![CDATA[Rotherhithe]]></tspan></text><text text-anchor="middle" y="438.834222307"><tspan dy="0" x="526.639238185"><![CDATA[Royal Oak]]></tspan></text><text text-anchor="middle" y="404.040981192"><tspan dy="0" x="1012.71401342"><![CDATA[Russell Square]]></tspan></text><text text-anchor="middle" y="512.374767327"><tspan dy="0" x="1525.54257902"><![CDATA[Shadwell]]></tspan></text><text text-anchor="middle" y="580.617232326"><tspan dy="0" x="301.635505192"><![CDATA[Shepherd&apos;s Bush]]></tspan></text><text text-anchor="middle" y="570.978290443"><tspan dy="0" x="238.025545454"><![CDATA[Shepherd&apos;s Bush]]></tspan></text><text text-anchor="middle" y="404.908393572"><tspan dy="0" x="1419.40313262"><![CDATA[Shoreditch]]></tspan></text><text text-anchor="middle" y="699.373738832"><tspan dy="0" x="771.134037045"><![CDATA[Sloane Square]]></tspan></text><text text-anchor="middle" y="681.63682006"><tspan dy="0" x="639.029554206"><![CDATA[South Kensington]]></tspan></text><text text-anchor="middle" y="1149.70647829"><tspan dy="0" x="390.944093554"><![CDATA[Southfields]]></tspan></text><text text-anchor="middle" y="629.680342212"><tspan dy="0" x="944.21019028"><![CDATA[St James&apos;s Park]]></tspan></text><text text-anchor="middle" y="289.932139201"><tspan dy="0" x="633.958799315"><![CDATA[St John&apos;s Wood]]></tspan></text><text text-anchor="middle" y="331.469134437"><tspan dy="0" x="1009.57538038"><![CDATA[St Pancras]]></tspan></text><text text-anchor="middle" y="484.423181149"><tspan dy="0" x="1220.23082353"><![CDATA[St Paul&apos;s]]></tspan></text><text text-anchor="middle" y="671.80448204"><tspan dy="0" x="93.2282313465"><![CDATA[Stamford Brook]]></tspan></text><text text-anchor="middle" y="413.389783701"><tspan dy="0" x="1602.71898765"><![CDATA[Stepney Green]]></tspan></text><text text-anchor="middle" y="892.178968948"><tspan dy="0" x="1023.68459288"><![CDATA[Stockwell]]></tspan></text><text text-anchor="middle" y="224.01483797"><tspan dy="0" x="1943.97502031"><![CDATA[Stratford]]></tspan></text><text text-anchor="middle" y="691.180029199"><tspan dy="0" x="1597.16880412"><![CDATA[Surrey Quays]]></tspan></text><text text-anchor="middle" y="206.668628114"><tspan dy="0" x="625.685460565"><![CDATA[Swiss Cottage]]></tspan></text><text text-anchor="middle" y="518.350686708"><tspan dy="0" x="1096.01225556"><![CDATA[Temple]]></tspan></text><text text-anchor="middle" y="469.772888601"><tspan dy="0" x="965.085753054"><![CDATA[Tottenham Court Road]]></tspan></text><text text-anchor="middle" y="527.603766976"><tspan dy="0" x="1383.55114659"><![CDATA[Tower Hill]]></tspan></text><text text-anchor="middle" y="78.6979174461"><tspan dy="0" x="912.047186101"><![CDATA[Tufnell Park]]></tspan></text><text text-anchor="middle" y="673.635991426"><tspan dy="0" x="20.8560610845"><![CDATA[Turnham Green]]></tspan></text><text text-anchor="middle" y="760.490491259"><tspan dy="0" x="1008.9553874"><![CDATA[Vauxhall]]></tspan></text><text text-anchor="middle" y="659.369552457"><tspan dy="0" x="860.567516734"><![CDATA[Victoria]]></tspan></text><text text-anchor="middle" y="582.930586976"><tspan dy="0" x="1536.46473757"><![CDATA[Wapping]]></tspan></text><text text-anchor="middle" y="391.511743407"><tspan dy="0" x="910.348814314"><![CDATA[Warren Street]]></tspan></text><text text-anchor="middle" y="399.029274373"><tspan dy="0" x="564.988590912"><![CDATA[Warwick Ave]]></tspan></text><text text-anchor="middle" y="586.882575537"><tspan dy="0" x="1087.68094533"><![CDATA[Waterloo]]></tspan></text><text text-anchor="middle" y="749.693671899"><tspan dy="0" x="469.885057935"><![CDATA[West Brompton]]></tspan></text><text text-anchor="middle" y="351.707965881"><tspan dy="0" x="1999.14909547"><![CDATA[West Ham]]></tspan></text><text text-anchor="middle" y="176.120479303"><tspan dy="0" x="510.897597941"><![CDATA[West Hampstead]]></tspan></text><text text-anchor="middle" y="715.568487832"><tspan dy="0" x="391.318838708"><![CDATA[West Kensington]]></tspan></text><text text-anchor="middle" y="420.521896364"><tspan dy="0" x="430.059148871"><![CDATA[Westbourne Park]]></tspan></text><text text-anchor="middle" y="613.197283654"><tspan dy="0" x="1010.81216077"><![CDATA[Westminster]]></tspan></text><text text-anchor="middle" y="506.784411233"><tspan dy="0" x="253.084890706"><![CDATA[White City]]></tspan></text><text text-anchor="middle" y="440.472703733"><tspan dy="0" x="1496.60898245"><![CDATA[Whitechapel]]></tspan></text><text text-anchor="middle" y="151.836559716"><tspan dy="0" x="277.870809077"><![CDATA[Willesden Green]]></tspan></text><text text-anchor="middle" y="314.121767134"><tspan dy="0" x="97.8495479133"><![CDATA[Willesden Junction]]></tspan></text></g></svg>