<?xml version="1.0" encoding="utf-8"?><!DOCTYPE svg  PUBLIC '-//W3C//DTD SVG 1.1//EN'  'http://www.w3.org/Graphics/SVG/1.1/DTD/svg11.dtd'><svg enable_background="new 0 0 2000 730" height="730px" pretty_print="False" style="stroke-linejoin: round; stroke:#000; fill: none;" version="1.1" viewBox="0 0 2000 730" width="2000px" xmlns="http://www.w3.org/2000/svg" xmlns:xlink="http://www.w3.org/1999/xlink"><defs><style type="text/css"><![CDATA[path { fill-rule: evenodd; }]]></style></defs><metadata><views><view h="730.855166477" padding="0" w="2000"><proj flip="auto" id="robinson" lon0="101.682273701"/><bbox h="103.7" w="284.16" x="1479.87" y="-118.16"/></view></views></metadata><g class="" id="mylayer"><path d="M174.958726,450.029395L174.239476,452.342432L173.168555,453.599899L172.912765,457.905270L172.816952,458.845924L173.635106,460.144525L175.973030,461.904908L176.781377,461.007273L177.749287,461.427214L177.854274,463.334806L177.466352,463.924940L177.922400,467.250408L176.498082,468.503396L176.684882,470.175264L177.832564,470.028880L177.815803,471.190761L178.721889,471.555071L178.868915,472.162413L182.869722,471.397137L183.501943,470.674762L185.320597,472.664504L185.243950,470.421478L187.177745,470.400380L187.068659,468.297492L186.708362,466.960586L187.350240,464.448364L185.613405,463.302983L185.411445,460.936202L186.775847,457.899848L185.334918,457.685576L185.119933,456.008875L186.684372,456.332052L187.626272,454.534189L186.953164,452.514038L185.489317,451.443500L185.710297,449.463776L184.404497,449.403195L183.313655,451.544508L181.643291,451.261639L181.622810,450.635440L178.548106,450.009241L177.736944,448.150797L174.958726,450.029395Z " data-cartodb-id="1" data-created-at="2013-12-08T09:08:55Z" data-name="Federal Territory of Kuala Lumpur" data-updated-at="2013-12-08T09:08:56Z"/><path d="M10.270320,92.763262L13.229074,86.166852L20.536254,75.228271L26.684339,69.759689L26.310669,59.467232L20.095752,52.231421L21.154138,44.996435L17.601618,39.691448L11.448522,42.102795L8.087842,37.762512L4.979910,41.138209L5.947650,46.121904L4.696468,46.764961L6.983088,55.286415L4.557862,55.286415L5.012806,67.186397L1.370135,74.263213L7.168333,89.143233L10.270320,92.763262Z " data-cartodb-id="12" data-created-at="2013-12-08T09:08:55Z" data-name="Perlis" data-updated-at="2013-12-08T09:08:56Z"/><path d="M1724.837214,0.000000L1717.446097,37.923276L1663.711485,105.475203L1658.445937,144.753587L1643.549921,154.415836L1643.362487,172.455749L1628.921617,180.188588L1614.612387,168.589624L1590.748887,204.036756L1612.948940,225.313394L1598.517988,245.304567L1618.967557,243.047151L1625.601049,267.883074L1614.526933,287.241105L1619.586587,316.286446L1629.262395,321.773866L1625.145257,338.238127L1630.344208,345.987081L1639.067732,330.167056L1644.625551,333.072590L1651.460157,313.704206L1672.058219,326.938815L1679.753270,314.027030L1700.590008,313.704206L1708.790108,324.356223L1722.057600,314.672561L1769.456044,320.482688L1793.196871,314.995267L1815.640071,337.269538L1830.567623,338.883893L1835.466545,327.261639L1832.013895,314.349737L1868.297007,333.072590L1925.824504,316.931976L1951.045657,306.603607L1898.521394,283.369099L1881.674888,254.335287L1902.601646,238.856250L1919.209296,251.109870L1977.186985,234.341769L1998.629865,218.220554L1994.022214,195.656738L1980.981547,186.633189L1972.187794,193.078497L1875.702691,140.244993L1863.530831,116.419207L1828.643835,135.736753L1816.570070,103.544144L1831.577635,96.463908L1830.164708,72.011333L1807.266414,51.427481L1801.294505,56.572766L1785.049963,52.070656L1777.054738,14.137823L1765.089812,5.140565L1757.301256,8.353728L1751.989201,43.067381L1728.100682,54.000064L1732.022653,14.780526L1724.837214,0.000000Z " data-cartodb-id="13" data-created-at="2013-12-08T09:08:55Z" data-name="Sabah" data-updated-at="2013-12-08T09:08:56Z"/><path d="M180.190000,480.313256L179.370858,480.394110L178.482213,481.121434L178.701010,481.848876L179.817950,482.737907L179.782297,483.323915L179.387415,483.263217L179.355500,485.142403L179.741018,486.071861L179.657774,486.859884L179.375606,486.981164L179.427944,487.526745L178.826674,487.728760L178.410721,488.739070L179.142856,491.103258L179.738098,490.699110L180.027313,491.406280L181.046325,490.840544L181.420628,489.628101L182.323131,489.345233L182.750899,488.132908L182.277305,487.829768L182.597040,487.183178L183.274692,487.142752L183.269920,485.223257L185.895720,485.223257L185.802418,482.172171L183.961963,482.151899L184.056529,481.161861L182.481651,481.646862L182.330970,480.232403L182.603738,479.808101L181.939140,479.686939L181.168042,480.171822L181.248578,481.626589L180.302490,481.646862L180.190000,480.313256Z " data-cartodb-id="3" data-created-at="2013-12-08T09:08:55Z" data-name="Federal Territory of Putrajaya" data-updated-at="2013-12-08T09:08:56Z"/><path d="M28.820985,173.059794L31.928269,173.905575L32.283316,172.294631L36.517787,174.388812L48.559069,175.516520L49.194708,199.202040L53.005405,224.184980L51.320155,224.829805L47.095822,222.895330L47.187884,225.837410L49.992151,227.127060L49.248840,228.094357L49.095739,229.505051L53.462562,231.439644L56.669664,229.666169L59.364219,225.958337L60.595436,221.444444L63.965545,220.154911L66.767235,212.417717L70.094106,210.161241L71.807585,203.714402L79.801896,203.714402L83.670061,200.813573L83.818463,185.022009L90.553581,182.444122L92.126871,173.100103L88.553815,169.878333L94.011650,164.401617L94.525559,156.992664L90.800616,150.550771L95.149860,148.940416L96.777976,141.050112L98.538482,132.999750L104.014968,134.126751L107.921024,126.238214L106.131564,124.628448L106.837181,118.511738L105.221018,117.545972L107.875735,110.464204L100.148935,107.084497L103.338549,102.256732L106.819340,100.486673L103.554933,92.119615L97.110138,94.533085L90.752942,90.028027L87.970253,94.372202L83.316887,95.498496L80.463683,92.602379L80.582124,95.015849L78.473387,95.659379L76.151735,89.062733L77.578335,86.166852L74.501733,81.662502L74.784407,75.871683L73.108452,70.885511L66.465059,69.277160L64.873757,63.165873L59.783723,69.759689L56.693316,70.724629L47.121488,64.773989L45.490185,66.382222L39.788914,63.648284L39.667513,61.236111L31.861452,62.040169L26.310669,59.467232L26.684339,69.759689L20.536254,75.228271L13.229074,86.166852L10.270320,92.763262L13.201660,95.820261L18.134591,103.383143L19.802694,111.349352L24.598312,117.626355L27.505246,126.238214L30.981325,148.618298L29.050907,157.798018L30.514228,160.133345L32.181535,160.697081L34.713858,164.562735L31.827266,162.307672L28.537047,162.146672L27.514629,163.193645L28.820985,173.059794Z " data-cartodb-id="5" data-created-at="2013-12-08T09:08:55Z" data-name="Kedah" data-updated-at="2013-12-08T09:08:56Z"/><path d="M1112.121054,728.855166L1126.075741,723.999983L1136.612429,720.439508L1145.633956,710.405848L1177.847004,703.285250L1205.940419,708.463845L1211.210417,717.850211L1224.249108,709.111140L1242.323612,713.642440L1251.848026,699.401362L1275.261166,697.135830L1280.666524,661.212369L1308.634098,643.737756L1345.327673,648.591763L1350.656142,643.414226L1371.059788,648.591763L1358.495809,664.448491L1374.739474,661.536016L1378.562942,667.361083L1398.320591,668.979203L1407.358598,679.011687L1422.199195,677.393567L1426.664658,688.073700L1448.795697,677.717215L1446.927062,668.979203L1483.326975,658.299894L1488.594845,664.772138L1507.796367,652.151297L1525.703989,661.536016L1531.383965,645.032111L1540.760916,628.853030L1538.203027,616.881130L1540.654925,611.704299L1547.794511,611.380770L1557.923282,604.586407L1553.873422,602.645228L1557.281441,590.351446L1549.048750,592.616037L1546.190679,581.616845L1548.814807,562.531524L1558.883398,564.795762L1564.150628,558.973519L1564.203676,550.887272L1567.432522,553.798335L1577.705286,543.448437L1589.259786,537.950312L1593.921372,531.482185L1576.600376,525.984412L1576.708606,511.432744L1582.931757,500.762375L1575.931601,496.559192L1582.932602,483.950232L1590.593248,482.333759L1596.551707,472.958804L1599.408071,481.040699L1618.032148,474.251865L1624.570521,457.443134L1618.973976,452.918068L1623.620509,424.802144L1631.970266,426.417793L1624.033687,406.385057L1626.428114,374.405125L1618.766814,368.914646L1628.070724,366.007935L1630.344208,345.987081L1625.145257,338.238127L1629.262395,321.773866L1619.586587,316.286446L1614.526933,287.241105L1625.601049,267.883074L1618.967557,243.047151L1598.517988,245.304567L1595.740268,249.819750L1590.837025,251.754930L1581.890196,249.819750L1580.892796,244.014565L1574.507151,244.820860L1574.807402,248.045924L1569.777222,250.303575L1572.410039,251.593695L1573.049604,255.947996L1581.427023,263.850773L1581.832751,269.334782L1587.670628,284.014394L1586.741377,291.597289L1588.196054,307.571844L1597.837684,318.545861L1593.673014,324.356223L1590.312083,319.514333L1569.954406,314.672561L1560.340005,270.786490L1562.686863,266.108895L1560.795316,262.399183L1559.121259,254.335287L1553.640341,262.076594L1532.459373,273.044729L1540.909102,307.249019L1548.512666,311.122084L1540.815541,343.404018L1522.005617,357.611569L1502.394694,327.261639L1490.483445,329.198584L1480.483015,297.567239L1463.559339,289.822521L1450.992455,289.822521L1452.974625,320.805512L1436.887530,344.695549L1402.111472,387.325145L1355.755241,460.352197L1269.131964,484.273527L1219.278980,497.852488L1193.107012,519.840168L1188.639730,504.965793L1181.146479,503.025790L1180.707991,545.065499L1172.814871,548.946681L1173.737722,583.234259L1164.338579,620.763842L1169.653645,628.529382L1156.066663,635.000920L1154.711875,653.122122L1134.469957,641.472694L1129.501965,650.533295L1101.330546,642.767049L1100.437869,627.235145L1046.810826,633.059506L1014.133717,603.292288L1012.061123,588.410384L1009.692423,596.821808L1002.298017,598.439340L1000.426194,603.939347L1005.894788,618.175367L1017.094354,620.440312L1014.921545,639.531162L1030.125866,657.005422L1034.390631,655.710949L1034.223166,662.183193L1046.003466,665.419433L1049.067602,677.393567L1057.724543,682.248044L1058.388295,688.073700L1071.009016,690.662762L1080.760300,712.995145L1092.201982,713.318793L1096.032592,722.381628L1112.121054,728.855166Z " data-cartodb-id="14" data-created-at="2013-12-08T09:08:55Z" data-name="Sarawak" data-updated-at="2013-12-08T09:08:56Z"/><path d="M37.033031,226.240382L38.394242,226.764398L47.187884,225.837410L47.095822,222.895330L51.320155,224.829805L53.005405,224.184980L49.194708,199.202040L48.559069,175.516520L36.517787,174.388812L32.283316,172.294631L31.928269,173.905575L28.820985,173.059794L28.643437,173.865267L31.198029,175.113784L32.949348,179.906661L33.849224,188.808458L32.154370,194.005013L33.795032,197.993360L37.249913,201.055308L36.834170,202.948886L38.808853,208.066001L37.384313,209.758269L38.704264,211.370038L39.573137,215.722107L40.243792,216.366814L39.462127,216.447432L39.095595,220.316147L40.021226,221.081781L37.033031,226.240382Z M20.735703,184.458155L19.179065,186.351262L16.809697,186.834616L15.278778,186.915234L15.346132,186.029026L14.537565,185.505363L13.609764,185.505363L13.616510,184.860891L12.219764,185.545672L13.157043,186.552689L12.812419,190.016902L13.977748,190.540565L14.011902,191.305963L14.770340,191.507390L13.905997,196.945917L15.432908,204.842582L14.233677,205.164935L13.531655,207.864574L14.442708,209.919505L14.794923,208.186810L15.608766,208.025692L16.408095,208.348046L17.034590,207.985383L18.192567,208.348046L18.365964,207.421293L19.324293,207.300367L20.822754,208.912135L21.534965,208.066001L22.664374,208.589781L23.832433,210.805948L24.619374,210.846257L24.580715,209.153871L25.773418,207.058631L26.088031,204.480037L27.533727,200.048056L27.674278,195.979091L30.378227,191.789435L27.319325,190.419756L26.251625,188.888958L26.516435,186.834616L20.735703,184.458155Z " data-cartodb-id="10" data-created-at="2013-12-08T09:08:55Z" data-name="Penang" data-updated-at="2013-12-08T09:08:56Z"/><path d="M384.987825,517.253223L381.106842,531.643891L385.987804,537.626900L382.636730,540.537610L355.777096,525.337705L335.001515,533.745953L315.894013,525.014293L297.314864,500.277374L287.062287,496.720781L279.891029,520.365713L280.648083,522.508083L281.449453,523.053783L280.659935,525.479139L279.922417,525.297279L279.779671,525.943985L279.211961,526.085537L278.701371,527.641782L278.383158,527.763062L278.255956,528.329033L278.755569,530.249234L278.385962,530.451367L278.944512,532.573583L279.340910,532.694863L279.681185,533.382114L278.149653,535.524720L279.151807,537.566201L279.276569,539.547101L277.625436,540.598191L277.228080,541.103581L276.943040,545.166624L277.597973,545.611316L277.431116,546.056007L277.440707,546.419846L274.092400,548.178577L273.659898,548.037025L271.625984,548.825401L271.222531,549.795755L271.576773,550.361727L271.208942,550.644712L271.275151,551.129831L270.150022,551.837354L270.237749,552.464024L269.355959,552.908833L269.048605,552.767282L268.580522,554.707990L269.325709,555.900632L268.962062,557.052964L268.571771,557.861613L268.496539,559.822593L268.078470,560.247131L267.022720,564.452078L267.653711,566.837714L267.670766,568.252878L267.384477,568.960401L266.088643,570.031998L265.115913,570.436263L264.746014,571.386463L265.353537,571.386463L265.617935,571.972824L265.901192,572.599612L265.481213,572.963450L266.608069,573.751944L267.304559,573.003877L267.505318,573.913650L268.459104,574.196754L268.821076,575.126799L270.892585,575.086373L271.441760,575.632190L272.128164,578.179649L272.082302,579.251246L271.186259,580.646255L270.280377,580.868660L269.627571,580.464395L269.038896,580.504822L268.438060,580.787807L267.396542,580.565402L267.206500,581.596573L267.641523,581.859404L267.580495,582.304214L267.042664,582.223361L267.188105,583.092707L270.782083,585.498851L272.331781,587.601618L274.631816,588.167707L275.378232,589.542680L274.012898,589.219150L273.109712,590.351446L273.494764,591.564595L282.342477,600.461372L284.563064,603.939347L288.190820,609.763120L290.883458,612.027947L292.226097,611.299917L293.206077,610.329327L297.211988,610.491033L302.024723,611.623446L308.617339,615.829570L309.270744,616.314924L310.189739,615.829570L310.318349,618.579868L309.402463,619.226928L311.895489,622.300756L315.245467,625.374583L316.739882,625.051054L319.166779,624.889230L325.149470,627.396969L330.286683,630.551767L333.634539,633.625713L337.129286,636.942453L342.334040,640.016516L349.028439,642.524254L350.318085,642.686078L351.843107,643.980433L354.950996,645.841112L359.157125,649.157969L362.200166,655.468272L364.812089,661.859664L365.310187,665.985758L367.528880,670.516470L368.241929,674.885476L369.823514,675.451800L371.413832,676.584448L375.570435,681.924515L375.751593,679.739953L375.980989,676.099095L379.232096,673.752709L377.831221,671.082794L377.560068,667.603877L378.064568,663.558637L379.177543,670.354646L383.064917,672.053619L384.990947,671.810942L388.795706,668.412878L390.310631,664.933962L391.581783,662.951768L392.208996,660.949420L393.162227,660.261816L393.772523,660.423522L394.644796,659.189748L393.961220,658.926799L396.534132,657.875121L396.477636,656.681774L395.763145,656.702046L396.090323,655.994170L396.912638,656.014325L397.481163,656.843598L397.582468,657.531319L398.328464,658.299894L400.935332,659.210020L402.212560,658.663968L404.105841,656.560495L404.680660,655.710949L404.534498,654.517720L404.822587,653.627748L405.013415,654.315469L404.936607,655.023345L405.338590,655.528971L407.268575,655.528971L407.991492,655.994170L408.651304,655.913199L409.422497,656.075023L410.671837,657.005422L412.141016,657.227944L412.618643,657.976246L412.754302,658.582997L414.836681,661.212369L417.991506,661.778693L417.874613,661.212369L419.812114,661.657296L421.915012,662.365289L423.394333,662.142767L424.705671,661.495590L425.629084,661.151670L426.766296,659.735918L427.184160,657.045848L426.840343,656.803171L426.570299,655.670523L426.934289,653.020997L426.079591,652.191724L427.538036,650.816516L426.658533,648.632189L426.672031,647.418688L425.706310,645.436611L422.777622,643.616477L421.863548,640.623267L423.202605,637.751336L423.562149,639.733412L425.396506,642.241151L427.022154,643.171550L429.456778,647.256864L428.926992,649.562470L429.585693,652.393974L430.408716,654.457021L431.466790,651.665944L433.554965,650.533295L434.746080,651.180472L435.015869,652.272694L433.865715,651.908620L431.961081,653.324372L432.352197,655.225596L430.291821,657.976246L431.923317,659.311145L430.360575,659.877470L433.878306,660.767442L436.378275,662.749518L437.238504,665.014815L439.003677,663.720342L438.483934,664.691285L437.875767,666.794759L435.789219,668.129775L435.772141,669.262424L439.836593,670.840117L440.684109,672.417811L442.673798,671.689545L443.222982,672.498663L445.492746,671.406441L446.857399,671.810942L447.413086,673.024561L448.849012,671.204191L449.572296,671.730089L451.671223,668.938776L452.530905,669.060174L452.764573,670.233249L455.221457,669.666924L455.833372,667.765701L454.764225,663.679916L454.977271,661.495590L455.894657,660.807868L457.048712,661.414619L456.845013,659.958323L454.187590,655.144625L454.575303,652.839019L455.575271,652.798474L455.665780,651.868194L454.770787,649.805265L453.318340,648.551219L452.272236,646.083789L452.880947,644.223227L452.028553,642.605225L452.365303,641.513121L453.280765,640.784973L451.344183,638.560337L450.847573,636.902026L451.616674,636.012172L450.742417,635.162744L447.795841,630.713591L447.810609,629.661913L448.615658,628.812603L446.263158,625.576834L445.737434,622.583859L444.750592,619.793134L442.954678,617.649587L441.610950,614.939834L441.642856,613.079390L441.889529,612.917684L440.934413,611.704299L440.818261,612.958110L440.362342,613.362493L438.925095,612.998537L436.115048,608.630707L435.912834,605.921071L436.296207,603.858494L436.750900,603.413685L435.948558,602.685654L436.435408,602.079021L437.115279,602.119566L437.723865,603.777641L438.343955,604.343848L438.650375,603.656244L437.235620,601.108432L437.316545,599.935709L436.487527,598.034957L434.865599,595.851218L434.846207,595.001908L431.967626,591.038932L430.828827,589.704386L430.389380,587.722898L429.370766,586.954559L426.007333,579.271518L424.732607,576.804794L419.969027,570.537388L419.572484,568.960401L419.983447,565.402278L421.799763,565.159719L422.333625,565.078748L420.525421,562.814509L418.723395,559.418210L419.401668,558.003164L417.390317,554.849424L415.155962,554.121747L411.637129,549.391372L409.082509,546.035735L408.276920,543.973982L406.544490,543.327040L405.751850,539.122681L404.290971,536.656663L407.141819,535.080028L405.223667,532.896996L404.547713,530.431095L405.150667,530.269389L403.893499,527.480076L404.682262,526.307824L403.879130,525.701544L403.251933,526.267398L399.370876,522.952775L397.602986,521.093272L398.393295,518.748887L397.196890,518.142489L396.601065,518.546754L396.597830,519.678579L393.897523,520.204006L390.561796,518.506328L387.640654,516.323530L387.056624,517.131943L384.987825,517.253223Z " data-cartodb-id="4" data-created-at="2013-12-08T09:08:55Z" data-name="Johor" data-updated-at="2013-12-08T09:08:56Z"/><path d="M207.296157,95.176732L206.381084,96.866173L206.540396,102.980879L208.109808,105.877585L204.218689,113.844029L200.375826,116.982590L196.516826,119.799386L196.352099,122.294417L192.922681,126.640714L193.733029,128.652981L192.483394,129.377481L191.493955,134.046251L192.710862,134.126751L194.138957,138.634873L191.017230,142.016231L189.428156,141.613730L187.502636,143.143350L187.692142,145.639206L186.956643,146.685943L185.886204,146.685943L186.164879,148.054680L183.321818,148.296298L181.708285,151.919626L182.768280,154.737954L181.923217,154.979572L176.855178,150.389771L177.203793,148.698798L175.204915,147.169061L174.014553,147.652179L173.500560,148.859916L171.348395,148.618298L171.187822,151.275508L169.389058,152.483245L168.450065,152.241745L169.085575,158.200636L165.667095,162.952026L165.540889,169.475597L168.785142,171.730777L166.089671,179.866352L175.088412,181.558032L176.124971,185.505363L174.657300,187.761133L175.485399,195.012148L176.786025,196.945917L175.199891,199.766129L168.402941,202.586341L162.930309,199.927247L159.123830,202.586341L158.251155,207.018322L153.462364,210.080623L150.306667,221.041472L149.877368,230.794819L148.228321,235.550919L147.123517,241.354060L144.515047,243.772711L147.339417,251.351841L147.322359,257.641322L143.800713,258.770324L142.961671,260.866974L144.804944,263.931391L142.986308,268.205663L140.766059,269.737989L142.141914,275.303086L137.358205,275.303086L136.707386,278.529444L139.541486,281.433213L141.596469,284.498454L141.118740,286.757045L144.662237,286.111750L148.287544,289.177108L149.166053,291.435935L151.957416,291.597289L152.541771,288.451078L156.337492,286.999134L158.760459,288.612431L160.009410,291.193964L161.420856,290.790523L163.828718,293.775380L166.719730,292.887996L167.510137,294.743499L169.154113,293.049350L170.183645,293.775380L171.957105,291.758642L172.068061,289.257844L177.622030,287.160370L178.418637,285.708426L180.406704,287.160370L181.988706,285.708426L182.968812,269.899342L184.865837,269.173429L187.177850,269.818724L187.303538,274.496555L189.214402,274.093231L190.600885,278.206738L193.993812,279.094004L195.366787,281.191242L194.675657,283.449834L196.047240,287.241105L197.628120,287.483076L198.678112,281.836538L200.378301,281.513831L200.311593,269.737989L202.004610,269.254164L204.320217,271.673639L204.224750,269.415400L206.084521,269.496135L207.706644,272.399552L210.797116,272.883494L218.296952,269.576753L218.933208,274.496555L224.260712,278.932768L224.426791,281.191242L230.372330,285.063131L230.267770,282.562450L234.640543,281.271860L240.681664,284.014394L245.004184,278.126120L243.674742,275.383821L252.806935,275.222468L258.580305,280.062005L260.831078,279.255357L263.091807,275.303086L265.900487,277.561560L269.133901,278.045502L268.169361,268.770222L269.182131,267.197588L273.290567,269.153274L274.087953,269.435554L275.175757,267.318514L273.264427,263.528185L272.269453,262.802389L273.173808,260.584694L272.938186,259.254148L269.413024,257.802675L268.344017,256.189849L266.965810,256.512438L265.260254,254.214243L261.034144,252.238754L260.240133,253.690110L257.808380,252.762888L258.201446,248.650675L258.885674,247.965306L257.924265,247.199320L258.978259,245.989935L256.391320,242.321474L256.420903,240.549343L257.591709,240.388107L258.233373,238.735323L256.773980,233.132501L256.011986,232.850339L256.553082,231.359026L257.418621,231.560571L258.850437,228.416828L257.157028,226.441926L254.169554,225.071658L254.201697,224.184980L251.544199,221.404253L249.832834,221.444444L249.027787,220.195220L246.557832,220.033985L246.505864,218.865379L247.239259,218.502599L247.240199,215.319135L246.518796,214.351956L246.769715,204.036756L247.393970,203.633902L247.198035,200.088365L247.306218,199.322966L248.414376,199.363157L248.260801,197.550198L247.372262,197.630815L242.988113,193.038188L242.377814,192.957688L242.526642,190.741992L243.215707,190.983728L244.032498,189.332121L243.625493,186.673498L242.490292,185.263745L242.766331,182.726049L242.012397,181.074678L241.490612,180.591324L241.457235,179.866352L242.332661,179.503807L243.225170,178.738644L243.259746,177.167773L244.041088,177.087273L242.634025,172.898794L243.106205,169.233979L241.677175,166.898298L241.102080,161.462127L240.504773,160.898391L240.266028,159.609918L241.580354,158.724064L242.205798,159.126682L243.923141,156.187427L245.429779,153.328790L251.166919,147.893679L255.670111,141.492921L249.794181,135.575752L236.279951,107.084497L232.411209,102.417614L227.571443,101.210820L223.145401,98.274158L215.089779,99.843026L207.296157,95.176732Z " data-cartodb-id="6" data-created-at="2013-12-08T09:08:55Z" data-name="Kelantan" data-updated-at="2013-12-08T09:08:56Z"/><path d="M267.188105,583.092707L267.042664,582.223361L267.580495,582.304214L267.641523,581.859404L267.206500,581.596573L267.396542,580.565402L268.438060,580.787807L269.038896,580.504822L269.627571,580.464395L270.280377,580.868660L271.186259,580.646255L272.082302,579.251246L272.128164,578.179649L271.441760,575.632190L270.892585,575.086373L268.821076,575.126799L268.459104,574.196754L267.505318,573.913650L267.304559,573.003877L266.608069,573.751944L265.481213,572.963450L265.901192,572.599612L265.617935,571.972824L265.353537,571.386463L264.746014,571.386463L265.115913,570.436263L266.088643,570.031998L267.384477,568.960401L267.670766,568.252878L267.653711,566.837714L267.022720,564.452078L268.078470,560.247131L268.496539,559.822593L268.571771,557.861613L268.962062,557.052964L269.325709,555.900632L268.580522,554.707990L269.048605,552.767282L269.355959,552.908833L270.237749,552.464024L270.150022,551.837354L271.275151,551.129831L271.208942,550.644712L271.576773,550.361727L271.222531,549.795755L271.625984,548.825401L273.659898,548.037025L274.092400,548.178577L277.440707,546.419846L276.549239,545.813448L274.398462,545.550617L271.220909,544.297395L260.040444,540.396058L260.204534,539.183262L253.145108,536.434258L249.700022,537.202362L244.221410,540.759897L239.498505,539.850359L238.388190,539.082255L237.834957,539.102409L237.149483,538.192871L235.407826,537.202362L233.569611,535.949140L230.093652,540.901448L227.968291,540.254624L224.639603,542.053663L223.974939,541.245015L221.980084,540.800323L221.541203,542.437656L222.185452,542.478083L221.821785,543.589871L220.855520,543.529291L220.573597,544.357975L220.805029,545.004918L220.203496,545.227205L219.047263,544.742086L218.992387,544.014409L219.322274,543.650570L218.500666,542.983474L218.181805,544.438828L216.754702,546.561398L215.097546,547.410355L213.786028,547.814620L212.883272,548.825401L212.159720,549.169085L212.708741,550.361727L212.534332,550.523433L213.086002,551.129831L215.118861,551.675648L215.342813,551.352236L216.666982,551.433089L217.952154,552.080031L219.601618,553.697210L221.281860,554.425005L222.821503,556.648699L223.811530,559.761895L224.326492,560.348138L224.919148,560.469418L226.370420,562.774083L226.881053,562.470825L227.652799,562.612377L229.780221,564.816034L232.052226,569.283931L232.808092,569.506335L233.639402,569.162651L235.593293,569.425482L236.417094,569.506335L237.465788,570.011726L238.723682,571.042779L239.984168,571.447162L241.032556,572.680465L242.127397,572.882597L243.319262,573.408260L243.830530,573.125156L245.970563,574.439313L247.785855,574.884122L248.361959,575.066101L249.445243,576.279132L251.166338,576.521809L252.592319,577.128324L253.073744,577.835965L255.607901,579.210820L256.266530,579.109694L258.342019,579.230974L261.961863,581.192190L262.766863,581.232617L264.471415,581.535874L265.680398,582.041383L267.188105,583.092707Z " data-cartodb-id="7" data-created-at="2013-12-08T09:08:55Z" data-name="Melaka" data-updated-at="2013-12-08T09:08:56Z"/><path d="M212.883272,548.825401L213.786028,547.814620L215.097546,547.410355L216.754702,546.561398L218.181805,544.438828L218.500666,542.983474L219.322274,543.650570L218.992387,544.014409L219.047263,544.742086L220.203496,545.227205L220.805029,545.004918L220.573597,544.357975L220.855520,543.529291L221.821785,543.589871L222.185452,542.478083L221.541203,542.437656L221.980084,540.800323L223.974939,541.245015L224.639603,542.053663L227.968291,540.254624L230.093652,540.901448L233.569611,535.949140L235.407826,537.202362L237.149483,538.192871L237.834957,539.102409L238.388190,539.082255L239.498505,539.850359L244.221410,540.759897L249.700022,537.202362L253.145108,536.434258L260.204534,539.183262L260.040444,540.396058L271.220909,544.297395L274.398462,545.550617L276.549239,545.813448L277.440707,546.419846L277.431116,546.056007L277.597973,545.611316L276.943040,545.166624L277.228080,541.103581L277.625436,540.598191L279.276569,539.547101L279.151807,537.566201L278.149653,535.524720L279.681185,533.382114L279.340910,532.694863L278.944512,532.573583L278.385962,530.451367L278.755569,530.249234L278.255956,528.329033L278.383158,527.763062L278.701371,527.641782L279.211961,526.085537L279.779671,525.943985L279.922417,525.297279L280.659935,525.479139L281.449453,523.053783L280.648083,522.508083L279.891029,520.365713L287.062287,496.720781L286.024298,490.739537L284.679050,488.799651L282.998744,489.931241L261.951191,474.736748L253.865044,463.099672L229.629352,455.988602L228.126687,453.726129L224.273958,453.887717L219.240410,457.281546L217.002552,450.009241L213.282135,449.847652L209.651474,448.070061L209.835738,444.999645L205.474000,442.737406L203.480423,446.171308L204.702965,446.413632L205.694171,447.221692L205.400656,448.070061L206.562543,449.726490L207.265089,452.635318L206.633664,455.180660L209.203429,460.635065L207.693129,463.665290L210.265877,473.847835L208.803732,473.928570L206.371878,477.282561L205.659824,479.666667L201.801192,492.558142L187.963109,492.153995L189.673301,511.473170L188.827552,514.383410L188.254660,514.342983L187.506550,515.676823L188.278374,517.697915L187.004641,518.142489L186.055398,519.961447L186.751724,521.861377L185.964566,521.820950L184.788852,521.942112L183.654792,523.559055L184.924476,524.246307L185.062355,524.711153L186.761758,524.792006L187.154682,524.145181L188.695480,523.660181L190.456342,524.023902L192.247453,525.479139L192.498139,526.792943L193.060869,526.469530L193.593985,527.015230L194.030331,528.591747L193.408899,529.380005L194.087336,530.673654L193.528187,531.785325L193.176307,531.987458L193.285132,533.361960L194.660751,533.361960L195.762904,533.159827L196.484584,533.422540L197.568938,535.201308L197.985268,535.403440L198.630176,536.798097L199.510589,538.314151L199.159148,538.536438L199.205753,538.940703L199.826166,538.758842L200.122749,539.163108L199.483996,539.324814L199.527107,540.274778L199.832409,540.335477L200.372410,541.831259L200.116733,542.296223L200.412781,542.680216L200.391753,545.954882L200.084253,545.813448L199.650369,546.298566L200.158110,547.268921L200.618904,547.127369L200.574230,546.783685L200.874140,545.954882L201.520283,545.388911L204.580598,545.591043L205.673409,545.025072L207.060060,544.762241L208.418881,544.802667L209.461676,545.732595L209.641539,546.460273L210.806580,547.289075L211.647315,547.329502L212.533245,547.733767L212.883272,548.825401Z " data-cartodb-id="8" data-created-at="2013-12-08T09:08:55Z" data-name="Negeri Sembilan" data-updated-at="2013-12-08T09:08:56Z"/><path d="M356.368891,338.359172L356.073668,338.117083L348.365492,338.238127L347.488020,336.825669L345.720756,336.381683L345.847820,338.681996L347.137414,342.395002L346.423288,342.395002L346.574215,344.413034L344.746020,345.139418L344.886996,348.731614L344.006901,349.054438L345.076632,351.758781L346.104415,351.557001L347.237430,354.059446L347.512243,360.235412L348.283669,365.442788L347.747613,367.299820L345.547061,368.591586L346.147347,373.113241L341.846314,365.200581L342.473946,362.939990L338.256542,357.288628L334.983619,357.611569L334.734521,354.866801L330.747504,355.189742L325.664798,349.377380L321.192664,348.247202L320.228139,345.502668L313.314979,344.049784L305.598102,347.601436L300.986755,342.919723L304.760715,340.821073L303.349637,334.041062L305.337774,330.167056L304.715270,325.324695L307.422417,325.163342L309.622538,319.514333L313.531010,320.805512L311.963927,313.865559L313.987551,310.960731L312.695551,310.799378L311.829352,307.087666L308.704095,304.021602L298.700400,303.860249L295.568217,300.632950L294.472329,291.435935L297.375600,292.565290L298.574302,287.079752L294.242926,279.174739L287.272989,279.820034L277.793177,275.141850L274.704229,269.657371L274.087953,269.435554L273.290567,269.153274L269.182131,267.197588L268.169361,268.770222L269.133901,278.045502L265.900487,277.561560L263.091807,275.303086L260.831078,279.255357L258.580305,280.062005L252.806935,275.222468L243.674742,275.383821L245.004184,278.126120L240.681664,284.014394L234.640543,281.271860L230.267770,282.562450L230.372330,285.063131L224.426791,281.191242L224.260712,278.932768L218.933208,274.496555L218.296952,269.576753L210.797116,272.883494L207.706644,272.399552L206.084521,269.496135L204.224750,269.415400L204.320217,271.673639L202.004610,269.254164L200.311593,269.737989L200.378301,281.513831L198.678112,281.836538L197.628120,287.483076L196.047240,287.241105L194.675657,283.449834L195.366787,281.191242L193.993812,279.094004L190.600885,278.206738L189.214402,274.093231L187.303538,274.496555L187.177850,269.818724L184.865837,269.173429L182.968812,269.899342L181.988706,285.708426L180.406704,287.160370L178.418637,285.708426L177.622030,287.160370L172.068061,289.257844L171.957105,291.758642L170.183645,293.775380L169.154113,293.049350L167.510137,294.743499L166.719730,292.887996L163.828718,293.775380L161.420856,290.790523L160.009410,291.193964L158.760459,288.612431L156.337492,286.999134L152.541771,288.451078L151.957416,291.597289L149.166053,291.435935L148.287544,289.177108L144.662237,286.111750L141.118740,286.757045L138.950446,289.580550L140.595215,296.599120L142.481454,297.325151L143.060297,299.261389L140.694961,300.794421L140.511619,305.070575L137.386421,307.249019L139.937879,308.540080L140.428152,311.848350L144.316637,310.879996L149.195245,313.220029L148.577793,317.416153L147.185131,318.303772L149.813863,319.756422L150.800301,326.615991L152.597149,328.714289L151.303814,330.328409L151.622737,332.991854L157.629328,335.009652L156.178924,339.933101L158.450413,345.099109L164.760400,347.601436L165.257190,351.234060L163.023351,356.319920L164.779642,359.307013L165.597580,369.641265L168.831485,374.001330L168.373932,377.069747L167.341325,378.119425L168.144810,382.479843L171.413313,385.911863L171.482906,386.840615L174.500167,391.241813L177.030977,392.089711L178.437792,393.462684L181.220636,393.381949L183.378837,392.816565L183.514525,394.593333L186.301609,396.612306L188.531409,402.023579L191.699472,405.738938L191.206151,411.998698L189.047200,412.564081L188.145035,414.341201L186.695965,417.854898L188.722882,423.792304L190.111383,426.781279L188.996110,428.639370L187.134658,429.568357L187.589421,431.386139L187.034159,432.921053L189.344656,434.698526L189.419478,436.920221L191.229902,437.647310L193.134874,441.202257L197.168939,444.353291L199.436854,444.878483L201.017014,446.211617L201.598827,445.444101L203.480423,446.171308L205.474000,442.737406L209.835738,444.999645L209.651474,448.070061L213.282135,449.847652L217.002552,450.009241L219.240410,457.281546L224.273958,453.887717L228.126687,453.726129L229.629352,455.988602L253.865044,463.099672L261.951191,474.736748L282.998744,489.931241L284.679050,488.799651L286.024298,490.739537L287.062287,496.720781L297.314864,500.277374L315.894013,525.014293L335.001515,533.745953L355.777096,525.337705L382.636730,540.537610L385.987804,537.626900L381.106842,531.643891L384.987825,517.253223L367.257267,497.529194L362.702341,484.111939L363.579697,453.564540L358.969513,435.466042L365.180547,416.885602L348.680106,391.201386L349.903896,381.833842L353.940033,382.802903L351.832299,368.591586L355.609532,362.778519L359.068855,363.585873L352.912274,344.856902L354.581711,343.726842L356.368891,338.359172Z " data-cartodb-id="9" data-created-at="2013-12-08T09:08:55Z" data-name="Pahang" data-updated-at="2013-12-08T09:08:56Z"/><path d="M86.793213,376.746687L100.271954,374.243654L99.584203,378.846161L103.613692,379.653633L103.830492,381.672372L101.532244,383.287433L104.435472,386.517556L105.151508,382.641432L108.993870,382.237637L109.773010,384.014169L112.234642,382.964374L112.354097,388.213352L115.656586,384.740906L114.147173,390.393797L120.781368,390.151591L128.672024,393.058889L132.360253,392.332035L132.319966,397.177690L135.786206,398.227603L141.970920,395.400922L142.672392,393.058889L140.354262,388.213352L139.989984,384.094905L145.290900,382.560697L146.691749,385.709966L152.654720,388.617147L155.895672,393.301095L161.209063,396.047041L164.710798,394.108803L169.185754,385.548495L171.413313,385.911863L168.144810,382.479843L167.341325,378.119425L168.373932,377.069747L168.831485,374.001330L165.597580,369.641265L164.779642,359.307013L163.023351,356.319920L165.257190,351.234060L164.760400,347.601436L158.450413,345.099109L156.178924,339.933101L157.629328,335.009652L151.622737,332.991854L151.303814,330.328409L152.597149,328.714289L150.800301,326.615991L149.813863,319.756422L147.185131,318.303772L148.577793,317.416153L149.195245,313.220029L144.316637,310.879996L140.428152,311.848350L139.937879,308.540080L137.386421,307.249019L140.511619,305.070575L140.694961,300.794421L143.060297,299.261389L142.481454,297.325151L140.595215,296.599120L138.950446,289.580550L141.118740,286.757045L141.596469,284.498454L139.541486,281.433213L136.707386,278.529444L137.358205,275.303086L142.141914,275.303086L140.766059,269.737989L142.986308,268.205663L144.804944,263.931391L142.961671,260.866974L143.800713,258.770324L147.322359,257.641322L147.339417,251.351841L144.515047,243.772711L147.123517,241.354060L148.228321,235.550919L149.877368,230.794819L150.306667,221.041472L153.462364,210.080623L158.251155,207.018322L159.123830,202.586341L162.930309,199.927247L168.402941,202.586341L175.199891,199.766129L176.786025,196.945917L175.485399,195.012148L174.657300,187.761133L176.124971,185.505363L175.088412,181.558032L166.089671,179.866352L168.785142,171.730777L165.540889,169.475597L165.667095,162.952026L169.085575,158.200636L168.450065,152.241745L166.518562,149.101416L164.774203,145.397705L164.596857,138.634873L161.283797,137.990873L158.080031,133.643750L156.371950,130.745865L149.863999,134.931752L148.220354,136.380753L146.314028,138.312873L136.894834,138.312873L132.249145,145.719824L125.225613,145.075705L122.252408,151.678126L124.175418,156.187427L119.869738,161.824554L111.767840,168.750742L105.485706,156.348427L102.639066,153.449599L99.822012,154.254836L95.149860,148.940416L90.800616,150.550771L94.525559,156.992664L94.011650,164.401617L88.553815,169.878333L92.126871,173.100103L90.553581,182.444122L83.818463,185.022009L83.670061,200.813573L79.801896,203.714402L71.807585,203.714402L70.094106,210.161241L66.767235,212.417717L63.965545,220.154911L60.595436,221.444444L59.364219,225.958337L56.669664,229.666169L53.462562,231.439644L49.095739,229.505051L49.248840,228.094357L49.992151,227.127060L47.187884,225.837410L38.394242,226.764398L37.033031,226.240382L35.738784,228.497446L33.976806,229.021344L33.577116,230.512657L34.568486,232.810030L36.102744,236.115244L39.893373,241.273443L42.474616,251.593695L46.097973,249.497279L48.729785,250.948635L47.200114,251.916166L46.493644,255.464172L50.736554,257.883293L53.782495,255.625407L54.170272,258.044529L56.372229,266.270130L61.526232,266.592719L57.499885,269.334782L59.648822,279.820034L65.101902,280.465330L60.625442,282.723804L58.269404,291.435935L63.340021,293.210703L62.829777,308.862787L59.674929,308.540080L58.909046,321.612395L64.899036,339.691012L71.574814,338.722422L81.119308,349.215909L79.945792,359.710573L74.040580,358.418924L74.844415,372.305769L81.183146,377.634895L86.793213,376.746687Z " data-cartodb-id="11" data-created-at="2013-12-08T09:08:55Z" data-name="Perak" data-updated-at="2013-12-08T09:08:56Z"/><path d="M185.062355,524.711153L184.924476,524.246307L183.654792,523.559055L184.788852,521.942112L185.964566,521.820950L186.751724,521.861377L186.055398,519.961447L187.004641,518.142489L188.278374,517.697915L187.506550,515.676823L188.254660,514.342983L188.827552,514.383410L189.673301,511.473170L187.963109,492.153995L201.801192,492.558142L205.659824,479.666667L206.371878,477.282561L208.803732,473.928570L210.265877,473.847835L207.693129,463.665290L209.203429,460.635065L206.633664,455.180660L207.265089,452.635318L206.562543,449.726490L205.400656,448.070061L205.694171,447.221692L204.702965,446.413632L203.480423,446.171308L201.598827,445.444101L201.017014,446.211617L199.436854,444.878483L197.168939,444.353291L193.134874,441.202257L191.229902,437.647310L189.419478,436.920221L189.344656,434.698526L187.034159,432.921053L187.589421,431.386139L187.134658,429.568357L188.996110,428.639370L190.111383,426.781279L188.722882,423.792304L186.695965,417.854898L188.145035,414.341201L189.047200,412.564081L191.206151,411.998698L191.699472,405.738938L188.531409,402.023579L186.301609,396.612306L183.514525,394.593333L183.378837,392.816565L181.220636,393.381949L178.437792,393.462684L177.030977,392.089711L174.500167,391.241813L171.482906,386.840615L171.413313,385.911863L169.185754,385.548495L164.710798,394.108803L161.209063,396.047041L155.895672,393.301095L152.654720,388.617147L146.691749,385.709966L145.290900,382.560697L139.989984,384.094905L140.354262,388.213352L142.672392,393.058889L141.970920,395.400922L135.786206,398.227603L132.319966,397.177690L132.360253,392.332035L128.672024,393.058889L120.781368,390.151591L114.147173,390.393797L115.656586,384.740906L112.354097,388.213352L112.234642,382.964374L109.773010,384.014169L108.993870,382.237637L105.151508,382.641432L104.435472,386.517556L101.532244,383.287433L103.830492,381.672372L103.613692,379.653633L99.584203,378.846161L100.271954,374.243654L86.793213,376.746687L86.056827,381.995431L87.528486,385.144700L92.057804,385.952290L95.499707,388.294205L99.266877,395.723982L104.701994,397.904544L112.714187,406.304321L116.897259,417.693427L121.193934,424.236643L125.480051,430.537888L127.431855,435.466042L131.780464,437.324133L135.518186,440.151990L139.160990,446.615647L140.280220,450.251682L142.056724,463.261260L146.356596,468.190827L146.917302,476.999693L142.872737,480.232403L137.724742,489.527094L139.276189,491.224420L140.208947,496.155045L152.179883,499.873227L160.063947,513.049570L181.412586,522.588936L182.688026,524.771734L185.062355,524.711153Z M174.958726,450.029395L177.736944,448.150797L178.548106,450.009241L181.622810,450.635440L181.643291,451.261639L183.313655,451.544508L184.404497,449.403195L185.710297,449.463776L185.489317,451.443500L186.953164,452.514038L187.626272,454.534189L186.684372,456.332052L185.119933,456.008875L185.334918,457.685576L186.775847,457.899848L185.411445,460.936202L185.613405,463.302983L187.350240,464.448364L186.708362,466.960586L187.068659,468.297492L187.177745,470.400380L185.243950,470.421478L185.320597,472.664504L183.501943,470.674762L182.869722,471.397137L178.868915,472.162413L178.721889,471.555071L177.815803,471.190761L177.832564,470.028880L176.684882,470.175264L176.498082,468.503396L177.922400,467.250408L177.466352,463.924940L177.854274,463.334806L177.749287,461.427214L176.781377,461.007273L175.973030,461.904908L173.635106,460.144525L172.816952,458.845924L172.912765,457.905270L173.168555,453.599899L174.239476,452.342432L174.958726,450.029395Z M180.190000,480.313256L180.302490,481.646862L181.248578,481.626589L181.168042,480.171822L181.939140,479.686939L182.603738,479.808101L182.330970,480.232403L182.481651,481.646862L184.056529,481.161861L183.961963,482.151899L185.802418,482.172171L185.895720,485.223257L183.269920,485.223257L183.274692,487.142752L182.597040,487.183178L182.277305,487.829768L182.750899,488.132908L182.323131,489.345233L181.420628,489.628101L181.046325,490.840544L180.027313,491.406280L179.738098,490.699110L179.142856,491.103258L178.410721,488.739070L178.826674,487.728760L179.427944,487.526745L179.375606,486.981164L179.657774,486.859884L179.741018,486.071861L179.355500,485.142403L179.387415,483.263217L179.782297,483.323915L179.817950,482.737907L178.701010,481.848876L178.482213,481.121434L179.370858,480.394110L180.190000,480.313256Z " data-cartodb-id="15" data-created-at="2013-12-08T09:08:55Z" data-name="Selangor" data-updated-at="2013-12-08T09:08:56Z"/><path d="M255.670111,141.492921L251.166919,147.893679L245.429779,153.328790L243.923141,156.187427L242.205798,159.126682L241.580354,158.724064L240.266028,159.609918L240.504773,160.898391L241.102080,161.462127L241.677175,166.898298L243.106205,169.233979L242.634025,172.898794L244.041088,177.087273L243.259746,177.167773L243.225170,178.738644L242.332661,179.503807L241.457235,179.866352L241.490612,180.591324L242.012397,181.074678L242.766331,182.726049L242.490292,185.263745L243.625493,186.673498L244.032498,189.332121L243.215707,190.983728L242.526642,190.741992L242.377814,192.957688L242.988113,193.038188L247.372262,197.630815L248.260801,197.550198L248.414376,199.363157L247.306218,199.322966L247.198035,200.088365L247.393970,203.633902L246.769715,204.036756L246.518796,214.351956L247.240199,215.319135L247.239259,218.502599L246.505864,218.865379L246.557832,220.033985L249.027787,220.195220L249.832834,221.444444L251.544199,221.404253L254.201697,224.184980L254.169554,225.071658L257.157028,226.441926L258.850437,228.416828L257.418621,231.560571L256.553082,231.359026L256.011986,232.850339L256.773980,233.132501L258.233373,238.735323L257.591709,240.388107L256.420903,240.549343L256.391320,242.321474L258.978259,245.989935L257.924265,247.199320L258.885674,247.965306L258.201446,248.650675L257.808380,252.762888L260.240133,253.690110L261.034144,252.238754L265.260254,254.214243L266.965810,256.512438L268.344017,256.189849L269.413024,257.802675L272.938186,259.254148L273.173808,260.584694L272.269453,262.802389L273.264427,263.528185L275.175757,267.318514L274.087953,269.435554L274.704229,269.657371L277.793177,275.141850L287.272989,279.820034L294.242926,279.174739L298.574302,287.079752L297.375600,292.565290L294.472329,291.435935L295.568217,300.632950L298.700400,303.860249L308.704095,304.021602L311.829352,307.087666L312.695551,310.799378L313.987551,310.960731L311.963927,313.865559L313.531010,320.805512L309.622538,319.514333L307.422417,325.163342L304.715270,325.324695L305.337774,330.167056L303.349637,334.041062L304.760715,340.821073L300.986755,342.919723L305.598102,347.601436L313.314979,344.049784L320.228139,345.502668L321.192664,348.247202L325.664798,349.377380L330.747504,355.189742L334.734521,354.866801L334.983619,357.611569L338.256542,357.288628L342.473946,362.939990L341.846314,365.200581L346.147347,373.113241L345.547061,368.591586L347.747613,367.299820L348.283669,365.442788L347.512243,360.235412L347.237430,354.059446L346.104415,351.557001L345.076632,351.758781L344.006901,349.054438L344.886996,348.731614L344.746020,345.139418L346.574215,344.413034L346.423288,342.395002L347.137414,342.395002L345.847820,338.681996L345.720756,336.381683L347.488020,336.825669L348.365492,338.238127L356.073668,338.117083L356.368891,338.359172L357.828091,338.238127L358.350501,338.803158L358.980821,337.592362L358.125147,334.041062L358.619124,330.328409L359.438667,331.175837L359.969437,331.054792L360.232581,328.714289L361.519590,328.754715L361.416995,325.324695L362.324224,324.800091L363.199425,320.845820L358.798056,312.735969L358.779257,307.934859L357.344611,303.456807L358.022663,298.293270L359.697314,298.212652L360.432291,297.002444L359.396561,292.726643L355.678742,283.288481L355.158282,281.957582L355.916315,281.312169L357.081034,281.836538L356.544752,279.295666L356.770248,277.884149L356.354417,275.666101L353.424430,268.931576L353.710444,267.278205L350.224100,267.560485L353.206377,266.350748L355.443966,266.915308L353.448730,263.689420L353.715107,263.245905L342.281728,242.523018L330.183497,217.656347L325.716735,210.402977L326.890144,209.516533L321.795384,201.055308L318.510217,202.586341L320.805023,199.685511L316.720159,193.078497L303.775049,180.107970L300.252192,178.013672L297.048004,178.174672L288.202983,172.133513L279.348996,164.401617L271.466440,157.636900L265.635390,149.020916L262.714481,146.122324L258.655514,143.304350L255.670111,141.492921Z " data-cartodb-id="16" data-created-at="2013-12-08T09:08:55Z" data-name="Terengganu" data-updated-at="2013-12-08T09:08:56Z"/></g><g fill="#000" font-family="Arial" font-size="12px" id="mylayer-label" stroke="none"><text text-anchor="middle" y="453.941261349"><tspan dy="0" x="180.678785764"><![CDATA[Federal Territory of Kuala Lumpur]]></tspan></text><text text-anchor="middle" y="57.8545239599"><tspan dy="0" x="13.3373279923"><![CDATA[Perlis]]></tspan></text><text text-anchor="middle" y="196.283513778"><tspan dy="0" x="1774.35169813"><![CDATA[Sabah]]></tspan></text><text text-anchor="middle" y="479.112759216"><tspan dy="0" x="181.642015541"><![CDATA[Federal Territory of Putrajaya]]></tspan></text><text text-anchor="middle" y="126.388186924"><tspan dy="0" x="60.1009857087"><![CDATA[Kedah]]></tspan></text><text text-anchor="middle" y="519.263229705"><tspan dy="0" x="1389.69500295"><![CDATA[Sarawak]]></tspan></text><text text-anchor="middle" y="192.046187114"><tspan dy="0" x="36.1867934412"><![CDATA[Penang]]></tspan></text><text text-anchor="middle" y="583.595472883"><tspan dy="0" x="360.165761279"><![CDATA[Johor]]></tspan></text><text text-anchor="middle" y="202.641236498"><tspan dy="0" x="205.918240904"><![CDATA[Kelantan]]></tspan></text><text text-anchor="middle" y="550.501416836"><tspan dy="0" x="247.347634758"><![CDATA[Melaka]]></tspan></text><text text-anchor="middle" y="497.204798806"><tspan dy="0" x="235.654234149"><![CDATA[Negeri Sembilan]]></tspan></text><text text-anchor="middle" y="384.545123587"><tspan dy="0" x="266.989812185"><![CDATA[Pahang]]></tspan></text><text text-anchor="middle" y="261.933612361"><tspan dy="0" x="112.684975543"><![CDATA[Perak]]></tspan></text><text text-anchor="middle" y="438.219971612"><tspan dy="0" x="160.458971319"><![CDATA[Selangor]]></tspan></text><text text-anchor="middle" y="243.877918188"><tspan dy="0" x="303.726599585"><![CDATA[Terengganu]]></tspan></text></g></svg>