<?xml version="1.0" encoding="utf-8"?><!DOCTYPE svg  PUBLIC '-//W3C//DTD SVG 1.1//EN'  'http://www.w3.org/Graphics/SVG/1.1/DTD/svg11.dtd'><svg enable_background="new 0 0 2000 2226" height="2226px" pretty_print="False" style="stroke-linejoin: round; stroke:#000; fill: none;" version="1.1" viewBox="0 0 2000 2226" width="2000px" xmlns="http://www.w3.org/2000/svg" xmlns:xlink="http://www.w3.org/1999/xlink"><defs><style type="text/css"><![CDATA[path { fill-rule: evenodd; }]]></style></defs><metadata><views><view h="2226.04836985" padding="0" w="2000"><proj flip="auto" id="robinson" lon0="-74.0164963684"/><bbox h="3.23" w="2.9" x="-1007.26" y="-686.37"/></view></views></metadata><g class="" id="mylayer"><path d="M404.977841,1874.711798L436.802333,1813.788190L431.324879,1813.470418L430.453174,1815.138724L426.867157,1822.209199L413.646330,1819.939377L411.482751,1819.621603L411.219619,1819.712396L411.054274,1819.848585L410.926908,1820.041519L410.747068,1820.427389L410.612963,1820.699767L404.664644,1819.689697L404.741566,1819.508112L402.294529,1819.110894L402.219158,1819.258432L396.149152,1818.248364L395.881313,1818.237015L395.491830,1818.429949L395.251111,1818.713676L367.530655,1877.549252L365.548446,1881.748700L365.556259,1881.782749L365.564072,1881.816799L365.584883,1881.839499L365.615055,1881.862199L365.645228,1881.884898L365.679037,1881.896248L365.712847,1881.907598L365.759654,1881.907598L365.806462,1881.907598L365.847545,1881.896248L365.901626,1881.873549L365.946346,1881.850849L365.981704,1881.828149L366.020699,1881.794099L366.059694,1881.760050L366.763891,1880.205117L368.271765,1877.515202L368.669326,1876.595866L369.210410,1875.608432L374.718012,1876.913661L377.981750,1877.537902L379.930632,1877.912446L378.136480,1881.408203L377.082541,1882.214045L376.217921,1883.042588L375.988668,1883.349035L375.407992,1884.109479L374.769739,1885.312571L374.374888,1886.515665L374.256709,1887.673361L374.362130,1888.717558L372.525850,1892.111207L362.209686,1889.977406L364.545774,1884.994773L364.776978,1884.302428L364.679186,1884.257028L364.478957,1884.268378L364.272533,1884.415927L361.417190,1890.317906L342.972331,1926.411634L336.707415,1938.749671L336.631599,1939.044788L336.744565,1939.305852L336.969330,1939.510163L338.287418,1939.896085L338.119531,1940.157149L342.111246,1941.314915L341.600316,1942.120812L341.567591,1942.222968L335.761252,1951.201389L335.594456,1951.575965L335.427031,1951.689473L335.269969,1951.712175L335.320787,1951.348950L335.197281,1950.770060L335.061951,1950.520343L334.900166,1950.440887L334.613585,1950.429537L333.983793,1950.554395L333.625495,1950.679254L333.355633,1950.849515L333.185115,1951.031128L332.843909,1950.985725L332.900539,1950.838164L333.282658,1950.463589L333.584242,1950.281977L333.815110,1950.145767L334.061610,1950.077663L334.043804,1949.782543L334.161328,1949.737140L334.449455,1949.714438L334.775030,1949.691737L335.132869,1949.714438L335.253944,1949.453371L335.563972,1949.566879L335.846458,1949.737140L336.172950,1949.419319L335.912824,1949.237707L335.502908,1949.056095L335.285496,1949.033393L334.957832,1949.033393L334.624442,1949.022042L334.278598,1949.078796L333.914574,1949.192304L333.558365,1949.339863L333.222970,1949.510125L332.928659,1949.669035L332.623982,1949.918752L332.252771,1950.259275L332.110338,1950.440887L331.959088,1950.679254L331.277679,1950.497641L330.972374,1950.486291L330.575082,1950.645201L330.300581,1950.917620L325.034070,1960.929062L324.138756,1975.912384L324.340267,1976.423184L324.532233,1976.525344L330.950182,1978.409629L331.697676,1977.478837L331.778844,1977.546944L331.874554,1977.569646L337.277760,1977.126953L336.637431,1978.103149L325.455813,1979.692308L325.321656,1979.760415L326.388773,1982.859284L332.334251,1981.951189L330.328019,1984.970607L330.429456,1985.004661L331.014155,1984.085213L331.907820,1984.334939L331.376110,1985.118173L331.472462,1985.401954L331.772497,1985.254388L332.525070,1984.073862L331.629314,1983.801433L332.767538,1982.030647L334.688570,1982.609558L333.573255,1984.425749L333.511356,1984.414398L333.406830,1984.448452L333.260222,1984.584666L333.225958,1984.720881L333.296220,1984.823042L332.952203,1985.458710L332.753700,1985.844651L332.442497,1986.582481L332.185376,1987.297610L332.008332,1987.967333L331.911076,1987.978684L331.641697,1989.170567L331.453489,1990.430559L331.397703,1991.247852L331.481961,1991.247852L331.457093,1992.553252L331.523016,1993.370547L331.884829,1995.164058L332.063548,1995.833787L332.765139,1997.911088L333.290652,1999.398120L335.012178,2003.552743L336.591901,2006.980889L338.859228,2011.419336L341.757489,2015.846454L345.274346,2020.534683L346.952405,2018.831933L348.403074,2019.944396L348.594944,2019.842231L349.626748,2020.625496L343.836120,2026.312704L344.058827,2026.494332L349.851546,2020.829826L352.271029,2022.600690L348.387232,2026.426221L347.525904,2027.391120L347.383045,2027.720322L347.691555,2027.867895L348.785728,2026.585146L352.173545,2023.168275L352.407491,2022.963944L352.536911,2022.793669L353.579626,2023.542881L353.316159,2023.985598L353.201720,2023.962895L350.486545,2028.583056L350.439292,2028.730629L351.236178,2028.844147L352.673562,2026.460276L353.896278,2024.337502L353.776113,2024.303447L356.796848,2019.138428L356.617991,2018.264351L347.403107,2014.325339L344.409715,2008.967403L341.897715,2000.907858L346.308580,1976.377779L390.178123,1906.060492L404.977841,1874.711798Z " data-cartodb-id="9" data-created-at="2014-03-09T19:11:53Z" data-name="Battery Park City" data-updated-at="2014-03-09T19:11:53Z"/><path d="M1308.475660,928.878969L1244.421833,889.662301L1241.709603,891.578312L1239.088608,891.464938L907.906178,1249.864142L906.133560,1252.177881L905.065817,1255.036038L905.401699,1256.816720L904.952451,1258.710824L906.935268,1261.308136L970.413208,1300.722411L1217.972138,1032.762007L1305.014316,938.538841L1309.309399,933.765582L1308.087559,933.141999L1307.659374,931.883496L1308.475660,928.878969Z " data-cartodb-id="50" data-created-at="2014-03-09T19:11:53Z" data-name="Central Park" data-updated-at="2014-03-09T19:11:53Z"/><path d="M735.002343,1437.852206L645.315149,1383.027264L639.671179,1381.949630L627.756779,1394.949390L616.939866,1406.746892L615.947892,1406.134326L613.901328,1408.369061L614.915666,1408.970285L612.222115,1411.908348L611.245212,1411.307122L609.157066,1413.496495L610.123045,1414.131754L607.452124,1418.340359L606.507033,1419.826420L596.224011,1436.025788L593.618699,1434.403570L592.128145,1436.014444L591.789161,1435.787560L591.874454,1435.696807L584.046061,1430.898226L583.942048,1430.988979L583.552627,1430.773440L584.967262,1429.253328L583.954473,1428.618058L583.212830,1429.412145L583.610043,1429.661716L582.595874,1430.750752L594.847232,1438.215221L593.844951,1439.792070L587.191518,1435.764872L587.004288,1435.969067L592.981317,1439.508464L592.829450,1439.689972L590.292231,1438.147156L589.615790,1437.863550L580.806308,1432.418341L579.504539,1433.790984L588.420632,1439.224858L590.956324,1440.597512L592.847880,1441.323544L590.661378,1444.227681L589.472387,1446.065460L589.008858,1447.392747L583.966322,1455.345166L571.542646,1447.687700L569.851687,1450.535135L581.711106,1458.930017L579.193254,1462.866563L577.157207,1461.482531L576.546560,1462.685051L575.280473,1462.197236L575.452621,1461.981690L566.667603,1458.033803L565.855217,1459.077496L570.856041,1461.459842L574.670911,1463.104799L574.746842,1463.014042L576.137737,1463.433790L568.853662,1474.812442L568.441320,1474.755719L558.714103,1473.451080L558.416667,1473.473770L558.162900,1473.564527L557.954879,1473.746042L556.129701,1477.478448L556.060512,1477.693998L556.180596,1477.932237L556.398971,1478.068374L571.201221,1480.008325L571.069105,1480.303289L572.030548,1480.428081L572.014418,1480.507495L575.078661,1480.904561L575.161361,1480.734390L575.986049,1480.847837L576.033387,1480.700356L576.338619,1480.711700L573.010840,1487.813551L553.174575,1485.226928L552.822543,1485.215583L552.509488,1485.374411L552.278055,1485.658031L550.460176,1489.572006L550.499666,1489.798903L550.786154,1490.014456L563.843964,1491.761570L563.225138,1492.056537L563.045175,1492.442264L566.759425,1492.884716L566.894665,1492.521678L566.917588,1492.158641L570.720231,1492.646473L567.554286,1499.419413L547.505730,1496.764687L547.433955,1496.900826L546.959705,1497.036966L545.199079,1500.860230L545.072686,1501.166545L545.207856,1501.416136L545.482397,1501.552276L564.851895,1504.252397L561.797315,1510.911975L557.449160,1510.344717L557.520418,1510.151850L555.917298,1509.868222L555.971914,1509.698045L552.180156,1509.176169L552.026201,1509.539213L542.307084,1508.325285L541.898889,1508.313939L541.533830,1508.518152L541.382487,1508.756399L539.552743,1512.591058L539.624475,1512.863342L537.323506,1517.991375L538.824207,1518.127518L538.890261,1517.980030L537.852353,1517.889268L537.812855,1517.662363L539.656649,1513.521363L544.801432,1514.202074L544.872137,1514.360906L542.813592,1518.558637L541.397130,1518.422494L541.323795,1518.592673L544.435956,1518.898995L544.509291,1518.728816L543.508823,1518.638054L543.363752,1518.535947L545.191404,1514.474358L545.347416,1514.338216L550.375729,1514.973547L550.470358,1515.086999L548.637515,1519.193971L548.417547,1519.296079L547.004724,1519.148590L546.916826,1519.364150L550.044068,1519.681817L550.124684,1519.488948L549.081057,1519.386841L548.948987,1519.273388L550.850989,1515.155070L551.068880,1515.030273L555.360886,1515.597533L555.469031,1515.756366L553.559243,1519.840651L553.376715,1519.942758L552.374168,1519.829306L552.265987,1520.078902L554.945516,1520.362533L555.035491,1520.169664L553.967424,1520.056211L553.904515,1519.931413L555.821583,1515.824437L556.017112,1515.710985L559.238979,1516.142103L557.674024,1519.443567L562.175588,1520.203700L565.507175,1520.759618L560.406236,1531.696528L555.968064,1531.117913L555.563504,1531.095222L554.084934,1534.215214L553.796838,1534.442122L531.273705,1531.446929L530.758887,1531.651147L530.474945,1531.923437L528.697806,1535.769541L528.702464,1536.075868L528.816332,1536.246050L551.613582,1539.116459L551.750858,1539.184532L550.150092,1542.656264L550.146451,1542.667610L553.517607,1543.246233L554.851929,1543.405071L552.833583,1547.682358L555.642066,1549.168635L649.836096,1606.057463L689.601104,1630.100722L709.017730,1609.075599L722.114119,1585.577520L687.321943,1564.655561L727.694224,1522.109706L776.482387,1468.743054L778.262020,1464.364044L778.231862,1464.341355L735.002343,1437.852206Z " data-cartodb-id="52" data-created-at="2014-03-09T19:11:53Z" data-name="Chelsea" data-updated-at="2014-03-09T19:11:53Z"/><path d="M549.409197,1826.056560L536.826548,1809.963581L514.331268,1832.048943L514.406698,1832.105689L525.322192,1840.197741L532.333656,1833.683236L537.982201,1838.200257L544.708216,1842.217928L532.171311,1856.540961L534.174657,1857.914259L531.977714,1867.050719L546.563478,1877.481153L550.694083,1877.708149L549.513953,1878.820434L548.995718,1885.698469L600.898092,1880.636412L625.108004,1878.207542L629.023535,1863.645816L646.234136,1840.458776L599.674280,1820.608974L586.190161,1813.901680L565.698516,1839.494081L558.820910,1836.270874L549.409197,1826.056560Z " data-cartodb-id="54" data-created-at="2014-03-09T19:11:53Z" data-name="Chinatown" data-updated-at="2014-03-09T19:11:53Z"/><path d="M548.995718,1885.698469L549.513953,1878.820434L550.694083,1877.708149L546.563478,1877.481153L531.977714,1867.050719L534.174657,1857.914259L532.171311,1856.540961L544.708216,1842.217928L537.982201,1838.200257L532.333656,1833.683236L525.322192,1840.197741L514.406698,1832.105689L514.331268,1832.048943L444.667110,1901.021018L473.609797,1893.813712L477.981003,1892.179307L491.443992,1899.715753L493.383595,1902.632738L493.573919,1902.564638L503.982858,1898.535342L548.362284,1894.222313L548.995718,1885.698469Z " data-cartodb-id="57" data-created-at="2014-03-09T19:11:53Z" data-name="Civic Center" data-updated-at="2014-03-09T19:11:53Z"/><path d="M1538.437819,674.357840L1534.318368,673.813777L1530.593565,694.023676L1404.695297,830.528713L1417.071204,838.248966L1390.853812,866.613803L1378.276775,859.052027L1314.031517,928.595523L1312.781611,927.971944L1311.448238,927.869904L1308.475660,928.878969L1307.659374,931.883496L1308.087559,933.141999L1309.309399,933.765582L1305.014316,938.538841L1217.972138,1032.762007L1309.781369,1088.858358L1313.042390,1091.262403L1318.449403,1084.685313L1328.132074,1077.994875L1357.425321,1062.811166L1380.451621,1040.948887L1385.830766,1034.168059L1396.716315,1018.463493L1396.735030,1018.463493L1398.322888,1019.404626L1398.817697,1019.699438L1403.848444,1022.681588L1403.988811,1022.681588L1404.087606,1022.636232L1405.411249,1021.196181L1405.445613,1021.060114L1405.360397,1020.946724L1398.094784,1016.445164L1398.083436,1016.218386L1398.491199,1015.764830L1398.436128,1015.674119L1416.080586,996.613623L1419.629245,994.073766L1420.093232,994.697391L1423.448938,992.350295L1422.947522,991.726672L1444.151692,977.576205L1481.547763,956.951841L1482.817865,955.591262L1483.139080,955.727320L1485.294953,953.357649L1485.168671,953.255606L1485.474500,952.915462L1485.607575,952.938138L1485.811461,952.711376L1486.251174,952.915462L1486.590294,952.529966L1486.272229,952.325880L1486.407463,952.167146L1486.171547,951.940384L1494.729483,942.665861L1500.319565,932.348348L1512.842160,897.292356L1516.066143,883.392780L1514.691553,882.633184L1514.005103,852.726032L1510.356845,839.337288L1497.484376,809.476904L1496.091159,797.517153L1497.354873,787.246630L1518.531591,735.204287L1519.802645,731.486281L1518.335252,731.452275L1523.007210,718.938121L1523.016566,718.938121L1524.090978,718.972127L1538.437819,674.357840Z " data-cartodb-id="84" data-created-at="2014-03-09T19:11:53Z" data-name="East Harlem" data-updated-at="2014-03-09T19:11:53Z"/><path d="M697.473457,1635.354244L679.321722,1669.894369L660.251940,1688.674139L678.637184,1692.554963L666.495660,1715.011875L640.959546,1756.159770L755.339555,1803.846509L767.384130,1810.928243L782.652518,1815.047932L788.796305,1816.704892L798.912736,1819.110894L800.178685,1816.999967L802.900730,1812.301471L815.353634,1788.945546L831.742742,1757.192464L841.651798,1737.106219L841.891546,1737.117567L842.076136,1737.038131L842.175937,1736.901955L846.838699,1726.382393L846.851696,1726.371045L761.376296,1674.013402L761.366935,1674.013402L697.473457,1635.354244Z " data-cartodb-id="87" data-created-at="2014-03-09T19:11:53Z" data-name="East Village" data-updated-at="2014-03-09T19:11:53Z"/><path d="M81.038065,2070.369943L101.953702,2056.191013L90.022032,2039.775980L96.164359,2035.360094L108.814115,2051.491242L112.920764,2048.607820L120.126070,2048.619172L123.801479,2041.001989L128.529946,2037.551006L117.363145,2023.542881L116.544170,2024.053709L113.192914,2019.989803L109.130381,2022.793669L108.627664,2022.112567L108.811730,2021.976347L107.967086,2020.784420L107.310358,2021.227135L108.093103,2022.407711L108.322434,2022.305546L108.830877,2022.997999L102.964047,2027.050568L100.988616,2024.507778L78.086436,2041.467418L79.810048,2043.715106L67.888970,2052.581042L81.038065,2070.369943Z " data-cartodb-id="91" data-created-at="2014-03-09T19:11:53Z" data-name="Ellis Island" data-updated-at="2014-03-09T19:11:53Z"/><path d="M404.977841,1874.711798L390.178123,1906.060492L346.308580,1976.377779L341.897715,2000.907858L344.409715,2008.967403L347.403107,2014.325339L356.617991,2018.264351L356.796848,2019.138428L356.953255,2018.854637L360.456557,2019.433571L359.851835,2022.725559L359.202762,2022.793669L358.914944,2024.394260L358.611721,2024.405612L358.485603,2024.916440L359.039513,2024.882385L358.964724,2025.086716L358.616782,2025.120771L358.374243,2025.790523L358.681102,2025.767820L358.661385,2025.858634L358.355077,2025.938096L358.138532,2026.585146L358.432394,2026.573794L358.353421,2026.732719L358.084011,2026.755422L357.770761,2027.470583L357.424801,2027.323010L356.832889,2028.265207L356.402448,2028.673871L356.858329,2029.150645L357.059121,2029.196053L357.666451,2028.878203L358.194479,2028.106282L358.697947,2027.118678L359.061975,2026.040262L359.451339,2024.678053L361.514539,2024.462371L361.254479,2027.379769L360.449663,2030.887470L360.258787,2031.863726L360.227838,2032.340503L360.384574,2032.669706L361.034200,2032.658354L361.314955,2032.454021L361.490081,2032.170225L361.604627,2031.432357L361.669390,2030.966933L361.908067,2028.934962L362.523883,2026.017558L363.105005,2024.348853L365.020504,2024.155874L364.959813,2024.462371L365.001443,2025.472675L365.091759,2026.097021L365.264242,2026.698663L365.540921,2027.618156L365.784779,2028.435483L365.977420,2028.798740L366.270291,2028.878203L367.042504,2028.571705L367.349804,2028.401428L367.467656,2028.004116L367.589474,2027.243548L367.738608,2026.017558L367.954052,2024.292095L368.140416,2023.622343L370.213309,2023.054758L370.565431,2025.960800L370.574022,2026.460276L370.913816,2027.708970L370.947522,2028.480890L371.118467,2029.116590L371.426100,2029.559310L372.120003,2029.672828L372.457481,2029.525254L373.353823,2028.889554L373.340600,2027.527342L373.215363,2025.813227L373.160954,2023.293144L373.286851,2022.373656L375.679047,2021.715258L375.675850,2022.543931L375.789296,2023.622343L375.887323,2024.076412L375.932371,2024.666702L376.154970,2024.643998L376.319965,2024.859681L376.745448,2024.905088L376.959125,2024.734812L377.069268,2024.507778L377.098015,2023.803971L377.081384,2022.861779L377.112775,2022.237436L376.961992,2021.363355L379.241400,2020.852530L379.438332,2023.395309L379.483712,2023.633695L379.665778,2023.679102L379.925825,2023.656399L380.194134,2023.520178L380.375539,2023.304496L380.506829,2022.748262L380.733396,2020.432518L382.847919,2019.910341L383.242581,2027.391120L383.447231,2027.833839L383.848038,2027.459231L383.526294,2024.984550L383.740522,2024.871033L383.665954,2024.519129L383.513075,2024.587240L383.439938,2023.996950L383.701968,2023.792619L383.751312,2023.667750L383.681040,2023.565585L383.471438,2023.576937L383.405020,2022.907186L383.617155,2022.770965L383.518687,2022.464469L383.378806,2022.521228L383.390150,2022.339601L383.565388,2022.260139L383.507012,2022.033105L383.388938,2022.021753L383.373739,2021.806071L383.541156,2021.692554L383.393344,2021.510927L383.354574,2020.988750L383.415373,2020.886585L383.345433,2020.432518L383.210728,2020.443869L383.255887,2020.273594L383.242671,2019.876286L383.686767,2019.717363L383.736443,2019.240593L383.651528,2018.014615L382.820500,2018.241648L382.816661,2015.914564L384.723782,2015.630773L384.793304,2013.337751L391.527320,2011.487445L400.864660,2008.933349L402.035446,2012.849633L405.276557,2023.838026L408.238945,2022.509876L407.400508,2019.660604L417.730643,2015.029138L416.994880,2012.531789L406.664738,2017.163242L404.932197,2011.317172L403.925522,2007.911712L405.812703,2007.310082L422.267590,1997.468384L422.311758,1997.388924L422.840553,1997.082437L424.825124,1994.744058L433.418349,1989.601915L435.172180,1992.632711L436.756198,1995.141355L440.233547,2000.771641L441.619685,1999.863528L441.769587,2000.067853L441.144090,2000.442450L441.065118,2000.601369L440.930524,2000.817046L440.738767,2001.123535L440.608358,2001.384617L441.297074,2002.508409L441.371971,2002.508409L443.619637,2001.044075L442.849748,1999.852176L442.747316,1999.908933L442.528686,1999.568391L442.126777,1999.829473L441.986237,1999.625148L442.494212,1999.295957L437.378015,1990.714341L435.616687,1988.262466L440.950789,1984.936554L441.698288,1986.139783L445.870822,1983.517653L447.781616,1985.356549L449.101849,1986.730047L450.492677,1988.818678L451.677883,1990.555423L452.353804,1992.099199L454.349213,1995.515949L454.538547,1995.538652L454.698912,1995.856490L454.929328,1995.867841L456.729375,1994.778112L456.212375,1993.790546L456.800422,1993.415952L456.641159,1993.211628L449.549917,1981.179310L451.190824,1980.089598L451.616166,1980.895530L451.336955,1981.065798L452.262096,1982.825230L453.163170,1982.291725L452.234395,1980.543645L451.936460,1980.713912L451.470035,1979.919331L455.514691,1977.433433L455.849629,1977.410730L460.824178,1985.878705L462.425487,1988.625706L465.042348,1987.002477L458.402516,1975.753469L462.240659,1973.210827L461.521810,1972.064370L466.648403,1968.772572L467.361521,1969.907674L469.563491,1968.556903L469.685847,1968.817976L469.347378,1969.056347L469.689005,1969.919025L473.470177,1976.003193L474.586468,1975.265372L470.417414,1968.375287L469.849629,1968.715817L469.704914,1968.466095L473.321114,1966.207248L479.055962,1975.662660L478.949346,1975.674011L477.885044,1976.366428L477.859600,1976.445886L478.215123,1977.002090L478.316012,1976.979388L479.359498,1976.264268L479.387034,1976.207513L480.250728,1977.808020L480.381795,1977.808020L482.723629,1976.400482L482.739711,1976.321024L479.994885,1971.882753L480.600115,1971.542222L478.639711,1968.250426L479.988955,1967.399101L483.239025,1969.294719L484.365227,1968.613658L485.735863,1970.940617L488.008641,1974.777275L488.226058,1974.799977L498.092437,1968.693115L498.263931,1968.420691L497.365443,1966.899658L493.257762,1959.964235L498.092331,1957.262727L497.052487,1954.867699L497.077933,1954.788243L497.158006,1954.742840L497.138186,1954.629332L497.333140,1954.459069L496.935353,1953.596407L498.095370,1952.926710L497.792847,1952.234311L508.484974,1946.706492L511.515756,1944.901729L511.747062,1944.617961L511.923740,1944.300142L512.048431,1944.027725L512.040065,1943.936920L515.837419,1942.018656L516.140483,1942.767800L516.258552,1942.779151L516.803975,1942.449981L516.653439,1941.984604L521.339961,1939.657722L493.573919,1902.564638L493.383595,1902.632738L491.443992,1899.715753L477.962279,1892.179307L473.609797,1893.813712L444.667110,1901.021018L404.977841,1874.711798Z " data-cartodb-id="98" data-created-at="2014-03-09T19:11:53Z" data-name="Financial District" data-updated-at="2014-03-09T19:11:53Z"/><path d="M790.009892,1560.548379L727.694224,1522.109706L687.321943,1564.655561L722.114119,1585.577520L738.030644,1595.312526L750.562155,1581.572357L763.433819,1589.389817L770.445405,1581.799277L770.458405,1581.787931L790.009892,1560.548379Z " data-cartodb-id="100" data-created-at="2014-03-09T19:11:53Z" data-name="Flatiron District" data-updated-at="2014-03-09T19:11:53Z"/><path d="M206.038546,2224.048370L217.772107,2214.385907L215.606452,2207.664257L216.549718,2207.232802L237.351416,2197.672711L237.389989,2197.786250L238.922198,2202.566284L230.788217,2206.596973L231.058241,2207.391759L248.171512,2199.409869L247.838049,2198.637798L240.086124,2202.293787L239.677788,2202.282433L238.152285,2197.422924L238.113711,2197.309384L275.870248,2179.472493L275.952147,2179.801752L277.515468,2184.513564L277.258918,2185.081254L269.637808,2191.927623L265.964087,2195.742539L266.664093,2196.276174L270.261933,2192.552087L278.100894,2185.580821L278.660982,2185.410514L292.905599,2184.082120L293.150389,2183.082987L278.756947,2184.320549L278.219899,2183.979936L276.787245,2179.415725L276.654899,2179.097820L287.724267,2173.852415L298.339757,2174.794769L314.965444,2165.995720L317.638547,2164.576527L329.796444,2151.803892L330.165071,2150.827502L334.798846,2138.395663L335.606689,2138.475136L336.010264,2137.623646L336.197517,2137.623646L336.347180,2137.419289L336.765845,2137.339817L337.038482,2136.692685L337.666338,2136.749451L337.717485,2136.238559L338.350101,2134.876179L338.203932,2134.864826L338.021009,2135.114596L337.475460,2135.239480L337.280244,2135.001064L337.337819,2134.762648L336.198094,2134.637763L337.199642,2131.947071L340.570324,2132.151427L340.785251,2131.538359L337.452579,2131.390769L337.691404,2130.732289L334.506998,2130.618758L334.534701,2128.484378L340.424921,2127.076599L340.429262,2126.565712L335.493892,2127.769135L335.497811,2127.405837L335.260671,2127.473956L335.241660,2127.825901L334.843817,2127.928078L334.800216,2128.064315L334.540716,2128.143786L334.554420,2127.632899L334.274658,2127.746429L333.590087,2126.872244L333.096809,2126.599771L332.618218,2125.725587L333.059105,2125.430408L332.687695,2124.601637L332.891999,2124.431342L331.287445,2121.400092L330.501813,2121.865564L330.130542,2121.241150L330.093516,2121.093562L330.067390,2120.911914L330.068928,2120.877855L330.083462,2120.832443L330.097997,2120.787031L330.145790,2120.696208L330.179050,2120.650796L330.218038,2120.616737L330.247664,2120.582678L330.273657,2120.559972L330.344366,2120.514560L330.420805,2120.480501L330.510240,2120.435089L330.693301,2120.389677L339.011230,2118.505087L339.007597,2118.516440L339.096452,2119.174911L339.211032,2119.401970L339.348952,2119.526853L339.850608,2119.890147L340.835062,2120.412383L341.296481,2120.491854L343.792250,2119.890147L344.246133,2119.583617L345.787786,2117.926088L346.040172,2117.313030L346.054060,2115.485211L345.849355,2115.042448L344.328881,2114.088805L343.792563,2114.009335L341.836614,2114.474803L341.545394,2114.565626L341.267727,2114.701861L341.001518,2114.860801L340.761858,2115.053801L340.633992,2115.190035L338.888583,2117.074618L338.948658,2117.471971L329.829873,2119.606323L329.732614,2119.617676L329.625992,2119.629029L329.526637,2119.617676L329.443912,2119.583617L329.361187,2119.549559L329.304455,2119.492794L329.251356,2119.424676L329.216982,2119.356558L324.749675,2111.579822L316.697029,2109.388724L318.358466,2107.912859L318.717578,2108.253443L319.312331,2107.799331L317.876017,2106.641346L317.338550,2107.208985L317.659098,2107.436041L315.799637,2109.150315L315.377212,2109.036787L316.464202,2107.220338L317.053057,2107.311160L317.394895,2106.652698L315.540306,2106.187234L315.138658,2106.857049L315.593360,2107.015988L314.556815,2108.821083L302.980182,2105.676359L297.125232,2106.096412L291.363906,2106.516465L289.140927,2106.675404L283.342148,2107.095457L282.836573,2107.095457L282.696135,2107.095457L281.336476,2107.072752L279.978356,2107.015988L279.135175,2106.959224L278.260828,2106.970577L277.370404,2107.061399L276.284477,2107.265749L275.737387,2107.424688L275.205942,2107.651744L274.684415,2107.935564L274.200893,2108.276148L273.753281,2108.650791L273.382663,2109.048140L272.293421,2110.637536L265.857063,2120.537266L213.096455,2164.451638L210.259485,2166.733702L189.013765,2184.672517L187.816013,2185.694359L186.993616,2186.421003L186.322003,2187.056817L185.230596,2188.419278L183.992738,2190.122356L183.111650,2191.734607L182.597532,2192.960828L182.076290,2194.414129L181.709190,2196.117219L181.527674,2197.650003L181.587500,2199.160081L181.738027,2200.942659L182.194879,2202.645762L182.779313,2203.803874L183.386669,2205.007403L183.835690,2205.915728L184.854749,2207.471238L186.336792,2209.072166L187.945291,2210.014558L190.090407,2210.684452L192.025761,2211.161326L193.297881,2211.604137L194.990775,2211.990178L196.922351,2212.274032L198.917786,2212.387574L201.445226,2212.330803L203.053412,2212.103720L205.358504,2211.717679L205.433408,2211.717679L206.919726,2211.286221L208.399754,2210.786639L209.683719,2210.343828L210.944765,2209.855600L213.785462,2208.527169L215.615401,2214.249657L205.038607,2223.105963L206.038546,2224.048370Z " data-cartodb-id="117" data-created-at="2014-03-09T19:11:53Z" data-name="Governors Island" data-updated-at="2014-03-09T19:11:53Z"/><path d="M818.997713,1611.832778L819.001351,1611.821432L819.074150,1611.798739L770.458405,1581.787931L770.445405,1581.799277L763.433819,1589.389817L750.562155,1581.572357L738.030644,1595.312526L722.114119,1585.577520L709.017730,1609.075599L689.601104,1630.100722L697.473457,1635.354244L761.366935,1674.013402L761.376296,1674.013402L768.664004,1666.785248L818.997713,1611.832778Z " data-cartodb-id="119" data-created-at="2014-03-09T19:11:53Z" data-name="Gramercy" data-updated-at="2014-03-09T19:11:53Z"/><path d="M679.321722,1669.894369L697.473457,1635.354244L689.601104,1630.100722L649.836096,1606.057463L583.706675,1677.531049L560.309990,1708.373467L599.866257,1737.435312L606.657033,1741.452526L660.251940,1688.674139L679.321722,1669.894369Z " data-cartodb-id="127" data-created-at="2014-03-09T19:11:53Z" data-name="Greenwich Village" data-updated-at="2014-03-09T19:11:53Z"/><path d="M1563.010598,576.567662L1517.378766,550.399110L1450.472776,509.510114L1446.077747,510.462055L1439.042667,506.801623L1436.201645,509.725434L1432.446588,514.383153L1428.653402,518.258937L1426.057091,522.746708L1422.020971,527.812475L1415.968020,534.521543L1407.170413,544.029917L1398.569574,553.799053L1375.318876,579.571030L1375.085235,579.831700L1375.064467,579.809033L1373.843116,579.185692L1373.715114,579.321693L1368.800220,584.909116L1358.772127,578.891021L1349.426677,589.578549L1346.949726,588.263852L1320.974429,617.878999L1312.965990,627.059549L1312.897181,627.796264L1313.229290,628.362968L1323.730090,634.687409L1322.449453,636.194854L1324.737351,637.486952L1322.870077,639.334428L1321.441611,641.068566L1320.503590,643.052060L1315.842101,648.027817L1314.947669,647.347757L1314.979575,641.669281L1314.872466,641.159240L1314.536034,640.751207L1313.492380,640.127824L1315.276582,638.189673L1309.975261,634.982098L1305.555574,639.787797L1310.881341,643.006723L1312.589099,641.102568L1313.482124,641.612609L1313.687570,642.020642L1313.663782,648.458521L1310.955747,651.144762L1311.390056,651.394118L1311.924100,651.711481L1308.246374,655.259147L1307.818896,654.930449L1307.152464,654.443069L1309.903627,651.768153L1309.045025,651.122094L1305.270548,654.737764L1306.195113,655.440497L1306.737224,654.919114L1307.727750,655.678520L1305.670652,657.650712L1298.149701,665.550856L1297.122206,664.848114L1296.738322,664.587420L1293.475849,667.659084L1289.437177,671.456173L1285.463537,675.196605L1282.570465,677.905594L1271.214056,688.594276L1269.498300,690.203824L1269.162222,690.521200L1271.376883,691.314640L1280.890453,683.618299L1315.912063,771.036216L1259.692400,832.557966L1250.092384,860.423799L1229.969094,882.463126L1229.896784,882.542486L1238.816938,887.916354L1237.895930,890.081782L1239.088608,891.464938L1241.709603,891.578312L1244.421833,889.662301L1308.475660,928.878969L1311.448238,927.869904L1312.781611,927.971944L1314.031517,928.595523L1378.276775,859.052027L1390.853812,866.613803L1417.071204,838.248966L1404.695297,830.528713L1530.593565,694.023676L1534.318368,673.813777L1538.437819,674.357840L1539.163711,672.102246L1537.871595,671.988900L1544.388298,647.903139L1545.639151,643.290080L1555.445053,607.100471L1556.432770,603.450988L1560.322225,589.102538L1563.010598,576.567662Z " data-cartodb-id="129" data-created-at="2014-03-09T19:11:53Z" data-name="Harlem" data-updated-at="2014-03-09T19:11:53Z"/><path d="M774.338926,1395.198951L860.401765,1301.992771L894.090179,1265.198447L805.952655,1211.495500L802.453590,1207.560056L802.394291,1207.628104L801.722210,1207.185793L800.857573,1207.197134L782.594798,1196.026016L782.498063,1196.094063L783.310246,1197.148792L786.637471,1198.997406L785.389608,1200.347010L784.392639,1199.779950L783.077692,1201.163579L790.145781,1205.495939L791.454507,1204.044256L799.354314,1208.875649L798.110117,1210.213927L794.646443,1213.945237L777.956428,1203.704018L775.036248,1206.879577L791.759115,1217.018759L791.698741,1217.177540L791.270151,1217.608514L791.715319,1218.640586L791.624718,1218.980829L791.456182,1219.184975L791.181056,1219.400463L790.843068,1219.491195L789.625446,1219.377780L786.992962,1222.269857L784.540058,1220.670708L784.430820,1220.806805L783.404096,1220.477902L783.691727,1220.194366L782.931269,1219.706683L783.474315,1219.094244L782.968531,1218.833390L782.414055,1219.423146L782.359476,1219.389122L780.883802,1221.010952L781.459737,1221.373879L781.683928,1221.113025L782.432958,1221.578026L782.705516,1221.283148L783.330733,1221.929612L782.654018,1222.666810L785.281676,1224.129865L780.342867,1229.539786L779.300144,1228.881974L777.638802,1230.673946L778.724178,1231.286392L772.478271,1238.114068L753.297413,1226.477562L749.498217,1230.583213L768.700944,1242.355872L764.065963,1247.402965L763.140167,1246.847217L761.244798,1248.843377L761.176142,1248.911428L762.150805,1249.489861L761.490749,1250.204398L742.777086,1238.511027L742.389236,1238.465661L741.962298,1238.658469L739.375602,1241.437191L739.333867,1241.800127L764.936374,1257.395158L754.860340,1268.396907L729.641248,1252.801685L729.370916,1252.710950L728.995489,1252.801685L726.226778,1255.739237L726.135684,1256.022785L726.279634,1256.215598L751.667777,1271.867590L751.612124,1271.924300L741.754642,1282.654013L741.120441,1282.268376L740.992491,1282.404483L716.381283,1267.013175L715.915411,1267.035859L715.565415,1267.251358L713.140507,1269.905405L712.968330,1270.120905L713.141859,1270.483852L738.634905,1286.102066L738.679562,1286.283543L738.379441,1286.635154L736.721240,1288.563349L736.256804,1288.960330L735.770071,1289.164492L734.697869,1289.414024L734.218423,1289.595501L733.816423,1289.856375L733.517874,1290.173961L733.328490,1290.559601L733.283637,1290.990611L733.359948,1291.364909L733.575140,1291.569072L733.855342,1291.716523L733.810359,1292.555858L729.351856,1297.433096L704.788463,1282.415825L704.430680,1282.597301L701.121062,1286.170119L701.117279,1286.589785L701.525860,1286.862000L698.271473,1290.117249L702.940647,1292.975527L701.855167,1294.053054L705.282963,1296.230798L706.450598,1295.130583L721.241207,1304.181876L724.254821,1300.801809L725.536251,1301.561756L718.765343,1308.889039L718.652028,1308.775613L715.366443,1310.613114L690.644187,1295.448171L690.539166,1295.425486L690.426858,1295.425486L690.307263,1295.448171L690.193384,1295.482198L690.072218,1295.538910L689.969770,1295.595622L689.003880,1296.650468L689.483695,1296.934029L689.871193,1296.514359L690.612695,1296.332880L691.501095,1296.888659L688.575860,1300.109917L705.624223,1310.465660L699.682368,1316.930970L684.360273,1307.698068L682.226302,1306.416358L680.158800,1308.628159L697.559757,1319.256225L687.967249,1329.657560L670.821937,1318.961314L670.587457,1318.904601L670.332123,1319.029371L668.826371,1320.628695L668.749362,1320.810179L668.816383,1320.980320L686.042825,1331.744647L681.262991,1336.894328L679.572108,1338.720544L676.876618,1337.030444L676.335182,1337.608934L666.180027,1348.509577L665.536652,1349.201506L665.510648,1349.224192L667.389450,1350.426562L668.274266,1350.993717L668.270624,1351.005061L666.862155,1352.593099L663.397204,1350.471934L663.097093,1350.823571L662.431184,1350.245072L662.587208,1350.108954L662.168227,1349.723289L661.525412,1350.267758L661.946467,1350.676110L662.130569,1350.539993L662.843274,1351.118492L662.609743,1351.379384L661.427011,1352.672501L662.145995,1353.114884L664.860250,1354.805014L663.432560,1356.336344L661.093122,1354.907103L659.634215,1356.506491L656.775698,1359.637218L642.596662,1351.039090L641.560535,1350.505963L641.275611,1350.460591L640.978189,1350.483277L640.700998,1350.676110L633.922359,1357.969764L633.764204,1358.287374L633.811954,1358.604984L634.034447,1358.786476L649.200871,1367.895128L646.308073,1370.957833L645.684994,1371.615749L649.332962,1374.099953L643.408994,1380.656470L641.803069,1379.624213L639.671179,1381.949630L645.315149,1383.027264L735.002343,1437.852206L774.323849,1395.187607L774.338926,1395.198951Z " data-cartodb-id="131" data-created-at="2014-03-09T19:11:53Z" data-name="Hell's Kitchen" data-updated-at="2014-03-09T19:11:53Z"/><path d="M1778.006039,265.517126L1778.388295,264.882667L1778.262137,264.780700L1779.214189,263.568432L1780.374796,262.231540L1780.421569,262.231540L1780.458987,262.231540L1780.509412,262.220211L1780.550482,262.208881L1780.595204,262.186222L1780.634224,262.152233L1780.673244,262.118245L1780.712264,262.084256L1780.732575,262.050267L1780.756538,262.004949L1780.767495,261.970960L1780.772749,261.925642L1780.774351,261.891653L1780.770251,261.846335L1782.029659,260.464127L1782.123652,260.520775L1785.115519,257.246537L1785.617198,257.518446L1786.622624,256.430812L1786.765439,256.510118L1787.850509,255.320520L1787.899331,255.343179L1788.952686,254.164912L1787.537547,253.360519L1786.484190,254.538785L1786.523658,254.561444L1785.489011,255.739712L1785.618820,255.830348L1784.602435,256.951969L1784.724491,257.008617L1781.753382,260.305513L1781.866084,260.362161L1780.606676,261.744368L1780.559904,261.744368L1780.522486,261.744368L1780.472061,261.755698L1780.430991,261.767028L1780.386268,261.789687L1780.341546,261.812346L1780.302526,261.846335L1780.272860,261.880323L1780.243195,261.914312L1780.222884,261.948301L1780.208275,261.993619L1780.197318,262.027608L1780.192064,262.072926L1780.199817,262.106915L1780.207569,262.140904L1777.869505,264.576767L1778.660560,261.223208L1779.954909,258.107581L1780.864464,254.357513L1781.807288,253.870345L1782.190113,254.017628L1783.117432,253.462484L1783.858817,252.816704L1783.543970,252.748727L1783.372645,252.612774L1783.587163,252.295549L1784.401709,252.148266L1784.956265,251.298556L1785.866030,250.652778L1787.162794,249.735094L1787.409662,249.723764L1788.765422,249.406540L1789.964468,248.908045L1790.360820,248.636139L1790.603923,247.911057L1790.861077,246.358929L1791.675249,245.690495L1793.949420,244.874780L1795.085370,243.730515L1795.457498,243.707856L1796.094307,243.560574L1796.470272,243.787161L1795.691915,244.489582L1795.326832,244.693510L1795.784415,245.305297L1796.058452,245.180673L1796.201712,245.316626L1796.700777,244.784145L1796.531503,244.670852L1797.060681,244.161030L1797.495978,244.319641L1797.632903,244.127042L1797.865608,244.217677L1798.004583,244.047737L1796.992593,243.356646L1797.090945,243.254682L1797.158475,243.277340L1797.247473,243.175376L1797.221012,243.141388L1797.282394,243.096071L1797.757605,243.333987L1797.829944,243.254682L1797.382796,243.016765L1797.668498,242.710873L1798.081880,242.937460L1798.235912,242.778849L1798.440554,242.869484L1798.316635,243.050753L1799.211640,243.379304L1799.291283,243.277340L1799.402828,243.424622L1799.591072,243.333987L1800.367378,242.608909L1800.205409,242.472957L1799.367274,243.186705L1799.327806,243.164047L1799.544375,242.869484L1799.360492,242.801508L1799.762360,242.280358L1799.636653,242.235040L1799.221778,242.767520L1798.619704,242.574921L1798.514048,242.699544L1798.330165,242.631567L1798.719027,242.121747L1798.150272,241.883831L1798.474994,241.543951L1798.553929,241.589268L1798.468584,241.679903L1798.532462,241.713891L1798.623509,241.634586L1798.702444,241.679903L1798.635807,241.770538L1798.697636,241.781867L1798.792336,241.691232L1799.015686,241.781867L1799.115641,241.645915L1799.044458,241.634586L1798.994480,241.702562L1798.838661,241.634586L1798.879284,241.566610L1798.789392,241.555280L1798.746719,241.600598L1798.667785,241.555280L1798.723464,241.498634L1798.674642,241.475975L1798.618963,241.532622L1798.550985,241.453316L1798.584304,241.407999L1798.321039,241.238059L1798.177518,241.306035L1798.107044,241.147425L1798.195594,240.988814L1798.456177,240.818874L1799.394932,241.475975L1799.657826,241.124766L1798.691008,240.467665L1798.513459,240.728240L1798.211360,240.852862L1798.353094,240.558300L1798.233798,240.377031L1798.198246,240.139115L1798.287244,240.037151L1798.735546,240.184432L1798.668909,240.275067L1799.015916,240.388360L1799.198720,240.082468L1799.927393,240.433677L1799.827438,240.569629L1799.572372,240.490324L1799.491126,240.626276L1800.390228,241.000143L1800.471475,240.864191L1800.676116,240.954826L1800.722441,240.898179L1800.797723,240.954826L1800.720129,241.079449L1800.297502,241.577939L1800.244319,241.713891L1800.428464,241.577939L1800.524058,241.600598L1800.575376,241.702562L1800.889141,241.396670L1801.031769,241.215400L1801.017868,241.113437L1800.892161,241.068119L1800.932337,240.943497L1801.602464,240.750898L1801.623931,240.626276L1800.970464,240.796215L1801.307746,240.388360L1801.253222,240.354372L1800.856608,240.830203L1800.762617,240.773557L1800.843863,240.637605L1800.490707,240.456336L1800.632888,240.218420L1801.079033,239.617967L1800.658347,239.414039L1800.825201,238.983526L1802.196121,239.402710L1802.166902,239.493344L1802.357828,239.742589L1802.559078,239.640625L1802.534221,239.572649L1802.413060,239.629296L1802.299467,239.459356L1802.797639,238.813586L1803.056803,238.938209L1803.132794,238.847574L1802.845567,238.722952L1803.186502,238.303768L1802.858204,238.190475L1803.221501,237.759962L1803.450552,237.861926L1803.552557,237.748633L1803.273081,237.657999L1803.876912,236.887608L1804.199954,237.046217L1804.297859,236.887608L1804.012682,236.785644L1804.038248,236.706339L1804.253215,236.445766L1804.740274,236.762986L1804.832925,236.649693L1804.381680,236.366461L1804.559230,236.105888L1805.459932,236.445766L1805.700465,236.105888L1804.595123,235.675376L1802.644209,238.099841L1802.496588,238.122499L1802.196354,238.009206L1802.191808,237.907243L1800.975368,237.386096L1799.939159,236.944254L1800.512249,235.833986L1800.497089,235.097584L1800.098056,235.029608L1800.055647,234.870999L1799.392379,234.984291L1799.189788,234.916316L1799.317807,234.780365L1799.523157,234.723719L1799.383551,234.576439L1799.735000,234.066623L1799.804214,233.590795L1799.667369,233.318893L1799.401347,233.273576L1799.836804,232.503189L1800.263535,232.050020L1800.143531,232.016032L1800.155645,231.891411L1800.042947,231.834765L1799.933008,231.653498L1800.081785,231.540206L1800.194302,231.336280L1800.007033,231.075708L1799.658426,230.996404L1799.469373,230.509248L1799.216359,230.452602L1799.124683,230.214689L1799.139558,229.965447L1799.442188,229.432975L1799.581612,229.319683L1799.658315,229.081770L1799.616172,228.719237L1799.490732,228.469995L1799.182484,228.526641L1798.968938,228.492653L1798.666657,228.356703L1798.564025,228.152778L1798.732403,228.152778L1798.922431,228.288728L1799.175891,228.402020L1799.362532,228.345374L1799.329032,228.130120L1799.208583,228.039487L1798.887594,227.903537L1798.655604,227.665624L1798.539699,227.676953L1798.512348,227.529674L1797.951884,226.917900L1797.777359,226.849925L1797.648713,226.668659L1797.442026,226.555367L1797.382513,226.362772L1796.946512,226.351442L1796.821964,226.215493L1796.710870,226.124859L1796.537681,226.226822L1796.328500,226.034226L1796.250724,225.898277L1795.859891,225.920935L1795.512889,225.807644L1795.337918,225.683023L1795.286156,225.524415L1795.507720,225.388466L1795.223258,225.139225L1795.129982,224.935300L1795.143256,224.720047L1795.552261,223.915679L1795.615960,223.689097L1795.789149,223.587135L1795.929285,223.326565L1796.231831,223.258591L1796.441101,222.986692L1796.054900,222.646819L1796.398071,222.510870L1796.479498,222.635490L1796.637363,222.726123L1797.009487,222.703465L1797.085035,222.556186L1797.202543,222.510870L1797.105614,222.318275L1797.008418,222.329604L1796.888238,222.035048L1796.925477,221.774479L1796.876211,221.695175L1796.918439,221.593213L1796.989176,221.547897L1797.051271,221.355303L1796.884942,221.377961L1796.698569,221.230683L1796.618746,221.072076L1796.804764,220.698216L1796.982051,220.641571L1796.906948,220.845494L1797.059825,220.777519L1797.100004,220.652900L1797.418051,220.652900L1797.584648,220.426318L1797.766032,220.414989L1797.594893,220.539609L1797.909287,220.550938L1797.762557,220.686887L1798.116863,220.777519L1798.511348,220.743532L1798.593756,220.516951L1798.400968,220.505622L1798.415133,220.403660L1798.511438,220.279040L1798.423865,220.086446L1798.285154,220.052459L1798.475715,219.780561L1798.289074,219.837207L1798.122300,219.803219L1798.029470,219.655941L1798.130141,219.372715L1798.382708,219.372715L1798.547256,219.123476L1798.453981,218.919553L1799.202155,217.469435L1799.641009,216.891654L1800.969959,214.829773L1801.373622,214.535219L1801.504582,214.535219L1801.844814,214.263323L1801.874036,214.172691L1802.524118,213.810163L1803.234423,213.492951L1803.588107,213.266371L1803.763789,213.243713L1803.834526,213.198398L1803.991945,213.232384L1804.374043,213.526938L1805.361478,217.050260L1805.981174,219.248095L1806.380744,222.476883L1806.723560,223.009350L1806.578169,223.315236L1806.776306,224.006312L1807.070389,224.051629L1807.946405,224.584097L1807.911482,224.663401L1808.492524,225.037262L1808.386865,225.161883L1808.458493,225.229858L1807.823205,225.807644L1813.289400,229.308354L1813.333676,229.229050L1812.785503,228.753224L1807.987931,225.818973L1808.214304,225.581061L1808.296890,225.615048L1808.610658,225.309162L1809.091382,225.297832L1809.715543,225.683023L1809.598481,225.784985L1815.427449,229.263037L1815.411236,229.342342L1815.584160,229.444304L1815.819176,229.353671L1817.537678,227.824232L1825.352996,220.788849L1830.470827,215.214959L1830.901211,214.750470L1831.036352,213.141753L1838.299723,206.570965L1837.988093,206.435018L1838.028272,206.310400L1838.270147,206.140467L1838.278611,206.027178L1838.581423,205.755284L1838.664721,205.641995L1838.776972,205.641995L1838.876484,205.449404L1839.173149,205.109537L1839.425982,204.905618L1839.501797,204.554422L1844.250134,199.807634L1845.232070,198.822027L1847.012782,196.635569L1852.782059,193.248269L1856.419989,190.755949L1859.054160,188.852728L1861.099365,187.470629L1863.052904,185.850630L1865.238965,184.060705L1866.539219,182.871200L1866.661983,182.780571L1867.083093,183.041129L1867.217704,183.029800L1867.344121,182.927843L1867.298954,182.893857L1867.434725,182.791899L1867.500649,182.848543L1867.707156,182.701271L1867.611122,182.621970L1867.759456,182.452041L1868.113037,182.689942L1869.992732,180.718765L1869.808414,180.594151L1870.681487,179.801150L1870.173699,179.461293L1870.057797,179.472621L1869.809604,179.314021L1869.938342,179.030807L1869.941824,178.758922L1869.868697,178.260465L1870.107910,177.750680L1871.917866,175.473644L1872.580064,174.986517L1873.187468,174.669319L1873.807435,174.284149L1874.143569,173.966951L1874.255205,173.649753L1874.744971,171.927822L1874.924514,170.964902L1874.850674,170.613719L1874.689880,170.387150L1874.534345,170.115267L1874.299162,169.945340L1874.236007,169.764085L1873.988979,169.514859L1873.659094,169.435559L1873.127958,169.458216L1872.588355,169.594158L1871.755397,169.537515L1871.037455,169.356260L1869.945349,169.175005L1869.282645,168.880465L1868.928903,168.382014L1869.087421,167.600352L1869.674622,166.852676L1870.540289,166.546809L1871.551692,166.456181L1872.026260,166.376883L1872.256459,166.388211L1872.175816,166.841348L1873.941523,166.558137L1874.068050,165.991717L1874.312861,165.957731L1874.436345,165.719835L1874.444813,165.606551L1877.790915,165.266699L1883.104007,168.370686L1883.015154,166.818691L1882.766735,165.674521L1879.705174,163.884635L1879.788474,163.771351L1885.677552,163.261574L1889.795714,161.890841L1894.114004,157.404822L1909.082390,141.851190L1907.690046,140.831660L1919.860607,128.733324L1925.370599,121.596740L1927.712446,118.424942L1928.407660,117.371454L1928.570458,116.895686L1928.673479,116.431246L1928.662803,116.261329L1928.849284,115.944150L1929.438266,115.423072L1929.785084,115.275810L1930.273092,115.241827L1930.808593,115.060582L1931.141808,114.607471L1932.086937,113.214155L1932.917048,111.945446L1932.387377,111.673580L1932.200300,111.673580L1932.281403,111.277108L1930.463653,110.155663L1930.519623,109.895125L1930.212113,109.804503L1930.185218,109.713881L1930.037163,109.679898L1930.004568,109.577949L1929.687264,109.430688L1929.734606,109.022890L1929.869347,108.547126L1930.043263,108.297917L1930.333518,108.094018L1930.978339,107.776842L1931.318731,107.765515L1931.660442,107.924102L1932.025395,108.184640L1932.549803,108.501815L1933.020862,108.694387L1933.592479,109.068201L1933.817698,108.920941L1934.087352,108.954924L1934.241988,109.113512L1934.553878,109.045546L1934.938837,108.751025L1934.787856,108.581109L1934.979159,108.161984L1935.312816,107.765515L1936.386858,106.349553L1939.619606,99.371726L1942.495789,92.484572L1946.634193,86.730212L1946.843917,85.790035L1946.991531,85.767380L1947.089013,85.552159L1946.948269,85.495522L1946.945345,85.359592L1947.335275,83.773754L1947.420335,83.162074L1947.689548,81.689513L1947.766718,80.783323L1947.848567,79.514658L1948.047334,79.333420L1948.106966,79.061564L1947.966386,76.365658L1945.563922,68.561168L1942.843109,65.310260L1940.118045,63.203406L1935.866632,60.145079L1934.032041,59.250236L1913.179737,51.547833L1909.017567,51.083425L1902.848293,51.128733L1901.760187,51.457217L1900.309900,52.125511L1898.769860,53.043000L1896.160773,53.360157L1891.668733,55.251775L1887.891958,56.984817L1887.575240,57.154723L1887.409790,57.290648L1887.375725,57.483209L1887.198876,57.596480L1887.073190,57.551171L1886.976869,57.675769L1886.613383,57.845676L1886.293880,58.140180L1886.363925,57.517190L1886.324466,57.494536L1889.004180,54.436227L1889.146963,54.515516L1892.020934,51.174041L1891.397337,50.845558L1888.514010,54.187032L1888.636041,54.243667L1886.021801,57.301975L1885.924176,57.256667L1884.711944,58.230797L1884.334405,58.763171L1883.902529,58.797152L1883.408962,59.080330L1883.155369,59.431470L1882.915959,59.680667L1882.670415,59.861901L1882.172324,60.043134L1881.633598,60.292331L1881.248185,60.530201L1880.263530,61.175847L1880.004674,61.572297L1879.946203,61.753531L1880.086637,62.014055L1879.939894,62.149981L1879.698309,62.116000L1879.609167,61.957420L1879.479826,61.923438L1879.143226,62.183963L1878.396371,62.614394L1878.232965,62.772974L1878.004824,62.784302L1877.784121,63.033499L1877.513867,63.407295L1877.376608,63.803746L1877.402015,64.188870L1877.528573,64.347450L1877.991557,64.709920L1878.866233,65.332915L1878.914439,65.763348L1878.886509,66.023873L1878.674291,66.159800L1877.997174,66.171127L1877.804837,66.216436L1877.784824,66.046528L1877.735576,65.967237L1877.591616,65.978564L1877.437433,65.876620L1877.355599,65.695385L1877.412460,65.548131L1877.409545,65.412205L1877.305349,65.242297L1877.184926,65.151680L1877.053975,65.151680L1876.906361,65.174334L1876.729077,65.230970L1876.560408,65.434859L1876.422583,65.514150L1876.190787,65.536804L1876.063926,65.582113L1876.009848,65.604767L1875.927275,65.570786L1876.232160,65.321588L1876.267094,65.242297L1876.225459,64.936463L1876.167293,64.913809L1876.138796,64.857173L1875.952898,64.766556L1875.888597,64.675938L1875.850312,64.562666L1875.778703,64.494703L1875.677422,64.460722L1875.572487,64.438068L1875.465943,64.449395L1875.365098,64.472049L1875.286614,64.483376L1875.196732,64.472049L1875.105240,64.494703L1874.982033,64.528685L1874.919038,64.607975L1874.831636,64.675938L1874.584787,64.687265L1874.396104,64.721247L1874.248926,64.800537L1874.244836,64.755228L1874.227739,64.721247L1874.204942,64.675938L1874.169137,64.641957L1874.129678,64.619302L1874.080865,64.596648L1874.067422,64.551339L1874.078385,64.517358L1874.111710,64.472049L1874.160088,64.438068L1874.201157,64.426740L1874.294258,64.370105L1874.378006,64.313469L1874.456054,64.245506L1874.515395,64.177543L1874.578391,64.098252L1874.616980,64.007635L1874.651915,63.928345L1874.662443,63.837728L1874.649000,63.792419L1874.616850,63.747110L1874.581045,63.713129L1874.532232,63.690474L1874.474066,63.667820L1874.421598,63.656493L1874.331716,63.645166L1874.254842,63.622511L1874.181623,63.588530L1874.121412,63.543221L1874.061201,63.497913L1874.027005,63.429950L1874.002164,63.361987L1873.973668,63.305351L1873.928510,63.271369L1873.883351,63.237388L1873.825185,63.214734L1873.763364,63.203406L1873.692189,63.192079L1873.679181,63.203406L1873.666173,63.214734L1873.647466,63.214734L1873.638112,63.214734L1873.619405,63.214734L1873.610051,63.214734L1873.594998,63.203406L1873.585645,63.203406L1873.579946,63.192079L1873.574246,63.180752L1873.568547,63.169425L1873.572202,63.158098L1873.566503,63.146771L1873.570157,63.135443L1873.586820,63.112789L1873.562413,63.101462L1873.538007,63.090135L1873.504247,63.078808L1873.476186,63.078808L1873.438771,63.078808L1873.407056,63.090135L1873.365987,63.101462L1873.334271,63.112789L1873.321263,63.124116L1873.311910,63.124116L1873.280194,63.135443L1873.265142,63.124116L1873.231381,63.112789L1873.223638,63.078808L1873.230947,63.056153L1873.139760,62.874919L1873.087598,62.659703L1873.076504,62.433160L1873.102826,62.206617L1873.170216,61.968747L1873.216115,61.855475L1873.233952,61.742204L1873.229428,61.640260L1873.206197,61.538316L1873.169957,61.447698L1873.111356,61.368408L1873.026739,61.311773L1872.863203,61.209829L1872.683005,61.130539L1872.473135,61.085230L1872.290152,61.130539L1872.111258,61.221156L1872.042434,61.028594L1872.122527,60.983286L1872.261962,60.870015L1872.365593,60.722762L1872.413101,60.575509L1872.860996,59.216255L1873.992677,56.520407L1874.988224,54.855328L1876.235145,53.280868L1876.944027,52.533284L1878.508663,51.162714L1879.604264,50.347170L1879.757015,50.018687L1879.721519,49.780820L1879.617762,49.667550L1878.695035,48.874660L1877.701571,48.127080L1876.648765,47.447461L1875.536618,46.835805L1874.378139,46.280785L1873.156663,45.805053L1867.121783,41.897264L1867.262709,41.489496L1866.966063,41.104381L1866.262503,41.081727L1865.601745,41.274285L1864.464771,40.594671L1863.883986,40.481402L1863.693694,40.549364L1863.638751,40.458749L1863.541560,40.470075L1863.450935,40.605998L1863.322462,40.685286L1863.280215,40.787228L1863.017138,40.877843L1862.849640,40.991112L1862.696017,41.206323L1862.528952,41.376227L1862.303289,41.466842L1862.148799,41.568784L1861.948841,41.840629L1861.661046,42.123802L1861.577730,42.237071L1861.350890,42.418301L1861.087813,42.508917L1861.036212,42.610859L1860.947197,42.712801L1860.980212,42.871378L1860.859915,43.041281L1860.699294,43.075262L1860.248089,43.517012L1860.107041,43.664262L1859.830333,44.173974L1859.778854,44.536435L1859.894251,45.193398L1861.340258,51.785700L1861.521013,52.182146L1861.513828,52.465322L1861.612320,52.623900L1861.491157,52.680535L1861.491098,53.405465L1861.564133,53.903855L1859.955257,54.628787L1859.925277,54.866655L1860.010761,55.036561L1860.171817,55.059215L1861.721351,54.402245L1861.815446,54.719403L1862.168782,55.421681L1862.635160,55.251775L1862.993327,55.852109L1864.564623,57.301975L1864.337785,57.483209L1865.023766,58.140180L1865.229852,57.936292L1865.946962,60.700108L1866.164269,60.983286L1866.379836,61.039922L1867.369711,61.073903L1867.227184,61.515661L1866.194196,61.470353L1865.929944,61.651587L1862.524632,66.205108L1857.868422,68.402587L1851.633541,67.462428L1845.176654,60.745416L1843.764374,52.453995L1845.318983,46.099553L1845.360797,45.940976L1850.041612,37.898877L1850.939237,35.406973L1853.103696,30.264610L1853.857930,28.101201L1854.577547,25.813204L1854.489279,25.767897L1854.457881,25.575343L1854.098248,25.269522L1847.836918,20.093236L1836.514395,18.224343L1834.916569,18.190363L1833.399378,18.428222L1832.719911,18.620774L1832.031521,18.869960L1831.612120,18.575468L1831.227125,18.869960L1830.883630,19.209758L1830.583247,19.560884L1830.378011,19.878030L1830.210189,20.195175L1826.128334,21.916826L1819.999566,22.358565L1818.816297,21.735599L1818.360126,21.033347L1818.230036,20.161195L1818.659541,19.323025L1819.344063,18.564141L1819.562417,18.496181L1819.782384,18.394242L1819.994611,18.258322L1820.186087,18.099750L1820.343806,17.929851L1820.486473,17.748625L1820.595381,17.556073L1820.661178,17.352194L1820.708268,17.148315L1820.699668,17.001069L1820.685369,16.842497L1820.858139,16.683924L1820.043317,16.049635L1819.909574,16.174228L1819.321490,16.083615L1818.738889,16.468719L1811.743259,22.233972L1806.194301,26.356886L1801.785593,27.410271L1799.754709,28.486310L1788.779466,37.366515L1774.645362,53.224233L1758.376099,72.163232L1753.399599,78.483869L1744.794916,89.584733L1742.331605,93.798565L1738.288298,101.286092L1737.436463,104.129330L1738.089265,105.092181L1737.910401,106.893282L1736.486001,108.988907L1734.704600,107.958086L1736.407751,105.375373L1735.657707,105.148820L1733.562387,108.309244L1735.783113,109.543965L1734.200007,111.435697L1733.245175,111.582958L1731.961174,112.228639L1731.057593,113.202827L1730.810696,113.939132L1731.069820,114.063737L1732.659671,114.267637L1732.994932,114.562160L1732.553268,116.974981L1732.675436,117.292160L1732.555711,117.779256L1732.132306,117.699961L1731.991695,117.903862L1730.402314,117.031620L1730.478319,116.940997L1730.292416,116.850375L1729.610415,117.688633L1729.796318,117.779256L1728.165278,119.761627L1728.375589,119.863577L1730.430943,117.348799L1731.816149,118.187057L1731.646302,118.481581L1732.102294,118.662826L1731.874715,118.991334L1731.735545,119.625693L1729.296589,124.315432L1727.001287,129.922761L1725.548293,131.701254L1725.287992,131.667270L1724.443904,132.834053L1723.933391,132.618821L1724.166666,132.301637L1722.560298,131.655942L1721.534530,133.037958L1722.684902,133.502406L1722.794230,133.366470L1723.565482,133.672326L1714.373279,144.943770L1713.741299,144.989083L1712.629609,146.144555L1704.620513,155.082522L1703.451382,156.793094L1702.857381,158.605623L1698.579187,162.038110L1697.012805,164.632308L1681.727657,180.265622L1671.955482,190.291472L1668.495675,193.826035L1663.310684,200.215471L1663.054774,200.747926L1663.069257,201.167093L1662.917696,201.404999L1661.019557,202.707817L1660.026139,203.670770L1657.488204,207.624554L1651.860374,213.357003L1651.959523,214.557877L1649.734305,216.381848L1648.323320,217.537409L1648.486155,217.786648L1666.332761,227.914866L1692.846613,217.605383L1707.296538,223.269920L1716.304192,229.886143L1740.640999,226.849925L1748.368595,218.375758L1777.187324,198.074326L1784.300327,227.654295L1773.461629,261.970960L1776.122261,264.599426L1778.006039,265.517126Z " data-cartodb-id="142" data-created-at="2014-03-09T19:11:53Z" data-name="Inwood" data-updated-at="2014-03-09T19:11:53Z"/><path d="M905.576288,1541.646511L842.594543,1503.707834L790.009892,1560.548379L770.458405,1581.787931L819.074150,1611.798739L819.001351,1611.821432L818.997713,1611.832778L818.994075,1611.844125L847.272514,1629.329149L848.856532,1631.950231L851.376580,1631.972924L851.380218,1631.961577L851.679199,1629.306456L851.682837,1629.295109L858.679108,1633.516075L858.997808,1633.164327L859.571413,1633.243754L859.966106,1633.209714L860.490247,1633.005473L860.944696,1632.755846L861.362723,1632.415445L861.678806,1631.984271L861.871118,1631.530403L861.911089,1631.201350L861.829375,1630.872296L861.705029,1630.588629L862.062192,1630.146109L862.065830,1630.134762L864.103565,1631.428283L864.585518,1630.917683L864.826849,1631.099229L864.487343,1631.428283L864.891972,1631.655217L864.576910,1631.995617L864.735550,1632.143124L866.237572,1630.611322L866.028493,1630.475162L865.715516,1630.838256L865.366518,1630.554589L864.936025,1630.963069L864.692609,1630.758829L868.039760,1627.150594L866.851260,1625.981892L866.752997,1626.084012L867.697019,1626.935008L864.094605,1630.872296L861.115507,1629.011443L861.400936,1628.705084L856.140759,1625.550721L856.098126,1625.596107L855.714797,1625.244363L855.551542,1625.403215L855.259284,1625.380522L855.303960,1625.153590L854.615457,1625.198976L854.610266,1625.244363L853.412132,1625.244363L853.397580,1625.289749L852.701270,1625.301096L853.029130,1623.928158L853.104014,1623.928158L853.140393,1623.814692L854.999029,1624.177783L855.171645,1624.018930L855.196047,1623.826038L853.335327,1623.440255L853.576532,1623.009085L853.255662,1622.929659L852.768060,1623.837385L853.051777,1622.748113L853.059052,1622.725420L853.687432,1621.057476L853.947439,1621.034783L854.206423,1621.102862L854.197594,1621.159595L856.608122,1622.282904L856.781761,1622.033280L854.395676,1620.921317L854.315602,1620.966703L854.041003,1620.830545L853.780465,1620.796505L854.911044,1618.379694L855.223084,1618.515852L855.195534,1618.572585L858.185499,1620.399376L858.467293,1620.104366L855.550659,1618.311615L855.441972,1618.300268L855.369704,1618.379694L855.025414,1618.198150L855.892550,1616.836569L868.015209,1624.132396L871.433806,1623.950851L871.679219,1623.769305L876.773418,1605.603609L882.550898,1584.987523L882.558175,1584.964831L887.505746,1575.899351L888.476627,1576.024157L888.702298,1575.933389L888.854115,1575.751853L890.624298,1572.654408L891.166514,1571.576545L892.449979,1568.479114L892.483753,1568.286234L892.390650,1568.138738L892.283522,1568.093354L891.443688,1567.968550L900.416146,1549.622460L903.652230,1545.923789L902.488901,1545.231708L905.576288,1541.646511Z " data-cartodb-id="168" data-created-at="2014-03-09T19:11:53Z" data-name="Kips Bay" data-updated-at="2014-03-09T19:11:53Z"/><path d="M49.085109,2144.049574L48.378579,2141.869749L47.505984,2142.255759L47.706687,2143.061840L39.168651,2147.183082L37.506759,2141.495092L37.269497,2141.358853L32.090172,2137.124106L22.105125,2131.640537L21.585338,2131.334003L21.028652,2131.084235L20.593236,2130.982057L20.128190,2130.913938L19.661602,2130.879879L19.336660,2131.163707L11.434380,2131.720009L11.067695,2131.754068L10.682835,2131.844893L10.311522,2131.981130L9.948029,2132.151427L9.603811,2132.378490L9.291865,2132.650964L9.015828,2132.957499L8.798059,2133.286740L8.619832,2133.638687L8.510780,2133.979281L8.457903,2134.319875L8.470565,2134.660469L8.540946,2134.967005L8.595136,2135.148655L8.891643,2136.181793L8.262340,2138.293485L7.265488,2138.804379L8.818783,2142.959661L8.531734,2143.095900L2.845389,2145.854746L2.044832,2143.822508L0.449428,2144.594531L1.713164,2148.045934L8.953713,2144.322052L9.266757,2144.163107L11.486837,2150.066828L11.934826,2151.270284L23.237660,2159.569632L26.682625,2160.477910L30.761233,2159.728581L34.560789,2157.628190L37.272214,2152.814342L39.342697,2147.750748L47.897915,2143.663563L48.162066,2144.446938L49.085109,2144.049574Z " data-cartodb-id="172" data-created-at="2014-03-09T19:11:53Z" data-name="Liberty Island" data-updated-at="2014-03-09T19:11:53Z"/><path d="M607.442986,1808.488216L581.475948,1793.791453L549.409197,1826.056560L558.820910,1836.270874L565.698516,1839.494081L586.190161,1813.901680L599.674280,1820.608974L607.561585,1808.556310L607.442986,1808.488216Z " data-cartodb-id="174" data-created-at="2014-03-09T19:11:53Z" data-name="Little Italy" data-updated-at="2014-03-09T19:11:53Z"/><path d="M774.089642,1858.118551L798.912736,1819.110894L788.796305,1816.704892L782.652518,1815.047932L767.384130,1810.928243L755.339555,1803.846509L640.959546,1756.159770L607.442986,1808.488216L607.561585,1808.556310L599.674280,1820.608974L646.234136,1840.458776L629.023535,1863.645816L625.108004,1878.207542L600.898092,1880.636412L597.311550,1896.685277L594.500020,1921.803359L605.423772,1920.112151L611.694505,1918.977113L619.587345,1917.717224L625.079161,1916.968101L625.655403,1916.922700L625.746036,1917.195108L625.882930,1917.410764L626.097255,1917.501567L626.320392,1917.535618L626.377111,1917.592370L625.012490,1925.946265L625.098943,1926.173274L625.327915,1926.422984L625.826728,1926.502438L625.836090,1926.502438L627.943917,1926.264078L628.051524,1926.161924L694.398741,1918.704705L695.330175,1918.602551L696.387730,1914.130521L697.332159,1914.017018L705.507660,1913.336000L705.632777,1912.916039L705.824637,1912.813886L706.001407,1912.700384L706.220251,1912.484728L714.939272,1911.860463L726.416125,1910.838939L728.344295,1910.226025L730.297245,1909.272604L731.469653,1908.534839L733.769202,1907.025259L735.576880,1905.765387L739.459428,1902.995943L743.917666,1899.159598L753.996818,1887.037763L774.089642,1858.118551Z " data-cartodb-id="178" data-created-at="2014-03-09T19:11:53Z" data-name="Lower East Side" data-updated-at="2014-03-09T19:11:53Z"/><path d="M1975.569043,0.000000L1964.677765,0.215201L1956.066362,10.409012L1931.949404,23.117452L1924.329040,27.138430L1912.418093,37.615705L1915.734394,39.020236L1926.617954,43.381089L1926.470471,43.664262L1929.960866,45.080128L1931.236430,45.533206L1935.828774,47.447461L1952.182132,55.410354L1952.293639,55.557605L1957.682876,62.308561L1959.762962,65.921929L1963.518798,77.940157L1965.764854,77.124589L1969.591688,72.684287L1977.157793,70.135653L1997.994071,37.207939L1999.550572,27.251697L1998.556782,24.272773L1993.812257,17.148315L1988.439361,10.522277L1985.434067,6.240863L1982.415856,2.956193L1975.569043,0.000000Z " data-cartodb-id="180" data-created-at="2014-03-09T19:11:53Z" data-name="Marble Hill" data-updated-at="2014-03-09T19:11:53Z"/><path d="M1035.819195,1411.397873L1055.660006,1395.505230L1076.501544,1373.578156L1081.479341,1369.528569L970.413208,1300.722411L906.935268,1261.308136L904.952451,1258.710824L905.401699,1256.816720L905.065817,1255.036038L903.635786,1253.981241L900.924808,1254.117344L898.457422,1255.126773L896.626580,1257.417842L896.486049,1259.720259L897.527551,1261.285452L894.090179,1265.198447L860.401765,1301.992771L904.644524,1329.442046L818.785769,1422.378822L774.338926,1395.198951L735.002343,1437.852206L778.262020,1464.364044L776.482387,1468.743054L727.694224,1522.109706L790.009892,1560.548379L842.594543,1503.707834L817.177665,1488.290035L869.917961,1430.920914L958.701861,1485.828204L1035.819195,1411.397873Z " data-cartodb-id="189" data-created-at="2014-03-09T19:11:53Z" data-name="Midtown" data-updated-at="2014-03-09T19:11:53Z"/><path d="M1229.896784,882.542486L1229.969094,882.463126L1250.092384,860.423799L1259.692400,832.557966L1315.912063,771.036216L1280.890453,683.618299L1271.376883,691.314640L1269.162222,690.521200L1250.259860,707.648325L1238.492688,719.788262L1193.317496,770.696140L1177.177334,790.001295L1164.634349,803.740738L1140.686581,828.556148L1174.879310,848.384022L1229.896784,882.542486Z " data-cartodb-id="192" data-created-at="2014-03-09T19:11:53Z" data-name="Morningside Heights" data-updated-at="2014-03-09T19:11:53Z"/><path d="M958.701861,1485.828204L869.917961,1430.920914L817.177665,1488.290035L842.594543,1503.707834L905.576288,1541.646511L905.589287,1541.635165L910.443435,1535.985105L910.806415,1536.166632L910.047306,1537.074270L910.059275,1537.153689L910.106601,1537.210416L910.043689,1537.289834L910.730654,1537.686926L910.877281,1537.550781L910.970881,1537.550781L911.139866,1537.403289L913.431222,1534.578268L913.360486,1534.419432L912.623610,1534.090414L912.507650,1534.101759L912.407298,1534.181177L911.876447,1534.873250L911.552989,1534.714413L912.701015,1533.352960L911.509097,1532.604162L914.223204,1529.540903L917.159821,1531.299439L917.236258,1531.265403L917.475475,1531.424239L917.594547,1531.344821L917.665788,1531.356166L918.193022,1530.879659L918.212247,1530.732169L918.150871,1530.573333L917.889296,1530.425843L917.856526,1530.323735L916.713493,1529.597630L915.387931,1528.769417L915.250645,1528.701345L915.080082,1528.678654L914.970876,1528.610582L917.715658,1525.422537L918.911206,1526.159984L923.542885,1520.941142L923.642206,1520.952487L923.828881,1520.895761L924.735676,1519.965449L925.480764,1519.159936L925.531710,1519.001102L925.457337,1518.853614L929.465661,1514.848750L930.496729,1513.793647L930.834753,1514.111312L930.779118,1514.168038L930.916927,1514.292835L930.994921,1514.224764L931.228412,1514.372252L933.675320,1511.967074L934.686112,1510.946010L943.865966,1502.198943L952.312170,1493.871724L952.485832,1493.622136L952.613231,1493.633481L952.753092,1493.372548L953.614147,1492.555713L952.605837,1491.818294L955.245154,1489.163590L958.701861,1485.828204Z " data-cartodb-id="199" data-created-at="2014-03-09T19:11:53Z" data-name="Murray Hill" data-updated-at="2014-03-09T19:11:53Z"/><path d="M640.959546,1756.159770L666.495660,1715.011875L678.637184,1692.554963L660.251940,1688.674139L606.657033,1741.452526L617.990216,1746.309521L640.959546,1756.159770Z " data-cartodb-id="206" data-created-at="2014-03-09T19:11:53Z" data-name="NoHo" data-updated-at="2014-03-09T19:11:53Z"/><path d="M640.959546,1756.159770L617.990216,1746.309521L600.548641,1763.751799L591.933522,1777.108935L581.475948,1793.791453L607.442986,1808.488216L640.959546,1756.159770Z " data-cartodb-id="207" data-created-at="2014-03-09T19:11:53Z" data-name="Nolita" data-updated-at="2014-03-09T19:11:53Z"/><path d="M1587.253986,885.989014L1584.264887,878.608472L1578.833577,874.459070L1568.357121,873.574773L1563.109540,873.132625L1554.595118,872.985243L1552.398530,873.472739L1549.951813,875.116624L1548.930370,876.023596L1538.147735,888.199787L1535.300044,886.113724L1533.114037,888.256473L1533.532940,888.437870L1535.251367,886.759950L1535.531980,886.964021L1535.315573,887.258791L1537.565208,888.789327L1535.773995,890.489927L1537.185441,891.396914L1536.708507,891.861746L1535.287703,890.954758L1535.224762,891.034119L1535.127054,890.988770L1535.041753,891.079468L1536.489543,892.077156L1534.960440,893.573688L1534.642396,893.369615L1531.066502,891.045456L1532.520262,889.492241L1532.147654,889.254157L1530.279899,891.192842L1534.239829,893.777761L1534.548516,893.981834L1532.490576,895.784480L1532.047919,896.317338L1530.484527,898.822909L1524.767433,907.904247L1519.873359,916.928987L1518.718112,921.600119L1519.126144,925.046794L1519.716742,924.956092L1519.745706,925.273550L1518.065323,925.727061L1518.024933,925.386927L1514.708885,926.271274L1514.746922,927.200973L1518.059326,926.327963L1518.068284,926.067194L1519.779301,925.693047L1519.874188,927.348365L1519.620001,932.971931L1518.538445,938.142014L1517.615103,940.636363L1515.356759,946.702194L1507.683225,958.437142L1494.598034,972.598649L1493.650841,973.857208L1493.028514,975.240492L1492.617771,976.635116L1491.358322,982.621819L1491.401964,982.689850L1494.509322,986.386205L1495.867675,986.556283L1500.484405,987.157226L1499.073912,988.721947L1498.075550,989.266198L1496.234029,990.978324L1491.192007,995.865271L1490.338075,996.658978L1489.989538,997.248588L1489.939372,997.928909L1490.076516,998.201037L1490.824557,998.348440L1492.108711,998.167021L1494.122190,998.133005L1494.796098,997.724813L1495.440783,997.611426L1496.106177,997.724813L1496.808005,997.724813L1497.350828,997.520717L1498.181516,997.702135L1501.034965,998.053635L1502.360691,997.917570L1503.243612,997.441346L1505.405157,994.878809L1506.468868,991.976121L1506.698291,990.184623L1505.792637,988.926041L1505.204755,988.687931L1504.623007,988.721947L1504.195857,988.245727L1504.199396,987.157226L1505.284963,986.953132L1507.202287,986.839747L1509.418244,987.486044L1514.666319,987.520059L1514.769596,987.984940L1514.580217,988.370451L1514.134692,988.359113L1513.055073,987.962263L1511.595356,987.758169L1509.453369,988.075649L1508.321747,987.724153L1506.191922,987.508721L1505.535156,987.950925L1505.618720,988.302420L1506.488328,988.653915L1507.937038,989.096119L1508.841431,989.572340L1508.491664,990.660844L1508.285486,991.477222L1508.177295,993.007935L1508.246329,994.686052L1507.953788,995.683853L1507.232367,996.647639L1506.939829,997.645442L1506.882882,998.405134L1506.523194,999.641051L1505.780416,1000.729568L1504.241957,1001.149100L1502.700005,1001.171778L1498.324114,1000.083261L1487.686617,999.697745L1483.326542,998.064973L1482.082388,998.325763L1474.215452,993.540850L1463.313475,998.201037L1462.387221,997.792845L1458.768894,1000.491455L1454.588947,1003.598267L1444.547792,1012.510570L1443.651595,1012.329148L1443.107848,1012.215760L1438.289353,1018.474832L1428.117937,1028.317084L1399.970191,1055.576598L1397.455714,1058.014573L1393.667997,1065.260500L1392.388792,1067.698501L1388.775930,1074.604316L1389.143880,1078.323726L1389.343406,1080.353532L1392.722565,1085.944028L1394.171836,1088.336726L1426.922868,1094.811783L1429.095916,1095.242699L1447.091485,1110.132110L1448.003182,1110.993957L1451.351099,1111.991887L1459.245197,1110.052730L1478.229635,1097.737480L1481.661741,1096.637508L1483.037387,1096.637508L1484.519972,1097.295223L1486.201856,1097.215844L1488.256547,1096.966365L1490.326459,1096.115872L1493.263837,1094.108709L1494.434713,1093.813872L1495.966706,1092.248970L1507.303349,1084.515217L1510.072385,1082.099850L1516.579012,1071.281807L1523.399370,1059.953618L1526.125909,1057.175455L1526.896734,1057.776445L1542.997174,1042.729146L1572.091139,1015.549391L1572.569356,1012.487893L1589.023101,1003.711655L1589.495568,1004.017801L1590.888538,1004.924902L1599.757895,997.532055L1598.869817,996.364172L1613.031882,986.216127L1632.374995,965.534876L1633.223914,962.688973L1634.650610,957.870233L1632.922309,944.786067L1628.495775,928.946996L1620.397602,919.933474L1611.411027,914.820183L1604.509003,911.169469L1591.443790,902.734336L1587.968676,892.644024L1587.253986,885.989014Z " data-cartodb-id="247" data-created-at="2014-03-09T19:11:53Z" data-name="Randall's Island" data-updated-at="2014-03-09T19:11:53Z"/><path d="M1252.492641,1241.686709L1248.754762,1245.837796L1246.674993,1249.750724L1245.356427,1249.864142L1245.028299,1250.215739L1243.804488,1249.421810L1242.808641,1250.658072L1243.927430,1251.429318L1243.599303,1251.780916L1240.759009,1254.797858L1240.196400,1255.092748L1239.413927,1254.877251L1239.091975,1255.705211L1238.369214,1256.090836L1209.995813,1284.740991L1194.310604,1300.892549L1193.228083,1300.824494L1183.768573,1307.902234L1170.819798,1320.106930L1161.137049,1330.213360L1153.848274,1339.480523L1142.223586,1349.689259L1141.179043,1348.657037L1137.757578,1351.560874L1138.208354,1352.139373L1134.067265,1355.156653L1112.223979,1376.209831L1111.218343,1377.185367L1072.778324,1414.290569L1069.047032,1417.897944L1068.825524,1418.034071L1063.248857,1422.288070L1062.535966,1421.913717L1055.670858,1429.162575L1052.478308,1433.745607L1046.806633,1441.913446L1039.892158,1447.857865L1037.784228,1449.672963L1036.497853,1451.056977L1036.484854,1451.068321L1032.027264,1455.889699L1028.160449,1461.845555L1024.902935,1465.260264L1023.605192,1467.642627L1023.293305,1469.344318L1024.724836,1469.491798L1027.427134,1468.391371L1032.159236,1463.706060L1037.504972,1459.792199L1041.589308,1457.330446L1046.320464,1454.165345L1054.060088,1447.982653L1054.293510,1446.904940L1059.141175,1444.397846L1067.436170,1438.759744L1079.808688,1429.105854L1102.593467,1408.527875L1103.822676,1408.255623L1131.193714,1386.248832L1135.877585,1382.210531L1138.843494,1378.830169L1140.746067,1376.663568L1141.963341,1373.861742L1145.849622,1369.392449L1150.271464,1365.354224L1154.109359,1362.756611L1166.101008,1351.345354L1177.548182,1343.030882L1239.728309,1283.198441L1267.331267,1255.081406L1279.913684,1246.643064L1282.885808,1245.168631L1286.396101,1243.387972L1287.632617,1242.480632L1292.178610,1236.832457L1298.716612,1230.197598L1300.052073,1228.224163L1301.188416,1226.171341L1301.853126,1224.538159L1302.464786,1223.041079L1304.281614,1215.079377L1305.178945,1212.255371L1305.968610,1209.737590L1307.837723,1206.743482L1309.335928,1204.962899L1310.465436,1203.601947L1310.163009,1202.649281L1309.319242,1202.275020L1308.386478,1202.411115L1305.933073,1204.747415L1304.416729,1206.176417L1300.568823,1208.921014L1295.815556,1209.646860L1287.733320,1212.754392L1282.299979,1216.531078L1273.856078,1224.583526L1263.827481,1232.499946L1260.780945,1234.235216L1257.119673,1237.127341L1255.230073,1238.261510L1255.050087,1238.851278L1252.492641,1241.686709Z " data-cartodb-id="257" data-created-at="2014-03-09T19:11:53Z" data-name="Roosevelt Island" data-updated-at="2014-03-09T19:11:53Z"/><path d="M560.309990,1708.373467L501.853375,1701.099643L505.795185,1692.952124L492.671270,1691.522344L485.407815,1710.086966L480.061186,1709.712492L472.088970,1729.934292L439.820885,1725.996565L437.500142,1730.898867L437.731119,1731.375481L463.340986,1734.621003L466.488441,1735.256492L468.895966,1736.448033L468.957855,1736.459381L460.489484,1753.822028L460.434381,1753.935511L465.758821,1754.525620L474.043174,1737.911930L493.432213,1757.964148L536.826548,1809.963581L549.409197,1826.056560L581.475948,1793.791453L591.933522,1777.108935L600.548641,1763.751799L617.990216,1746.309521L606.657033,1741.452526L599.866257,1737.435312L560.309990,1708.373467Z " data-cartodb-id="266" data-created-at="2014-03-09T19:11:53Z" data-name="SoHo" data-updated-at="2014-03-09T19:11:53Z"/><path d="M851.380218,1631.961577L851.376580,1631.972924L848.856532,1631.950231L847.272514,1629.329149L818.994075,1611.844125L818.997713,1611.832778L768.664004,1666.785248L761.376296,1674.013402L846.851696,1726.371045L850.294764,1719.687160L850.350322,1719.426161L850.166742,1719.414813L850.135494,1719.278639L850.011176,1719.199205L848.673048,1719.051683L849.843827,1716.362259L850.181827,1716.271476L850.413289,1716.396302L850.594242,1716.328215L850.806243,1715.783523L850.960663,1715.681393L855.015712,1706.796142L857.298084,1698.126584L855.526403,1689.752144L855.504521,1689.615975L846.594281,1675.068695L846.676757,1674.285735L847.087117,1670.552505L847.794272,1664.141370L848.824233,1654.825450L848.892278,1654.496388L849.402938,1654.451000L850.330552,1653.951733L850.864539,1653.599977L851.130708,1653.236874L851.046948,1653.089364L850.704245,1653.078017L850.323082,1653.157445L850.097944,1653.304956L849.963743,1653.168792L850.196156,1652.998588L850.032807,1652.748955L849.825323,1652.782996L849.609546,1652.930506L849.637142,1653.078017L849.472824,1653.123405L849.507064,1652.782996L849.763388,1652.567404L849.734142,1652.045444L849.492223,1651.602913L849.348033,1651.001526L849.263740,1650.797281L851.380218,1631.961577Z " data-cartodb-id="277" data-created-at="2014-03-09T19:11:53Z" data-name="Stuyvesant Town" data-updated-at="2014-03-09T19:11:53Z"/><path d="M818.785769,1422.378822L904.644524,1329.442046L860.401765,1301.992771L774.338926,1395.198951L818.785769,1422.378822Z " data-cartodb-id="280" data-created-at="2014-03-09T19:11:53Z" data-name="Theater District" data-updated-at="2014-03-09T19:11:53Z"/><path d="M536.826548,1809.963581L493.432213,1757.964148L474.043174,1737.911930L465.758821,1754.525620L460.434381,1753.935511L446.217062,1782.896712L445.711849,1784.122364L444.769429,1786.040285L444.760068,1786.040285L444.726261,1786.028936L440.567692,1785.393411L440.194848,1785.563641L439.861485,1785.552293L438.245401,1788.900151L416.046256,1785.495549L414.196199,1789.251961L435.979435,1793.019737L439.246628,1793.632570L436.542139,1799.295617L436.501591,1799.363710L427.659575,1797.831620L406.642485,1794.710703L404.630790,1798.796269L431.367832,1802.734319L430.009104,1805.571542L430.027827,1805.571542L433.765195,1806.207081L433.684635,1806.400013L434.389881,1806.536200L434.457443,1806.354617L434.729453,1806.411362L433.474677,1808.953523L431.535370,1812.959713L431.324879,1813.470418L436.802333,1813.788190L404.977841,1874.711798L444.667110,1901.021018L514.331268,1832.048943L536.826548,1809.963581Z " data-cartodb-id="286" data-created-at="2014-03-09T19:11:53Z" data-name="Tribeca" data-updated-at="2014-03-09T19:11:53Z"/><path d="M594.500020,1921.803359L597.311550,1896.685277L600.898092,1880.636412L548.995718,1885.698469L548.362284,1894.222313L503.982858,1898.535342L493.573919,1902.564638L521.339961,1939.657722L521.477749,1939.578267L532.840513,1933.505701L541.146292,1930.985882L559.985810,1927.875845L567.910865,1926.457036L570.017949,1925.753307L572.382083,1925.299290L576.183391,1925.151734L583.559277,1923.869134L594.500020,1921.803359Z " data-cartodb-id="287" data-created-at="2014-03-09T19:11:53Z" data-name="Two Bridges" data-updated-at="2014-03-09T19:11:53Z"/><path d="M1313.042390,1091.262403L1309.781369,1088.858358L1217.972138,1032.762007L970.413208,1300.722411L1081.479341,1369.528569L1110.361360,1346.025444L1136.835455,1324.485234L1195.153904,1269.576484L1214.986768,1248.786668L1241.681302,1225.252676L1251.445512,1216.644492L1289.835942,1182.802313L1290.969135,1181.430053L1294.576219,1177.075126L1304.006907,1165.688906L1306.012090,1157.376149L1305.089241,1155.266785L1304.051570,1152.873910L1304.524857,1138.142560L1309.603204,1132.733187L1308.407810,1131.326982L1309.568756,1127.596013L1307.219616,1126.518685L1304.085128,1130.158926L1304.451426,1121.880517L1305.058172,1107.988836L1312.183179,1092.305669L1313.042390,1091.262403Z " data-cartodb-id="290" data-created-at="2014-03-09T19:11:53Z" data-name="Upper East Side" data-updated-at="2014-03-09T19:11:53Z"/><path d="M1239.088608,891.464938L1237.895930,890.081782L1238.816938,887.916354L1229.896784,882.542486L1174.879310,848.384022L1140.686581,828.556148L1114.892690,856.784641L981.938252,1004.562062L943.097826,1047.741105L938.276430,1047.718426L932.046840,1047.389586L930.281515,1048.863696L930.223069,1049.249233L930.605538,1049.544056L932.511834,1047.922533L942.575017,1048.319409L937.288119,1054.227210L936.379649,1053.705598L935.947377,1054.147834L935.567460,1053.932386L935.652772,1053.841671L932.002852,1051.630494L932.501722,1051.097545L932.134811,1050.870758L930.942506,1052.163444L931.318776,1052.390231L931.804642,1051.868621L935.281498,1053.977744L934.680669,1054.624089L934.921796,1054.805519L935.023756,1054.692125L934.922397,1054.658107L935.487861,1054.034441L935.843349,1054.238549L935.413633,1054.760161L936.353824,1055.270434L931.245352,1061.030867L927.332580,1053.728277L928.620388,1051.789245L928.252386,1051.653173L927.711692,1051.675852L926.938914,1053.002557L923.199324,1054.941592L914.686681,1063.344122L915.053597,1063.570912L923.475700,1055.304452L926.667190,1053.614883L930.705898,1061.631859L894.271071,1102.341504L893.238284,1103.895084L892.757476,1103.702304L892.357918,1104.246624L892.848084,1104.439405L891.276456,1106.446590L889.950703,1108.533160L889.773982,1108.442439L887.461077,1111.300140L879.674437,1119.861957L879.266110,1121.336186L879.000235,1121.755774L878.493799,1122.923819L878.718492,1123.797019L854.552706,1125.203212L852.670686,1127.244464L854.507567,1127.119720L855.021489,1126.598067L855.266872,1126.620747L855.717746,1126.382601L855.902944,1126.155795L856.704110,1126.167136L857.574327,1126.371261L858.419624,1126.507344L859.283737,1126.439303L860.563359,1126.155795L861.732649,1126.099094L863.479984,1126.223837L864.358084,1126.257858L866.349525,1125.826927L867.295794,1125.736205L869.050318,1126.042393L869.846755,1126.155795L870.555422,1126.076413L871.414413,1125.849608L872.420575,1125.543420L873.310202,1125.395996L874.481461,1125.566101L874.942478,1125.849608L878.248111,1125.668163L878.199645,1125.906309L873.850517,1130.499136L869.678124,1135.182710L856.226476,1149.811946L851.191581,1150.016077L834.557184,1167.968406L830.212196,1172.810947L830.236358,1173.434695L830.424923,1173.808944L831.426863,1173.661513L832.479825,1173.355309L833.057396,1173.480059L831.145622,1175.963715L829.718690,1177.812286L828.079432,1178.923699L827.483638,1178.855653L826.860670,1179.105154L826.225106,1179.626838L825.869572,1179.422701L815.175505,1191.296762L810.663464,1195.436275L809.733476,1196.320886L808.847050,1197.477686L808.064561,1198.747900L807.044053,1199.768608L806.409909,1199.383007L794.251603,1191.931864L790.140620,1189.493527L788.993710,1190.616295L789.614841,1191.013234L788.342626,1192.147345L787.695542,1192.850495L797.044964,1198.441687L797.604170,1197.749875L797.011604,1197.409639L797.968183,1196.354910L803.606221,1200.040798L802.406737,1201.356380L803.128173,1201.878077L802.862900,1202.150266L804.149909,1202.921471L804.370459,1202.671964L805.241137,1203.136955L805.935002,1202.433798L806.645262,1202.320385L807.122963,1202.581234L802.453590,1207.560056L805.952655,1211.495500L894.090179,1265.198447L897.527551,1261.285452L896.486049,1259.720259L896.626580,1257.417842L898.457422,1255.126773L900.924808,1254.117344L903.635786,1253.981241L905.065817,1255.036038L906.133560,1252.177881L907.906178,1249.864142L1239.088608,891.464938Z " data-cartodb-id="291" data-created-at="2014-03-09T19:11:53Z" data-name="Upper West Side" data-updated-at="2014-03-09T19:11:53Z"/><path d="M1778.006039,265.517126L1776.122261,264.599426L1773.461629,261.970960L1784.300327,227.654295L1777.187324,198.074326L1748.368595,218.375758L1740.640999,226.849925L1716.304192,229.886143L1707.296538,223.269920L1692.846613,217.605383L1666.332761,227.914866L1648.486155,217.786648L1648.323320,217.537409L1642.037906,222.669477L1634.239832,232.231288L1629.649523,237.850596L1623.166039,244.206348L1613.481695,253.700403L1588.596109,285.128912L1567.741797,303.098251L1563.579414,304.344561L1560.059208,306.123388L1558.355862,307.924879L1558.160485,308.298774L1557.742636,307.505664L1556.975458,306.780535L1556.241427,306.939157L1555.319144,307.188420L1551.719465,309.329818L1548.437220,311.153975L1546.855569,312.490938L1546.202968,312.774193L1545.297704,313.521987L1544.811173,313.986525L1543.991440,314.904273L1543.501968,315.232850L1543.279769,315.051566L1542.862459,315.040236L1542.777290,315.391473L1542.282116,315.708720L1541.589865,315.708720L1541.141103,315.504776L1540.834000,315.470785L1540.440836,315.674729L1539.726489,315.482115L1539.022569,315.663399L1538.769726,315.867343L1538.500137,316.558488L1538.698287,317.249634L1538.700517,317.532890L1538.648668,317.838807L1538.453557,318.008761L1538.249356,317.974770L1538.173180,317.804816L1538.154289,317.544220L1538.223244,317.272294L1538.178785,317.091010L1538.066082,317.034359L1537.858409,317.272294L1537.718088,317.272294L1537.556659,317.918119L1537.713375,318.099403L1537.289567,318.688577L1536.782543,318.926513L1536.331828,319.425046L1536.096802,319.515688L1535.940978,319.447706L1535.863644,319.368394L1535.786311,319.289082L1535.717440,319.096467L1535.801451,318.835871L1536.056790,318.711238L1536.201029,318.495963L1536.123960,318.212706L1535.895613,317.963440L1535.576213,317.793486L1535.306529,317.759495L1535.014929,317.793486L1534.701412,317.895458L1534.541224,317.986101L1529.098597,322.971431L1528.516651,323.673912L1527.950209,324.444375L1526.997563,326.064616L1526.634008,327.888806L1526.369235,328.477986L1526.356148,328.953863L1526.110743,331.049990L1525.744953,335.434875L1525.730268,335.944746L1525.908995,341.281421L1525.232805,342.131213L1524.886841,344.046079L1524.263888,345.949620L1523.960485,347.094012L1523.752424,348.465018L1523.232899,349.960664L1521.963635,352.940632L1521.116887,354.696891L1520.151606,357.314290L1518.849229,358.945919L1518.359253,359.682419L1517.656492,361.427361L1517.474213,362.979681L1517.519601,364.928584L1517.728636,366.514903L1518.552658,367.557343L1518.721188,368.282519L1518.816407,371.557150L1518.537702,372.508948L1517.468376,373.562725L1517.169466,373.619380L1516.610866,373.959308L1516.368735,374.333230L1516.772047,375.171721L1516.440970,375.183052L1516.429513,375.624960L1516.700358,375.568305L1517.396327,377.211297L1517.503734,377.777847L1517.517743,379.069582L1517.322293,380.372650L1517.397737,381.154491L1516.817429,381.823023L1516.431277,382.672852L1516.525589,384.179884L1516.184366,385.267668L1515.977315,386.287466L1516.052810,386.604737L1515.982726,386.967333L1516.037009,387.205286L1515.364539,390.162712L1514.890752,391.284496L1514.843032,391.635763L1514.215668,392.972842L1514.112476,393.641382L1513.646939,394.389241L1513.569104,394.717846L1513.394685,395.839636L1513.213247,396.315547L1512.824850,396.882109L1512.365433,398.162539L1508.477653,403.114308L1506.901715,405.391904L1504.578483,408.043441L1503.421579,408.904626L1502.796109,409.539183L1502.220824,410.366375L1500.129910,412.587332L1499.607558,413.482515L1497.381542,416.122743L1497.173888,416.360704L1496.953679,416.666654L1496.270453,417.799802L1495.665748,418.457029L1494.888093,419.012273L1493.463063,420.270070L1489.437932,426.287127L1487.941238,427.941542L1484.110333,433.675357L1481.603436,436.984215L1478.845299,440.927664L1477.467968,442.298809L1476.082645,443.839934L1474.751152,446.026976L1473.766982,447.194156L1469.934093,453.370036L1468.641192,455.001835L1466.957857,457.642182L1465.454564,460.101225L1462.283012,465.676591L1461.756135,466.469837L1455.320474,476.804759L1454.805013,477.620679L1454.778316,477.790663L1454.783337,477.949314L1454.820074,478.096633L1454.879174,478.232620L1454.969990,478.357274L1455.077464,478.459264L1455.226011,478.549922L1455.400570,478.617916L1455.964863,478.753902L1456.617007,478.878557L1456.692307,478.935218L1456.739998,479.048541L1456.701892,479.195860L1456.592594,479.331847L1456.200578,479.445169L1455.618943,479.479166L1454.946264,479.592489L1454.300740,480.057111L1453.741242,480.748379L1452.956990,482.108251L1452.135095,484.136732L1451.681477,484.963991L1451.413136,485.099978L1450.627975,486.346534L1450.449770,486.754498L1449.969697,488.477015L1449.660748,489.145625L1449.161728,490.142874L1448.657229,490.924808L1448.335051,491.808735L1445.716957,495.695756L1443.372487,500.330739L1439.986630,505.759025L1439.042667,506.801623L1446.077747,510.462055L1450.472776,509.510114L1517.378766,550.399110L1563.010598,576.567662L1568.689125,550.127115L1570.850172,540.074694L1574.042132,525.194592L1585.609418,496.307709L1649.890933,413.505178L1656.126486,404.372084L1670.728074,382.978790L1698.970487,351.422320L1747.883283,296.776086L1753.112465,291.349029L1778.006039,265.517126Z " data-cartodb-id="296" data-created-at="2014-03-09T19:11:53Z" data-name="Washington Heights" data-updated-at="2014-03-09T19:11:53Z"/><path d="M555.642066,1549.168635L552.833583,1547.682358L549.444926,1554.830125L547.910391,1554.682630L547.901031,1554.682630L545.772998,1559.243615L545.701757,1559.232270L522.434664,1556.191610L522.379538,1556.305068L521.041423,1559.220924L544.214434,1562.409089L544.008499,1562.817538L545.560718,1563.055800L544.156618,1565.914949L543.292336,1567.004151L543.194566,1567.367219L543.306360,1567.718941L543.201314,1567.900475L541.648544,1568.830837L525.621336,1567.934512L524.541262,1568.354310L513.680876,1567.662211L513.513932,1568.240851L518.138373,1568.501806L517.862743,1569.273326L524.297343,1569.522936L521.567634,1576.455304L520.906699,1576.443958L521.668043,1574.333608L514.934424,1573.936499L514.703535,1574.072651L514.640088,1574.299570L514.772686,1574.469759L515.181414,1574.537835L514.722732,1575.763199L514.206360,1575.797237L513.917749,1575.967427L513.555279,1576.863759L513.628077,1577.045295L513.833997,1577.249523L514.053441,1577.294907L513.695646,1578.497583L513.109592,1578.486237L512.820982,1578.656427L512.769494,1578.962769L512.915094,1579.121614L519.657573,1579.461994L519.685654,1579.461994L520.477147,1577.578557L521.094921,1577.578557L519.678866,1581.175245L519.013770,1581.118515L518.753755,1581.753893L519.095399,1582.060237L518.332511,1584.408873L518.381911,1584.488295L519.252934,1584.545026L520.000709,1585.044254L525.855026,1585.498097L527.688596,1585.384637L528.165449,1585.532136L529.161276,1585.520790L525.645466,1594.699830L520.170212,1594.348097L520.113010,1594.438867L519.771879,1594.393482L519.547232,1594.393482L519.324665,1594.416174L519.317386,1594.643099L519.351188,1594.858677L519.416711,1595.062909L519.530595,1595.233102L519.676201,1595.391949L518.730306,1597.786005L524.334535,1598.115047L516.748421,1617.619478L516.431727,1617.585438L516.251298,1618.118724L516.014692,1618.243536L515.795248,1618.402387L515.596607,1618.583931L515.431766,1618.776822L515.287728,1618.992406L515.177492,1619.219337L515.114057,1619.446267L515.091704,1619.661851L515.106793,1619.877435L515.166603,1620.070326L515.261773,1620.240525L515.386584,1620.376683L515.153634,1620.898624L515.446410,1620.978050L507.418249,1641.016282L507.300202,1641.004935L496.507514,1640.392207L495.351157,1643.501235L506.235910,1644.148005L504.382857,1648.845611L503.000348,1652.192954L502.990988,1652.192954L474.134483,1651.807158L473.154940,1654.802756L494.946347,1655.211248L501.632916,1655.347411L499.418057,1660.998229L495.076303,1672.084376L490.215311,1684.498301L490.205950,1684.498301L464.344188,1681.865717L464.178283,1681.740896L463.606797,1682.092664L463.616704,1682.353652L453.764568,1705.252864L452.755397,1707.057138L480.061186,1709.712492L485.407815,1710.086966L492.671270,1691.522344L505.795185,1692.952124L501.853375,1701.099643L560.309990,1708.373467L583.706675,1677.531049L649.836096,1606.057463L555.642066,1549.168635Z " data-cartodb-id="299" data-created-at="2014-03-09T19:11:53Z" data-name="West Village" data-updated-at="2014-03-09T19:11:53Z"/></g><g fill="#000" font-family="Arial" font-size="12px" id="mylayer-label" stroke="none"><text text-anchor="middle" y="1896.39221597"><tspan dy="0" x="374.298003875"><![CDATA[Battery Park City]]></tspan></text><text text-anchor="middle" y="1088.41407565"><tspan dy="0" x="1106.31371614"><![CDATA[Central Park]]></tspan></text><text text-anchor="middle" y="1495.18711293"><tspan dy="0" x="655.255183641"><![CDATA[Chelsea]]></tspan></text><text text-anchor="middle" y="1844.98483877"><tspan dy="0" x="581.479718054"><![CDATA[Chinatown]]></tspan></text><text text-anchor="middle" y="1866.67378279"><tspan dy="0" x="507.722779754"><![CDATA[Civic Center]]></tspan></text><text text-anchor="middle" y="924.83171683"><tspan dy="0" x="1392.52108109"><![CDATA[East Harlem]]></tspan></text><text text-anchor="middle" y="1727.0281261"><tspan dy="0" x="743.840782043"><![CDATA[East Village]]></tspan></text><text text-anchor="middle" y="2038.07390423"><tspan dy="0" x="97.8167162861"><![CDATA[Ellis Island]]></tspan></text><text text-anchor="middle" y="1944.69910914"><tspan dy="0" x="423.446863359"><![CDATA[Financial District]]></tspan></text><text text-anchor="middle" y="1554.51280459"><tspan dy="0" x="738.059914187"><![CDATA[Flatiron District]]></tspan></text><text text-anchor="middle" y="2151.46894854"><tspan dy="0" x="264.637215606"><![CDATA[Governors Island]]></tspan></text><text text-anchor="middle" y="1617.59731436"><tspan dy="0" x="754.336269119"><![CDATA[Gramercy]]></tspan></text><text text-anchor="middle" y="1667.63592671"><tspan dy="0" x="630.109821194"><![CDATA[Greenwich Village]]></tspan></text><text text-anchor="middle" y="699.597898248"><tspan dy="0" x="1399.85739604"><![CDATA[Harlem]]></tspan></text><text text-anchor="middle" y="1315.8053915"><tspan dy="0" x="765.350498969"><![CDATA[Hell's Kitchen]]></tspan></text><text text-anchor="middle" y="127.157783575"><tspan dy="0" x="1808.09707141"><![CDATA[Inwood]]></tspan></text><text text-anchor="middle" y="1562.3107141"><tspan dy="0" x="842.646929387"><![CDATA[Kips Bay]]></tspan></text><text text-anchor="middle" y="2139.21671863"><tspan dy="0" x="23.1163367205"><![CDATA[Liberty Island]]></tspan></text><text text-anchor="middle" y="1809.55355573"><tspan dy="0" x="576.944820961"><![CDATA[Little Italy]]></tspan></text><text text-anchor="middle" y="1841.50706749"><tspan dy="0" x="686.469265613"><![CDATA[Lower East Side]]></tspan></text><text text-anchor="middle" y="28.8741981574"><tspan dy="0" x="1963.82970812"><![CDATA[Marble Hill]]></tspan></text><text text-anchor="middle" y="1398.95961457"><tspan dy="0" x="903.410287676"><![CDATA[Midtown]]></tspan></text><text text-anchor="middle" y="782.890236706"><tspan dy="0" x="1237.16223621"><![CDATA[Morningside Heights]]></tspan></text><text text-anchor="middle" y="1480.41096782"><tspan dy="0" x="887.71841884"><![CDATA[Murray Hill]]></tspan></text><text text-anchor="middle" y="1717.24562953"><tspan dy="0" x="644.354464825"><![CDATA[NoHo]]></tspan></text><text text-anchor="middle" y="1770.54640203"><tspan dy="0" x="610.851577739"><![CDATA[Nolita]]></tspan></text><text text-anchor="middle" y="991.695934634"><tspan dy="0" x="1520.865649"><![CDATA[Randall's Island]]></tspan></text><text text-anchor="middle" y="1321.6195855"><tspan dy="0" x="1177.71615964"><![CDATA[Roosevelt Island]]></tspan></text><text text-anchor="middle" y="1745.31525056"><tspan dy="0" x="538.821861672"><![CDATA[SoHo]]></tspan></text><text text-anchor="middle" y="1662.39369443"><tspan dy="0" x="818.466687565"><![CDATA[Stuyvesant Town]]></tspan></text><text text-anchor="middle" y="1356.24200095"><tspan dy="0" x="839.53735332"><![CDATA[Theater District]]></tspan></text><text text-anchor="middle" y="1815.84478229"><tspan dy="0" x="467.483159276"><![CDATA[Tribeca]]></tspan></text><text text-anchor="middle" y="1902.46023031"><tspan dy="0" x="551.761433117"><![CDATA[Two Bridges]]></tspan></text><text text-anchor="middle" y="1198.38808024"><tspan dy="0" x="1155.66937516"><![CDATA[Upper East Side]]></tspan></text><text text-anchor="middle" y="1039.30919447"><tspan dy="0" x="1020.82366"><![CDATA[Upper West Side]]></tspan></text><text text-anchor="middle" y="369.051199327"><tspan dy="0" x="1605.12447276"><![CDATA[Washington Heights]]></tspan></text><text text-anchor="middle" y="1628.70875195"><tspan dy="0" x="555.920370031"><![CDATA[West Village]]></tspan></text></g></svg>