<?xml version="1.0" encoding="utf-8"?><!DOCTYPE svg  PUBLIC '-//W3C//DTD SVG 1.1//EN'  'http://www.w3.org/Graphics/SVG/1.1/DTD/svg11.dtd'><svg enable_background="new 0 0 2000 1937" height="1937px" pretty_print="False" style="stroke-linejoin: round; stroke:#000; fill: none;" version="1.1" viewBox="0 0 2000 1937" width="2000px" xmlns="http://www.w3.org/2000/svg" xmlns:xlink="http://www.w3.org/1999/xlink"><defs><style type="text/css"><![CDATA[path { fill-rule: evenodd; }]]></style></defs><metadata><views><view h="1937.90919643" padding="0" w="2000"><proj flip="auto" id="robinson" lon0="-80.2257907052"/><bbox h="2.46" w="2.54" x="-1155.61" y="-433.58"/></view></views></metadata><g class="" id="mylayer"><path d="M1397.862329,572.955832L1376.964793,570.803755L1348.980645,572.229671L1191.521009,576.797884L1171.195091,575.305953L1146.354350,577.299595L1146.010469,577.814509L1145.180570,585.498611L1133.808921,585.855090L1126.054344,586.092743L1111.979887,586.581251L1101.453444,586.818904L1098.744789,587.056557L1093.151132,587.294209L1091.937242,587.175383L1087.188795,587.294209L1075.580725,587.782717L1064.087937,588.258023L1052.207160,588.614502L1040.293615,589.103010L1029.023777,589.459489L1005.752024,590.291273L1004.168444,602.543586L1003.510856,607.217420L980.283940,609.026221L968.592750,610.095657L968.287278,610.095657L957.312300,609.263873L954.044584,609.739179L933.774295,612.987097L910.788186,612.617415L887.596708,613.581229L864.429812,615.020347L859.262729,615.139173L858.131350,615.139173L854.839037,615.139173L854.126269,615.139173L851.667858,615.020347L850.974398,614.901521L848.730950,614.782694L848.108692,614.782694L847.045507,609.976831L844.884575,609.976831L844.669614,609.976831L842.343654,609.739179L839.227686,609.976831L836.904855,610.346513L819.074932,611.178297L808.009064,609.026221L795.998936,613.937707L794.609104,614.901521L794.721840,613.581229L795.134779,611.666805L794.253464,609.501526L789.584983,612.260936L783.945282,615.984160L782.599343,617.304452L777.380628,622.823273L785.561869,622.466794L790.431482,622.229141L793.399017,622.347968L792.060205,635.669713L791.678187,639.274109L798.890803,645.505886L811.532816,656.411494L887.801341,736.025037L910.755399,759.592216L913.963533,766.035231L914.291103,774.471883L915.720791,781.416607L928.466666,795.807764L952.016010,812.232163L989.936111,850.335701L1013.846420,866.496033L1032.567788,879.144395L1061.310299,890.908162L1086.717786,910.540843L1105.752658,918.330540L1127.654156,927.282090L1136.294748,922.977952L1187.714188,951.760216L1257.507546,919.967697L1324.824259,886.075908L1361.699846,884.108678L1358.912121,873.599184L1366.197049,797.708980L1380.488249,702.318018L1380.405490,688.190905L1391.128830,615.178782L1393.451381,609.237467L1393.348496,595.242370L1397.862329,572.955832Z " data-cartodb-id="350" data-created-at="2013-02-24T01:52:05.311Z" data-name="Allapattah" data-updated-at="2013-02-24T01:52:05.607Z"/><path d="M648.644197,1546.666178L645.766460,1569.586185L642.368273,1593.839663L639.451495,1618.198755L638.352235,1626.965386L637.810552,1630.318886L649.673989,1630.081236L661.028213,1629.843586L660.834153,1631.045037L660.267424,1633.923238L658.282939,1641.726066L656.177282,1644.604266L658.523203,1647.244816L658.506798,1647.416452L711.395133,1600.559869L758.927783,1578.735701L784.619692,1570.998881L882.533838,1528.419946L1110.778597,1437.122707L1213.807456,1398.398913L1226.529635,1399.705990L1285.984078,1393.804339L1301.134980,1412.288254L1302.057900,1409.238408L1312.776189,1407.191975L1327.931312,1395.547109L1344.026205,1381.869009L1381.389632,1343.580879L1395.875784,1337.335951L1423.741960,1322.099910L1439.748628,1310.930331L1440.155975,1310.930331L1440.973260,1316.092631L1441.138507,1316.330281L1441.647691,1316.330281L1451.530742,1312.171395L1426.484609,1292.684042L1356.562046,1238.301627L1335.259622,1223.382434L1197.628346,1227.409296L1202.882226,1189.913260L1143.151366,1191.656034L1141.969552,1200.145454L1015.288370,1203.842247L922.962423,1211.433874L912.202204,1292.037104L726.328405,1299.166624L725.423133,1306.018885L725.094091,1308.052118L724.341291,1313.333243L723.622008,1315.260853L723.077994,1317.294086L722.941258,1318.139066L722.839334,1324.502821L722.669847,1326.179578L720.665251,1341.785297L719.698370,1350.908436L717.979647,1362.790960L716.453238,1374.184979L714.680723,1387.031304L714.341960,1390.384814L713.089740,1396.867388L712.914113,1400.471752L711.914889,1409.238408L710.460306,1420.751245L709.128836,1430.244053L708.790215,1433.597562L707.899296,1440.436607L707.127966,1445.836548L706.554569,1450.642363L705.885132,1456.042303L705.229156,1460.729292L704.444505,1466.842182L703.886766,1470.921843L703.130568,1476.929109L701.690161,1487.728985L701.559362,1489.168089L700.928545,1494.330376L700.190381,1496.376807L678.354757,1496.495632L678.012116,1500.575291L676.804531,1509.936060L674.989668,1519.904157L673.705441,1529.740224L672.794132,1537.899538L672.421310,1539.576290L671.571537,1545.464726L659.848506,1545.464726L648.915174,1544.989426L648.644197,1546.666178Z " data-cartodb-id="351" data-created-at="2013-02-24T01:52:05.311Z" data-name="Coral Way" data-updated-at="2013-02-24T01:52:05.607Z"/><path d="M1306.323367,1030.594521L1339.045463,1040.721113L1350.008234,1055.257457L1363.823930,1078.798143L1373.850860,1105.547115L1378.806857,1128.678498L1372.191698,1145.987423L1361.537323,1192.659449L1356.562046,1238.301627L1426.484609,1292.684042L1451.530742,1312.171395L1451.918447,1312.012962L1452.077925,1311.656486L1450.411161,1307.339166L1450.090706,1306.731837L1450.167564,1306.256535L1450.461546,1305.768031L1451.155188,1305.886857L1451.615908,1306.256535L1452.549518,1306.850662L1452.835813,1306.969487L1459.940254,1305.649206L1466.898041,1297.608692L1469.582322,1294.374003L1475.550598,1288.604372L1475.743227,1284.894381L1477.078395,1276.008885L1477.387573,1267.730717L1481.671507,1267.968368L1481.871571,1267.361038L1482.132500,1260.640803L1477.843372,1257.287286L1477.699495,1256.917607L1477.999266,1256.323480L1481.645785,1254.765547L1482.218039,1248.639438L1482.790189,1241.325074L1486.838431,1217.559987L1480.745073,1216.477355L1481.153062,1213.955614L1483.759964,1207.354200L1487.970509,1208.674483L1496.123892,1188.144080L1494.949083,1178.902097L1504.262247,1144.218243L1499.527353,1137.260346L1496.375881,1134.500952L1496.895950,1130.658925L1499.002501,1127.780705L1519.033999,1125.377788L1520.589394,1122.129888L1522.949406,1119.014017L1526.212346,1116.611099L1543.311794,1109.534374L1546.719744,1094.773591L1552.702666,1041.962181L1556.577888,1040.879547L1564.339645,1038.714279L1576.573954,1014.592655L1570.743562,1010.631796L1568.967096,1010.143291L1560.170035,1028.270818L1554.235508,1025.511420L1547.622087,1024.428786L1544.942772,1023.227326L1545.574306,1007.872398L1550.229197,999.462175L1552.784163,995.144838L1554.324131,992.623091L1559.587854,988.068103L1559.267604,987.460771L1561.206975,985.057850L1567.325088,977.743462L1573.040255,973.544950L1571.848146,964.421768L1575.919325,959.615923L1587.920308,947.139211L1587.299790,902.724739L1587.152931,901.047974L1580.359163,871.275477L1576.744004,858.679925L1583.678322,837.753350L1567.057041,840.129870L1555.352012,839.469725L1548.254322,839.073639L1535.865552,838.373886L1527.948348,837.938190L1528.850877,833.488817L1474.320757,836.182206L1452.588586,893.944824L1450.247128,908.388774L1454.869294,911.214190L1442.590175,1005.350652L1441.019347,1017.352053L1318.106085,1022.606791L1306.323367,1030.594521Z " data-cartodb-id="352" data-created-at="2013-02-24T01:52:05.311Z" data-name="Downtown" data-updated-at="2013-02-24T01:52:05.607Z"/><path d="M0.516286,1230.511960L2.817801,1230.274309L5.397629,1230.274309L10.757578,1230.155484L20.340356,1228.835201L28.847068,1228.359899L31.853490,1228.241074L36.477909,1227.633744L39.046420,1227.633744L45.447349,1227.514918L48.797782,1227.158442L53.667805,1226.920791L55.043624,1226.669937L60.739643,1226.432287L66.944838,1226.194636L70.840583,1226.313461L73.186170,1226.432287L93.382478,1225.600508L102.392558,1225.230829L111.909674,1224.874353L116.066846,1224.636702L120.917613,1224.517877L130.853382,1224.161400L137.060711,1223.910547L143.805644,1223.554070L152.089418,1223.197594L161.097352,1222.841118L172.389679,1222.352613L183.762449,1221.996137L195.542558,1221.639660L206.510124,1221.269981L217.456299,1221.032330L229.134569,1220.675854L232.140983,1220.557028L250.343393,1219.949698L252.085905,1219.949698L263.376081,1219.474397L264.488332,1219.593222L274.933261,1219.236746L284.970848,1218.880269L293.256746,1218.510590L295.029822,1218.391765L297.496494,1218.391765L299.982415,1218.272939L303.916657,1218.154114L305.149993,1218.154114L311.671990,1217.916463L320.038334,1217.678812L327.377149,1217.427958L330.892735,1217.309133L336.079560,1217.071482L342.499720,1216.833831L362.769372,1216.107675L366.062038,1216.107675L366.163873,1216.107675L383.549295,1072.381558L454.710851,1070.057856L455.526956,1064.116572L600.627688,1059.363545L599.693091,1066.176217L662.300901,1064.129775L668.478787,1019.319279L1040.362595,1002.802499L1046.620395,964.197319L1127.653416,968.673092L1142.969457,964.857463L1152.597811,965.557215L1187.714188,951.760216L1136.294748,922.977952L1127.654156,927.282090L1105.752658,918.330540L1086.717786,910.540843L1061.310299,890.908162L1032.567788,879.144395L1013.846420,866.496033L989.936111,850.335701L952.016010,812.232163L940.882928,811.743656L939.484594,811.506004L938.168804,811.387178L916.250661,812.100134L882.660814,813.063945L858.986816,813.790104L841.104479,814.384234L815.657485,815.229219L795.379872,815.942176L793.475656,816.311857L791.746637,816.787161L791.292106,815.823350L789.081882,817.381291L763.720191,833.594440L762.092829,824.590069L760.183420,819.903043L754.183518,823.269780L752.630894,823.982736L750.696075,824.471243L746.594411,825.065373L744.373394,825.435054L741.733318,826.504488L738.166586,828.194458L734.339804,828.907414L733.004726,828.907414L732.013704,828.669762L730.876886,828.075632L729.348791,826.755343L726.179611,826.623314L723.997166,826.755343L722.045201,827.349473L720.754091,827.705951L715.470954,816.549509L698.439765,819.427739L694.748652,820.629202L687.740550,823.863910L681.760566,828.432110L673.768769,836.472670L669.362875,840.195884L649.256538,859.511707L639.319479,869.361059L607.577110,902.724739L604.413359,907.649413L601.596893,908.481194L600.708429,909.563830L599.608282,911.253798L597.436679,912.574086L595.106172,915.571139L589.621751,920.852289L586.036135,925.169630L572.555056,937.897200L560.823713,948.697150L558.968942,950.017437L557.425115,951.931853L556.074044,952.658011L535.483812,981.941973L534.297870,982.905782L530.228036,987.698423L524.548170,992.860743L521.449688,995.501316L517.500498,997.666585L515.081278,998.630394L510.757471,1001.152141L506.334334,1002.472428L501.673611,1003.304208L497.637667,1003.423034L490.727820,1003.541859L468.272113,1002.472428L459.930790,1003.185382L456.569971,1004.862146L453.481091,1004.862146L451.656087,1004.743320L450.742089,1004.030365L450.494410,1003.673888L450.435747,1002.710079L449.422061,1001.983922L446.027690,1001.983922L430.427392,996.108647L427.599998,995.752170L412.172970,984.344895L404.516016,981.466670L403.851853,981.096990L403.180902,981.466670L398.537702,984.701372L396.793533,987.223119L375.468871,992.504265L361.684301,997.547760L349.678227,1003.066556L339.308141,1009.311510L327.525857,1016.031767L315.247863,1023.227326L311.704299,1027.914341L297.939893,1034.159293L294.219087,1036.799864L287.721221,1041.354850L285.409297,1042.912787L274.483561,1044.351898L270.831028,1045.315707L270.068349,1045.553358L260.901952,1053.237420L250.111617,1056.353294L245.085412,1057.554754L236.094617,1064.156180L230.375722,1067.047605L220.978329,1069.807001L200.842783,1081.082237L185.017620,1089.848929L178.772459,1092.845975L159.244042,1101.005335L154.595496,1103.645905L150.846522,1086.851882L148.720498,1068.843193L141.551397,1043.282467L139.802748,1035.717230L140.697948,1030.198435L134.693136,1035.479578L134.056123,1040.034564L138.727376,1080.369283L135.260089,1101.124161L137.186329,1105.085015L131.177253,1111.092310L116.403220,1119.726971L116.189167,1121.047255L109.186226,1122.367539L104.579597,1125.377788L98.879721,1128.850135L94.506409,1130.421274L80.465484,1140.257391L79.761545,1141.458849L64.432953,1152.258772L57.084533,1156.338449L52.202765,1160.418126L51.813260,1162.821043L47.134742,1170.742744L43.764640,1175.060072L33.085000,1192.712260L29.964767,1200.515134L23.528690,1215.513548L22.304331,1216.715006L19.956158,1221.639660L19.815814,1221.877311L19.573634,1222.114962L19.268128,1222.114962L14.445851,1219.474397L13.421744,1220.068524L8.054948,1222.114962L3.223436,1222.114962L1.085552,1228.954026L0.516286,1230.511960Z " data-cartodb-id="353" data-created-at="2013-02-24T01:52:05.311Z" data-name="Flagami" data-updated-at="2013-02-24T01:52:05.607Z"/><path d="M1554.471731,1419.734630L1538.429285,1427.841145L1508.662989,1436.356945L1505.606353,1438.046902L1504.797434,1441.162761L1504.564933,1442.601865L1504.246027,1445.836548L1509.019706,1447.526505L1511.231068,1448.477106L1514.508400,1449.203259L1561.512877,1449.203259L1571.594964,1451.724992L1584.180240,1457.243757L1601.435667,1472.730624L1598.059983,1478.988744L1675.155020,1579.765517L1684.847144,1589.826023L1671.961288,1605.656134L1665.428008,1638.082105L1697.334284,1648.631105L1921.076993,1535.536241L1999.483714,1402.082493L1992.039309,1380.218659L1965.452244,1384.747219L1943.720076,1395.296255L1946.227774,1387.757457L1924.678692,1325.176164L1897.655088,1324.423604L1876.382410,1359.925952L1879.147485,1387.004898L1843.602769,1399.072255L1778.069953,1476.731068L1785.686112,1501.605107L1781.791631,1513.672446L1741.880263,1528.750016L1745.154480,1507.137072L1646.170951,1365.748388L1636.844418,1374.937539L1736.075045,1516.695882L1723.250025,1540.064792L1703.258900,1543.827582L1672.380598,1502.252044L1627.117560,1448.727959L1622.935262,1445.968576L1619.127809,1444.040969L1605.928294,1425.794712L1598.768446,1421.715049L1593.950111,1421.002098L1581.195389,1398.676171L1572.951316,1405.158745L1587.479700,1426.032362L1587.623601,1428.923774L1576.665477,1431.194654L1573.322584,1430.244053L1560.622496,1420.394770L1557.687439,1418.110686L1554.471731,1419.734630Z M1600.372165,1004.650900L1600.289308,1004.743320L1599.631970,1005.588303L1596.529432,1010.143291L1605.942329,1035.228724L1608.485546,1057.673579L1610.771840,1070.876432L1624.802832,1080.725760L1658.173729,1108.451741L1678.268264,1122.856045L1704.452790,1137.735648L1707.318275,1134.012447L1724.338085,1117.218430L1732.104090,1114.327007L1732.492191,1114.445833L1733.813744,1113.970530L1735.327648,1113.495228L1739.546767,1112.174943L1749.079829,1114.934338L1749.366098,1115.053164L1749.663682,1115.171989L1753.407762,1115.528466L1754.567697,1116.611099L1753.927462,1118.050209L1749.138637,1123.450173L1722.678095,1147.822618L1722.507263,1148.179095L1722.683791,1148.416746L1724.810037,1149.261728L1740.199418,1156.457275L1750.873497,1166.781894L1772.562254,1180.222380L1798.870188,1134.619777L1804.639520,1126.935723L1807.680169,1122.129888L1819.354706,1097.044481L1820.024204,1094.166260L1807.903037,1076.289602L1804.029616,1073.517003L1785.269327,1067.998211L1783.118284,1066.677925L1752.322052,1053.593897L1733.670476,1044.959230L1724.746227,1039.070756L1635.079657,985.546356L1624.334391,980.146383L1620.530335,985.189878L1613.118904,995.250461L1612.579533,995.646547L1609.457672,993.824552L1600.372165,1004.650900Z M1718.559795,850.916628L1693.084989,852.910264L1692.928745,853.874075L1658.116880,854.837886L1657.460083,858.191419L1656.110044,860.237866L1653.909004,862.997269L1648.419832,867.684293L1651.875454,874.285734L1659.873210,876.318978L1684.541791,876.437804L1691.626495,879.078381L1698.459138,879.434858L1704.435516,878.721903L1735.694577,879.434858L1738.753490,874.523386L1738.314823,862.640791L1733.212820,856.633478L1728.301058,850.150861L1720.382307,850.771397L1718.559795,850.916628Z M1755.142821,852.078482L1749.339032,856.752304L1749.887654,857.834941L1743.897346,862.403139L1752.857665,876.926311L1759.744690,876.318978L1762.296166,875.236342L1778.228120,872.714591L1793.514957,872.358113L1803.676713,859.155229L1799.998106,852.672612L1798.886429,848.711746L1787.154495,850.032035L1755.142821,852.078482Z M1061.765251,1600.982357L1062.001242,1601.272818L1063.478693,1604.877171L1064.790672,1605.722148L1066.022284,1604.401872L1067.649457,1600.071366L1071.852714,1594.433787L1074.038967,1592.387359L1102.957995,1575.104941L1099.576506,1564.793580L1086.424141,1562.153027L1062.281035,1583.633927L1059.211354,1595.635238L1058.736900,1597.311989L1061.765251,1600.982357Z " data-cartodb-id="354" data-created-at="2013-02-24T01:52:05.311Z" data-name="Islands" data-updated-at="2013-02-24T01:52:05.607Z"/><path d="M1459.717726,106.812214L1459.005401,114.866036L1460.099611,163.717072L1445.364505,261.181426L1436.336934,344.478918L1424.122692,370.884829L1397.862329,572.955832L1457.240648,584.772451L1568.368960,584.812059L1637.559571,401.291227L1643.958709,382.807095L1643.140814,366.963551L1652.855283,342.009965L1650.390388,308.474447L1661.706491,206.943620L1681.747157,41.774282L1680.485597,36.255430L1679.687761,34.208966L1676.919208,33.496004L1669.866144,37.694557L1667.744154,37.456903L1661.270831,34.208966L1660.647073,32.413359L1654.325816,27.607468L1649.955671,26.656852L1645.369695,26.405995L1631.942777,28.690114L1626.482251,27.488641L1621.901976,28.452460L1620.668902,28.452460L1614.970223,31.211886L1603.367886,33.614831L1591.432888,34.935131L1584.853950,35.529266L1583.933186,41.180147L1583.769652,44.058400L1582.732772,50.422243L1581.606850,59.901992L1580.734979,66.503488L1579.129017,78.861487L1577.302984,93.265949L1575.849286,104.065993L1564.211734,104.184820L1563.424612,103.947166L1560.977787,103.828339L1556.753089,103.234204L1555.643320,103.102175L1554.531399,102.983348L1553.496899,102.389213L1550.103074,102.389213L1546.161465,102.626867L1544.815248,102.626867L1539.824824,102.983348L1535.360677,103.234204L1527.173666,105.505118L1525.412147,105.623945L1523.944759,105.742772L1521.536644,105.386291L1520.322909,105.267464L1517.410758,105.505118L1505.313769,105.874802L1503.337307,105.993629L1501.798772,105.993629L1501.380200,105.993629L1500.342696,106.112456L1482.712647,106.350109L1482.305388,106.350109L1470.777689,106.350109L1459.717726,106.812214Z " data-cartodb-id="355" data-created-at="2013-02-24T01:52:05.311Z" data-name="Little Haiti" data-updated-at="2013-02-24T01:52:05.607Z"/><path d="M1040.362595,1002.802499L1015.288370,1203.842247L1141.969552,1200.145454L1143.151366,1191.656034L1202.882226,1189.913260L1197.628346,1227.409296L1335.259622,1223.382434L1356.562046,1238.301627L1361.537323,1192.659449L1372.191698,1145.987423L1378.806857,1128.678498L1373.850860,1105.547115L1363.823930,1078.798143L1350.008234,1055.257457L1339.045463,1040.721113L1306.323367,1030.594521L1294.501945,1017.101198L1273.229381,992.807931L1187.714188,951.760216L1152.597811,965.557215L1142.969457,964.857463L1127.653416,968.673092L1046.620395,964.197319L1040.362595,1002.802499Z " data-cartodb-id="356" data-created-at="2013-02-24T01:52:05.311Z" data-name="Little Havana" data-updated-at="2013-02-24T01:52:05.607Z"/><path d="M1172.299323,367.412452L1171.233547,375.215398L1170.211840,384.695118L1168.975269,394.174837L1167.758113,403.535728L1166.560587,414.098088L1165.065720,424.541619L1163.887491,433.664855L1162.803154,442.906916L1161.528480,452.624283L1160.394361,462.103996L1159.134261,472.428696L1157.857722,482.159262L1156.685244,491.876625L1155.524172,501.593987L1154.247911,511.324550L1153.056398,521.160737L1151.753012,531.128951L1150.663513,540.965135L1149.349007,550.933348L1148.496465,558.128944L1148.392146,560.650704L1148.166701,563.291289L1148.496758,563.766595L1148.222908,572.414512L1148.066731,574.698618L1146.354350,577.299595L1171.195091,575.305953L1191.521009,576.797884L1348.980645,572.229671L1376.964793,570.803755L1397.862329,572.955832L1424.122692,370.884829L1436.336934,344.478918L1445.364505,261.181426L1460.099611,163.717072L1459.005401,114.866036L1459.717726,106.812214L1459.387506,106.825417L1458.655445,106.944244L1454.615028,106.468936L1453.381937,106.468936L1452.192591,106.825417L1449.646833,107.313927L1447.975814,107.432754L1436.561239,107.432754L1429.911099,107.908062L1429.034332,113.915421L1427.737560,123.751645L1426.518298,133.112561L1425.332689,142.961986L1424.036198,152.798207L1422.737650,162.647631L1421.538095,171.889717L1420.371435,180.999772L1419.472416,189.647722L1418.746805,196.605690L1416.800899,211.128963L1400.139835,211.736300L1379.030167,212.568087L1376.511785,212.818944L1374.229845,212.937770L1353.323803,213.769558L1347.832257,214.007211L1347.403494,214.139241L1334.177151,214.495721L1332.371828,214.258068L1330.720134,214.258068L1329.365856,214.376895L1329.079752,214.258068L1328.094049,214.614548L1326.841588,214.733375L1307.268316,215.578365L1283.559916,216.528979L1265.035461,217.255143L1260.052993,217.492796L1257.077678,217.492796L1255.387288,217.730450L1253.829374,217.849277L1247.245218,217.849277L1239.164119,218.218960L1236.576723,218.337787L1231.104517,218.456613L1230.493784,227.210184L1229.622595,235.131967L1228.704407,243.898740L1227.191787,251.939348L1226.951039,259.742303L1226.049449,267.782910L1225.280395,275.704690L1224.398273,283.626469L1223.508185,291.667075L1222.626187,299.588853L1221.623095,307.629457L1220.634366,316.277397L1219.099907,326.958592L1212.804736,327.684755L1210.997558,340.042724L1216.285565,339.805071L1214.294238,352.044212L1212.526027,364.164525L1195.539789,364.890688L1172.656750,365.841300L1172.299323,367.412452Z " data-cartodb-id="357" data-created-at="2013-02-24T01:52:05.311Z" data-name="Model City" data-updated-at="2013-02-24T01:52:05.607Z"/><path d="M736.828155,1762.980049L752.615902,1780.711314L772.695238,1782.506885L781.005256,1785.147430L785.871596,1785.635931L787.114386,1784.315658L798.555873,1764.392741L799.074453,1763.072468L798.644055,1762.583967L795.045534,1762.583967L794.849702,1762.465142L794.989896,1762.227493L800.488122,1760.062245L805.165554,1755.269654L806.846244,1753.830556L802.993505,1749.024761L805.982419,1745.790091L813.731735,1738.581398L815.541325,1736.904651L819.085331,1732.825005L835.241182,1719.384619L851.102234,1695.012358L860.517175,1687.090712L861.331924,1687.090712L861.254938,1688.899488L860.440745,1690.087735L874.177529,1710.142701L888.020598,1698.973181L892.067962,1694.299410L901.060981,1690.813886L904.010034,1691.051535L909.475679,1689.018312L905.724757,1681.690789L902.041462,1677.729965L911.448925,1670.415643L910.370817,1666.930117L910.228495,1663.325767L913.460749,1645.198390L919.183324,1634.636187L934.241604,1635.005864L942.404380,1629.724762L952.058420,1628.523311L957.103468,1627.203035L960.263510,1619.756680L968.670065,1608.481525L982.431327,1599.714892L992.632814,1595.754063L994.096780,1597.549639L1009.735446,1602.593094L1021.467592,1584.109226L1032.837257,1585.667153L1035.945540,1583.026600L1056.444303,1569.467360L1062.309448,1565.031230L1064.891744,1560.463072L1072.153834,1552.422586L1075.475434,1548.461755L1079.717352,1545.108251L1109.728128,1536.341611L1109.885561,1539.219815L1122.653392,1542.348872L1136.501233,1561.070400L1139.479128,1564.912405L1154.443391,1565.863004L1157.492068,1566.113857L1173.455098,1547.497953L1185.362146,1531.786654L1197.950153,1515.573646L1195.510440,1510.292535L1195.871924,1501.050591L1202.303190,1475.252356L1209.102155,1473.932078L1218.684088,1456.649631L1226.668656,1451.843817L1227.143145,1452.688795L1251.408171,1438.165727L1267.190921,1432.158458L1299.942046,1415.958631L1300.968283,1412.829569L1301.134980,1412.288254L1285.984078,1393.804339L1226.529635,1399.705990L1213.807456,1398.398913L1110.778597,1437.122707L882.533838,1528.419946L784.619692,1570.998881L768.977984,1686.417372L766.913161,1727.108220L740.273760,1752.708324L736.828155,1762.980049Z " data-cartodb-id="358" data-created-at="2013-02-24T01:52:05.311Z" data-name="North Coconut Grove" data-updated-at="2013-02-24T01:52:05.607Z"/><path d="M1318.106085,1022.606791L1441.019347,1017.352053L1442.590175,1005.350652L1454.869294,911.214190L1450.247128,908.388774L1452.588586,893.944824L1474.320757,836.182206L1490.721351,793.101170L1423.187248,795.820966L1378.145780,797.075241L1366.197049,797.708980L1358.912121,873.599184L1361.699846,884.108678L1324.824259,886.075908L1257.507546,919.967697L1187.714188,951.760216L1273.229381,992.807931L1294.501945,1017.101198L1306.323367,1030.594521L1318.106085,1022.606791Z " data-cartodb-id="359" data-created-at="2013-02-24T01:52:05.311Z" data-name="Overtown" data-updated-at="2013-02-24T01:52:05.607Z"/><path d="M554.126873,1935.909196L570.227152,1934.945400L590.077539,1933.743954L593.268777,1933.743954L600.848215,1933.268657L602.306707,1934.470102L603.119708,1935.183048L628.499097,1932.186036L637.705493,1929.901969L647.172121,1931.829563L665.070802,1931.222239L682.465951,1930.509293L693.962996,1930.020793L694.502709,1929.901969L695.317493,1929.901969L695.901584,1930.139618L703.619397,1930.139618L699.455097,1921.505052L695.535228,1906.863257L695.213664,1903.734216L692.246645,1902.413946L689.649474,1903.853040L661.109088,1904.698013L661.709450,1900.974851L692.378643,1900.261905L693.627371,1899.535756L695.060625,1900.261905L695.019420,1896.657566L696.121496,1887.296848L696.807766,1881.778117L702.198867,1866.172514L692.798530,1860.046456L693.799234,1858.963834L695.303151,1857.287089L704.776909,1864.852243L707.487280,1863.413148L697.594828,1855.847994L699.171521,1853.088627L710.082415,1860.653781L721.794713,1846.130796L723.024300,1845.523471L736.251881,1843.846727L738.040347,1843.001753L740.310178,1837.839491L735.129469,1834.248352L725.710783,1830.762835L723.746468,1827.646993L725.131537,1826.075870L725.532916,1825.481747L727.032999,1823.197677L727.255859,1823.078853L727.440383,1823.197677L730.271136,1827.396142L733.758569,1828.716413L739.728755,1833.165729L742.376961,1835.198948L748.180669,1824.755598L746.896852,1823.805002L748.149488,1823.686178L749.070926,1819.236861L754.118651,1813.480475L750.867391,1809.994957L751.236100,1799.432779L752.390217,1797.399559L751.930504,1782.995386L752.615902,1780.711314L736.828155,1762.980049L740.273760,1752.708324L766.913161,1727.108220L768.977984,1686.417372L784.619692,1570.998881L758.927783,1578.735701L711.395133,1600.559869L658.506798,1647.416452L658.054246,1650.849168L657.236093,1657.807017L656.291202,1666.811293L655.290465,1674.970591L654.399509,1683.011063L653.333813,1692.134160L650.338529,1692.252985L638.527132,1692.728284L635.253372,1692.609459L630.803731,1692.134160L626.150404,1691.658861L622.978489,1691.540037L621.318488,1691.658861L617.165371,1725.022188L617.572749,1725.022188L617.263699,1726.936585L607.221346,1728.019209L606.477937,1728.138034L589.119489,1728.626535L580.435672,1728.864184L579.865665,1733.656778L578.592566,1743.506018L578.258738,1747.466839L577.508122,1752.747932L577.228053,1755.744952L577.069017,1758.623148L576.589094,1762.227493L575.894182,1767.865059L575.395114,1771.588229L574.145589,1780.592489L572.794730,1792.118469L572.506918,1795.234312L571.253757,1803.631245L569.858832,1814.800747L568.771179,1823.435326L568.221994,1826.207897L567.884628,1829.561387L567.209259,1835.080123L567.006114,1837.601842L566.739469,1839.885912L566.052839,1845.404647L565.509715,1848.771339L565.007068,1851.887180L564.184198,1858.250887L562.864783,1868.324556L561.631316,1877.936128L560.413942,1888.009794L560.089918,1890.650336L559.092692,1898.096661L557.665785,1907.576202L557.259126,1910.097919L556.375205,1917.544242L555.453798,1926.416457L554.891780,1929.901969L554.542653,1932.067211L554.126873,1935.909196Z " data-cartodb-id="360" data-created-at="2013-02-24T01:52:05.311Z" data-name="South Coconut Grove" data-updated-at="2013-02-24T01:52:05.607Z"/><path d="M1882.711039,0.000000L1878.166662,0.118827L1877.883445,0.607338L1876.999549,0.963819L1833.554417,2.521773L1820.502596,3.129111L1813.198328,0.607338L1810.294268,0.726165L1802.044191,2.759427L1793.580474,3.604419L1788.590118,3.960900L1786.346970,3.842073L1783.665896,3.842073L1774.068068,4.079727L1760.413409,4.568238L1741.206436,5.043546L1737.171118,5.162373L1727.573287,5.400027L1719.696073,5.769711L1717.458646,21.375654L1718.775376,25.930688L1718.819108,26.287169L1718.548774,28.571287L1718.655600,29.165422L1718.689135,29.653933L1718.517758,31.330713L1718.831077,32.532186L1718.420225,35.053958L1718.205121,36.374257L1718.009379,37.575730L1717.893224,38.288691L1717.794278,38.896029L1714.590366,47.174307L1713.776501,54.739622L1692.045145,55.571410L1689.986242,55.571410L1683.707719,55.571410L1685.251216,50.541070L1685.927328,45.141046L1681.747157,41.774282L1661.706491,206.943620L1650.390388,308.474447L1652.855283,342.009965L1643.140814,366.963551L1643.958709,382.807095L1637.559571,401.291227L1568.368960,584.812059L1618.158933,583.359738L1650.170591,595.242370L1651.381347,600.536742L1657.563192,599.533320L1674.630295,598.939188L1691.249867,594.133324L1692.405909,592.100074L1675.894706,581.049226L1669.984357,578.778322L1652.514764,563.528942L1646.365366,552.002785L1646.595570,546.127481L1645.925534,539.526016L1646.973875,538.086896L1650.925657,533.399855L1668.727443,517.556336L1674.328457,511.562203L1676.090053,511.443377L1692.109242,503.996921L1703.977721,496.193986L1708.485791,492.470757L1720.718872,473.511337L1725.075335,465.708399L1728.525547,453.944577L1730.625726,451.185162L1731.954438,446.141638L1732.592859,441.586622L1738.151724,395.970438L1737.900707,381.090712L1724.566501,356.850088L1729.234725,335.725357L1724.542205,302.599128L1726.298145,294.307668L1734.532558,271.506147L1743.168937,256.388749L1746.452754,250.737878L1749.310845,245.826373L1749.351661,245.575517L1748.971746,245.337864L1743.898776,245.575517L1743.631992,245.337864L1754.087333,232.253720L1755.832643,234.181353L1758.570805,235.013141L1766.939915,226.616051L1789.243029,208.369541L1805.784813,197.094201L1816.641581,190.373886L1819.744345,185.211522L1820.019396,183.521541L1822.112109,179.560647L1823.107066,173.447668L1825.513534,166.238842L1830.973780,156.046141L1834.183608,151.477909L1835.494378,147.873495L1834.540433,142.961986L1837.239422,135.277850L1838.663387,129.032839L1843.763801,116.674845L1848.999057,101.544222L1857.389698,72.735300L1861.118080,68.180268L1861.858630,66.133804L1861.505033,60.733781L1864.913710,56.891710L1865.214107,56.297575L1865.107248,55.703440L1866.024158,52.574331L1865.705849,49.458425L1867.059284,41.774282L1869.747535,35.410439L1870.339060,35.529266L1871.171290,33.614831L1872.008687,30.974232L1878.973622,7.802972L1880.852004,3.842073L1882.711039,0.000000Z " data-cartodb-id="361" data-created-at="2013-02-24T01:52:05.311Z" data-name="Upper Eastside" data-updated-at="2013-02-24T01:52:05.607Z"/><path d="M383.549295,1072.381558L366.163873,1216.107675L369.710021,1215.870025L387.224600,1215.038246L389.468352,1215.157072L390.599853,1215.157072L391.648765,1215.038246L393.646895,1214.787393L412.496638,1213.955614L420.862972,1213.717963L429.790428,1213.229459L435.905076,1212.991808L446.044479,1212.635332L446.757324,1212.635332L447.195225,1212.516506L447.927317,1212.397681L459.404027,1212.028001L464.285338,1211.790350L472.772748,1211.433874L475.239417,1211.433874L480.090166,1211.315049L481.240911,1211.196223L482.309068,1210.958572L489.353680,1210.707718L498.146592,1210.351242L505.819320,1209.994766L514.929050,1209.638289L523.316758,1209.268610L529.533234,1209.030959L530.480308,1208.912134L531.072072,1209.030959L531.694397,1209.030959L540.201045,1208.555657L545.470445,1208.436832L552.809241,1208.185978L560.380128,1207.829502L560.889302,1207.829502L561.327202,1207.710676L562.141881,1207.710676L565.668771,1207.591851L571.568424,1207.354200L576.011828,1207.235374L577.773581,1207.116549L597.024826,1206.390393L598.175568,1206.271568L598.461829,1206.390393L599.593327,1206.390393L603.648635,1206.152742L622.696204,1205.426587L630.878093,1205.070110L632.722435,1205.070110L645.989291,1204.475983L665.546024,1203.749827L668.654257,1203.631002L674.025485,1203.512176L686.232113,1203.036874L688.007315,1202.904846L692.450714,1202.786021L697.145973,1159.823998L697.826070,1155.625496L701.443451,1155.506670L703.604593,1155.506670L709.771203,1155.506670L714.337432,1128.018356L714.997324,1122.618393L748.228936,1122.618393L748.551472,1119.370494L748.944218,1117.574907L749.410542,1114.696687L749.698030,1112.293769L750.275394,1106.774979L752.417265,1106.893805L755.118121,1106.774979L758.214995,1106.656154L760.703010,1106.524125L765.146342,1106.405300L763.793957,1113.495228L763.278896,1117.931384L762.821376,1129.695117L758.581695,1129.813943L755.269829,1129.932769L752.365298,1130.051594L747.193308,1130.896576L747.163835,1132.335686L746.648845,1136.771841L746.027557,1141.934151L745.487769,1145.895004L744.596117,1154.542863L744.212493,1157.539908L743.634273,1161.738410L743.289162,1164.497803L742.438398,1171.706551L742.322925,1172.419505L742.161217,1172.789184L742.147580,1173.502137L741.077352,1182.625296L740.313757,1189.226712L740.240263,1190.309345L740.061456,1190.784647L740.007207,1191.748453L738.808139,1201.109261L735.963583,1223.078769L735.851647,1224.399051L734.614403,1233.997506L733.286849,1244.084464L732.635554,1249.365593L732.044131,1254.277043L731.464171,1258.488743L730.708858,1264.482824L730.246483,1267.968368L729.483441,1274.569778L728.880798,1278.292972L728.117823,1284.894381L727.578590,1288.855226L726.328405,1299.166624L912.202204,1292.037104L922.962423,1211.433874L1015.288370,1203.842247L1040.362595,1002.802499L668.478787,1019.319279L662.300901,1064.129775L599.693091,1066.176217L600.627688,1059.363545L455.526956,1064.116572L454.710851,1070.057856L383.549295,1072.381558Z " data-cartodb-id="362" data-created-at="2013-02-24T01:52:05.311Z" data-name="West Flagler" data-updated-at="2013-02-24T01:52:05.607Z"/><path d="M1457.240648,584.772451L1397.862329,572.955832L1393.348496,595.242370L1393.451381,609.237467L1391.128830,615.178782L1380.405490,688.190905L1380.488249,702.318018L1366.197049,797.708980L1378.145780,797.075241L1423.187248,795.820966L1490.721351,793.101170L1474.320757,836.182206L1528.850877,833.488817L1527.948348,837.938190L1535.865552,838.373886L1548.254322,839.073639L1555.352012,839.469725L1567.057041,840.129870L1583.678322,837.753350L1588.230677,823.982736L1589.532174,822.305969L1596.447752,804.429253L1597.778199,794.342242L1587.649124,792.058141L1585.999785,790.856678L1590.728855,777.534956L1592.270247,771.171159L1599.461365,758.575593L1601.681179,754.377071L1603.127092,749.927693L1601.924711,744.646532L1602.740816,739.616226L1603.838411,730.968325L1605.516908,721.250987L1607.035824,711.890126L1604.428085,703.836353L1609.791189,696.165463L1609.085053,692.917547L1597.066298,692.798721L1597.233332,690.514617L1600.755113,684.639322L1611.261120,681.391406L1612.564800,677.192880L1613.485163,662.669676L1616.142588,657.032031L1617.158343,648.265296L1620.084810,620.063863L1621.933223,615.020347L1631.130507,605.897128L1642.038551,602.055078L1651.381347,600.536742L1650.170591,595.242370L1618.158933,583.359738L1568.368960,584.812059L1457.240648,584.772451Z " data-cartodb-id="363" data-created-at="2013-02-24T01:52:05.311Z" data-name="Wynwood" data-updated-at="2013-02-24T01:52:05.607Z"/></g><g fill="#000" font-family="Arial" font-size="12px" id="mylayer-label" stroke="none"><text text-anchor="middle" y="727.917697745"><tspan dy="0" x="1141.13829194"><![CDATA[Allapattah]]></tspan></text><text text-anchor="middle" y="1363.66417882"><tspan dy="0" x="1004.47673425"><![CDATA[Coral Way]]></tspan></text><text text-anchor="middle" y="1054.39023613"><tspan dy="0" x="1467.51136273"><![CDATA[Downtown]]></tspan></text><text text-anchor="middle" y="999.507653019"><tspan dy="0" x="604.488592135"><![CDATA[Flagami]]></tspan></text><text text-anchor="middle" y="1351.42069148"><tspan dy="0" x="1764.40364116"><![CDATA[Islands]]></tspan></text><text text-anchor="middle" y="314.230316589"><tspan dy="0" x="1541.95275315"><![CDATA[Little Haiti]]></tspan></text><text text-anchor="middle" y="1092.68549958"><tspan dy="0" x="1192.05570496"><![CDATA[Little Havana]]></tspan></text><text text-anchor="middle" y="384.429251754"><tspan dy="0" x="1309.13431877"><![CDATA[Model City]]></tspan></text><text text-anchor="middle" y="1556.88425613"><tspan dy="0" x="980.014037728"><![CDATA[North Coconut Grove]]></tspan></text><text text-anchor="middle" y="915.542502622"><tspan dy="0" x="1367.51462658"><![CDATA[Overtown]]></tspan></text><text text-anchor="middle" y="1766.5822764"><tspan dy="0" x="670.406560446"><![CDATA[South Coconut Grove]]></tspan></text><text text-anchor="middle" y="247.779243938"><tspan dy="0" x="1718.99442698"><![CDATA[Upper Eastside]]></tspan></text><text text-anchor="middle" y="1129.04787532"><tspan dy="0" x="739.46317466"><![CDATA[West Flagler]]></tspan></text><text text-anchor="middle" y="692.857377588"><tspan dy="0" x="1499.1114359"><![CDATA[Wynwood]]></tspan></text></g></svg>