<?xml version="1.0" encoding="utf-8"?><!DOCTYPE svg  PUBLIC '-//W3C//DTD SVG 1.1//EN'  'http://www.w3.org/Graphics/SVG/1.1/DTD/svg11.dtd'><svg enable_background="new 0 0 2000 2223" height="2223px" pretty_print="False" style="stroke-linejoin: round; stroke:#000; fill: none;" version="1.1" viewBox="0 0 2000 2223" width="2000px" xmlns="http://www.w3.org/2000/svg" xmlns:xlink="http://www.w3.org/1999/xlink"><defs><style type="text/css"><![CDATA[path { fill-rule: evenodd; }]]></style></defs><metadata><views><view h="2223.65086777" padding="0" w="2000"><proj flip="auto" id="robinson" lon0="-93.2686098266"/><bbox h="2.62" w="2.36" x="-1239.65" y="-754.2"/></view></views></metadata><g class="" id="mylayer"><path d="M792.723244,1614.940993L746.317570,1714.637567L884.780063,1713.838139L930.074845,1614.541260L792.723244,1614.940993Z " data-cartodb-id="1" data-created-at="2013-02-20T04:06:07.501Z" data-name="Bryant" data-updated-at="2013-02-20T04:06:07.744Z"/><path d="M746.317570,1714.637567L700.855245,1814.343336L766.729203,1813.461248L777.280990,1813.502596L781.063613,1813.378552L795.351535,1813.447465L838.149218,1813.502596L884.780063,1713.838139L746.317570,1714.637567Z " data-cartodb-id="2" data-created-at="2013-02-20T04:06:07.501Z" data-name="Regina" data-updated-at="2013-02-20T04:06:07.744Z"/><path d="M884.780063,1713.838139L838.149218,1813.502596L826.779797,1838.435224L803.894413,1888.079112L783.992581,1932.429638L812.793793,1928.612055L830.146024,1916.580423L852.355597,1913.245182L871.998901,1904.466033L881.191168,1907.718595L909.388319,1899.463142L944.882645,1879.203386L961.580457,1876.970666L966.015500,1882.414639L981.176170,1878.018115L987.790989,1863.505391L1055.548189,1714.031104L884.780063,1713.838139Z " data-cartodb-id="3" data-created-at="2013-02-20T04:06:07.501Z" data-name="Northrup" data-updated-at="2013-02-20T04:06:07.744Z"/><path d="M735.359260,2038.161642L783.992581,1932.429638L766.359237,1934.193717L753.777581,1915.036841L736.319975,1912.556082L712.973217,1914.926585L690.512074,1936.302341L635.674691,1954.384056L631.695651,1962.928717L598.357045,2036.204709L633.040719,2041.951472L637.459364,2042.681875L685.082655,2038.451048L735.359260,2038.161642Z " data-cartodb-id="4" data-created-at="2013-02-20T04:06:07.501Z" data-name="Page" data-updated-at="2013-02-20T04:06:07.744Z"/><path d="M908.316252,2034.413149L922.606239,2004.218254L981.176170,1878.018115L966.015500,1882.414639L961.580457,1876.970666L944.882645,1879.203386L909.388319,1899.463142L881.191168,1907.718595L871.998901,1904.466033L852.355597,1913.245182L830.146024,1916.580423L812.793793,1928.612055L783.992581,1932.429638L735.359260,2038.161642L834.886491,2037.734424L842.543230,2034.688774L908.316252,2034.413149Z " data-cartodb-id="5" data-created-at="2013-02-20T04:06:07.501Z" data-name="Hale" data-updated-at="2013-02-20T04:06:07.744Z"/><path d="M1195.633726,2011.164081L1263.996524,1862.016901L1142.954773,1861.548302L1127.450644,1859.425823L1078.798336,1859.246653L1074.467147,1859.908205L1062.413763,1862.251200L1052.353076,1862.416588L1038.022005,1863.629432L987.790989,1863.505391L981.176170,1878.018115L922.606239,2004.218254L1015.207580,2003.198428L1026.101826,2012.239029L1032.326505,2012.142559L1195.633726,2011.164081Z " data-cartodb-id="6" data-created-at="2013-02-20T04:06:07.501Z" data-name="Keewaydin" data-updated-at="2013-02-20T04:06:07.744Z"/><path d="M514.719263,2216.841618L532.417693,2216.745157L610.902237,2213.437931L832.985359,2212.831605L850.012998,2170.429757L861.514446,2143.392471L890.810318,2080.510901L890.175939,2072.724652L908.316252,2034.413149L842.543230,2034.688774L834.886491,2037.734424L735.359260,2038.161642L685.082655,2038.451048L637.459364,2042.681875L633.040719,2041.951472L598.357045,2036.204709L514.719263,2216.841618Z " data-cartodb-id="7" data-created-at="2013-02-20T04:06:07.501Z" data-name="Diamond Lake" data-updated-at="2013-02-20T04:06:07.744Z"/><path d="M1102.454571,2215.229346L1146.320129,2118.118788L1195.633726,2011.164081L1032.326505,2012.142559L1026.101826,2012.239029L1015.207580,2003.198428L922.606239,2004.218254L890.175939,2072.724652L890.810318,2080.510901L861.514446,2143.392471L850.012998,2170.429757L832.985359,2212.831605L1102.454571,2215.229346Z " data-cartodb-id="8" data-created-at="2013-02-20T04:06:07.501Z" data-name="Wenonah" data-updated-at="2013-02-20T04:06:07.744Z"/><path d="M1277.403068,2214.209618L1309.835583,2136.157668L1367.621025,2011.398365L1195.633726,2011.164081L1146.320129,2118.118788L1102.454571,2215.229346L1277.403068,2214.209618Z " data-cartodb-id="9" data-created-at="2013-02-20T04:06:07.501Z" data-name="Morris Park" data-updated-at="2013-02-20T04:06:07.744Z"/><path d="M1379.238614,1911.026280L1367.670002,1886.439035L1364.085137,1879.272297L1357.646163,1871.871237L1351.173945,1860.583539L1330.202581,1860.431933L1320.548261,1861.906642L1263.996524,1862.016901L1195.633726,2011.164081L1367.621025,2011.398365L1471.268908,2010.819547L1468.997241,2003.956407L1445.790589,1984.827704L1421.822266,1967.573139L1421.152252,1967.090781L1405.866025,1960.971717L1396.602547,1948.912699L1392.523766,1939.761583L1379.238614,1911.026280Z " data-cartodb-id="10" data-created-at="2013-02-20T04:06:07.501Z" data-name="Minnehaha" data-updated-at="2013-02-20T04:06:07.744Z"/><path d="M1214.953158,1739.323235L1058.154289,1739.102705L1069.729203,1714.086237L1055.548189,1714.031104L987.790989,1863.505391L1038.022005,1863.629432L1052.353076,1862.416588L1062.413763,1862.251200L1074.467147,1859.908205L1078.798336,1859.246653L1127.450644,1859.425823L1142.954773,1861.548302L1263.996524,1862.016901L1320.548261,1861.906642L1330.202581,1860.431933L1351.173945,1860.583539L1346.970842,1850.494851L1334.159730,1813.447465L1322.685803,1714.348119L1226.318915,1714.168937L1214.953158,1739.323235Z " data-cartodb-id="11" data-created-at="2013-02-20T04:06:07.501Z" data-name="Ericsson" data-updated-at="2013-02-20T04:06:07.744Z"/><path d="M1317.703955,1664.727829L1317.686780,1665.458358L1322.685803,1714.348119L1334.159730,1813.447465L1346.970842,1850.494851L1351.173945,1860.583539L1357.646163,1871.871237L1364.085137,1879.272297L1367.670002,1886.439035L1379.238614,1911.026280L1392.523766,1939.761583L1396.602547,1948.912699L1405.866025,1960.971717L1421.152252,1967.090781L1421.822266,1967.573139L1445.790589,1984.827704L1468.997241,2003.956407L1471.268908,2010.819547L1522.656575,2012.294154L1488.014436,1977.165150L1475.333097,1947.741248L1523.062669,1839.648081L1560.007615,1767.895407L1589.888723,1716.773971L1612.939614,1660.771940L1577.368330,1661.268150L1571.478727,1661.199232L1567.876059,1661.695441L1563.096580,1663.170285L1558.760378,1665.279172L1557.133310,1661.902195L1556.836367,1661.268150L1553.646067,1659.917357L1539.669278,1659.834656L1531.877146,1662.067598L1525.535564,1662.398404L1331.527339,1664.479725L1317.703955,1664.727829Z " data-cartodb-id="12" data-created-at="2013-02-20T04:06:07.501Z" data-name="Hiawatha" data-updated-at="2013-02-20T04:06:07.744Z"/><path d="M1301.894325,1515.363866L1307.113811,1564.698127L1317.703955,1664.727829L1331.527339,1664.479725L1525.535564,1662.398404L1531.877146,1662.067598L1539.669278,1659.834656L1553.646067,1659.917357L1556.836367,1661.268150L1557.133310,1661.902195L1558.760378,1665.279172L1563.096580,1663.170285L1567.876059,1661.695441L1571.478727,1661.199232L1577.368330,1661.268150L1612.939614,1660.771940L1634.988905,1609.027696L1664.915347,1544.297397L1680.084564,1512.234776L1492.525109,1513.999197L1478.343876,1514.095689L1359.578129,1515.294943L1301.894325,1515.363866Z " data-cartodb-id="13" data-created-at="2013-02-20T04:06:07.501Z" data-name="Howe" data-updated-at="2013-02-20T04:06:07.744Z"/><path d="M1122.838593,1565.097869L1100.413796,1614.968561L1055.548189,1714.031104L1069.729203,1714.086237L1058.154289,1739.102705L1214.953158,1739.323235L1226.318915,1714.168937L1322.685803,1714.348119L1317.686780,1665.458358L1317.703955,1664.727829L1307.113811,1564.698127L1122.838593,1565.097869Z " data-cartodb-id="14" data-created-at="2013-02-20T04:06:07.501Z" data-name="Standish" data-updated-at="2013-02-20T04:06:07.744Z"/><path d="M930.074845,1614.541260L884.780063,1713.838139L1055.548189,1714.031104L1100.413796,1614.968561L930.074845,1614.541260Z " data-cartodb-id="15" data-created-at="2013-02-20T04:06:07.501Z" data-name="Bancroft" data-updated-at="2013-02-20T04:06:07.744Z"/><path d="M1017.130452,1418.704568L930.074845,1614.541260L1100.413796,1614.968561L1122.838593,1565.097869L1188.964045,1418.511576L1017.130452,1418.704568Z " data-cartodb-id="16" data-created-at="2013-02-20T04:06:07.501Z" data-name="Powderhorn Park" data-updated-at="2013-02-20T04:06:07.744Z"/><path d="M731.067747,1418.621857L663.021776,1565.456259L815.309885,1565.001380L881.539344,1418.773494L731.067747,1418.621857Z " data-cartodb-id="17" data-created-at="2013-02-20T04:06:07.501Z" data-name="Lyndale" data-updated-at="2013-02-20T04:06:07.744Z"/><path d="M482.040844,1418.897560L416.400614,1565.580316L548.250785,1565.538964L616.397995,1418.621857L542.465343,1418.539146L482.040844,1418.897560Z " data-cartodb-id="18" data-created-at="2013-02-20T04:06:07.501Z" data-name="ECCO" data-updated-at="2013-02-20T04:06:07.744Z"/><path d="M78.535468,1838.256052L22.901296,1962.198287L0.449913,2012.018527L114.699202,2012.611126L117.248554,2012.624907L228.592589,2014.554299L273.215095,1914.816329L284.339268,1889.815663L291.997326,1872.353616L307.881356,1836.850240L250.570562,1837.194802L236.615482,1838.545484L221.950746,1838.586831L211.814084,1838.573049L206.212868,1838.586831L164.870828,1838.449007L119.174761,1838.256052L111.215967,1838.132010L105.105779,1838.076880L82.865891,1838.214705L78.535468,1838.256052Z " data-cartodb-id="19" data-created-at="2013-02-20T04:06:07.501Z" data-name="Fulton" data-updated-at="2013-02-20T04:06:07.744Z"/><path d="M285.586822,2014.692112L274.109480,2039.581107L251.555109,2088.999949L240.814663,2114.397992L230.103172,2138.941347L216.636690,2163.897844L209.421001,2179.896863L207.226363,2183.975837L202.574947,2190.755736L196.474005,2197.232450L188.069426,2204.094989L184.748731,2207.333329L182.731055,2210.034238L181.398105,2212.418202L189.205589,2212.556003L243.670496,2215.367147L260.591223,2214.926183L283.951967,2215.697870L287.737418,2209.855097L300.531131,2197.356472L308.664384,2191.114023L353.718270,2160.452734L365.221022,2151.729692L377.886737,2140.402089L390.674978,2128.137343L402.742314,2115.155932L428.242699,2078.870968L457.368734,2015.229585L285.586822,2014.692112Z " data-cartodb-id="20" data-created-at="2013-02-20T04:06:07.501Z" data-name="Kenny" data-updated-at="2013-02-20T04:06:07.744Z"/><path d="M114.699202,2012.611126L23.413596,2213.148548L120.973256,2212.583563L138.171115,2212.597343L181.398105,2212.418202L182.731055,2210.034238L184.748731,2207.333329L188.069426,2204.094989L196.474005,2197.232450L202.574947,2190.755736L207.226363,2183.975837L209.421001,2179.896863L216.636690,2163.897844L222.485775,2153.052620L230.103172,2138.941347L240.814663,2114.397992L251.555109,2088.999949L274.109480,2039.581107L285.586822,2014.692112L228.592589,2014.554299L117.248554,2012.624907L114.699202,2012.611126Z " data-cartodb-id="21" data-created-at="2013-02-20T04:06:07.501Z" data-name="Armatage" data-updated-at="2013-02-20T04:06:07.744Z"/><path d="M547.830293,1815.638902L457.368734,2015.229585L489.411432,2014.953958L512.516538,2020.190868L565.275798,2030.623306L598.357045,2036.204709L631.695651,1962.928717L700.855245,1814.343336L547.830293,1815.638902Z " data-cartodb-id="22" data-created-at="2013-02-20T04:06:07.501Z" data-name="Tangletown" data-updated-at="2013-02-20T04:06:07.744Z"/><path d="M473.900032,2221.650868L492.389245,2219.322035L514.719263,2216.841618L598.357045,2036.204709L565.275798,2030.623306L512.516538,2020.190868L489.411432,2014.953958L457.368734,2015.229585L428.242699,2078.870968L402.742314,2115.155932L390.674978,2128.137343L377.886737,2140.402089L376.653106,2141.504534L365.221022,2151.729692L353.718270,2160.452734L308.664384,2191.114023L300.531131,2197.356472L287.737418,2209.855097L283.951967,2215.697870L363.510070,2219.680317L424.277215,2221.113445L473.900032,2221.650868Z " data-cartodb-id="23" data-created-at="2013-02-20T04:06:07.501Z" data-name="Windom" data-updated-at="2013-02-20T04:06:07.744Z"/><path d="M416.400614,1565.580316L392.387759,1616.581275L393.285902,1620.936977L393.546049,1623.900503L392.841333,1625.719968L391.993507,1627.112133L387.393000,1632.542949L385.978808,1636.044025L386.080401,1640.344553L387.899115,1645.472093L386.666615,1649.538279L387.247345,1651.550694L393.123271,1654.541745L395.817324,1655.299845L396.838518,1656.443886L397.081512,1657.739547L394.090293,1664.975933L394.724883,1668.476957L394.795703,1673.314977L394.257927,1677.091658L392.673644,1682.177761L389.582633,1688.545710L336.345841,1815.377032L440.414902,1814.398466L450.218909,1814.301988L487.637455,1813.957422L491.437441,1813.943640L492.020980,1812.661855L504.865010,1815.556206L547.830293,1815.638902L663.021776,1565.456259L548.250785,1565.538964L416.400614,1565.580316Z " data-cartodb-id="24" data-created-at="2013-02-20T04:06:07.501Z" data-name="East Harriet" data-updated-at="2013-02-20T04:06:07.744Z"/><path d="M846.624644,1164.959910L815.794251,1194.036075L782.420236,1221.085234L769.445180,1234.651043L757.739302,1245.528442L717.841223,1282.751060L678.361371,1319.573235L640.596219,1365.975710L616.397995,1418.621857L731.067747,1418.621857L788.022069,1295.241169L822.083378,1221.030088L828.718615,1206.581855L831.963891,1200.295188L846.624644,1164.959910Z " data-cartodb-id="25" data-created-at="2013-02-20T04:06:07.501Z" data-name="Lowry Hill East" data-updated-at="2013-02-20T04:06:07.744Z"/><path d="M1086.123599,1270.302235L1097.419822,1245.487084L1056.290372,1245.721450L1021.672309,1245.942031L1013.753530,1263.064512L991.232065,1304.822384L986.457452,1312.294323L946.913788,1348.178565L922.412652,1368.498454L891.913550,1397.172052L881.539344,1418.773494L1017.130452,1418.704568L1188.964045,1418.511576L1291.638144,1418.456435L1275.971119,1270.095443L1270.363884,1256.722869L1266.074320,1245.252717L1240.518770,1245.418152L1229.186637,1270.191946L1158.348577,1270.219518L1119.064870,1270.205732L1086.123599,1270.302235Z " data-cartodb-id="26" data-created-at="2013-02-20T04:06:07.501Z" data-name="Phillips" data-updated-at="2013-02-20T04:06:07.744Z"/><path d="M831.963891,1200.295188L828.718615,1206.581855L822.083378,1221.030088L1033.182340,1221.030088L1041.347919,1203.093860L1052.455836,1177.409356L1047.125707,1175.644655L1044.654996,1174.817451L1026.449847,1167.565614L1003.252733,1166.062854L975.152951,1168.530689L961.632150,1172.446130L899.991878,1190.244753L887.874330,1192.560907L880.035593,1194.353167L858.683608,1197.151847L831.963891,1200.295188Z " data-cartodb-id="27" data-created-at="2013-02-20T04:06:07.501Z" data-name="Stevens Square" data-updated-at="2013-02-20T04:06:07.744Z"/><path d="M272.831131,1417.477689L261.804324,1442.649242L257.466653,1451.554332L243.695322,1478.600212L204.355467,1563.733232L275.869642,1564.835969L416.400614,1565.580316L482.040844,1418.897560L394.039045,1418.098021L365.766015,1417.849888L272.831131,1417.477689Z " data-cartodb-id="28" data-created-at="2013-02-20T04:06:07.501Z" data-name="West Calhoun" data-updated-at="2013-02-20T04:06:07.744Z"/><path d="M204.355467,1563.733232L158.215238,1664.121352L123.295901,1739.654029L101.069283,1788.431854L78.535468,1838.256052L82.865891,1838.214705L105.105779,1838.076880L111.215967,1838.132010L119.174761,1838.256052L164.870828,1838.449007L206.212868,1838.586831L211.814084,1838.573049L221.950746,1838.586831L236.615482,1838.545484L250.570562,1837.194802L307.881356,1836.850240L310.195401,1836.836457L312.216754,1836.822675L326.773885,1836.795110L336.345841,1815.377032L389.582633,1688.545710L392.673644,1682.177761L394.257927,1677.091658L394.795703,1673.314977L394.724883,1668.476957L394.090293,1664.975933L397.081512,1657.739547L396.838518,1656.443886L395.817324,1655.299845L393.123271,1654.541745L387.247345,1651.550694L386.666615,1649.538279L387.899115,1645.472093L386.080401,1640.344553L385.978808,1636.044025L387.393000,1632.542949L391.993507,1627.112133L392.841333,1625.719968L393.546049,1623.900503L393.285902,1620.936977L392.387759,1616.581275L416.400614,1565.580316L275.869642,1564.835969L204.355467,1563.733232Z " data-cartodb-id="29" data-created-at="2013-02-20T04:06:07.501Z" data-name="Linden Hills" data-updated-at="2013-02-20T04:06:07.744Z"/><path d="M336.345841,1815.377032L326.773885,1836.795110L312.216754,1836.822675L310.195401,1836.836457L307.881356,1836.850240L291.997326,1872.353616L284.339268,1889.815663L273.215095,1914.816329L228.592589,2014.554299L285.586822,2014.692112L457.368734,2015.229585L547.830293,1815.638902L504.865010,1815.556206L492.020980,1812.661855L491.437441,1813.943640L487.637455,1813.957422L450.218909,1814.301988L440.414902,1814.398466L336.345841,1815.377032Z " data-cartodb-id="30" data-created-at="2013-02-20T04:06:07.501Z" data-name="Lynnhurst" data-updated-at="2013-02-20T04:06:07.744Z"/><path d="M1023.988447,0.000000L978.869159,100.586721L1206.183797,101.138472L1251.900268,1.613950L1166.503305,0.648339L1110.307374,0.151739L1023.988447,0.000000Z " data-cartodb-id="31" data-created-at="2013-02-20T04:06:07.501Z" data-name="Shingle Creek" data-updated-at="2013-02-20T04:06:07.744Z"/><path d="M978.869159,100.586721L969.708027,122.615286L985.478336,126.270599L1018.623654,141.884918L1047.711865,148.974774L1093.598914,163.982016L1097.025769,165.126866L1154.263456,179.444329L1168.918838,186.437505L1169.423893,185.403013L1206.183797,101.138472L978.869159,100.586721Z " data-cartodb-id="32" data-created-at="2013-02-20T04:06:07.501Z" data-name="Humboldt Industrial" data-updated-at="2013-02-20T04:06:07.744Z"/><path d="M1093.598914,163.982016L1070.007554,217.858232L1076.612024,217.954783L1051.356371,275.139843L1022.651171,274.932953L978.984481,374.651347L1149.762216,376.333968L1253.039711,376.927023L1267.346136,377.009774L1266.086886,336.254124L1264.878403,311.096939L1263.084576,305.304123L1261.270867,303.704200L1257.756662,302.849068L1259.774791,302.049105L1261.283761,300.366424L1261.566492,298.683742L1260.463324,295.276996L1252.996550,272.450276L1261.509914,253.761145L1261.176724,252.492208L1254.590763,243.637220L1247.662649,234.175306L1232.492545,216.506516L1188.463793,193.044448L1172.987469,188.396142L1168.918838,186.437505L1154.263456,179.444329L1097.025769,165.126866L1093.598914,163.982016Z " data-cartodb-id="33" data-created-at="2013-02-20T04:06:07.501Z" data-name="Webber-Camden" data-updated-at="2013-02-20T04:06:07.744Z"/><path d="M864.387143,374.458260L802.180942,514.069780L797.064863,524.261342L817.246109,523.971731L911.926394,524.261342L978.984481,374.651347L864.387143,374.458260Z " data-cartodb-id="34" data-created-at="2013-02-20T04:06:07.501Z" data-name="Cleveland" data-updated-at="2013-02-20T04:06:07.744Z"/><path d="M797.064863,524.261342L803.907085,534.604554L810.200428,550.326138L808.315459,555.525267L814.439933,581.051836L820.814490,598.745107L825.571691,619.692751L853.239394,653.602937L869.310886,674.563815L869.640891,676.259982L867.315437,682.451669L866.077215,688.850185L866.087144,693.373263L866.567108,695.110784L868.124716,700.805981L872.644902,705.011867L877.937948,708.139459L887.607917,712.303982L891.206350,713.296847L900.855163,714.593087L905.957806,714.358661L910.723704,713.751911L918.784159,711.890288L923.990907,712.069556L929.694193,713.876019L941.306147,718.495593L982.465804,718.495593L1024.940190,624.822754L1022.718675,624.808964L1068.011138,525.571485L911.926394,524.261342L817.246109,523.971731L797.064863,524.261342Z " data-cartodb-id="35" data-created-at="2013-02-20T04:06:07.501Z" data-name="Jordan" data-updated-at="2013-02-20T04:06:07.744Z"/><path d="M797.064863,524.261342L741.546827,645.521911L717.654458,698.185916L706.586278,722.480829L660.470494,823.088252L648.984265,848.004932L637.708422,872.879946L613.094333,927.330920L639.907275,928.103068L672.084033,925.400547L699.521913,923.911402L729.354812,923.290924L775.384051,823.846650L846.262056,823.874228L869.363948,772.785153L883.258357,772.592101L897.230218,742.337945L911.397619,742.434472L919.856377,724.135596L921.511664,721.267332L923.270799,718.936865L926.138408,716.247861L929.694193,713.876019L923.990907,712.069556L918.784159,711.890288L910.723704,713.751911L905.957806,714.358661L900.855163,714.593087L891.206350,713.296847L887.607917,712.303982L877.937948,708.139459L872.644902,705.011867L868.124716,700.805981L866.567108,695.110784L866.087144,693.373263L866.077215,688.850185L867.315437,682.451669L869.640891,676.259982L869.310886,674.563815L853.239394,653.602937L825.571691,619.692751L820.814490,598.745107L814.439933,581.051836L808.315459,555.525267L810.200428,550.326138L803.907085,534.604554L797.064863,524.261342Z " data-cartodb-id="36" data-created-at="2013-02-20T04:06:07.501Z" data-name="Willard-Hay" data-updated-at="2013-02-20T04:06:07.744Z"/><path d="M675.631599,1008.970241L652.069666,995.030701L648.200584,982.649113L653.586519,972.183994L592.068966,972.225358L580.737051,997.002372L569.420819,1021.572277L554.843434,1021.779093L458.007343,1021.903183L441.941528,1057.489042L414.568658,1117.574138L409.114832,1122.702938L397.935980,1146.154628L381.356357,1182.524223L357.425031,1234.044444L356.281355,1235.023274L355.573491,1236.305404L348.682480,1255.978414L347.780271,1267.545010L357.446452,1267.696658L362.130745,1267.765588L434.832034,1267.724230L476.064444,1176.265058L541.094335,1170.254036L676.846221,1130.782150L692.148762,1125.846389L716.162314,1125.777454L737.520870,1121.999797L794.214344,1074.833654L794.949170,1074.406245L875.404630,1033.526217L923.203996,1013.768399L714.398916,1028.934919L714.251033,1015.547024L675.631599,1008.970241Z " data-cartodb-id="37" data-created-at="2013-02-20T04:06:07.501Z" data-name="Bryn-Mawr" data-updated-at="2013-02-20T04:06:07.744Z"/><path d="M342.011304,1280.283358L335.318689,1294.703517L329.057260,1307.386558L306.355673,1344.621875L296.461851,1367.478329L272.831131,1417.477689L365.766015,1417.849888L394.039045,1418.098021L482.040844,1418.897560L542.465343,1418.539146L543.011435,1413.879759L551.695036,1394.663128L552.744725,1392.333410L554.981908,1388.928432L556.619610,1384.393049L556.846072,1380.188506L583.488622,1331.249770L470.087520,1329.264626L446.036505,1322.936966L484.555155,1293.669570L496.966497,1268.964981L434.832034,1267.724230L362.130745,1267.765588L357.446452,1267.696658L347.780271,1267.545010L342.011304,1280.283358Z " data-cartodb-id="38" data-created-at="2013-02-20T04:06:07.501Z" data-name="Cedar-Isles" data-updated-at="2013-02-20T04:06:07.744Z"/><path d="M1388.815153,219.347877L1332.731512,218.740985L1305.429720,258.574819L1306.807628,299.635423L1331.243458,299.731971L1334.778127,312.200331L1335.534617,320.172318L1336.993419,322.848031L1339.942491,325.413401L1344.891240,326.502993L1515.473827,326.185770L1492.655340,374.885811L1483.614980,395.380588L1474.406171,414.096032L1473.961846,414.923535L1468.382140,425.570709L1454.529010,446.258067L1441.932559,474.957987L1486.398469,474.778700L1619.198347,475.578596L1664.440257,375.740913L1675.535258,352.459935L1727.521017,238.878683L1741.081530,217.003065L1740.750671,216.272034L1645.477504,216.768583L1567.265973,216.754790L1508.023737,216.685825L1499.309602,216.478930L1461.468626,218.672020L1388.815153,219.347877Z " data-cartodb-id="39" data-created-at="2013-02-20T04:06:07.501Z" data-name="Columbia" data-updated-at="2013-02-20T04:06:07.744Z"/><path d="M1396.118209,125.125728L1338.025220,125.774028L1319.463121,150.519642L1304.481029,175.209791L1278.375961,217.872025L1275.924585,222.092684L1261.509914,253.761145L1252.996550,272.450276L1260.463324,295.276996L1261.566492,298.683742L1261.283761,300.366424L1259.774791,302.049105L1257.756662,302.849068L1261.270867,303.704200L1263.084576,305.304123L1264.878403,311.096939L1266.086886,336.254124L1267.346136,377.009774L1286.533653,378.306219L1318.110551,375.644370L1306.908170,302.600803L1306.807628,299.635423L1305.429720,258.574819L1332.731512,218.740985L1378.772722,147.374731L1396.118209,125.125728Z " data-cartodb-id="40" data-created-at="2013-02-20T04:06:07.501Z" data-name="Camden Industrial" data-updated-at="2013-02-20T04:06:07.744Z"/><path d="M1289.204212,525.847305L1253.512013,625.939769L1278.088157,623.388561L1309.486096,623.374771L1303.091115,637.344321L1316.799179,637.385691L1318.420592,633.800229L1370.063608,633.951921L1419.350723,525.364621L1322.075779,525.337039L1289.204212,525.847305Z " data-cartodb-id="41" data-created-at="2013-02-20T04:06:07.501Z" data-name="Bottineau" data-updated-at="2013-02-20T04:06:07.744Z"/><path d="M1445.860080,618.617104L1436.068917,625.319205L1391.011031,724.604446L1504.985246,724.425180L1527.728612,675.405003L1550.818489,625.057189L1563.631966,597.752192L1505.910098,597.683239L1503.276732,603.516610L1474.461912,603.516610L1452.385917,603.888952L1445.860080,618.617104Z " data-cartodb-id="42" data-created-at="2013-02-20T04:06:07.501Z" data-name="Logan Park" data-updated-at="2013-02-20T04:06:07.744Z"/><path d="M1596.555474,525.337039L1557.107210,611.639173L1550.818489,625.057189L1594.010873,624.864125L1665.862597,624.395254L1780.904301,624.974448L1792.134585,615.652175L1813.158869,599.544955L1911.895407,523.861403L1827.340050,524.661281L1798.349627,524.826772L1596.555474,525.337039Z " data-cartodb-id="43" data-created-at="2013-02-20T04:06:07.501Z" data-name="Windom Park" data-updated-at="2013-02-20T04:06:07.744Z"/><path d="M1999.550087,621.251060L1949.868746,642.625972L1890.131258,668.344524L1845.860045,688.064162L1820.654522,693.704219L1793.238609,695.869225L1763.499831,690.504971L1724.283062,674.618975L1687.505039,669.889006L1642.392684,688.560598L1618.380730,712.193664L1608.938200,724.632025L1600.119854,736.242934L1584.668902,769.420538L1579.852795,799.357145L1591.417837,799.288199L1656.809148,799.205464L1677.925436,800.253444L1686.866089,812.181077L1689.400221,822.164385L1691.695243,824.563681L1794.437444,823.336455L1879.879942,821.847236L1908.955886,822.095439L1999.550087,621.251060Z " data-cartodb-id="44" data-created-at="2013-02-20T04:06:07.501Z" data-name="Mid-City Industrial" data-updated-at="2013-02-20T04:06:07.744Z"/><path d="M1490.300802,758.016658L1441.190848,802.914760L1393.619306,846.681198L1377.213660,861.683469L1362.246361,875.058564L1318.104042,915.417737L1307.690703,923.856248L1293.881005,931.177870L1271.864358,938.334007L1291.851654,957.017062L1338.382641,984.482916L1400.719441,998.712072L1407.737619,998.794800L1435.847425,1005.867977L1470.478015,966.696335L1519.424844,997.043736L1603.754029,919.954130L1550.360653,870.825425L1542.186612,862.924461L1518.589708,829.996559L1517.404206,823.998330L1473.738340,824.012119L1463.016687,827.666214L1460.124211,825.294500L1490.300802,758.016658Z " data-cartodb-id="45" data-created-at="2013-02-20T04:06:07.501Z" data-name="Marcy-Holmes" data-updated-at="2013-02-20T04:06:07.744Z"/><path d="M1695.189598,992.149024L1632.989691,947.572144L1598.526141,1023.943767L1589.822793,1041.881525L1575.545251,1071.400590L1554.537014,1117.367331L1546.596798,1135.483521L1534.057471,1163.236559L1546.818702,1175.134546L1567.254968,1204.693099L1637.106531,1308.075851L1668.720956,1355.898491L1678.224603,1333.276270L1683.201600,1305.167031L1698.912434,1279.662986L1706.502042,1263.450525L1708.160902,1261.189594L1708.676712,1258.101489L1710.999344,1252.476714L1725.923461,1219.499794L1737.214848,1194.656473L1758.927597,1147.822846L1768.871801,1126.287575L1785.551506,1094.425449L1815.692660,1028.797042L1695.189598,992.149024Z " data-cartodb-id="46" data-created-at="2013-02-20T04:06:07.501Z" data-name="Prospect Park" data-updated-at="2013-02-20T04:06:07.744Z"/><path d="M923.203996,1013.768399L875.404630,1033.526217L794.949170,1074.406245L794.214344,1074.833654L737.520870,1121.999797L716.162314,1125.777454L692.148762,1125.846389L676.846221,1130.782150L669.137042,1148.153731L659.483039,1169.647418L673.819534,1169.674991L653.997987,1213.544041L651.592745,1212.523841L648.688051,1212.427335L645.968891,1216.025606L642.885507,1226.379219L642.812325,1245.914458L661.378627,1245.873099L679.580734,1245.321648L757.739302,1245.528442L769.445180,1234.651043L782.420236,1221.085234L815.752909,1194.077435L846.624644,1164.959910L872.159480,1124.453896L902.062836,1058.192204L923.203996,1013.768399Z " data-cartodb-id="47" data-created-at="2013-02-20T04:06:07.501Z" data-name="Lowry Hill" data-updated-at="2013-02-20T04:06:07.744Z"/><path d="M1237.366475,908.344252L1215.669235,917.789348L1204.331677,923.511539L1193.027504,930.074803L1157.203484,952.825454L1148.806684,942.029267L1133.423302,920.133380L1078.817797,954.300791L1071.394803,959.333473L1057.505598,965.345100L1055.785276,965.910413L1039.962148,971.053372L1027.532679,977.368302L995.593743,997.291919L989.213019,1010.983262L985.894508,1018.814726L984.675564,1025.915412L983.080002,1039.082638L982.068154,1041.205932L982.216675,1047.948065L988.939876,1080.017708L998.834930,1083.767866L1036.148457,1108.419475L1058.118782,1122.799447L1067.187073,1122.730512L1069.917433,1123.061402L1083.692911,1122.689151L1101.250472,1105.110551L1177.630483,1038.613859L1189.386011,1046.583095L1291.851654,957.017062L1271.864358,938.334007L1237.366475,908.344252Z " data-cartodb-id="48" data-created-at="2013-02-20T04:06:07.501Z" data-name="Downtown West" data-updated-at="2013-02-20T04:06:07.744Z"/><path d="M1407.737619,998.794800L1381.199568,1025.377691L1327.213307,1069.663375L1296.675364,1095.983409L1295.772483,1096.755495L1264.346862,1129.499957L1250.689750,1175.920389L1259.749787,1175.672228L1260.467462,1175.727375L1296.129653,1178.650160L1319.162924,1194.904631L1349.069193,1199.619646L1471.941436,1200.267614L1498.223287,1195.883480L1546.818702,1175.134546L1534.057471,1163.236559L1506.710335,1141.646299L1450.782347,1127.294030L1433.349905,1112.086860L1386.694825,1120.510791L1380.198928,1120.441856L1344.470954,1120.014456L1351.778734,1104.255745L1357.303641,1090.633947L1357.985917,1088.689939L1363.215251,1073.937473L1369.210021,1062.052702L1373.109559,1052.125694L1378.851726,1043.935878L1397.958289,1043.618763L1403.369096,1044.142692L1410.416550,1053.532023L1448.728965,1053.421723L1440.219042,1012.210378L1435.847425,1005.867977L1407.737619,998.794800Z " data-cartodb-id="49" data-created-at="2013-02-20T04:06:07.501Z" data-name="Cedar-Riverside" data-updated-at="2013-02-20T04:06:07.744Z"/><path d="M1913.655772,522.440931L1911.895407,523.861403L1813.158869,599.544955L1792.134585,615.652175L1780.904301,624.974448L1665.862597,624.395254L1594.010873,624.864125L1550.818489,625.057189L1527.728612,675.405003L1504.985246,724.425180L1608.938200,724.632025L1618.380730,712.193664L1642.392684,688.560598L1687.505039,669.889006L1724.283062,674.618975L1763.499831,690.504971L1793.238609,695.869225L1820.654522,693.704219L1845.860045,688.064162L1890.131258,668.344524L1949.868746,642.625972L1999.550087,621.251060L1889.420139,621.499286L1934.003147,522.799497L1918.919227,522.840870L1913.655772,522.440931Z " data-cartodb-id="50" data-created-at="2013-02-20T04:06:07.501Z" data-name="Northeast Park" data-updated-at="2013-02-20T04:06:07.744Z"/><path d="M1802.359309,388.760494L1807.032108,393.546272L1811.846840,399.849140L1815.011471,409.875763L1815.190760,410.841184L1817.790154,424.729419L1820.224941,430.452944L1824.423441,435.638582L1833.999081,441.789615L1841.845170,443.954885L1848.971105,444.934082L1863.027431,445.913279L1967.475019,214.809973L1852.477618,215.982381L1765.772950,216.437551L1741.183880,216.506516L1727.521017,238.878683L1675.535258,352.459935L1696.904563,352.349598L1702.177465,353.370215L1705.931534,357.356134L1706.733651,359.893878L1707.867247,363.507399L1708.281606,369.120757L1710.392698,373.354901L1714.361157,376.499472L1717.675020,377.078734L1736.023454,376.858063L1779.250722,376.899439L1788.847828,379.616454L1797.667224,384.857387L1802.359309,388.760494Z " data-cartodb-id="51" data-created-at="2013-02-20T04:06:07.501Z" data-name="Waite Park" data-updated-at="2013-02-20T04:06:07.744Z"/><path d="M918.648454,858.415520L886.287191,929.495692L881.287422,935.507405L874.307573,940.678016L871.091160,942.180938L867.266025,943.587341L853.333621,945.986496L850.649960,946.813791L846.990238,948.647626L844.014888,950.881317L841.367230,953.680322L839.593145,956.686146L831.976192,973.287039L875.438094,979.781207L911.821237,986.647629L927.700025,989.612042L933.692650,990.439319L972.197552,892.073767L987.510142,858.153533L962.990643,858.153533L960.449682,854.072036L953.046466,858.443098L918.648454,858.415520Z " data-cartodb-id="52" data-created-at="2013-02-20T04:06:07.501Z" data-name="Sumner-Glenwood" data-updated-at="2013-02-20T04:06:07.744Z"/><path d="M1149.762216,376.333968L1082.002149,525.681813L1199.024431,526.026587L1289.204212,525.847305L1318.110551,375.644370L1286.533653,378.306219L1267.346136,377.009774L1253.039711,376.927023L1149.762216,376.333968Z " data-cartodb-id="53" data-created-at="2013-02-20T04:06:07.501Z" data-name="McKinley" data-updated-at="2013-02-20T04:06:07.744Z"/><path d="M1082.002149,525.681813L1068.011138,525.571485L1022.718675,624.808964L1024.940190,624.822754L982.465804,718.495593L1168.745887,719.005813L1194.121496,720.853640L1253.512013,625.939769L1289.204212,525.847305L1199.024431,526.026587L1190.671208,526.012796L1082.002149,525.681813Z " data-cartodb-id="54" data-created-at="2013-02-20T04:06:07.501Z" data-name="Hawthorne" data-updated-at="2013-02-20T04:06:07.744Z"/><path d="M1194.121496,720.853640L1175.913386,778.259535L1179.829222,803.094020L1220.482116,843.454592L1240.811109,837.359879L1257.398640,834.119470L1274.078999,839.745368L1282.685679,858.112166L1326.555921,844.971373L1371.867738,828.341877L1366.290984,775.267242L1380.111284,748.915573L1391.011031,724.604446L1360.668832,724.273493L1241.532312,724.521708L1194.121496,720.853640Z " data-cartodb-id="55" data-created-at="2013-02-20T04:06:07.501Z" data-name="St. Anthony West" data-updated-at="2013-02-20T04:06:07.744Z"/><path d="M978.984481,374.651347L911.926394,524.261342L1068.011138,525.571485L1082.002149,525.681813L1149.762216,376.333968L978.984481,374.651347Z " data-cartodb-id="56" data-created-at="2013-02-20T04:06:07.501Z" data-name="Folwell" data-updated-at="2013-02-20T04:06:07.744Z"/><path d="M1261.509914,253.761145L1275.924585,222.092684L1278.375961,217.872025L1304.481029,175.209791L1319.463121,150.519642L1338.025220,125.774028L1396.118209,125.125728L1413.466505,101.759192L1450.358391,1.462211L1427.863179,1.779483L1418.896525,1.931222L1251.900268,1.613950L1206.183797,101.138472L1169.423893,185.403013L1168.918838,186.437505L1172.987469,188.396142L1188.463793,193.044448L1232.492545,216.506516L1247.662649,234.175306L1254.590763,243.637220L1261.176724,252.492208L1261.509914,253.761145Z " data-cartodb-id="57" data-created-at="2013-02-20T04:06:07.501Z" data-name="Lind-Bohanon" data-updated-at="2013-02-20T04:06:07.744Z"/><path d="M969.708027,122.615286L968.436644,125.553330L930.597321,112.835570L913.524195,152.298998L956.584798,152.795562L946.810772,175.182204L942.002407,186.203020L941.553951,188.989250L942.640807,193.072035L941.865169,196.230671L897.041591,299.856103L864.387143,374.458260L978.984481,374.651347L1022.651171,274.932953L1051.356371,275.139843L1076.612024,217.954783L1070.007554,217.858232L1093.598914,163.982016L1047.711865,148.974774L1018.623654,141.884918L985.478336,126.270599L969.708027,122.615286Z " data-cartodb-id="58" data-created-at="2013-02-20T04:06:07.501Z" data-name="Victory" data-updated-at="2013-02-20T04:06:07.744Z"/><path d="M700.855245,1814.343336L635.674691,1954.384056L690.512074,1936.302341L712.973217,1914.926585L736.319975,1912.556082L753.777581,1915.036841L766.359237,1934.193717L783.992581,1932.429638L803.894413,1888.079112L826.779797,1838.435224L838.149218,1813.502596L795.351535,1813.447465L781.063613,1813.378552L777.280990,1813.502596L766.729203,1813.461248L700.855245,1814.343336Z " data-cartodb-id="59" data-created-at="2013-02-20T04:06:07.501Z" data-name="Field" data-updated-at="2013-02-20T04:06:07.744Z"/><path d="M663.021776,1565.456259L547.830293,1815.638902L700.855245,1814.343336L746.317570,1714.637567L792.723244,1614.940993L815.309885,1565.001380L663.021776,1565.456259Z " data-cartodb-id="60" data-created-at="2013-02-20T04:06:07.501Z" data-name="King Field" data-updated-at="2013-02-20T04:06:07.744Z"/><path d="M616.397995,1418.621857L548.250785,1565.538964L663.021776,1565.456259L731.067747,1418.621857L616.397995,1418.621857Z " data-cartodb-id="61" data-created-at="2013-02-20T04:06:07.501Z" data-name="CARAG" data-updated-at="2013-02-20T04:06:07.744Z"/><path d="M881.539344,1418.773494L815.309885,1565.001380L792.723244,1614.940993L930.074845,1614.541260L1017.130452,1418.704568L881.539344,1418.773494Z " data-cartodb-id="62" data-created-at="2013-02-20T04:06:07.501Z" data-name="Central" data-updated-at="2013-02-20T04:06:07.744Z"/><path d="M1558.384328,1351.032184L1570.908741,1342.057746L1558.418093,1351.032184L1558.418093,1351.032184L1558.418093,1351.032184L1558.418093,1351.032184L1558.418093,1351.032184L1558.418093,1351.032184L1558.418093,1351.032184L1558.418093,1351.032184L1558.406838,1351.032184L1558.384328,1351.032184Z M1558.418093,1351.032184L1558.418093,1351.032184L1558.418093,1351.032184L1558.418093,1351.032184L1558.418093,1351.032184Z M1558.254250,1351.045969L1558.384328,1351.032184L1558.384328,1351.032184L1558.254250,1351.045969Z M1558.418093,1351.032184L1558.406838,1351.032184L1558.406838,1351.032184L1558.395583,1351.032184L1558.406838,1351.032184L1558.418093,1351.032184Z M1558.254250,1351.045969L1558.384328,1351.032184L1558.378056,1351.045969L1558.395583,1351.032184L1558.406838,1351.032184L1558.406838,1351.032184L1558.418093,1351.032184L1558.418093,1351.032184L1558.418093,1351.032184L1558.418093,1351.032184L1558.418093,1351.032184L1558.418093,1351.032184L1558.418093,1351.032184L1558.418093,1351.032184L1558.418093,1351.032184L1558.418093,1351.032184L1544.401776,1368.925804L1478.332620,1514.095689L1359.578129,1515.294943L1301.894325,1515.363866L1293.655937,1438.706730L1291.638144,1418.456435L1275.971119,1270.095443L1285.497572,1279.580270L1311.201762,1327.486266L1338.173794,1341.423606L1363.480544,1346.110722L1450.993909,1347.434142L1543.070846,1351.294110L1558.254250,1351.045969Z M1558.378056,1351.045969L1558.395583,1351.032184L1558.395583,1351.032184L1558.378056,1351.045969Z M1558.406838,1351.032184L1558.395583,1351.032184L1558.395583,1351.032184L1558.406838,1351.032184L1558.406838,1351.032184Z M1558.406838,1351.032184L1558.406838,1351.032184L1558.406838,1351.032184L1558.406838,1351.032184Z M1558.384328,1351.032184L1558.395583,1351.032184L1558.395583,1351.032184L1558.384328,1351.032184L1558.384328,1351.032184Z M1558.406838,1351.032184L1558.406838,1351.032184L1558.418093,1351.032184L1558.418093,1351.032184L1558.406838,1351.032184Z M1558.418093,1351.032184L1558.418093,1351.032184L1558.418093,1351.032184L1558.418093,1351.032184L1558.418093,1351.032184Z " data-cartodb-id="63" data-created-at="2013-02-20T04:06:07.501Z" data-name="Longfellow" data-updated-at="2013-02-20T04:06:07.744Z"/><path d="M1188.964045,1418.511576L1122.838593,1565.097869L1307.113811,1564.698127L1301.894325,1515.363866L1293.655937,1438.706730L1291.638144,1418.456435L1188.964045,1418.511576Z " data-cartodb-id="64" data-created-at="2013-02-20T04:06:07.501Z" data-name="Corcoran" data-updated-at="2013-02-20T04:06:07.744Z"/><path d="M1637.106531,1308.075851L1589.395322,1333.386555L1572.130656,1341.078964L1570.908741,1342.057746L1558.418093,1351.032184L1544.401776,1368.925804L1478.338891,1514.081904L1680.084564,1512.234776L1708.398249,1418.539146L1668.720956,1355.898491L1637.106531,1308.075851Z " data-cartodb-id="65" data-created-at="2013-02-20T04:06:07.501Z" data-name="Cooper" data-updated-at="2013-02-20T04:06:07.744Z"/><path d="M822.083378,1221.030088L788.022069,1295.241169L731.067747,1418.621857L881.539344,1418.773494L891.913550,1397.172052L922.412652,1368.498454L946.913788,1348.178565L986.457452,1312.294323L991.232065,1304.822384L1013.753530,1263.064512L1033.182340,1221.030088L822.083378,1221.030088Z " data-cartodb-id="66" data-created-at="2013-02-20T04:06:07.501Z" data-name="Whittier" data-updated-at="2013-02-20T04:06:07.744Z"/><path d="M642.812325,1245.914458L583.488622,1331.249770L556.846072,1380.188506L556.619610,1384.393049L554.981908,1388.928432L552.744725,1392.333410L551.695036,1394.663128L543.011435,1413.879759L542.465343,1418.539146L616.397995,1418.621857L640.596219,1365.975710L678.361371,1319.573235L717.841223,1282.751060L757.739302,1245.528442L679.580734,1245.321648L661.378627,1245.873099L642.812325,1245.914458Z " data-cartodb-id="67" data-created-at="2013-02-20T04:06:07.501Z" data-name="East Isles" data-updated-at="2013-02-20T04:06:07.744Z"/><path d="M476.064444,1176.265058L434.832034,1267.724230L496.966497,1268.964981L484.555155,1293.669570L446.036505,1322.936966L470.087520,1329.264626L583.488622,1331.249770L642.812325,1245.914458L642.885507,1226.379219L645.968891,1216.025606L648.688051,1212.427335L651.592745,1212.523841L653.997987,1213.544041L673.819534,1169.674991L659.483039,1169.647418L669.137042,1148.153731L676.846221,1130.782150L541.094335,1170.254036L476.064444,1176.265058Z " data-cartodb-id="68" data-created-at="2013-02-20T04:06:07.501Z" data-name="Kenwood" data-updated-at="2013-02-20T04:06:07.744Z"/><path d="M735.725554,923.139252L729.354812,923.290924L699.521913,923.911402L672.084033,925.400547L639.907275,928.103068L613.094333,927.330920L592.068966,972.225358L653.586519,972.183994L648.200584,982.649113L652.069666,995.030701L675.631599,1008.970241L714.251033,1015.547024L714.398916,1028.934919L923.203996,1013.768399L933.692650,990.439319L927.700025,989.612042L911.821237,986.647629L875.438094,979.781207L831.976192,973.287039L839.593145,956.686146L841.367230,953.680322L844.014888,950.881317L846.990238,948.647626L850.649960,946.813791L853.333621,945.986496L867.266025,943.587341L871.091160,942.180938L874.307573,940.678016L881.287422,935.507405L883.524719,932.818682L886.287191,929.495692L888.993719,923.552904L735.725554,923.139252Z " data-cartodb-id="69" data-created-at="2013-02-20T04:06:07.501Z" data-name="Harrison" data-updated-at="2013-02-20T04:06:07.744Z"/><path d="M1220.482116,843.454592L1226.952016,877.857671L1237.366475,908.344252L1271.864358,938.334007L1293.881005,931.177870L1307.690703,923.856248L1318.104042,915.417737L1362.246361,875.058564L1377.213660,861.683469L1393.619306,846.681198L1441.190848,802.914760L1371.867738,828.341877L1326.555921,844.971373L1282.685679,858.112166L1274.078999,839.745368L1257.398640,834.119470L1240.811109,837.359879L1220.482116,843.454592Z " data-cartodb-id="70" data-created-at="2013-02-20T04:06:07.501Z" data-name="Nicollet Island" data-updated-at="2013-02-20T04:06:07.744Z"/><path d="M929.694193,713.876019L926.138408,716.247861L923.270799,718.936865L921.511664,721.267332L919.856377,724.135596L911.397619,742.434472L897.230218,742.337945L883.258357,772.592101L869.363948,772.785153L846.262056,823.874228L775.384051,823.846650L729.354812,923.290924L735.703048,923.139252L735.725554,923.139252L888.993719,923.552904L918.648454,858.415520L953.046466,858.443098L960.449682,854.072036L962.990643,858.153533L987.510142,858.153533L1001.741630,838.862875L1031.195284,817.724301L1127.196830,816.745275L1149.039495,812.787799L1179.829222,803.094020L1175.913386,778.259535L1194.121496,720.853640L1168.745887,719.005813L982.465804,718.495593L941.306147,718.495593L929.694193,713.876019Z " data-cartodb-id="71" data-created-at="2013-02-20T04:06:07.501Z" data-name="Near North" data-updated-at="2013-02-20T04:06:07.744Z"/><path d="M1031.195284,817.724301L1001.741630,838.862875L987.510142,858.153533L972.197552,892.073767L933.692650,990.439319L923.203996,1013.768399L905.279315,1051.450105L936.904136,1048.306542L970.139997,1040.240799L983.080002,1039.082638L984.675564,1025.915412L985.894508,1018.814726L989.213019,1010.983262L995.593743,997.291919L1027.532679,977.368302L1039.962148,971.053372L1055.785276,965.910413L1057.505598,965.345100L1071.394803,959.333473L1078.817797,954.300791L1133.423302,920.133380L1148.806684,942.029267L1157.203484,952.825454L1193.027504,930.074803L1204.331677,923.511539L1215.669235,917.789348L1237.366475,908.344252L1226.952016,877.857671L1220.482116,843.454592L1179.829222,803.094020L1149.039495,812.787799L1127.196830,816.745275L1031.195284,817.724301Z " data-cartodb-id="72" data-created-at="2013-02-20T04:06:07.501Z" data-name="North Loop" data-updated-at="2013-02-20T04:06:07.744Z"/><path d="M1177.630483,1038.613859L1101.250472,1105.110551L1083.692911,1122.689151L1076.334996,1122.882170L1060.065683,1147.271369L1047.125707,1175.644655L1062.002611,1180.566512L1144.654591,1179.229202L1226.399448,1178.153838L1250.689750,1175.920389L1264.346862,1129.499957L1256.481215,1115.133818L1197.915560,1075.605748L1213.409740,1062.038914L1201.168079,1054.469575L1189.386011,1046.583095L1177.630483,1038.613859Z " data-cartodb-id="73" data-created-at="2013-02-20T04:06:07.501Z" data-name="Elliot Park" data-updated-at="2013-02-20T04:06:07.744Z"/><path d="M1291.851654,957.017062L1189.386011,1046.583095L1201.168079,1054.469575L1213.409740,1062.038914L1197.915560,1075.605748L1256.481215,1115.133818L1264.346862,1129.499957L1295.772483,1096.755495L1296.675364,1095.983409L1327.213307,1069.663375L1381.199568,1025.377691L1407.737619,998.794800L1400.719441,998.712072L1338.382641,984.482916L1291.851654,957.017062Z " data-cartodb-id="74" data-created-at="2013-02-20T04:06:07.501Z" data-name="Downtown East" data-updated-at="2013-02-20T04:06:07.744Z"/><path d="M1470.478015,966.696335L1435.847425,1005.867977L1440.219042,1012.210378L1448.728965,1053.421723L1410.416550,1053.532023L1403.369096,1044.142692L1397.958289,1043.618763L1378.851726,1043.935878L1373.109559,1052.125694L1369.210021,1062.052702L1363.215251,1073.937473L1357.985917,1088.689939L1357.303641,1090.633947L1351.778734,1104.255745L1344.470954,1120.014456L1380.198928,1120.441856L1386.694825,1120.510791L1433.349905,1112.086860L1450.782347,1127.294030L1506.710335,1141.646299L1534.057471,1163.236559L1546.596798,1135.483521L1554.537014,1117.367331L1575.545251,1071.400590L1589.822793,1041.881525L1598.526141,1023.943767L1632.989691,947.572144L1603.754029,919.954130L1519.424844,997.043736L1470.478015,966.696335Z " data-cartodb-id="75" data-created-at="2013-02-20T04:06:07.501Z" data-name="University" data-updated-at="2013-02-20T04:06:07.744Z"/><path d="M1278.113780,1250.946442L1270.347650,1256.709083L1275.971119,1270.095443L1285.497572,1279.580270L1311.201762,1327.486266L1338.173794,1341.423606L1363.480544,1346.110722L1450.993909,1347.434142L1543.070846,1351.294110L1558.406838,1351.032184L1570.908741,1342.057746L1572.130656,1341.078964L1589.395322,1333.386555L1637.106531,1308.075851L1567.254968,1204.693099L1546.818702,1175.134546L1498.223287,1195.883480L1471.941436,1200.267614L1349.069193,1199.619646L1319.162924,1194.904631L1296.129653,1178.650160L1272.485283,1176.720020L1272.746638,1183.489291L1274.684776,1237.808114L1278.113780,1250.946442Z " data-cartodb-id="76" data-created-at="2013-02-20T04:06:07.501Z" data-name="Seward" data-updated-at="2013-02-20T04:06:07.744Z"/><path d="M905.279315,1051.450105L902.062836,1058.192204L872.159480,1124.453896L846.624644,1164.959910L831.963891,1200.295188L858.683608,1197.151847L880.035593,1194.353167L887.874330,1192.560907L899.991878,1190.244753L961.632150,1172.446130L975.152951,1168.530689L1003.252733,1166.062854L1026.449847,1167.565614L1044.654996,1174.817451L1047.125707,1175.644655L1060.065683,1147.271369L1076.334996,1122.882170L1069.917433,1123.061402L1067.187073,1122.730512L1058.118782,1122.799447L1036.148457,1108.419475L998.834930,1083.767866L988.939876,1080.017708L982.217977,1047.920490L982.068154,1041.205932L983.080002,1039.082638L970.139997,1040.240799L936.904136,1048.306542L905.279315,1051.450105Z " data-cartodb-id="77" data-created-at="2013-02-20T04:06:07.501Z" data-name="Loring Park" data-updated-at="2013-02-20T04:06:07.744Z"/><path d="M1579.852795,799.357145L1580.046716,823.998330L1517.404206,823.998330L1518.589708,829.996559L1542.186612,862.924461L1550.360653,870.825425L1603.754029,919.954130L1632.989691,947.572144L1695.189598,992.149024L1815.692660,1028.797042L1908.955886,822.095439L1879.879942,821.847236L1794.437444,823.336455L1691.695243,824.563681L1689.400221,822.164385L1686.866089,812.181077L1677.925436,800.253444L1656.809148,799.205464L1591.417837,799.288199L1579.852795,799.357145Z " data-cartodb-id="78" data-created-at="2013-02-20T04:06:07.501Z" data-name="Como" data-updated-at="2013-02-20T04:06:07.744Z"/><path d="M1504.985246,724.425180L1490.300802,758.016658L1460.124211,825.294500L1463.016687,827.666214L1473.738340,824.012119L1517.404206,823.998330L1580.046716,823.998330L1579.852795,799.357145L1584.668902,769.420538L1600.119854,736.242934L1608.938200,724.632025L1504.985246,724.425180Z " data-cartodb-id="79" data-created-at="2013-02-20T04:06:07.501Z" data-name="Beltrami" data-updated-at="2013-02-20T04:06:07.744Z"/><path d="M1391.011031,724.604446L1380.111284,748.915573L1366.290984,775.267242L1371.867738,828.341877L1441.190848,802.914760L1490.300802,758.016658L1504.985246,724.425180L1391.011031,724.604446Z " data-cartodb-id="80" data-created-at="2013-02-20T04:06:07.501Z" data-name="St. Anthony East" data-updated-at="2013-02-20T04:06:07.744Z"/><path d="M1253.512013,625.939769L1194.121496,720.853640L1241.532312,724.521708L1360.668832,724.273493L1391.011031,724.604446L1431.897161,634.531112L1401.591777,634.517322L1370.063608,633.951921L1318.420592,633.800229L1316.799179,637.385691L1303.091115,637.344321L1309.486096,623.374771L1278.088157,623.388561L1253.512013,625.939769Z " data-cartodb-id="81" data-created-at="2013-02-20T04:06:07.501Z" data-name="Sheridan" data-updated-at="2013-02-20T04:06:07.744Z"/><path d="M1441.932559,474.957987L1419.350723,525.364621L1370.063608,633.951921L1401.591777,634.517322L1431.897161,634.531112L1436.068917,625.319205L1445.860080,618.617104L1452.385917,603.888952L1469.371858,603.847581L1503.595939,603.309753L1505.590891,597.890097L1562.916851,597.765982L1596.555474,525.337039L1619.198347,475.578596L1486.398469,474.778700L1441.932559,474.957987Z " data-cartodb-id="82" data-created-at="2013-02-20T04:06:07.501Z" data-name="Holland" data-updated-at="2013-02-20T04:06:07.744Z"/><path d="M1306.807628,299.635423L1306.908170,302.600803L1318.110551,375.644370L1289.204212,525.847305L1322.075779,525.337039L1419.350723,525.364621L1441.932559,474.957987L1454.529010,446.258067L1468.382140,425.570709L1473.961846,414.923535L1474.406171,414.096032L1483.614980,395.380588L1492.655340,374.885811L1515.473827,326.185770L1344.891240,326.502993L1339.942491,325.413401L1336.993419,322.848031L1335.534617,320.172318L1334.778127,312.200331L1331.243458,299.731971L1306.807628,299.635423Z " data-cartodb-id="83" data-created-at="2013-02-20T04:06:07.501Z" data-name="Marshall Terrace" data-updated-at="2013-02-20T04:06:07.744Z"/><path d="M1675.535258,352.459935L1664.440257,375.740913L1619.198347,475.578596L1596.555474,525.337039L1798.349627,524.826772L1827.340050,524.661281L1863.027431,445.913279L1848.971105,444.934082L1841.845170,443.954885L1833.999081,441.789615L1824.423441,435.638582L1820.224941,430.452944L1817.790154,424.729419L1815.190760,410.841184L1815.011471,409.875763L1811.846840,399.849140L1807.032108,393.546272L1802.359309,388.760494L1797.667224,384.857387L1788.847828,379.616454L1779.250722,376.899439L1736.023454,376.858063L1717.675020,377.078734L1714.361157,376.499472L1710.392698,373.354901L1708.281606,369.120757L1707.867247,363.507399L1706.733651,359.893878L1705.931534,357.356134L1702.177465,353.370215L1696.904563,352.349598L1675.535258,352.459935Z " data-cartodb-id="84" data-created-at="2013-02-20T04:06:07.501Z" data-name="Audubon Park" data-updated-at="2013-02-20T04:06:07.744Z"/><path d="M1052.455836,1177.409356L1041.347919,1203.093860L1033.182340,1221.030088L1021.672309,1245.942031L1056.290372,1245.721450L1097.419822,1245.487084L1086.123599,1270.302235L1119.064870,1270.205732L1158.348577,1270.219518L1229.186637,1270.191946L1240.518770,1245.418152L1266.116748,1245.307862L1270.341375,1256.722869L1277.967471,1250.946442L1274.644738,1237.821900L1274.322277,1227.675140L1272.746638,1183.489291L1272.485283,1176.720020L1260.467462,1175.727375L1259.749787,1175.672228L1250.689750,1175.920389L1226.399448,1178.153838L1222.086495,1178.208985L1176.264609,1178.815601L1144.654591,1179.229202L1123.936254,1179.573870L1062.002611,1180.566512L1052.455836,1177.409356Z " data-cartodb-id="85" data-created-at="2013-02-20T04:06:07.501Z" data-name="Ventura Village" data-updated-at="2013-02-20T04:06:07.744Z"/></g><g fill="#000" font-family="Arial" font-size="12px" id="mylayer-label" stroke="none"><text text-anchor="middle" y="1658.54551644"><tspan dy="0" x="838.402503412"><![CDATA[Bryant]]></tspan></text><text text-anchor="middle" y="1757.88390209"><tspan dy="0" x="792.610089426"><![CDATA[Regina]]></tspan></text><text text-anchor="middle" y="1803.93474393"><tspan dy="0" x="921.411004524"><![CDATA[Northrup]]></tspan></text><text text-anchor="middle" y="1977.62595157"><tspan dy="0" x="694.051179676"><![CDATA[Page]]></tspan></text><text text-anchor="middle" y="1962.99190134"><tspan dy="0" x="859.09758581"><![CDATA[Hale]]></tspan></text><text text-anchor="middle" y="1929.28782634"><tspan dy="0" x="1094.334899"><![CDATA[Keewaydin]]></tspan></text><text text-anchor="middle" y="2120.14239932"><tspan dy="0" x="713.380605959"><![CDATA[Diamond Lake]]></tspan></text><text text-anchor="middle" y="2104.98918825"><tspan dy="0" x="1011.90914796"><![CDATA[Wenonah]]></tspan></text><text text-anchor="middle" y="2107.188527"><tspan dy="0" x="1234.91537938"><![CDATA[Morris Park]]></tspan></text><text text-anchor="middle" y="1943.98853794"><tspan dy="0" x="1318.06478263"><![CDATA[Minnehaha]]></tspan></text><text text-anchor="middle" y="1791.63330303"><tspan dy="0" x="1180.02981667"><![CDATA[Ericsson]]></tspan></text><text text-anchor="middle" y="1785.35465405"><tspan dy="0" x="1447.40790367"><![CDATA[Hiawatha]]></tspan></text><text text-anchor="middle" y="1579.33929245"><tspan dy="0" x="1478.02931572"><![CDATA[Howe]]></tspan></text><text text-anchor="middle" y="1646.73917091"><tspan dy="0" x="1195.23034026"><![CDATA[Standish]]></tspan></text><text text-anchor="middle" y="1658.36032781"><tspan dy="0" x="992.663457052"><![CDATA[Bancroft]]></tspan></text><text text-anchor="middle" y="1510.56272621"><tspan dy="0" x="1059.23067327"><![CDATA[Powderhorn Park]]></tspan></text><text text-anchor="middle" y="1486.08746786"><tspan dy="0" x="772.625713587"><![CDATA[Lyndale]]></tspan></text><text text-anchor="middle" y="1485.87991313"><tspan dy="0" x="515.915667479"><![CDATA[ECCO]]></tspan></text><text text-anchor="middle" y="1919.51672233"><tspan dy="0" x="154.286771702"><![CDATA[Fulton]]></tspan></text><text text-anchor="middle" y="2099.89778845"><tspan dy="0" x="320.486125956"><![CDATA[Kenny]]></tspan></text><text text-anchor="middle" y="2106.73895895"><tspan dy="0" x="154.300733531"><![CDATA[Armatage]]></tspan></text><text text-anchor="middle" y="1913.26677633"><tspan dy="0" x="578.015120266"><![CDATA[Tangletown]]></tspan></text><text text-anchor="middle" y="2123.91100009"><tspan dy="0" x="464.209695745"><![CDATA[Windom]]></tspan></text><text text-anchor="middle" y="1680.00257435"><tspan dy="0" x="494.155949193"><![CDATA[East Harriet]]></tspan></text><text text-anchor="middle" y="1321.5187041"><tspan dy="0" x="726.808182272"><![CDATA[Lowry Hill East]]></tspan></text><text text-anchor="middle" y="1339.50891158"><tspan dy="0" x="1113.6339245"><![CDATA[Phillips]]></tspan></text><text text-anchor="middle" y="1193.01645836"><tspan dy="0" x="953.681779428"><![CDATA[Stevens Square]]></tspan></text><text text-anchor="middle" y="1485.69266249"><tspan dy="0" x="343.790136341"><![CDATA[West Calhoun]]></tspan></text><text text-anchor="middle" y="1699.71644423"><tspan dy="0" x="256.625140669"><![CDATA[Linden Hills]]></tspan></text><text text-anchor="middle" y="1909.54443886"><tspan dy="0" x="388.707433725"><![CDATA[Lynnhurst]]></tspan></text><text text-anchor="middle" y="44.6665293835"><tspan dy="0" x="1115.1000904"><![CDATA[Shingle Creek]]></tspan></text><text text-anchor="middle" y="124.960703342"><tspan dy="0" x="1100.98908118"><![CDATA[Humboldt Industrial]]></tspan></text><text text-anchor="middle" y="285.755760605"><tspan dy="0" x="1139.42051802"><![CDATA[Webber-Camden]]></tspan></text><text text-anchor="middle" y="443.304371095"><tspan dy="0" x="888.271104386"><![CDATA[Cleveland]]></tspan></text><text text-anchor="middle" y="599.974625692"><tspan dy="0" x="930.511093242"><![CDATA[Jordan]]></tspan></text><text text-anchor="middle" y="750.637510151"><tspan dy="0" x="766.242177192"><![CDATA[Willard-Hay]]></tspan></text><text text-anchor="middle" y="1093.59878149"><tspan dy="0" x="575.475187314"><![CDATA[Bryn-Mawr]]></tspan></text><text text-anchor="middle" y="1347.46876413"><tspan dy="0" x="421.228549157"><![CDATA[Cedar-Isles]]></tspan></text><text text-anchor="middle" y="313.621472024"><tspan dy="0" x="1535.2591855"><![CDATA[Columbia]]></tspan></text><text text-anchor="middle" y="239.874055797"><tspan dy="0" x="1307.46152545"><![CDATA[Camden Industrial]]></tspan></text><text text-anchor="middle" y="571.008751734"><tspan dy="0" x="1334.78702733"><![CDATA[Bottineau]]></tspan></text><text text-anchor="middle" y="656.892253705"><tspan dy="0" x="1477.38483642"><![CDATA[Logan Park]]></tspan></text><text text-anchor="middle" y="566.188956032"><tspan dy="0" x="1712.37916556"><![CDATA[Windom Park]]></tspan></text><text text-anchor="middle" y="737.744117783"><tspan dy="0" x="1787.65549747"><![CDATA[Mid-City Industrial]]></tspan></text><text text-anchor="middle" y="906.533513329"><tspan dy="0" x="1446.48524395"><![CDATA[Marcy-Holmes]]></tspan></text><text text-anchor="middle" y="1123.9488025"><tspan dy="0" x="1666.58003759"><![CDATA[Prospect Park]]></tspan></text><text text-anchor="middle" y="1143.28255542"><tspan dy="0" x="774.980959926"><![CDATA[Lowry Hill]]></tspan></text><text text-anchor="middle" y="1005.34030299"><tspan dy="0" x="1119.67495855"><![CDATA[Downtown West]]></tspan></text><text text-anchor="middle" y="1128.8985285"><tspan dy="0" x="1386.06022831"><![CDATA[Cedar-Riverside]]></tspan></text><text text-anchor="middle" y="640.75511653"><tspan dy="0" x="1741.22344473"><![CDATA[Northeast Park]]></tspan></text><text text-anchor="middle" y="300.855536914"><tspan dy="0" x="1822.32872129"><![CDATA[Waite Park]]></tspan></text><text text-anchor="middle" y="920.223957876"><tspan dy="0" x="918.369518072"><![CDATA[Sumner-Glenwood]]></tspan></text><text text-anchor="middle" y="447.940262969"><tspan dy="0" x="1208.74788795"><![CDATA[McKinley]]></tspan></text><text text-anchor="middle" y="615.74834071"><tspan dy="0" x="1137.27029044"><![CDATA[Hawthorne]]></tspan></text><text text-anchor="middle" y="775.310900064"><tspan dy="0" x="1280.16499399"><![CDATA[St. Anthony West]]></tspan></text><text text-anchor="middle" y="444.173820461"><tspan dy="0" x="1030.67131585"><![CDATA[Folwell]]></tspan></text><text text-anchor="middle" y="91.5197919488"><tspan dy="0" x="1300.99341681"><![CDATA[Lind-Bohanon]]></tspan></text><text text-anchor="middle" y="241.667396598"><tspan dy="0" x="977.997596047"><![CDATA[Victory]]></tspan></text><text text-anchor="middle" y="1866.45678428"><tspan dy="0" x="739.878180642"><![CDATA[Field]]></tspan></text><text text-anchor="middle" y="1684.09963094"><tspan dy="0" x="681.706048523"><![CDATA[King Field]]></tspan></text><text text-anchor="middle" y="1486.06644757"><tspan dy="0" x="639.676082259"><![CDATA[CARAG]]></tspan></text><text text-anchor="middle" y="1510.93459793"><tspan dy="0" x="905.254712129"><![CDATA[Central]]></tspan></text><text text-anchor="middle" y="1414.45080141"><tspan dy="0" x="1399.78524064"><![CDATA[Longfellow]]></tspan></text><text text-anchor="middle" y="1492.63917102"><tspan dy="0" x="1226.40156993"><![CDATA[Corcoran]]></tspan></text><text text-anchor="middle" y="1424.72664225"><tspan dy="0" x="1603.6227919"><![CDATA[Cooper]]></tspan></text><text text-anchor="middle" y="1307.40287399"><tspan dy="0" x="875.941768603"><![CDATA[Whittier]]></tspan></text><text text-anchor="middle" y="1319.2856599"><tspan dy="0" x="636.111983063"><![CDATA[East Isles]]></tspan></text><text text-anchor="middle" y="1230.83553031"><tspan dy="0" x="556.078371224"><![CDATA[Kenwood]]></tspan></text><text text-anchor="middle" y="966.001481641"><tspan dy="0" x="758.890792739"><![CDATA[Harrison]]></tspan></text><text text-anchor="middle" y="867.516817087"><tspan dy="0" x="1303.92973874"><![CDATA[Nicollet Island]]></tspan></text><text text-anchor="middle" y="802.118955384"><tspan dy="0" x="959.977246951"><![CDATA[Near North]]></tspan></text><text text-anchor="middle" y="899.498493002"><tspan dy="0" x="1071.7747192"><![CDATA[North Loop]]></tspan></text><text text-anchor="middle" y="1122.46509182"><tspan dy="0" x="1163.56819126"><![CDATA[Elliot Park]]></tspan></text><text text-anchor="middle" y="1031.02373426"><tspan dy="0" x="1287.93748657"><![CDATA[Downtown East]]></tspan></text><text text-anchor="middle" y="1044.09908029"><tspan dy="0" x="1501.40264996"><![CDATA[University]]></tspan></text><text text-anchor="middle" y="1263.57138279"><tspan dy="0" x="1444.77963876"><![CDATA[Seward]]></tspan></text><text text-anchor="middle" y="1119.89343821"><tspan dy="0" x="948.06965971"><![CDATA[Loring Park]]></tspan></text><text text-anchor="middle" y="889.899213414"><tspan dy="0" x="1726.31339022"><![CDATA[Como]]></tspan></text><text text-anchor="middle" y="769.722179026"><tspan dy="0" x="1534.6920521"><![CDATA[Beltrami]]></tspan></text><text text-anchor="middle" y="760.266216043"><tspan dy="0" x="1425.2592824"><![CDATA[St. Anthony East]]></tspan></text><text text-anchor="middle" y="672.163578521"><tspan dy="0" x="1314.86502615"><![CDATA[Sheridan]]></tspan></text><text text-anchor="middle" y="539.059480764"><tspan dy="0" x="1493.3738813"><![CDATA[Holland]]></tspan></text><text text-anchor="middle" y="410.313845567"><tspan dy="0" x="1387.56913661"><![CDATA[Marshall Terrace]]></tspan></text><text text-anchor="middle" y="449.116284913"><tspan dy="0" x="1729.12583437"><![CDATA[Audubon Park]]></tspan></text><text text-anchor="middle" y="1215.22850031"><tspan dy="0" x="1158.00909935"><![CDATA[Ventura Village]]></tspan></text></g></svg>