<?xml version="1.0" encoding="utf-8"?><!DOCTYPE svg  PUBLIC '-//W3C//DTD SVG 1.1//EN'  'http://www.w3.org/Graphics/SVG/1.1/DTD/svg11.dtd'><svg enable_background="new 0 0 2000 1523" height="1523px" pretty_print="False" style="stroke-linejoin: round; stroke:#000; fill: none;" version="1.1" viewBox="0 0 2000 1523" width="2000px" xmlns="http://www.w3.org/2000/svg" xmlns:xlink="http://www.w3.org/1999/xlink"><defs><style type="text/css"><![CDATA[path { fill-rule: evenodd; }]]></style></defs><metadata><views><view h="1523.41561156" padding="0" w="2000"><proj flip="auto" id="robinson" lon0="-122.843519533"/><bbox h="1.63" w="2.15" x="-1612.4" y="-787.42"/></view></views></metadata><g class="" id="mylayer"><path d="M1949.101554,340.874548L1948.576878,340.874548L1930.516608,340.798208L1928.634762,340.782941L1919.835178,354.661402L1939.948235,354.753009L1940.546124,354.753009L1949.101554,340.874548Z " data-cartodb-id="4" data-created-at="2013-04-04T20:46:27.909Z" data-name="Springfield" data-updated-at="2013-04-05T01:19:01.334Z"/><path d="M361.693938,827.359188L360.547867,823.206505L308.941971,823.237040L307.880514,826.794301L305.326032,831.603473L304.311988,831.664542L304.046946,832.153093L302.548569,840.687459L301.467060,843.664562L307.791762,839.924099L314.110080,849.496628L361.693938,827.359188Z " data-cartodb-id="5" data-created-at="2013-04-04T20:46:27.909Z" data-name="Westbrook Park" data-updated-at="2013-04-05T01:19:01.334Z"/><path d="M1922.527884,284.704024L1930.685895,271.451469L1936.355344,262.229636L1912.740147,261.863205L1898.544209,284.459738L1922.461898,284.810900L1922.527884,284.704024Z " data-cartodb-id="6" data-created-at="2013-04-04T20:46:27.909Z" data-name="Newport" data-updated-at="2013-04-05T01:19:01.334Z"/><path d="M978.312258,900.290438L947.995405,904.504161L948.344683,901.466006L940.909525,901.786615L941.673674,903.099587L942.899457,904.534696L943.681606,905.343852L944.327573,906.611023L944.779562,907.282775L945.069678,908.137733L945.323822,909.130095L945.294048,910.305662L945.460410,911.084284L945.679016,912.015577L945.673444,912.855268L945.512852,914.183506L945.341984,915.053730L945.159342,915.725482L944.789348,916.641508L944.274613,917.633869L943.802059,918.656764L943.301244,919.725461L942.770453,920.763623L941.993003,922.122394L941.369501,923.053686L940.717737,924.030779L939.802611,925.236879L938.874213,926.504047L937.860164,927.435339L937.663394,927.694879L937.451635,927.939152L937.230455,928.198693L937.006491,928.442966L936.770323,928.687239L936.521950,928.931512L936.273577,929.175786L936.000795,929.420059L935.737434,929.649065L935.461868,929.878071L935.174097,930.107077L932.210959,932.397139L929.202858,934.641398L926.137587,936.839856L923.027352,938.992512L919.862732,941.114634L914.349697,944.748194L914.483950,944.748194L948.216905,944.809262L966.305045,944.946666L997.039062,945.160405L997.087881,945.160405L998.156153,945.664217L998.992951,945.969559L999.955232,946.427570L1001.145140,947.129855L1002.417283,948.015344L1006.925202,951.786305L1007.791159,952.519123L1008.898017,953.435146L1035.562558,910.122457L1029.859152,910.168258L1029.243354,910.137724L1028.792853,910.076656L1028.432705,909.908717L1028.068060,909.649177L1027.228725,909.664444L995.184567,909.893450L990.510133,919.130044L975.381064,918.687299L980.283814,910.702607L974.552998,910.397265L978.312258,900.290438Z " data-cartodb-id="13" data-created-at="2013-04-04T20:46:27.909Z" data-name="Governor Stevens" data-updated-at="2013-04-05T01:19:01.334Z"/><path d="M1440.520438,907.496515L1440.508233,907.496515L1383.390574,906.626290L1357.356132,948.610759L1357.224281,948.824497L1414.101752,949.175640L1440.520438,907.496515Z " data-cartodb-id="22" data-created-at="2013-04-04T20:46:27.909Z" data-name="Briarwood" data-updated-at="2013-04-05T01:19:01.334Z"/><path d="M813.272694,417.854769L827.563625,393.258404L788.551082,392.907246L778.665737,393.166798L763.577056,419.152527L813.272694,417.854769Z " data-cartodb-id="25" data-created-at="2013-04-04T20:46:27.909Z" data-name="Walnut Park" data-updated-at="2013-04-05T01:19:01.334Z"/><path d="M1548.111082,214.654641L1540.469878,214.501961L1533.871311,214.379817L1515.992789,214.425621L1507.139877,228.640120L1514.026352,228.533245L1524.386857,228.273689L1539.788102,228.090473L1548.111082,214.654641Z " data-cartodb-id="35" data-created-at="2013-04-04T20:46:27.909Z" data-name="Bethel Park" data-updated-at="2013-04-05T01:19:01.334Z"/><path d="M414.065488,710.152187L412.856468,712.228549L347.984819,712.243817L278.737151,823.038566L286.118485,823.160704L294.463362,823.145437L308.945844,823.191238L315.700306,823.221773L321.101201,823.191238L333.689259,823.221773L346.476455,823.206505L360.661576,823.160704L372.013644,823.038566L373.651100,822.580549L374.955173,822.168334L377.934496,821.572913L379.335108,821.221767L380.453429,821.130163L382.199126,820.931689L383.683571,820.840086L384.642144,820.809552L385.624033,820.840086L386.483880,820.870621L388.086496,820.824819L390.116257,820.779017L391.698336,820.687414L394.167356,820.305733L396.709601,819.924053L398.840774,819.496570L401.888261,818.672140L403.304944,818.275192L405.205831,817.588167L407.081216,816.962211L409.048087,816.168315L410.749244,815.389686L413.056646,814.320980L415.171560,813.267541L417.606468,811.893490L427.638821,805.725525L434.592910,801.420162L441.083837,797.252202L432.133217,785.618549L454.531821,749.343458L440.845060,735.618131L430.472483,725.083665L426.120130,720.610330L425.772349,720.778271L421.093318,716.320203L421.290779,716.198064L418.492501,713.694216L414.065488,710.152187Z " data-cartodb-id="36" data-created-at="2013-04-04T20:46:27.909Z" data-name="Lakemoor" data-updated-at="2013-04-05T01:19:01.334Z"/><path d="M1590.647657,782.687232L1565.497824,782.366620L1544.776588,816.565263L1553.280496,816.351522L1562.576082,813.252274L1573.862112,813.237007L1592.661312,782.687232L1590.647657,782.687232Z " data-cartodb-id="37" data-created-at="2013-04-04T20:46:27.909Z" data-name="Greenfield" data-updated-at="2013-04-05T01:19:01.334Z"/><path d="M879.510224,434.481333L866.845434,434.420262L861.363866,434.404994L853.512294,434.374459L846.272976,446.252743L855.466837,446.283279L860.735450,446.268011L870.572146,446.344349L871.402472,446.145869L872.106345,445.855783L872.496845,445.519893L873.023799,445.061862L879.510224,434.481333Z " data-cartodb-id="45" data-created-at="2013-04-04T20:46:27.909Z" data-name="Kiwi Court" data-updated-at="2013-04-05T01:19:01.334Z"/><path d="M468.859753,0.000000L459.833046,7.771542L449.546673,17.146244L443.154838,24.780361L440.242740,28.108835L438.789155,31.406771L432.364595,30.826578L420.200976,33.391640L405.587259,37.926300L399.916900,39.224098L392.234969,38.842393L384.957087,39.346244L373.159460,39.346244L358.250118,42.583104L335.039830,49.911842L329.921499,50.889007L325.675932,51.362321L321.394792,51.301248L315.444910,53.820501L310.182141,57.576476L306.516321,60.920210L236.093448,174.148572L142.136647,325.469284L98.125473,395.808123L91.157818,407.121538L90.871699,409.381166L92.932716,409.442237L93.924531,410.404106L95.613461,410.297232L94.936738,412.892750L97.401907,413.366050L101.551016,414.984432L103.069217,417.167720L106.107349,416.358529L106.886470,419.244133L113.742444,419.167795L119.773214,418.847172L121.353815,419.152527L119.870959,421.137334L115.810904,421.290011L111.004454,422.374021L105.494033,423.748117L101.623614,422.725179L98.008107,420.954121L96.979317,419.518953L94.436528,418.954046L92.209365,418.312801L88.332988,418.266998L85.182862,417.717359L83.182295,420.144930L58.810753,459.245558L65.809761,458.207354L73.704865,454.909532L78.435731,454.283556L80.474019,454.420965L80.959449,455.550775L82.648380,456.924868L86.590867,456.863797L90.000742,455.749255L90.843074,456.222554L91.483242,457.398166L94.395457,456.634782L96.588607,456.482105L95.705367,458.543244L94.591667,461.352499L95.238513,463.978542L97.297946,463.963274L100.754360,462.970874L101.138296,464.146486L102.377403,464.115951L104.522751,462.757127L106.155858,463.688456L106.056735,464.757194L104.096813,465.657987L103.272340,466.360301L104.683058,468.757327L104.604953,470.009277L102.207504,470.650519L101.335619,472.100949L101.403973,474.833863L101.859629,475.597246L100.444028,475.933135L99.064741,473.978873L98.903421,470.665787L97.447286,468.085549L93.182861,467.245826L91.058260,466.497710L90.532928,463.734259L89.810983,461.703656L87.408881,461.444105L84.224312,462.253293L82.728956,462.283828L78.692255,460.680721L74.317517,461.184555L68.116806,463.260960L63.393970,464.604517L56.721388,466.299230L54.269211,466.436639L43.832067,483.108939L44.472021,484.956326L47.987588,484.559367L49.181065,486.498360L49.476236,489.338144L50.853038,492.086322L56.076609,492.697028L60.735245,494.162722L63.596220,495.674220L63.735187,498.055972L65.364290,501.185839L64.824563,502.987420L61.519262,504.880607L60.967120,507.353964L64.155274,507.506640L66.789581,508.575375L67.354666,510.682307L65.978626,512.178535L63.576951,513.873241L63.543098,515.705356L62.371429,518.193978L61.394496,520.545191L60.536416,522.407840L57.266317,525.369757L54.526455,524.728517L53.405450,524.804855L50.882182,528.789701L50.434299,531.568405L51.775371,531.965362L54.818649,530.713419L57.563622,529.095053L61.594372,525.415560L60.963863,528.667560L59.699341,532.056968L58.731079,535.263163L58.805789,537.828119L60.730865,538.484626L63.201451,538.179274L66.105467,537.034205L68.868776,535.247896L71.277081,533.522657L75.285910,532.682939L76.595729,533.782207L72.887792,535.675389L69.576583,537.064740L68.275539,538.301415L70.327117,540.866370L71.811867,541.248060L69.165216,544.484788L64.903140,546.484842L60.378498,547.171883L56.927450,546.713855L54.743424,545.706195L49.032707,545.034421L44.971824,547.538305L43.982942,549.217739L41.829776,551.004045L40.843420,551.553678L36.792390,556.668315L36.204136,559.950842L38.461492,560.622614L43.409963,559.782898L44.287443,559.843969L44.382126,560.500474L41.992191,562.057765L40.743350,563.111227L41.765807,564.576913L42.196718,564.866997L41.152587,568.057916L41.858904,569.462531L41.743135,571.111426L42.445931,573.371024L46.460090,573.569502L49.738181,573.813782L52.405604,573.920655L59.934668,572.103817L55.551188,573.905388L50.139290,575.890169L50.283094,580.180348L50.025110,580.439896L48.555668,578.394046L46.199082,577.310050L44.694981,576.485603L41.209804,577.050502L38.716223,575.951239L36.716700,573.203081L33.508942,571.126694L31.902794,568.057916L31.136596,566.592231L29.975930,565.508234L27.674266,566.744906L26.257042,571.309904L27.038860,574.745103L28.681776,579.630716L30.271360,582.607886L31.115907,583.630811L31.861411,583.569741L32.324076,583.294925L35.023254,582.836899L36.992948,582.730027L36.521673,584.302583L37.632823,586.256827L39.487622,589.081320L42.428226,593.249354L44.489989,595.936437L45.341489,598.409775L44.596180,600.287679L44.133852,601.707558L41.948781,602.577806L39.790090,601.844966L37.626587,600.211342L35.474767,598.440310L32.933580,596.608208L30.851525,592.867666L28.326223,589.508810L25.302719,586.699585L21.501830,585.188100L18.080365,583.615544L16.271946,581.920847L14.534141,579.539111L13.225259,576.561941L10.060723,576.943629L6.290046,579.096353L3.752632,580.378826L2.474010,580.729979L0.656851,583.157518L13.434209,599.371629L19.981143,607.677153L21.802972,609.310776L23.742418,610.852793L25.790048,612.318473L27.955294,613.692548L30.225952,614.975018L32.592590,616.181149L35.074071,617.280409L37.639327,618.303331L40.307223,619.219380L43.068325,620.043824L45.922632,620.776664L48.857942,621.417898L51.871481,621.952260L54.978225,622.395017L58.150996,622.730902L61.404766,622.975182L64.715129,623.127856L68.103720,623.173659L71.546132,623.112589L75.035704,622.975182L78.600732,622.715634L82.188512,622.379750L85.851748,621.921725L211.169106,613.402466L215.621589,613.326128L220.001393,613.387198L224.305747,613.570408L228.510247,613.875758L232.629867,614.318515L236.659064,614.868145L240.578978,615.555182L244.396268,616.349092L248.104275,617.280409L251.709661,618.318598L255.181360,619.494195L258.538236,620.776664L261.792492,622.166005L264.888658,623.692753L308.995685,645.219884L388.320301,684.930465L405.530712,693.678684L410.238182,696.213070L414.725472,698.945932L418.999239,701.846735L423.025649,704.930746L426.826338,708.182696L430.379674,711.617854L433.692314,715.205685L488.205376,769.221489L577.400810,859.389759L579.471145,860.840140L581.649629,862.214186L583.942907,863.481360L586.332129,864.672199L588.836142,865.756168L591.423894,866.763801L594.114233,867.664563L596.888308,868.488990L599.764969,869.206546L602.719806,869.817233L605.758379,870.351583L608.875126,870.779063L731.208622,871.496620L733.798280,871.710360L736.306992,872.015703L738.765806,872.382115L741.155878,872.840129L743.496053,873.359212L745.743078,873.969899L747.940208,874.641653L750.044187,875.405011L752.064440,876.244704L754.022594,877.145466L755.884818,878.122563L757.675522,879.175996L759.367514,880.290498L760.975781,881.481335L762.497543,882.733240L763.923376,884.061482L765.250499,885.450791L766.500541,886.885902L767.642451,888.397348L768.685652,889.969863L769.617940,891.603445L770.473147,893.282829L771.205237,895.023282L771.848043,896.809535L772.379936,898.656856L772.819763,900.534712L773.148679,902.473635L773.373323,904.443093L773.496479,906.458351L773.505942,908.519411L773.411134,910.611004L770.919159,931.893325L771.748445,936.442912L773.527854,939.710064L785.086855,933.221561L783.451776,930.076543L783.012382,926.259774L784.138921,921.191101L786.150793,914.015567L788.157303,905.069045L788.153313,896.809535L787.178267,892.061459L786.157664,889.206506L784.824694,886.244682L784.790254,884.046214L785.221920,882.061486L785.880087,880.382101L787.164822,878.122563L790.426962,875.328675L793.111809,872.916465L793.788837,871.206544L796.008675,868.519524L796.718632,867.191281L801.141909,864.473726L803.794979,862.824872L804.583731,861.527163L803.942127,860.885942L807.651039,857.328691L812.453701,853.343958L818.954927,849.237086L822.333295,846.947008L824.757866,844.244715L826.270823,841.160742L826.029797,839.435549L826.288229,838.107302L829.201136,834.534777L830.201095,832.855384L832.528683,830.290493L834.715855,828.763772L836.572744,827.969877L837.975141,826.824836L838.574999,826.030941L838.208564,824.153073L838.859108,820.153061L843.153946,814.183575L848.474747,807.481258L850.482154,804.565215L851.737395,801.740774L852.942601,798.641522L853.539127,796.488840L856.565209,789.984987L858.766551,783.710140L861.057161,778.595602L862.769187,774.794049L863.695624,772.107007L863.290197,770.885624L865.388091,767.862700L864.672234,765.740546L864.342215,764.397024L865.561932,761.175624L866.124326,756.488561L868.799933,749.465597L870.327702,746.595341L868.255968,743.862490L870.090741,735.236448L872.678794,721.159955L871.765376,720.030171L869.666946,720.167577L866.430628,721.495837L865.582902,724.549308L864.322884,728.824165L864.288255,731.450148L862.856997,739.343361L861.462320,745.358688L860.649732,747.129697L860.004377,748.076271L859.461487,751.664090L858.758395,755.511453L858.051082,758.396974L857.727304,761.847385L857.610244,763.282511L856.925547,765.755813L856.075653,767.053533L854.677065,768.152779L854.107126,768.977212L853.985866,770.992495L853.754644,772.671896L853.027803,775.114662L852.511559,777.038340L851.435974,778.503999L849.963220,780.000192L847.788270,780.320805L842.996456,780.076528L838.201862,779.816985L835.013110,779.328432L832.291497,778.992552L827.922960,778.794077L824.414608,778.091782L822.282524,777.374220L820.983697,776.809330L818.172925,776.855132L816.180393,775.496344L815.211937,775.740621L813.375915,776.045966L810.972447,774.977257L809.291881,771.175702L808.044661,770.626080L809.254405,768.824539L813.634375,762.381740L817.370830,757.297728L818.533707,756.244284L823.642186,753.267158L827.276414,750.839655L834.958436,748.457954L839.353630,747.328172L841.147840,746.457935L844.665446,745.267084L848.122055,742.534233L852.539372,734.686824L852.907748,731.480683L853.864695,728.289808L852.514716,727.175292L850.930690,726.182914L848.632038,726.427192L846.317376,725.175269L844.631965,724.564575L844.848747,724.213426L844.637416,724.259228L841.689895,724.961526L837.137466,727.037885L835.272309,728.121867L824.707361,732.030307L819.255827,734.396744L817.105622,735.725003L812.108185,737.434944L808.825870,737.236469L807.057739,738.183044L801.184291,742.992252L798.533240,744.518985L791.741567,747.099162L788.829548,747.862528L786.631615,749.129716L785.721018,749.893082L783.694918,750.763319L782.058029,751.022863L777.487774,754.610682L775.717465,755.679394L773.006971,756.946580L771.987030,757.511471L769.991381,758.213767L762.091168,761.877919L758.883318,763.832134L756.250400,764.855043L753.824834,765.542071L752.389472,766.305436L749.282375,769.282558L746.460212,771.679523L742.836945,773.832210L739.561667,776.488718L738.126306,777.252082L732.427900,778.061248L728.987340,779.206293L727.625201,779.969657L726.007499,781.206307L724.415529,783.053647L722.173116,787.160543L719.888065,789.893383L716.268432,792.870499L713.065059,793.374319L710.366160,794.504096L704.144779,798.809462L699.881474,801.267489L689.067083,810.443103L686.575554,812.778990L684.268783,815.191212L679.569784,818.473666L674.129202,820.565276L667.538167,822.840092L641.117648,831.160724L637.506199,832.305765L633.056475,826.030941L627.621691,821.450775L619.594725,818.519468L609.649191,817.786641L586.848211,818.504201L579.452752,817.633969L573.193521,815.496557L567.518350,811.404938L564.063339,805.832396L563.836804,805.191172L555.759414,783.068914L554.122038,775.679552L554.366079,767.160405L555.038110,761.664177L554.494948,754.519078L552.812408,749.496132L550.123799,745.114411L549.240443,744.015163L542.557628,735.587597L697.368609,638.593807L753.099778,604.150359L773.748830,591.066098L774.472655,590.684410L775.190931,590.272187L775.894229,589.844696L776.585324,589.417205L777.273644,588.974447L777.946986,588.516421L778.617554,588.043128L779.263716,587.569834L779.907103,587.081273L780.535512,586.577445L781.151719,586.073616L781.752948,585.554520L782.329771,585.035424L782.891617,584.501061L783.441260,583.966697L783.975925,583.417066L784.486185,582.867434L784.972039,582.317803L785.455118,581.752904L785.904364,581.203273L786.338632,580.638374L786.748494,580.073475L787.143380,579.493309L787.504431,578.928410L798.449272,562.134103L798.681127,562.134103L827.140927,517.888626L836.213597,503.613394L853.333292,477.475170L872.927107,447.352018L888.484488,422.480895L905.692441,394.128668L905.975371,393.670634L912.362615,393.365279L906.170652,393.334743L914.083360,380.525071L922.503990,366.142802L928.352829,355.608007L928.603654,354.905687L928.951567,354.065957L928.951713,317.881154L928.915108,317.881154L928.943488,317.499458L929.601114,309.285340L930.087473,303.086578L931.601886,299.865053L937.354217,280.719098L937.805671,280.719098L940.493957,271.252986L940.852215,269.527710L959.698957,269.436102L939.582758,269.390298L938.524006,269.405566L943.634783,258.763813L945.452976,254.794147L946.842277,251.419929L950.753523,241.159860L951.239393,239.465115L951.460620,238.060462L951.480618,237.968854L951.795439,236.945900L952.067497,236.090894L978.889108,237.724567L979.081560,237.709299L967.451603,257.618717L979.462337,238.396357L993.509348,238.213142L994.299660,238.197874L1031.823590,237.755103L1049.138093,213.127841L1055.921909,213.127841L1066.473100,213.112573L1066.692720,213.112573L1093.337173,213.097305L1092.381612,216.440997L1092.576830,216.440997L1092.734536,215.830277L1093.385978,213.097305L1093.627566,212.074349L1094.316246,209.142892L1095.572296,204.562489L1097.259507,197.783490L1097.927085,193.523712L1097.899614,189.737241L1099.409476,182.988770L1099.105476,177.339594L1097.386113,170.545312L1094.786962,160.376784L1095.223451,156.254406L1096.515934,151.536571L1096.572696,145.856845L1095.135188,140.818377L1093.647784,135.840978L1093.464799,132.069758L1094.957969,125.428133L1095.483971,121.259938L1094.638169,117.870417L1091.539674,115.717612L1090.013450,114.633575L1089.581702,112.923546L1090.268836,108.297303L1089.776267,106.251374L1090.934222,101.732006L1090.249437,97.075223L1089.433383,87.853262L1089.509081,82.005557L1090.192266,75.806683L1089.670064,70.294872L1086.996662,65.973978L1083.349180,62.202737L1078.416599,58.813200L1070.872512,55.622148L1065.717905,52.690654L1060.698709,47.743758L1053.389088,42.140326L1048.422648,39.101952L1041.631201,35.147485L1035.246887,32.903057L1027.975000,31.147211L1015.731021,30.231118L1004.892661,30.475409L989.345206,39.147757L977.811591,47.010884L971.567336,50.461498L966.554736,52.156267L981.475162,39.682144L1004.876146,20.810621L1029.171557,0.610730L468.859753,0.000000Z M584.266356,390.021635L597.932704,368.692526L637.667233,305.590512L637.699436,305.498904L637.743841,305.407297L637.797680,305.300422L637.842084,305.208814L637.898690,305.117207L637.964731,305.010332L638.021337,304.918725L638.090144,304.827117L638.168386,304.720242L638.237194,304.628635L638.318203,304.537027L638.399213,304.445420L638.480222,304.353813L638.570666,304.246937L638.663876,304.155330L638.757087,304.063723L638.853065,303.987383L638.946276,303.895776L639.051689,303.804169L639.169303,303.712561L639.265281,303.636222L639.373460,303.559882L639.491074,303.468275L639.599254,303.391936L639.719635,303.315596L639.840017,303.239257L639.960398,303.162917L640.071345,303.101846L640.203927,303.025506L640.327076,302.964435L640.450224,302.903363L640.573373,302.842292L640.696521,302.781220L640.822437,302.735416L640.957787,302.674345L641.083702,302.628541L641.209618,302.582737L641.335533,302.536934L641.473650,302.491130L641.590132,302.460594L641.718814,302.430059L641.835296,302.399523L641.963978,302.368987L642.092661,302.338451L642.211909,302.323183L642.340592,302.292648L642.459841,302.277380L642.581856,302.277380L642.701105,302.262112L642.810919,302.262112L642.930167,302.246844L643.042748,302.262112L643.152562,302.262112L643.262376,302.262112L643.362756,302.277380L643.475337,302.292648L643.575717,302.307915L643.666662,302.338451L643.767042,302.353719L643.857987,302.384255L684.468041,302.536934L691.778151,301.804075L735.106611,301.269699L739.113558,303.315596L745.621904,303.544615L768.322347,303.575150L758.253164,326.507499L723.251993,385.609246L720.221461,390.494936L584.266356,390.021635Z M452.700899,721.221025L466.762193,709.220878L475.326135,703.633018L473.674424,700.991762L490.360460,657.036888L497.188683,655.662818L505.460307,655.449074L574.751959,655.723888L540.211615,711.480448L476.883341,712.533896L464.909835,733.129555L452.700899,721.221025Z M690.160843,267.970380L686.573636,267.970380L658.680137,268.031452L661.616033,263.359464L671.270248,247.954103L672.851461,245.434890L675.542141,241.159860L676.032776,240.365925L677.925374,237.342867L680.063301,233.922841L686.749642,223.281058L693.386146,212.700337L726.086412,212.303369L726.098614,212.303369L725.161733,213.799633L721.933180,218.944948L740.812577,219.372452L742.194072,219.387720L747.970743,219.418256L774.443806,219.601472L774.788205,219.616740L774.946819,219.616740L775.471468,219.616740L772.175727,225.265896L765.720125,235.495443L765.409416,235.800802L760.479084,240.778160L760.469649,240.793428L760.388638,240.885036L760.329263,240.961376L760.248251,241.052984L760.179442,241.144592L760.120067,241.220932L760.039055,241.312539L759.970246,241.404147L759.910871,241.480487L759.842061,241.572095L759.773251,241.663703L759.713876,241.740042L759.657267,241.831650L759.588458,241.923258L759.519648,242.014866L759.472474,242.091206L759.415866,242.182813L759.347056,242.274421L759.290447,242.366029L759.243274,242.442369L759.186665,242.533977L759.130057,242.625584L759.073448,242.717192L759.026275,242.793532L758.969666,242.885140L758.925259,242.976748L758.830912,243.129427L758.786504,243.221035L758.729896,243.312643L758.673288,243.404251L758.626114,243.480590L758.569506,243.572198L758.512897,243.663806L758.456289,243.755414L758.409115,243.831754L758.340306,243.923361L758.283697,244.014969L758.214888,244.106577L758.155513,244.182917L758.050099,244.274524L758.012360,244.335596L757.934116,244.442472L757.846437,244.564616L757.808698,244.625688L757.749323,244.702027L757.680514,244.793635L757.611704,244.885243L757.552330,244.961583L757.499623,245.007387L750.724237,251.114570L750.648760,251.236714L750.567750,251.328321L750.498941,251.419929L750.439566,251.496269L750.370757,251.587877L750.301948,251.679484L750.233139,251.771092L750.173764,251.847432L750.104955,251.939040L750.048348,252.030647L749.979539,252.122255L745.761807,254.702539L743.176426,256.931659L739.959842,259.313459L737.588245,259.557746L737.468999,259.573014L737.361953,259.588282L737.254908,259.603550L737.147863,259.618818L737.031383,259.649354L736.914903,259.679890L736.798423,259.710425L736.672509,259.756229L736.546594,259.802033L736.442316,259.832569L736.319168,259.893641L736.193254,259.939445L736.091742,259.985248L735.968594,260.046320L735.845446,260.107392L735.734500,260.168464L735.623554,260.229536L735.512607,260.290607L735.404428,260.366947L735.296248,260.443287L731.686998,265.573315L730.921307,266.397783L728.225956,270.443785L728.089473,270.565929L722.066522,275.909703L708.519373,287.940822L707.604262,287.940822L694.803270,287.864482L694.778867,287.864482L695.309956,287.024747L695.526945,286.673585L695.586318,286.597245L695.642924,286.505638L695.711732,286.414031L695.780539,286.322423L693.097347,286.261351L697.261318,279.344986L704.380989,268.000916L707.483856,263.038837L694.505653,262.657138L691.173558,267.970380L690.160843,267.970380Z M785.119601,366.661907L810.477204,323.484462L856.733799,323.148569L831.662803,365.547357L785.119601,366.661907Z M779.880398,393.136262L789.765742,392.876710L828.778286,393.227869L814.487366,417.824233L764.791729,419.121991L779.880398,393.136262Z M853.512294,434.374459L861.363866,434.404994L866.845434,434.420262L879.510224,434.481333L873.023799,445.061862L872.496845,445.519893L872.106345,445.855783L871.402472,446.145869L870.572146,446.344349L860.735450,446.268011L855.466837,446.283279L846.272976,446.252743L853.512294,434.374459Z " data-cartodb-id="47" data-created-at="2013-04-04T20:46:27.909Z" data-name="Cooper Point" data-updated-at="2013-04-05T01:19:01.334Z"/><path d="M1442.345889,476.742322L1424.516456,476.665984L1384.452514,476.513307L1384.330489,476.513307L1317.648599,476.269024L1316.351514,477.994271L1315.057207,479.734785L1313.760127,481.460031L1312.778638,483.108939L1311.406831,485.765512L1308.660299,490.055724L1303.181744,498.849890L1296.167335,510.270082L1286.196776,530.194320L1281.374379,539.843442L1279.146728,544.301577L1275.815265,550.942975L1268.786478,564.561645L1295.083639,562.347849L1310.954420,561.782949L1386.159063,562.042498L1424.734802,499.674343L1428.254689,499.704878L1442.345889,476.742322Z " data-cartodb-id="1" data-created-at="2013-04-04T20:46:27.909Z" data-name="Bigelow Highlands" data-updated-at="2013-04-05T01:19:01.334Z"/><path d="M1386.159063,562.042498L1310.954420,561.782949L1295.083639,562.347849L1268.786478,564.561645L1250.925172,566.057866L1221.593013,624.028638L1169.886847,727.526441L1170.011664,727.541708L1173.287509,726.900479L1176.693732,726.305053L1180.067821,725.801230L1183.419201,725.373744L1285.013963,716.793491L1287.945454,716.472876L1290.911854,716.075925L1293.900959,715.602637L1296.934395,715.037744L1299.981113,714.411782L1303.047756,713.694216L1306.139884,712.915581L1309.230309,712.060608L1312.340659,711.114031L1315.464290,710.106385L1318.586219,709.022402L1321.697022,707.877349L1324.806124,706.655959L1330.399618,703.999436L1335.946457,701.220772L1341.458843,698.319970L1346.893526,695.327562L1365.307058,685.067872L1395.959202,668.166845L1398.994293,666.472161L1402.043287,664.853814L1405.125029,663.281268L1408.232876,661.785060L1411.351845,660.349921L1414.506341,658.975852L1417.650331,657.678120L1420.808223,656.456725L1423.967813,655.311667L1427.138523,654.227678L1430.318655,653.128422L1433.491061,652.120771L1436.662385,651.174189L1439.823202,650.303945L1442.951888,649.525305L1446.740632,648.685595L1450.487821,647.952758L1454.193455,647.326792L1483.281803,601.463278L1466.803067,601.035787L1486.881408,568.210591L1471.256378,562.347849L1386.220078,562.042498L1386.159063,562.042498Z " data-cartodb-id="2" data-created-at="2013-04-04T20:46:27.909Z" data-name="Eastside" data-updated-at="2013-04-05T01:19:01.334Z"/><path d="M1473.392094,214.120261L1477.825299,206.074022L1462.534584,206.058754L1464.345340,203.127296L1448.002583,203.096760L1438.053441,219.006020L1456.348487,219.036556L1442.711354,240.304853L1498.688847,241.572095L1487.385650,259.695158L1469.528716,288.291983L1451.437277,287.772875L1451.385700,287.757607L1440.423250,287.391177L1439.809344,286.765192L1440.300855,285.238401L1440.582116,284.368130L1440.664839,283.345180L1440.674269,283.329912L1440.056569,281.742049L1438.433865,280.734366L1433.835607,280.474812L1430.480209,280.474812L1419.212156,280.642759L1432.147359,260.015784L1430.192373,260.000516L1364.656132,260.321143L1364.436508,260.321143L1358.736084,269.115475L1347.397079,286.169744L1346.378037,288.017161L1344.348277,291.757798L1343.294836,293.818965L1339.415019,301.819343L1349.880607,302.002558L1349.871178,302.017826L1346.641727,307.147836L1341.138073,315.881063L1331.913644,331.606963L1328.577560,332.049731L1327.762681,334.416248L1324.824954,342.966242L1320.615435,355.195776L1317.677918,363.745755L1312.721054,377.166156L1312.624548,377.440977L1312.405468,377.914279L1310.067705,382.845776L1304.717804,391.884304L1320.688557,391.472074L1326.505590,391.655288L1326.542196,391.655288L1316.118405,408.831527L1294.619985,408.907866L1291.128197,414.404257L1288.145557,419.076188L1284.327719,425.061143L1283.244599,426.755861L1279.543911,433.855356L1279.537257,433.885891L1277.409016,440.573154L1275.642600,448.848254L1273.827397,456.451569L1273.744789,456.802726L1273.689895,456.970671L1273.468115,457.764591L1272.444001,460.925004L1271.288449,464.100683L1269.989254,467.291629L1269.735286,467.841266L1269.696474,467.963408L1269.563389,468.238226L1268.536990,470.513110L1266.962713,473.734590L1265.825934,475.872065L1265.683424,476.162150L1265.554218,476.391165L1265.235366,476.986605L1263.383230,480.223350L1262.421659,481.780652L1260.468043,485.063200L1256.925864,492.025251L1258.730160,491.948913L1294.687966,490.590092L1289.866456,498.300255L1302.351971,498.849890L1308.660299,490.055724L1312.778638,483.108939L1313.760127,481.460031L1315.057207,479.734785L1316.351514,477.994271L1317.648599,476.269024L1317.767273,476.116347L1334.521733,475.917868L1364.568622,476.345362L1384.330489,476.513307L1384.452514,476.513307L1395.579394,476.101080L1424.516456,476.665984L1442.345889,476.742322L1448.806529,476.772857L1462.655195,476.833928L1461.769154,478.269089L1467.737244,478.208018L1472.675429,470.604716L1496.890549,470.635252L1551.937228,468.161887L1582.588538,468.222958L1624.213669,468.238226L1626.710241,464.253360L1629.255974,459.398234L1632.082988,452.466700L1642.394986,422.480895L1652.398512,398.846410L1662.362662,378.616597L1666.051232,372.662155L1677.140037,356.066042L1690.058655,337.988925L1697.057869,330.645089L1699.693226,328.293839L1710.431687,320.308746L1715.267742,317.377315L1746.603401,298.384067L1756.607662,291.192886L1800.007192,253.374227L1819.811892,236.793220L1826.487619,231.831128L1850.628314,215.677597L1848.815352,214.898929L1829.396727,214.593569L1785.179913,213.921777L1755.322150,213.509541L1665.584098,213.448469L1574.655838,213.753829L1473.392094,214.120261Z M1507.139877,228.640120L1515.992789,214.425621L1533.871311,214.379817L1540.469878,214.501961L1548.111082,214.654641L1539.788102,228.090473L1524.386857,228.273689L1514.026352,228.533245L1507.139877,228.640120Z " data-cartodb-id="3" data-created-at="2013-04-04T20:46:27.909Z" data-name="North East" data-updated-at="2013-04-05T01:19:01.334Z"/><path d="M1022.683583,965.847246L1021.493890,965.480838L1020.234977,964.534282L1019.550922,962.992312L1018.891527,961.786216L1016.040504,959.404559L1007.791159,952.519123L1002.417283,948.015344L997.039062,945.160405L966.561345,944.946666L966.305045,944.946666L948.216905,944.809262L914.483950,944.748194L908.509499,948.595492L891.391453,959.801502L877.934589,968.931186L851.340664,1011.358164L997.315209,1011.632970L1025.545098,965.877780L1023.766626,966.030451L1022.683583,965.847246Z " data-cartodb-id="7" data-created-at="2013-04-04T20:46:27.909Z" data-name="Carlyon North" data-updated-at="2013-04-05T01:19:01.334Z"/><path d="M1401.567867,764.122213L1401.034348,763.404650L1400.435954,762.732888L1399.803733,762.076394L1399.131045,761.465702L1398.412326,760.870278L1397.640936,760.320655L1396.826297,759.801566L1395.980612,759.313013L1395.091678,758.854993L1394.467374,758.442776L1393.886320,758.000024L1393.324109,757.526738L1392.817352,757.022917L1392.332222,756.503828L1391.880920,755.969472L1391.472870,755.404582L1391.095867,754.809157L1390.764897,754.198464L1390.467757,753.572505L1390.213868,752.916010L1389.993809,752.244248L1389.819783,751.557219L1389.667383,750.854923L1389.582642,750.122092L1389.510106,749.389260L1389.493025,748.625894L1389.512556,747.862528L1389.565917,747.083895L1389.665311,746.289994L1389.810740,745.480826L1389.980576,744.671658L1390.196447,743.847223L1390.458351,743.007520L1390.744663,742.167817L1391.079792,741.328114L1391.448750,740.473143L1391.854320,739.618173L1400.304933,725.785963L1401.285063,723.663801L1402.173132,721.572174L1402.987984,719.480546L1403.729620,717.388918L1404.366991,715.327824L1404.933927,713.281997L1405.396599,711.266705L1336.378247,711.831598L1324.629371,714.930873L1314.498170,718.335494L1303.405868,723.297385L1292.125109,728.564620L1282.118920,733.526506L1259.346128,770.229130L1284.405366,771.526850L1295.099084,767.190939L1314.679309,766.549713L1284.082028,815.282816L1284.716643,815.282816L1294.986097,816.519461L1303.656182,818.488933L1312.019042,820.580543L1320.573308,820.977491L1378.669621,821.069094L1400.304456,786.046032L1402.235698,782.916241L1402.672694,781.832265L1403.051454,780.763556L1403.393604,779.694846L1403.677519,778.641404L1403.915403,777.603229L1404.107255,776.580321L1404.250293,775.557413L1404.337879,774.565040L1404.376650,773.572666L1404.372173,772.610827L1404.309462,771.664255L1404.200718,770.732951L1404.045944,769.816913L1403.835717,768.931411L1403.579459,768.061175L1403.279952,767.221474L1402.924993,766.412307L1402.524002,765.618408L1402.067559,764.855043L1401.567867,764.122213Z " data-cartodb-id="8" data-created-at="2013-04-04T20:46:27.909Z" data-name="Indian Creek" data-updated-at="2013-04-05T01:19:01.334Z"/><path d="M1169.886847,727.526441L1169.858577,727.572243L1170.011664,727.541708L1199.925111,731.037930L1223.215651,730.534107L1231.652437,730.824187L1179.950990,807.954543L1177.375374,813.710291L1173.268588,813.542351L1158.289884,812.916395L1158.157980,813.130136L1153.975190,812.946929L1146.781839,812.717921L1141.518320,811.359137L1136.907259,809.160655L1133.544775,805.710258L1131.491197,801.740774L1130.358782,797.267470L1130.844870,792.366680L1132.819605,788.000242L1136.476105,782.213947L1148.017962,764.244351L1155.193637,753.725178L1160.473063,744.854866L1162.249520,741.877737L1166.936008,732.900545L1169.886847,727.526441Z " data-cartodb-id="9" data-created-at="2013-04-04T20:46:27.909Z" data-name="Fain Park" data-updated-at="2013-04-05T01:19:01.334Z"/><path d="M1999.343149,327.225088L1992.797495,327.194553L1957.102024,327.164017L1948.576878,340.874548L1949.101554,340.874548L1940.546124,354.753009L1939.948235,354.753009L1939.797431,354.997294L1982.169392,355.104169L1999.343149,327.225088Z " data-cartodb-id="10" data-created-at="2013-04-04T20:46:27.909Z" data-name="Mapleview" data-updated-at="2013-04-05T01:19:01.334Z"/><path d="M1487.385650,259.695158L1498.688847,241.572095L1444.214245,240.854500L1419.371349,280.444276L1436.583704,280.490080L1436.815532,280.490080L1437.047359,280.490080L1437.269757,280.505348L1437.482725,280.535883L1437.683491,280.566419L1437.896459,280.596955L1438.099997,280.642759L1438.291334,280.688563L1438.433865,280.734366L1438.473241,280.749634L1438.655148,280.810706L1438.837055,280.871778L1439.009533,280.948117L1439.160379,281.039725L1439.320655,281.116064L1439.471501,281.207672L1439.600716,281.314547L1439.729931,281.421423L1439.859146,281.528298L1439.966730,281.650441L1440.056569,281.742049L1440.074313,281.772585L1440.169696,281.894728L1440.267850,282.032139L1440.341602,282.169551L1440.415353,282.306962L1440.479675,282.459641L1440.531795,282.612320L1440.583915,282.764999L1440.614405,282.932946L1440.654324,283.085626L1440.672611,283.253573L1440.674269,283.329912L1440.664839,283.345180L1440.669268,283.436788L1440.675355,283.604735L1440.659810,283.787950L1440.644265,283.971165L1440.616519,284.154380L1440.588773,284.337594L1440.582116,284.368130L1440.536625,284.520809L1440.487248,284.719292L1440.422897,284.902507L1440.349117,285.100990L1440.300855,285.238401L1439.809344,286.765192L1440.423250,287.391177L1451.385700,287.757607L1469.528716,288.291983L1487.385650,259.695158Z " data-cartodb-id="11" data-created-at="2013-04-04T20:46:27.909Z" data-name="Devon Place" data-updated-at="2013-04-05T01:19:01.334Z"/><path d="M1049.230770,746.503737L914.089558,748.534290L913.590671,749.480864L913.331868,750.137359L913.094693,750.778586L912.737174,751.496150L912.199986,752.366387L911.732634,753.083951L911.360133,753.786247L911.218420,754.549613L911.097728,755.160305L911.055210,755.664126L910.833501,756.122145L910.459309,756.748105L909.975891,757.511471L909.453082,758.259569L908.954074,758.870261L908.294244,759.603091L907.072693,760.870278L906.525347,761.282495L905.917113,762.030593L905.548484,762.687086L905.533158,763.206175L905.389758,763.893203L904.722202,764.717637L904.203533,766.091694L904.218041,766.305436L904.341570,767.252008L904.860509,769.297826L905.098902,771.679523L905.595004,773.465795L906.301831,775.068860L907.249209,776.183372L908.915870,776.824598L909.551840,777.435289L909.699324,778.580335L910.975605,779.557441L911.928084,780.900961L912.478268,783.252121L912.660500,785.191065L912.026913,787.542224L909.960519,790.000254L908.563676,791.175833L906.466111,792.122404L904.342292,792.656758L902.895574,792.687292L901.065586,792.824698L898.840739,793.206379L896.539713,794.443027L895.930890,795.053717L895.330555,796.046089L894.997013,796.962124L895.711005,798.336177L898.200464,799.206411L899.944863,799.939239L901.946631,800.610998L902.353217,801.771309L902.523602,803.175895L902.117460,805.435448L901.342422,807.679732L900.784589,809.374396L899.981754,811.466007L899.219240,813.175938L897.585293,814.992738L896.991929,815.420221L894.646745,817.084349L892.963970,817.695038L891.150048,818.992752L890.642432,820.091992L892.119935,821.771387L893.024147,822.916428L894.029234,823.878263L893.869068,825.343916L892.381329,828.901177L890.629926,833.221797L888.976634,837.343942L887.036191,841.832498L885.129884,845.771434L884.426083,849.343956L884.681154,852.351591L884.961803,856.504263L884.849606,860.443194L884.160235,863.893574L881.254629,869.313416L878.275195,874.595852L872.600168,881.695075L871.068583,884.809571L870.373681,886.153079L869.911932,887.771396L869.976688,889.466047L869.847059,890.763753L870.339670,891.725582L870.579405,892.840083L870.103510,894.916412L869.783744,896.443124L869.531008,897.801898L869.468177,899.466014L888.190482,893.710309L888.202687,893.710309L890.821779,892.946953L893.466352,892.122528L896.112000,891.237034L898.758720,890.290472L901.418718,889.282842L904.045959,888.229410L906.686478,887.114909L909.303661,885.939339L911.912496,884.717968L914.510201,883.435529L917.087353,882.107288L919.643953,880.733245L922.167796,879.313401L924.668305,877.832487L925.109181,877.572946L926.987455,876.427910L929.815776,874.870661L932.025720,873.603487L932.037924,873.603487L936.253119,871.084407L982.597391,841.038604L992.682636,834.030959L1049.230770,746.503737Z " data-cartodb-id="12" data-created-at="2013-04-04T20:46:27.909Z" data-name="South Capitol" data-updated-at="2013-04-05T01:19:01.334Z"/><path d="M1882.259618,311.941951L1874.196729,324.507409L1938.173614,325.667767L1945.894509,313.102310L1882.259618,311.941951Z " data-cartodb-id="14" data-created-at="2013-04-04T20:46:27.909Z" data-name="Woodard Glen" data-updated-at="2013-04-05T01:19:01.334Z"/><path d="M1069.078213,842.519522L1043.878985,842.198911L1051.556623,829.481331L1026.993416,829.435529L1015.345704,846.687465L994.453664,846.763801L969.492721,872.595855L932.037924,873.603487L932.025720,873.603487L929.815776,874.870661L925.109181,877.572946L940.909525,901.786615L948.344683,901.466006L947.995405,904.504161L978.312258,900.290438L974.552998,910.397265L980.283814,910.702607L975.381064,918.687299L990.510133,919.130044L995.184567,909.893450L1027.228725,909.664444L1047.289636,875.908827L1040.756839,875.756155L1048.018157,863.435559L1056.139430,863.130216L1069.078213,842.519522Z " data-cartodb-id="15" data-created-at="2013-04-04T20:46:27.909Z" data-name="Wildwood" data-updated-at="2013-04-05T01:19:01.334Z"/><path d="M1582.588538,468.222958L1551.937228,468.161887L1539.199602,488.834312L1549.832435,488.925918L1530.877699,519.690205L1502.049984,519.461190L1505.254479,514.270200L1500.336822,514.270200L1498.699393,514.056453L1510.160020,496.025375L1479.226524,495.689487L1481.931660,491.307672L1483.908466,491.307672L1496.890549,470.635252L1472.675429,470.604716L1468.661056,477.047675L1470.328916,477.093478L1469.706293,478.299624L1461.769154,478.269089L1462.655195,476.833928L1459.628991,476.833928L1448.806529,476.772857L1442.345889,476.742322L1428.254689,499.704878L1424.734802,499.674343L1386.159063,562.042498L1386.220078,562.042498L1471.256378,562.347849L1504.606084,561.874555L1522.271960,561.920357L1538.693145,561.966160L1553.709127,537.797584L1561.171540,525.629306L1568.005422,514.499214L1569.383107,512.346479L1576.631823,500.544598L1582.446885,500.514063L1584.011403,497.979634L1592.379568,497.964366L1594.787260,493.826834L1597.204085,490.544289L1600.171748,485.460159L1601.380964,481.643243L1604.640999,474.543777L1594.100883,474.559045L1594.628695,473.704055L1586.700994,473.658252L1584.938474,476.513307L1577.517712,476.436968L1582.588538,468.222958Z " data-cartodb-id="16" data-created-at="2013-04-04T20:46:27.909Z" data-name="Upper Eastside" data-updated-at="2013-04-05T01:19:01.334Z"/><path d="M1368.810523,254.168161L1374.576916,246.274627L1366.326786,245.389086L1360.242360,244.671492L1347.647313,241.694238L1343.886900,242.824068L1343.210328,245.618105L1343.130399,245.984536L1342.948910,246.732666L1342.645938,247.618208L1342.259798,248.381606L1341.940737,249.312951L1341.757599,249.984741L1341.519586,250.488584L1341.391916,251.129838L1341.072915,251.725288L1340.803840,252.259667L1340.521444,252.855117L1340.209047,253.755926L1340.095820,254.275036L1339.751243,255.267453L1339.608604,255.893439L1338.902942,257.114875L1338.490169,258.000416L1338.094608,258.779081L1337.623600,259.679890L1337.250736,260.718110L1336.886186,261.802134L1336.683078,262.565531L1336.555898,263.680090L1336.431008,264.336612L1336.547909,265.115276L1336.396915,266.031353L1333.782044,272.733975L1333.457516,273.298888L1333.174600,273.756926L1332.678669,274.520322L1332.200435,275.650149L1331.898658,276.138722L1331.242411,277.161673L1330.808608,277.863997L1330.145703,278.917484L1329.664749,279.696148L1329.366863,280.138918L1328.320083,281.833656L1327.809722,282.719196L1327.081346,284.016968L1326.426224,284.978847L1325.707324,285.925457L1324.993967,286.902604L1324.267292,287.940822L1323.552820,288.979039L1322.948162,290.017257L1322.777217,291.024939L1322.713894,291.818870L1322.521360,292.505925L1322.084218,293.391464L1321.840647,294.200663L1321.512243,294.811379L1321.127258,295.513702L1320.747278,296.109150L1320.367298,296.704598L1319.841978,297.574868L1319.078133,298.811568L1318.519520,299.834517L1318.135079,300.674251L1317.704603,301.529253L1317.491021,302.033093L1317.255808,302.552202L1317.168705,302.811756L1317.116551,302.994971L1317.013360,303.300328L1316.892389,303.911044L1316.689319,304.674438L1316.662614,305.468369L1316.736870,306.079084L1316.594269,306.705067L1316.551512,307.208908L1316.570305,307.850159L1316.734402,308.552481L1316.680527,309.331143L1316.625570,309.834983L1316.740322,310.399895L1316.843987,310.903735L1316.781800,311.636593L1316.503298,312.522130L1316.212596,313.407667L1315.850342,314.369544L1315.379388,315.270348L1315.075402,315.881063L1314.727039,316.583385L1314.365360,317.346779L1313.994252,318.125440L1313.806169,318.904102L1313.266440,319.896513L1312.823211,320.949996L1312.545262,321.972943L1312.265684,322.583658L1311.265566,331.927588L1310.176141,334.126159L1309.807821,334.920087L1309.406760,336.004105L1308.992386,337.149193L1308.303464,338.462228L1307.875779,339.668388L1307.287794,341.134101L1306.595522,342.966242L1305.996454,344.370883L1305.579883,345.302221L1305.243164,346.538916L1304.758350,348.035164L1304.499843,349.164984L1304.101572,350.264268L1303.480871,352.020068L1303.166356,353.043013L1302.891769,354.218635L1302.742538,355.211044L1302.505683,355.989703L1302.091336,357.134790L1301.927133,358.111930L1301.738528,359.089071L1301.410159,360.035676L1300.939252,360.936477L1300.592026,361.913617L1300.149400,363.104507L1299.436104,364.753431L1299.222552,365.593160L1299.010111,366.371819L1298.777696,367.577976L1298.487052,368.463509L1298.368898,369.425381L1298.176419,370.784215L1297.930150,371.578141L1297.786486,372.601084L1297.734344,373.120189L1297.657795,373.975186L1297.635048,374.723309L1293.825787,384.250412L1293.278920,385.135944L1292.838542,385.868798L1291.673819,387.853610L1290.718748,389.380388L1289.995513,390.571275L1289.496351,391.517878L1288.963356,392.479748L1288.426481,393.487421L1287.845237,394.586701L1287.329995,395.579106L1286.822517,396.479905L1286.204113,397.441775L1285.420986,398.571590L1284.683337,399.548727L1284.012246,400.556400L1283.598500,401.167110L1283.277931,401.686215L1282.869732,402.327461L1282.311227,403.014510L1281.694487,403.716827L1280.942416,404.480215L1279.941315,405.350478L1279.243042,406.006992L1278.353426,406.953593L1277.692868,407.549035L1276.890334,408.571975L1276.360118,409.213221L1275.527076,410.068216L1274.808840,410.816336L1274.039024,411.549188L1273.323003,412.175166L1272.651911,412.846947L1272.460570,413.137034L1272.730136,413.411854L1272.958095,413.457657L1273.113402,413.640870L1273.202710,413.930957L1273.306434,414.098902L1273.315316,414.282115L1272.970908,414.938629L1272.252690,416.022639L1271.767406,416.709688L1270.937156,417.915840L1270.319877,418.816637L1269.833489,419.564756L1269.411991,420.267072L1268.939473,421.091530L1268.764794,421.809114L1269.043808,422.404556L1269.184141,422.572501L1269.612339,422.847321L1270.152570,422.999998L1270.947378,423.076337L1271.538630,423.106872L1272.242476,423.152675L1272.931906,423.320620L1273.147665,423.366424L1273.468257,423.519101L1273.437778,424.022936L1273.232589,424.572575L1272.861011,425.213820L1264.059546,445.138200L1263.888229,446.008460L1263.574448,447.840585L1263.326637,449.229946L1262.979001,450.741449L1262.587036,452.680447L1262.188391,454.314091L1261.894556,455.718720L1261.447141,457.688253L1261.114499,459.215022L1260.333751,461.230358L1259.712741,463.184622L1258.972451,464.818264L1258.243263,466.512978L1258.311497,466.619851L1257.482489,468.436706L1256.904109,469.551246L1256.218152,470.879535L1255.417395,472.314696L1254.572279,473.841464L1253.773200,475.352964L1252.828836,477.139281L1252.105180,478.528639L1251.148620,480.314956L1250.025149,482.391359L1248.957672,484.238746L1247.308491,487.047996L1243.157698,493.078719L1242.678066,494.132187L1242.117421,494.941372L1241.684878,495.582614L1241.272290,496.132249L1240.755431,496.712420L1239.559779,498.055972L1238.622007,499.139975L1237.495071,500.056034L1236.556150,500.865219L1235.871233,501.460657L1235.054863,502.071362L1234.098764,502.987420L1233.344559,503.872943L1232.609208,504.727931L1232.143990,505.659257L1231.225706,507.186020L1230.667845,508.010472L1229.630784,509.018136L1228.563821,510.331152L1227.611604,511.201407L1226.366001,512.270141L1224.888604,513.674762L1223.949746,514.819834L1223.293691,515.506877L1222.759085,516.056511L1220.499737,518.193978L1219.073411,519.812346L1218.055211,520.789473L1217.033080,521.476516L1215.753593,522.224629L1215.082505,522.560516L1214.329352,523.049080L1213.642765,523.568179L1212.939580,524.331559L1212.619652,524.988067L1212.242066,525.797250L1211.883334,526.575898L1211.557976,527.873644L1211.596382,528.621757L1211.497784,529.354602L1211.144607,530.163785L1210.860712,530.682884L1209.822051,531.950095L1209.406122,532.347052L1207.508610,538.286147L1207.597452,538.774710L1208.045145,539.156400L1208.270994,539.660231L1207.981035,540.347272L1207.760936,540.881638L1207.418294,541.614482L1207.148802,542.011439L1206.211002,542.759551L1208.005146,544.438986L1215.160394,530.102715L1215.593436,529.262996L1216.063087,528.423278L1216.557144,527.583560L1217.109438,526.728574L1217.676712,525.888855L1218.268393,525.049137L1218.908884,524.209418L1219.573782,523.369700L1220.265861,522.545249L1220.982346,521.720798L1221.747642,520.896346L1222.515715,520.087163L1234.893187,507.491373L1243.517640,507.476105L1246.848351,503.781338L1248.110555,502.468321L1248.518162,502.025559L1249.333377,501.140036L1249.797546,500.605669L1250.507390,499.811751L1250.987637,499.231581L1251.629818,498.468199L1252.107290,497.872761L1252.712864,497.109378L1253.187562,496.498672L1253.747102,495.750558L1254.197395,495.139852L1254.732531,494.391737L1255.167847,493.765763L1255.666376,493.017649L1256.077288,492.391675L1256.771010,491.307672L1260.468043,485.063200L1262.421659,481.780652L1263.383230,480.223350L1265.235366,476.986605L1265.554218,476.391165L1265.825934,475.872065L1266.962713,473.734590L1268.536990,470.513110L1269.563389,468.238226L1269.735286,467.841266L1269.989254,467.291629L1271.288449,464.100683L1272.444001,460.925004L1273.468115,457.764591L1273.689895,456.970671L1273.827397,456.451569L1275.642600,448.848254L1277.409016,440.573154L1277.716742,439.244862L1278.092136,437.886035L1278.528543,436.527208L1279.023189,435.153113L1279.537257,433.885891L1279.543911,433.855356L1279.588276,433.763750L1280.202174,432.374387L1280.874311,430.969755L1281.598034,429.580392L1282.401625,428.160493L1283.244599,426.755861L1284.327719,425.061143L1288.145557,419.076188L1291.128197,414.404257L1294.619985,408.907866L1316.118405,408.831527L1326.517792,391.655288L1326.505590,391.655288L1320.688557,391.472074L1304.717804,391.884304L1310.067705,382.845776L1312.405468,377.914279L1312.721054,377.166156L1317.677918,363.745755L1320.615435,355.195776L1324.824954,342.966242L1327.762681,334.416248L1328.577560,332.049731L1331.913644,331.606963L1341.138073,315.881063L1346.641727,307.147836L1347.607459,305.544708L1349.871178,302.017826L1349.880607,302.002558L1339.415019,301.819343L1339.459397,301.727736L1342.131010,296.078614L1343.294836,293.818965L1344.348277,291.757798L1345.053345,290.398955L1346.378037,288.017161L1347.397079,286.169744L1348.207542,284.719292L1355.033319,274.596662L1358.736084,269.115475L1364.436508,260.321143L1364.656132,260.321143L1368.810523,254.168161Z " data-cartodb-id="17" data-created-at="2013-04-04T20:46:27.909Z" data-name="East Bay Drive" data-updated-at="2013-04-05T01:19:01.334Z"/><path d="M1354.423426,956.748094L1342.412513,956.473287L1332.810047,973.068548L1344.244628,973.328088L1354.423426,956.748094Z " data-cartodb-id="18" data-created-at="2013-04-04T20:46:27.909Z" data-name="The Birches" data-updated-at="2013-04-05T01:19:01.334Z"/><path d="M1212.762984,1199.018122L1190.946210,1198.926522L1168.374229,1226.009626L1162.256495,1233.337625L1163.152178,1233.963558L1164.130513,1234.574224L1165.152090,1235.154357L1166.226322,1235.688690L1167.341002,1236.177223L1168.486717,1236.635222L1169.685087,1237.047422L1170.936112,1237.413822L1172.205965,1237.749688L1173.516266,1238.039754L1174.879221,1238.284021L1178.833504,1239.215287L1212.762984,1199.018122Z " data-cartodb-id="19" data-created-at="2013-04-04T20:46:27.909Z" data-name="Sequoia Park" data-updated-at="2013-04-05T01:19:01.334Z"/><path d="M1474.894048,879.038592L1474.881844,879.038592L1404.034872,878.168365L1401.280514,878.122563L1394.386289,889.099636L1383.390574,906.626290L1440.508233,907.496515L1440.520438,907.496515L1456.860945,907.756056L1474.894048,879.038592Z " data-cartodb-id="20" data-created-at="2013-04-04T20:46:27.909Z" data-name="Castlewood" data-updated-at="2013-04-05T01:19:01.334Z"/><path d="M1572.657129,815.328617L1539.239393,871.099674L1539.107538,871.313414L1603.899542,870.504255L1604.031392,870.290514L1608.396499,862.779071L1610.443210,858.412660L1611.026803,855.725637L1610.382556,853.466095L1610.226490,851.206552L1610.334722,850.595865L1611.773675,846.443190L1612.093036,842.107308L1611.435431,839.038601L1610.418086,837.008064L1608.631484,833.771417L1607.733815,831.527137L1607.037959,825.572924L1609.084878,821.206499L1609.916170,817.267555L1608.763079,814.626325L1604.425298,814.931669L1572.657129,815.328617Z " data-cartodb-id="21" data-created-at="2013-04-04T20:46:27.909Z" data-name="Woodfield Estates" data-updated-at="2013-04-05T01:19:01.334Z"/><path d="M1013.198734,267.466539L1012.325256,267.359663L1021.218129,253.084136L1021.331324,252.900921L1000.855272,253.023064L985.119991,253.114672L983.802250,253.114672L987.970589,246.427307L993.072871,238.228410L992.294760,238.243678L978.235547,238.426893L966.237006,257.649253L959.636103,268.214667L959.010757,269.207083L958.850396,269.466638L958.472153,269.466638L939.625411,269.558245L939.269921,271.298789L936.591063,280.749634L936.127408,280.749634L930.387269,299.895588L928.872855,303.117114L928.374292,309.315875L927.728863,317.529993L927.700483,317.911690L927.724887,317.911690L928.017726,317.911690L940.896071,317.606333L953.750009,317.300975L954.964633,317.270440L950.496600,324.522677L951.045675,324.522677L963.123155,324.308927L962.783605,324.858570L960.840631,328.003749L960.950446,328.003749L975.762242,327.728928L977.007242,325.713570L991.696769,301.895682L992.007428,301.590325L994.250839,299.361212L998.688910,299.208533L1000.552594,296.231293L1009.324058,282.230622L1010.829356,279.833559L1013.371151,279.787755L1013.458902,279.329718L1014.949250,270.794948L1010.337872,272.077454L1011.456460,270.306374L1013.198734,267.466539Z " data-cartodb-id="23" data-created-at="2013-04-04T20:46:27.909Z" data-name="Burbank-Elliot" data-updated-at="2013-04-05T01:19:01.334Z"/><path d="M642.631164,302.414791L642.540219,302.384255L642.439839,302.368987L642.348894,302.338451L642.248514,302.323183L642.148135,302.307915L642.047755,302.292648L641.925739,302.292648L641.815925,302.292648L641.706111,302.292648L641.596297,302.292648L641.474282,302.292648L641.355033,302.307915L641.245219,302.307915L641.125971,302.323183L640.997288,302.353719L640.878040,302.368987L640.749357,302.399523L640.620674,302.430059L640.491991,302.460594L640.375510,302.491130L640.246827,302.521666L640.120912,302.567470L639.982795,302.613273L639.856879,302.659077L639.730963,302.704881L639.607815,302.765952L639.481899,302.811756L639.358751,302.872827L639.223401,302.933899L639.100253,302.994971L638.967670,303.071310L638.856723,303.132382L638.736342,303.208721L638.613193,303.269793L638.505013,303.346132L638.384632,303.422471L638.276453,303.498811L638.146637,303.590418L638.050659,303.666758L637.933045,303.758365L637.837067,303.834704L637.731654,303.926312L637.626242,304.017919L637.533031,304.109526L637.439820,304.201134L637.346609,304.292741L637.253398,304.384348L637.172389,304.475956L637.091379,304.567563L637.022572,304.659170L636.932128,304.766046L636.863320,304.857653L636.806714,304.949260L636.737906,305.040868L636.671866,305.147743L636.627461,305.239350L636.570855,305.330958L636.517016,305.437833L636.484814,305.529440L636.440409,305.621047L596.718052,368.723062L583.039492,390.052171L719.006800,390.525472L722.025133,385.639781L757.026331,326.538035L767.086092,303.620954L744.395082,303.575150L737.898938,303.346132L733.879790,301.300235L690.563531,301.834611L683.253420,302.567470L642.631164,302.414791Z " data-cartodb-id="24" data-created-at="2013-04-04T20:46:27.909Z" data-name="Goldcrest" data-updated-at="2013-04-05T01:19:01.334Z"/><path d="M855.519171,323.179105L809.250374,323.514998L783.892751,366.692443L830.448155,365.577893L855.519171,323.179105Z " data-cartodb-id="26" data-created-at="2013-04-04T20:46:27.909Z" data-name="The Woods" data-updated-at="2013-04-05T01:19:01.334Z"/><path d="M734.105558,712.167480L672.040668,711.846865L637.390746,766.900861L699.259514,767.007732L734.105558,712.167480Z " data-cartodb-id="27" data-created-at="2013-04-04T20:46:27.909Z" data-name="Wellington West" data-updated-at="2013-04-05T01:19:01.334Z"/><path d="M1159.896768,1016.029855L1162.634904,1011.907775L1114.964874,1011.724572L1065.554953,1095.265093L1069.600930,1095.097158L1071.763288,1092.501793L1072.760668,1092.349124L1075.214962,1089.280486L1077.444883,1087.723266L1080.434650,1086.517184L1088.804352,1084.227154L1103.790353,1079.402824L1110.913133,1079.173821L1112.158242,1085.188967L1109.577869,1090.975107L1111.303818,1094.410149L1159.896768,1016.029855Z " data-cartodb-id="29" data-created-at="2013-04-04T20:46:27.909Z" data-name="Holiday Hills" data-updated-at="2013-04-05T01:19:01.334Z"/><path d="M1262.066988,1008.549042L1378.598987,821.618714L1370.834775,821.404973L1322.246992,821.053827L1320.573308,820.977491L1312.019042,820.580543L1303.656182,818.488933L1294.986097,816.519461L1284.716643,815.282816L1284.082028,815.282816L1256.974504,815.404953L1241.825751,815.252281L1220.793333,814.824799L1206.980202,814.366782L1197.682802,814.244644L1185.100148,813.908765L1177.399783,813.710291L1177.375374,813.710291L1173.268588,813.542351L1158.289884,812.916395L1158.157980,813.130136L1149.507889,827.206516L1154.533978,835.832489L1156.574869,835.847756L1165.563071,821.618714L1199.189061,836.366841L1219.862399,837.099667L1185.641838,894.259925L1165.300320,894.412597L1164.545560,901.114862L1159.977179,909.725512L1151.529009,922.290332L1145.968686,935.832230L1141.741950,956.213748L1138.819771,960.198445L1131.493621,968.809049L1125.907262,977.389114L1106.684617,1011.495567L1162.634904,1011.907775L1163.487043,1010.625350L1262.066988,1008.549042Z M1262.066988,1008.549042L1262.048153,1008.579576L1262.225654,1008.549042L1262.066988,1008.549042Z " data-cartodb-id="30" data-created-at="2013-04-04T20:46:27.909Z" data-name="Cain Road" data-updated-at="2013-04-05T01:19:01.334Z"/><path d="M1163.547685,1010.823821L1163.441974,1011.113893L1163.210076,1011.113893L1149.957033,1032.716629L1149.834968,1037.663116L1152.786021,1041.525648L1155.509764,1042.472198L1166.052640,1042.792803L1177.717416,1042.640134L1189.133499,1042.930205L1210.901084,1042.960739L1239.782927,1043.250811L1239.792344,1043.235544L1240.136880,1043.250811L1261.653748,1008.625377L1167.058241,1010.732219L1163.547685,1010.823821Z " data-cartodb-id="31" data-created-at="2013-04-04T20:46:27.909Z" data-name="Nottingham" data-updated-at="2013-04-05T01:19:01.334Z"/><path d="M734.069446,260.473823L734.177625,260.397483L734.288572,260.336411L734.408953,260.260071L734.519899,260.199000L734.630845,260.137928L734.741792,260.076856L734.864940,260.015784L734.978653,259.969981L735.092366,259.924177L735.206079,259.878373L735.331993,259.832569L735.445707,259.786765L735.562186,259.756229L735.688101,259.710425L735.804581,259.679890L735.911626,259.664622L736.028106,259.634086L736.147353,259.618818L736.254398,259.603550L736.361443,259.588282L738.745242,259.343995L741.961826,256.962195L744.535007,254.733075L748.764941,252.152791L748.821549,252.061183L748.890358,251.969575L748.946966,251.877968L749.006341,251.801628L749.075150,251.710020L749.143959,251.618413L749.212768,251.526805L749.272143,251.450465L749.353153,251.358857L749.421962,251.267250L749.509641,251.145106L756.272828,245.037923L756.316100,245.007387L756.384909,244.915779L756.465920,244.824171L756.513094,244.747831L756.581903,244.656224L756.631844,244.595152L756.719523,244.473008L756.785566,244.366132L756.823305,244.305060L756.940919,244.213453L757.000294,244.137113L757.056903,244.045505L757.125712,243.953897L757.182321,243.862289L757.241696,243.785950L757.298304,243.694342L757.354912,243.602734L757.411521,243.511126L757.458695,243.434786L757.515303,243.343179L757.559710,243.251571L757.616319,243.159963L757.698465,243.007283L757.755073,242.915676L757.799481,242.824068L757.846654,242.747728L757.903263,242.656120L757.959871,242.564513L758.016480,242.472905L758.075855,242.396565L758.132463,242.304957L758.189072,242.213349L758.257882,242.121742L758.305055,242.045402L758.373865,241.953794L758.430474,241.862186L758.489849,241.785846L758.558659,241.694238L758.627469,241.602631L758.696278,241.511023L758.755654,241.434683L758.824463,241.343075L758.893273,241.251467L758.952648,241.175128L759.033660,241.083520L759.102469,240.991912L759.174046,240.915572L759.255057,240.823964L759.264492,240.808696L764.194827,235.831338L764.493334,235.525979L770.961143,225.296432L774.256886,219.647276L773.720036,219.647276L773.573623,219.647276L773.207588,219.647276L746.746725,219.464060L740.979490,219.418256L739.597995,219.402988L720.696961,218.990752L723.934952,213.830169L724.884034,212.333905L724.871833,212.333905L692.171566,212.730873L685.535057,223.311594L678.848712,233.953377L676.710783,237.373403L674.818184,240.396461L674.315346,241.190396L671.636866,245.465426L670.046217,247.999907L660.389228,263.389999L657.465531,268.061988L685.359031,268.000916L688.934037,268.000916L689.958953,268.000916L693.291050,262.687674L706.269253,263.069373L703.154183,268.031452L696.034506,279.375522L691.882734,286.291887L694.553724,286.352959L694.484917,286.444566L694.428311,286.536174L694.359503,286.627781L694.312332,286.704121L694.095342,287.055283L693.564253,287.895018L693.588656,287.895018L706.389648,287.971357L707.292558,287.971357L720.851914,275.940239L726.862666,270.596465L726.999149,270.474321L729.706704,266.428319L730.460194,265.603850L734.069446,260.473823Z " data-cartodb-id="32" data-created-at="2013-04-04T20:46:27.909Z" data-name="Cooper Crest" data-updated-at="2013-04-05T01:19:01.334Z"/><path d="M574.751959,655.723888L505.460307,655.449074L497.188683,655.662818L490.360460,657.036888L473.674424,700.991762L475.326135,703.633018L466.762193,709.220878L452.700899,721.221025L464.909835,733.129555L476.883341,712.533896L540.211615,711.480448L574.751959,655.723888Z " data-cartodb-id="33" data-created-at="2013-04-04T20:46:27.909Z" data-name="Friendly Village" data-updated-at="2013-04-05T01:19:01.334Z"/><path d="M1029.367813,241.236199L1030.435605,238.915468L1030.383736,238.090998L1030.596801,237.785639L993.072871,238.228410L987.970589,246.427307L988.608662,245.572301L985.758059,252.259667L985.119991,253.114672L1000.855272,253.023064L1021.331324,252.900921L1021.218129,253.084136L1022.011214,253.084136L1025.580762,247.267045L1026.735995,245.495961L1029.367813,241.236199Z " data-cartodb-id="34" data-created-at="2013-04-04T20:46:27.909Z" data-name="Lenox Knoll" data-updated-at="2013-04-05T01:19:01.334Z"/><path d="M1434.617205,1521.415612L1432.101527,1385.789402L1431.947657,1382.751379L1431.919685,1379.667557L1432.073052,1376.507401L1432.355114,1373.316711L1432.799696,1370.080221L1433.394591,1366.797930L1434.139798,1363.469840L1435.038114,1360.111215L1436.089540,1356.722056L1437.281867,1353.302363L1438.617894,1349.867402L1440.094822,1346.401908L1441.718244,1342.936412L1443.494775,1339.440382L1445.405592,1335.944351L1494.405828,1257.306252L1497.674974,1251.627066L1500.169938,1248.253140L1502.786974,1244.879212L1505.507259,1241.535817L1508.340204,1238.207688L1511.298014,1234.894824L1514.359070,1231.612492L1517.523373,1228.360693L1520.781508,1225.154693L1524.152300,1221.963958L1527.607511,1218.834289L1531.165966,1215.735153L1532.885267,1214.391685L1534.552950,1213.032950L1536.200046,1211.628414L1537.798318,1210.223879L1539.342178,1208.788810L1540.856040,1207.323207L1542.308872,1205.857605L1543.719499,1204.361468L1545.069098,1202.865331L1546.367079,1201.353928L1547.613445,1199.827258L1548.798781,1198.300587L1549.932502,1196.758649L1550.992988,1195.216711L1552.004653,1193.674773L1552.943083,1192.132835L1553.820486,1190.590897L1554.636861,1189.048958L1555.392208,1187.507019L1556.077115,1185.980347L1556.691583,1184.468941L1557.245023,1182.957535L1557.728024,1181.461395L1558.137792,1179.965256L1558.479913,1178.499649L1558.751595,1177.049309L1558.955631,1175.629503L1559.086434,1174.209696L1559.149591,1172.820422L1559.132896,1171.461682L1559.611506,1167.339660L1560.308086,1163.141303L1561.169985,1158.912410L1562.252646,1154.622449L1563.522245,1150.286686L1564.981573,1145.920388L1566.630631,1141.523554L1568.457212,1137.096185L1592.184324,1095.982635L1655.600824,989.205775L1667.542087,969.526600L1678.858846,949.633651L1683.948666,936.473446L1622.263745,937.129930L1742.296677,742.625837L1719.746661,742.305223L1702.578452,769.084083L1507.414491,767.816898L1476.645331,818.931683L1445.176336,818.091986L1381.194099,819.252295L1325.650353,910.504134L1305.937146,941.053566L1268.336702,1002.579655L1242.111247,1044.304228L1173.397478,1045.250777L1140.542874,1097.387185L1107.693212,1097.295584L1106.969966,1092.333857L1108.761915,1085.906510L1108.437643,1081.524919L1102.614581,1081.585986L1078.800277,1088.929348L1069.595165,1097.203983L1054.854701,1097.158182L1034.128995,1097.020781L1021.856334,1113.493698L993.067805,1135.569505L978.640883,1157.217799L945.761892,1209.872745L900.317739,1282.847285L947.543576,1282.908352L924.813202,1320.937357L969.235457,1321.349554L1017.918444,1330.570537L1014.693352,1410.246215L1036.142554,1428.917015L1061.869378,1430.550517L1070.523750,1416.551239L1114.159250,1423.054723L1115.719253,1430.504718L1123.286305,1428.764351L1122.420940,1436.901329L1130.127239,1437.786778L1179.055664,1440.061467L1175.942733,1444.458179L1434.617205,1521.415612Z M1366.071386,876.855390L1365.738524,877.572946L1401.287148,878.092029L1401.412380,877.908823L1403.724591,877.939357L1404.194994,877.908823L1404.176156,877.939357L1475.013703,878.824852L1474.881844,879.038592L1474.894048,879.038592L1456.860945,907.756056L1440.520438,907.496515L1414.101752,949.175640L1357.224281,948.824497L1357.356132,948.610759L1357.343927,948.610759L1383.519648,906.397283L1394.386289,889.099636L1393.156420,889.114903L1389.970382,888.977499L1381.636799,891.664514L1377.542301,893.237028L1372.083143,895.557631L1369.250355,896.687398L1364.021356,898.931665L1363.723402,899.572884L1360.013470,905.527058L1328.960229,905.099579L1346.329918,876.550047L1366.071386,876.855390Z M1572.786211,815.099609L1604.544958,814.717928L1608.882739,814.412583L1610.035828,817.053814L1609.226159,820.977491L1607.169820,825.359183L1607.853470,831.313396L1608.760557,833.542409L1610.537740,836.794323L1611.555084,838.824861L1612.212688,841.893567L1611.893325,846.229450L1610.466576,850.382124L1610.346140,850.992812L1610.502205,853.252355L1611.155869,855.496630L1610.572276,858.183653L1608.516146,862.565330L1604.031392,870.290514L1603.899542,870.504255L1539.107538,871.313414L1539.239393,871.099674L1539.227189,871.099674L1572.786211,815.099609Z M1565.497824,782.366620L1590.647657,782.687232L1592.661312,782.687232L1573.862112,813.237007L1562.576082,813.252274L1553.280496,816.351522L1544.776588,816.565263L1565.497824,782.366620Z M1174.879221,1238.284021L1173.516266,1238.039754L1172.205965,1237.749688L1170.936112,1237.413822L1169.685087,1237.047422L1168.486717,1236.635222L1167.341002,1236.177223L1166.226322,1235.688690L1165.152090,1235.154357L1164.130513,1234.574224L1163.152178,1233.963558L1162.256495,1233.337625L1162.217084,1233.322358L1168.493819,1225.795893L1191.065806,1198.712788L1212.943608,1198.804388L1212.762984,1199.018122L1178.833504,1239.215287L1174.879221,1238.284021Z M1342.532159,956.259549L1354.555275,956.534356L1354.423426,956.748094L1344.244628,973.328088L1332.810047,973.068548L1342.412513,956.473287L1342.532159,956.259549Z " data-cartodb-id="38" data-created-at="2013-04-04T20:46:27.909Z" data-name="Chambers Lake Basin" data-updated-at="2013-04-05T01:19:01.334Z"/><path d="M1090.065182,228.227885L1090.074615,228.212617L1089.920105,227.495022L1090.130731,224.349817L1090.131859,224.288745L1090.400953,220.456479L1090.774705,218.883876L1091.362254,216.471533L1091.154835,216.471533L1087.856256,228.090473L1087.627296,229.586735L1073.182214,229.525663L1073.046255,229.785219L1071.069632,233.418998L1069.727499,233.418998L1066.528014,233.403730L1064.668898,237.281795L1065.254557,237.281795L1063.569557,241.312539L1073.109385,239.083416L1073.006751,239.190292L1069.321381,243.022551L1068.725395,246.060876L1068.715963,246.076144L1068.706530,246.091412L1066.609575,247.984639L1064.965972,252.916189L1064.344125,253.389495L1056.125300,259.740961L1057.565059,259.740961L1058.421971,269.848336L1071.822576,265.023669L1073.883141,264.275540L1073.834413,266.092424L1073.467644,277.726586L1073.198255,286.398763L1073.010189,291.482976L1072.108522,301.040680L1067.240351,316.308564L1066.861317,317.514726L1066.407086,317.499458L1061.152879,325.057052L1060.426564,333.225356L1040.999435,335.164373L1039.098147,335.378123L1039.284849,339.836334L1031.015390,343.149456L1030.180549,343.928116L1027.421976,346.477845L1033.499635,346.080881L1039.311623,345.699185L1039.018141,346.233559L1036.404576,350.859713L1046.251182,352.539174L1034.029678,375.288217L1040.168170,376.906604L1035.385642,381.212122L1024.436602,381.257926L1017.741000,392.098053L1017.542192,394.632504L1008.906902,408.633046L1002.278395,408.617779L994.504152,421.244208L1008.417380,421.259476L1003.183840,429.733069L1001.792789,429.733069L998.819656,434.527136L994.602638,435.427932L988.120060,445.825247L1001.351728,447.260412L998.467444,451.871259L1002.580168,452.344558L995.603103,460.421170L984.931024,477.108746L976.578091,488.559494L978.791377,495.032978L987.046864,492.987113L989.192305,493.445143L986.200085,497.796422L980.232750,503.704999L971.346314,519.873416L954.108390,546.958137L943.001847,564.134154L946.271115,564.195224L949.909012,566.821244L950.033903,567.508284L953.379169,567.584622L959.637049,567.706762L962.264502,567.325073L963.689992,567.111327L983.851420,563.431846L985.997742,557.248482L989.276605,549.843709L991.405842,543.767212L993.793620,537.904457L994.110822,537.232683L994.360926,536.728853L996.773789,531.675278L998.679746,526.988123L999.726020,522.606319L1000.204531,520.606262L1002.986803,514.361805L1003.021742,514.285467L1005.372501,507.613514L1008.093270,500.895754L1008.671702,499.445328L1008.845258,498.452931L1009.581635,494.177990L1009.956002,493.552016L1010.365309,492.849704L1012.826709,488.666367L1012.914340,488.544226L1016.812282,483.200545L1019.630933,479.505770L1021.049692,477.643114L1024.541160,474.024676L1026.438573,471.169620L1027.165122,468.451973L1027.174550,468.436706L1031.059846,464.635052L1032.496937,463.276228L1037.100532,461.077681L1037.398932,460.772327L1037.799942,460.360099L1038.620820,459.505108L1038.428354,459.184487L1038.265839,458.894401L1037.921951,458.344764L1036.468763,458.405834L1033.397104,458.894401L1031.925613,459.123416L1030.982149,458.833330L1030.578916,458.695921L1030.023709,458.527976L1030.634933,455.443901L1031.010992,453.550706L1030.938350,450.665111L1027.347562,449.168875L1030.878125,437.702822L1030.904752,437.580681L1031.184330,436.298192L1032.060247,432.252245L1034.290696,426.526845L1036.114929,426.358900L1037.771104,426.206223L1039.965314,425.320694L1043.480708,423.916062L1045.413675,423.137408L1045.730397,422.664108L1048.455546,418.587620L1051.368071,416.618081L1053.233934,415.671481L1054.139134,415.213448L1054.465323,414.053099L1056.275481,407.625374L1058.117661,404.129057L1058.464907,403.487811L1058.108459,400.785416L1058.064105,400.541132L1058.470137,400.022028L1059.872331,399.075426L1061.751175,395.243215L1063.161304,392.189660L1068.771397,380.143377L1069.174701,379.273112L1071.762662,373.364474L1072.246417,372.265193L1072.246453,371.929301L1072.316872,367.074138L1072.326957,366.188605L1071.035291,365.593160L1066.037231,363.333524L1065.374484,363.043436L1059.828759,362.875490L1059.045068,362.860222L1058.852157,362.066295L1058.597701,361.134959L1058.472418,360.646388L1059.343885,359.531838L1061.810399,358.936393L1065.299767,353.287298L1069.487682,345.974006L1070.290326,345.286954L1074.923792,344.462490L1078.525815,338.828657L1079.361281,337.515622L1079.482869,336.706426L1080.804418,327.179285L1080.908806,326.476963L1079.205870,324.690623L1078.469466,323.927230L1078.475892,322.079819L1078.481263,319.957585L1078.484685,319.438477L1078.612303,319.133120L1079.526736,316.842939L1080.571843,315.743652L1082.336760,312.155701L1084.910096,306.903550L1085.879960,304.918725L1086.059226,304.292741L1087.552735,299.208533L1089.084363,292.383782L1089.451750,291.315029L1090.904094,287.146890L1092.045052,284.154380L1092.094611,283.284108L1092.373852,279.711416L1092.787814,278.764805L1095.100705,273.421032L1097.317683,270.306374L1097.599522,269.909408L1095.213484,268.123060L1094.647891,267.695558L1094.664060,265.161080L1094.672711,261.710526L1094.661115,261.512043L1096.422354,260.122660L1098.022725,258.855421L1098.097665,258.595866L1099.253358,254.809414L1099.402115,254.351376L1097.460491,252.122255L1096.169773,250.656531L1096.294739,250.000009L1096.999032,246.213556L1097.439554,243.663806L1093.526137,244.152381L1095.027417,238.503233L1091.938519,232.167024L1091.207779,231.434161L1090.618431,230.808174L1090.065182,228.227885Z " data-cartodb-id="39" data-created-at="2013-04-04T20:46:27.909Z" data-name="West Bay Drive" data-updated-at="2013-04-05T01:19:01.334Z"/><path d="M1303.181744,498.849890L1302.351971,498.849890L1289.467761,498.926228L1289.866456,498.300255L1289.854254,498.300255L1294.589246,490.651163L1258.730160,491.948913L1256.925864,492.025251L1256.318514,492.040519L1256.077288,492.391675L1255.666376,493.017649L1255.437353,493.368805L1255.167847,493.765763L1254.732531,494.391737L1254.529014,494.681822L1254.197395,495.139852L1253.925114,495.521543L1253.747102,495.750558L1253.562439,496.010108L1253.187562,496.498672L1252.712864,497.109378L1252.556482,497.323125L1252.107290,497.872761L1251.629818,498.468199L1251.489514,498.636143L1250.987637,499.231581L1250.607210,499.689610L1250.507390,499.811751L1250.395367,499.933892L1249.797546,500.605669L1249.404916,501.063698L1249.333377,501.140036L1249.261837,501.216374L1248.518162,502.025559L1248.151038,502.422518L1248.110555,502.468321L1248.079499,502.498856L1246.848351,503.781338L1243.517640,507.476105L1234.893187,507.491373L1222.515715,520.087163L1221.747642,520.896346L1220.982346,521.720798L1220.265861,522.545249L1219.573782,523.369700L1218.908884,524.209418L1218.268393,525.049137L1217.676712,525.888855L1217.109438,526.728574L1216.557144,527.583560L1216.063087,528.423278L1215.593436,529.262996L1215.160394,530.102715L1208.005146,544.438986L1207.989069,544.484788L1208.025678,544.484788L1206.372338,547.874192L1201.886403,556.958399L1236.266142,554.164433L1257.105391,552.469732L1257.716627,552.408662L1275.815265,550.942975L1279.146728,544.301577L1280.166840,542.194650L1281.374379,539.843442L1286.196776,530.194320L1289.564924,523.217024L1296.167335,510.270082L1303.181744,498.849890Z " data-cartodb-id="40" data-created-at="2013-04-04T20:46:27.909Z" data-name="Bigelow" data-updated-at="2013-04-05T01:19:01.334Z"/><path d="M1206.630688,544.530591L1203.920575,544.591661L1200.993589,544.667999L1198.001648,544.454253L1194.467299,544.545859L1189.723712,544.362648L1187.942559,543.828282L1185.446551,540.973243L1184.719501,538.652569L1194.859682,517.644344L1212.913323,480.085941L1195.015280,470.299363L1209.544927,447.718443L1225.984051,422.480895L1232.786462,388.723874L1234.309601,383.135864L1209.910991,374.967593L1198.108960,374.952326L1196.948578,366.814585L1168.792602,368.661990L1165.362909,374.570631L1157.703606,380.570875L1157.647197,387.853610L1152.957729,402.480138L1129.485064,413.656138L1122.576240,428.557454L1096.784295,480.498168L1098.940684,486.925854L1076.068526,526.178940L1048.518335,566.943384L1010.667023,569.370925L991.062336,585.508718L987.311231,589.844696L987.010116,593.356227L983.165165,596.974629L980.915983,600.241877L979.727249,602.898424L983.096788,604.852665L987.860579,605.616040L993.151814,606.058798L1000.692186,603.234309L1003.871188,603.738137L1008.978209,603.906079L1011.460099,605.005340L1013.229104,605.539703L1018.314001,603.371717L1020.426228,603.310647L1025.533249,603.478589L1027.664033,604.593117L1028.581754,608.364191L1026.688096,611.036003L1024.072117,613.158186L1022.507954,615.829997L1021.300740,617.310944L1021.837326,618.181191L1023.458042,620.181232L1020.705289,625.509583L1018.810159,628.776824L1017.079152,631.738714L1016.786205,635.830396L1017.513453,638.151050L1017.555822,641.067135L1012.001767,647.632141L1009.050582,650.929910L1002.944081,655.464341L997.375722,660.273584L993.020969,664.777477L987.264127,669.892064L977.117338,674.823440L969.925947,675.876892L965.361863,677.754784L955.347399,680.060163L947.278335,682.594553L944.564503,683.709073L942.723665,684.457176L935.330046,686.411403L930.942250,687.983945L927.439457,690.396194L925.700620,692.777908L925.204963,695.419166L924.681221,696.900103L922.440292,700.747484L920.876303,703.419275L920.577893,708.686520L918.870925,713.388869L917.837175,715.755310L916.273230,718.427098L915.255420,721.953858L918.450579,723.617999L919.304213,725.022595L918.021955,727.297430L917.618250,729.236383L916.580316,732.182980L916.224473,732.976882L915.876847,735.022705L916.198135,736.854786L917.414528,738.106707L917.059791,740.381539L916.920721,740.824292L916.356354,743.221262L916.317694,743.679282L915.912567,744.671658L915.402080,745.755638L915.066312,746.793816L914.089558,748.534290L915.547241,748.228944L945.108094,748.045736L1049.230770,746.503737L1160.473063,744.854866L1170.890510,724.259228L1205.386474,656.075039L1221.593013,624.028638L1250.925172,566.057866L1257.716627,552.408662L1260.577414,546.668053L1261.095409,546.362701L1262.316328,544.286310L1264.017757,540.423610L1263.101455,540.484680L1208.742865,544.469521L1208.025678,544.484788L1207.989069,544.484788L1206.630688,544.530591Z " data-cartodb-id="41" data-created-at="2013-04-04T20:46:27.909Z" data-name="Olympia Downtown" data-updated-at="2013-04-05T01:19:01.334Z"/><path d="M1087.856256,228.090473L1091.154835,216.471533L1092.110397,213.127841L1065.478145,213.143109L1065.258525,213.143109L1054.707334,213.158377L1047.911316,213.158377L1030.596801,237.785639L1030.383736,238.090998L1030.435605,238.915468L1029.367813,241.236199L1026.735995,245.495961L1025.580762,247.267045L1022.011214,253.084136L1013.198734,267.466539L1011.456460,270.306374L1010.337872,272.077454L1014.949250,270.794948L1013.458902,279.329718L1013.371151,279.787755L1010.829356,279.833559L1009.324058,282.230622L1000.552594,296.231293L998.688910,299.208533L994.250839,299.361212L992.007428,301.590325L991.696769,301.895682L977.007242,325.713570L982.125641,324.064641L981.513838,324.324195L980.172036,325.133391L979.671696,325.469284L978.992151,326.095267L978.242166,326.736517L978.042451,326.980803L977.356770,327.774731L976.447568,328.614464L975.790780,329.164106L975.613820,329.332053L960.950446,328.003749L960.840631,328.003749L962.783605,324.858570L951.045675,324.522677L950.496600,324.522677L954.964633,317.270440L953.750009,317.300975L940.896071,317.606333L928.017726,317.911690L927.724887,317.911690L927.724724,354.096493L927.389013,354.936223L927.138187,355.638543L921.277141,366.173337L912.868707,380.555607L904.934359,393.380547L911.147955,393.395814L904.748509,393.701170L904.477781,394.159203L887.257613,422.511430L871.712422,447.382554L852.106391,477.505705L834.998886,503.643929L825.914007,517.919161L797.466389,562.164638L852.226321,563.874605L896.462401,565.019672L942.254289,565.325023L943.001847,564.134154L954.108390,546.958137L971.346314,519.873416L980.232750,503.704999L986.200085,497.796422L989.192305,493.445143L987.046864,492.987113L978.791377,495.032978L976.578091,488.559494L984.931024,477.108746L995.603103,460.421170L1002.580168,452.344558L998.467444,451.871259L1001.351728,447.260412L988.120060,445.825247L994.602638,435.427932L998.819656,434.527136L1001.792789,429.733069L1003.183840,429.733069L1008.417380,421.259476L994.504152,421.244208L1002.278395,408.617779L1008.906902,408.633046L1010.472301,406.098598L1017.542192,394.632504L1017.741000,392.098053L1024.436602,381.257926L1035.385642,381.212122L1040.168170,376.906604L1034.029678,375.288217L1046.251182,352.539174L1036.404576,350.859713L1039.018141,346.233559L1036.505641,346.508380L1034.420255,346.447309L1033.499635,346.080881L1027.421976,346.477845L1030.180549,343.928116L1031.015390,343.149456L1039.284849,339.836334L1039.098147,335.378123L1040.999435,335.164373L1060.426564,333.225356L1061.152879,325.057052L1066.407086,317.499458L1067.240351,316.308564L1072.108522,301.040680L1073.010189,291.482976L1073.198255,286.398763L1073.467644,277.726586L1073.834413,266.092424L1073.883141,264.275540L1071.822576,265.023669L1058.421971,269.848336L1057.565059,259.740961L1056.125300,259.740961L1064.344125,253.389495L1064.965972,252.916189L1066.609575,247.984639L1068.706530,246.091412L1068.725395,246.060876L1069.321381,243.022551L1073.006751,239.190292L1073.109385,239.083416L1063.569557,241.312539L1065.254557,237.281795L1064.668898,237.281795L1066.528014,233.403730L1069.727499,233.418998L1073.046255,229.785219L1073.182214,229.525663L1087.627296,229.586735L1087.856256,228.090473Z M959.010757,269.207083L959.636103,268.214667L966.237006,257.649253L977.866973,237.739835L977.662319,237.755103L950.840709,236.121430L950.568650,236.976436L950.253828,237.999390L950.224397,238.106266L950.024805,239.495651L949.526732,241.190396L945.615481,251.450465L944.238380,254.824682L942.407984,258.794349L937.309403,269.436102L938.368156,269.420834L958.472153,269.466638L958.850396,269.466638L959.010757,269.207083Z " data-cartodb-id="42" data-created-at="2013-04-04T20:46:27.909Z" data-name="Northwest" data-updated-at="2013-04-05T01:19:01.334Z"/><path d="M896.462401,565.019672L852.226321,563.874605L797.466389,562.164638L797.234534,562.164638L786.289685,578.958945L785.919206,579.539111L785.521545,580.104010L785.111683,580.668909L784.677414,581.233808L784.228168,581.783439L783.757292,582.348338L783.259234,582.897969L782.748975,583.447601L782.214309,583.997232L781.676869,584.531596L781.102820,585.065959L780.525996,585.585055L779.924767,586.104151L779.320763,586.607980L778.692354,587.111808L778.048966,587.600369L777.402804,588.073663L776.732236,588.546956L776.058894,589.004982L775.370573,589.447740L774.679478,589.875231L773.963977,590.302722L773.245701,590.714945L772.534078,591.096633L751.885021,604.180894L696.132205,638.639609L541.330604,735.618131L548.025619,744.045698L548.896771,745.144945L551.585378,749.526666L553.280120,754.549613L553.823279,761.694712L553.151245,767.190939L552.907200,775.710086L554.544572,783.099449L562.609749,805.221706L562.848487,805.862931L566.303496,811.435473L571.966461,815.527091L578.228470,817.679770L585.621150,818.534735L608.434335,817.817176L618.367664,818.550002L626.406833,821.481309L631.841615,826.061475L636.291336,832.336299L639.881157,831.206526L666.311105,822.870627L672.902141,820.595811L678.345504,818.519468L683.053929,815.221747L685.360701,812.809524L687.840026,810.473637L698.644997,801.313291L702.917729,798.839997L709.139111,794.534631L711.838011,793.404854L715.041385,792.901034L718.661019,789.923918L720.958275,787.191077L723.200690,783.084181L724.792660,781.236841L726.398159,780.000192L727.760298,779.236828L731.213064,778.091782L736.899266,777.282616L738.334627,776.519252L741.609907,773.862745L745.245378,771.710057L748.067542,769.313093L751.162436,766.335971L752.597799,765.572606L755.023366,764.885577L757.668488,763.862668L760.876339,761.908454L768.776554,758.244301L770.772203,757.542005L771.779941,756.977115L774.502639,755.709928L776.272949,754.641216L780.831001,751.053398L782.470669,750.809121L784.493991,749.923616L785.416792,749.160251L787.602522,747.893063L790.526745,747.129697L797.318420,744.549520L799.969471,743.022787L805.830718,738.213578L807.611053,737.267004L810.893368,737.465479L815.878602,735.755537L818.041011,734.427279L823.480343,732.060842L834.057496,728.152402L835.910450,727.068420L840.462880,724.992061L843.422605,724.289763L843.633936,724.243961L846.917603,723.511128L850.608949,722.671423L871.922782,717.877473L872.611282,714.686595L872.567919,714.381248L872.723578,713.694216L872.733003,713.678949L872.951862,712.869779L873.250097,712.228549L873.396436,711.892667L873.539894,711.205636L873.758755,710.396465L873.788122,710.289593L873.953210,709.587294L874.207099,709.037669L874.558617,708.488044L876.993967,707.251387L878.519808,706.717028L879.565345,706.426948L880.886503,705.907858L882.695804,705.388767L884.635970,704.717002L887.101979,703.984168L889.376600,703.205532L891.922477,702.442163L893.940327,701.862002L895.715197,701.220772L897.736915,700.594810L915.230504,694.457321L899.849402,697.449729L899.192097,697.526066L898.522589,697.602403L896.972739,697.602403L895.546512,697.342857L894.680556,697.144381L893.800711,696.869568L892.945173,696.258873L892.614984,695.785584L892.177643,694.991679L891.627197,694.380984L891.369636,693.770288L890.528988,692.838977L890.199299,692.167212L889.753726,691.663388L889.339209,691.129029L889.162210,690.961088L888.512551,690.609938L888.003778,690.228253L887.315823,689.800766L886.622408,689.678627L885.993381,689.709161L885.747127,689.831301L884.852994,690.014509L883.901216,690.350392L881.776903,691.083227L880.437982,691.571784L878.786139,691.816062L877.444845,691.754992L876.466879,691.678655L876.092440,691.632853L875.715223,691.571784L875.340784,691.525981L874.510852,691.190099L874.331482,690.472531L874.250427,690.228253L873.980078,689.480150L873.589288,688.472502L873.229055,687.632795L871.893645,682.640355L871.488212,680.747196L871.190428,678.976177L871.184873,678.945642L870.956027,677.754784L870.906364,676.609728L870.919907,675.342533L870.922095,675.220393L870.907952,674.136407L870.957101,673.266164L870.979235,673.052420L871.128874,672.533328L871.378834,671.693620L871.719101,670.411156L871.935653,669.052356L871.969992,668.838612L872.102382,668.090508L872.443831,667.082858L872.903362,665.785127L873.333522,664.594267L873.742134,663.754559L874.199560,662.914850L874.678537,661.723990L874.876488,661.403374L875.341153,660.670537L876.175712,659.556015L876.299936,659.433875L876.815683,658.914782L877.324704,658.090341L877.739462,657.418573L877.843151,657.250632L877.992877,657.067422L878.872381,655.998702L879.522799,654.945248L880.915863,653.479574L881.543048,652.700934L883.094097,650.761968L884.741679,648.884072L885.880235,647.830618L886.526861,647.158850L886.536288,647.143583L887.285510,646.364943L887.916061,645.738977L889.177163,644.487046L890.183751,643.647336L891.312884,642.609149L892.707713,641.555694L894.212884,640.303762L896.206185,639.051831L896.859536,638.685411L897.324868,638.425865L898.289879,637.693026L898.719698,637.372410L899.960927,636.547966L901.699712,635.708256L903.338607,634.654801L903.687461,634.425788L904.955873,633.616613L907.569277,632.150935L908.433956,631.738714L909.310838,631.326492L911.049622,630.486781L912.788406,629.647070L915.414012,628.181392L917.275342,627.143204L918.782265,626.303492L921.019632,625.051559L922.770618,624.211848L925.130531,622.761437L926.293571,622.043865L927.512074,621.295758L929.006794,620.456047L930.868124,619.417857L932.883057,618.150656L935.120424,616.898722L936.617920,616.074277L938.855287,614.822343L939.569653,614.455923L941.358346,613.555141L942.599577,612.730696L944.338359,611.890983L947.076053,610.639048L949.071100,609.799336L951.176491,608.761146L953.670122,607.509211L955.408903,606.669498L956.030099,606.394683L957.770558,605.631308L960.109548,605.005340L962.836777,604.165627L964.534102,604.104557L965.070457,603.967149L965.631218,603.829742L967.258617,603.585462L969.067965,603.402252L970.632734,603.417519L971.810879,603.386984L972.567470,603.386984L973.905352,603.295379L975.208240,602.944226L976.295282,602.211386L976.356105,601.203730L976.053741,600.883112L975.536114,600.318214L967.542928,599.310558L956.814591,598.226565L953.130378,591.722602L951.303719,584.226245L949.050049,568.607548L949.038375,568.409070L949.002295,568.210591L948.956788,568.027381L948.911281,567.844170L948.853571,567.660959L948.774230,567.493016L948.694890,567.325073L948.603347,567.157130L948.502376,567.004455L948.389202,566.851779L948.266601,566.714371L948.131797,566.576963L947.996993,566.439555L947.840559,566.317414L947.684125,566.195274L947.518263,566.088401L947.340198,565.981528L947.152706,565.889923L946.965214,565.798318L946.765519,565.706712L946.556396,565.630374L946.337846,565.569304L946.119296,565.508234L945.879116,565.462431L945.638935,565.416629L945.410957,565.370826L945.161349,565.340291L944.902314,565.325023L944.643278,565.309756L944.372039,565.294488L944.103576,565.294488L943.825685,565.309756L943.547794,565.325023L943.260476,565.355558L896.462401,565.019672Z M637.390746,766.900861L672.040668,711.846865L734.105558,712.167480L699.259514,767.007732L637.390746,766.900861Z " data-cartodb-id="43" data-created-at="2013-04-04T20:46:27.909Z" data-name="South Westside" data-updated-at="2013-04-05T01:19:01.334Z"/><path d="M1401.287148,878.092029L1365.738524,877.572946L1366.071386,876.855390L1346.329918,876.550047L1328.960229,905.099579L1360.013470,905.527058L1363.723402,899.572884L1364.021356,898.931665L1369.250355,896.687398L1372.083143,895.557631L1377.542301,893.237028L1381.636799,891.664514L1389.970382,888.977499L1393.156420,889.114903L1394.386289,889.099636L1401.280514,878.122563L1404.034872,878.168365L1404.176156,877.939357L1404.194994,877.908823L1403.724591,877.939357L1401.335965,878.092029L1401.287148,878.092029Z " data-cartodb-id="44" data-created-at="2013-04-04T20:46:27.909Z" data-name="Rossmoor 1" data-updated-at="2013-04-05T01:19:01.334Z"/><path d="M1975.502343,262.794550L1936.313192,262.199100L1930.612686,271.451469L1922.454675,284.704024L1961.482812,285.284205L1975.502343,262.794550Z " data-cartodb-id="48" data-created-at="2013-04-04T20:46:27.909Z" data-name="Springwood" data-updated-at="2013-04-05T01:19:01.334Z"/></g><g fill="#000" font-family="Arial" font-size="12px" id="mylayer-label" stroke="none"><text text-anchor="middle" y="341.784501872"><tspan dy="0" x="1934.51965977"><![CDATA[Springfield]]></tspan></text><text text-anchor="middle" y="826.735678917"><tspan dy="0" x="327.468031268"><![CDATA[Westbrook Park]]></tspan></text><text text-anchor="middle" y="267.363802336"><tspan dy="0" x="1917.51053405"><![CDATA[Newport]]></tspan></text><text text-anchor="middle" y="921.082565732"><tspan dy="0" x="978.671625134"><![CDATA[Governor Stevens]]></tspan></text><text text-anchor="middle" y="921.995009226"><tspan dy="0" x="1398.77297677"><![CDATA[Briarwood]]></tspan></text><text text-anchor="middle" y="399.790849357"><tspan dy="0" x="795.559147694"><![CDATA[Walnut Park]]></tspan></text><text text-anchor="middle" y="215.397552182"><tspan dy="0" x="1527.63865268"><![CDATA[Bethel Park]]></tspan></text><text text-anchor="middle" y="765.346324747"><tspan dy="0" x="372.954503252"><![CDATA[Lakemoor]]></tspan></text><text text-anchor="middle" y="792.604223481"><tspan dy="0" x="1568.914091"><![CDATA[Greenfield]]></tspan></text><text text-anchor="middle" y="434.343435254"><tspan dy="0" x="862.865867923"><![CDATA[Kiwi Court]]></tspan></text><text text-anchor="middle" y="350.039140393"><tspan dy="0" x="557.322108093"><![CDATA[Cooper Point]]></tspan></text><text text-anchor="middle" y="512.753967638"><tspan dy="0" x="1353.07951442"><![CDATA[Bigelow Highlands]]></tspan></text><text text-anchor="middle" y="628.434426493"><tspan dy="0" x="1325.37378124"><![CDATA[Eastside]]></tspan></text><text text-anchor="middle" y="337.702224266"><tspan dy="0" x="1524.53132732"><![CDATA[North East]]></tspan></text><text text-anchor="middle" y="974.207976615"><tspan dy="0" x="942.713162221"><![CDATA[Carlyon North]]></tspan></text><text text-anchor="middle" y="759.309903936"><tspan dy="0" x="1342.12542204"><![CDATA[Indian Creek]]></tspan></text><text text-anchor="middle" y="763.640314247"><tspan dy="0" x="1175.88340378"><![CDATA[Fain Park]]></tspan></text><text text-anchor="middle" y="335.080750584"><tspan dy="0" x="1969.77514848"><![CDATA[Mapleview]]></tspan></text><text text-anchor="middle" y="257.137964485"><tspan dy="0" x="1458.81901747"><![CDATA[Devon Place]]></tspan></text><text text-anchor="middle" y="802.14613733"><tspan dy="0" x="950.642631604"><![CDATA[South Capitol]]></tspan></text><text text-anchor="middle" y="312.810360832"><tspan dy="0" x="1910.12502951"><![CDATA[Woodard Glen]]></tspan></text><text text-anchor="middle" y="870.099407327"><tspan dy="0" x="1001.99487972"><![CDATA[Wildwood]]></tspan></text><text text-anchor="middle" y="514.976104986"><tspan dy="0" x="1489.06836691"><![CDATA[Upper Eastside]]></tspan></text><text text-anchor="middle" y="356.1247468"><tspan dy="0" x="1307.95149177"><![CDATA[East Bay Drive]]></tspan></text><text text-anchor="middle" y="958.836394798"><tspan dy="0" x="1343.51313929"><![CDATA[The Birches]]></tspan></text><text text-anchor="middle" y="1211.86154735"><tspan dy="0" x="1186.27025298"><![CDATA[Sequoia Park]]></tspan></text><text text-anchor="middle" y="886.887070176"><tspan dy="0" x="1429.15211578"><![CDATA[Castlewood]]></tspan></text><text text-anchor="middle" y="839.839987841"><tspan dy="0" x="1581.73792548"><![CDATA[Woodfield Estates]]></tspan></text><text text-anchor="middle" y="279.675058773"><tspan dy="0" x="972.144259052"><![CDATA[Burbank-Elliot]]></tspan></text><text text-anchor="middle" y="340.669974021"><tspan dy="0" x="677.553499565"><![CDATA[Goldcrest]]></tspan></text><text text-anchor="middle" y="338.728857468"><tspan dy="0" x="819.714853636"><![CDATA[The Woods]]></tspan></text><text text-anchor="middle" y="733.456238407"><tspan dy="0" x="685.694588208"><![CDATA[Wellington West]]></tspan></text><text text-anchor="middle" y="1042.40656609"><tspan dy="0" x="1116.17231053"><![CDATA[Holiday Hills]]></tspan></text><text text-anchor="middle" y="905.313459103"><tspan dy="0" x="1239.93269696"><![CDATA[Cain Road]]></tspan></text><text text-anchor="middle" y="1020.11467875"><tspan dy="0" x="1203.66953779"><![CDATA[Nottingham]]></tspan></text><text text-anchor="middle" y="238.387834827"><tspan dy="0" x="713.671308144"><![CDATA[Cooper Crest]]></tspan></text><text text-anchor="middle" y="679.232826483"><tspan dy="0" x="515.851660058"><![CDATA[Friendly Village]]></tspan></text><text text-anchor="middle" y="239.467884381"><tspan dy="0" x="1007.86585376"><![CDATA[Lenox Knoll]]></tspan></text><text text-anchor="middle" y="1150.63029328"><tspan dy="0" x="1327.26866212"><![CDATA[Chambers Lake Basin]]></tspan></text><text text-anchor="middle" y="403.863498567"><tspan dy="0" x="1028.98211526"><![CDATA[West Bay Drive]]></tspan></text><text text-anchor="middle" y="519.350440471"><tspan dy="0" x="1254.58258153"><![CDATA[Bigelow]]></tspan></text><text text-anchor="middle" y="593.130396687"><tspan dy="0" x="1111.06154078"><![CDATA[Olympia Downtown]]></tspan></text><text text-anchor="middle" y="410.90880707"><tspan dy="0" x="951.06555706"><![CDATA[Northwest]]></tspan></text><text text-anchor="middle" y="682.283234485"><tspan dy="0" x="746.973075279"><![CDATA[South Westside]]></tspan></text><text text-anchor="middle" y="883.569154271"><tspan dy="0" x="1361.67295573"><![CDATA[Rossmoor 1]]></tspan></text><text text-anchor="middle" y="267.7373103"><tspan dy="0" x="1948.94072352"><![CDATA[Springwood]]></tspan></text></g></svg>