<?xml version="1.0" encoding="utf-8"?><!DOCTYPE svg  PUBLIC '-//W3C//DTD SVG 1.1//EN'  'http://www.w3.org/Graphics/SVG/1.1/DTD/svg11.dtd'><svg enable_background="new 0 0 2000 3131" height="3131px" pretty_print="False" style="stroke-linejoin: round; stroke:#000; fill: none;" version="1.1" viewBox="0 0 2000 3131" width="2000px" xmlns="http://www.w3.org/2000/svg" xmlns:xlink="http://www.w3.org/1999/xlink"><defs><style type="text/css"><![CDATA[path { fill-rule: evenodd; }]]></style></defs><metadata><views><view h="3131.58334106" padding="0" w="2000"><proj flip="auto" id="robinson" lon0="-112.004218017"/><bbox h="11.41" w="7.29" x="-1578.0" y="-569.47"/></view></views></metadata><g class="" id="mylayer"><path d="M1144.411536,1920.360188L1091.599127,2070.593495L1090.736921,2077.090736L1061.715038,2158.187026L1074.523313,2160.578332L1094.078584,2171.106454L1110.147004,2182.155089L1118.639421,2193.470812L1125.787865,2212.231744L1125.088566,2218.497586L1127.643845,2226.974832L1127.453749,2229.877349L1133.855708,2237.617347L1142.566019,2243.459159L1156.428338,2268.346324L1179.613055,2309.960064L1186.114366,2321.615067L1191.580918,2320.818109L1218.258598,2350.959210L1219.086435,2350.982243L1242.924893,2378.630277L1274.525343,2404.144767L1282.997431,2432.818346L1288.730595,2454.660328L1288.973284,2454.628086L1291.633061,2454.333301L1293.094747,2454.167484L1295.294744,2453.789791L1295.640273,2453.706883L1298.104940,2453.872699L1300.711785,2454.126030L1302.266723,2454.379361L1304.404654,2454.964325L1310.739634,2454.001668L1315.562360,2453.541066L1323.424342,2452.910041L1327.171248,2453.499612L1329.346775,2453.287735L1333.337372,2453.204826L1336.568817,2453.370643L1338.182897,2453.458158L1340.879386,2453.665429L1342.836072,2453.872699L1345.181542,2454.167484L1350.074029,2455.088687L1353.495329,2455.802619L1355.229170,2456.051343L1356.084051,2454.043122L1356.373333,2453.329189L1356.909762,2452.030290L1357.226973,2451.238053L1357.490162,2450.694541L1357.639643,2450.275392L1357.914149,2449.602910L1358.142662,2449.059398L1358.297256,2448.723156L1358.584907,2448.013825L1358.859418,2447.341342L1358.977692,2447.009706L1360.344629,2443.868373L1360.703289,2443.154432L1360.990237,2442.652370L1361.327903,2442.191762L1361.502396,2441.896973L1361.616107,2441.772609L1361.645677,2441.689700L1361.799739,2441.063272L1362.911523,2439.220837L1361.890877,2438.258164L1362.559336,2436.286752L1363.824178,2432.643314L1364.032828,2432.058336L1364.510920,2430.717951L1364.690001,2430.215882L1364.778720,2429.967151L1364.839509,2429.796724L1365.033378,2429.253199L1365.123740,2428.999861L1369.698175,2416.272996L1369.911955,2415.770919L1370.117179,2415.098412L1375.061755,2401.238206L1376.305964,2397.847974L1383.849447,2397.806517L1386.107160,2398.055258L1386.827788,2397.806517L1392.105182,2398.727777L1394.337916,2398.852147L1394.068912,2399.897776L1394.040265,2401.155293L1394.736912,2401.362576L1399.968835,2402.703003L1404.636199,2406.014911L1405.226725,2405.342397L1405.815608,2404.674488L1406.891501,2403.624259L1409.308785,2399.105494L1409.526301,2399.478603L1409.395515,2400.234035L1409.615351,2400.989467L1409.905679,2401.450095L1411.550340,2406.765731L1411.877221,2406.724275L1412.091000,2406.222193L1412.658637,2406.305105L1421.114200,2406.558450L1427.471530,2406.807187L1428.696781,2406.807187L1433.769924,2406.724275L1435.488358,2406.724275L1437.326860,2406.765731L1439.974491,2406.807187L1444.063870,2406.641362L1446.019940,2406.558450L1448.361309,2406.475537L1450.681778,2405.176571L1456.938074,2397.553171L1459.158259,2395.250016L1459.544174,2394.665014L1460.021710,2393.909577L1460.269657,2393.117289L1460.010953,2390.602232L1459.748752,2388.593866L1459.027638,2385.701074L1457.934589,2384.153334L1456.948787,2383.190602L1456.571627,2382.476613L1456.287809,2381.306592L1456.130863,2379.003396L1454.981618,2375.442643L1454.680260,2373.641533L1454.855352,2371.379775L1455.028246,2371.089569L1456.798988,2368.491535L1463.170289,2358.334252L1466.817059,2346.592199L1468.046075,2343.450517L1472.035633,2339.428964L1474.425167,2337.839686L1476.966731,2335.619298L1477.678839,2335.200096L1478.893127,2333.859568L1479.701520,2333.062621L1480.701938,2332.224214L1482.141736,2331.137047L1482.825035,2330.593463L1484.523552,2329.170008L1484.519747,2327.410266L1486.174812,2322.384384L1484.860420,2322.342924L1481.526588,2322.260004L1480.266747,2322.260004L1470.170598,2322.384384L1470.222504,2322.131016L1470.593316,2321.297206L1470.663874,2321.002377L1471.040990,2320.334406L1470.829091,2320.334406L1470.672161,2320.288339L1471.093675,2319.495987L1472.027997,2317.860606L1472.563682,2316.856343L1472.827061,2316.312751L1473.146206,2315.515788L1473.519472,2314.470061L1473.769273,2313.673097L1474.063473,2312.751750L1474.264600,2311.788942L1474.653899,2310.406919L1475.186975,2309.107815L1476.472523,2305.215099L1477.699331,2301.778438L1478.865325,2298.512216L1480.041085,2295.121598L1480.594647,2295.038676L1481.068169,2293.615165L1480.564082,2293.656626L1481.282803,2291.643438L1482.419297,2288.460103L1482.537718,2288.128409L1466.772004,2288.335717L1465.932133,2288.335717L1461.768671,2288.418641L1449.078332,2288.547633L1431.267473,2288.796403L1425.482661,2288.920789L1416.621643,2288.920789L1416.671945,2288.672018L1418.372379,2283.521534L1420.007720,2279.039023L1421.830089,2274.432102L1424.983101,2265.301115L1427.583937,2258.515009L1428.739505,2255.667869L1428.958586,2255.248630L1432.702024,2255.165703L1433.087274,2255.165703L1433.803240,2255.124240L1434.504397,2255.124240L1439.631485,2255.082776L1441.748133,2254.161370L1442.650997,2253.488742L1443.712484,2253.364352L1444.167080,2253.364352L1445.576227,2252.654867L1452.930140,2248.632908L1455.106378,2247.835886L1455.611746,2247.499569L1458.694323,2246.624225L1459.565428,2246.536691L1460.212893,2246.287909L1460.787606,2245.951592L1461.504861,2245.615275L1464.368090,2247.209324L1465.088169,2247.835886L1465.891201,2248.338056L1465.980409,2248.379520L1466.458275,2248.508517L1469.077972,2244.905785L1472.494099,2244.067295L1476.559308,2243.859976L1476.887551,2243.145877L1477.684431,2241.303037L1478.754595,2238.792163L1480.653065,2233.973106L1480.163805,2233.973106L1480.050885,2233.890178L1479.190907,2232.673892L1479.163446,2232.254641L1479.512094,2231.084424L1480.433301,2230.080064L1480.377192,2229.158631L1480.602649,2228.527449L1480.773842,2226.182397L1481.238190,2226.058003L1481.467391,2225.804608L1481.725020,2225.385354L1482.053882,2221.326415L1481.737985,2221.326415L1479.900987,2221.367880L1473.687661,2221.409345L1478.631794,2207.375686L1478.850924,2206.956424L1479.362946,2205.620311L1484.168506,2207.168358L1485.845928,2207.670552L1487.454010,2208.172745L1489.265078,2208.592007L1490.465546,2208.757868L1492.350684,2208.969803L1494.385923,2209.052734L1496.414926,2208.969803L1499.502731,2208.845407L1502.343246,2208.550541L1504.657179,2208.338607L1507.249496,2208.048348L1508.730865,2207.923952L1510.254466,2207.670552L1510.768297,2207.504690L1512.024296,2207.126893L1512.618363,2205.366910L1513.090959,2204.238124L1514.384478,2200.423276L1515.932717,2196.488621L1517.247066,2192.507876L1519.045518,2187.776109L1521.124989,2182.247237L1523.589410,2175.253164L1524.998429,2171.018912L1526.825246,2165.701880L1527.387671,2165.701880L1527.277507,2165.029186L1529.098488,2159.836521L1530.049030,2155.311921L1530.584094,2154.892634L1531.652575,2154.058667L1531.059339,2154.058667L1534.267507,2145.470144L1536.093831,2140.360303L1536.537007,2139.314371L1537.311213,2137.342303L1537.765764,2137.342303L1539.849182,2137.300834L1541.350341,2137.217896L1540.485820,2139.733665L1539.573475,2142.286288L1537.676478,2147.691004L1536.978357,2149.741378L1541.270266,2149.782846L1545.284819,2149.824315L1545.502627,2149.699910L1546.246842,2147.520524L1547.453807,2144.046395L1548.675891,2140.821065L1548.810929,2140.443240L1549.810211,2137.259365L1550.808132,2134.370369L1551.263682,2132.988071L1551.863164,2131.310880L1552.128239,2130.472283L1552.231997,2130.182000L1552.516921,2129.384871L1552.027703,2129.384871L1551.548285,2129.260463L1551.281904,2129.218994L1549.960521,2129.089979L1549.390519,2129.218994L1548.831964,2129.218994L1548.726905,2128.629211L1549.191008,2128.214519L1549.619504,2126.035079L1549.987317,2124.316406L1550.617777,2123.436333L1551.327379,2122.431851L1551.542988,2121.634715L1551.717500,2121.049534L1551.545326,2121.132473L1547.562963,2121.302959L1543.390227,2121.510306L1542.790678,2123.187516L1541.948720,2122.514790L1539.897520,2124.233467L1538.684935,2123.897104L1536.049041,2124.611299L1537.786623,2120.925125L1538.334352,2119.791624L1540.294592,2115.773672L1546.200189,2112.087462L1546.435673,2111.331787L1546.760112,2110.327291L1544.867494,2107.981927L1545.566338,2106.512039L1546.164331,2104.839406L1549.371220,2103.120691L1553.262009,2093.024901L1555.025796,2087.790343L1550.140839,2089.214183L1546.784595,2087.536909L1546.125416,2086.827292L1544.307285,2086.827292L1539.162208,2086.910234L1530.865060,2086.910234L1529.231245,2086.868763L1528.261411,2087.329553L1528.426183,2086.868763L1526.100170,2086.910234L1523.369122,2086.910234L1520.927831,2087.371024L1519.798344,2086.910234L1510.750639,2086.951705L1505.866916,2086.993176L1501.510913,2087.034647L1488.992579,2087.076118L1488.612388,2087.159061L1483.032571,2088.080641L1482.361173,2087.997699L1483.914217,2087.371024L1477.525833,2087.117590L1475.481012,2087.159061L1474.251079,2087.076118L1473.989722,2087.117590L1472.935700,2087.619851L1463.656868,2091.140280L1462.836787,2090.891454L1457.824386,2091.098809L1456.080589,2091.181750L1456.119156,2090.384587L1457.039699,2088.499959L1457.676121,2087.205140L1458.871960,2084.647750L1459.761397,2083.140961L1460.284576,2081.085824L1460.262829,2077.818793L1461.374596,2072.459729L1462.459024,2069.234138L1462.827016,2068.980698L1463.306959,2066.174423L1463.870232,2062.736839L1464.157756,2062.234563L1464.251764,2062.068674L1459.759664,2061.607871L1459.219476,2061.944257L1450.147413,2061.354429L1451.462177,2058.465184L1451.935287,2053.815647L1450.956913,2053.815647L1450.656880,2054.654317L1445.839128,2054.317927L1430.997510,2054.695789L1426.807618,2054.359400L1425.839090,2054.234982L1414.733150,2054.442345L1410.441466,2054.110564L1409.439412,2054.069091L1408.981550,2053.981538L1407.503630,2054.193509L1404.901475,2054.317927L1402.021984,2054.442345L1400.950596,2054.400873L1400.649581,2054.359400L1399.775077,2054.069091L1398.865093,2053.188948L1398.516094,2052.894031L1397.794288,2051.972414L1397.370035,2050.714406L1396.463531,2050.212124L1395.226337,2049.751314L1394.515324,2049.585422L1393.665645,2049.419531L1392.190899,2049.331977L1391.790874,2049.373450L1388.184014,2049.668368L1386.880952,2049.585422L1385.809569,2049.543949L1384.841051,2049.419531L1382.092924,2049.166085L1380.714529,2049.207558L1380.645195,2049.207558L1380.487837,2049.249031L1379.656458,2049.419531L1378.524701,2049.751314L1376.045644,2050.801960L1375.249565,2051.175215L1369.495371,2053.649756L1369.149839,2053.732702L1368.675492,2053.691229L1366.657253,2059.137960L1365.188216,2063.243722L1362.744051,2069.482969L1361.599869,2072.584144L1360.796918,2074.634693L1359.431086,2077.860264L1357.359764,2084.145487L1350.960188,2101.443443L1350.563505,2101.572462L1350.212972,2101.572462L1349.285540,2101.236091L1333.183681,2095.540796L1332.773514,2097.171976L1332.249193,2098.346977L1330.795033,2097.803251L1330.945030,2097.383937L1330.266775,2096.835603L1327.212365,2097.254918L1323.602008,2096.374818L1322.253077,2096.043052L1318.802574,2094.619223L1318.263004,2094.070888L1317.257259,2093.361276L1313.955801,2091.725480L1307.804323,2088.753394L1303.326374,2085.905710L1290.686650,2078.072230L1289.565864,2078.362531L1289.846114,2077.482412L1288.777710,2071.662548L1288.771924,2070.989782L1294.073984,2054.612844L1296.169249,2055.700349L1297.145059,2056.202628L1298.878258,2051.262769L1303.195051,2039.696386L1308.742900,2025.079210L1310.407389,2020.719816L1311.741937,2016.991733L1311.817752,2016.489431L1312.159438,2016.406482L1312.647489,2016.323534L1312.939662,2016.282059L1313.235686,2016.240585L1313.412867,2016.240585L1314.126529,2016.194502L1316.348427,2016.153027L1325.595940,2016.240585L1331.516075,2016.240585L1336.662008,2016.240585L1337.061254,2015.318929L1347.689303,2015.272846L1354.934432,2015.272846L1365.149291,2015.401878L1380.417602,2015.401878L1391.377170,1984.484393L1394.803119,1975.894216L1395.440161,1971.285718L1395.588705,1971.161288L1397.625974,1969.483788L1398.625917,1966.594241L1409.162660,1936.384769L1416.184155,1916.189233L1417.224189,1913.382468L1297.894533,1856.945671L1276.225162,1871.090934L1261.580025,1886.162369L1254.210270,1895.979401L1232.969724,1907.962482L1210.531115,1914.046137L1200.939707,1920.175837L1144.411536,1920.360188Z " data-cartodb-id="39" data-created-at="2013-02-28T01:01:15.554Z" data-name="Camelback East" data-updated-at="2013-02-28T01:01:15.796Z"/><path d="M601.397562,2879.163506L569.833152,2967.319681L626.033901,2945.227311L640.150221,2933.718267L656.889060,2933.257902L660.474140,2935.099360L1184.809412,2760.126517L1175.826354,2788.462130L1186.835917,2789.475087L1187.303281,2791.086607L1203.310687,2787.909607L1205.782981,2790.851786L1205.896864,2790.639986L1206.065856,2790.262430L1208.639612,2784.695762L1209.342974,2783.314450L1211.531043,2778.539698L1211.683668,2778.208181L1213.116855,2775.067973L1214.206847,2772.600001L1214.787599,2771.260111L1215.056251,2770.504983L1215.671699,2769.165090L1216.344780,2767.576555L1217.258392,2765.398645L1218.027285,2763.432536L1218.330643,2762.677402L1220.116717,2758.155792L1220.929889,2756.065346L1221.338119,2755.015517L1221.452522,2754.596506L1222.896782,2750.830002L1223.239211,2749.867653L1223.774980,2748.361967L1225.848274,2743.131184L1226.652797,2740.870335L1227.244043,2739.111381L1228.271447,2736.224296L1229.403752,2733.042506L1230.398679,2729.943588L1230.488808,2729.690333L1230.138092,2729.690333L1229.524635,2729.648891L1229.243292,2729.648891L1228.857071,2729.358798L1226.111983,2728.603637L1224.038010,2728.226056L1223.044859,2728.060288L1222.610023,2728.101730L1220.999044,2728.101730L1219.363756,2728.267497L1218.311610,2728.267497L1216.817280,2728.437869L1216.417130,2728.479311L1215.923816,2728.479311L1211.195751,2728.769404L1210.660404,2728.898334L1209.519762,2729.146985L1204.787354,2731.030282L1203.363208,2731.490746L1202.858693,2731.619675L1202.478478,2731.702559L1201.989017,2731.702559L1201.464869,2731.702559L1201.114152,2731.702559L1199.485391,2731.449304L1199.401269,2731.490746L1198.081192,2731.366421L1197.730476,2731.366421L1197.202474,2731.366421L1197.063729,2731.366421L1196.524832,2731.407862L1195.917896,2731.532187L1195.799088,2731.573629L1194.384501,2731.909767L1193.726491,2732.080139L1193.118221,2732.121580L1192.451474,2732.121580L1191.549271,2731.992651L1191.678468,2731.532187L1197.457048,2727.305125L1197.930995,2724.500887L1197.456287,2724.459445L1196.744487,2724.293677L1193.464065,2724.252235L1196.031267,2717.635304L1197.546298,2713.573949L1199.433533,2707.882496L1200.204324,2707.882496L1202.680103,2700.722084L1203.925090,2697.917766L1206.082884,2690.969100L1207.438711,2687.160896L1207.538463,2686.783298L1207.722342,2686.364256L1208.427584,2684.480868L1209.014027,2682.638921L1215.748974,2665.098791L1218.542308,2659.029433L1217.455699,2658.444599L1216.750782,2658.357104L1215.373256,2657.896604L1215.571932,2657.436104L1215.645728,2657.228880L1217.352282,2651.744309L1218.440347,2648.981288L1219.357957,2646.512983L1220.339273,2642.870379L1224.025889,2633.406910L1227.380377,2623.989395L1233.943063,2608.119861L1234.075954,2607.746836L1233.762472,2606.950128L1235.150428,2606.991575L1237.343068,2601.129074L1238.266809,2598.536298L1241.181137,2590.453976L1241.447980,2589.910547L1242.775481,2586.184823L1242.649617,2585.553890L1242.957896,2584.591370L1243.051653,2584.425577L1243.195837,2583.923592L1244.398153,2581.036024L1287.216395,2464.167092L1270.584785,2475.147650L1269.040032,2475.060137L1261.551782,2476.317550L1256.389700,2478.118457L1253.338382,2479.500225L1248.566177,2481.093861L1237.750782,2483.728421L1234.763703,2485.027275L1231.030876,2487.542071L1228.376191,2488.794861L1224.813366,2489.255445L1222.862814,2488.836314L1221.840973,2488.168467L1217.243872,2487.790787L1211.543460,2489.048183L1205.927303,2489.172540L1202.621302,2489.798934L1200.430395,2490.637196L1197.658541,2492.520980L1193.746116,2496.122727L1187.869008,2501.106194L1186.469181,2501.400964L1181.352142,2491.687326L1177.058311,2494.197498L1172.244998,2496.500403L1168.670292,2497.674882L1164.110446,2498.089403L1161.061408,2498.384174L1158.911366,2499.010562L1145.877582,2504.915166L1140.578389,2508.180645L1137.342247,2511.657975L1136.652862,2512.413314L1133.325798,2515.259647L1130.569418,2518.861304L1124.063070,2524.636822L1121.540327,2525.811265L1104.117255,2530.960374L1095.942828,2534.433012L1092.368101,2535.607443L1085.579671,2535.690343L1082.381107,2536.404212L1074.980612,2536.528563L1070.849243,2535.146882L1063.390165,2530.918923L1057.803812,2528.906260L1054.001120,2528.072639L1050.412014,2527.234412L1047.063887,2526.898199L1043.192849,2527.736427L1031.935587,2532.678272L1022.548059,2537.196375L1011.955151,2543.225084L1009.914838,2544.818610L1009.241305,2545.237716L1006.406937,2546.702282L1005.763537,2547.328637L1000.788253,2545.946971L998.468251,2544.694259L996.875159,2543.856047L991.811110,2540.378839L986.566439,2537.408233L984.293183,2534.350111L982.428523,2533.387537L976.912738,2532.549315L966.618674,2528.114090L800.440445,2507.678619L795.417859,2512.325806L793.183844,2513.877933L791.621943,2514.421407L788.999149,2515.886023L787.523414,2517.267734L780.575842,2526.142872L776.331255,2529.495782L766.789976,2533.848099L758.579691,2538.789911L750.327793,2541.299955L744.474623,2542.681627L726.391056,2541.719062L661.269577,2726.531543L655.170306,2726.992009L601.397562,2879.163506Z " data-cartodb-id="57" data-created-at="2013-02-28T01:01:15.554Z" data-name="South Mountain" data-updated-at="2013-02-28T01:01:15.796Z"/><path d="M87.384994,2461.771986L0.319429,2715.342160L17.065208,2729.584426L46.328237,2725.698100L58.721276,2728.488521L85.715502,2713.366736L86.209620,2711.690616L87.151171,2710.521014L90.434782,2707.799611L92.924148,2706.418185L97.088001,2705.161086L102.522787,2704.953871L104.429266,2705.497233L108.407756,2704.953871L114.861328,2703.360622L129.894704,2701.689088L136.079859,2700.556312L142.154430,2698.253917L150.066269,2694.151034L155.360450,2691.098035L156.787264,2690.048133L158.523605,2687.828599L159.345340,2685.526172L159.474247,2683.394120L160.657542,2680.672637L162.823703,2678.328749L164.887169,2677.071611L169.747396,2676.109187L169.943429,2676.445345L173.441988,2676.652565L185.036360,2677.154500L192.100338,2679.249727L196.018465,2679.166839L204.724570,2677.449213L211.073462,2675.565807L216.639777,2672.927191L223.107504,2671.002332L224.712324,2669.745184L225.881776,2668.239369L226.894758,2665.098791L227.975476,2663.841636L229.909132,2662.980506L290.355782,2644.063092L315.675015,2640.650732L331.890410,2636.842322L348.505788,2633.867422L354.953054,2633.867422L358.750429,2634.705552L371.275001,2641.530303L372.824727,2643.667056L375.484097,2645.048575L379.603061,2645.882091L388.580430,2645.757754L394.303215,2645.131466L399.362118,2643.330886L405.285832,2640.273115L406.755294,2639.103423L411.164137,2636.759430L421.541825,2629.179402L423.133389,2628.553103L426.975282,2627.797859L433.601035,2627.880752L442.550822,2628.718888L445.432115,2628.009696L455.302948,2623.026915L457.941709,2621.226292L463.173380,2616.284922L467.096850,2610.592874L471.145676,2606.029078L471.745373,2605.817236L478.336287,2600.792889L486.991957,2598.826432L494.732897,2595.395484L504.043569,2587.566428L505.245173,2587.147342L517.546170,2579.566907L532.189391,2574.169378L539.049261,2573.206846L542.608516,2572.368659L545.869834,2572.451557L550.184435,2573.621333L553.952861,2575.716795L555.548324,2577.724750L560.404815,2580.907073L561.986930,2582.164341L565.500646,2581.745252L569.176933,2581.745252L571.431464,2582.500533L574.733232,2582.081444L577.151189,2581.201817L582.511474,2581.201817L584.247782,2578.982022L587.214125,2576.554979L592.080861,2574.795714L595.638934,2574.252275L604.920193,2574.754265L606.615763,2574.127929L609.277920,2569.605402L610.239116,2568.974457L619.204820,2567.509926L620.852809,2566.423040L622.519037,2564.410455L627.916986,2561.357028L631.126529,2558.842434L631.304539,2558.635187L632.328105,2558.423334L634.425722,2557.253539L635.114831,2556.208090L636.326278,2552.813828L644.155003,2547.959596L646.733964,2546.909532L650.746211,2546.075927L654.921883,2545.864071L656.301473,2545.237716L658.696181,2539.618917L726.391056,2541.719062L744.474623,2542.681627L750.327793,2541.299955L758.579691,2538.789911L766.789976,2533.848099L776.331255,2529.495782L780.575842,2526.142872L787.523414,2517.267734L788.999149,2515.886023L791.621943,2514.421407L793.183844,2513.877933L795.417859,2512.325806L800.440445,2507.678619L802.137352,2507.890483L807.949638,2490.743130L789.215128,2489.361380L784.136026,2479.735125L786.380654,2464.167092L801.651979,2422.159711L826.919565,2346.477035L829.204379,2336.020074L658.096736,2335.789743L531.030513,2333.210033L327.837639,2339.428964L311.571462,2388.580047L381.582417,2385.770169L355.103144,2451.638778L87.384994,2461.771986Z " data-cartodb-id="63" data-created-at="2013-02-28T01:01:15.554Z" data-name="Estrella" data-updated-at="2013-02-28T01:01:15.796Z"/><path d="M252.559302,2733.793059L247.191128,2760.775750L264.643204,2762.092633L264.962521,2773.746504L278.539244,2790.810347L290.492255,2829.683994L410.025873,3046.312189L569.833152,2967.319681L601.397562,2879.163506L655.170306,2726.992009L661.269577,2726.531543L726.391056,2541.719062L658.696181,2539.618917L656.301473,2545.237716L654.921883,2545.864071L650.746211,2546.075927L646.733964,2546.909532L644.155003,2547.959596L636.326278,2552.813828L635.114831,2556.208090L634.425722,2557.253539L632.328105,2558.423334L631.304539,2558.635187L631.126529,2558.842434L627.916986,2561.357028L622.519037,2564.410455L620.852809,2566.423040L619.204820,2567.509926L610.239116,2568.974457L609.277920,2569.605402L606.615763,2574.127929L604.920193,2574.754265L595.638934,2574.252275L592.080861,2574.795714L587.214125,2576.554979L584.247782,2578.982022L582.511474,2581.201817L577.151189,2581.201817L574.733232,2582.081444L571.431464,2582.500533L569.176933,2581.745252L565.500646,2581.745252L561.986930,2582.164341L560.404815,2580.907073L555.548324,2577.724750L553.952861,2575.716795L550.184435,2573.621333L545.869834,2572.451557L542.608516,2572.368659L539.049261,2573.206846L532.189391,2574.169378L517.546170,2579.566907L505.245173,2587.147342L504.043569,2587.566428L494.732897,2595.395484L486.991957,2598.826432L478.336287,2600.792889L471.745373,2605.817236L471.145676,2606.029078L467.096850,2610.592874L463.173380,2616.284922L457.941709,2621.226292L455.302948,2623.026915L445.432115,2628.009696L442.550822,2628.718888L433.601035,2627.880752L426.975282,2627.797859L423.133389,2628.553103L421.541825,2629.179402L411.164137,2636.759430L406.755294,2639.103423L405.285832,2640.273115L399.362118,2643.330886L394.303215,2645.131466L388.580430,2645.757754L379.603061,2645.882091L375.484097,2645.048575L372.824727,2643.667056L371.275001,2641.530303L358.750429,2634.705552L354.953054,2633.867422L348.505788,2633.867422L331.890410,2636.842322L315.675015,2640.650732L290.116905,2644.095327L261.781458,2725.366564L252.559302,2733.793059Z " data-cartodb-id="64" data-created-at="2013-02-28T01:01:15.554Z" data-name="Laveen" data-updated-at="2013-02-28T01:01:15.796Z"/><path d="M817.723178,1723.436876L817.974477,1723.519853L818.304488,1723.565951L819.833393,1723.897859L822.311767,1724.695359L822.428625,1724.948899L822.486885,1724.990388L823.171920,1726.202770L823.589099,1727.378273L823.523199,1729.512613L822.995398,1731.946583L822.667176,1734.039423L822.859184,1735.841843L827.113007,1748.163657L827.741757,1749.629540L828.834968,1750.970959L830.216480,1751.809921L834.287014,1754.114758L836.342483,1755.414683L837.591252,1756.419588L838.861656,1757.760996L840.458894,1759.060916L841.753936,1760.526780L841.913885,1761.153690L843.322027,1766.390213L844.207553,1770.165468L845.709494,1774.272594L846.859248,1775.360449L849.186974,1776.867772L850.763563,1778.043205L853.558675,1779.804047L853.706029,1779.887018L854.340507,1780.265000L856.984060,1781.772313L857.968691,1782.440693L860.333339,1783.952613L861.732544,1785.418435L861.628279,1785.708833L861.552149,1785.920870L860.446400,1785.879385L853.661693,1803.897717L852.879004,1806.077961L852.279754,1809.216949L850.684680,1813.660371L850.534111,1814.079822L850.262757,1814.835754L850.092162,1815.504108L849.135995,1817.974710L848.728978,1819.108603L845.191445,1828.663668L836.803179,1852.336541L833.073334,1862.140130L830.849008,1868.929291L829.128939,1873.916272L827.581061,1878.230310L827.033565,1879.949467L826.036485,1882.631897L825.075742,1885.309711L824.503607,1886.904411L822.704511,1892.015730L821.191718,1896.039317L819.943223,1899.809396L817.628563,1906.261816L816.385258,1909.824454L813.366568,1918.240147L814.678254,1918.244756L815.217455,1918.244756L965.309319,1918.562762L1144.411536,1920.360188L1200.939707,1920.175837L1210.531115,1914.046137L1232.969724,1907.962482L1254.210270,1895.979401L1261.580025,1886.162369L1276.225162,1871.090934L1297.894533,1856.945671L1270.607163,1844.219806L1269.502345,1830.115586L1290.040274,1771.723504L1311.894739,1735.528379L1302.839977,1712.064345L1290.387943,1698.220723L1299.328479,1674.216283L1350.460659,1537.008691L1333.767310,1536.962583L1322.118965,1528.985784L1285.784426,1528.847457L1266.194073,1531.291225L1260.359590,1533.919420L1237.408836,1550.103387L1208.514342,1550.795002L1198.420584,1554.668039L1184.322174,1569.468409L1180.870027,1575.323935L1174.157339,1580.395619L1155.551177,1584.545155L1001.294421,1586.343281L867.829606,1586.652189L865.199767,1593.097746L861.912278,1602.443255L858.237483,1613.337765L855.622931,1619.838444L853.875830,1624.697783L853.106730,1626.836991L852.706886,1627.842047L851.838664,1630.064233L849.665546,1636.601665L846.568300,1645.024644L844.973796,1649.256848L843.717797,1652.654583L843.667792,1652.986519L843.630069,1653.198588L841.681020,1658.813807L840.686790,1661.579911L840.310645,1662.626418L838.809697,1666.609588L834.935782,1677.088369L831.594533,1686.096421L826.933542,1698.584911L823.516030,1707.892381L822.914772,1709.565779L819.476461,1719.039085L819.241526,1719.500070L817.723178,1723.436876Z " data-cartodb-id="82" data-created-at="2013-02-28T01:01:15.554Z" data-name="North Mountain" data-updated-at="2013-02-28T01:01:15.796Z"/><path d="M791.345535,1962.363595L790.568829,1964.626394L790.078012,1966.091911L789.407087,1968.059754L789.431800,1968.184185L789.440573,1968.267138L789.562706,1968.313223L794.589570,1968.354700L794.743099,1968.313223L794.847674,1968.225661L794.912082,1968.142708L795.452419,1966.635718L796.045564,1966.635718L795.435898,1968.142708L794.128875,1971.788045L791.580852,1977.820561L789.000261,1986.286291L786.411694,1994.581429L785.762485,1996.295748L783.309378,2003.042388L781.960213,2007.397262L781.041740,2010.249808L780.040748,2013.139211L777.688709,2019.798165L776.486325,2023.152968L775.265825,2026.461677L774.065162,2029.811847L773.313733,2031.908576L772.864534,2033.162004L771.574804,2036.470674L771.343621,2037.019046L770.325844,2039.654913L769.297559,2042.922086L768.376144,2045.396650L765.654926,2052.894031L765.519530,2053.271894L762.474344,2061.566398L761.722012,2063.870414L760.608701,2066.676696L759.472841,2069.943769L759.187231,2070.740951L758.417911,2072.791503L757.316781,2076.058554L754.571513,2083.431260L753.495249,2086.532386L752.194528,2090.260174L751.938680,2090.974396L749.913407,2096.628250L748.772894,2099.812271L747.932797,2102.157656L747.171948,2104.378625L744.636955,2111.456197L744.277807,2113.050486L743.777128,2113.760082L742.303381,2117.487755L741.896748,2117.741181L741.705256,2117.824120L742.232557,2118.653513L836.974035,2267.378861L858.981061,2207.900916L867.640605,2206.933387L874.584665,2202.943473L878.692152,2198.644851L883.987087,2190.876870L889.699256,2185.140684L897.032117,2183.606421L906.420278,2179.611795L915.097832,2168.517055L926.191735,2163.900348L943.420121,2159.569285L959.616792,2161.458368L968.368997,2159.154608L979.915756,2157.007497L996.851475,2150.953170L1006.475200,2148.409788L1012.948386,2149.331304L1016.519822,2146.875461L1023.030272,2145.184473L1035.091379,2145.184473L1042.368315,2146.723410L1048.384125,2151.787140L1061.715038,2158.187026L1090.736921,2077.090736L1091.599127,2070.593495L1144.411536,1920.360188L965.309319,1918.562762L813.366568,1918.240147L813.199605,1918.705635L809.666926,1928.844911L807.470515,1935.463029L804.404437,1944.302471L802.905391,1948.579290L801.565435,1952.810003L800.484641,1955.824028L799.354066,1959.556979L798.149551,1962.529504L797.899897,1962.151602L797.263116,1961.188412L796.911060,1962.363595L791.345535,1962.363595Z " data-cartodb-id="107" data-created-at="2013-02-28T01:01:15.554Z" data-name="Alahambra" data-updated-at="2013-02-28T01:01:15.796Z"/><path d="M137.290299,2170.266183L140.135473,2170.141782L140.247822,2169.634960L149.273135,2169.174212L150.268213,2168.547595L150.073312,2169.091278L160.593265,2168.759539L160.819543,2168.128315L172.891954,2167.667566L172.621087,2168.423193L193.015949,2168.086847L193.240560,2167.460230L206.579740,2167.377295L208.492677,2167.123883L208.221831,2167.879511L222.985807,2167.626099L241.397253,2167.750501L241.874918,2167.879511L241.770882,2168.169782L234.429586,2188.654407L229.643416,2201.720826L225.282014,2213.699745L218.547110,2232.294394L218.311111,2233.049966L217.772326,2233.091430L217.366323,2234.224787L230.915857,2233.847002L234.096860,2233.764073L248.001923,2233.469216L250.501600,2233.427752L252.269312,2233.386288L254.575809,2233.303359L260.366004,2233.174359L282.702871,2232.506323L284.599387,2232.589251L286.525605,2232.589251L301.515438,2232.589251L318.140320,2232.423394L326.862237,2232.423394L351.467548,2231.584892L351.208485,2232.211465L351.088040,2232.547787L350.987418,2232.925573L350.777878,2233.510680L350.642585,2233.888466L340.420907,2233.676538L329.893145,2233.049966L322.952198,2233.261895L317.665128,2233.847002L317.059644,2233.386288L311.828590,2233.427752L304.874437,2233.676538L303.333461,2233.676538L296.048496,2233.676538L284.039960,2234.054323L254.016350,2234.768430L251.675179,2234.851358L249.872792,2234.892822L247.230572,2234.934287L235.602289,2235.229143L230.504947,2235.187679L217.479870,2235.477928L216.662325,2237.362244L210.346803,2254.703288L205.514049,2268.777667L204.886083,2268.777667L199.377361,2284.063435L199.317972,2284.229283L199.238757,2284.353669L199.143045,2284.524124L199.197544,2284.565585L199.257023,2284.689971L199.311523,2284.731433L199.538263,2284.689971L199.958197,2284.689971L200.916932,2284.648509L201.547200,2284.943350L201.556430,2286.283950L200.935196,2288.416929L199.989975,2291.056657L199.716113,2291.724649L199.640233,2291.936564L198.495415,2295.036964L198.485551,2295.161348L198.220013,2295.999790L197.695473,2297.464759L197.624579,2297.759595L197.599872,2297.925440L197.575164,2298.091285L197.614821,2298.174208L197.775653,2298.510505L198.178177,2299.054108L198.931649,2300.565139L199.479399,2300.896829L201.124483,2300.896829L207.758189,2300.855368L209.259592,2300.772445L233.879473,2300.187382L233.985029,2299.892547L234.059248,2299.685240L234.229166,2299.307482L237.263303,2299.054108L240.060611,2298.386121L247.864940,2298.303198L261.062973,2298.220276L260.609396,2299.390405L260.518689,2299.643779L260.429632,2299.892547L260.419777,2300.016930L260.958580,2299.975469L265.320228,2299.726702L277.291192,2298.971186L278.886632,2298.722418L289.195750,2298.680957L292.856846,2298.634889L293.969935,2299.141637L306.668837,2299.183099L310.258937,2299.141637L310.814096,2298.763879L325.063078,2298.091285L326.093504,2298.344660L325.729034,2299.266021L325.202186,2300.145921L323.088799,2304.877092L321.488460,2308.562506L321.452789,2308.769810L320.966483,2310.322286L320.203089,2312.455208L319.457744,2314.343968L318.976747,2315.472616L522.177750,2309.253520L649.241205,2311.833298L821.682318,2312.063635L821.215063,2300.546712L822.039588,2279.815879L823.537090,2259.038497L828.121558,2243.420591L733.396294,2094.691237L732.869084,2093.861822L732.773336,2093.903292L732.477285,2093.944763L731.979274,2093.861822L731.257307,2094.027705L731.260612,2094.115254L730.673465,2094.281137L727.513220,2095.285652L726.931606,2096.124282L726.110591,2096.373106L723.802695,2096.460655L717.496967,2096.460655L706.711359,2096.460655L699.426127,2096.668009L696.919566,2096.331635L695.591721,2096.124282L685.418038,2096.373106L684.909023,2096.331635L667.989928,2096.248694L666.834328,2096.248694L666.326414,2096.290165L665.030489,2096.585067L658.496942,2096.543596L649.366046,2096.419184L641.658742,2096.331635L640.344660,2096.290165L639.513166,2096.750950L639.379445,2096.833891L638.987636,2097.045852L638.412579,2097.382225L638.719664,2096.331635L639.046535,2096.290165L638.793958,2096.124282L635.931933,2095.704967L634.569432,2095.497613L632.866853,2095.368593L632.109642,2095.912320L631.919782,2096.248694L631.754682,2096.709479L625.259092,2097.045852L619.398564,2096.502126L615.473373,2096.502126L611.571843,2096.543596L605.400912,2096.962911L598.652225,2096.543596L590.318161,2096.248694L586.796884,2096.207223L583.245885,2096.248694L579.784030,2096.331635L576.317228,2096.331635L572.731003,2096.460655L572.699685,2095.870850L569.305515,2095.958399L565.319787,2096.041340L564.984116,2095.999870L563.266124,2095.999870L561.572261,2096.921440L561.598690,2096.750950L561.544215,2096.709479L561.451221,2096.668009L558.404286,2096.668009L555.050284,2096.750950L547.058456,2096.962911L543.033111,2096.962911L541.796086,2096.792421L533.753633,2096.962911L531.645496,2096.879970L515.257347,2097.465167L501.866628,2097.801540L500.243149,2098.806050L499.798495,2098.971932L496.980008,2098.345265L495.944965,2098.008893L491.782033,2098.091834L482.180047,2098.303795L481.586837,2098.303795L468.263237,2098.635560L466.430224,2098.677030L449.553954,2099.054873L447.568539,2098.930461L434.607532,2099.432716L432.335984,2099.225363L430.614701,2099.137814L428.182973,2099.183893L422.464363,2099.308304L419.066888,2099.308304L411.199396,2099.474187L399.626779,2099.810559L399.897681,2099.054873L399.373808,2099.054873L396.419287,2099.183893L386.473394,2099.183893L382.659903,2099.183893L381.274290,2099.137814L375.007068,2099.137814L374.112290,2099.183893L367.289328,2098.971932L366.710986,2098.930461L366.429790,2098.930461L363.090637,2098.971932L359.846704,2098.930461L356.330358,2098.971932L352.710008,2099.013403L349.549126,2099.137814L342.304648,2098.930461L336.600899,2099.013403L334.783828,2099.096344L333.661479,2100.271342L332.947350,2099.727618L333.173687,2099.096344L332.122088,2099.096344L312.660413,2099.852029L298.613072,2100.354283L297.840066,2101.736632L297.389019,2102.994568L296.496800,2105.676315L280.138176,2106.178566L276.298636,2116.983799L275.243362,2120.711458L275.094873,2122.683563L276.553028,2133.949361L286.674257,2133.654470L292.665534,2116.942329L295.371916,2116.817920L304.430386,2116.564494L310.021422,2116.398615L309.570388,2117.946817L308.808851,2120.167746L308.638730,2120.545580L308.495059,2120.752928L314.858985,2122.052306L315.304995,2120.711458L321.997200,2120.504110L322.427007,2120.379702L322.671397,2120.084807L324.073850,2115.979309L325.313673,2115.937839L326.626686,2115.896370L327.323909,2115.896370L325.156746,2121.844958L324.946971,2122.430139L323.475859,2123.310213L320.347566,2131.940419L314.232006,2149.195972L297.808485,2149.781135L292.093253,2165.824571L291.898411,2166.368255L295.760549,2166.243853L308.104193,2165.907506L307.958901,2166.119451L303.331013,2178.937400L287.179558,2179.439609L284.103841,2188.023196L300.220726,2187.520992L295.400003,2200.674967L294.555234,2200.592035L294.115515,2200.550569L291.860229,2200.297167L286.291365,2199.712038L264.171315,2200.550569L263.988075,2200.965227L262.763033,2200.965227L261.590824,2201.011301L245.050558,2201.425958L241.625283,2201.513497L231.288365,2201.720826L243.045424,2168.128315L243.395505,2167.248285L242.417039,2167.248285L241.557445,2167.206818L240.402896,2166.999481L240.789332,2165.824571L244.612518,2155.061402L250.982234,2138.764351L252.699603,2133.866423L258.624048,2117.739469L259.755721,2114.679922L263.575329,2103.243390L264.249931,2103.413879L264.585318,2102.575256L262.368256,2102.409375L261.143314,2102.409375L261.685548,2101.778103L262.191463,2101.151438L262.282342,2100.898007L263.942916,2096.460655L266.602804,2097.045852L267.076229,2098.174775L281.462528,2059.426555L289.827067,2036.303068L288.775522,2036.303068L288.534147,2036.975861L288.079633,2036.975861L288.425008,2036.303068L279.994450,2036.386015L273.003046,2036.054227L258.839251,2036.303068L254.429982,2036.386015L248.941653,2037.436677L245.086542,2036.468962L234.104503,2036.427489L221.526238,2036.261595L221.446927,2036.386015L221.213466,2036.639465L219.302442,2036.597991L219.021260,2036.597991L215.771407,2037.561098L210.448051,2038.731570L206.103424,2040.201571L204.506276,2041.625487L201.950382,2043.381187L201.362180,2045.224438L199.837670,2050.546803L199.604178,2052.850847L199.078647,2059.007223L197.253306,2063.407899L182.685263,2061.647631L179.805517,2068.310826L179.575775,2068.854570L178.471718,2071.448869L172.376527,2082.383549L154.597805,2078.448370L149.765412,2078.153461L151.308023,2076.688132L151.813897,2076.351751L152.189270,2076.185865L152.608878,2075.596045L153.005988,2074.886419L154.306847,2073.794330L156.624915,2072.121635L158.027977,2071.324453L159.408390,2070.697767L158.010143,2070.697767L150.482926,2076.056842L145.140075,2078.655728L144.058883,2078.448370L145.237748,2077.019905L147.302234,2074.089240L146.316981,2074.591509L145.194365,2075.766540L142.903300,2078.448370L140.208526,2085.272715L138.211808,2088.207950L133.100750,2103.036038L138.419328,2102.953098L145.075506,2103.243390L158.039621,2102.238885L157.755669,2103.621231L157.580560,2103.916131L146.907845,2137.091778L143.522478,2147.016585L142.250449,2150.370904L139.853476,2156.862951L137.290299,2170.266183Z " data-cartodb-id="114" data-created-at="2013-02-28T01:01:15.554Z" data-name="Maryvale" data-updated-at="2013-02-28T01:01:15.796Z"/><path d="M893.688553,907.601548L896.185185,909.115063L896.930353,909.576500L906.072964,915.155249L906.689574,915.865856L907.722480,915.616683L908.023018,915.658212L908.591188,916.119645L909.229001,922.870379L909.600521,926.100376L909.871118,929.418030L910.562248,937.469860L911.237263,941.414996L912.999402,941.373469L912.841827,942.000997L912.675377,944.686446L914.109829,947.787158L916.439072,953.831668L920.601371,951.898352L923.164844,952.738122L966.289915,951.607663L967.586803,951.607663L964.269651,959.913045L963.772219,961.001966L961.700983,966.243534L952.701964,989.401072L944.998724,1002.402962L944.817377,1002.670564L1021.393416,1094.166919L1054.399018,1096.602744L1075.537002,1086.854787L1092.458501,1092.543032L1126.672053,1080.359160L1166.258273,1055.880144L1201.155946,1042.482344L1221.377127,1034.025561L1239.438281,1026.477589L1282.107834,1036.489249L1296.481083,1051.114354L1300.730449,1114.474464L1393.653363,1115.563177L1394.289976,1103.102855L1402.738769,1061.771599L1416.815104,1036.461567L1419.168320,1035.603429L1418.954543,1034.403881L1441.601575,992.621574L1460.332152,985.359279L1474.004461,972.310975L1488.475274,958.501136L1501.492954,918.689822L1494.506272,889.582201L1501.639836,878.876532L1490.977011,857.750873L1457.643389,835.401736L1437.657898,826.721260L1418.553657,791.929184L1437.321783,739.085140L1467.995059,650.465364L1444.492339,653.004090L1400.531607,652.219394L1378.832794,711.761770L1369.693029,720.115806L1292.648371,721.223517L1295.642267,675.206054L1298.319099,648.572854L1311.288943,609.244536L1321.135372,588.471741L1275.357790,599.582947L1222.619368,635.140516L1180.611414,675.344526L1137.709423,713.220271L1107.342285,746.095832L1078.460184,789.686269L1022.976158,789.990862L1022.300840,789.570892L1022.201516,789.898561L962.512085,795.210476L960.535041,796.378077L961.157949,796.474992L960.297352,799.576280L960.549497,801.676103L960.391804,804.823520L958.689404,808.847766L952.521756,820.385053L949.641191,828.442596L947.683303,831.631440L940.310650,838.470569L938.834511,844.008282L935.803328,850.930369L936.111005,851.345692L933.873382,857.723185L934.597618,860.072046L934.849269,865.568078L933.401700,869.176703L932.807850,869.850434L927.487613,872.282322L926.063751,873.708226L921.407065,876.518497L912.092824,884.280144L904.792757,893.633705L900.358168,898.543474L897.628056,902.613391L896.643348,904.080770L893.688553,907.601548Z " data-cartodb-id="125" data-created-at="2013-02-28T01:01:15.554Z" data-name="North Gateway" data-updated-at="2013-02-28T01:01:15.796Z"/><path d="M900.354234,734.414388L911.894761,748.809632L931.921191,759.673968L968.275673,771.927320L962.401726,793.973647L960.498232,796.373462L960.535041,796.378077L962.512085,795.210476L1022.201516,789.898561L1022.300840,789.570892L1022.976158,789.990862L1078.460184,789.686269L1107.342285,746.095832L1137.709423,713.220271L1180.611414,675.344526L1222.619368,635.140516L1275.357790,599.582947L1321.135372,588.471741L1332.801804,563.866806L1344.933514,518.477205L1354.336239,483.306754L1367.478618,428.271817L1379.503555,385.884858L1393.606453,350.930024L1418.619043,293.022478L1453.118112,226.381817L1497.300359,128.881049L1556.217795,45.595927L1581.264899,17.739778L1595.751696,0.000000L1256.091945,23.324950L1047.185373,591.703101L1025.614299,594.749799L995.932286,579.839328L986.268856,583.255375L947.970796,649.126760L876.647494,647.834312L888.175466,689.639303L900.354234,734.414388Z " data-cartodb-id="156" data-created-at="2013-02-28T01:01:15.554Z" data-name="New Village" data-updated-at="2013-02-28T01:01:15.796Z"/><path d="M1437.321783,739.085140L1418.553657,791.929184L1437.657898,826.721260L1457.643389,835.401736L1490.977011,857.750873L1501.639836,878.876532L1494.506272,889.582201L1501.492954,918.689822L1488.475274,958.501136L1474.004461,972.310975L1460.332152,985.359279L1441.601575,992.621574L1418.954543,1034.403881L1419.168320,1035.603429L1416.815104,1036.461567L1402.738769,1061.771599L1394.289976,1103.102855L1393.653363,1115.563177L1498.318795,1123.636220L1487.279550,1156.112113L1479.425279,1197.212564L1471.553008,1209.662226L1442.444346,1236.166140L1506.568270,1321.986660L1527.742107,1336.606670L1556.875503,1342.288573L1576.258730,1384.518833L1593.662186,1398.321489L1699.138992,1446.230101L1766.754386,1501.439888L1828.082544,1510.961630L1969.377662,1119.484380L1836.170792,1118.515614L1860.634794,1051.575710L1826.006266,1048.346216L1850.821887,984.953252L1884.583113,985.137810L1908.086191,919.432726L1975.639260,917.679286L1999.680571,851.784089L1954.845128,855.106666L1947.405840,855.568134L1942.020876,854.922078L1935.930032,853.353085L1932.324903,851.507207L1945.013828,817.311536L1927.437983,813.342713L1912.903005,821.095745L1901.190447,834.248037L1871.060981,834.248037L1880.441769,805.174258L1899.148383,803.559017L1907.417182,784.175868L1838.849550,784.175868L1834.489050,796.036565L1817.724040,795.898115L1821.617982,785.329640L1486.423940,784.406623L1498.277588,751.084970L1447.515532,753.669525L1452.476410,738.992833L1437.321783,739.085140Z " data-cartodb-id="180" data-created-at="2013-02-28T01:01:15.554Z" data-name="Desert View" data-updated-at="2013-02-28T01:01:15.796Z"/><path d="M1093.898128,3059.955691L1093.563738,3056.857841L1095.851462,3050.413545L1100.074092,3049.074047L1108.128196,3025.303395L1109.192166,3023.001790L1115.101035,3006.264353L1116.458276,3002.540280L1119.887359,2993.080424L1120.109714,2992.454367L1120.617850,2992.412937L1121.738508,2989.149148L1122.643980,2986.806025L1123.373218,2984.752912L1124.273799,2982.119764L1130.761527,2963.747371L1131.999525,2960.566348L1132.207225,2959.981701L1132.474847,2959.521349L1133.560796,2956.464606L1135.008575,2952.487144L1136.970674,2947.257491L1137.575514,2945.457490L1138.293913,2943.533188L1144.139230,2926.789756L1144.391162,2926.080789L1145.749342,2922.356403L1146.800958,2919.299541L1147.425925,2917.540920L1150.885996,2907.707316L1151.972445,2904.650407L1152.893660,2902.058472L1153.142046,2901.262015L1153.151534,2901.137712L1153.896054,2899.042979L1154.372227,2897.703269L1155.442409,2894.692366L1157.392053,2888.914536L1157.981835,2887.450507L1159.212172,2883.891709L1161.617258,2877.906638L1164.219441,2871.378263L1163.901431,2869.117722L1164.386965,2867.068958L1165.065239,2863.675827L1165.685459,2861.042344L1166.240255,2859.785452L1166.374480,2859.407923L1166.462873,2859.159307L1166.885512,2858.068157L1167.276359,2857.359138L1167.736853,2856.562643L1168.554450,2855.347181L1170.668912,2851.958612L1173.582006,2847.603179L1176.536348,2843.045145L1178.009067,2840.572748L1180.010794,2837.013773L1180.326642,2836.429051L1181.227497,2834.882066L1181.555867,2834.251300L1182.783467,2832.078149L1184.295252,2829.398537L1186.024072,2826.217062L1187.203933,2824.080726L1195.069846,2810.438447L1196.304441,2808.343513L1196.804047,2807.339785L1199.346980,2802.942707L1202.641816,2796.832805L1205.782981,2790.851786L1203.310687,2787.909607L1187.303281,2791.086607L1186.835917,2789.475087L1175.826354,2788.462130L1184.809412,2760.126517L660.474140,2935.099360L656.889060,2933.257902L640.150221,2933.718267L626.033901,2945.227311L569.833152,2967.319681L410.025873,3046.312189L415.281240,3056.273254L418.669555,3063.007501L434.854147,3094.477861L439.644685,3103.973542L446.671709,3120.000458L449.993757,3128.998797L455.558480,3129.417644L494.052502,3129.583341L532.170779,3129.417644L541.063739,3129.247343L543.886519,3128.409650L584.554120,3128.078255L586.062099,3128.662799L586.530321,3128.538526L587.064618,3128.119679L587.650279,3127.447683L588.899854,3126.697440L589.706144,3126.402866L592.527818,3126.154318L596.869081,3126.066867L599.397924,3126.154318L601.311701,3125.694046L618.829194,3125.316623L638.708414,3125.399472L645.386462,3125.440896L658.657032,3125.482321L672.906843,3125.523745L678.527126,3125.482321L697.462110,3125.358047L702.439271,3125.358047L708.735648,3125.399472L716.234160,3125.399472L722.347916,3125.358047L723.049576,3125.358047L730.814814,3125.399472L746.824350,3125.316623L754.540183,3125.399472L762.813605,3125.399472L771.715437,3125.399472L774.147403,3125.358047L775.061103,3125.358047L784.136423,3125.358047L785.293006,3125.358047L786.414891,3125.358047L793.878705,3125.358047L802.917898,3125.275198L811.399504,3125.275198L820.019901,3125.275198L831.669828,3125.233773L843.992004,3125.275198L851.390278,3125.275198L856.926454,3125.275198L870.666657,3125.275198L883.177026,3125.275198L901.543559,3125.275198L911.019108,3125.233773L911.859559,3125.233773L921.914313,3125.146322L926.060433,3125.022048L930.533531,3124.856350L934.606595,3124.644624L946.706594,3124.225776L950.195154,3123.977228L952.702252,3123.724078L955.069378,3123.180955L958.262961,3122.177558L961.239403,3121.003858L963.804835,3119.793334L964.542369,3120.083308L972.612671,3120.253610L980.254980,3120.543583L990.974319,3120.962433L1025.478240,3124.267200L1033.163149,3125.523745L1042.607962,3126.568563L1048.434549,3126.738864L1049.343731,3127.240561L1054.821126,3127.406258L1058.932541,3127.281985L1073.751216,3126.904562L1074.959697,3120.336459L1087.032265,3084.936057L1092.032560,3062.257208L1092.468238,3061.714050L1093.447742,3060.540277L1093.898128,3059.955691Z M1093.898128,3059.955691L1093.729162,3060.540277L1093.615338,3061.838332L1092.918539,3068.742851L1093.125406,3070.625475L1094.732506,3069.953439L1095.547639,3069.829158L1099.783177,3062.045468L1100.659150,3060.457422L1100.797272,3059.872837L1099.719282,3059.955691L1098.281341,3059.955691L1096.843400,3059.955691L1093.898128,3059.955691Z " data-cartodb-id="181" data-created-at="2013-02-28T01:01:15.554Z" data-name="Ahwatukee Foothills" data-updated-at="2013-02-28T01:01:15.796Z"/><path d="M830.292664,2318.984643L830.072914,2324.503458L830.541289,2336.020074L829.204379,2336.020074L826.919565,2346.477035L801.651979,2422.159711L786.380654,2464.167092L784.136026,2479.735125L789.215128,2489.361380L807.949638,2490.743130L802.137352,2507.890483L966.618674,2528.114090L976.912738,2532.549315L982.428523,2533.387537L984.293183,2534.350111L986.566439,2537.408233L991.811110,2540.378839L996.875159,2543.856047L998.468251,2544.694259L1000.788253,2545.946971L1005.763537,2547.328637L1006.406937,2546.702282L1009.241305,2545.237716L1009.914838,2544.818610L1011.955151,2543.225084L1022.548059,2537.196375L1031.935587,2532.678272L1043.192849,2527.736427L1047.063887,2526.898199L1050.412014,2527.234412L1054.001120,2528.072639L1057.803812,2528.906260L1063.390165,2530.918923L1070.849243,2535.146882L1074.980612,2536.528563L1082.381107,2536.404212L1085.579671,2535.690343L1092.368101,2535.607443L1095.942828,2534.433012L1104.117255,2530.960374L1121.540327,2525.811265L1124.063070,2524.636822L1130.569418,2518.861304L1133.325798,2515.259647L1136.652862,2512.413314L1137.342247,2511.657975L1140.578389,2508.180645L1145.877582,2504.915166L1158.911366,2499.010562L1161.061408,2498.384174L1164.110446,2498.089403L1168.670292,2497.674882L1172.244998,2496.500403L1177.058311,2494.197498L1181.352142,2491.687326L1186.469181,2501.400964L1187.869008,2501.106194L1193.746116,2496.122727L1197.658541,2492.520980L1200.430395,2490.637196L1202.621302,2489.798934L1205.927303,2489.172540L1211.543460,2489.048183L1217.243872,2487.790787L1221.840973,2488.168467L1222.862814,2488.836314L1224.813366,2489.255445L1228.376191,2488.794861L1231.030876,2487.542071L1234.763703,2485.027275L1237.750782,2483.728421L1248.566177,2481.093861L1253.338382,2479.500225L1256.389700,2478.118457L1261.551782,2476.317550L1269.040032,2475.060137L1270.584785,2475.147650L1287.216395,2464.167092L1288.579814,2454.683358L1288.730595,2454.660328L1282.997431,2432.818346L1274.525343,2404.144767L1242.924893,2378.630277L1219.086435,2350.982243L1218.258598,2350.959210L1191.580918,2320.818109L1186.114366,2321.615067L830.292664,2318.984643Z " data-cartodb-id="191" data-created-at="2013-02-28T01:01:15.554Z" data-name="Central City" data-updated-at="2013-02-28T01:01:15.796Z"/><path d="M1290.387943,1698.220723L1302.839977,1712.064345L1311.894739,1735.528379L1290.040274,1771.723504L1269.502345,1830.115586L1270.607163,1844.219806L1297.894533,1856.945671L1417.224189,1913.382468L1446.710088,1913.470035L1449.396164,1913.884829L1451.225028,1914.262751L1454.680148,1904.713240L1457.526326,1896.961098L1458.942880,1893.103437L1459.302807,1892.098691L1462.598405,1883.092795L1465.135881,1883.051314L1466.126168,1879.405605L1467.542481,1878.483805L1465.900339,1881.207721L1466.103762,1882.295442L1467.632846,1881.456607L1468.017978,1881.456607L1475.637990,1882.170999L1475.477378,1881.834543L1475.355279,1881.498087L1480.340500,1881.751582L1493.484465,1882.000467L1496.130865,1882.041948L1496.466476,1882.083428L1497.028768,1882.083428L1497.390612,1878.815653L1497.996599,1876.930570L1498.637258,1875.045483L1498.987333,1873.874791L1499.378705,1872.492082L1499.679225,1871.653237L1501.280949,1867.085668L1501.830797,1865.744430L1502.369431,1865.702948L1505.277486,1857.489546L1508.408644,1848.944207L1514.267219,1832.014599L1516.011630,1828.705151L1516.865550,1824.764218L1520.283274,1815.711529L1523.587429,1806.492806L1523.826991,1805.824444L1527.856748,1794.678868L1527.136071,1794.637383L1527.312908,1794.047373L1527.979067,1792.876572L1531.644118,1782.652731L1532.587613,1782.652731L1543.982188,1782.611245L1545.818582,1782.569760L1546.955747,1782.523665L1547.529014,1782.482179L1548.185406,1782.316236L1556.331864,1782.440693L1559.146411,1782.399208L1557.923585,1786.003841L1558.958535,1788.391556L1562.424451,1788.391556L1562.601598,1788.391556L1560.242104,1795.264268L1559.936488,1796.020217L1558.829515,1799.205335L1557.322841,1803.312323L1555.826065,1807.585229L1554.914138,1810.226400L1554.104684,1812.484987L1558.106653,1813.826308L1567.192306,1814.457788L1569.441474,1814.038338L1570.281014,1814.038338L1571.747207,1813.955369L1576.495774,1813.406857L1577.039403,1813.157952L1581.455658,1812.655533L1582.211011,1812.697017L1583.070343,1812.738501L1585.341708,1813.535919L1585.322213,1814.374820L1586.001503,1814.918722L1586.259563,1814.789661L1594.394982,1815.923558L1602.576348,1816.048010L1604.237363,1815.711529L1611.374507,1815.923558L1613.090374,1816.218555L1618.106674,1816.384491L1618.617284,1816.130978L1624.623827,1816.467459L1630.378972,1816.720973L1639.502721,1817.052844L1650.900830,1817.389325L1651.846572,1814.835754L1676.158226,1750.233409L1642.672423,1749.219277L1653.489443,1715.291264L1753.999691,1716.674225L1828.082544,1510.961630L1766.754386,1501.439888L1699.138992,1446.230101L1593.662186,1398.321489L1576.258730,1384.518833L1556.875503,1342.288573L1527.742107,1336.606670L1506.568270,1321.986660L1452.459583,1249.569987L1430.127562,1315.935653L1431.427709,1319.809779L1419.699127,1344.161009L1420.183354,1356.935895L1424.032019,1367.958112L1406.363457,1383.361300L1369.031468,1483.843979L1350.460659,1537.008691L1299.328479,1674.216283L1290.387943,1698.220723Z " data-cartodb-id="194" data-created-at="2013-02-28T01:01:15.554Z" data-name="Paradise Valley" data-updated-at="2013-02-28T01:01:15.796Z"/><path d="M943.748590,1003.828635L943.190383,1005.757212L943.448897,1006.596926L942.942197,1009.448255L941.199655,1019.012593L941.539510,1019.137164L941.393570,1019.349396L941.402844,1019.515491L936.771950,1031.760254L933.681479,1038.473111L922.509394,1067.372363L904.156268,1114.718963L903.868169,1115.517045L903.575407,1116.232090L900.023149,1126.168833L900.820883,1125.707520L900.445895,1126.842350L898.901355,1131.409332L898.511402,1132.585672L895.186327,1142.480699L894.018268,1146.005052L892.626458,1149.861526L889.674842,1158.040328L885.374197,1170.246103L882.795300,1177.585165L881.463783,1181.275428L880.136992,1185.048706L876.237724,1196.539105L872.913333,1206.138147L872.563891,1207.106809L867.014437,1222.789751L863.299086,1233.186453L864.858024,1232.642175L865.656089,1232.766713L864.674621,1235.285150L863.435589,1235.326663L862.507497,1235.285150L861.537980,1237.674430L856.307240,1251.890039L856.423101,1251.760891L856.820823,1251.341161L860.080366,1251.428797L864.442433,1250.967554L872.645659,1250.838406L875.216877,1244.380981L875.666290,1243.038753L876.925000,1243.038753L878.187560,1243.038753L879.538269,1243.167902L876.434737,1251.677868L882.489679,1251.677868L883.354060,1251.511821L883.637102,1250.630847L888.968276,1249.915920L889.571192,1248.532189L894.471333,1248.532189L895.863063,1248.366141L897.754773,1248.158581L900.432743,1249.666849L904.994901,1248.661337L908.098710,1248.785873L916.432787,1248.283117L916.969551,1248.449165L916.654078,1249.708361L924.880867,1249.791384L926.066084,1250.294140L930.025356,1250.672359L938.348980,1249.034945L941.300954,1248.993433L943.484915,1249.832896L944.561857,1249.749872L946.914333,1250.506311L948.153375,1250.464800L949.882080,1250.335651L949.685843,1250.879918L949.606842,1251.387285L949.350738,1252.097598L952.969996,1252.351281L983.659093,1252.056087L984.024345,1252.014575L979.532343,1264.763210L966.433599,1302.076283L960.925057,1317.757417L960.905905,1318.974999L960.603436,1319.814391L946.975616,1358.803687L946.370888,1360.482390L944.818995,1364.886664L942.594143,1371.255525L941.917813,1373.229355L940.381856,1375.452214L939.722977,1375.240074L936.197724,1384.546504L935.437228,1386.561807L935.005845,1387.567151L934.170627,1389.789971L934.791936,1391.464000L933.717474,1395.323938L931.840317,1400.728744L931.064297,1403.076042L930.117469,1405.801482L928.655192,1410.247020L928.304860,1410.247020L926.009943,1416.620146L924.972761,1420.184832L923.998512,1422.698088L922.228862,1428.190334L919.481290,1436.698402L917.700790,1442.232058L914.673364,1451.122722L904.066451,1479.039162L902.639586,1482.811084L901.894638,1484.784650L899.136404,1492.245426L899.000329,1492.623535L894.905980,1503.519464L894.799786,1503.814570L893.116025,1508.301086L892.030905,1511.316676L891.894853,1511.694776L888.401146,1521.211791L888.054408,1522.175475L887.923157,1522.636567L887.803707,1522.968554L885.189672,1532.277952L882.552901,1542.421805L879.838155,1553.275592L876.811191,1561.787003L873.776504,1570.127734L870.768733,1578.297790L867.868277,1586.555367L867.829606,1586.652189L1001.294421,1586.343281L1155.551177,1584.545155L1174.157339,1580.395619L1180.870027,1575.323935L1184.322174,1569.468409L1198.420584,1554.668039L1208.514342,1550.795002L1237.408836,1550.103387L1260.359590,1533.919420L1266.194073,1531.291225L1285.784426,1528.847457L1322.118965,1528.985784L1333.767310,1536.962583L1350.460659,1537.008691L1369.031468,1483.843979L1406.363457,1383.361300L1424.032019,1367.958112L1420.183354,1356.935895L1419.699127,1344.161009L1431.427709,1319.809779L1430.127562,1315.935653L1452.459583,1249.569987L1442.444346,1236.166140L1471.553008,1209.662226L1479.425279,1197.212564L1487.279550,1156.112113L1498.318795,1123.636220L1393.653363,1115.563177L1300.730449,1114.474464L1296.481083,1051.114354L1282.107834,1036.489249L1239.438281,1026.477589L1221.377127,1034.025561L1201.155946,1042.482344L1166.258273,1055.880144L1126.672053,1080.359160L1092.458501,1092.543032L1075.537002,1086.854787L1054.399018,1096.602744L1021.393416,1094.166919L944.817377,1002.670564L943.625803,1004.456115L943.748590,1003.828635Z " data-cartodb-id="208" data-created-at="2013-02-28T01:01:15.554Z" data-name="Deer Valley" data-updated-at="2013-02-28T01:01:15.796Z"/><path d="M836.974035,2267.378861L832.390983,2282.996349L830.895455,2303.773177L830.292664,2318.984643L1186.114366,2321.615067L1179.613055,2309.960064L1156.428338,2268.346324L1142.566019,2243.459159L1133.855708,2237.617347L1127.453749,2229.877349L1127.643845,2226.974832L1125.088566,2218.497586L1125.787865,2212.231744L1118.639421,2193.470812L1110.147004,2182.155089L1094.078584,2171.106454L1074.523313,2160.578332L1061.715038,2158.187026L1048.384125,2151.787140L1042.368315,2146.723410L1035.091379,2145.184473L1023.030272,2145.184473L1016.519822,2146.875461L1012.948386,2149.331304L1006.475200,2148.409788L996.851475,2150.953170L979.915756,2157.007497L968.368997,2159.154608L959.616792,2161.458368L943.420121,2159.569285L926.191735,2163.900348L915.097832,2168.517055L906.420278,2179.611795L897.032117,2183.606421L889.699256,2185.140684L883.987087,2190.876870L878.692152,2198.644851L874.584665,2202.943473L867.640605,2206.933387L858.981061,2207.900916L836.974035,2267.378861Z " data-cartodb-id="215" data-created-at="2013-02-28T01:01:15.554Z" data-name="Encanto" data-updated-at="2013-02-28T01:01:15.796Z"/></g><g fill="#000" font-family="Arial" font-size="12px" id="mylayer-label" stroke="none"><text text-anchor="middle" y="2148.95573049"><tspan dy="0" x="1298.99929848"><![CDATA[Camelback East]]></tspan></text><text text-anchor="middle" y="2689.73280928"><tspan dy="0" x="918.822552429"><![CDATA[South Mountain]]></tspan></text><text text-anchor="middle" y="2497.37590325"><tspan dy="0" x="415.08308359"><![CDATA[Estrella]]></tspan></text><text text-anchor="middle" y="2767.70731361"><tspan dy="0" x="480.424384555"><![CDATA[Laveen]]></tspan></text><text text-anchor="middle" y="1734.64591965"><tspan dy="0" x="1075.25340041"><![CDATA[North Mountain]]></tspan></text><text text-anchor="middle" y="2044.28924574"><tspan dy="0" x="929.192099444"><![CDATA[Alahambra]]></tspan></text><text text-anchor="middle" y="2193.76686647"><tspan dy="0" x="493.13418369"><![CDATA[Maryvale]]></tspan></text><text text-anchor="middle" y="879.541375004"><tspan dy="0" x="1219.39237761"><![CDATA[North Gateway]]></tspan></text><text text-anchor="middle" y="379.020149239"><tspan dy="0" x="1237.66222116"><![CDATA[New Village]]></tspan></text><text text-anchor="middle" y="1092.7162011"><tspan dy="0" x="1691.74266005"><![CDATA[Desert View]]></tspan></text><text text-anchor="middle" y="2985.33887753"><tspan dy="0" x="847.490473538"><![CDATA[Ahwatukee Foothills]]></tspan></text><text text-anchor="middle" y="2417.41959092"><tspan dy="0" x="1025.70098423"><![CDATA[Central City]]></tspan></text><text text-anchor="middle" y="1608.691543"><tspan dy="0" x="1522.19610712"><![CDATA[Paradise Valley]]></tspan></text><text text-anchor="middle" y="1303.6865418"><tspan dy="0" x="1158.58133391"><![CDATA[Deer Valley]]></tspan></text><text text-anchor="middle" y="2241.3513269"><tspan dy="0" x="999.198883555"><![CDATA[Encanto]]></tspan></text></g></svg>