<?xml version="1.0" encoding="utf-8"?><!DOCTYPE svg  PUBLIC '-//W3C//DTD SVG 1.1//EN'  'http://www.w3.org/Graphics/SVG/1.1/DTD/svg11.dtd'><svg enable_background="new 0 0 2000 1520" height="1520px" pretty_print="False" style="stroke-linejoin: round; stroke:#000; fill: none;" version="1.1" viewBox="0 0 2000 1520" width="2000px" xmlns="http://www.w3.org/2000/svg" xmlns:xlink="http://www.w3.org/1999/xlink"><defs><style type="text/css"><![CDATA[path { fill-rule: evenodd; }]]></style></defs><metadata><views><view h="1520.36329576" padding="0" w="2000"><proj flip="auto" id="robinson" lon0="12.4963156995"/><bbox h="0.67" w="0.88" x="168.31" y="-703.31"/></view></views></metadata><g class="" id="mylayer"><path d="M1111.206718,448.014067L1316.524414,577.403811L1329.090592,567.977464L1391.538052,605.646139L1448.581246,525.632773L1339.624166,453.905387L1417.480477,393.924722L1740.952305,640.921662L1611.502219,417.452961L1721.420542,368.040107L1633.532601,183.427499L1522.944214,221.056389L1461.844569,206.954726L1425.742855,171.682338L1210.431398,361.007469L1111.206718,448.014067Z " data-cartodb-id="3" data-created-at="2013-12-06T00:00:00Z" data-name="Castro Pretorio" data-updated-at="2013-12-06T00:00:00Z"/><path d="M1006.055216,535.059038L998.001120,555.053089L997.855945,598.576336L1005.093092,610.322524L1010.268932,655.024578L1002.354429,654.435421L943.873587,663.272778L900.312046,680.910716L1136.346498,843.263767L1146.748581,864.437451L1156.419872,850.297102L1167.942235,845.583662L1205.063013,852.653824L1235.310805,865.615815L1233.723377,877.951832L1250.835962,885.022042L1364.489693,924.423918L1432.260883,951.489879L1517.888768,982.054342L1468.903009,996.195075L1416.279882,1016.191026L1337.407768,1058.539998L1296.778917,1058.539998L1332.605868,1135.026864L1374.913496,1164.450877L1412.284805,1164.635008L1474.266841,1136.242120L1531.975112,1134.143041L1541.278111,1130.681405L1584.411812,1103.909047L1616.763608,1078.241602L1702.255351,1039.501327L1686.689516,1022.083035L1603.385809,986.767916L1569.563644,991.481493L1384.253154,638.565043L1391.538052,605.646139L1329.090592,567.977464L1316.524414,577.403811L1111.206718,448.014067L1006.055216,535.059038Z " data-cartodb-id="1" data-created-at="2013-12-06T00:00:00Z" data-name="Monti" data-updated-at="2013-12-06T00:00:00Z"/><path d="M1391.538052,605.646139L1384.253154,638.565043L1569.563644,991.481493L1603.385809,986.767916L1686.689516,1022.083035L1702.255351,1039.501327L1733.043390,1030.331859L1803.202442,1008.236826L1874.582532,978.114094L1888.624319,985.957770L1941.379862,975.794135L1969.304187,966.772086L1999.341830,918.826623L1939.936682,888.520326L1908.913396,873.238365L1872.316348,852.359234L1886.956123,833.247727L1896.477747,781.768550L1859.175424,760.300643L1832.634672,731.505075L1740.952305,640.921662L1417.480477,393.924722L1339.624166,453.905387L1448.581246,525.632773L1391.538052,605.646139Z " data-cartodb-id="2" data-created-at="2013-12-06T00:00:00Z" data-name="Esquilino" data-updated-at="2013-12-06T00:00:00Z"/><path d="M1425.742855,171.682338L1326.991824,118.148320L1287.770949,176.947407L1139.758398,225.180121L1152.753567,245.762011L1125.298633,258.685568L1126.338615,276.911155L1119.867546,289.834794L1108.783245,302.206173L1189.347578,335.712147L1210.431398,361.007469L1425.742855,171.682338Z " data-cartodb-id="4" data-created-at="2013-12-06T00:00:00Z" data-name="Sallustiano" data-updated-at="2013-12-06T00:00:00Z"/><path d="M609.439127,1518.363296L683.980939,1509.229745L753.786854,1457.154103L870.125582,1382.135235L890.474548,1382.724481L846.971906,1355.361480L807.891338,1302.109035L698.082754,1146.774352L609.493153,1213.871839L554.894487,1279.754968L541.429501,1342.692795L558.690056,1403.900530L609.439127,1518.363296Z " data-cartodb-id="19" data-created-at="2013-12-06T00:00:00Z" data-name="Testaccio" data-updated-at="2013-12-06T00:00:00Z"/><path d="M1326.991824,118.148320L1185.317750,115.791953L1137.285050,124.039243L1093.860880,155.776709L1070.919671,166.969553L1022.044319,172.234617L986.295012,211.630730L962.875918,249.259837L953.741142,272.787380L959.657486,330.999205L1005.809425,312.773417L1020.050450,332.177440L1045.592687,366.567303L1108.783245,302.206173L1119.867546,289.834794L1126.338615,276.911155L1125.298633,258.685568L1152.753567,245.762011L1139.758398,225.180121L1287.770949,176.947407L1326.991824,118.148320Z " data-cartodb-id="5" data-created-at="2013-12-06T00:00:00Z" data-name="Ludovisi" data-updated-at="2013-12-06T00:00:00Z"/><path d="M1189.347578,335.712147L1108.783245,302.206173L1045.592687,366.567303L1026.672792,390.979097L911.377714,426.547632L889.317298,413.034504L824.369691,435.384575L828.929053,452.137990L824.212767,455.672784L844.810914,506.227981L813.852763,515.065068L822.698062,541.097748L863.469607,643.867437L877.716977,652.667952L885.424067,672.662487L900.312046,680.910716L943.873587,663.272778L1002.354429,654.435421L1010.268932,655.024578L1005.093092,610.322524L997.855945,598.576336L998.001120,555.053089L1006.055216,535.059038L1111.206718,448.014067L1210.431398,361.007469L1189.347578,335.712147Z " data-cartodb-id="6" data-created-at="2013-12-06T00:00:00Z" data-name="Trevi" data-updated-at="2013-12-06T00:00:00Z"/><path d="M959.657486,330.999205L954.188731,372.753085L886.415656,379.822561L875.437181,359.240106L871.533714,348.635942L758.582175,379.233437L720.080203,382.179055L711.888305,399.226850L716.325646,428.315019L690.678965,476.218824L684.929219,475.556047L680.697422,474.193673L674.191511,473.125866L681.092168,475.224659L682.312752,480.563697L681.939668,499.747460L685.818006,517.421627L688.413204,517.937125L695.747830,538.372963L695.775147,552.254653L732.508545,554.169372L776.738974,548.277932L822.698062,541.097748L813.852763,515.065068L844.810914,506.227981L824.212767,455.672784L828.929053,452.137990L824.369691,435.384575L889.317298,413.034504L911.377714,426.547632L1026.672792,390.979097L1039.613624,376.876945L1045.592687,366.567303L1005.809425,312.773417L959.657486,330.999205Z " data-cartodb-id="7" data-created-at="2013-12-06T00:00:00Z" data-name="Colonna" data-updated-at="2013-12-06T00:00:00Z"/><path d="M1022.044319,172.234617L1000.992438,170.504141L945.273242,205.187419L912.227564,199.885501L818.806310,136.373384L793.572346,38.805648L641.883094,91.123804L537.928539,118.737412L614.721828,246.940226L631.579611,301.027945L620.616902,362.185712L582.469341,411.561686L599.731595,450.775622L607.071763,451.475217L612.502933,454.052670L630.805578,455.230935L656.306848,458.913014L672.645238,464.215213L674.191511,473.125866L690.678965,476.218824L716.325646,428.315019L711.888305,399.226850L720.080203,382.179055L758.582175,379.233437L871.533714,348.635942L886.415656,379.822561L954.188731,372.753085L959.657486,330.999205L953.741142,272.787380L962.875918,249.259837L986.295012,211.630730L1022.044319,172.234617Z " data-cartodb-id="8" data-created-at="2013-12-06T00:00:00Z" data-name="Campo Marzio" data-updated-at="2013-12-06T00:00:00Z"/><path d="M863.469607,643.867437L822.698062,541.097748L732.508545,554.169372L695.775147,552.254653L695.747830,538.372963L688.413204,517.937125L685.818006,517.421627L679.795166,517.863482L684.250083,538.152035L683.867695,551.812795L686.110142,705.913248L794.768366,703.851179L871.207288,687.980639L857.907688,655.613735L863.469607,643.867437Z " data-cartodb-id="9" data-created-at="2013-12-06T00:00:00Z" data-name="Pigna" data-updated-at="2013-12-06T00:00:00Z"/><path d="M685.818006,517.421627L681.939668,499.747460L682.312752,480.563697L680.697422,474.193673L674.191511,473.125866L672.645238,464.215213L656.306848,458.913014L630.805578,455.230935L612.502933,454.052670L604.462657,469.480597L604.428353,480.674160L608.296008,498.164152L601.014264,499.563354L594.871745,502.729971L599.531969,509.468244L609.039201,590.033671L611.531088,599.460061L617.131014,622.694715L620.442997,646.518637L613.875579,646.518637L615.969601,671.484169L615.209805,681.205296L621.874958,694.719168L626.805375,712.099462L627.239517,719.721771L625.224924,730.474034L644.758393,736.623456L659.068588,737.949081L681.207095,739.421998L690.798712,739.421998L696.159960,740.232102L694.811045,721.378796L689.817287,721.121037L686.110142,705.913248L684.250083,538.152035L679.795166,517.863482L685.818006,517.421627Z " data-cartodb-id="10" data-created-at="2013-12-06T00:00:00Z" data-name="Sant'Eustachio" data-updated-at="2013-12-06T00:00:00Z"/><path d="M582.469341,411.561686L531.800376,436.857400L474.527671,455.083651L409.072023,468.007762L355.614143,473.309971L334.897809,478.023050L308.782866,502.729971L301.631413,526.811055L307.317795,546.215929L327.585167,579.760401L365.461981,635.030116L410.308391,599.165486L414.231456,604.762413L434.366805,584.473583L439.234925,577.698385L442.024197,546.215929L451.254992,547.394216L462.891131,550.045363L473.585852,559.766248L504.648890,535.059038L522.485326,543.601606L520.990134,545.774072L530.118544,547.836074L555.315717,547.246930L552.175466,523.754886L553.212082,518.894478L560.549237,506.669835L561.421442,502.140833L564.258509,499.931566L566.959743,501.772622L582.761320,501.404410L594.871745,502.729971L601.014264,499.563354L608.296008,498.164152L604.428353,480.674160L604.462657,469.480597L612.502933,454.052670L607.071763,451.475217L599.731595,450.775622L582.469341,411.561686Z " data-cartodb-id="11" data-created-at="2013-12-06T00:00:00Z" data-name="Ponte" data-updated-at="2013-12-06T00:00:00Z"/><path d="M414.231456,604.762413L426.271082,615.035736L441.091880,616.214040L457.581938,618.276072L474.472105,620.927258L482.809398,623.578445L482.873860,630.611461L485.500285,636.503002L490.045115,641.216239L498.970053,648.286104L574.173590,697.075814L604.046999,721.194682L625.224924,730.474034L627.239517,719.721771L626.805375,712.099462L621.874958,694.719168L615.209805,681.205296L615.969601,671.484169L613.875579,646.518637L620.442997,646.518637L617.131014,622.694715L609.039201,590.033671L607.295381,571.217769L599.531969,509.468244L594.871745,502.729971L582.761320,501.404410L566.959743,501.772622L564.258509,499.931566L561.421442,502.140833L560.549237,506.669835L553.212082,518.894478L552.175466,523.754886L555.315717,547.246930L530.118544,547.836074L520.990134,545.774072L522.485326,543.601606L504.648890,535.059038L473.585852,559.766248L462.891131,550.045363L451.254992,547.394216L442.024197,546.215929L439.234925,577.698385L434.366805,584.473583L414.231456,604.762413Z " data-cartodb-id="12" data-created-at="2013-12-06T00:00:00Z" data-name="Parione" data-updated-at="2013-12-06T00:00:00Z"/><path d="M365.461981,635.030116L415.570064,680.321557L536.114458,788.838620L563.173449,809.128302L581.091411,818.555116L603.102367,825.293827L635.862461,824.999238L698.422103,818.555116L696.140874,796.203286L700.605839,788.249447L706.598654,769.580070L686.767582,760.889813L689.694171,754.887653L691.837028,749.069615L690.798712,739.421998L680.514096,739.053769L644.758393,736.623456L625.224924,730.474034L604.046999,721.194682L574.173590,697.075814L498.970053,648.286104L490.045115,641.216239L485.500285,636.503002L482.873860,630.611461L482.809398,623.578445L474.472105,620.927258L441.091880,616.214040L426.271082,615.035736L414.231456,604.762413L410.308391,599.165486L365.461981,635.030116Z " data-cartodb-id="13" data-created-at="2013-12-06T00:00:00Z" data-name="Regola" data-updated-at="2013-12-06T00:00:00Z"/><path d="M698.422103,818.555116L720.032537,818.260528L742.010069,824.410061L760.284131,834.720673L766.616776,830.596425L786.003010,837.371976L794.565901,840.759755L805.431573,838.992218L815.934695,833.542316L814.120047,818.849705L819.887365,799.443743L815.188150,791.489898L777.940265,759.122305L784.110398,746.786589L798.111146,733.567156L808.202522,726.791750L813.473305,727.086332L824.606261,720.900100L807.079934,707.091574L794.768366,703.851179L686.110142,705.913248L689.817287,721.121037L694.811045,721.378796L696.159960,740.232102L690.798712,739.421998L690.981197,751.205349L686.767582,760.889813L706.598654,769.580070L700.605839,788.249447L696.140874,796.203286L698.422103,818.555116Z " data-cartodb-id="14" data-created-at="2013-12-06T00:00:00Z" data-name="Sant'Angelo" data-updated-at="2013-12-06T00:00:00Z"/><path d="M1146.748581,864.437451L1136.346498,843.263767L900.312046,680.910716L885.424067,672.662487L877.716977,652.667952L863.469607,643.867437L857.907688,655.613735L871.207288,687.980639L794.768366,703.851179L807.079934,707.091574L824.606261,720.900100L813.473305,727.086332L808.202522,726.791750L798.111146,733.567156L784.110398,746.786589L777.940265,759.122305L815.188150,791.489898L819.887365,799.443743L833.540173,820.322646L848.896255,836.782798L864.625297,848.529562L885.644695,849.118742L896.424519,854.421366L908.548430,859.723997L938.527974,868.524903L925.447203,903.249973L921.528357,937.938467L911.184317,952.079071L1101.247655,1077.946998L1128.505747,935.581704L1146.748581,864.437451Z " data-cartodb-id="15" data-created-at="2013-12-06T00:00:00Z" data-name="Campitelli" data-updated-at="2013-12-06T00:00:00Z"/><path d="M760.284131,834.720673L743.719683,854.421366L708.083642,838.550334L686.425816,838.550334L662.031246,847.351202L634.541912,847.940382L668.463721,856.778090L730.608242,877.362649L759.408342,888.520326L777.057852,899.125667L786.554667,904.428346L787.972655,895.001365L777.702943,875.595098L762.548372,862.669905L750.995919,855.599728L762.789938,843.852947L795.456889,876.773465L817.406962,928.548245L818.472405,970.307255L812.026398,1006.763827L786.715754,1045.614316L698.082754,1146.774352L807.891338,1302.109035L902.301659,1256.222545L942.901897,1244.437964L1066.304126,1120.885724L1093.597964,1093.266431L1101.247655,1077.946998L911.184317,952.079071L921.528357,937.938467L925.447203,903.249973L938.527974,868.524903L908.548430,859.723997L900.482609,856.483500L885.644695,849.118742L864.625297,848.529562L848.896255,836.782798L833.540173,820.322646L819.887365,799.443743L814.120047,818.849705L815.934695,833.542316L805.431573,838.992218L794.565901,840.759755L766.616776,830.596425L760.284131,834.720673Z " data-cartodb-id="16" data-created-at="2013-12-06T00:00:00Z" data-name="Ripa" data-updated-at="2013-12-06T00:00:00Z"/><path d="M1146.748581,864.437451L1128.505747,935.581704L1101.247655,1077.946998L1093.597964,1093.266431L1316.827432,1260.641771L1334.846025,1283.584982L1417.149795,1353.299134L1444.666714,1387.438445L1474.842682,1433.915438L1490.265323,1462.752023L1501.375367,1496.855283L1531.597431,1486.285457L1555.321279,1465.698300L1558.861713,1447.431415L1533.800581,1433.326186L1516.355367,1403.311282L1524.241965,1380.367500L1527.548919,1346.228239L1515.022318,1322.106253L1446.339258,1278.576503L1398.349573,1207.390373L1396.707776,1167.360145L1374.913496,1164.450877L1331.799384,1132.670004L1296.778917,1058.539998L1337.407768,1058.539998L1416.279882,1016.191026L1517.888768,982.054342L1364.489693,924.423918L1233.723377,877.951832L1235.310805,865.615815L1205.063013,852.653824L1167.942235,845.583662L1156.419872,850.297102L1146.748581,864.437451Z " data-cartodb-id="17" data-created-at="2013-12-06T00:00:00Z" data-name="Celio" data-updated-at="2013-12-06T00:00:00Z"/><path d="M1501.375367,1496.855283L1490.265323,1462.752023L1476.273947,1435.977819L1444.666714,1387.438445L1417.149795,1353.299134L1334.846025,1283.584982L1316.827432,1260.641771L1093.597964,1093.266431L942.901897,1244.437964L902.301659,1256.222545L807.891338,1302.109035L846.971906,1355.361480L890.474548,1382.724481L1007.469046,1393.809671L1052.727074,1382.798136L1086.857278,1340.556799L1231.923767,1484.517683L1276.264227,1475.089568L1307.206521,1483.044539L1363.209767,1505.104921L1487.073401,1504.810290L1501.375367,1496.855283Z " data-cartodb-id="18" data-created-at="2013-12-06T00:00:00Z" data-name="San Saba" data-updated-at="2013-12-06T00:00:00Z"/><path d="M257.047948,532.407899L238.539872,523.865350L195.222394,522.723890L115.805877,572.690635L126.275395,635.913847L140.313055,651.784218L171.381540,760.300643L183.175214,774.845784L202.972079,806.035133L195.645946,832.437607L210.909359,850.518045L219.373335,849.486979L229.020951,895.038189L208.849404,923.319188L227.982189,937.459750L238.824087,932.046561L251.661727,947.218234L241.491276,996.121426L265.392510,1027.496324L251.095407,1093.008652L275.778109,1103.209359L297.833558,1110.721806L314.589188,1131.933486L329.616203,1159.810783L359.105735,1150.862043L392.594637,1166.034402L402.893251,1144.086053L430.431476,1142.723491L438.379893,1127.256597L515.719155,1115.288202L531.435832,1100.521084L581.971567,1094.776282L584.047894,1105.492552L608.561930,1114.330731L624.348477,1097.575031L658.892320,1120.001905L734.917631,1051.174933L769.375684,1005.585429L784.629979,974.137023L780.292904,950.016897L764.500947,920.005000L723.711545,900.009447L638.189741,871.765408L558.509758,853.832186L510.418423,815.020059L354.583587,674.135384L265.440568,564.479411L257.047948,532.407899Z " data-cartodb-id="20" data-created-at="2013-12-06T00:00:00Z" data-name="Trastevere" data-updated-at="2013-12-06T00:00:00Z"/><path d="M452.513339,0.000000L0.658170,132.581093L21.962742,225.180121L25.072696,239.576389L36.348144,282.065879L65.458890,289.613877L63.990994,278.310294L128.817598,282.802268L129.818494,306.293153L286.324991,372.753085L327.699127,351.581541L355.905371,317.486341L390.254442,345.138045L434.376060,360.418348L420.281216,400.405102L423.274018,418.631217L475.602955,410.677995L516.536263,398.932288L564.779819,371.280279L579.931646,338.068620L583.413878,301.617059L572.714640,257.507351L517.245616,175.474660L452.513339,0.000000Z " data-cartodb-id="21" data-created-at="2013-12-06T00:00:00Z" data-name="Prati" data-updated-at="2013-12-06T00:00:00Z"/><path d="M115.805877,572.690635L195.222394,522.723890L238.539872,523.865350L257.047948,532.407899L269.135520,496.838593L291.579801,465.062093L329.017580,432.144360L374.728673,429.198713L423.274018,418.631217L420.281216,400.405102L434.376060,360.418348L390.254442,345.138045L355.905371,317.486341L327.699127,351.581541L286.324991,372.753085L129.818494,306.293153L128.817598,282.802268L63.990994,278.310294L65.458890,289.613877L97.282432,298.671490L99.035033,387.444350L106.511813,392.157347L112.134290,398.637725L129.200151,433.911750L124.102812,459.207580L112.476239,473.899105L90.409792,477.433915L69.798459,472.720836L68.369247,505.049704L115.805877,572.690635Z " data-cartodb-id="22" data-created-at="2013-12-06T00:00:00Z" data-name="Borgo" data-updated-at="2013-12-06T00:00:00Z"/></g><g fill="#000" font-family="Arial" font-size="12px" id="mylayer-label" stroke="none"><text text-anchor="middle" y="377.492164262"><tspan dy="0" x="1444.26707677"><![CDATA[Castro Pretorio]]></tspan></text><text text-anchor="middle" y="784.379627315"><tspan dy="0" x="1286.95991129"><![CDATA[Monti]]></tspan></text><text text-anchor="middle" y="755.311435499"><tspan dy="0" x="1643.35492799"><![CDATA[Esquilino]]></tspan></text><text text-anchor="middle" y="233.763402658"><tspan dy="0" x="1259.93043622"><![CDATA[Sallustiano]]></tspan></text><text text-anchor="middle" y="1339.68586107"><tspan dy="0" x="684.654898021"><![CDATA[Testaccio]]></tspan></text><text text-anchor="middle" y="211.995963983"><tspan dy="0" x="1108.7403092"><![CDATA[Ludovisi]]></tspan></text><text text-anchor="middle" y="482.788964448"><tspan dy="0" x="980.918913557"><![CDATA[Trevi]]></tspan></text><text text-anchor="middle" y="428.20297057"><tspan dy="0" x="826.384296869"><![CDATA[Colonna]]></tspan></text><text text-anchor="middle" y="242.789030323"><tspan dy="0" x="752.741122716"><![CDATA[Campo Marzio]]></tspan></text><text text-anchor="middle" y="621.30079694"><tspan dy="0" x="767.091631618"><![CDATA[Pigna]]></tspan></text><text text-anchor="middle" y="586.654499143"><tspan dy="0" x="647.883102891"><![CDATA[Sant'Eustachio]]></tspan></text><text text-anchor="middle" y="508.652659167"><tspan dy="0" x="445.711078951"><![CDATA[Ponte]]></tspan></text><text text-anchor="middle" y="600.336424604"><tspan dy="0" x="543.6344374"><![CDATA[Parione]]></tspan></text><text text-anchor="middle" y="719.47597691"><tspan dy="0" x="543.149345142"><![CDATA[Regola]]></tspan></text><text text-anchor="middle" y="761.470146039"><tspan dy="0" x="753.037320894"><![CDATA[Sant'Angelo]]></tspan></text><text text-anchor="middle" y="851.23857224"><tspan dy="0" x="982.915652551"><![CDATA[Campitelli]]></tspan></text><text text-anchor="middle" y="1070.13353669"><tspan dy="0" x="877.593591568"><![CDATA[Ripa]]></tspan></text><text text-anchor="middle" y="1099.9738471"><tspan dy="0" x="1303.19042481"><![CDATA[Celio]]></tspan></text><text text-anchor="middle" y="1316.39963515"><tspan dy="0" x="1167.44269782"><![CDATA[San Saba]]></tspan></text><text text-anchor="middle" y="884.110963095"><tspan dy="0" x="413.107372154"><![CDATA[Trastevere]]></tspan></text><text text-anchor="middle" y="204.447286952"><tspan dy="0" x="315.398810803"><![CDATA[Prati]]></tspan></text><text text-anchor="middle" y="415.547517919"><tspan dy="0" x="220.474852413"><![CDATA[Borgo]]></tspan></text></g></svg>