<?xml version="1.0" encoding="utf-8"?><!DOCTYPE svg  PUBLIC '-//W3C//DTD SVG 1.1//EN'  'http://www.w3.org/Graphics/SVG/1.1/DTD/svg11.dtd'><svg enable_background="new 0 0 2000 917" height="917px" pretty_print="False" style="stroke-linejoin: round; stroke:#000; fill: none;" version="1.1" viewBox="0 0 2000 917" width="2000px" xmlns="http://www.w3.org/2000/svg" xmlns:xlink="http://www.w3.org/1999/xlink"><defs><style type="text/css"><![CDATA[path { fill-rule: evenodd; }]]></style></defs><metadata><views><view h="917.888699537" padding="0" w="2000"><proj flip="auto" id="robinson" lon0="-111.843119942"/><bbox h="2.57" w="5.61" x="-1524.25" y="-685.99"/></view></views></metadata><g class="" id="mylayer"><path d="M972.128142,915.888700L980.286499,915.876945L980.295031,915.859314L985.577108,915.841683L987.441074,912.009845L987.276276,912.009845L987.631779,911.275217L989.064485,911.269340L988.408360,912.615179L992.572769,912.603425L993.179616,915.706510L994.394211,915.700633L994.334490,915.824052L995.468690,915.824052L995.531255,915.694756L998.534397,915.688879L999.791722,913.120604L1000.094142,912.585794L1000.166847,912.585794L1000.176220,912.556409L1000.181908,912.544655L1000.190440,912.527024L1000.198971,912.509392L1000.202656,912.491761L1000.208344,912.480007L1000.216876,912.462376L1000.225408,912.444745L1000.229092,912.427114L1000.234780,912.415360L1000.243312,912.397729L1000.246997,912.380098L1000.252685,912.368344L1000.261217,912.350713L1000.264901,912.333081L1000.273433,912.315450L1000.279121,912.303696L1000.287653,912.286065L1000.291338,912.268434L1000.299870,912.250803L1000.305558,912.239049L1000.309242,912.221418L1000.317774,912.203787L1000.326306,912.186156L1000.327147,912.174402L1000.335679,912.156770L1000.344211,912.139139L1000.345051,912.127385L1000.353583,912.109754L1000.362115,912.092123L1000.365800,912.074492L1000.371488,912.062738L1000.375173,912.045107L1000.383704,912.027476L1000.392236,912.009845L1000.393077,911.998091L1000.401609,911.980460L1000.410141,911.962829L1000.413826,911.945197L1000.419514,911.933443L1000.423198,911.915812L1000.431730,911.898181L1000.437418,911.886427L1000.441103,911.868796L1000.449635,911.851165L1000.453320,911.833534L1000.459008,911.821780L1000.467539,911.804149L1000.471224,911.786518L1000.479756,911.768887L1000.480597,911.757133L1000.489129,911.739502L1000.497661,911.721871L1000.498502,911.710116L1000.507034,911.692485L1000.510718,911.674854L1000.519250,911.657223L1000.520091,911.645469L1000.528623,911.627838L1000.532308,911.610207L1000.540840,911.592576L1000.546528,911.580822L1000.550213,911.563191L1000.558744,911.545560L1000.559585,911.533806L1000.568117,911.516175L1000.571802,911.498544L1000.580334,911.480913L1000.581175,911.469159L1000.589707,911.451527L1000.593392,911.433896L1000.599079,911.422142L1000.602764,911.404511L1000.611296,911.386880L1000.614981,911.369249L1000.620669,911.357495L1000.624354,911.339864L1000.632886,911.322233L1000.633727,911.310479L1000.642259,911.292848L1000.645943,911.275217L1000.654475,911.257586L1000.655316,911.245832L1000.663848,911.228201L1000.667533,911.210570L1000.673221,911.198816L1000.676906,911.181185L1000.685438,911.163554L1000.689123,911.145923L1000.689964,911.134169L1000.698495,911.116537L1000.702180,911.098906L1000.707868,911.087152L1000.711553,911.069521L1000.720085,911.051890L1000.723770,911.034259L1000.729458,911.022505L1000.733143,911.004874L1000.736828,910.987243L1000.742516,910.975489L1000.746201,910.957858L1000.754732,910.940227L1000.758417,910.922596L1000.764105,910.910842L1000.767790,910.893211L1000.771475,910.875580L1000.777163,910.863826L1000.780848,910.846195L1000.789380,910.828564L1000.793065,910.810933L1000.793906,910.799179L1000.802438,910.781548L1000.806123,910.763917L1000.806964,910.752163L1000.815495,910.734532L1000.819180,910.716901L1000.824868,910.705147L1000.828553,910.687515L1000.832238,910.669884L1000.840770,910.652253L1000.841611,910.640499L1000.845296,910.622868L1000.853828,910.605237L1000.854669,910.593483L1000.858354,910.575852L1000.866886,910.558221L1000.867727,910.546467L1000.871412,910.528836L1000.879943,910.511205L1000.883628,910.493574L1000.884469,910.481820L1000.893001,910.464189L1000.896686,910.446558L1000.897527,910.434804L1000.906059,910.417173L1000.909744,910.399542L1000.910585,910.387788L1000.914270,910.370157L1000.922802,910.352526L1000.923643,910.340772L1000.927328,910.323141L1000.935860,910.305510L1000.939545,910.287879L1000.940386,910.276125L1000.948918,910.258494L1000.952603,910.240863L1000.953444,910.229109L1000.957129,910.211478L1001.580309,907.801912L1001.586838,907.778405L1001.592526,907.766651L1001.596211,907.749020L1001.599896,907.731389L1001.600737,907.719635L1001.609269,907.702004L1001.612955,907.684373L1001.613796,907.672619L1001.617481,907.654988L1001.626013,907.637357L1001.629698,907.619726L1001.630539,907.607972L1001.634224,907.590341L1001.637909,907.572711L1001.643597,907.560957L1001.647282,907.543326L1001.650968,907.525695L1001.651809,907.513941L1001.660341,907.496310L1001.664026,907.478679L1001.664867,907.466925L1001.668552,907.449294L1001.672237,907.431663L1001.677925,907.419909L1001.681611,907.402278L1001.685296,907.384648L1001.686137,907.372894L1001.689822,907.355263L1001.693507,907.337632L1001.699195,907.325878L1001.702880,907.308247L1001.706565,907.290616L1001.707407,907.278862L1001.711092,907.261231L1001.714777,907.243600L1001.720465,907.231846L1001.724150,907.214215L1001.727835,907.196585L1001.728676,907.184831L1001.732361,907.167200L1001.736047,907.149569L1001.736888,907.137815L1001.745420,907.120184L1001.749105,907.102553L1001.749946,907.090799L1001.753631,907.073168L1001.757316,907.055537L1001.758158,907.043784L1001.761843,907.026153L1001.765528,907.008522L1001.766369,906.996768L1001.774901,906.979137L1001.778586,906.961506L1001.779427,906.949752L1001.783113,906.932121L1001.786798,906.914490L1001.787639,906.902736L1001.791324,906.885106L1001.795009,906.867475L1001.795850,906.855721L1001.799536,906.838090L1001.803221,906.820459L1001.804062,906.808705L1001.812594,906.791074L1001.813435,906.779320L1001.817120,906.761689L1001.820806,906.744058L1001.821647,906.732305L1001.825332,906.714674L1001.829017,906.697043L1001.829858,906.685289L1001.833543,906.667658L1001.837229,906.650027L1001.838070,906.638273L1001.841755,906.620642L1001.845440,906.603011L1001.846281,906.591258L1001.849966,906.573627L1001.850808,906.561873L1001.854493,906.544242L1001.858178,906.526611L1001.859019,906.514857L1001.862704,906.497226L1001.866389,906.479595L1001.867231,906.467841L1001.870916,906.450211L1001.874601,906.432580L1001.875442,906.420826L1001.879127,906.403195L1001.879968,906.391441L1001.883654,906.373810L1001.887339,906.356179L1001.888180,906.344425L1001.891865,906.326795L1001.895550,906.309164L1001.896392,906.297410L1001.900077,906.279779L1001.903762,906.262148L1001.904603,906.250394L1001.908288,906.232763L1001.909130,906.221009L1001.912815,906.203378L1001.916500,906.185748L1001.912494,906.173994L1001.916179,906.156363L1001.919865,906.138732L1001.920706,906.126978L1001.924391,906.109347L1001.925232,906.097593L1001.928917,906.079962L1001.932603,906.062332L1001.933444,906.050578L1001.937129,906.032947L1001.937970,906.021193L1001.941655,906.003562L1001.940494,905.985931L1001.941335,905.974177L1001.945020,905.956547L1001.948705,905.938916L1001.949546,905.927162L1001.953232,905.909531L1001.954073,905.897777L1001.957758,905.880146L1001.961443,905.862515L1001.957438,905.850761L1001.961123,905.833131L1001.961964,905.821377L1001.965649,905.803746L1001.969334,905.786115L1001.970176,905.774361L1001.973861,905.756730L1001.969855,905.744976L1001.973540,905.727346L1001.977226,905.709715L1001.978067,905.697961L1001.981752,905.680330L1001.982593,905.668576L1001.986278,905.650945L1001.985117,905.633314L1001.985958,905.621561L1001.989643,905.603930L1001.990484,905.592176L1001.994170,905.574545L1001.993008,905.556914L1001.993849,905.545160L1001.997534,905.527529L1001.998376,905.515776L1002.002061,905.498145L1002.000899,905.480514L1002.001740,905.468760L1002.005426,905.451129L1002.006267,905.439375L1002.009952,905.421744L1002.005946,905.409991L1002.009632,905.392360L1002.013317,905.374729L1002.014158,905.362975L1002.017843,905.345344L1002.013838,905.333590L1002.017523,905.315959L1002.021208,905.298329L1002.022049,905.286575L1002.020888,905.268944L1002.021729,905.257190L1002.025414,905.239559L1002.026255,905.227805L1002.025094,905.210175L1002.028779,905.192544L1002.029620,905.180790L1002.033305,905.163159L1002.029300,905.151405L1002.032985,905.133774L1002.033826,905.122020L1002.032664,905.104390L1002.036350,905.086759L1002.037191,905.075005L1002.040876,905.057374L1002.036871,905.045620L1002.040556,905.027989L1002.041397,905.016236L1002.040235,904.998605L1002.041077,904.986851L1002.044762,904.969220L1002.043600,904.951589L1002.044441,904.939835L1002.048127,904.922205L1002.048968,904.910451L1002.047806,904.892820L1002.048647,904.881066L1002.052333,904.863435L1002.048327,904.851681L1002.052012,904.834051L1002.055698,904.816420L1002.051692,904.804666L1002.055377,904.787035L1002.056218,904.775281L1002.055057,904.757650L1002.055898,904.745897L1002.054736,904.728266L1002.055578,904.716512L1002.059263,904.698881L1002.055257,904.687127L1002.058943,904.669496L1002.062628,904.651866L1002.058622,904.640112L1002.062307,904.622481L1002.063149,904.610727L1002.061987,904.593096L1002.062828,904.581342L1002.061667,904.563712L1002.062508,904.551958L1002.066193,904.534327L1002.062187,904.522573L1002.065873,904.504942L1002.061867,904.493188L1002.065552,904.475558L1002.066394,904.463804L1002.065232,904.446173L1002.068917,904.428542L1002.064912,904.416788L1002.068597,904.399158L1002.069438,904.387404L1002.068277,904.369773L1002.069118,904.358019L1002.067956,904.340388L1002.068797,904.328634L1002.067636,904.311004L1002.068477,904.299250L1002.067316,904.281619L1002.068157,904.269865L1002.071842,904.252234L1002.067836,904.240481L1002.071522,904.222850L1002.067516,904.211096L1002.071201,904.193465L1002.067196,904.181711L1002.070881,904.164080L1002.066875,904.152327L1002.070561,904.134696L1002.066555,904.122942L1002.070240,904.105311L1002.066235,904.093557L1002.069920,904.075927L1002.065914,904.064173L1002.069600,904.046542L1002.065594,904.034788L1002.069279,904.017157L1002.065274,904.005403L1002.068959,903.987773L1002.064953,903.976019L1002.068639,903.958388L1002.064633,903.946634L1002.068318,903.929003L1002.064313,903.917250L1002.067998,903.899619L1002.063992,903.887865L1002.067678,903.870234L1002.063672,903.858480L1002.002411,901.260888L1006.395746,901.266765L1005.024882,904.099434L1007.288411,904.099434L1007.069417,904.551958L1016.542942,904.787035L1017.590520,899.156967L1002.008480,898.434113L1002.013007,898.404729L1002.013849,898.392975L1002.017535,898.375345L1002.013529,898.363591L1002.017215,898.345960L1002.020901,898.328330L1002.021742,898.316576L1002.020581,898.298946L1002.021423,898.287192L1002.025108,898.269561L1002.025950,898.257808L1002.024789,898.240177L1002.028475,898.222547L1002.029316,898.210793L1002.033002,898.193162L1002.033843,898.181409L1002.032682,898.163778L1002.036368,898.146148L1002.037209,898.134394L1002.040895,898.116763L1002.036890,898.105010L1002.040576,898.087379L1002.044261,898.069749L1002.045103,898.057995L1002.048789,898.040364L1002.049630,898.028611L1002.048469,898.010980L1002.049311,897.999226L1002.052996,897.981596L1002.056682,897.963965L1002.057524,897.952212L1002.056363,897.934581L1002.057204,897.922827L1002.060890,897.905197L1002.064576,897.887566L1002.065417,897.875813L1002.069103,897.858182L1002.069945,897.846428L1002.068783,897.828798L1002.072469,897.811167L1002.073311,897.799414L1002.076997,897.781783L1002.077838,897.770029L1002.081524,897.752399L1002.085210,897.734768L1002.081204,897.723015L1002.084890,897.705384L1002.088576,897.687754L1002.089418,897.676000L1002.093103,897.658369L1002.093945,897.646616L1002.097631,897.628985L1002.101317,897.611355L1002.102158,897.599601L1002.100997,897.581970L1002.101839,897.570217L1002.105524,897.552586L1002.109210,897.534956L1002.110052,897.523202L1002.113738,897.505571L1002.114579,897.493818L1002.118265,897.476187L1002.121951,897.458557L1002.122792,897.446803L1002.126478,897.429173L1002.130164,897.411542L1002.126159,897.399788L1002.129844,897.382158L1002.130686,897.370404L1002.134372,897.352774L1002.138058,897.335143L1002.138899,897.323389L1002.142585,897.305759L1002.146271,897.288128L1002.147112,897.276375L1002.150798,897.258744L1002.151640,897.246991L1002.155326,897.229360L1002.159012,897.211730L1002.159853,897.199976L1002.163539,897.182345L1002.167225,897.164715L1002.168066,897.152961L1002.171752,897.135331L1002.175438,897.117700L1002.176280,897.105946L1002.179965,897.088316L1002.180807,897.076562L1002.184493,897.058932L1002.188179,897.041301L1002.189020,897.029548L1002.192706,897.011917L1002.196392,896.994287L1002.197234,896.982533L1002.200919,896.964902L1002.204605,896.947272L1002.205447,896.935518L1002.209133,896.917888L1002.209974,896.906134L1002.213660,896.888504L1002.217346,896.870873L1002.218188,896.859119L1002.221873,896.841489L1002.225559,896.823858L1002.226401,896.812105L1002.230087,896.794474L1002.233773,896.776844L1002.234614,896.765090L1002.238300,896.747460L1002.241986,896.729829L1002.242828,896.718076L1002.251360,896.700445L1002.255046,896.682815L1002.255888,896.671061L1002.259574,896.653430L1002.260415,896.641677L1002.264101,896.624046L1002.267787,896.606416L1002.268629,896.594662L1002.272315,896.577032L1002.276000,896.559401L1002.276842,896.547647L1002.280528,896.530017L1002.289061,896.512386L1002.289902,896.500633L1002.293588,896.483002L1002.297274,896.465372L1002.298116,896.453618L1002.301802,896.435988L1002.305487,896.418357L1002.306329,896.406604L1002.310015,896.388973L1002.318548,896.371343L1002.319389,896.359589L1002.323075,896.341959L1002.326761,896.324328L1002.327603,896.312574L1002.331289,896.294944L1002.334975,896.277313L1002.340663,896.265560L1002.344349,896.247929L1002.348035,896.230299L1002.348877,896.218545L1002.352562,896.200915L1002.356248,896.183284L1002.361937,896.171531L1002.365623,896.153900L1002.369309,896.136270L1002.370150,896.124516L1002.373836,896.106886L1002.377522,896.089255L1002.383211,896.077501L1002.386897,896.059871L1002.390583,896.042241L1002.391424,896.030487L1002.395110,896.012856L1002.403643,895.995226L1002.404485,895.983472L1002.408170,895.965842L1002.411856,895.948211L1002.412698,895.936458L1002.421231,895.918827L1002.424917,895.901197L1002.428603,895.883566L1002.429444,895.871813L1002.433130,895.854182L1002.441663,895.836552L1002.442505,895.824798L1002.446191,895.807168L1002.449877,895.789537L1002.455565,895.777784L1002.459251,895.760153L1002.462937,895.742523L1002.463779,895.730769L1002.472311,895.713139L1002.475997,895.695508L1002.476839,895.683755L1002.480525,895.666124L1002.489058,895.648494L1002.489900,895.636740L1002.493585,895.619110L1002.497271,895.601479L1002.505804,895.583849L1002.506646,895.572095L1002.510332,895.554465L1002.518865,895.536834L1002.519706,895.525081L1002.523392,895.507450L1002.527078,895.489820L1002.532767,895.478066L1002.536453,895.460436L1002.540139,895.442805L1002.545827,895.431051L1002.549513,895.413421L1002.553199,895.395791L1002.561732,895.378160L1002.562574,895.366407L1002.566260,895.348776L1002.574793,895.331146L1002.575634,895.319392L1002.579320,895.301762L1002.587853,895.284131L1002.588695,895.272378L1002.592381,895.254747L1002.600914,895.237117L1002.601755,895.225363L1002.605441,895.207733L1002.613974,895.190102L1002.617660,895.172472L1002.618502,895.160718L1002.627035,895.143088L1002.630721,895.125457L1002.631562,895.113704L1002.640095,895.096073L1002.643781,895.078443L1002.647467,895.060812L1002.653156,895.049059L1002.656842,895.031428L1002.665375,895.013798L1002.666216,895.002044L1002.669902,894.984414L1002.678435,894.966783L1002.679277,894.955030L1002.687810,894.937399L1002.691496,894.919769L1002.695182,894.902139L1002.700870,894.890385L1002.704556,894.872754L1002.713089,894.855124L1002.713931,894.843370L1002.717617,894.825740L1002.726150,894.808110L1002.729836,894.790479L1002.735524,894.778726L1002.739210,894.761095L1002.747743,894.743465L1002.748585,894.731711L1002.752271,894.714081L1002.760804,894.696450L1002.761646,894.684697L1002.770178,894.667066L1002.773864,894.649436L1002.782397,894.631805L1002.783239,894.620052L1002.791772,894.602421L1002.795458,894.584791L1002.801147,894.573037L1002.804833,894.555407L1002.813365,894.537777L1002.817051,894.520146L1002.817893,894.508393L1002.826426,894.490762L1002.830112,894.473132L1002.835801,894.461378L1002.839487,894.443748L1002.848020,894.426117L1002.851706,894.408487L1002.857394,894.396733L1002.861080,894.379103L1002.869613,894.361473L1002.873299,894.343842L1002.878988,894.332089L1002.882674,894.314458L1002.891207,894.296828L1002.896896,894.285074L1002.900582,894.267444L1002.909114,894.249813L1002.912800,894.232183L1002.918489,894.220429L1002.922175,894.202799L1002.930708,894.185169L1002.931550,894.173415L1002.940083,894.155785L1002.943769,894.138154L1002.952302,894.120524L1002.953143,894.108770L1002.961676,894.091140L1002.970209,894.073510L1002.973895,894.055879L1002.979584,894.044126L1002.983270,894.026495L1002.991803,894.008865L1002.992645,893.997111L1003.001178,893.979481L1003.009711,893.961850L1003.013397,893.944220L1003.019085,893.932466L1003.022771,893.914836L1003.031304,893.897206L1003.039837,893.879575L1003.040679,893.867822L1003.049212,893.850191L1003.052898,893.832561L1003.058587,893.820807L1003.067120,893.803177L1003.070806,893.785547L1003.079339,893.767916L1003.080180,893.756163L1003.088713,893.738532L1003.097246,893.720902L1003.100932,893.703271L1003.106621,893.691518L1003.115154,893.673888L1003.118840,893.656257L1003.124529,893.644504L1003.128215,893.626873L1003.136748,893.609243L1003.145281,893.591612L1003.146122,893.579859L1003.154655,893.562229L1003.163188,893.544598L1003.166875,893.526968L1003.172563,893.515214L1003.181096,893.497584L1003.184782,893.479953L1003.193315,893.462323L1003.199004,893.450570L1005.494732,888.737410L998.916362,888.990109L998.335372,889.048876L996.876570,889.148781L997.291625,890.594459L992.367494,890.623843L993.322074,888.631629L991.176884,888.367176L985.502019,888.355423L985.630023,888.090970L988.899670,888.085093L990.954602,883.859752L990.343897,883.859752L989.363358,885.875452L986.704423,885.881329L990.118315,878.858738L1022.373248,878.870491L1022.144576,880.133962L1021.115040,880.128085L1020.680036,882.478738L1023.618396,882.496368L1024.748497,880.151592L1066.741348,880.392533L1075.841582,861.041233L1087.754104,861.052986L1085.202352,866.394639L1097.004615,866.424021L1096.363782,867.757975L1096.155369,867.757975L1092.178494,876.014472L1105.523314,876.061484L1105.218989,876.690277L1105.887853,876.690277L1105.819593,876.831315L1112.111348,877.060502L1114.321255,872.494424L1116.555639,872.494424L1124.647685,855.676138L1132.307549,855.682015L1134.309035,849.294519L1134.615003,849.082975L1134.596458,849.071223L1134.579916,849.065346L1134.571065,849.053594L1134.559369,849.047718L1134.547674,849.041842L1134.538823,849.030089L1134.527127,849.024213L1134.518276,849.012460L1134.506581,849.006584L1134.497730,848.994832L1134.488879,848.983079L1134.477183,848.977203L1134.468332,848.965451L1134.464328,848.953698L1134.455477,848.941946L1134.443781,848.936070L1134.434930,848.924317L1134.430926,848.912565L1134.422075,848.900812L1134.413224,848.889060L1134.409220,848.877307L1134.400369,848.865555L1134.396365,848.853803L1134.387514,848.842050L1134.383510,848.830298L1134.379505,848.818545L1134.370655,848.806793L1134.366650,848.795040L1134.362646,848.783288L1134.358642,848.771536L1134.357482,848.753907L1134.353478,848.742155L1134.349474,848.730402L1134.345469,848.718650L1134.344310,848.701021L1134.340306,848.689269L1134.336301,848.677516L1134.335142,848.659888L1134.331138,848.648135L1134.329978,848.630507L1134.330820,848.618754L1134.326816,848.607002L1134.330503,848.589373L1134.326499,848.577621L1134.330186,848.559992L1134.326182,848.548240L1134.329869,848.530611L1134.328709,848.512982L1134.329552,848.501230L1134.333239,848.483601L1134.334082,848.471849L1134.337769,848.454220L1134.341456,848.436592L1134.342298,848.424839L1134.345985,848.407211L1134.346828,848.395458L1134.350515,848.377830L1134.354202,848.360201L1134.357889,848.342572L1134.363578,848.330820L1134.367266,848.313191L1134.370953,848.295563L1134.376642,848.283810L1134.380329,848.266182L1134.388863,848.248553L1134.397397,848.230924L1134.398239,848.219172L1134.406773,848.201543L1134.415307,848.183915L1134.420996,848.172162L1134.429530,848.154534L1129.265776,848.148657L1129.778973,847.108570L1132.757698,847.102694L1133.308718,845.974467L1135.497428,845.968591L1136.048450,844.840366L1139.131795,844.828614L1139.444708,844.182236L1152.440391,844.158732L1151.985256,845.098917L1154.988209,845.093041L1155.438495,844.152855L1176.911895,844.117599L1174.380035,849.318024L1220.776008,849.341529L1221.640630,847.555161L1225.094376,840.409761L1230.684492,828.851607L1231.054281,828.087733L1234.623401,828.093609L1236.461422,827.840944L1237.323498,828.052478L1240.186159,827.805688L1240.249898,827.694045L1243.798348,827.312109L1244.633692,828.099485L1250.204470,828.105361L1251.270728,828.105361L1264.084373,828.117113L1271.432704,828.105361L1266.530687,801.100302L1265.593309,793.667727L1264.826190,787.545491L1263.514161,777.104976L1262.652759,764.044384L1262.591746,763.039738L1261.832628,751.430660L1261.715182,749.662299L1261.002320,738.799659L1260.887813,737.025471L1260.724342,734.552195L1260.575886,732.308046L1260.280967,727.725787L1259.908071,726.075010L1259.311571,723.425554L1258.192169,718.485036L1256.881708,718.479161L1251.802939,718.479161L1240.790478,718.473287L1235.326863,718.467412L1221.489095,718.461537L1213.219558,718.455663L1207.625097,718.449788L1193.767945,718.443914L1179.746023,718.438039L1151.872644,718.414541L1151.630624,718.913878L1137.865542,718.908003L1124.001540,718.896254L1109.857610,718.902128L1095.304605,718.902128L1081.488215,718.902128L1067.603979,718.902128L1053.780745,718.896254L1039.867432,718.896254L1032.956814,718.896254L1026.000582,718.890379L1019.070580,718.890379L1012.116346,718.890379L1008.467512,726.356992L1007.324368,728.695107L1005.933484,731.544333L1003.212443,737.107718L1002.805225,737.947813L1000.510587,742.641796L997.821067,748.140691L995.176354,753.557402L992.605764,758.821426L988.906638,766.394440L961.443156,766.382690L960.677431,766.382690L938.780274,811.194696L934.710321,811.212324L931.057793,818.692190L932.742406,818.686314L932.176839,819.843853L934.562209,819.832102L934.221503,820.525452L930.156363,820.543079L929.252944,822.388100L933.315244,822.376348L931.047375,827.018312L928.157942,827.030064L922.895514,837.794901L925.782129,837.789025L924.256415,840.909230L923.736467,841.972808L924.892824,841.966931L915.855414,860.488855L919.415788,860.482978L914.897526,869.744222L924.614220,869.726592L926.911629,865.101824L922.701770,865.107700L924.658779,861.005975L942.145615,860.976593L948.587860,847.772581L955.514659,847.760828L956.270737,846.209514L963.777130,846.191885L945.642897,883.565919L960.078558,883.542412L951.097861,902.066023L957.182643,901.701655L958.078633,899.850437L961.026414,899.838683L961.527032,898.804355L965.977360,898.792601L975.644783,878.870491L987.581937,878.811725L983.079717,888.102724L974.656985,888.120354L973.072246,891.364314L973.685800,891.358438L970.741135,897.382158L972.648823,897.376281L972.443375,898.722079L972.729344,898.722079L969.122967,906.103470L976.833329,906.085839L974.891611,910.088061L974.932710,910.123323L972.128142,915.888700Z " data-cartodb-id="1" data-created-at="2013-03-13T17:10:45.249Z" data-name="Sugar House" data-updated-at="2013-03-13T17:10:45.526Z"/><path d="M1247.266771,671.079901L1244.441583,671.079901L1230.782853,671.085775L1226.266429,671.085775L1219.222418,671.091648L1216.576530,671.091648L1214.313472,671.091648L1205.573379,671.097522L1202.716267,671.103396L1200.145370,676.395847L1197.824325,681.183189L1194.279671,688.484714L1191.964507,693.260433L1187.879114,701.678271L1185.752080,706.066416L1182.962536,711.811602L1181.721130,714.372873L1179.746023,718.438039L1193.767945,718.443914L1207.625097,718.449788L1213.219558,718.455663L1221.489095,718.461537L1235.326863,718.467412L1240.790478,718.473287L1251.802939,718.479161L1256.881708,718.479161L1258.192169,718.485036L1255.941939,708.498418L1255.479710,706.442377L1255.329353,705.772697L1254.431555,701.795757L1253.503241,697.671995L1250.978776,686.464007L1247.266771,671.079901Z " data-cartodb-id="2" data-created-at="2013-03-13T17:10:45.249Z" data-name="Bonneville Hills" data-updated-at="2013-03-13T17:10:45.526Z"/><path d="M1202.716267,671.103396L1188.769627,671.103396L1184.151439,671.103396L1179.780393,671.103396L1174.824985,671.109270L1169.305450,671.109270L1163.749145,671.115144L1147.279763,671.121018L1132.884448,671.126892L1118.459205,671.144514L1115.881363,676.460461L1113.579896,681.206685L1110.948960,686.622609L1108.266002,692.156080L1105.728390,697.390030L1103.395065,702.212835L1101.076905,706.994570L1099.875135,709.473573L1097.847550,713.656185L1095.304605,718.902128L1109.857610,718.902128L1124.001540,718.896254L1137.865542,718.908003L1151.630624,718.913878L1151.872644,718.414541L1179.746023,718.438039L1181.721130,714.372873L1182.962536,711.811602L1185.752080,706.066416L1187.879114,701.678271L1191.964507,693.260433L1194.279671,688.484714L1197.824325,681.183189L1200.145370,676.395847L1202.716267,671.103396Z " data-cartodb-id="3" data-created-at="2013-03-13T17:10:45.249Z" data-name="Wasatch Hollow" data-updated-at="2013-03-13T17:10:45.526Z"/><path d="M1035.241167,671.191505L1029.896086,671.191505L1024.553001,671.197379L1021.400285,671.203253L1007.547714,671.209127L993.697140,671.220875L979.856257,671.232623L972.739555,671.238497L965.928147,671.244371L952.077571,671.256119L942.784671,690.434940L938.296774,699.698626L934.885953,706.741971L933.623140,709.356084L929.004778,718.890379L923.187589,730.898115L920.934665,735.545029L919.672095,738.159305L915.430543,746.918709L910.941482,756.189407L908.022885,762.240723L906.014171,766.365064L905.811994,766.782201L932.632918,766.799826L933.155996,765.730548L961.013411,765.689422L960.677431,766.382690L961.443156,766.382690L988.906638,766.394440L992.605764,758.821426L995.176354,753.557402L997.821067,748.140691L1000.510587,742.641796L1002.805225,737.947813L1003.212443,737.107718L1005.933484,731.544333L1007.324368,728.695107L1008.467512,726.356992L1012.116346,718.890379L1014.859051,713.233223L1015.787550,711.318147L1018.046187,706.659730L1020.307742,701.995485L1021.418607,699.704500L1022.566518,697.337161L1024.754151,692.825740L1027.089977,688.008907L1029.348963,683.350725L1030.739994,680.472427L1035.241167,671.191505Z " data-cartodb-id="4" data-created-at="2013-03-13T17:10:45.249Z" data-name="Liberty-Wells" data-updated-at="2013-03-13T17:10:45.526Z"/><path d="M872.750735,625.946747L809.756492,626.205175L773.995672,626.293276L754.454163,626.340263L114.102802,636.419079L93.344351,680.037747L75.960286,680.190472L46.830289,741.443328L33.095359,745.197364L22.697458,766.723449L57.767238,766.370940L104.274669,766.147684L150.761840,765.936178L182.579610,765.983179L185.040743,765.595420L186.913744,765.331038L188.772487,765.096032L190.626665,764.890403L192.466586,764.714148L194.295101,764.561395L196.116201,764.443892L201.711196,764.179512L205.253887,764.079634L208.770061,764.044384L244.818938,763.921006L291.139790,763.762378L337.467471,763.609624L385.968888,763.721252L451.786023,763.703626L455.561040,763.674251L459.102854,763.586124L462.668321,763.439246L466.257440,763.233617L469.864511,762.980987L473.502930,762.663731L477.157304,762.293599L507.238288,759.027053L509.710446,758.786175L511.521523,758.639299L513.323197,758.521798L515.113472,758.427797L516.891494,758.369046L518.653270,758.333796L520.405644,758.327921L522.146618,758.345546L523.870494,758.398422L525.578125,758.474797L527.271508,758.580548L528.950643,758.715675L530.610683,758.880176L532.254478,759.068178L533.884026,759.285556L535.489634,759.532309L537.080995,759.808437L538.651265,760.108066L540.207289,760.437070L541.739373,760.795450L549.347089,762.646106L550.560446,762.922236L551.341313,763.080864L552.135575,763.221867L552.935536,763.351119L553.746043,763.468622L554.565098,763.568499L555.389852,763.656625L556.228002,763.727127L557.071850,763.785878L557.921398,763.832879L558.779493,763.862255L559.648135,763.879880L560.517628,763.885755L568.635826,763.844629L568.481106,764.173636L573.792415,764.144261L576.049963,764.156011L577.779551,764.197137L579.494892,764.267638L581.191140,764.367516L582.875992,764.490893L584.538901,764.649522L586.185568,764.831651L587.817989,765.043156L589.434168,765.278162L591.028406,765.548418L592.606401,765.842176L627.552510,772.710277L629.702441,773.103918L631.300408,773.356554L632.919465,773.585688L634.547920,773.785447L636.197464,773.961704L637.864102,774.102710L639.546982,774.220215L641.244106,774.308344L642.960320,774.367097L644.687930,774.402348L646.427787,774.402348L648.183884,774.378847L725.356632,772.722027L723.562564,769.085270L723.556570,769.067644L723.547728,769.055894L723.543732,769.044143L723.534890,769.032393L723.530894,769.020643L723.526898,769.008892L723.518056,768.997142L723.514060,768.985392L723.505218,768.973641L723.501222,768.961891L723.497227,768.950140L723.488384,768.938390L723.484389,768.926640L723.475546,768.914889L723.471551,768.903139L723.467555,768.891389L723.458713,768.879638L723.457565,768.862013L723.453570,768.850262L723.444727,768.838512L723.440732,768.826761L723.436736,768.815011L723.427894,768.803261L723.423898,768.791510L723.415056,768.779760L723.411060,768.768010L723.407064,768.756259L723.398222,768.744509L723.394226,768.732758L723.390230,768.721008L723.384237,768.703383L723.380241,768.691632L723.376245,768.679882L723.367403,768.668131L723.363407,768.656381L723.359411,768.644631L723.350569,768.632880L723.346573,768.621130L723.342578,768.609380L723.333735,768.597629L723.332588,768.580004L723.328592,768.568253L723.319750,768.556503L723.315754,768.544753L723.311759,768.533002L723.302917,768.521252L723.298921,768.509501L723.294925,768.497751L723.290929,768.486001L723.284936,768.468375L723.280940,768.456625L723.276944,768.444874L723.268102,768.433124L723.264106,768.421374L723.260110,768.409623L723.256115,768.397873L723.247272,768.386123L723.243277,768.374372L723.242129,768.356747L723.233287,768.344996L723.229291,768.333246L723.225296,768.321496L723.221300,768.309745L723.212458,768.297995L723.208462,768.286245L723.207315,768.268619L723.203319,768.256869L723.194477,768.245118L723.190481,768.233368L723.186485,768.221618L723.182490,768.209867L723.173648,768.198117L723.172500,768.180491L723.168504,768.168741L723.164509,768.156991L723.155667,768.145240L723.151671,768.133490L723.147675,768.121739L723.146528,768.104114L723.137686,768.092364L723.133690,768.080613L723.129694,768.068863L723.125698,768.057113L723.121703,768.045362L723.115709,768.027737L723.111713,768.015986L723.107718,768.004236L723.103722,767.992486L723.099726,767.980735L723.090884,767.968985L723.089737,767.951359L723.085741,767.939609L723.081745,767.927859L723.077750,767.916108L723.068907,767.904358L723.064912,767.892608L723.063764,767.874982L723.059769,767.863232L723.055773,767.851481L722.260338,765.483792L723.122989,765.483792L723.689853,764.314639L741.038054,764.238263L746.378180,764.279389L749.804591,764.379266L753.200521,764.532019L756.567968,764.743524L759.902086,765.013780L766.877392,765.630670L784.155618,767.158211L826.760010,767.158211L848.499589,718.902128L850.894722,714.073274L875.014163,671.332480L879.478777,662.410046L881.877890,657.405570L883.360871,651.473104L883.398665,649.387948L882.932731,645.734543L879.300781,638.410199L872.750735,625.946747Z " data-cartodb-id="5" data-created-at="2013-03-13T17:10:45.249Z" data-name="Glendale" data-updated-at="2013-03-13T17:10:45.526Z"/><path d="M1035.241167,671.191505L1042.222183,671.185632L1049.130508,671.179758L1056.106678,671.173884L1063.007309,671.173884L1068.578153,671.168010L1070.002862,671.168010L1072.546985,671.168010L1076.925725,671.162136L1082.648791,671.162136L1083.869970,671.162136L1090.758911,671.156262L1093.886258,664.847692L1097.002336,658.562703L1097.329106,657.898966L1099.784064,652.947403L1099.942755,652.630222L1102.738835,646.985626L1105.519917,641.382213L1108.293405,635.784741L1114.177214,623.926313L1114.521154,623.227386L1108.296373,623.233260L1107.123704,623.233260L1100.889231,623.239133L1100.172062,623.239133L1093.276572,623.239133L1086.252244,623.245006L1079.349059,623.250880L1072.378034,623.256753L1065.468007,623.256753L1058.492136,623.262626L1053.468049,633.617428L1046.728959,647.508379L1035.241167,671.191505Z " data-cartodb-id="6" data-created-at="2013-03-13T17:10:45.249Z" data-name="East Central/East Liberty Park" data-updated-at="2013-03-13T17:10:45.526Z"/><path d="M1058.492136,623.262626L975.312713,623.327233L970.272752,633.723150L966.969589,640.530547L965.795421,642.950457L964.668865,645.282275L962.819331,649.094265L961.266214,652.295421L959.823414,655.279271L957.948356,659.144208L956.771483,661.570089L955.697210,663.784524L952.077571,671.256119L965.928147,671.244371L972.739555,671.238497L979.856257,671.232623L993.697140,671.220875L1007.547714,671.209127L1021.400285,671.203253L1024.553001,671.197379L1029.896086,671.191505L1035.241167,671.191505L1046.728959,647.508379L1053.468049,633.617428L1058.492136,623.262626Z " data-cartodb-id="7" data-created-at="2013-03-13T17:10:45.249Z" data-name="Central City/Liberty-Wells" data-updated-at="2013-03-13T17:10:45.526Z"/><path d="M1256.918884,617.671247L1243.591166,617.665374L1228.654671,617.659501L1225.973754,623.186273L1223.110608,629.089009L1220.134477,635.215013L1217.676065,640.283858L1215.286951,645.200044L1213.042334,649.828473L1210.086549,655.913636L1207.611384,661.017950L1205.140000,666.104700L1202.716267,671.103396L1205.573379,671.097522L1214.313472,671.091648L1216.576530,671.091648L1219.222418,671.091648L1226.266429,671.085775L1230.782853,671.085775L1244.441583,671.079901L1247.266771,671.079901L1247.518760,671.079901L1245.468867,662.004752L1242.235251,647.666968L1242.840250,646.439378L1248.334994,635.209139L1251.170827,629.412047L1253.701947,624.243474L1254.222425,623.180400L1256.918884,617.671247Z " data-cartodb-id="8" data-created-at="2013-03-13T17:10:45.249Z" data-name="Foothill/Sunnyside" data-updated-at="2013-03-13T17:10:45.526Z"/><path d="M1350.784894,619.080832L1345.173495,617.242499L1343.386112,616.731526L1341.715651,616.379131L1340.270418,616.161821L1338.885069,616.020863L1337.770818,615.950385L1336.951599,615.921018L1336.118988,615.909272L1335.381589,615.921018L1334.638493,615.944511L1333.677634,615.997371L1332.812838,616.061976L1332.048950,616.138328L1331.279365,616.226427L1330.616386,616.314526L1327.065489,616.802005L1325.284915,617.066302L1324.077807,617.207260L1322.882092,617.324725L1321.045892,617.453936L1319.868971,617.512669L1318.391322,617.542035L1317.865136,617.547909L1301.933273,617.536162L1301.853510,617.700613L1282.912454,617.688867L1276.407505,617.682994L1269.902556,617.677120L1259.823465,617.677120L1256.918884,617.671247L1254.222425,623.180400L1253.701947,624.243474L1251.170827,629.412047L1248.334994,635.209139L1242.840250,646.439378L1242.235251,647.666968L1245.468867,662.004752L1247.518760,671.079901L1255.207282,671.074027L1258.502527,671.074027L1260.397293,671.074027L1261.073237,670.639355L1262.193168,669.928610L1264.378026,668.530617L1265.356371,668.001966L1266.429133,667.608415L1267.898207,667.396955L1278.890780,667.402829L1284.016027,656.841689L1284.499625,655.884267L1284.974427,655.014953L1285.480305,654.151515L1286.020106,653.288078L1286.878419,652.007610L1287.803729,650.738893L1288.798033,649.487800L1289.846793,648.254332L1296.876359,640.313225L1297.724031,639.414573L1298.762948,638.451314L1299.761733,637.640768L1300.916435,636.818477L1301.912152,636.184139L1303.125338,635.491067L1305.324367,634.433840L1306.446704,633.958089L1307.672505,633.458844L1308.901449,632.983094L1310.129839,632.548459L1311.358523,632.143191L1312.587504,631.767290L1313.806238,631.432504L1315.030112,631.127086L1316.241743,630.856908L1317.450820,630.621971L1318.644805,630.428148L1320.420837,630.193211L1321.586634,630.087489L1322.743035,630.011135L1334.475458,629.899540L1346.578767,623.027693L1347.702432,622.299401L1348.447611,621.712069L1349.097578,621.101245L1349.737819,620.390575L1350.784894,619.080832Z " data-cartodb-id="9" data-created-at="2013-03-13T17:10:45.249Z" data-name="Sunnyside East Association" data-updated-at="2013-03-13T17:10:45.526Z"/><path d="M1154.313414,612.232639L1149.722592,610.458938L1147.900614,610.458938L1141.701768,623.215640L1137.405000,632.072709L1135.051572,636.924200L1132.703918,641.763994L1130.179704,646.968005L1127.439064,652.618475L1123.974099,659.772704L1121.928754,663.990109L1120.928892,666.051835L1118.459205,671.144514L1132.884448,671.126892L1147.279763,671.121018L1163.749145,671.115144L1169.305450,671.109270L1174.824985,671.109270L1179.780393,671.103396L1184.151439,671.103396L1188.769627,671.103396L1202.716267,671.103396L1205.140000,666.104700L1207.611384,661.017950L1210.086549,655.913636L1213.042334,649.828473L1215.286951,645.200044L1217.676065,640.283858L1220.134477,635.215013L1223.110608,629.089009L1225.973754,623.186273L1228.654671,617.659501L1218.122932,617.653627L1203.661317,617.647754L1185.930839,617.647754L1173.024699,617.641881L1158.291725,617.636008L1158.102742,617.636008L1156.348278,613.871262L1154.313414,612.232639Z " data-cartodb-id="10" data-created-at="2013-03-13T17:10:45.249Z" data-name="Yalecrest" data-updated-at="2013-03-13T17:10:45.526Z"/><path d="M880.138290,597.861158L875.725915,597.867031L873.960015,604.039607L872.329027,610.623387L871.307147,619.356876L872.750735,625.946747L879.300781,638.410199L882.932731,645.734543L883.398665,649.387948L883.360871,651.473104L881.877890,657.405570L879.478777,662.410046L875.014163,671.332480L850.894722,714.073274L848.499589,718.902128L826.760010,767.158211L850.138874,767.158211L850.335375,766.752825L905.811994,766.782201L906.014171,766.365064L908.022885,762.240723L910.941482,756.189407L915.430543,746.918709L919.672095,738.159305L920.934665,735.545029L923.187589,730.898115L929.004778,718.890379L933.623140,709.356084L934.885953,706.741971L938.296774,699.698626L942.784671,690.434940L952.077571,671.256119L955.697210,663.784524L956.771483,661.570089L957.948356,659.144208L959.823414,655.279271L961.266214,652.295421L962.819331,649.094265L964.668865,645.282275L965.795421,642.950457L966.969589,640.530547L970.272752,633.723150L975.312713,623.327233L977.166268,619.497835L981.505474,610.547035L987.697903,597.778936L981.626328,597.778936L973.822012,597.784809L959.933579,597.796555L952.894873,597.802428L946.074220,597.808301L937.736884,597.814174L932.214860,597.820047L926.763525,597.820047L918.358350,597.825920L904.498990,597.837666L897.770403,597.843539L890.636778,597.855285L880.138290,597.861158Z " data-cartodb-id="11" data-created-at="2013-03-13T17:10:45.249Z" data-name="Ball Park" data-updated-at="2013-03-13T17:10:45.526Z"/><path d="M1198.344081,521.946956L1198.751813,521.107253L1202.249561,513.914059L1204.949044,508.365100L1198.960325,508.365100L1197.506752,508.365100L1191.697306,508.365100L1184.458514,508.365100L1183.717192,508.365100L1177.239103,508.365100L1169.990620,508.365100L1162.742137,508.365100L1155.944262,508.365100L1155.500493,508.370972L1149.007869,508.370972L1148.087273,508.370972L1142.011339,508.370972L1140.717659,508.370972L1133.498248,508.370972L1128.144255,508.370972L1126.278836,508.370972L1119.064270,508.370972L1114.257790,508.370972L1108.063510,521.124870L1101.864049,533.890861L1095.662258,546.663075L1089.468687,559.429768L1083.279344,572.179194L1077.081972,584.946588L1070.876571,597.731952L1064.687940,610.494177L1058.492136,623.262626L1065.468007,623.256753L1072.378034,623.256753L1079.349059,623.250880L1086.252244,623.245006L1093.276572,623.239133L1100.172062,623.239133L1100.889231,623.239133L1107.123704,623.233260L1108.296373,623.233260L1114.521154,623.227386L1114.177214,623.926313L1108.293405,635.784741L1105.519917,641.382213L1102.738835,646.985626L1099.942755,652.630222L1099.784064,652.947403L1097.329106,657.898966L1097.002336,658.562703L1093.886258,664.847692L1090.758911,671.156262L1083.869970,671.162136L1082.648791,671.162136L1076.925725,671.162136L1072.546985,671.168010L1070.002862,671.168010L1068.578153,671.168010L1063.007309,671.173884L1056.106678,671.173884L1049.130508,671.179758L1042.222183,671.185632L1035.241167,671.191505L1030.739994,680.472427L1029.348963,683.350725L1027.089977,688.008907L1024.754151,692.825740L1022.566518,697.337161L1021.418607,699.704500L1020.307742,701.995485L1018.046187,706.659730L1015.787550,711.318147L1014.859051,713.233223L1012.116346,718.890379L1019.070580,718.890379L1026.000582,718.890379L1032.956814,718.896254L1039.867432,718.896254L1053.780745,718.896254L1067.603979,718.902128L1081.488215,718.902128L1095.304605,718.902128L1097.847550,713.656185L1099.875135,709.473573L1101.076905,706.994570L1103.395065,702.212835L1105.728390,697.390030L1108.266002,692.156080L1110.948960,686.622609L1113.579896,681.206685L1115.881363,676.460461L1118.459205,671.144514L1120.928892,666.051835L1121.928754,663.990109L1123.974099,659.772704L1127.439064,652.618475L1130.179704,646.968005L1132.703918,641.763994L1135.051572,636.924200L1137.405000,632.072709L1141.701768,623.215640L1147.900614,610.458938L1149.722592,610.458938L1154.313414,612.232639L1161.003010,597.696714L1167.209377,584.917223L1173.931032,572.155703L1180.129031,559.406278L1186.333252,546.645458L1191.190322,536.650804L1192.543697,533.873245L1193.866592,531.148551L1198.344081,521.946956Z " data-cartodb-id="12" data-created-at="2013-03-13T17:10:45.249Z" data-name="East Central" data-updated-at="2013-03-13T17:10:45.526Z"/><path d="M1114.257790,508.370972L1111.849704,508.370972L1104.622596,508.376844L1100.397544,508.376844L1097.340196,508.376844L1090.048106,508.376844L1086.520770,508.376844L1082.695880,508.370972L1075.504681,508.382716L1072.670215,508.382716L1068.251353,508.382716L1061.017406,508.382716L1053.770916,508.388587L1044.923504,508.388587L1031.058412,508.394459L1024.865176,521.154230L1018.672462,533.914350L1012.476560,546.692437L1006.279187,559.465003L1000.090891,572.220302L994.450509,583.848367L991.248032,590.455351L987.697903,597.778936L981.505474,610.547035L977.166268,619.497835L975.312713,623.327233L1058.492136,623.262626L1064.687940,610.494177L1070.876571,597.731952L1077.081972,584.946588L1083.279344,572.179194L1089.468687,559.429768L1095.662258,546.663075L1101.864049,533.890861L1108.063510,521.124870L1114.257790,508.370972Z " data-cartodb-id="13" data-created-at="2013-03-13T17:10:45.249Z" data-name="Central City" data-updated-at="2013-03-13T17:10:45.526Z"/><path d="M1031.058412,508.394459L1017.164249,508.400331L1003.308848,508.406203L989.448602,508.412075L975.588355,508.417947L961.732953,508.423819L947.877552,508.429691L934.022150,508.435562L917.295511,508.447306L894.763920,533.990689L884.249343,546.768778L878.086418,559.547219L877.125166,571.603671L875.860302,595.394500L875.725915,597.867031L880.138290,597.861158L890.636778,597.855285L897.770403,597.843539L904.498990,597.837666L918.358350,597.825920L926.763525,597.820047L932.214860,597.820047L937.736884,597.814174L946.074220,597.808301L952.894873,597.802428L959.933579,597.796555L973.822012,597.784809L981.626328,597.778936L987.697903,597.778936L991.248032,590.455351L994.450509,583.848367L1000.090891,572.220302L1006.279187,559.465003L1012.476560,546.692437L1018.672462,533.914350L1024.865176,521.154230L1031.058412,508.394459Z " data-cartodb-id="14" data-created-at="2013-03-13T17:10:45.249Z" data-name="Downtown" data-updated-at="2013-03-13T17:10:45.526Z"/><path d="M373.143417,498.171628L373.925997,496.562771L359.816187,496.603873L205.820883,497.102970L174.655609,497.214533L4.799934,497.836938L4.060987,497.772349L1.090645,503.884877L13.230540,503.849646L10.646184,509.169548L44.722926,509.069726L23.976339,551.548907L70.112173,551.613504L49.283745,594.290382L133.842604,594.942281L114.102802,636.419079L754.454163,626.340263L773.995672,626.293276L809.756492,626.205175L872.750735,625.946747L871.307147,619.356876L872.329027,610.623387L873.960015,604.039607L875.725915,597.867031L875.860302,595.394500L877.125166,571.603671L878.086418,559.547219L884.249343,546.768778L894.763920,533.990689L917.295511,508.447306L928.389427,495.517604L926.431972,495.517604L912.571885,495.523476L898.708944,495.535219L891.191206,495.541091L884.846003,495.546962L853.830238,495.570449L841.728953,495.576321L839.017640,495.582193L833.770302,495.582193L820.120548,495.593936L814.439135,495.599808L791.054537,495.623295L789.901383,495.623295L779.328322,495.635038L767.689319,495.646782L752.527865,495.658525L742.579832,495.670269L740.830720,495.670269L737.455615,495.676140L732.229649,495.682012L720.779608,495.693755L698.210988,495.723114L616.365755,496.122391L428.560389,498.007219L373.143417,498.171628Z " data-cartodb-id="15" data-created-at="2013-03-13T17:10:45.249Z" data-name="Poplar Grove" data-updated-at="2013-03-13T17:10:45.526Z"/><path d="M1044.650393,200.421601L923.002408,200.527226L922.629566,201.759515L922.280679,203.807469L922.431058,205.168865L922.266788,205.585500L922.068376,205.972794L921.748055,206.500924L920.283391,208.214415L917.725737,210.749454L917.317357,211.289325L916.420904,212.820920L915.544612,213.724622L914.482669,214.552039L909.463977,217.286632L907.622566,218.888665L906.699160,220.197289L904.725443,224.258156L901.783022,242.567698L901.367230,243.500799L900.556539,245.314190L896.020460,251.493857L894.830041,252.714541L893.034465,254.809665L892.484270,255.889509L892.145082,257.063255L892.054883,261.077487L892.285338,263.190255L892.758141,264.845263L893.869551,266.870015L894.493610,268.771529L893.759035,272.985405L893.655200,275.197998L893.952490,277.880121L894.887742,280.028178L895.168421,280.227725L895.219093,280.262939L895.722950,280.620950L895.003608,282.088209L894.413409,283.121163L894.144276,283.614164L893.901736,284.042606L893.695093,284.476917L893.363959,285.087302L892.962980,285.920713L892.187518,287.393858L888.464562,294.900513L879.886280,312.191513L876.909291,318.237056L870.193695,331.883835L865.412144,341.598235L852.751069,367.326222L846.081315,380.874631L845.377589,382.301111L839.848845,392.938210L827.207676,418.029099L827.517746,418.029099L831.689584,418.187610L836.456917,418.187610L839.532950,419.901871L840.852356,420.635717L843.980616,423.876397L845.773323,426.306922L849.710088,431.661166L854.882461,431.655295L860.888159,431.649425L867.117073,431.901874L873.471605,431.896003L880.457966,431.896003L887.607063,431.890132L888.023726,431.890132L901.885879,431.878390L902.191108,431.878390L908.862549,431.878390L915.759711,431.872519L922.721847,431.872519L929.619009,431.866648L936.581145,431.866648L943.478307,431.860778L951.869691,431.860778L959.062392,431.854907L960.284081,423.582857L960.012209,416.220914L958.502221,389.609687L959.954516,370.619365L964.872221,343.764192L966.109343,313.529743L968.022254,287.558193L968.364850,283.919355L968.936666,281.272412L969.912799,277.844907L970.633523,275.737943L971.169101,274.200275L972.797301,270.766953L974.770388,267.093031L977.202886,263.201993L979.966189,259.357936L982.300433,256.464644L985.175939,253.295541L989.399369,249.099446L993.334731,245.683912L997.809555,242.244928L1002.534635,238.958550L1006.571775,236.487913L1022.212125,227.121909L1024.673605,225.549190L1027.501386,223.512879L1029.977548,221.482444L1031.554659,220.044714L1034.270315,217.204477L1035.974565,215.197542L1038.953571,210.902026L1041.236929,206.712176L1044.650393,200.421601Z " data-cartodb-id="16" data-created-at="2013-03-13T17:10:45.249Z" data-name="Rose Park" data-updated-at="2013-03-13T17:10:45.526Z"/><path d="M1998.909355,0.000000L1942.065907,0.140774L1937.893548,3.425505L1935.507533,5.419817L1932.941230,7.038735L1927.632306,9.555108L1923.684604,12.587678L1921.834320,11.484923L1919.856204,11.220966L1915.111823,7.977241L1913.068002,7.132586L1906.914331,10.358708L1905.263219,11.003935L1900.523830,13.643509L1892.982445,15.831434L1890.691982,15.631998L1888.013045,12.910292L1886.264765,13.039339L1884.227319,15.620266L1879.886784,18.594216L1877.035277,19.685256L1872.457909,23.433523L1868.947503,24.137426L1864.524508,26.137691L1861.263557,26.906123L1857.172514,29.229024L1853.850662,30.132378L1844.799349,34.256150L1840.582553,36.837192L1832.695274,40.450674L1830.009976,39.471043L1826.311336,36.684676L1822.345240,36.743336L1811.925697,40.216032L1802.561161,43.113875L1794.483108,47.695319L1785.918807,53.702298L1777.544051,60.612763L1762.257560,64.989052L1758.882639,66.279654L1755.618722,66.338318L1753.400012,64.977319L1750.830558,64.197093L1748.491014,62.507586L1741.343797,58.289710L1711.102145,60.894346L1704.197023,62.501720L1698.546946,65.857275L1690.245775,70.896519L1683.769713,73.213767L1675.954869,77.543239L1671.858775,79.021604L1662.449582,86.325500L1657.605053,87.610293L1655.352866,87.610293L1649.356115,89.669489L1643.546053,93.353771L1631.535860,98.510641L1629.465326,98.575175L1618.387783,94.480182L1613.127944,94.022577L1607.755062,94.075378L1604.257474,91.740428L1602.033834,90.250290L1596.858588,89.470023L1594.078861,89.399623L1582.678440,94.884986L1581.382635,98.727712L1571.485954,121.021997L1573.263313,123.110673L1571.334440,127.786758L1568.358964,133.577659L1566.203370,142.777531L1567.836937,146.186458L1569.567033,147.805853L1568.919615,154.148538L1567.103029,157.481268L1565.018114,162.081413L1563.667083,168.119172L1564.169358,170.589452L1564.108006,174.456260L1563.236443,177.360787L1565.333337,184.396270L1565.486021,186.291585L1566.428502,187.758552L1566.292045,188.914525L1567.332401,190.041162L1568.098652,193.561919L1568.701732,194.870473L1569.988527,195.809349L1571.242992,196.137956L1572.357340,200.814760L1565.418763,206.113629L1447.328691,240.736712L1376.463572,268.888906L1306.829419,290.569059L1302.606154,291.572685L1210.564555,310.876764L1202.165948,321.089641L1188.996416,333.920614L1180.136583,346.159083L1167.588250,354.746745L1148.059673,373.812738L1140.770509,377.863187L1136.887982,383.745206L1136.603793,386.322281L1130.782478,389.157668L1116.072424,401.356482L1107.948818,406.775018L1105.035979,410.643761L1097.839077,414.694528L1096.960046,423.060354L1091.380906,429.195388L1087.670603,432.183678L1081.199531,440.174071L1079.652833,444.841557L1057.305212,477.597465L1054.849573,481.155603L1047.414260,487.872690L1046.015997,489.135090L1043.370397,494.560515L1037.269830,495.658525L1035.790167,498.694214L1034.513065,501.313026L1031.058412,508.394459L1044.923504,508.388587L1053.770916,508.388587L1061.017406,508.382716L1068.251353,508.382716L1072.670215,508.382716L1075.504681,508.382716L1082.695880,508.370972L1086.520770,508.376844L1090.048106,508.376844L1097.340196,508.376844L1100.397544,508.376844L1104.622596,508.376844L1111.849704,508.370972L1114.257790,508.370972L1119.064270,508.370972L1126.278836,508.370972L1128.144255,508.370972L1133.498248,508.370972L1140.717659,508.370972L1142.011339,508.370972L1148.087273,508.370972L1149.007869,508.370972L1155.500493,508.370972L1155.944262,508.365100L1162.742137,508.365100L1169.990620,508.365100L1177.239103,508.365100L1183.717192,508.365100L1184.458514,508.365100L1191.697306,508.365100L1197.506752,508.365100L1198.960325,508.365100L1204.949044,508.365100L1202.249561,513.914059L1198.751813,521.107253L1198.344081,521.946956L1208.102518,521.946956L1214.585531,521.946956L1222.900068,521.946956L1225.764976,515.887039L1227.564921,508.388587L1228.422465,504.806754L1228.802059,503.755697L1229.087766,503.227233L1229.423919,502.704642L1229.817357,502.193795L1230.339067,501.618359L1230.919199,501.072282L1231.544352,500.573180L1232.121029,500.173899L1232.819694,499.762875L1233.538295,499.410569L1234.477783,499.052392L1235.312922,498.829265L1236.028901,498.711829L1236.761106,498.670727L1239.635168,498.658984L1245.545177,498.641368L1250.372179,498.459344L1393.867520,496.633232L1419.100478,444.283805L1416.553162,444.301418L1467.196062,339.649469L1541.529844,340.248185L1582.549680,256.053833L1657.121497,230.091311L1664.737047,213.184748L1708.386651,212.486433L1711.835249,211.342139L1810.074883,199.265600L1903.763325,196.601526L1998.909355,0.000000Z " data-cartodb-id="17" data-created-at="2013-03-13T17:10:45.249Z" data-name="Greater Avenues" data-updated-at="2013-03-13T17:10:45.526Z"/><path d="M826.913075,418.246317L806.402575,418.211093L802.500481,418.205222L798.603231,418.199351L781.154678,418.164127L779.408543,418.158256L758.322375,418.111290L40.496352,422.385212L32.966200,437.896120L56.060899,437.878507L48.619347,453.190308L25.519487,453.207922L3.763418,497.995475L4.505223,498.054193L174.360930,497.431788L205.523354,497.326097L359.521545,496.821127L373.631357,496.780025L372.848778,498.388883L428.265760,498.224474L616.068308,496.345517L697.916411,495.940368L720.482181,495.916881L731.932224,495.905137L737.158191,495.899266L740.533297,495.893394L742.282410,495.893394L752.230444,495.881651L767.394755,495.864035L779.033760,495.852292L789.603969,495.846420L790.759978,495.840548L814.141727,495.822933L820.253234,495.799446L830.805735,474.009997L831.145226,473.939539L831.377731,472.424709L834.600254,465.795914L832.919868,463.511967L831.662226,461.903229L827.101162,459.525361L826.225170,458.656414L825.134190,456.824587L823.650934,455.879319L821.766693,456.366631L816.685084,460.042032L814.946745,460.916853L813.775131,460.147715L813.217347,459.102630L814.596904,453.196180L816.489951,450.648092L818.094513,448.892620L820.068319,446.597014L821.169599,443.814119L821.641492,440.860981L823.086574,440.021425L827.383882,440.878594L830.180264,439.880520L832.752988,438.136831L834.565056,434.749278L840.554905,420.858807L839.235498,420.124960L836.162318,418.404827L831.394984,418.404827L827.223146,418.246317L826.913075,418.246317Z " data-cartodb-id="18" data-created-at="2013-03-13T17:10:45.249Z" data-name="Jordan Meadows" data-updated-at="2013-03-13T17:10:45.526Z"/><path d="M959.062392,431.854907L951.869691,431.860778L943.478307,431.860778L936.581145,431.866648L929.619009,431.866648L922.721847,431.872519L915.759711,431.872519L908.862549,431.878390L902.191108,431.878390L901.885879,431.878390L888.023726,431.890132L887.607063,431.890132L880.457966,431.896003L873.471605,431.896003L867.117073,431.901874L860.888159,431.649425L854.882461,431.655295L849.710088,431.661166L845.773323,426.306922L843.980616,423.876397L840.852356,420.635717L834.859645,434.532053L833.050430,437.913733L830.433241,439.997940L827.383882,440.878594L823.386006,439.804197L821.330210,441.271954L821.132561,443.461855L820.365758,446.373912L818.094513,448.892620L816.489951,450.648092L814.596904,453.196180L813.217347,459.102630L813.502711,460.458893L815.241321,460.699615L816.979660,459.824795L822.066116,456.149395L823.948367,455.656213L825.431621,456.601480L826.519745,458.439178L827.398591,459.302253L831.662226,461.903229L832.919868,463.511967L834.600254,465.795914L833.779778,467.663005L833.671767,468.044644L831.672296,472.207466L831.613727,472.806352L831.439791,473.722296L831.100300,473.792753L820.547787,495.582193L853.830238,495.570449L884.846003,495.546962L891.191206,495.541091L898.708944,495.535219L912.571885,495.523476L926.431972,495.517604L928.389427,495.517604L917.295511,508.447306L934.022150,508.435562L947.877552,508.429691L960.268348,482.899453L966.466951,470.134858L972.663222,457.376483L978.858023,444.612585L985.058189,431.849036L959.062392,431.854907Z " data-cartodb-id="19" data-created-at="2013-03-13T17:10:45.249Z" data-name="Fairpark" data-updated-at="2013-03-13T17:10:45.526Z"/><path d="M1582.678440,94.884986L1579.482163,94.814585L1573.131734,97.589558L1567.092843,99.009317L1559.387589,104.565194L1556.464100,108.249591L1550.167615,112.643917L1545.585190,115.548067L1535.141610,122.529832L1527.074157,124.653717L1524.277611,124.906003L1517.321215,126.906689L1513.056246,125.997285L1505.321833,125.856474L1499.016645,127.534472L1492.791720,133.800613L1483.458078,137.221209L1476.439776,136.763564L1470.713078,137.403094L1462.784044,140.823717L1456.724272,144.314772L1455.164448,143.469876L1450.244144,144.044874L1445.153941,144.103548L1440.944016,142.355084L1437.638814,137.755130L1434.455440,134.774571L1430.747495,133.865152L1428.384911,135.543178L1424.779047,135.865876L1421.173154,135.472771L1419.826459,135.214613L1417.270404,137.995687L1412.863450,143.422937L1408.394823,147.107635L1402.399920,150.017862L1400.998110,150.011995L1396.953139,148.650757L1394.063358,147.224982L1391.386715,145.799212L1386.625306,149.935718L1378.748274,151.091600L1368.723052,152.898770L1367.030530,152.763819L1364.133826,152.505651L1361.194397,158.390732L1354.446919,162.269175L1344.674875,166.012695L1335.147310,174.157006L1329.173974,181.210046L1323.098308,177.384258L1316.661283,177.313845L1306.555260,182.031538L1299.093598,181.767487L1290.225245,181.497568L1284.815624,182.788486L1278.623135,182.653526L1270.139775,188.087153L1258.575826,200.333581L1119.487353,200.374657L1113.933440,211.776384L1090.855101,211.799856L1096.434343,200.386393L1047.653613,200.421601L1044.650393,200.421601L1041.236929,206.712176L1038.953571,210.902026L1035.974565,215.197542L1034.270315,217.204477L1031.554659,220.044714L1029.977548,221.482444L1027.501386,223.512879L1024.673605,225.549190L1022.212125,227.121909L1006.571775,236.487913L1002.534635,238.958550L997.809555,242.244928L993.334731,245.683912L989.399369,249.099446L985.175939,253.295541L982.300433,256.464644L979.966189,259.357936L977.202886,263.201993L974.770388,267.093031L972.797301,270.766953L971.169101,274.200275L970.633523,275.737943L969.912799,277.844907L968.936666,281.272412L968.364850,283.919355L968.022254,287.558193L966.109343,313.529743L964.872221,343.764192L959.954516,370.619365L958.502221,389.609687L960.012209,416.220914L960.284081,423.582857L959.062392,431.854907L985.058189,431.849036L978.858023,444.612585L972.663222,457.376483L966.466951,470.134858L960.268348,482.899453L954.147300,495.505860L947.877552,508.429691L961.732953,508.423819L975.588355,508.417947L989.448602,508.412075L1003.308848,508.406203L1017.164249,508.400331L1031.058412,508.394459L1034.513065,501.313026L1035.790167,498.694214L1037.269830,495.658525L1043.370397,494.560515L1046.015997,489.135090L1047.414260,487.872690L1054.849573,481.155603L1057.305212,477.597465L1079.652833,444.841557L1081.199531,440.174071L1087.670603,432.183678L1091.380906,429.195388L1096.960046,423.060354L1097.839077,414.694528L1105.035979,410.643761L1107.948818,406.775018L1116.072424,401.356482L1130.782478,389.157668L1136.603793,386.322281L1136.887982,383.745206L1140.770509,377.863187L1148.059673,373.812738L1167.588250,354.746745L1180.136583,346.159083L1188.996416,333.920614L1202.165948,321.089641L1210.564555,310.876764L1302.606154,291.572685L1306.829419,290.569059L1376.463572,268.888906L1447.328691,240.736712L1565.418763,206.113629L1572.357340,200.814760L1571.242992,196.137956L1569.988527,195.809349L1568.701732,194.870473L1568.098652,193.561919L1567.332401,190.041162L1566.292045,188.914525L1566.428502,187.758552L1565.486021,186.291585L1565.333337,184.396270L1563.236443,177.360787L1564.108006,174.456260L1564.169358,170.589452L1563.667083,168.119172L1565.018114,162.081413L1567.103029,157.481268L1568.919615,154.148538L1569.567033,147.805853L1567.836937,146.186458L1566.203370,142.777531L1568.358964,133.577659L1571.334440,127.786758L1573.263313,123.110673L1571.485954,121.021997L1581.382635,98.727712L1582.678440,94.884986Z " data-cartodb-id="20" data-created-at="2013-03-13T17:10:45.249Z" data-name="Capitol Hill" data-updated-at="2013-03-13T17:10:45.526Z"/><path d="M1271.432704,828.105361L1276.972400,828.105361L1293.404386,794.214150L1301.885952,776.728957L1305.261896,776.723082L1306.105033,773.250799L1308.330496,769.696290L1315.687606,769.725666L1316.491155,768.086488L1317.714441,768.092364L1318.385107,766.717574L1318.186406,766.717574L1318.857079,765.342788L1320.094900,765.348664L1320.569242,764.379266L1353.808563,764.573145L1374.612891,721.592680L1347.622509,721.486938L1320.109248,739.005277L1332.345923,713.638562L1327.550251,713.644436L1327.940221,712.839633L1331.718891,709.361959L1335.126768,704.709435L1336.005438,702.336196L1338.980716,699.886604L1349.336610,678.398888L1352.062898,678.393014L1357.739166,673.370743L1366.999490,673.341373L1369.108951,668.959413L1367.065500,662.968060L1369.934001,657.070765L1371.293697,657.064891L1381.541810,635.767121L1393.120964,635.731880L1404.747791,611.774530L1402.821904,612.138667L1401.443507,612.303117L1385.046397,610.253377L1382.817643,610.182899L1380.294390,610.799582L1378.751997,611.521983L1376.593191,612.626143L1375.089737,613.847769L1374.554295,614.282387L1372.910495,616.003244L1370.907932,617.994277L1370.034512,618.646210L1368.107056,619.433229L1362.002509,620.020558L1358.499120,620.220250L1356.560238,620.161517L1355.157494,620.026431L1354.238473,619.903092L1352.477927,619.556568L1350.801428,619.086705L1350.784894,619.080832L1349.737819,620.390575L1349.097578,621.101245L1348.447611,621.712069L1347.702432,622.299401L1346.578767,623.027693L1334.475458,629.899540L1322.743035,630.011135L1321.586634,630.087489L1320.420837,630.193211L1318.644805,630.428148L1317.450820,630.621971L1316.241743,630.856908L1315.030112,631.127086L1313.806238,631.432504L1312.587504,631.767290L1311.358523,632.143191L1310.129839,632.548459L1308.901449,632.983094L1307.672505,633.458844L1306.446704,633.958089L1305.324367,634.433840L1303.125338,635.491067L1301.912152,636.184139L1300.916435,636.818477L1299.761733,637.640768L1298.762948,638.451314L1297.724031,639.414573L1296.876359,640.313225L1289.846793,648.254332L1288.798033,649.487800L1287.803729,650.738893L1286.878419,652.007610L1286.020106,653.288078L1285.480305,654.151515L1284.974427,655.014953L1284.499625,655.884267L1284.016027,656.841689L1278.890780,667.402829L1267.898207,667.396955L1266.429133,667.608415L1265.356371,668.001966L1264.378026,668.530617L1262.193168,669.928610L1261.073237,670.639355L1260.397293,671.074027L1258.502527,671.074027L1255.207282,671.074027L1247.518760,671.079901L1247.266771,671.079901L1250.978776,686.464007L1253.503241,697.671995L1254.431555,701.795757L1255.329353,705.772697L1255.479710,706.442377L1255.941939,708.498418L1258.192169,718.485036L1259.311571,723.425554L1259.908071,726.075010L1260.280967,727.725787L1260.575886,732.308046L1260.724342,734.552195L1260.887813,737.025471L1261.002320,738.799659L1261.715182,749.662299L1261.832628,751.430660L1262.591746,763.039738L1262.652759,764.044384L1263.514161,777.104976L1264.826190,787.545491L1265.593309,793.667727L1266.530687,801.100302L1271.432704,828.105361Z " data-cartodb-id="21" data-created-at="2013-03-13T17:10:45.249Z" data-name="East Bench" data-updated-at="2013-03-13T17:10:45.526Z"/><path d="M899.259115,82.265811L853.021479,82.301010L811.630855,167.321174L625.581001,168.078098L543.244358,337.982459L450.954923,338.135072L438.155102,316.875335L458.787561,274.305917L435.701321,274.352868L446.025995,253.072531L422.947017,253.125349L453.911203,189.360485L361.469073,189.483711L340.648935,232.127651L317.462053,232.203941L359.167111,146.931613L313.006891,147.060696L302.624823,168.312804L163.777602,169.157744L40.882607,421.980127L758.616989,417.894072L779.703152,417.941038L781.452143,417.941038L798.897837,417.982133L802.795086,417.988004L806.702024,417.993875L827.207676,418.029099L839.848845,392.938210L845.377589,382.301111L846.081315,380.874631L852.751069,367.326222L865.412144,341.598235L870.193695,331.883835L876.909291,318.237056L879.886280,312.191513L888.464562,294.900513L892.187518,287.393858L892.962980,285.920713L893.363959,285.087302L893.695093,284.476917L893.901736,284.042606L894.144276,283.614164L894.413409,283.121163L895.003608,282.088209L895.722950,280.620950L895.219093,280.262939L895.168421,280.227725L894.887742,280.028178L893.952490,277.880121L893.655200,275.197998L893.759035,272.985405L894.493610,268.771529L893.869551,266.870015L892.758141,264.845263L892.285338,263.190255L892.054883,261.077487L892.145082,257.063255L892.484270,255.889509L893.034465,254.809665L894.830041,252.714541L896.020460,251.493857L900.556539,245.314190L901.367230,243.500799L901.783022,242.567698L904.725443,224.258156L906.699160,220.197289L907.622566,218.888665L909.463977,217.286632L914.482669,214.552039L915.544612,213.724622L916.420904,212.820920L917.317357,211.289325L917.725737,210.749454L920.283391,208.214415L921.748055,206.500924L922.068376,205.972794L922.266788,205.585500L922.431058,205.168865L922.280679,203.807469L922.629566,201.759515L923.002408,200.527226L901.501426,200.544830L900.764586,204.611396L900.635185,207.093603L901.937243,210.127429L901.649078,210.679036L901.406664,211.136753L900.964369,211.676625L890.302862,210.831608L887.944784,210.461914L882.538794,208.742547L882.075133,209.763604L825.578047,209.857494L804.911306,252.350683L770.262593,252.397632L798.686195,193.943336L868.016766,193.843580L873.186705,183.216837L901.451322,183.205101L925.848980,153.227347L891.844463,153.250817L893.132681,150.598736L889.645226,150.598736L898.654194,132.093257L902.981719,131.999382L904.345158,129.153803L900.062768,129.194874L901.544882,126.155697L901.559188,126.126361L901.564911,126.114627L901.573495,126.097026L901.582078,126.079424L901.590662,126.061823L901.596385,126.050089L901.604968,126.032488L901.613552,126.014886L901.622136,125.997285L901.627858,125.985551L901.636442,125.967949L901.645026,125.950348L901.653610,125.932747L901.654489,125.921012L901.663072,125.903411L901.671656,125.885810L901.680240,125.868208L901.685963,125.856474L901.694546,125.838873L901.703130,125.821271L901.711714,125.803670L901.717436,125.791936L901.726020,125.774335L901.729760,125.756733L901.738344,125.739132L901.744067,125.727398L901.752650,125.709796L901.761234,125.692195L901.769818,125.674594L901.775541,125.662859L901.784124,125.645258L901.787865,125.627657L901.793587,125.615922L901.802171,125.598321L901.810755,125.580720L901.819338,125.563118L901.820217,125.551384L901.828801,125.533783L901.837385,125.516182L901.845969,125.498580L901.851691,125.486846L901.860275,125.469245L901.864015,125.451643L901.872599,125.434042L901.878322,125.422308L901.886905,125.404707L901.890646,125.387105L901.899229,125.369504L901.904952,125.357770L901.913536,125.340168L901.917276,125.322567L901.925860,125.304966L901.931582,125.293231L901.940166,125.275630L901.943906,125.258029L901.949629,125.246295L901.958213,125.228693L901.966797,125.211092L901.970537,125.193491L901.976259,125.181756L901.984843,125.164155L901.988583,125.146554L901.997167,125.128953L902.002890,125.117218L902.011474,125.099617L902.015214,125.082016L902.023798,125.064414L902.029520,125.052680L902.033260,125.035079L902.041844,125.017478L902.050428,124.999876L902.051307,124.988142L902.059891,124.970541L902.068475,124.952939L902.069354,124.941205L902.077938,124.923604L902.081678,124.906003L902.090262,124.888401L902.095984,124.876667L902.099724,124.859066L902.108308,124.841464L902.116892,124.823863L902.117771,124.812129L902.126355,124.794528L902.130095,124.776926L902.135818,124.765192L902.139558,124.747591L902.148142,124.729990L902.156726,124.712388L902.157605,124.700654L902.166189,124.683053L902.169929,124.665451L902.178513,124.647850L902.179392,124.636116L902.187975,124.618515L902.196559,124.600913L902.197438,124.589179L902.206022,124.571578L902.209762,124.553977L902.218346,124.536375L902.219225,124.524641L902.227809,124.507040L902.231549,124.489439L902.237272,124.477704L902.241012,124.460103L902.249596,124.442502L902.253336,124.424900L902.259059,124.413166L902.262799,124.395565L902.271383,124.377964L902.272262,124.366230L902.280846,124.348628L902.284586,124.331027L902.288327,124.313426L902.294049,124.301691L902.297789,124.284090L902.306373,124.266489L902.307252,124.254755L902.315836,124.237153L902.319576,124.219552L902.328160,124.201951L902.329039,124.190217L902.332780,124.172615L902.341364,124.155014L902.342243,124.143280L902.350826,124.125679L902.354567,124.108077L902.358307,124.090476L902.364030,124.078742L902.367770,124.061141L902.376354,124.043539L902.377233,124.031805L902.380973,124.014204L902.389557,123.996603L902.390436,123.984868L902.394176,123.967267L902.402760,123.949666L902.406501,123.932065L902.407380,123.920330L902.415963,123.902729L902.419704,123.885128L902.420583,123.873394L902.429167,123.855792L902.432907,123.838191L902.433786,123.826457L902.442370,123.808856L902.446110,123.791254L902.449851,123.773653L902.455573,123.761919L902.459314,123.744318L902.463054,123.726717L902.463933,123.714982L902.472517,123.697381L902.476257,123.679780L902.477136,123.668046L902.480876,123.650444L902.489460,123.632843L902.490339,123.621109L902.494080,123.603508L902.497820,123.585906L902.503543,123.574172L902.507283,123.556571L902.511023,123.538970L902.511902,123.527236L902.520486,123.509634L902.524227,123.492033L902.527967,123.474432L902.528846,123.462698L902.532586,123.445096L902.541170,123.427495L902.542049,123.415761L902.545790,123.398160L902.549530,123.380558L902.550409,123.368824L902.558993,123.351223L902.562733,123.333622L902.563612,123.321888L902.567353,123.304286L902.571093,123.286685L902.571972,123.274951L902.575713,123.257350L902.584296,123.239748L902.585176,123.228014L902.588916,123.210413L902.592656,123.192812L902.593535,123.181078L902.597276,123.163476L902.601016,123.145875L902.601895,123.134141L902.610479,123.116540L902.614219,123.098939L902.615098,123.087204L902.618839,123.069603L902.622579,123.052002L902.623458,123.040268L902.627199,123.022667L902.628078,123.010932L902.631818,122.993331L902.635558,122.975730L902.636437,122.963996L902.640178,122.946395L902.643918,122.928793L902.644797,122.917059L902.653381,122.899458L902.657122,122.881857L902.658001,122.870123L902.661741,122.852521L902.665481,122.834920L902.666361,122.823186L902.670101,122.805585L902.673841,122.787983L902.674720,122.776249L902.678461,122.758648L902.679340,122.746914L902.683080,122.729313L902.686821,122.711711L902.687700,122.699977L902.691440,122.682376L902.695181,122.664775L902.696060,122.653041L902.694956,122.635439L902.695836,122.623705L902.699576,122.606104L902.703316,122.588503L902.704195,122.576769L902.707936,122.559168L902.711676,122.541566L902.712555,122.529832L902.716296,122.512231L902.717175,122.500497L902.720915,122.482896L902.724656,122.465294L903.319673,118.305558L881.683776,118.334893L868.193133,146.028039L845.085103,146.045641L865.795497,103.532629L888.899784,103.520895L899.259115,82.265811Z " data-cartodb-id="22" data-created-at="2013-03-13T17:10:45.249Z" data-name="Westpointe" data-updated-at="2013-03-13T17:10:45.526Z"/></g><g fill="#000" font-family="Arial" font-size="12px" id="mylayer-label" stroke="none"><text text-anchor="middle" y="792.149124121"><tspan dy="0" x="1095.94111189"><![CDATA[Sugar House]]></tspan></text><text text-anchor="middle" y="690.943089799"><tspan dy="0" x="1221.75180923"><![CDATA[Bonneville Hills]]></tspan></text><text text-anchor="middle" y="688.930653496"><tspan dy="0" x="1148.9524571"><![CDATA[Wasatch Hollow]]></tspan></text><text text-anchor="middle" y="712.735213089"><tspan dy="0" x="970.581455204"><![CDATA[Liberty-Wells]]></tspan></text><text text-anchor="middle" y="692.635390887"><tspan dy="0" x="472.043647811"><![CDATA[Glendale]]></tspan></text><text text-anchor="middle" y="641.172382462"><tspan dy="0" x="1074.77080118"><![CDATA[East Central/East Liberty Park]]></tspan></text><text text-anchor="middle" y="641.257702857"><tspan dy="0" x="1005.28048797"><![CDATA[Central City/Liberty-Wells]]></tspan></text><text text-anchor="middle" y="640.526445446"><tspan dy="0" x="1230.98032381"><![CDATA[Foothill/Sunnyside]]></tspan></text><text text-anchor="middle" y="632.145354007"><tspan dy="0" x="1281.18364891"><![CDATA[Sunnyside East Association]]></tspan></text><text text-anchor="middle" y="637.944764211"><tspan dy="0" x="1173.22357165"><![CDATA[Yalecrest]]></tspan></text><text text-anchor="middle" y="671.685725647"><tspan dy="0" x="905.601719973"><![CDATA[Ball Park]]></tspan></text><text text-anchor="middle" y="599.25190687"><tspan dy="0" x="1113.36755105"><![CDATA[East Central]]></tspan></text><text text-anchor="middle" y="559.834111398"><tspan dy="0" x="1044.7737076"><![CDATA[Central City]]></tspan></text><text text-anchor="middle" y="547.00673683"><tspan dy="0" x="948.432799859"><![CDATA[Downtown]]></tspan></text><text text-anchor="middle" y="555.298395575"><tspan dy="0" x="471.526843226"><![CDATA[Poplar Grove]]></tspan></text><text text-anchor="middle" y="313.578984638"><tspan dy="0" x="925.666550581"><![CDATA[Rose Park]]></tspan></text><text text-anchor="middle" y="266.417763624"><tspan dy="0" x="1510.05970515"><![CDATA[Greater Avenues]]></tspan></text><text text-anchor="middle" y="452.841871014"><tspan dy="0" x="429.57531499"><![CDATA[Jordan Meadows]]></tspan></text><text text-anchor="middle" y="457.788040278"><tspan dy="0" x="898.957664484"><![CDATA[Fairpark]]></tspan></text><text text-anchor="middle" y="275.559525283"><tspan dy="0" x="1201.54375749"><![CDATA[Capitol Hill]]></tspan></text><text text-anchor="middle" y="698.712708509"><tspan dy="0" x="1312.62897107"><![CDATA[East Bench]]></tspan></text><text text-anchor="middle" y="294.40604596"><tspan dy="0" x="491.180447509"><![CDATA[Westpointe]]></tspan></text></g></svg>