<?xml version="1.0" encoding="utf-8"?><!DOCTYPE svg  PUBLIC '-//W3C//DTD SVG 1.1//EN'  'http://www.w3.org/Graphics/SVG/1.1/DTD/svg11.dtd'><svg enable_background="new 0 0 2000 1735" height="1735px" pretty_print="False" style="stroke-linejoin: round; stroke:#000; fill: none;" version="1.1" viewBox="0 0 2000 1735" width="2000px" xmlns="http://www.w3.org/2000/svg" xmlns:xlink="http://www.w3.org/1999/xlink"><defs><style type="text/css"><![CDATA[path { fill-rule: evenodd; }]]></style></defs><metadata><views><view h="1735.64513637" padding="0" w="2000"><proj flip="auto" id="robinson" lon0="114.892796393"/><bbox h="648.92" w="748.19" x="1339.5" y="-475.2"/></view></views></metadata><g class="" id="mylayer"><path d="M936.085913,1066.779448L955.129239,1089.995858L962.756661,1074.733931L981.712426,1076.153069L982.665615,1047.544868L983.336096,1025.481842L950.943741,1050.018529L936.085913,1066.779448Z " data-cartodb-id="45" data-created-at="2013-12-04T08:41:11+0100" data-name="Brunei Darussalam" data-updated-at="2013-12-04T08:41:12+0100"/><path d="M496.638828,793.209711L530.125202,799.750661L562.707844,781.707698L603.747287,778.459783L584.055323,751.321252L646.841465,716.845261L645.964083,663.162099L633.400071,633.284829L596.650034,616.791902L582.569757,647.681242L548.160148,630.114282L510.645216,623.684056L460.941393,632.241884L439.924599,669.491485L454.638473,723.592326L478.689307,769.865408L496.638828,793.209711Z " data-cartodb-id="85" data-created-at="2013-12-04T08:41:11+0100" data-name="Cambodia" data-updated-at="2013-12-04T08:41:12+0100"/><path d="M413.791941,991.562855L380.593248,971.942774L374.131552,979.932047L383.765763,998.923556L380.933931,1031.540323L396.236511,1055.964731L403.162113,1093.064441L427.075336,1123.028003L432.414513,1145.851961L480.126542,1181.408617L518.176873,1214.594588L546.190000,1211.605893L546.682711,1196.459793L530.192665,1156.843766L515.905235,1144.498816L512.162990,1117.984696L507.765619,1102.581584L511.193087,1082.202254L507.669962,1052.034928L489.748661,1022.042847L465.130158,994.997236L455.841606,990.811620L443.820093,1009.216309L417.996012,1014.566386L413.791941,991.562855Z M1110.670238,1068.915099L1102.540849,1047.039044L1128.943717,1044.817169L1130.846912,1027.269053L1097.166819,1013.790825L1070.464256,1001.301130L1067.550765,981.828075L1045.910012,959.164852L1029.949662,959.311883L1012.081513,994.325878L983.336096,1025.481842L982.665615,1047.544868L981.712426,1076.153069L962.756661,1074.733931L955.129239,1089.995858L936.085913,1066.779448L917.917932,1095.108655L890.922033,1130.549575L843.844655,1140.248406L827.233338,1148.697170L820.304039,1186.626673L789.913743,1194.997835L760.573180,1179.645701L767.797198,1209.586013L795.202402,1234.897449L820.623544,1225.787788L845.926081,1229.014945L868.640361,1206.361185L887.541689,1202.433735L925.197366,1214.988143L957.298927,1205.439812L975.933463,1143.134114L990.614957,1127.555094L1002.211849,1076.604506L1047.660920,1076.625338L1082.271043,1084.175866L1110.670238,1068.915099Z " data-cartodb-id="120" data-created-at="2013-12-04T08:41:11+0100" data-name="Malaysia" data-updated-at="2013-12-04T08:41:12+0100"/><path d="M1176.152901,1728.251220L1179.595901,1716.160747L1166.998208,1702.553152L1147.433950,1688.908466L1109.957177,1697.717100L1159.511047,1729.105469L1176.152901,1728.251220Z M1288.455682,1733.645136L1323.087678,1723.790258L1351.786469,1690.334530L1352.205798,1676.752301L1348.937249,1667.918184L1308.491059,1685.713765L1289.170771,1713.040162L1284.233592,1728.269767L1288.455682,1733.645136Z M1072.874504,1632.208809L1061.170223,1648.050608L1039.521289,1648.402501L1024.042559,1674.196552L1045.207446,1674.553058L1072.979106,1668.538598L1119.249347,1659.542431L1110.878602,1640.496659L1086.244683,1644.156710L1072.874504,1632.208809Z M1270.256646,1632.143985L1233.686950,1648.557594L1207.175570,1651.967664L1183.463833,1638.538150L1151.455050,1647.851523L1150.350349,1664.228043L1202.358721,1669.749366L1262.597918,1657.032950L1270.256646,1632.143985Z M710.493397,1573.163583L705.972778,1557.229076L689.776879,1553.814361L658.808845,1536.307938L611.014484,1533.661839L581.686221,1576.467149L617.632228,1579.759156L623.380806,1599.022695L694.232594,1617.468938L710.989713,1611.866531L739.676722,1616.304482L784.279510,1633.414970L820.656927,1641.457411L861.353927,1644.774842L897.134638,1643.554795L939.215054,1661.602805L985.443910,1644.534094L938.879049,1617.911147L880.213884,1609.743648L867.631250,1580.706027L795.613013,1559.164437L785.872234,1577.629324L710.493397,1573.163583Z M1742.677765,1547.929519L1744.131040,1526.568498L1735.947875,1513.462998L1726.755099,1528.605778L1718.722633,1544.706947L1720.299770,1578.430329L1742.677765,1547.929519Z M1453.983868,1424.494049L1444.767842,1409.721801L1404.673449,1411.870123L1411.564562,1431.138197L1438.522692,1439.363564L1453.983868,1424.494049Z M1582.096281,1408.129027L1539.086528,1395.065277L1490.163678,1396.924243L1479.801405,1421.553952L1507.090567,1423.132794L1529.543924,1420.174195L1562.413376,1423.922237L1594.950979,1442.386989L1582.096281,1408.129027Z M1729.991727,1321.134654L1724.001899,1304.484939L1660.642560,1286.087411L1640.233439,1300.688303L1586.752970,1311.541167L1603.101838,1333.707609L1638.261680,1341.979226L1653.189670,1368.650724L1711.097233,1368.741038L1714.013673,1380.626392L1685.832042,1379.755954L1642.638356,1395.889438L1671.951109,1417.896180L1671.188578,1437.361059L1679.357805,1453.788597L1694.727929,1449.839134L1707.445393,1428.068451L1764.739727,1469.466038L1797.131498,1473.211804L1871.535687,1511.147965L1888.086724,1548.755971L1894.899796,1597.469294L1869.100286,1609.908015L1849.383261,1646.365283L1899.470613,1644.987815L1910.259364,1632.225026L1949.563376,1641.235165L1981.377219,1678.002445L1992.252638,1532.008890L1999.423513,1386.015807L1957.276181,1377.454826L1928.470390,1361.427837L1895.086577,1345.810584L1859.912221,1345.847632L1813.702667,1372.884914L1778.765643,1420.403386L1738.954232,1393.588308L1729.991727,1321.134654Z M1377.484746,1205.925966L1370.361576,1195.916924L1331.849000,1228.447750L1286.368848,1230.325260L1236.394837,1224.109364L1205.271914,1210.881275L1172.078581,1244.155258L1163.878324,1262.622268L1143.414410,1330.151718L1136.950123,1365.719906L1119.690094,1395.058333L1130.820908,1425.746487L1147.435316,1426.077550L1151.632743,1469.308614L1138.222672,1510.543717L1154.488689,1523.693208L1179.896720,1517.190230L1181.503480,1453.098696L1180.305341,1400.864468L1207.157773,1387.247413L1202.569835,1430.902062L1229.906521,1457.170863L1223.947727,1474.466575L1233.157728,1486.865920L1272.813081,1469.521633L1251.831392,1506.200679L1266.461557,1521.954604L1288.277364,1508.784281L1290.164211,1479.355924L1257.027111,1427.649449L1264.875192,1412.263680L1229.314763,1354.850814L1264.549121,1337.485745L1282.186777,1311.237925L1299.332073,1317.745460L1302.840128,1297.113913L1228.873809,1312.358383L1207.170774,1332.649644L1172.299762,1292.812576L1177.998343,1258.904299L1212.541121,1252.454646L1278.469846,1250.218300L1316.600106,1258.978396L1346.296484,1250.364164L1377.484746,1205.925966Z M1514.149688,1218.803327L1510.079772,1200.506453L1486.628988,1196.576718L1483.130634,1172.113749L1470.457372,1188.416199L1463.240616,1224.208906L1475.320862,1281.475844L1491.033368,1309.851184L1502.181833,1304.475711L1486.069950,1280.825324L1492.067861,1253.565830L1512.500311,1257.952822L1514.149688,1218.803327Z M1085.677587,1187.656862L1091.962924,1167.047289L1061.461660,1124.634665L1082.271043,1084.175866L1047.660920,1076.625338L1002.211849,1076.604506L990.614957,1127.555094L975.933463,1143.134114L957.298927,1205.439812L925.197366,1214.988143L887.541689,1202.433735L868.640361,1206.361185L845.926081,1229.014945L820.623544,1225.787788L795.202402,1234.897449L767.797198,1209.586013L760.573180,1179.645701L737.679158,1209.415868L733.541180,1250.924415L739.038749,1290.117896L757.594972,1328.438619L777.111264,1340.891157L781.554367,1400.973239L813.985997,1406.142742L839.977896,1403.679529L853.623665,1425.359874L901.233421,1409.249533L920.423871,1423.602778L948.520120,1426.135430L963.049401,1453.520028L1008.818827,1433.362948L1013.967659,1449.297382L1031.787903,1380.790758L1033.959022,1336.177760L1072.488197,1305.538289L1070.978447,1264.941894L1083.982166,1234.399692L1130.806675,1229.114488L1085.677587,1187.656862Z M601.868338,1531.710260L606.589554,1462.414431L618.603021,1406.696051L600.215022,1378.341481L571.276400,1374.380427L558.082764,1349.380408L551.911252,1318.132072L537.712673,1316.983839L515.202875,1301.426808L531.202535,1264.849296L500.978797,1244.384448L477.639437,1206.872830L443.784397,1176.185901L403.550372,1175.483279L364.746732,1127.327024L342.322518,1108.689807L310.637890,1078.315329L273.911794,1034.504761L212.378282,1025.849955L186.863878,1024.044197L191.283398,1046.848066L234.395651,1096.212900L265.011519,1121.303297L286.786556,1159.633379L323.104335,1187.842060L338.257194,1222.812982L350.162605,1261.328127L384.810225,1298.667304L413.929103,1361.381515L432.698807,1394.958790L461.450097,1431.441484L477.351265,1458.594614L526.557023,1495.197246L558.084461,1532.647859L601.868338,1531.710260Z " data-cartodb-id="92" data-created-at="2013-12-04T08:41:11+0100" data-name="Indonesia" data-updated-at="2013-12-04T08:41:12+0100"/><path d="M548.160148,630.114282L582.569757,647.681242L596.650034,616.791902L633.400071,633.284829L634.918694,588.496114L620.808103,556.849387L586.842118,525.678282L556.481094,486.206740L516.102319,433.269974L465.364305,406.473514L474.058908,390.371388L497.102741,378.637587L475.979408,339.580219L428.134582,339.229601L404.380984,298.539409L376.086601,263.174094L357.081043,269.738307L370.968673,320.966311L350.102849,319.744370L344.996721,309.223538L316.411353,338.353615L310.599399,354.846692L329.474119,368.668334L335.705403,395.581679L362.297550,397.631303L359.680615,444.829665L366.371018,484.988970L403.649611,458.261280L416.477368,466.160231L439.132219,464.864952L444.689748,449.277890L474.628853,452.354525L509.668334,488.736008L518.415189,532.955025L555.395299,572.002543L558.489939,609.921704L548.160148,630.114282Z " data-cartodb-id="100" data-created-at="2013-12-04T08:41:11+0100" data-name="Laos (Lao People’s Democratic Republic)" data-updated-at="2013-12-29T19:58:03+0100"/><path d="M160.395295,0.000000L138.850008,3.330501L145.680957,20.311747L134.147817,28.533979L143.387820,56.116410L114.255471,48.009411L71.171222,78.995893L77.468254,104.662452L63.344009,142.281688L65.288090,164.128212L54.326325,201.081895L22.493898,190.872764L28.351897,237.242474L21.924038,252.497491L28.841922,271.518200L11.283419,282.142968L15.063492,314.262932L0.576487,307.480870L8.122818,343.514555L40.721983,380.048311L64.259364,385.789590L61.730422,401.935471L99.314407,453.583787L113.044044,495.528682L106.605879,551.052034L132.123578,561.557408L154.558407,565.547690L195.038288,533.610215L217.858081,511.142266L239.580324,548.245965L253.518231,604.843420L272.165063,658.461366L290.457395,681.670888L291.859686,730.473638L307.381351,756.980226L298.063398,791.296359L304.343649,824.549271L319.920748,778.516496L337.988461,736.755365L318.827394,695.900235L317.379942,675.089239L310.295955,650.081959L280.218314,614.487176L268.250773,592.011708L280.782928,583.732595L290.230345,544.784704L270.331308,515.214666L241.117056,482.504829L216.807633,443.194114L232.097723,435.057124L242.890236,386.629810L270.050323,384.624198L289.885241,365.203603L310.599399,354.846692L316.411353,338.353615L344.996721,309.223538L340.962177,290.708709L314.556339,303.747859L296.504921,295.502935L265.139693,278.690942L270.495111,241.481139L244.599296,232.804556L228.441173,191.557095L188.986976,198.990813L184.149748,145.817738L213.314215,108.367385L207.162982,71.373483L198.466496,37.061088L179.332192,26.375532L160.395295,0.000000Z " data-cartodb-id="115" data-created-at="2013-12-04T08:41:11+0100" data-name="Myanmar" data-updated-at="2013-12-04T08:41:12+0100"/><path d="M1406.169164,892.564550L1402.090408,876.088484L1396.899405,853.528582L1363.093119,832.282537L1368.410450,866.926747L1340.644863,868.117848L1335.806707,888.109237L1306.756671,900.376631L1291.259645,880.096922L1271.052051,896.975828L1247.128892,909.576585L1234.249872,947.334975L1241.634730,960.447402L1269.194792,935.451798L1287.883099,937.176510L1298.981355,918.600626L1325.458671,939.786762L1314.836909,961.087489L1327.952136,993.512149L1375.948723,1019.511345L1386.048120,998.516109L1371.385565,965.506952L1388.328506,942.783585L1405.722085,988.452594L1416.513922,947.457635L1412.420650,922.326677L1406.169164,892.564550Z M1304.646686,809.058057L1304.188415,766.323486L1279.306216,809.568527L1282.733189,779.408954L1261.290952,782.041082L1259.613682,809.847483L1250.873117,822.395159L1243.816786,834.386883L1270.691487,865.350201L1281.974264,852.086301L1291.851479,823.781837L1304.646686,809.058057Z M1092.589306,852.170790L1110.682632,821.383097L1134.455860,796.715754L1123.891722,760.188811L1107.535317,804.689696L1086.594015,835.679802L1060.362662,863.347712L1043.382372,894.679315L1092.589306,852.170790Z M1214.733501,736.800521L1223.091283,758.120370L1222.610632,780.973869L1226.000847,801.790165L1249.718948,788.337834L1266.048504,769.315607L1264.857179,750.602474L1239.831877,750.668461L1214.733501,736.800521Z M1355.661770,724.662996L1342.877888,707.952172L1305.023169,706.964821L1332.967199,741.171214L1335.318144,758.131928L1311.786476,754.557614L1320.755964,781.679924L1332.839629,784.006487L1337.520155,815.513416L1355.305808,805.476792L1342.945669,777.832437L1340.567272,762.796615L1372.167756,774.682897L1355.661770,724.662996Z M1194.655483,684.035718L1179.024901,667.903362L1145.189150,666.258521L1169.366338,700.391355L1188.753298,722.742734L1194.655483,684.035718Z M1149.520001,440.567793L1125.918676,440.515738L1120.191444,481.109970L1127.556972,551.200196L1109.491155,536.456824L1117.530583,579.348715L1126.230620,598.858737L1149.182360,624.600850L1152.003794,608.455056L1165.153428,618.816485L1154.463751,630.212663L1154.929638,648.731119L1175.739446,658.630394L1210.525546,652.009277L1238.937863,678.828054L1246.957255,662.383087L1264.425078,685.920126L1297.694658,707.909345L1299.280529,687.264037L1285.127718,676.501431L1285.707837,652.114600L1233.348098,627.277130L1216.729177,632.578735L1195.266687,627.642924L1181.432297,591.961934L1182.125737,555.842227L1202.832485,540.993519L1206.997742,503.760253L1188.191515,471.648121L1191.300096,453.074476L1185.751481,441.692871L1175.780782,453.358094L1149.520001,440.567793Z " data-cartodb-id="140" data-created-at="2013-12-04T08:41:11+0100" data-name="Philippines" data-updated-at="2013-12-04T08:41:12+0100"/><path d="M454.638473,723.592326L439.924599,669.491485L460.941393,632.241884L510.645216,623.684056L548.160148,630.114282L558.489939,609.921704L555.395299,572.002543L518.415189,532.955025L509.668334,488.736008L474.628853,452.354525L444.689748,449.277890L439.132219,464.864952L416.477368,466.160231L403.649611,458.261280L366.371018,484.988970L359.680615,444.829665L362.297550,397.631303L335.705403,395.581679L329.474119,368.668334L310.599399,354.846692L289.885241,365.203603L270.050323,384.624198L242.890236,386.629810L232.097723,435.057124L216.807633,443.194114L241.117056,482.504829L270.331308,515.214666L290.230345,544.784704L280.782928,583.732595L268.250773,592.011708L280.218314,614.487176L310.295955,650.081959L317.379942,675.089239L318.827394,695.900235L337.988461,736.755365L319.920748,778.516496L304.343649,824.549271L295.667961,867.512442L293.105881,895.462978L302.040850,920.348451L306.971626,894.016071L327.339494,915.264639L349.728522,940.555332L357.659816,962.741602L374.131552,979.932047L380.593248,971.942774L413.791941,991.562855L417.996012,1014.566386L443.820093,1009.216309L455.841606,990.811620L434.201113,967.561568L410.013538,962.353822L386.599391,936.697297L377.251155,897.920364L358.627697,857.032350L332.856585,855.625995L327.890766,823.200807L337.680773,783.631442L353.261031,718.198384L351.524781,668.926615L386.069763,668.663824L383.852170,703.859232L417.378652,703.023521L454.638473,723.592326Z " data-cartodb-id="163" data-created-at="2013-12-04T08:41:11+0100" data-name="Thailand" data-updated-at="2013-12-04T08:41:12+0100"/><path d="M1348.937249,1667.918184L1352.205798,1676.752301L1351.786469,1690.334530L1385.883564,1677.469972L1428.581817,1657.859394L1444.056881,1645.721706L1429.553198,1640.167926L1416.792083,1645.763369L1389.159924,1647.279713L1354.421347,1657.350079L1348.937249,1667.918184Z " data-cartodb-id="9" data-created-at="2013-12-04T08:41:11+0100" data-name="Timor-Leste" data-updated-at="2013-12-04T08:41:12+0100"/><path d="M610.516252,304.037126L569.578641,292.414397L548.109452,274.216971L549.839744,248.414195L513.072996,240.233415L491.503305,223.425925L462.683301,247.299612L425.942501,252.468554L395.053872,252.242884L376.086601,263.174094L404.380984,298.539409L428.134582,339.229601L475.979408,339.580219L497.102741,378.637587L474.058908,390.371388L465.364305,406.473514L516.102319,433.269974L556.481094,486.206740L586.842118,525.678282L620.808103,556.849387L634.918694,588.496114L633.400071,633.284829L645.964083,663.162099L646.841465,716.845261L584.055323,751.321252L603.747287,778.459783L562.707844,781.707698L530.125202,799.750661L561.342387,825.197454L552.503275,855.546120L568.786096,884.274388L615.010043,842.563490L644.234535,805.218668L686.862664,776.376291L716.964081,746.875351L714.062793,668.067729L685.884416,585.157566L657.172418,549.179021L617.741448,521.503930L572.547095,462.964305L535.507973,415.746516L539.220109,384.665897L564.929485,342.351584L610.516252,304.037126Z " data-cartodb-id="10" data-created-at="2013-12-04T08:41:11+0100" data-name="Vietnam" data-updated-at="2013-12-04T08:41:12+0100"/></g><g fill="#000" font-family="Arial" font-size="12px" id="mylayer-label" stroke="none"><text text-anchor="middle" y="1053.41699845"><tspan dy="0" x="963.829729928"><![CDATA[Brunei Darussalam]]></tspan></text><text text-anchor="middle" y="695.32089609"><tspan dy="0" x="542.243682507"><![CDATA[Cambodia]]></tspan></text><text text-anchor="middle" y="1096.66491393"><tspan dy="0" x="759.074501976"><![CDATA[Malaysia]]></tspan></text><text text-anchor="middle" y="1362.88101059"><tspan dy="0" x="1064.34415216"><![CDATA[Indonesia]]></tspan></text><text text-anchor="middle" y="437.538345592"><tspan dy="0" x="465.216920042"><![CDATA[Laos (Lao People’s Democratic Republic)]]></tspan></text><text text-anchor="middle" y="322.985973126"><tspan dy="0" x="165.068918709"><![CDATA[Myanmar]]></tspan></text><text text-anchor="middle" y="737.157059917"><tspan dy="0" x="1252.51993504"><![CDATA[Philippines]]></tspan></text><text text-anchor="middle" y="591.364618837"><tspan dy="0" x="376.824302334"><![CDATA[Thailand]]></tspan></text><text text-anchor="middle" y="1656.31531627"><tspan dy="0" x="1388.71659678"><![CDATA[Timor-Leste]]></tspan></text><text text-anchor="middle" y="518.631030467"><tspan dy="0" x="573.07845001"><![CDATA[Vietnam]]></tspan></text></g></svg>