<?xml version="1.0" encoding="utf-8"?><!DOCTYPE svg  PUBLIC '-//W3C//DTD SVG 1.1//EN'  'http://www.w3.org/Graphics/SVG/1.1/DTD/svg11.dtd'><svg enable_background="new 0 0 2000 3218" height="3218px" pretty_print="False" style="stroke-linejoin: round; stroke:#000; fill: none;" version="1.1" viewBox="0 0 2000 3218" width="2000px" xmlns="http://www.w3.org/2000/svg" xmlns:xlink="http://www.w3.org/1999/xlink"><defs><style type="text/css"><![CDATA[path { fill-rule: evenodd; }]]></style></defs><metadata><views><view h="3218.66441126" padding="0" w="2000"><proj flip="auto" id="robinson" lon0="-73.5350349831"/><bbox h="2.67" w="1.66" x="-999.25" y="-691.31"/></view></views></metadata><g class="" id="mylayer"><path d="M914.456633,2383.516467L913.181524,2388.259913L909.722242,2400.553404L908.779722,2405.178309L908.610338,2407.668648L909.601434,2411.166987L910.822883,2412.491219L910.509219,2418.756627L911.769941,2419.606511L915.457330,2428.401843L917.501187,2432.433875L920.076566,2434.370835L921.799067,2433.441885L925.491177,2433.797653L930.024402,2434.331305L934.300230,2433.540709L935.997453,2433.698828L937.324904,2434.746369L937.986606,2435.932264L939.246844,2438.145937L940.207229,2440.478203L942.901418,2445.933345L943.367723,2447.218073L943.153796,2449.392231L942.436014,2451.961693L941.581949,2454.195151L939.467498,2458.503956L937.174467,2461.547796L934.160424,2464.295164L930.683794,2467.259954L924.921340,2470.975830L916.597611,2474.830073L912.239102,2478.348312L908.227084,2480.443446L905.421417,2482.597880L903.030512,2485.187156L895.686860,2494.239772L893.442417,2498.647504L891.061534,2503.173841L887.948712,2508.194333L885.833969,2511.495216L885.193068,2513.827580L885.407766,2515.586738L885.880677,2516.397137L887.096833,2516.930815L887.973902,2518.057468L888.377714,2521.654858L887.795750,2526.378914L886.984601,2532.466839L884.725253,2539.444258L883.445181,2543.397483L882.359850,2547.153055L881.008036,2548.754117L880.477631,2550.038921L879.276020,2553.043389L874.466312,2556.996645L870.835073,2561.701031L868.512361,2567.057721L865.763040,2573.580650L864.746252,2576.367727L864.373871,2586.804482L865.053050,2589.552047L866.520526,2590.975247L867.279882,2596.806430L867.849165,2598.783106L867.820310,2603.112036L865.985101,2611.354821L862.729275,2623.985928L862.245670,2625.883567L865.028154,2625.112651L870.272005,2623.452218L878.153433,2620.862735L889.542176,2616.929101L896.968890,2614.280328L899.571610,2613.509417L904.818988,2611.888528L911.389433,2609.714168L917.852570,2607.618878L925.718308,2605.128253L932.682415,2602.696932L937.444454,2601.313255L942.019651,2599.850513L963.773669,2592.872850L977.340949,2587.812580L986.726819,2583.503456L1001.303330,2576.940956L1007.478211,2573.817848L1014.068702,2570.773811L1025.144076,2566.444962L1032.788157,2563.578835L1039.191569,2561.365003L1049.978378,2557.372204L1060.848253,2553.577078L1066.301012,2551.422557L1073.258055,2548.457624L1079.142874,2545.927552L1084.225494,2543.654443L1089.029631,2541.282507L1092.543399,2539.464024L1099.340674,2536.084024L1105.666230,2532.545903L1109.110403,2530.589067L1114.227295,2527.604404L1118.534911,2524.797639L1122.511363,2522.307133L1128.604029,2518.176063L1129.540607,2517.504024L1133.978263,2514.598446L1137.622182,2512.226550L1145.959495,2507.067686L1153.405024,2502.442510L1165.651684,2495.959379L1173.880073,2491.591185L1181.531378,2487.895030L1190.689006,2483.684980L1201.301634,2479.573768L1205.158970,2478.763385L1212.555398,2476.964734L1223.641398,2474.671950L1237.756249,2471.805974L1252.739433,2468.327279L1259.306568,2459.096911L1263.658313,2453.226660L1268.897871,2445.775225L1265.166379,2446.348411L1260.987292,2446.941362L1256.690961,2447.593609L1259.445044,2441.308332L1261.323874,2437.473929L1264.706012,2431.267747L1267.720234,2424.784881L1270.061801,2420.278512L1272.071667,2415.534979L1273.038070,2412.550513L1273.745753,2409.961344L1273.786067,2408.222057L1272.782098,2406.225832L1271.301941,2404.842312L1270.214496,2404.012200L1266.574158,2401.679983L1260.708143,2398.853656L1257.765273,2397.193438L1253.533848,2394.920524L1248.863426,2392.489497L1244.840079,2390.532819L1241.909736,2389.742243L1236.686179,2388.615672L1232.849217,2388.101798L1224.852183,2386.658998L1219.874419,2385.631252L1214.881150,2384.247747L1207.440692,2381.994614L1200.877574,2379.958891L1197.285892,2378.990440L1193.566353,2377.962698L1189.458864,2377.073306L1184.425870,2375.610752L1177.910969,2373.930792L1176.965399,2371.855550L1176.453761,2368.238705L1176.430151,2364.779980L1176.260671,2361.973477L1176.390540,2356.577890L1173.775448,2352.644853L1172.109277,2349.364034L1170.757084,2349.956953L1169.595244,2350.668455L1168.470969,2351.617126L1165.601994,2354.067860L1163.704336,2356.143081L1161.307711,2358.850754L1158.343225,2362.151354L1155.365939,2365.491489L1154.089551,2366.657573L1152.907834,2367.329554L1151.940056,2367.744601L1150.718751,2367.882950L1149.750467,2367.744601L1147.910591,2367.270261L1146.959489,2366.776157L1144.467019,2365.491489L1141.679924,2363.653426L1139.448230,2362.269939L1138.238554,2361.716544L1135.327293,2363.238379L1133.349470,2361.222442L1133.555163,2360.234238L1133.849632,2359.325092L1138.641252,2352.704144L1140.777979,2349.739549L1142.244412,2347.684100L1145.189592,2342.980292L1148.367930,2337.960275L1150.209882,2334.896886L1154.307232,2327.090210L1158.896404,2317.109573L1160.928807,2312.247739L1162.695579,2307.247574L1164.111776,2303.077487L1165.546234,2297.741371L1172.607944,2271.100563L1176.528604,2255.468052L1158.193736,2257.641970L1152.806489,2257.879125L1148.705215,2257.879125L1144.316436,2257.404815L1139.516296,2256.989794L1117.927587,2259.321818L1108.029479,2260.369254L1105.400774,2260.665698L1102.889315,2260.902853L1100.760497,2260.211150L1097.890864,2259.183478L1096.171206,2258.590590L1092.054256,2258.689405L1086.692401,2259.302055L1080.362089,2260.230913L1040.107172,2266.515539L1036.904770,2251.436428L1032.450774,2239.262562L1025.645783,2219.519735L1022.730419,2221.910996L1014.761463,2225.073000L1011.494394,2226.179703L986.929471,2235.981956L979.530078,2228.511686L934.843782,2241.159782L926.836150,2243.432497L923.942891,2244.242769L917.716879,2248.076749L921.822937,2249.776350L928.109904,2251.653819L936.257588,2254.697299L947.845387,2261.495741L952.388196,2266.436486L956.140956,2274.420760L963.027068,2287.662086L967.767483,2297.187997L969.524184,2306.694197L970.142406,2314.065984L970.320776,2320.172931L970.035102,2321.912130L969.358601,2323.848967L967.714506,2325.746279L964.910064,2328.098158L956.144015,2332.762399L945.727002,2338.790356L939.717958,2342.308320L931.884212,2348.079378L929.793869,2350.194120L925.049485,2355.154880L920.524798,2359.740137L919.117413,2361.360791L917.903243,2363.040738L916.966858,2364.720688L915.995947,2369.029271L915.674928,2373.752914L914.456633,2383.516467Z " data-cartodb-id="4" data-created-at="2013-08-22T04:08:48+0200" data-name="Downtown" data-updated-at="2013-08-22T04:08:48+0200"/><path d="M332.778656,1664.993081L344.634955,1691.170308L353.626937,1719.580448L363.264220,1747.062456L376.750157,1785.490568L409.025902,1879.045281L415.778536,1900.226678L425.496111,1932.967454L433.438970,1959.800723L465.612858,2066.169617L477.427361,2096.443346L489.836561,2133.653873L490.720047,2138.890681L498.679625,2165.489954L529.136709,2262.108393L532.589786,2261.436453L535.751713,2261.713134L540.495438,2262.503652L545.889137,2262.246734L549.876037,2262.246734L553.668067,2261.436453L562.308635,2258.472012L571.284346,2255.784258L580.521857,2253.649867L586.478703,2252.562910L590.533361,2250.942357L595.576938,2248.136037L600.293349,2244.776364L605.216351,2250.962120L619.152648,2264.124216L632.534554,2249.203229L639.531292,2241.278358L650.823037,2225.547301L654.094960,2220.191659L656.631899,2214.381498L659.251122,2207.662288L662.793722,2196.733746L665.108996,2185.508841L673.446471,2145.174871L674.688730,2140.234468L676.226089,2135.946210L680.003471,2129.385392L686.087864,2121.302973L696.033059,2109.426430L700.149107,2097.134984L706.315344,2077.966824L706.798178,2074.311064L706.464076,2070.655312L705.642998,2068.501387L704.942048,2067.236697L701.071415,2062.948617L697.569126,2063.067182L695.507235,2062.573164L693.915010,2061.940821L691.933871,2060.794701L690.121891,2059.530017L689.089381,2058.028207L688.497050,2056.882089L688.001175,2054.985068L687.654903,2053.483261L687.619849,2048.049103L688.836282,2040.065861L690.454076,2016.234913L691.911196,2009.575742L693.639059,2002.837557L696.665450,1995.269479L700.321321,1988.531348L704.392361,1982.326758L713.834525,1969.838605L726.211279,1953.793829L733.446422,1943.123739L741.135047,1931.307678L747.149697,1920.874833L750.695318,1913.722048L752.993225,1908.703260L755.968196,1900.187160L757.774469,1896.986224L762.476771,1891.354961L768.622179,1881.930045L779.407899,1862.230752L782.793239,1855.018929L785.883212,1846.048649L787.542468,1841.286910L788.201436,1837.493335L788.691648,1833.363880L788.660351,1830.992906L787.336133,1821.528797L787.186707,1815.443343L787.162499,1814.712299L794.201667,1803.944262L800.454614,1795.448426L826.188777,1765.634293L832.825925,1770.455099L836.026219,1773.280414L845.300212,1782.764022L846.901312,1784.324870L849.402018,1785.530084L854.797600,1787.229238L870.268365,1789.145728L873.981373,1789.837245L876.597890,1790.232398L879.706407,1790.923916L882.337212,1792.030346L884.509540,1793.492414L885.676992,1794.677876L886.178740,1796.001642L888.380189,1795.863338L888.860838,1796.950013L889.718481,1803.924505L894.147540,1806.236169L893.268652,1801.593085L892.065253,1795.231092L888.530031,1764.132733L886.941162,1753.068646L884.123483,1735.168680L882.914461,1728.372273L881.594681,1720.054612L880.890241,1716.083487L876.835433,1694.094279L873.488842,1670.327277L871.991483,1663.866975L870.207250,1655.924984L868.322918,1648.694248L867.974467,1642.016709L867.828509,1635.319439L868.768310,1628.246833L871.252730,1617.321886L874.016362,1605.033871L877.929358,1579.845682L878.825165,1575.677318L880.042266,1570.619980L881.633065,1564.160041L882.818260,1557.087720L883.629911,1551.971169L884.400076,1546.479290L883.941489,1535.060977L883.523810,1532.473100L881.757360,1524.630472L879.581646,1515.029720L879.531333,1514.279046L879.228356,1513.350581L866.105468,1519.553524L857.269941,1523.721756L829.499695,1536.898175L824.255469,1539.011942L818.847772,1540.572576L809.290081,1542.587573L800.202534,1544.009926L768.897408,1546.538555L711.817034,1551.872394L705.740501,1552.524309L692.246027,1553.531814L690.286230,1553.630589L675.511076,1554.657850L647.589791,1557.028454L598.988295,1561.354815L560.132913,1562.935224L540.820056,1562.994489L527.821816,1562.322815L493.985346,1559.616368L440.943398,1556.337028L423.484165,1556.020947L416.356158,1556.238253L410.239886,1556.811149L403.979543,1557.877922L396.890172,1559.636123L390.564523,1561.256040L383.085479,1563.962490L369.275041,1569.513689L311.438569,1592.765696L311.966086,1593.555914L312.361724,1594.148578L332.778656,1664.993081Z " data-cartodb-id="8" data-created-at="2013-08-22T04:08:48+0200" data-name="Westover" data-updated-at="2013-08-22T04:08:48+0200"/><path d="M1170.109448,1513.469108L1165.598871,1535.416564L1166.888848,1535.317790L1168.100043,1535.159751L1176.223734,1534.290540L1189.124406,1532.394081L1193.980936,1532.078004L1198.324166,1532.236042L1201.720033,1532.947214L1204.593291,1534.211521L1207.692363,1535.535092L1210.535402,1537.194497L1212.839340,1538.853903L1215.252450,1540.730615L1217.934303,1543.792622L1219.187975,1545.214975L1221.297898,1547.723851L1223.125256,1551.556315L1225.010166,1554.657850L1227.478466,1557.522331L1229.411889,1558.964450L1231.979547,1560.465836L1236.064676,1561.670897L1240.624010,1562.421591L1244.962099,1562.796938L1250.276261,1563.033999L1256.142972,1563.330326L1261.491477,1563.310571L1288.630457,1562.342570L1292.355218,1562.342570L1295.836161,1562.540121L1299.976119,1563.626653L1303.421864,1564.989757L1306.225305,1566.570168L1308.445378,1568.387643L1310.482854,1570.264386L1311.845971,1572.457214L1313.138570,1574.867352L1314.039673,1578.936938L1314.966012,1583.381884L1315.938434,1591.007463L1321.908051,1628.997555L1322.333707,1632.770927L1323.116484,1635.141636L1324.166848,1636.939425L1325.334468,1638.677949L1327.321214,1640.258426L1329.678550,1642.056221L1331.455192,1643.478653L1333.443594,1644.802306L1335.686982,1646.145717L1357.792877,1660.389880L1373.673184,1671.315093L1376.950885,1673.448777L1380.235004,1675.562707L1384.680324,1677.874204L1386.163896,1674.811965L1388.028767,1671.078017L1390.181446,1666.356263L1391.851299,1662.266720L1394.750559,1654.186444L1397.603269,1644.940598L1399.104642,1641.068421L1400.669267,1636.346747L1402.327785,1631.486794L1404.202442,1627.219530L1406.506407,1622.636183L1409.302760,1617.894802L1411.820373,1613.509036L1414.337994,1609.123281L1416.331416,1605.547516L1418.308176,1605.547516L1420.055597,1605.448738L1421.999061,1605.349960L1426.920997,1605.033871L1442.824370,1603.650981L1451.213007,1602.821247L1469.507570,1555.704867L1487.357938,1556.376538L1512.933702,1558.312533L1514.850822,1553.512059L1516.347973,1550.509301L1518.953954,1548.217725L1522.251043,1546.716349L1525.571708,1545.847132L1546.450237,1540.710860L1568.652609,1535.673376L1579.595378,1533.164517L1596.842364,1529.351848L1602.013796,1528.719697L1607.442065,1528.403621L1613.095745,1528.601168L1618.390240,1529.351848L1625.077701,1530.793945L1634.100400,1537.273516L1641.391032,1542.646838L1646.186283,1546.597820L1652.501326,1551.655089L1655.654211,1554.223240L1658.753327,1556.554333L1661.309586,1558.292778L1664.834484,1560.268285L1668.845343,1562.105509L1673.700171,1553.788630L1677.138825,1547.822626L1684.321744,1534.092992L1686.278426,1529.371603L1688.033295,1524.768754L1692.353577,1511.454144L1708.377684,1515.286529L1711.710150,1516.294013L1714.942331,1517.459535L1718.895817,1519.020149L1722.996961,1520.679539L1728.747472,1522.240156L1737.105028,1524.274887L1742.610429,1524.274887L1747.004479,1523.168625L1751.049052,1522.082119L1758.596196,1519.968372L1766.645233,1518.170701L1771.513657,1517.163216L1776.505736,1516.076713L1781.198208,1515.661866L1784.885480,1515.424811L1788.974754,1515.207511L1795.340190,1515.326038L1797.758978,1510.841754L1799.396290,1501.616410L1803.887725,1496.282722L1809.007484,1488.005660L1808.804012,1482.691766L1809.246534,1476.192640L1806.477915,1471.333126L1802.650174,1467.421820L1795.128871,1466.888460L1789.484538,1463.490768L1785.271420,1461.673400L1785.228181,1459.994312L1785.140270,1457.446052L1786.890070,1453.060683L1791.035703,1444.665299L1795.283947,1434.393354L1798.250969,1427.163520L1805.555141,1419.657167L1808.709197,1409.938462L1812.602016,1405.493950L1822.433446,1402.432181L1828.163386,1396.051868L1832.442484,1391.725910L1837.642333,1389.395032L1840.871094,1387.953051L1843.306043,1385.483906L1845.773048,1382.916000L1848.959638,1380.999949L1853.558708,1380.822171L1859.047750,1381.375258L1866.172132,1378.550568L1871.829606,1375.212303L1878.192131,1374.382676L1881.540979,1374.382676L1882.676949,1377.878964L1890.372584,1388.545646L1900.134577,1379.103654L1933.601811,1356.921095L1957.903255,1340.783112L1961.778677,1336.694319L1990.094757,1306.828640L1999.689216,1296.695756L1994.995315,1293.693431L1996.264687,1287.669044L1998.250556,1281.802693L1999.545675,1277.812795L1998.493463,1276.726439L1997.634991,1275.798098L1997.479341,1272.302011L1996.206526,1270.939131L1992.844664,1271.985981L1989.968860,1271.334169L1984.956310,1269.615756L1982.424974,1271.827966L1980.247955,1272.697049L1978.665804,1268.865186L1955.959150,1287.234498L1841.642211,1297.051294L1774.173039,1292.231774L1717.097309,1289.110944L1674.631502,1281.091621L1679.414037,1277.279493L1682.997547,1275.600579L1688.178296,1273.329109L1693.101672,1270.642853L1697.480303,1265.961667L1691.419747,1268.075112L1685.956819,1242.338653L1689.188325,1226.853502L1688.788368,1225.016625L1691.867929,1203.310011L1691.456199,1200.604109L1664.582779,1201.315148L1647.683070,1201.947184L1630.571000,1202.579219L1621.428056,1202.816233L1611.095635,1203.547024L1605.212770,1204.258065L1598.793232,1205.364128L1585.609473,1208.386056L1573.793899,1212.375798L1564.623931,1215.713758L1543.294266,1223.950052L1530.177799,1228.927399L1480.918703,1248.619658L1469.556970,1253.123034L1450.166762,1260.115139L1446.221375,1261.399004L1421.336930,1270.721861L1409.285541,1275.185788L1378.059145,1287.135738L1359.324577,1294.523020L1346.931267,1299.184529L1330.560517,1305.781770L1302.893773,1316.981335L1290.502788,1322.037951L1279.693356,1326.600770L1266.688085,1332.190732L1257.453785,1336.279514L1256.518031,1336.595556L1255.470483,1338.412796L1255.276847,1338.807848L1253.243675,1342.955904L1246.979481,1354.096444L1244.855850,1357.869231L1243.304729,1359.074154L1240.611842,1363.795091L1233.111821,1376.930817L1227.339887,1386.254279L1221.887194,1395.953102L1217.593981,1403.439601L1214.265503,1409.464380L1197.092017,1440.319469L1185.701070,1459.302923L1182.875538,1464.735271L1179.436166,1472.360339L1176.668908,1479.827407L1175.012895,1486.287038L1174.614336,1488.420499L1173.826544,1492.608413L1172.323084,1499.957039L1170.109448,1513.469108Z " data-cartodb-id="9" data-created-at="2013-08-22T04:08:48+0200" data-name="Newfield" data-updated-at="2013-08-22T04:08:48+0200"/><path d="M879.531333,1514.279046L879.581646,1515.029720L881.757360,1524.630472L883.523810,1532.473100L883.941489,1535.060977L884.400076,1546.479290L883.629911,1551.971169L882.818260,1557.087720L881.633065,1564.160041L880.042266,1570.619980L878.825165,1575.677318L877.929358,1579.845682L874.016362,1605.033871L871.252730,1617.321886L868.768310,1628.246833L867.828509,1635.319439L867.974467,1642.016709L868.322918,1648.694248L870.207250,1655.924984L871.991483,1663.866975L873.488842,1670.327277L876.835433,1694.094279L880.890241,1716.083487L881.594681,1720.054612L882.914461,1728.372273L884.123483,1735.168680L886.941162,1753.068646L888.530031,1764.132733L892.065253,1795.231092L893.268652,1801.593085L894.147540,1806.236169L917.870984,1857.903655L920.533221,1862.388820L922.876130,1866.498584L924.793120,1869.403087L926.112021,1872.287836L927.500327,1876.318589L928.891010,1879.183591L930.201637,1881.791735L932.236005,1887.205621L933.436439,1889.952088L936.545660,1898.902833L938.605040,1905.146647L939.630235,1908.584706L940.230368,1911.469519L940.603040,1914.551927L940.678473,1921.724475L939.929068,1928.165962L939.005512,1932.927935L937.238282,1941.147803L935.274694,1949.822177L933.020547,1959.543849L928.576112,1982.267479L926.945626,1990.369018L926.359935,1994.795240L925.492013,1999.537634L924.974260,2005.366843L924.258544,2011.907437L923.912556,2017.005560L923.976655,2021.846815L924.180772,2026.609042L924.934002,2030.383264L927.281299,2044.610771L927.868933,2047.535329L928.959860,2049.965877L930.752212,2056.229988L932.435730,2063.837850L934.211323,2073.026610L936.415388,2083.262748L937.989536,2091.107859L941.253381,2107.450307L943.101850,2114.248178L943.650777,2115.730276L944.460746,2120.137053L945.282153,2123.298873L946.289332,2125.887617L947.395203,2128.575173L948.168444,2130.373466L949.463892,2132.072953L951.653545,2134.088626L949.662362,2139.878760L947.099055,2146.123430L938.698308,2164.580908L937.414664,2168.138046L937.001070,2170.825666L937.793064,2173.473767L941.052858,2182.623577L942.701731,2186.358611L945.057798,2190.785328L947.496894,2195.409678L949.180965,2198.532109L951.893779,2201.555735L956.544511,2206.061539L957.692624,2207.207754L962.956082,2212.444782L979.530078,2228.511686L986.929471,2235.981956L1011.494394,2226.179703L1014.761463,2225.073000L1022.730419,2221.910996L1025.645783,2219.519735L1032.450774,2239.262562L1036.904770,2251.436428L1040.107172,2266.515539L1080.362089,2260.230913L1086.692401,2259.302055L1092.054256,2258.689405L1096.171206,2258.590590L1097.890864,2259.183478L1100.760497,2260.211150L1102.889315,2260.902853L1105.400774,2260.665698L1108.029479,2260.369254L1117.927587,2259.321818L1139.516296,2256.989794L1144.316436,2257.404815L1148.705215,2257.879125L1152.806489,2257.879125L1158.193736,2257.641970L1176.528604,2255.468052L1177.315214,2251.930499L1177.732009,2249.282280L1179.443394,2238.452291L1181.426656,2226.733054L1181.546065,2223.590810L1181.977448,2217.266814L1182.434924,2212.879555L1182.764569,2208.433020L1184.255790,2186.635280L1186.647812,2164.126385L1186.857258,2160.253067L1187.469031,2155.944997L1188.368580,2150.194334L1189.300589,2144.898208L1191.112038,2135.728833L1192.131872,2132.329852L1193.297862,2129.286585L1194.571581,2126.717597L1196.588121,2123.318634L1200.118797,2118.121396L1206.653399,2107.134128L1209.422982,2102.470489L1214.357775,2094.151061L1228.170368,2070.892442L1228.725764,2069.884641L1231.280672,2064.371389L1232.247561,2061.842018L1232.849246,2059.431214L1233.625443,2056.229988L1234.428456,2052.139541L1236.116100,2042.950890L1237.473123,2033.169475L1238.795315,2027.024008L1239.531198,2023.644999L1240.586436,2019.633668L1246.088717,2000.644194L1248.572514,1992.226449L1253.341065,1976.912579L1257.504450,1964.977734L1264.066701,1943.578204L1268.962854,1927.217521L1270.161851,1923.166892L1271.739498,1918.049282L1273.832935,1912.852650L1275.293691,1908.347598L1280.199496,1894.931305L1281.229104,1891.453755L1282.201057,1887.146345L1282.827678,1882.997014L1282.836982,1879.894903L1282.806621,1871.675321L1282.579308,1862.803747L1282.465642,1859.879497L1282.861982,1856.994768L1283.423954,1853.951977L1284.333523,1850.593058L1286.861956,1843.401042L1290.324263,1835.596551L1293.147771,1829.056612L1294.936451,1825.203789L1296.920898,1820.797751L1299.378275,1814.732057L1301.243591,1810.088951L1303.478971,1804.556754L1306.422093,1797.799595L1309.716074,1790.212641L1312.083131,1785.332508L1314.255341,1781.657598L1319.628494,1773.201384L1322.300148,1769.447471L1325.596871,1764.824241L1327.186926,1762.591659L1328.501774,1760.754228L1331.735059,1756.427379L1335.456219,1752.258599L1341.943215,1744.750869L1345.788049,1740.503088L1349.194932,1736.749244L1352.727106,1732.659539L1355.458019,1729.478663L1358.171968,1726.199009L1360.656566,1722.820576L1363.255269,1718.888958L1366.582345,1712.863127L1370.837380,1704.782620L1376.395275,1693.995497L1377.031296,1692.790346L1380.027178,1687.080708L1382.040068,1682.991118L1384.680324,1677.874204L1380.235004,1675.562707L1376.950885,1673.448777L1373.673184,1671.315093L1357.792877,1660.389880L1335.686982,1646.145717L1333.443594,1644.802306L1331.455192,1643.478653L1329.678550,1642.056221L1327.321214,1640.258426L1325.334468,1638.677949L1324.166848,1636.939425L1323.116484,1635.141636L1322.333707,1632.770927L1321.908051,1628.997555L1315.938434,1591.007463L1314.966012,1583.381884L1314.039673,1578.936938L1313.138570,1574.867352L1311.845971,1572.457214L1310.482854,1570.264386L1308.445378,1568.387643L1306.225305,1566.570168L1303.421864,1564.989757L1299.976119,1563.626653L1295.836161,1562.540121L1292.355218,1562.342570L1288.630457,1562.342570L1261.491477,1563.310571L1256.142972,1563.330326L1250.276261,1563.033999L1244.962099,1562.796938L1240.624010,1562.421591L1236.064676,1561.670897L1231.979547,1560.465836L1229.411889,1558.964450L1227.478466,1557.522331L1225.010166,1554.657850L1223.125256,1551.556315L1221.297898,1547.723851L1219.187975,1545.214975L1217.934303,1543.792622L1215.252450,1540.730615L1212.839340,1538.853903L1210.535402,1537.194497L1207.692363,1535.535092L1204.593291,1534.211521L1201.720033,1532.947214L1198.324166,1532.236042L1193.980936,1532.078004L1189.124406,1532.394081L1176.223734,1534.290540L1168.100043,1535.159751L1166.888848,1535.317790L1165.598871,1535.416564L1170.109448,1513.469108L1172.323084,1499.957039L1173.826544,1492.608413L1174.614336,1488.420499L1175.012895,1486.287038L1176.668908,1479.827407L1179.436166,1472.360339L1182.875538,1464.735271L1185.701070,1459.302923L1197.092017,1440.319469L1214.265503,1409.464380L1217.593981,1403.439601L1221.887194,1395.953102L1227.339887,1386.254279L1233.111821,1376.930817L1240.611842,1363.795091L1243.304729,1359.074154L1244.855850,1357.869231L1246.979481,1354.096444L1253.243675,1342.955904L1255.276847,1338.807848L1255.470483,1338.412796L1256.518031,1336.595556L1255.670370,1336.891845L1242.926959,1342.027529L1197.515207,1360.634630L1147.692320,1381.355505L1131.889604,1388.466633L1122.752011,1392.358012L1089.140156,1407.074220L1083.295724,1409.326106L1075.812559,1412.348380L1062.814573,1417.563295L1056.333109,1420.368294L1046.708966,1424.852350L1041.919342,1427.025245L1037.294276,1429.395679L1028.692366,1434.353847L1011.707320,1444.250469L995.200623,1453.831085L983.607139,1460.606685L972.536219,1466.276085L962.633191,1471.115831L959.075676,1472.814684L955.014137,1474.908620L951.526361,1478.405106L946.631359,1482.059631L943.668672,1482.178157L927.812764,1490.257649L924.836333,1491.877503L907.345059,1500.213846L891.535209,1508.352684L879.531333,1514.279046Z " data-cartodb-id="14" data-created-at="2013-08-22T04:08:48+0200" data-name="Turn Of River" data-updated-at="2013-08-22T04:08:48+0200"/><path d="M834.748119,2898.196533L858.210590,2891.949164L860.851303,2840.092917L865.635891,2825.305374L868.259573,2813.661261L871.556535,2812.613492L874.033359,2813.443799L877.165496,2812.198339L879.026313,2812.811184L879.199461,2815.104415L877.353364,2816.567339L875.308972,2818.643113L876.400991,2835.723857L874.117541,2851.974443L875.908217,2861.088282L877.220904,2867.790246L885.713808,2912.767225L886.249475,2918.184312L888.047858,2919.647324L890.833224,2918.816965L894.628342,2913.399877L897.634009,2910.473865L898.598263,2908.200279L902.103724,2893.827326L902.366187,2885.286646L904.293573,2875.085333L906.221029,2864.884081L912.495625,2854.682889L922.366365,2843.216505L934.730291,2833.489907L956.230751,2816.587109L1036.073588,2753.820851L1042.110341,2745.063409L1049.247494,2744.925030L1053.623951,2741.248104L1052.376516,2739.093350L1060.431124,2724.504351L1065.516589,2721.717036L1068.123802,2718.811117L1073.127171,2707.642152L1075.560905,2694.970901L1075.918388,2689.119621L1074.554639,2654.150727L1074.787812,2653.379799L1070.429150,2635.846206L1067.890068,2627.030058L1063.479496,2618.846500L1048.775452,2590.718281L1051.338397,2586.587048L1047.126191,2588.543947L1036.689535,2593.070518L1035.962470,2590.975247L1035.514585,2589.077647L1034.903187,2587.634681L1034.484342,2586.152183L1033.104070,2582.238394L1031.396519,2577.316520L1031.085787,2575.399168L1031.199130,2573.837614L1031.293278,2572.335362L1031.487644,2570.674979L1032.268220,2565.891503L1032.788157,2563.578835L1025.144076,2566.444962L1014.068702,2570.773811L1007.478211,2573.817848L1001.303330,2576.940956L986.726819,2583.503456L977.340949,2587.812580L963.773669,2592.872850L942.019651,2599.850513L937.444454,2601.313255L932.682415,2602.696932L925.718308,2605.128253L917.852570,2607.618878L911.389433,2609.714168L904.818988,2611.888528L899.571610,2613.509417L896.968890,2614.280328L889.542176,2616.929101L878.153433,2620.862735L870.272005,2623.452218L865.028154,2625.112651L862.245670,2625.883567L861.253777,2628.947468L855.789467,2640.274064L854.382395,2647.548426L853.918387,2650.849574L854.706489,2653.261194L853.398106,2664.370506L851.076126,2671.190315L847.192968,2679.097373L845.598826,2684.830013L840.377108,2703.688554L840.271014,2704.874632L839.818896,2709.856171L839.793757,2715.134246L841.800350,2752.357979L837.344636,2757.339655L832.017463,2764.812195L828.473422,2774.400025L828.208882,2786.478790L827.903427,2802.926605L829.265638,2807.908426L831.520295,2812.910031L832.513031,2818.326804L835.390145,2823.526132L835.318718,2827.282311L834.008882,2830.623339L831.073541,2831.967660L830.252706,2833.746910L831.434461,2839.994069L833.044709,2864.666613L834.748119,2898.196533Z " data-cartodb-id="17" data-created-at="2013-08-22T04:08:48+0200" data-name="South End" data-updated-at="2013-08-22T04:08:48+0200"/><path d="M522.423413,2659.151888L522.177838,2662.887943L517.850571,2760.245639L542.224096,2857.569267L556.898621,2965.001302L557.406849,2973.483063L559.790813,2986.017956L561.194426,2996.279238L563.136206,3001.340702L562.277780,3033.449710L574.050543,3032.421580L575.787174,3033.014732L575.189566,3035.367570L573.042194,3039.480102L563.846653,3053.004073L560.486373,3058.896129L560.170898,3061.387407L560.300967,3064.471851L563.030296,3064.471851L566.108505,3063.443702L567.253272,3065.361596L568.319198,3069.039212L571.673851,3069.632376L572.120126,3071.233921L571.731519,3074.911550L571.057275,3078.865998L575.673960,3080.408235L576.026405,3080.329146L577.939228,3078.154197L584.452845,3067.160858L591.063124,3053.696092L596.063383,3048.140176L613.740255,3039.064894L624.882001,3034.378982L630.324271,3034.378982L637.503186,3034.972135L641.060999,3032.915873L643.494654,3024.987426L646.168524,3015.002775L647.485949,3009.110869L650.721215,3003.100355L651.780017,2998.513398L651.355867,2994.974332L653.433609,2992.087724L655.951852,2991.830698L659.805958,2991.435273L663.574119,2989.082494L666.719859,2985.167795L667.129211,2982.083492L665.457995,2981.035622L662.089949,2980.383174L658.980535,2980.244776L655.739597,2982.735940L651.248750,2986.413380L648.756103,2986.136583L648.839268,2984.970083L651.080484,2981.174020L652.330423,2979.078280L656.098599,2976.725518L660.374805,2975.025205L666.872214,2973.581918L672.081336,2973.443521L674.411304,2972.000234L676.530244,2970.299926L678.007581,2967.551757L679.100489,2965.436263L681.185411,2961.264595L682.432564,2957.864001L684.293781,2951.201229L684.087259,2945.625873L685.699981,2936.195259L687.502790,2933.704161L689.932264,2932.003891L693.383445,2931.489856L696.285320,2931.865497L696.770518,2933.901867L696.437036,2938.468882L697.688900,2941.217005L697.960248,2943.055680L695.310461,2945.942205L692.604225,2956.934770L695.987730,2962.035661L697.198501,2962.688101L697.913968,2964.922218L697.306401,2966.345727L692.873897,2967.670383L691.901796,2969.766109L690.759807,2974.610013L689.125378,2981.431044L688.690483,2983.230220L688.428258,2984.950312L692.470625,2986.650634L694.934138,2987.421712L696.857606,2989.912886L694.485720,2992.799490L690.631611,2994.104395L686.844288,2996.061753L681.301857,2999.857850L678.758023,3001.558187L680.093164,3005.413609L679.133897,3008.379325L673.575841,3010.455329L671.243049,3010.593729L670.419516,3004.701839L669.825492,3003.001498L665.802278,3001.696587L655.479153,3004.306410L653.507324,3005.097267L652.260247,3009.407441L650.242209,3017.414903L648.877916,3018.146451L648.241250,3021.428534L649.627581,3024.216332L648.421877,3037.898358L645.254240,3043.750818L655.423334,3046.973634L655.418410,3049.010141L651.106047,3053.399512L658.138676,3055.455798L661.338569,3060.418576L661.328809,3065.401140L659.792112,3072.123670L654.611831,3096.127269L663.974733,3099.923586L671.750439,3096.700671L689.136605,3017.118330L700.166003,3012.729050L718.080079,3008.932926L723.363184,3039.440558L725.495654,3040.528008L727.016267,3040.172115L732.238805,3035.545516L734.170680,3030.582810L735.949699,3022.100768L737.492894,3015.358662L742.301206,3010.396014L749.158135,3008.043210L755.519112,3007.173267L755.472144,3003.377154L753.418528,2997.801630L754.126190,2991.672528L764.882635,2980.244776L772.712313,2970.893057L772.840947,2966.503895L776.725586,2964.447715L785.065425,2962.411308L788.883259,2961.521617L791.068948,2959.564297L791.402567,2936.808148L793.099870,2920.497453L793.797427,2908.338671L791.965137,2903.949668L789.649499,2903.277479L788.435331,2900.311945L787.438637,2896.674229L789.322524,2892.720198L793.564727,2888.548706L794.281094,2886.334459L781.028671,2887.441582L779.779601,2886.453079L780.754932,2879.751043L781.472227,2874.907404L791.902362,2873.582820L790.889825,2856.205156L787.663648,2852.033752L787.741363,2849.167153L784.053339,2845.312080L784.154375,2843.888670L786.053067,2842.465261L791.293954,2842.682727L796.151014,2830.247720L797.451088,2825.522837L794.750675,2822.656282L793.946340,2816.606878L796.129327,2808.699193L800.868361,2804.508134L802.573345,2801.107849L806.646893,2774.380256L809.187004,2755.876780L815.946825,2711.714368L817.117737,2708.096817L832.318739,2706.218856L840.377108,2703.688554L845.598826,2684.830013L847.192968,2679.097373L851.076126,2671.190315L853.398106,2664.370506L854.706489,2653.261194L853.918387,2650.849574L854.382395,2647.548426L855.789467,2640.274064L861.253777,2628.947468L862.245670,2625.883567L855.560119,2627.959112L844.083233,2631.912538L836.054708,2634.502037L827.093232,2637.348514L820.085059,2639.562443L809.461545,2643.100783L796.250133,2647.667030L785.365818,2651.304223L770.673587,2656.305376L766.725007,2657.649562L759.133415,2660.100727L747.446157,2663.896086L742.315950,2665.457720L735.808024,2667.236800L729.282380,2668.818205L724.035031,2669.984492L714.228270,2671.605435L706.574477,2672.633350L700.767392,2673.206611L692.998633,2673.681034L687.747275,2673.799640L684.176926,2674.076387L677.228902,2674.135690L668.418861,2673.384520L652.547460,2671.427526L639.446251,2669.747281L629.236700,2668.422853L609.594806,2666.149584L592.924920,2664.034459L587.086906,2663.441433L578.068831,2662.373988L571.952336,2661.682125L550.375146,2659.329796L530.594447,2658.242585L522.423413,2659.151888Z " data-cartodb-id="18" data-created-at="2013-08-22T04:08:48+0200" data-name="Waterside" data-updated-at="2013-08-22T04:08:48+0200"/><path d="M1192.131872,2132.329852L1191.112038,2135.728833L1189.300589,2144.898208L1188.368580,2150.194334L1187.469031,2155.944997L1186.857258,2160.253067L1186.647812,2164.126385L1184.255790,2186.635280L1182.764569,2208.433020L1182.434924,2212.879555L1181.977448,2217.266814L1181.546065,2223.590810L1181.426656,2226.733054L1179.443394,2238.452291L1177.732009,2249.282280L1177.315214,2251.930499L1176.528604,2255.468052L1172.607944,2271.100563L1165.546234,2297.741371L1164.111776,2303.077487L1162.695579,2307.247574L1160.928807,2312.247739L1158.896404,2317.109573L1154.307232,2327.090210L1150.209882,2334.896886L1148.367930,2337.960275L1145.189592,2342.980292L1142.244412,2347.684100L1140.777979,2349.739549L1138.641252,2352.704144L1133.849632,2359.325092L1133.555163,2360.234238L1133.349470,2361.222442L1135.327293,2363.238379L1138.238554,2361.716544L1139.448230,2362.269939L1141.679924,2363.653426L1144.467019,2365.491489L1146.959489,2366.776157L1147.910591,2367.270261L1149.750467,2367.744601L1150.718751,2367.882950L1151.940056,2367.744601L1152.907834,2367.329554L1154.089551,2366.657573L1155.365939,2365.491489L1158.343225,2362.151354L1161.307711,2358.850754L1163.704336,2356.143081L1165.601994,2354.067860L1168.470969,2351.617126L1169.595244,2350.668455L1170.757084,2349.956953L1172.109277,2349.364034L1173.775448,2352.644853L1176.390540,2356.577890L1176.260671,2361.973477L1176.430151,2364.779980L1176.453761,2368.238705L1176.965399,2371.855550L1177.910969,2373.930792L1184.425870,2375.610752L1189.458864,2377.073306L1193.566353,2377.962698L1197.285892,2378.990440L1200.877574,2379.958891L1207.440692,2381.994614L1214.881150,2384.247747L1219.874419,2385.631252L1224.852183,2386.658998L1232.849217,2388.101798L1236.686179,2388.615672L1241.909736,2389.742243L1244.840079,2390.532819L1248.863426,2392.489497L1253.533848,2394.920524L1257.765273,2397.193438L1260.708143,2398.853656L1266.574158,2401.679983L1270.214496,2404.012200L1271.301941,2404.842312L1272.782098,2406.225832L1273.786067,2408.222057L1273.745753,2409.961344L1273.038070,2412.550513L1272.071667,2415.534979L1270.061801,2420.278512L1267.720234,2424.784881L1264.706012,2431.267747L1261.323874,2437.473929L1259.445044,2441.308332L1256.690961,2447.593609L1260.987292,2446.941362L1265.166379,2446.348411L1268.897871,2445.775225L1263.658313,2453.226660L1259.306568,2459.096911L1252.739433,2468.327279L1277.736229,2463.445258L1292.803925,2459.907284L1304.477549,2457.061098L1320.863085,2453.641728L1341.554860,2449.589881L1348.237818,2448.127266L1361.721534,2445.696165L1371.340981,2443.541777L1377.903140,2442.098932L1383.945255,2440.596793L1393.295579,2437.809933L1398.733199,2435.853204L1404.718623,2433.718593L1408.583894,2432.176932L1413.127693,2430.457388L1418.446119,2427.808898L1422.295158,2425.812651L1426.358794,2423.658288L1430.035170,2421.741104L1438.456793,2416.523214L1441.471095,2414.329333L1446.450822,2410.910046L1453.717988,2405.573601L1461.324194,2399.644236L1467.063020,2394.940288L1481.578212,2381.500506L1499.713398,2364.602103L1514.072479,2350.787039L1522.342795,2343.059347L1524.724202,2340.549337L1532.653438,2333.118147L1537.983946,2327.959812L1539.803131,2326.378717L1547.175874,2319.757895L1553.326392,2314.085748L1556.247715,2311.674597L1556.707719,2305.864132L1561.916219,2293.413200L1567.359667,2281.851701L1567.909230,2271.930611L1569.807713,2258.551064L1570.991817,2254.894928L1571.600344,2251.653819L1571.430139,2248.748684L1568.890490,2244.381109L1569.363922,2239.539240L1568.463676,2235.962194L1567.124410,2222.642209L1568.497270,2219.816172L1571.319995,2211.555474L1574.004623,2204.124832L1574.590473,2193.690367L1575.809695,2186.042417L1578.056398,2181.477378L1581.522959,2178.493311L1584.995801,2174.027102L1584.463313,2169.718999L1580.119518,2158.514028L1575.176854,2144.265836L1575.069025,2138.949966L1576.643884,2132.626275L1578.696206,2127.804476L1579.860554,2124.563602L1579.106828,2121.342496L1575.610642,2114.129611L1573.638172,2111.896586L1569.287521,2110.750433L1563.099664,2111.442077L1556.494513,2112.766082L1549.152938,2111.975631L1541.085103,2108.635981L1536.714305,2103.517830L1535.057635,2102.075265L1533.421668,2095.929557L1533.260025,2093.755839L1533.584578,2090.989293L1534.674418,2087.827531L1535.039611,2086.246653L1536.933166,2078.184193L1537.123498,2076.840454L1537.648791,2073.303262L1537.801594,2071.722396L1537.409697,2069.805598L1536.274601,2068.165453L1533.311990,2065.912727L1530.540142,2064.331868L1528.158222,2062.909096L1525.877439,2060.972547L1520.963804,2063.580960L1514.292173,2067.177415L1510.129463,2069.687034L1504.084221,2073.619435L1491.582085,2090.771922L1475.873620,2104.407083L1455.840829,2116.915955L1437.687029,2129.424915L1423.096250,2139.661382L1406.591484,2144.206551L1385.906011,2144.206551L1361.604073,2135.096464L1339.776041,2132.823890L1319.878163,2136.242633L1294.698299,2138.515211L1261.071030,2140.787792L1235.273780,2136.242633L1229.561097,2124.879785L1220.326348,2121.461064L1200.118797,2118.121396L1196.588121,2123.318634L1194.571581,2126.717597L1193.297862,2129.286585L1192.131872,2132.329852Z " data-cartodb-id="27" data-created-at="2013-08-22T04:08:48+0200" data-name="Glenbrook" data-updated-at="2013-08-22T04:08:48+0200"/><path d="M756.153002,2277.108543L757.739722,2263.590616L758.406689,2258.709167L762.454656,2251.159748L766.278096,2246.219046L768.419884,2243.946328L774.492833,2232.266580L779.117504,2221.476221L784.175506,2206.022015L785.585522,2200.310712L786.585435,2197.326613L787.973049,2194.658714L789.599626,2191.556052L791.129472,2188.651017L794.342915,2182.366671L796.872351,2175.924251L799.196671,2164.620432L800.141627,2158.731408L800.926818,2153.889775L801.624357,2150.629092L802.955247,2146.775564L804.653241,2142.092058L807.472118,2135.412648L810.078962,2129.286585L812.728495,2124.188136L814.684852,2121.026314L817.556448,2116.402160L822.563813,2108.062905L831.017342,2087.985619L834.933608,2078.678216L840.762779,2065.537273L818.343223,2062.118668L812.093109,2060.280923L809.616321,2058.798873L808.026000,2057.455148L804.873238,2053.522783L803.229105,2051.941935L801.995686,2051.210793L799.498411,2050.598215L791.432167,2049.373060L785.070608,2048.483835L781.813091,2049.056891L778.672504,2050.025159L773.469365,2052.416189L767.938482,2055.162914L761.079977,2058.779112L757.008384,2060.300684L753.039950,2061.604889L749.474868,2062.118668L744.786250,2062.217471L740.666935,2061.921061L736.865432,2061.249197L734.213747,2060.004274L732.513570,2058.344377L730.579232,2055.340759L728.573471,2051.902414L726.946094,2047.851498L715.978257,2048.167666L713.237386,2052.337147L711.053674,2055.241956L708.205843,2058.028207L704.633333,2060.933026L701.071415,2062.948617L704.942048,2067.236697L705.642998,2068.501387L706.464076,2070.655312L706.798178,2074.311064L706.315344,2077.966824L700.149107,2097.134984L696.033059,2109.426430L686.087864,2121.302973L680.003471,2129.385392L676.226089,2135.946210L674.688730,2140.234468L673.446471,2145.174871L665.108996,2185.508841L662.793722,2196.733746L659.251122,2207.662288L656.631899,2214.381498L654.094960,2220.191659L650.823037,2225.547301L639.531292,2241.278358L632.534554,2249.203229L619.152648,2264.124216L605.216351,2250.962120L600.293349,2244.776364L595.576938,2248.136037L590.533361,2250.942357L586.478703,2252.562910L580.521857,2253.649867L571.284346,2255.784258L562.308635,2258.472012L553.668067,2261.436453L549.876037,2262.246734L545.889137,2262.246734L540.495438,2262.503652L535.751713,2261.713134L532.589786,2261.436453L529.136709,2262.108393L559.863226,2366.954035L556.601047,2374.701597L558.090882,2374.642304L558.963320,2374.622540L559.881906,2374.662068L560.973830,2374.721361L562.153859,2374.760889L571.431591,2374.721361L575.559929,2374.839946L584.670492,2375.215467L604.255588,2376.144386L615.645838,2376.796607L624.106764,2377.765055L645.087633,2380.690169L650.505977,2381.164513L654.700349,2381.381920L661.944612,2381.717913L668.775512,2381.816735L671.596640,2381.935321L674.337391,2382.251550L678.298586,2382.785187L681.795850,2383.338588L684.602408,2384.208218L687.850819,2385.176671L689.704784,2385.809131L691.106299,2386.224182L692.211036,2386.243947L693.118363,2386.066067L693.952599,2385.710309L694.890617,2385.235964L695.543783,2384.682563L696.551131,2383.338588L704.716372,2371.400973L710.197655,2363.712718L716.071351,2355.569924L723.827536,2344.996208L725.570234,2342.189737L726.881690,2339.403034L730.744316,2331.062717L734.280369,2323.730385L737.533111,2317.524608L739.712413,2314.026457L740.194469,2313.295206L742.882110,2309.085578L744.956503,2306.516326L747.540130,2302.879853L749.597595,2298.749303L751.392072,2294.875686L753.855816,2286.970372L756.153002,2277.108543Z " data-cartodb-id="30" data-created-at="2013-08-22T04:08:48+0200" data-name="Palmers Hill" data-updated-at="2013-08-22T04:08:48+0200"/><path d="M693.639059,2002.837557L691.911196,2009.575742L690.454076,2016.234913L688.836282,2040.065861L687.619849,2048.049103L687.654903,2053.483261L688.001175,2054.985068L688.497050,2056.882089L689.089381,2058.028207L690.121891,2059.530017L691.933871,2060.794701L693.915010,2061.940821L695.507235,2062.573164L697.569126,2063.067182L701.071415,2062.948617L704.633333,2060.933026L708.205843,2058.028207L711.053674,2055.241956L713.237386,2052.337147L715.978257,2048.167666L726.946094,2047.851498L728.573471,2051.902414L730.579232,2055.340759L732.513570,2058.344377L734.213747,2060.004274L736.865432,2061.249197L740.666935,2061.921061L744.786250,2062.217471L749.474868,2062.118668L753.039950,2061.604889L757.008384,2060.300684L761.079977,2058.779112L767.938482,2055.162914L773.469365,2052.416189L778.672504,2050.025159L781.813091,2049.056891L785.070608,2048.483835L791.432167,2049.373060L799.498411,2050.598215L801.995686,2051.210793L803.229105,2051.941935L804.873238,2053.522783L808.026000,2057.455148L809.616321,2058.798873L812.093109,2060.280923L818.343223,2062.118668L840.762779,2065.537273L834.933608,2078.678216L831.017342,2087.985619L822.563813,2108.062905L817.556448,2116.402160L814.684852,2121.026314L812.728495,2124.188136L810.078962,2129.286585L807.472118,2135.412648L804.653241,2142.092058L802.955247,2146.775564L801.624357,2150.629092L800.926818,2153.889775L800.141627,2158.731408L799.196671,2164.620432L796.872351,2175.924251L794.342915,2182.366671L791.129472,2188.651017L789.599626,2191.556052L787.973049,2194.658714L786.585435,2197.326613L785.585522,2200.310712L784.175506,2206.022015L779.117504,2221.476221L774.492833,2232.266580L768.419884,2243.946328L778.742632,2243.353446L805.475105,2194.046086L811.639085,2180.271894L816.019859,2172.604241L822.191209,2164.403051L821.903697,2162.920913L818.943683,2162.525676L817.330548,2162.209487L817.227231,2160.411161L817.153101,2155.095242L818.946052,2148.455306L822.588963,2142.862761L825.850470,2139.404482L828.874593,2136.124064L831.603541,2131.183686L833.629144,2124.128851L835.655130,2117.627362L839.774725,2109.959983L843.281261,2104.486128L851.435263,2094.605565L857.975606,2085.317887L860.502198,2080.397414L870.123225,2055.913818L872.845333,2051.902414L875.888130,2047.456287L873.860166,2045.144305L870.631454,2041.093405L868.691914,2034.276057L866.049546,2024.889896L867.427479,2020.186955L868.719883,2015.898990L866.970187,2007.085970L868.262654,2001.790275L872.294278,1995.605398L877.524707,1989.855260L883.701874,1982.445317L885.561798,1976.458105L888.589839,1969.186536L891.547914,1965.254368L893.892426,1962.962254L896.093855,1958.239719L899.950483,1949.723380L900.929167,1944.388339L900.365310,1939.527538L898.593705,1934.864343L897.810729,1930.477790L900.231619,1926.842096L901.821721,1924.609310L903.827956,1922.554359L909.093535,1920.222783L914.361213,1919.748564L917.535137,1917.871450L920.363579,1913.583734L923.098592,1907.972177L924.136707,1902.202567L922.778914,1896.314423L922.213417,1890.149675L921.131378,1882.404254L919.928167,1869.995843L917.870984,1857.903655L894.147540,1806.236169L889.718481,1803.924505L888.860838,1796.950013L888.380189,1795.863338L886.178740,1796.001642L885.676992,1794.677876L884.509540,1793.492414L882.337212,1792.030346L879.706407,1790.923916L876.597890,1790.232398L873.981373,1789.837245L870.268365,1789.145728L854.797600,1787.229238L849.402018,1785.530084L846.901312,1784.324870L845.300212,1782.764022L836.026219,1773.280414L832.825925,1770.455099L826.188777,1765.634293L800.454614,1795.448426L794.201667,1803.944262L787.162499,1814.712299L787.186707,1815.443343L787.336133,1821.528797L788.660351,1830.992906L788.691648,1833.363880L788.201436,1837.493335L787.542468,1841.286910L785.883212,1846.048649L782.793239,1855.018929L779.407899,1862.230752L768.622179,1881.930045L762.476771,1891.354961L757.774469,1896.986224L755.968196,1900.187160L752.993225,1908.703260L750.695318,1913.722048L747.149697,1920.874833L741.135047,1931.307678L733.446422,1943.123739L726.211279,1953.793829L713.834525,1969.838605L704.392361,1982.326758L700.321321,1988.531348L696.665450,1995.269479L693.639059,2002.837557Z " data-cartodb-id="31" data-created-at="2013-08-22T04:08:48+0200" data-name="Roxbury" data-updated-at="2013-08-22T04:08:48+0200"/><path d="M537.095680,2592.042649L526.673685,2634.620640L522.423413,2659.151888L530.594447,2658.242585L550.375146,2659.329796L571.952336,2661.682125L578.068831,2662.373988L587.086906,2663.441433L592.924920,2664.034459L609.594806,2666.149584L629.236700,2668.422853L639.446251,2669.747281L652.547460,2671.427526L668.418861,2673.384520L677.228902,2674.135690L684.176926,2674.076387L687.747275,2673.799640L692.998633,2673.681034L700.767392,2673.206611L706.574477,2672.633350L714.228270,2671.605435L724.035031,2669.984492L729.282380,2668.818205L735.808024,2667.236800L742.315950,2665.457720L747.446157,2663.896086L759.133415,2660.100727L766.725007,2657.649562L770.673587,2656.305376L785.365818,2651.304223L796.250133,2647.667030L809.461545,2643.100783L820.085059,2639.562443L827.093232,2637.348514L836.054708,2634.502037L844.083233,2631.912538L855.560119,2627.959112L862.245670,2625.883567L862.729275,2623.985928L865.985101,2611.354821L867.820310,2603.112036L867.849165,2598.783106L867.279882,2596.806430L866.520526,2590.975247L865.053050,2589.552047L864.373871,2586.804482L864.746252,2576.367727L865.763040,2573.580650L868.512361,2567.057721L870.835073,2561.701031L874.466312,2556.996645L879.276020,2553.043389L880.477631,2550.038921L881.008036,2548.754117L882.359850,2547.153055L883.445181,2543.397483L884.725253,2539.444258L886.984601,2532.466839L887.795750,2526.378914L888.377714,2521.654858L887.973902,2518.057468L887.096833,2516.930815L885.880677,2516.397137L885.407766,2515.586738L885.193068,2513.827580L885.833969,2511.495216L887.948712,2508.194333L891.061534,2503.173841L893.442417,2498.647504L895.686860,2494.239772L903.030512,2485.187156L905.421417,2482.597880L908.227084,2480.443446L912.239102,2478.348312L916.597611,2474.830073L924.921340,2470.975830L930.683794,2467.259954L934.160424,2464.295164L937.174467,2461.547796L939.467498,2458.503956L941.581949,2454.195151L942.436014,2451.961693L936.420488,2452.119814L929.209234,2452.337230L921.787742,2452.396525L912.927095,2451.803572L905.797038,2451.467565L904.102671,2451.250149L897.840857,2450.756022L888.737974,2450.103774L879.978248,2449.451526L875.385199,2449.253875L871.050062,2449.016694L865.561994,2448.403977L859.519021,2447.890085L854.685251,2447.376194L848.974151,2446.644887L844.696636,2446.229821L840.016339,2445.696165L835.460366,2445.182274L830.341742,2444.589323L824.998741,2443.680132L816.322453,2442.316347L809.964334,2441.110682L805.791948,2440.774677L802.104717,2440.656087L798.904837,2440.596793L795.666544,2440.656087L792.725916,2440.754912L790.733710,2440.952562L785.150603,2441.743162L783.423381,2441.980342L777.190186,2442.810472L772.733233,2443.403422L766.409063,2444.312613L757.227299,2445.518279L753.677192,2445.379924L749.393957,2445.083449L743.600701,2443.798722L739.893976,2442.731412L731.301342,2440.201493L727.650051,2439.114420L721.660260,2437.276279L719.153482,2436.288032L716.188898,2434.291776L712.378411,2428.500667L710.507995,2426.405595L709.234910,2424.686057L708.271227,2423.776876L706.921573,2423.302521L704.205928,2422.353812L702.670128,2421.899222L698.347588,2420.614513L693.400327,2418.282274L689.398826,2415.653567L688.797514,2414.685097L688.724170,2413.499217L689.302201,2411.008870L690.373493,2406.542066L692.463135,2398.478130L693.658100,2392.469732L694.592566,2390.493290L695.823123,2385.888188L696.551131,2383.338588L695.543783,2384.682563L694.890617,2385.235964L693.952599,2385.710309L693.118363,2386.066067L692.211036,2386.243947L691.106299,2386.224182L689.704784,2385.809131L687.850819,2385.176671L684.602408,2384.208218L681.795850,2383.338588L678.298586,2382.785187L674.337391,2382.251550L671.596640,2381.935321L668.775512,2381.816735L661.944612,2381.717913L654.700349,2381.381920L650.505977,2381.164513L645.087633,2380.690169L624.106764,2377.765055L615.645838,2376.796607L604.255588,2376.144386L584.670492,2375.215467L575.559929,2374.839946L571.431591,2374.721361L562.153859,2374.760889L560.973830,2374.721361L559.881906,2374.662068L553.445963,2420.950514L547.953016,2456.112370L545.501968,2473.110487L548.052651,2472.853537L556.129062,2476.371772L549.102198,2508.253630L547.356568,2532.308710L537.095680,2592.042649Z " data-cartodb-id="34" data-created-at="2013-08-22T04:08:48+0200" data-name="West Side" data-updated-at="2013-08-22T04:08:48+0200"/><path d="M756.153002,2277.108543L753.855816,2286.970372L751.392072,2294.875686L749.597595,2298.749303L747.540130,2302.879853L744.956503,2306.516326L742.882110,2309.085578L740.194469,2313.295206L739.712413,2314.026457L737.533111,2317.524608L734.280369,2323.730385L730.744316,2331.062717L726.881690,2339.403034L725.570234,2342.189737L723.827536,2344.996208L716.071351,2355.569924L710.197655,2363.712718L704.716372,2371.400973L696.551131,2383.338588L695.823123,2385.888188L694.592566,2390.493290L693.658100,2392.469732L692.463135,2398.478130L690.373493,2406.542066L689.302201,2411.008870L688.724170,2413.499217L688.797514,2414.685097L689.398826,2415.653567L693.400327,2418.282274L698.347588,2420.614513L702.670128,2421.899222L704.205928,2422.353812L706.921573,2423.302521L708.271227,2423.776876L709.234910,2424.686057L710.507995,2426.405595L712.378411,2428.500667L716.188898,2434.291776L719.153482,2436.288032L721.660260,2437.276279L727.650051,2439.114420L731.301342,2440.201493L739.893976,2442.731412L743.600701,2443.798722L749.393957,2445.083449L753.677192,2445.379924L757.227299,2445.518279L766.409063,2444.312613L772.733233,2443.403422L777.190186,2442.810472L783.423381,2441.980342L785.150603,2441.743162L790.733710,2440.952562L792.725916,2440.754912L795.666544,2440.656087L798.904837,2440.596793L802.104717,2440.656087L805.791948,2440.774677L809.964334,2441.110682L816.322453,2442.316347L824.998741,2443.680132L830.341742,2444.589323L835.460366,2445.182274L840.016339,2445.696165L844.696636,2446.229821L848.974151,2446.644887L854.685251,2447.376194L859.519021,2447.890085L865.561994,2448.403977L871.050062,2449.016694L875.385199,2449.253875L879.978248,2449.451526L888.737974,2450.103774L897.840857,2450.756022L904.102671,2451.250149L905.797038,2451.467565L912.927095,2451.803572L921.787742,2452.396525L929.209234,2452.337230L936.420488,2452.119814L942.436014,2451.961693L943.153796,2449.392231L943.367723,2447.218073L942.901418,2445.933345L940.207229,2440.478203L939.246844,2438.145937L937.986606,2435.932264L937.324904,2434.746369L935.997453,2433.698828L934.300230,2433.540709L930.024402,2434.331305L925.491177,2433.797653L921.799067,2433.441885L920.076566,2434.370835L917.501187,2432.433875L915.457330,2428.401843L911.769941,2419.606511L910.509219,2418.756627L910.822883,2412.491219L909.601434,2411.166987L908.610338,2407.668648L908.779722,2405.178309L909.722242,2400.553404L913.181524,2388.259913L914.456633,2383.516467L915.674928,2373.752914L915.995947,2369.029271L916.966858,2364.720688L917.903243,2363.040738L919.117413,2361.360791L920.524798,2359.740137L925.049485,2355.154880L929.793869,2350.194120L931.884212,2348.079378L939.717958,2342.308320L945.727002,2338.790356L956.144015,2332.762399L964.910064,2328.098158L967.714506,2325.746279L969.358601,2323.848967L970.035102,2321.912130L970.320776,2320.172931L970.142406,2314.065984L969.524184,2306.694197L967.767483,2297.187997L963.027068,2287.662086L956.140956,2274.420760L952.388196,2266.436486L947.845387,2261.495741L936.257588,2254.697299L928.109904,2251.653819L921.822937,2249.776350L917.716879,2248.076749L923.942891,2244.242769L926.836150,2243.432497L934.843782,2241.159782L979.530078,2228.511686L962.956082,2212.444782L957.692624,2207.207754L956.544511,2206.061539L951.893779,2201.555735L949.180965,2198.532109L947.496894,2195.409678L945.057798,2190.785328L942.701731,2186.358611L941.052858,2182.623577L937.793064,2173.473767L937.001070,2170.825666L937.414664,2168.138046L938.698308,2164.580908L947.099055,2146.123430L949.662362,2139.878760L951.653545,2134.088626L949.463892,2132.072953L948.168444,2130.373466L947.395203,2128.575173L946.289332,2125.887617L945.282153,2123.298873L944.460746,2120.137053L943.650777,2115.730276L943.101850,2114.248178L941.253381,2107.450307L937.989536,2091.107859L936.415388,2083.262748L934.211323,2073.026610L932.435730,2063.837850L930.752212,2056.229988L928.959860,2049.965877L927.868933,2047.535329L927.281299,2044.610771L924.934002,2030.383264L924.180772,2026.609042L923.976655,2021.846815L923.912556,2017.005560L924.258544,2011.907437L924.974260,2005.366843L925.492013,1999.537634L926.359935,1994.795240L926.945626,1990.369018L928.576112,1982.267479L933.020547,1959.543849L935.274694,1949.822177L937.238282,1941.147803L939.005512,1932.927935L939.929068,1928.165962L940.678473,1921.724475L940.603040,1914.551927L940.230368,1911.469519L939.630235,1908.584706L938.605040,1905.146647L936.545660,1898.902833L933.436439,1889.952088L932.236005,1887.205621L930.201637,1881.791735L928.891010,1879.183591L927.500327,1876.318589L926.112021,1872.287836L924.793120,1869.403087L922.876130,1866.498584L920.533221,1862.388820L917.870984,1857.903655L919.928167,1869.995843L921.131378,1882.404254L922.213417,1890.149675L922.778914,1896.314423L924.136707,1902.202567L923.098592,1907.972177L920.363579,1913.583734L917.535137,1917.871450L914.361213,1919.748564L909.093535,1920.222783L903.827956,1922.554359L901.821721,1924.609310L900.231619,1926.842096L897.810729,1930.477790L898.593705,1934.864343L900.365310,1939.527538L900.929167,1944.388339L899.950483,1949.723380L896.093855,1958.239719L893.892426,1962.962254L891.547914,1965.254368L888.589839,1969.186536L885.561798,1976.458105L883.701874,1982.445317L877.524707,1989.855260L872.294278,1995.605398L868.262654,2001.790275L866.970187,2007.085970L868.719883,2015.898990L867.427479,2020.186955L866.049546,2024.889896L868.691914,2034.276057L870.631454,2041.093405L873.860166,2045.144305L875.888130,2047.456287L872.845333,2051.902414L870.123225,2055.913818L860.502198,2080.397414L857.975606,2085.317887L851.435263,2094.605565L843.281261,2104.486128L839.774725,2109.959983L835.655130,2117.627362L833.629144,2124.128851L831.603541,2131.183686L828.874593,2136.124064L825.850470,2139.404482L822.588963,2142.862761L818.946052,2148.455306L817.153101,2155.095242L817.227231,2160.411161L817.330548,2162.209487L818.943683,2162.525676L821.903697,2162.920913L822.191209,2164.403051L816.019859,2172.604241L811.639085,2180.271894L805.475105,2194.046086L778.742632,2243.353446L768.419884,2243.946328L766.278096,2246.219046L762.454656,2251.159748L758.406689,2258.709167L757.739722,2263.590616L756.153002,2277.108543Z " data-cartodb-id="39" data-created-at="2013-08-22T04:08:48+0200" data-name="Ridgeway" data-updated-at="2013-08-22T04:08:48+0200"/><path d="M1200.118797,2118.121396L1220.326348,2121.461064L1229.561097,2124.879785L1235.273780,2136.242633L1261.071030,2140.787792L1294.698299,2138.515211L1319.878163,2136.242633L1339.776041,2132.823890L1361.604073,2135.096464L1385.906011,2144.206551L1406.591484,2144.206551L1423.096250,2139.661382L1437.687029,2129.424915L1455.840829,2116.915955L1475.873620,2104.407083L1491.582085,2090.771922L1504.084221,2073.619435L1510.129463,2069.687034L1514.292173,2067.177415L1520.963804,2063.580960L1525.877439,2060.972547L1521.167948,2057.455148L1516.887368,2050.143722L1514.838423,2036.904191L1514.235494,2025.858151L1512.371976,2010.484708L1513.744894,2003.173477L1517.093196,2000.051394L1520.547097,1996.099397L1520.279994,1992.285729L1518.605824,1988.175671L1517.088634,1981.615405L1513.755957,1969.818845L1513.206477,1966.775859L1518.523082,1957.884047L1524.730135,1955.670981L1529.897546,1952.884893L1534.920638,1951.501730L1541.798160,1943.439889L1547.372007,1930.932252L1550.858840,1922.040621L1553.058811,1916.211688L1556.352903,1911.291688L1561.586977,1908.703260L1566.213937,1905.719656L1571.316383,1900.009330L1573.122797,1895.445034L1572.246731,1888.924632L1566.234591,1888.470180L1562.821356,1886.197925L1561.452118,1881.198974L1564.402487,1875.172590L1569.442265,1869.857534L1574.016427,1867.288925L1539.785891,1864.423942L1535.908321,1864.088048L1527.859399,1862.961815L1527.676898,1865.036455L1516.250480,1863.594086L1504.264596,1858.535924L1498.431939,1858.535924L1490.887963,1858.674233L1483.029396,1858.674233L1460.722628,1859.346019L1433.905284,1859.820222L1420.733973,1858.871817L1418.153842,1858.061722L1416.562311,1856.520567L1415.655694,1854.781829L1414.868886,1852.371309L1414.100028,1850.711608L1413.353595,1848.478918L1411.846973,1846.424056L1409.628214,1843.894998L1406.917084,1841.524009L1404.396890,1839.370364L1401.368625,1837.473577L1390.938691,1833.462671L1379.188726,1854.683037L1354.191510,1885.368059L1336.983877,1897.875372L1321.005166,1897.875372L1303.884357,1895.603105L1280.720706,1893.172770L1280.199496,1894.931305L1275.293691,1908.347598L1273.832935,1912.852650L1271.739498,1918.049282L1270.161851,1923.166892L1268.962854,1927.217521L1264.066701,1943.578204L1257.504450,1964.977734L1253.341065,1976.912579L1248.572514,1992.226449L1246.088717,2000.644194L1240.586436,2019.633668L1239.531198,2023.644999L1238.795315,2027.024008L1237.473123,2033.169475L1236.116100,2042.950890L1234.428456,2052.139541L1233.625443,2056.229988L1232.849246,2059.431214L1232.247561,2061.842018L1231.280672,2064.371389L1228.725764,2069.884641L1228.170368,2070.892442L1214.357775,2094.151061L1209.422982,2102.470489L1206.653399,2107.134128L1200.118797,2118.121396Z " data-cartodb-id="40" data-created-at="2013-08-22T04:08:48+0200" data-name="Belltown" data-updated-at="2013-08-22T04:08:48+0200"/><path d="M921.620186,2897.504576L935.924889,2897.741818L959.556222,2897.741818L969.387382,2892.660888L973.032490,2891.395600L977.723519,2890.130313L980.286467,2888.825487L982.791880,2885.879747L984.704726,2881.431492L986.788855,2875.342343L991.311602,2868.383341L993.006999,2866.426127L996.237179,2863.816512L999.667680,2863.164109L1005.631263,2862.057001L1010.115464,2862.491936L1010.964550,2862.847792L1019.572056,2861.246440L1029.478426,2859.368313L1044.110596,2856.521472L1054.563351,2854.722428L1067.448989,2852.172140L1077.734757,2849.878860L1077.200734,2835.565701L1079.556339,2829.041786L1080.521326,2826.412458L1083.743154,2818.524497L1086.942202,2812.475108L1092.764826,2800.336855L1096.219736,2793.951456L1100.035680,2786.399714L1108.779994,2788.416145L1116.199224,2789.780202L1122.262774,2791.243105L1130.220600,2792.508319L1137.327193,2794.485219L1143.591870,2795.275979L1150.566346,2796.600504L1158.090771,2798.043644L1162.851986,2798.834406L1167.656940,2812.119262L1181.298674,2799.249556L1189.463551,2791.539639L1186.289817,2786.043874L1183.275374,2778.136328L1185.152166,2771.375405L1188.330540,2767.006518L1192.530633,2762.914404L1213.490470,2734.447788L1210.349544,2730.770884L1198.850609,2721.460050L1193.852179,2713.019061L1197.269461,2708.215425L1201.016347,2704.261825L1204.159034,2703.135051L1212.359593,2704.558345L1217.753476,2707.938672L1224.413050,2716.952912L1226.843406,2720.906541L1231.030350,2722.310082L1240.021113,2723.160114L1242.870151,2724.860179L1241.835186,2731.897677L1241.421796,2741.762082L1244.317018,2759.533969L1237.191817,2762.262039L1233.720201,2762.637643L1231.343733,2757.557109L1228.047420,2747.692614L1220.731105,2737.828174L1217.809377,2739.231728L1216.130166,2743.462166L1214.258579,2757.833869L1211.424743,2763.764456L1204.483475,2767.994953L1202.679303,2771.652167L1203.705114,2776.159447L1205.866113,2788.574296L1243.687705,2773.905806L1268.904268,2768.548477L1282.900830,2768.271715L1299.477956,2770.525349L1305.982069,2770.525349L1328.146093,2768.845008L1331.126025,2768.271715L1344.092317,2769.260151L1355.186391,2771.237024L1367.235434,2776.021066L1381.339268,2770.663730L1387.174177,2780.765583L1389.014527,2786.241563L1390.246642,2789.404592L1392.751246,2789.542974L1402.469067,2788.297531L1406.992279,2788.712679L1409.027267,2790.353501L1411.232172,2795.157365L1413.839102,2795.434131L1418.853212,2793.220003L1423.124775,2789.562743L1423.657536,2785.035660L1425.019500,2780.824890L1426.537759,2775.171008L1429.106199,2770.110206L1451.188145,2743.877303L1457.192708,2734.862923L1465.831187,2724.425278L1466.246160,2720.768164L1465.589731,2714.462131L1467.460556,2711.457383L1472.949299,2708.432873L1488.894011,2699.102391L1496.810534,2696.908153L1504.900386,2696.097670L1510.004763,2691.432455L1511.824477,2686.767254L1511.961058,2680.738092L1508.377591,2671.407759L1507.484165,2662.097243L1508.283592,2659.626308L1514.680949,2659.349563L1518.528970,2660.436774L1521.325320,2664.825159L1524.421695,2664.548414L1547.725624,2608.330485L1552.072507,2606.966571L1559.588125,2597.122698L1564.310487,2591.568248L1566.331334,2588.959047L1567.192622,2586.903315L1564.612320,2584.827819L1563.576552,2583.483689L1563.201785,2579.490840L1568.628487,2571.860966L1573.990700,2569.884320L1580.739711,2568.520436L1587.931262,2560.890610L1590.941892,2557.747764L1592.068097,2550.177284L1587.586427,2543.575378L1584.910210,2542.251047L1576.392845,2543.575378L1572.545561,2543.950935L1570.247233,2543.377717L1569.329731,2539.800048L1568.931253,2533.356310L1570.565270,2523.157067L1579.266243,2495.010630L1580.461222,2490.662204L1581.817865,2488.389168L1597.779836,2480.067903L1599.975489,2478.130892L1600.559266,2475.166084L1597.965943,2467.477372L1595.412797,2465.975211L1592.645522,2466.093802L1588.256443,2465.164835L1589.329215,2457.357576L1588.582891,2455.321764L1587.358881,2450.874612L1586.102568,2440.873502L1588.607560,2434.094127L1589.452106,2431.485161L1587.524131,2423.559464L1573.115963,2401.640454L1571.649025,2397.944489L1567.132855,2394.228768L1561.009837,2386.896171L1558.505514,2381.105220L1558.589046,2373.831971L1563.427148,2357.526563L1565.979654,2349.996481L1570.131843,2346.004167L1567.780574,2337.268542L1566.909728,2334.205154L1562.705490,2328.770124L1560.037665,2324.343058L1556.727831,2314.481019L1556.247715,2311.674597L1553.326392,2314.085748L1547.175874,2319.757895L1539.803131,2326.378717L1537.983946,2327.959812L1532.653438,2333.118147L1524.724202,2340.549337L1522.342795,2343.059347L1514.072479,2350.787039L1499.713398,2364.602103L1481.578212,2381.500506L1467.063020,2394.940288L1461.324194,2399.644236L1453.717988,2405.573601L1446.450822,2410.910046L1441.471095,2414.329333L1438.456793,2416.523214L1430.035170,2421.741104L1426.358794,2423.658288L1422.295158,2425.812651L1418.446119,2427.808898L1413.127693,2430.457388L1408.583894,2432.176932L1404.718623,2433.718593L1398.733199,2435.853204L1393.295579,2437.809933L1383.945255,2440.596793L1377.903140,2442.098932L1371.340981,2443.541777L1361.721534,2445.696165L1348.237818,2448.127266L1341.554860,2449.589881L1320.863085,2453.641728L1304.477549,2457.061098L1292.803925,2459.907284L1277.736229,2463.445258L1252.739433,2468.327279L1237.756249,2471.805974L1223.641398,2474.671950L1212.555398,2476.964734L1205.158970,2478.763385L1201.301634,2479.573768L1190.689006,2483.684980L1181.531378,2487.895030L1173.880073,2491.591185L1165.651684,2495.959379L1153.405024,2502.442510L1145.959495,2507.067686L1137.622182,2512.226550L1133.978263,2514.598446L1129.540607,2517.504024L1128.604029,2518.176063L1122.511363,2522.307133L1118.534911,2524.797639L1114.227295,2527.604404L1109.110403,2530.589067L1105.666230,2532.545903L1099.340674,2536.084024L1092.543399,2539.464024L1089.029631,2541.282507L1084.225494,2543.654443L1079.142874,2545.927552L1073.258055,2548.457624L1066.301012,2551.422557L1060.848253,2553.577078L1049.978378,2557.372204L1039.191569,2561.365003L1032.788157,2563.578835L1032.268220,2565.891503L1031.487644,2570.674979L1031.293278,2572.335362L1031.199130,2573.837614L1031.085787,2575.399168L1031.396519,2577.316520L1033.104070,2582.238394L1034.484342,2586.152183L1034.903187,2587.634681L1035.514585,2589.077647L1035.962470,2590.975247L1036.689535,2593.070518L1047.126191,2588.543947L1051.338397,2586.587048L1048.775452,2590.718281L1056.544632,2587.516081L1076.509919,2626.298676L1078.426576,2635.371793L1079.125266,2641.796143L1079.363433,2644.998443L1079.718470,2646.224016L1079.978233,2647.844936L1083.038492,2664.291436L1084.403171,2670.122865L1088.047337,2670.122865L1088.422143,2687.142841L1086.512047,2717.031985L1086.532169,2721.262368L1085.876346,2727.884718L1086.071554,2729.604556L1090.755863,2730.632506L1091.567163,2731.660457L1080.606520,2748.463584L1078.746195,2758.506002L1074.296116,2759.632812L1068.775969,2761.036384L1064.249208,2761.491062L1057.098034,2759.197903L1054.538085,2758.624613L1051.638914,2761.372450L1052.270392,2763.309777L1051.833911,2765.820397L1045.505018,2777.602570L1040.611186,2783.434380L1038.220152,2785.015891L1034.310947,2793.259541L1032.129073,2813.186800L1027.460823,2814.432261L1025.221943,2814.432261L1022.917043,2813.424030L1022.286988,2810.320265L1022.631047,2807.690965L1021.814937,2803.242911L1015.275016,2796.383044L1012.632450,2797.984336L1008.135769,2804.508134L1004.130519,2815.321877L1000.733196,2832.995671L998.723365,2842.643187L997.692907,2847.091343L995.427597,2850.254483L990.757103,2853.931641L982.967402,2856.086538L968.660394,2865.101549L965.101182,2868.778738L961.894247,2878.288065L955.519199,2880.818622L951.594149,2881.332642L948.723584,2880.304602L949.663953,2869.668382L948.714862,2864.468915L948.204099,2861.602296L945.449374,2860.771966L943.020696,2862.116310L939.577192,2867.810016L930.879013,2880.502302L928.421110,2885.069175L921.620186,2897.504576Z M1524.346598,2679.631101L1523.778057,2685.126529L1525.490868,2697.461654L1527.950659,2696.374420L1536.173499,2686.767254L1546.645082,2678.543878L1556.260386,2675.796172L1560.060826,2677.990383L1563.986275,2683.485806L1564.023167,2688.170766L1566.277584,2690.345225L1569.462081,2689.139389L1572.476080,2685.126529L1576.764075,2676.922928L1577.365229,2672.791491L1581.308647,2666.208887L1580.294109,2663.737946L1572.741581,2660.160029L1569.808018,2657.155376L1571.937610,2650.572831L1576.069399,2644.267053L1580.985532,2639.325236L1588.018911,2635.213656L1599.063754,2630.825345L1617.404659,2626.160306L1648.085473,2619.063937L1651.300530,2617.107004L1650.399677,2615.901218L1649.470439,2613.924523L1647.940941,2609.813002L1648.073215,2607.282841L1648.623220,2605.582890L1651.566903,2603.151569L1657.233982,2599.020308L1664.304922,2596.055293L1666.204178,2593.821653L1665.528625,2591.667082L1663.839191,2589.868313L1660.668321,2589.314847L1654.534356,2594.889056L1647.128726,2598.585439L1643.132981,2597.854068L1632.386397,2593.643752L1627.502637,2591.667082L1627.325916,2588.879980L1629.026998,2586.349849L1629.259488,2584.116221L1629.359845,2581.684929L1625.315004,2582.317460L1619.341870,2583.404623L1614.133684,2578.542046L1594.583955,2563.460237L1592.606774,2562.550984L1590.579689,2563.361405L1588.885687,2565.515941L1586.513028,2569.212261L1584.270574,2570.991242L1584.602751,2574.509675L1584.826204,2578.364147L1584.737628,2583.839488L1582.714529,2587.970714L1576.733802,2594.889056L1574.116850,2597.775001L1573.298313,2598.486605L1571.401254,2599.198209L1566.841239,2600.463283L1563.306016,2598.308704L1560.795861,2598.288937L1555.355766,2605.859626L1554.016280,2608.686289L1559.772313,2613.825688L1560.221973,2615.011705L1560.125976,2616.217490L1559.454454,2617.838383L1550.171527,2635.114820L1548.895389,2636.735730L1547.632091,2637.407815L1544.978267,2639.700814L1542.861456,2644.425191L1539.302290,2650.375157L1537.159905,2655.633284L1534.710563,2661.840265L1530.809514,2673.443823L1528.974265,2674.115922L1526.988376,2675.203142L1524.346598,2679.631101Z M1418.047156,2819.157114L1418.165894,2820.659581L1422.657292,2822.992360L1423.640133,2826.017071L1425.128187,2829.298789L1424.831332,2831.631580L1425.669894,2833.687602L1429.380247,2832.877054L1433.055853,2833.134057L1435.176732,2832.185124L1437.137897,2833.549216L1439.022376,2835.605240L1441.850341,2836.158785L1445.756047,2834.794691L1449.362461,2840.824389L1452.103694,2840.686003L1452.148341,2839.183519L1450.632028,2838.768359L1449.544136,2837.938040L1450.030029,2836.435558L1448.795060,2835.605240L1448.407769,2834.933078L1447.012902,2833.687602L1446.894136,2832.185124L1446.239664,2831.176883L1444.554762,2827.796315L1444.246862,2824.099443L1445.269830,2820.936351L1447.367861,2818.188419L1448.474036,2816.132416L1447.028044,2815.045107L1444.760086,2815.994031L1441.548474,2815.717262L1436.359312,2812.712338L1430.718978,2809.687651L1423.716727,2809.964420L1421.750140,2813.265876L1421.424103,2815.183492L1419.860330,2817.239494L1418.047156,2819.157114Z " data-cartodb-id="42" data-created-at="2013-08-22T04:08:48+0200" data-name="Cove-East Side" data-updated-at="2013-08-22T04:08:48+0200"/><path d="M1284.333523,1850.593058L1283.423954,1853.951977L1282.861982,1856.994768L1282.465642,1859.879497L1282.579308,1862.803747L1282.806621,1871.675321L1282.836982,1879.894903L1282.827678,1882.997014L1282.201057,1887.146345L1281.229104,1891.453755L1280.720706,1893.172770L1303.884357,1895.603105L1321.005166,1897.875372L1336.983877,1897.875372L1354.191510,1885.368059L1379.188726,1854.683037L1390.938691,1833.462671L1401.368625,1837.473577L1404.396890,1839.370364L1406.917084,1841.524009L1409.628214,1843.894998L1411.846973,1846.424056L1413.353595,1848.478918L1414.100028,1850.711608L1414.868886,1852.371309L1415.655694,1854.781829L1416.562311,1856.520567L1418.153842,1858.061722L1420.733973,1858.871817L1433.905284,1859.820222L1460.722628,1859.346019L1483.029396,1858.674233L1490.887963,1858.674233L1498.431939,1858.535924L1504.264596,1858.535924L1516.250480,1863.594086L1527.676898,1865.036455L1527.859399,1862.961815L1535.908321,1864.088048L1539.785891,1864.423942L1574.016427,1867.288925L1587.731686,1861.973892L1597.267106,1853.576568L1601.744649,1847.728103L1606.494433,1840.536098L1611.295236,1834.648160L1615.847669,1826.250966L1620.397900,1818.011876L1628.240762,1801.079383L1627.916788,1796.989528L1624.106535,1794.934726L1620.970301,1793.018230L1614.583204,1791.654950L1613.610250,1787.248996L1615.302582,1781.677356L1619.993682,1775.473494L1625.187099,1770.138981L1642.882320,1750.737294L1647.216617,1744.928683L1651.109503,1738.566894L1653.295960,1731.572903L1653.382441,1719.165554L1649.237749,1713.357047L1650.371997,1706.837318L1653.129391,1701.206662L1655.191049,1695.101865L1657.669343,1685.697754L1671.887284,1667.600908L1688.579201,1650.590832L1692.377575,1648.299126L1694.690898,1645.750596L1700.261069,1634.924320L1704.104389,1631.486794L1708.869698,1623.544949L1710.742583,1617.519444L1713.479700,1615.326560L1717.069149,1610.506176L1730.912472,1586.364943L1736.603526,1582.670692L1741.402013,1582.986778L1750.507499,1573.148647L1757.173948,1564.081021L1759.609233,1560.149755L1762.941912,1555.013441L1766.895762,1551.990924L1771.763337,1547.763361L1780.265097,1538.024200L1781.258520,1534.962203L1776.117216,1531.070511L1776.595937,1527.731960L1786.567571,1523.583474L1790.723502,1520.995613L1793.645908,1518.131191L1795.340190,1515.326038L1788.974754,1515.207511L1784.885480,1515.424811L1781.198208,1515.661866L1776.505736,1516.076713L1771.513657,1517.163216L1766.645233,1518.170701L1758.596196,1519.968372L1751.049052,1522.082119L1747.004479,1523.168625L1742.610429,1524.274887L1737.105028,1524.274887L1728.747472,1522.240156L1722.996961,1520.679539L1718.895817,1519.020149L1714.942331,1517.459535L1711.710150,1516.294013L1708.377684,1515.286529L1692.353577,1511.454144L1688.033295,1524.768754L1686.278426,1529.371603L1684.321744,1534.092992L1677.138825,1547.822626L1673.700171,1553.788630L1668.845343,1562.105509L1664.834484,1560.268285L1661.309586,1558.292778L1658.753327,1556.554333L1655.654211,1554.223240L1652.501326,1551.655089L1646.186283,1546.597820L1641.391032,1542.646838L1634.100400,1537.273516L1625.077701,1530.793945L1618.390240,1529.351848L1613.095745,1528.601168L1607.442065,1528.403621L1602.013796,1528.719697L1596.842364,1529.351848L1579.595378,1533.164517L1568.652609,1535.673376L1546.450237,1540.710860L1525.571708,1545.847132L1522.251043,1546.716349L1518.953954,1548.217725L1516.347973,1550.509301L1514.850822,1553.512059L1512.933702,1558.312533L1487.357938,1556.376538L1469.507570,1555.704867L1451.213007,1602.821247L1442.824370,1603.650981L1426.920997,1605.033871L1421.999061,1605.349960L1420.055597,1605.448738L1418.308176,1605.547516L1416.331416,1605.547516L1414.337994,1609.123281L1411.820373,1613.509036L1409.302760,1617.894802L1406.506407,1622.636183L1404.202442,1627.219530L1402.327785,1631.486794L1400.669267,1636.346747L1399.104642,1641.068421L1397.603269,1644.940598L1394.750559,1654.186444L1391.851299,1662.266720L1390.181446,1666.356263L1388.028767,1671.078017L1386.163896,1674.811965L1384.680324,1677.874204L1382.040068,1682.991118L1380.027178,1687.080708L1377.031296,1692.790346L1376.395275,1693.995497L1370.837380,1704.782620L1366.582345,1712.863127L1363.255269,1718.888958L1360.656566,1722.820576L1358.171968,1726.199009L1355.458019,1729.478663L1352.727106,1732.659539L1349.194932,1736.749244L1345.788049,1740.503088L1341.943215,1744.750869L1335.456219,1752.258599L1331.735059,1756.427379L1328.501774,1760.754228L1327.186926,1762.591659L1325.596871,1764.824241L1322.300148,1769.447471L1319.628494,1773.201384L1314.255341,1781.657598L1312.083131,1785.332508L1309.716074,1790.212641L1306.422093,1797.799595L1303.478971,1804.556754L1301.243591,1810.088951L1299.378275,1814.732057L1296.920898,1820.797751L1294.936451,1825.203789L1293.147771,1829.056612L1290.324263,1835.596551L1286.861956,1843.401042L1284.333523,1850.593058Z " data-cartodb-id="45" data-created-at="2013-08-22T04:08:48+0200" data-name="Springdale" data-updated-at="2013-08-22T04:08:48+0200"/><path d="M1557.006927,0.000000L1547.196269,0.690829L1483.739519,30.909928L1390.777503,75.203227L1364.832765,87.421577L1337.115853,99.264966L1226.196606,151.357052L1094.996852,212.965415L1089.424962,215.531653L952.068195,279.293954L842.810361,329.989540L744.734583,371.723650L742.421759,373.559657L721.881691,385.227228L687.650851,402.876794L681.471138,406.055313L582.271227,451.739742L538.404179,471.897326L521.225001,479.814323L425.632214,523.447270L409.035936,531.680392L382.008651,544.059762L216.750365,620.865078L183.118498,634.015107L131.040836,657.867056L88.003491,677.730758L64.030721,690.308582L37.275555,703.656574L38.079116,704.900549L35.743149,709.817219L40.296542,728.437500L56.077074,777.842404L0.310784,799.780828L13.503706,863.919175L86.585094,873.338700L86.777539,882.383070L107.108745,935.899817L116.511721,958.906584L121.981964,1008.712803L133.481342,1034.821135L154.555231,1075.386576L156.726764,1123.853016L200.000742,1248.678913L197.957142,1248.382638L197.979671,1249.468978L198.277318,1257.547414L202.309579,1261.675528L207.180756,1275.383307L218.755633,1306.058302L237.797050,1359.350694L247.728956,1385.740697L254.443644,1407.706328L280.218772,1487.808117L290.497878,1524.808264L301.276192,1565.858983L309.671924,1593.476893L311.438569,1592.765696L369.275041,1569.513689L383.085479,1563.962490L390.564523,1561.256040L396.890172,1559.636123L403.979543,1557.877922L410.239886,1556.811149L416.356158,1556.238253L423.484165,1556.020947L440.943398,1556.337028L493.985346,1559.616368L527.821816,1562.322815L540.820056,1562.994489L560.132913,1562.935224L598.988295,1561.354815L647.589791,1557.028454L675.511076,1554.657850L690.286230,1553.630589L692.246027,1553.531814L705.740501,1552.524309L711.817034,1551.872394L768.897408,1546.538555L800.202534,1544.009926L809.290081,1542.587573L818.847772,1540.572576L824.255469,1539.011942L829.499695,1536.898175L857.269941,1523.721756L866.105468,1519.553524L879.228356,1513.350581L879.531333,1514.279046L891.535209,1508.352684L907.345059,1500.213846L924.836333,1491.877503L927.812764,1490.257649L943.668672,1482.178157L946.631359,1482.059631L951.526361,1478.405106L955.014137,1474.908620L959.075676,1472.814684L962.633191,1471.115831L972.536219,1466.276085L983.607139,1460.606685L995.200623,1453.831085L1011.707320,1444.250469L1028.692366,1434.353847L1037.294276,1429.395679L1041.919342,1427.025245L1046.708966,1424.852350L1056.333109,1420.368294L1062.814573,1417.563295L1075.812559,1412.348380L1083.295724,1409.326106L1089.140156,1407.074220L1122.752011,1392.358012L1131.889604,1388.466633L1147.692320,1381.355505L1197.515207,1360.634630L1242.926959,1342.027529L1255.670370,1336.891845L1256.518031,1336.595556L1257.453785,1336.279514L1266.688085,1332.190732L1279.693356,1326.600770L1290.502788,1322.037951L1302.893773,1316.981335L1330.560517,1305.781770L1346.931267,1299.184529L1359.324577,1294.523020L1378.059145,1287.135738L1409.285541,1275.185788L1421.336930,1270.721861L1446.221375,1261.399004L1450.166762,1260.115139L1469.556970,1253.123034L1480.918703,1248.619658L1530.177799,1228.927399L1543.294266,1223.950052L1564.623931,1215.713758L1573.793899,1212.375798L1585.609473,1208.386056L1598.793232,1205.364128L1605.212770,1204.258065L1611.095635,1203.547024L1621.428056,1202.816233L1630.571000,1202.579219L1647.683070,1201.947184L1664.582779,1201.315148L1691.456199,1200.604109L1694.257267,1079.830266L1694.629319,1057.868671L1697.292054,909.022757L1697.472347,899.622793L1698.362279,849.898590L1701.960555,627.301867L1701.817827,598.415474L1700.033230,593.558341L1698.831135,589.471251L1698.866654,585.897523L1701.244130,582.304058L1702.337307,571.010356L1702.528286,564.850185L1703.235689,559.914165L1703.547465,557.248720L1705.598351,555.412527L1708.012400,554.267375L1710.424247,554.484559L1713.119062,554.484559L1715.774977,555.708687L1718.396578,556.636656L1723.392208,553.931728L1726.972074,551.562451L1730.060877,550.752949L1733.954175,549.528824L1737.324288,546.448772L1738.396888,543.151543L1738.948887,539.044824L1738.805952,535.668633L1740.192010,531.759367L1742.147313,528.008060L1743.489884,525.085994L1744.208162,522.677268L1743.331420,519.498544L1742.326224,516.714697L1742.245031,512.094705L1741.786133,510.041380L1743.595196,507.593186L1746.441244,505.421405L1749.720190,502.973218L1753.929163,499.774785L1756.021151,498.866589L1756.154452,496.398668L1755.937412,494.957403L1754.319514,493.002813L1752.213165,490.140034L1749.461817,487.000854L1748.193746,483.920908L1746.032136,482.282222L1742.393271,481.670183L1739.083228,481.453007L1735.163028,481.354291L1730.699089,481.571467L1727.672991,480.130214L1726.055137,478.175640L1724.855377,475.036480L1725.114500,462.795784L1724.706307,450.950028L1724.052902,445.579977L1724.597159,441.197080L1727.625467,432.944626L1729.088198,430.457052L1728.821402,428.265620L1727.196988,426.883638L1725.419003,427.278490L1722.614830,428.166907L1720.195109,428.877641L1717.744278,428.680215L1715.845949,426.784925L1713.779982,424.099933L1711.292644,422.007222L1707.960931,420.802927L1704.654920,419.519662L1702.626503,417.723094L1702.355966,414.840691L1701.578617,411.859581L1699.719618,408.187491L1697.607908,404.890514L1695.215958,403.508549L1693.201754,401.317150L1692.097816,398.336062L1691.487567,394.841680L1690.249769,391.268335L1687.616073,389.274373L1684.668884,387.892420L1680.912624,386.688148L1677.233747,385.898461L1675.261397,386.589437L1672.975544,387.892420L1669.891042,388.287264L1667.688440,388.682107L1664.584384,388.484686L1663.307294,386.688148L1662.837674,384.417800L1662.632562,380.331182L1662.039264,378.139811L1660.922829,375.849732L1659.330647,374.369080L1659.146182,372.276426L1660.169178,368.782094L1660.941320,365.406220L1661.811457,362.030353L1661.246059,357.746367L1660.388297,354.962768L1658.882114,351.863306L1657.139276,348.487464L1656.867333,345.309045L1656.271468,341.419932L1655.912027,337.155736L1655.900959,331.470157L1655.404146,328.982721L1653.550785,326.297874L1650.931460,323.909154L1647.638263,321.935007L1643.960613,320.138535L1640.204498,318.934307L1636.282893,318.539479L1633.461904,318.124909L1631.691772,316.940424L1630.642927,315.045250L1630.093396,313.071113L1629.383342,309.182069L1629.879084,306.003719L1631.043424,301.423746L1631.343818,297.139903L1630.869403,293.329857L1628.819650,290.546357L1627.821431,288.947327L1626.269543,287.644415L1615.708884,275.839283L1548.444999,110.595214L1573.612920,73.387260L1570.593448,28.067614L1570.240812,25.541117L1568.519160,24.810801L1565.802324,23.626507L1566.534332,20.527608L1569.830271,14.270611L1571.187167,10.105871L1570.489185,7.737302L1567.556484,5.210833L1566.679830,2.388296L1565.350491,0.453973L1563.345902,0.592139L1559.701906,0.750043L1557.006927,0.000000Z " data-cartodb-id="46" data-created-at="2013-08-22T04:08:48+0200" data-name="North Stamford" data-updated-at="2013-08-22T04:08:48+0200"/><path d="M923.492961,3216.664411L930.434256,3207.627787L932.948315,3204.147612L937.131789,3198.334153L968.985512,3169.563754L981.411943,3163.631773L988.629015,3161.377626L1010.536957,3155.742270L1014.975584,3153.488133L1021.828329,3152.361066L1032.320967,3152.361066L1039.003369,3155.603858L1044.374880,3156.177279L1053.845145,3153.626545L1063.904713,3145.460265L1081.731388,3128.534637L1096.814167,3109.631913L1105.542217,3101.742657L1119.701870,3093.280037L1135.957983,3078.332147L1143.514128,3069.316022L1146.691909,3061.407179L1153.955746,3050.413947L1157.013402,3032.362265L1158.399534,3026.153953L1162.299853,3016.011123L1170.833342,3002.052471L1176.735863,2995.270901L1186.939957,2980.897224L1192.800510,2973.285352L1195.961448,2970.181300L1202.042139,2967.650612L1205.955619,2965.100156L1211.759529,2959.129337L1213.352427,2957.488354L1212.545862,2956.697520L1209.599600,2953.830747L1200.221960,2941.691501L1198.244735,2936.333653L1197.385420,2933.229667L1188.095436,2930.422245L1173.822454,2928.721978L1156.826056,2928.721978L1152.637791,2924.491087L1145.668527,2908.140968L1144.428934,2877.260027L1145.337508,2866.821524L1147.961394,2855.829532L1150.531359,2845.964476L1158.549053,2835.526162L1160.753151,2831.592041L1157.426463,2828.488243L1156.202949,2826.511305L1158.102965,2822.557435L1167.656940,2812.119262L1162.851986,2798.834406L1158.090771,2798.043644L1150.566346,2796.600504L1143.591870,2795.275979L1137.327193,2794.485219L1130.220600,2792.508319L1122.262774,2791.243105L1116.199224,2789.780202L1108.779994,2788.416145L1100.035680,2786.399714L1096.219736,2793.951456L1092.764826,2800.336855L1086.942202,2812.475108L1083.743154,2818.524497L1080.521326,2826.412458L1079.556339,2829.041786L1077.200734,2835.565701L1077.734757,2849.878860L1067.448989,2852.172140L1054.563351,2854.722428L1044.110596,2856.521472L1029.478426,2859.368313L1019.572056,2861.246440L1010.964550,2862.847792L1010.421658,2864.627074L1008.815802,2866.307508L1005.809486,2867.315770L1003.427706,2869.727692L1001.239153,2874.472466L992.428955,2888.825487L988.067595,2894.578591L985.606972,2895.567099L983.458289,2894.479741L979.780493,2896.654458L975.795025,2900.134013L970.335881,2905.491749L976.540502,2922.434957L989.211293,2954.858831L991.291498,2963.637106L989.729563,2974.530929L984.164931,2993.254229L971.525050,3045.787321L968.323356,3053.617004L962.982442,3063.918232L943.185026,3086.834238L941.309764,3091.876195L938.997909,3099.785178L937.802070,3110.106456L935.470781,3133.596490L935.401444,3151.708553L931.251245,3172.687939L923.340437,3201.814317L923.144072,3203.989422L922.588044,3205.709735L916.474501,3214.410194L919.968222,3216.090970L923.492961,3216.664411Z " data-cartodb-id="49" data-created-at="2013-08-22T04:08:48+0200" data-name="Shippan" data-updated-at="2013-08-22T04:08:48+0200"/></g><g fill="#000" font-family="Arial" font-size="12px" id="mylayer-label" stroke="none"><text text-anchor="middle" y="2414.93265019"><tspan dy="0" x="1047.2236095"><![CDATA[Downtown]]></tspan></text><text text-anchor="middle" y="1814.34692926"><tspan dy="0" x="600.414440867"><![CDATA[Westover]]></tspan></text><text text-anchor="middle" y="1405.44552631"><tspan dy="0" x="1530.49151224"><![CDATA[Newfield]]></tspan></text><text text-anchor="middle" y="1798.4421042"><tspan dy="0" x="1094.66104402"><![CDATA[Turn Of River]]></tspan></text><text text-anchor="middle" y="2711.82838916"><tspan dy="0" x="943.414184386"><![CDATA[South End]]></tspan></text><text text-anchor="middle" y="2825.58506593"><tspan dy="0" x="669.16592949"><![CDATA[Waterside]]></tspan></text><text text-anchor="middle" y="2260.82577195"><tspan dy="0" x="1369.42800982"><![CDATA[Glenbrook]]></tspan></text><text text-anchor="middle" y="2224.40022253"><tspan dy="0" x="692.535192434"><![CDATA[Palmers Hill]]></tspan></text><text text-anchor="middle" y="1943.69923751"><tspan dy="0" x="816.007147073"><![CDATA[Roxbury]]></tspan></text><text text-anchor="middle" y="2528.54753044"><tspan dy="0" x="699.342322405"><![CDATA[West Side]]></tspan></text><text text-anchor="middle" y="2248.11089701"><tspan dy="0" x="855.722541021"><![CDATA[Ridgeway]]></tspan></text><text text-anchor="middle" y="1993.66425934"><tspan dy="0" x="1387.08621975"><![CDATA[Belltown]]></tspan></text><text text-anchor="middle" y="2600.49872556"><tspan dy="0" x="1328.70248034"><![CDATA[Cove-East Side]]></tspan></text><text text-anchor="middle" y="1698.85336097"><tspan dy="0" x="1519.11699271"><![CDATA[Springdale]]></tspan></text><text text-anchor="middle" y="852.518827838"><tspan dy="0" x="940.667175784"><![CDATA[North Stamford]]></tspan></text><text text-anchor="middle" y="2987.42230633"><tspan dy="0" x="1063.28689468"><![CDATA[Shippan]]></tspan></text></g></svg>