<?xml version="1.0" encoding="utf-8"?><!DOCTYPE svg  PUBLIC '-//W3C//DTD SVG 1.1//EN'  'http://www.w3.org/Graphics/SVG/1.1/DTD/svg11.dtd'><svg enable_background="new 0 0 2000 2648" height="2648px" pretty_print="False" style="stroke-linejoin: round; stroke:#000; fill: none;" version="1.1" viewBox="0 0 2000 2648" width="2000px" xmlns="http://www.w3.org/2000/svg" xmlns:xlink="http://www.w3.org/1999/xlink"><defs><style type="text/css"><![CDATA[path { fill-rule: evenodd; }]]></style></defs><metadata><views><view h="2648.60282389" padding="0" w="2000"><proj flip="auto" id="robinson" lon0="121.562339178"/><bbox h="75.21" w="56.82" x="1706.14" y="-442.41"/></view></views></metadata><g class="" id="mylayer"><path d="M1585.023024,692.543010L1561.362130,716.419461L1548.146409,738.969520L1547.822274,753.295108L1564.129335,758.866186L1577.762484,775.314072L1572.400350,797.066816L1579.049709,810.861287L1591.240135,805.290488L1598.810194,822.270120L1619.555270,837.124827L1640.188894,839.777557L1631.264620,812.718016L1653.936481,799.189327L1633.745129,778.497313L1637.141888,765.763698L1616.509940,749.050487L1620.375403,740.030835L1599.535284,715.889089L1598.938021,701.828222L1585.023024,692.543010Z " data-cartodb-id="3" data-created-at="2014-02-09T21:49:08Z" data-name="Taipei City" data-name-taiwa="Tâi-pak chhī" data-name-tradi="台北市" data-updated-at="2014-02-09T22:13:15Z"/><path d="M1457.805783,746.928466L1422.791002,751.968629L1406.354143,765.763698L1372.619757,776.374760L1349.191763,794.148799L1341.372556,809.534881L1331.320244,852.245054L1356.272997,848.531159L1372.392622,871.078285L1423.446628,887.258567L1430.107959,909.804827L1461.372090,930.494087L1482.422316,935.003070L1518.505310,962.587395L1524.065918,997.597745L1554.040233,1012.715614L1569.460838,1053.293207L1588.845117,1057.271471L1599.923164,1049.049827L1603.496250,1015.898110L1617.363278,1009.002297L1597.351553,989.375645L1577.851917,957.548283L1586.762432,942.429623L1560.333694,911.661959L1542.182747,914.844761L1526.051964,907.418010L1525.547022,889.115740L1509.913264,877.975014L1499.360827,831.023877L1522.888824,827.840809L1535.298200,803.964075L1518.871983,780.354102L1496.600976,774.783137L1457.805783,746.928466Z " data-cartodb-id="5" data-created-at="2014-02-09T21:49:08Z" data-name="Taoyuan County" data-name-taiwa="Thô-hn̂g koān" data-name-tradi="桃園縣" data-updated-at="2014-02-09T22:13:29Z"/><path d="M1182.267367,1221.158629L1182.923665,1220.628507L1182.845860,1221.158629L1182.459859,1221.158629L1182.267367,1221.158629Z M1211.943223,1146.643449L1268.439989,1196.232606L1301.061275,1215.059851L1321.742042,1220.628507L1339.034372,1235.477735L1377.580238,1233.621739L1377.473819,1207.369478L1423.701496,1214.264074L1447.611767,1232.030799L1456.109923,1216.120100L1467.310319,1217.976713L1486.076269,1194.375958L1497.276992,1193.580757L1516.081699,1172.896484L1526.246696,1180.587083L1537.474778,1153.538405L1564.756360,1146.112703L1577.921237,1171.835606L1602.766307,1189.337904L1625.372926,1181.647363L1642.885523,1191.193970L1639.578434,1216.650814L1620.462082,1238.659604L1622.282373,1250.592423L1606.048516,1274.456527L1575.048339,1270.213962L1560.349783,1261.994430L1555.560916,1275.517314L1528.843890,1279.494812L1516.728002,1273.396330L1504.247112,1290.631503L1487.469240,1290.631503L1467.257412,1315.025499L1448.979317,1313.434665L1441.102249,1335.176676L1418.705676,1331.464983L1406.620904,1342.600619L1362.428779,1338.888948L1364.023497,1363.547037L1333.700251,1405.173239L1295.062389,1398.545317L1265.743336,1385.818833L1250.346743,1346.047836L1219.206518,1340.214715L1204.986505,1329.608542L1184.411481,1293.813228L1173.973135,1290.100821L1162.555830,1280.024908L1173.074969,1245.554018L1167.957263,1232.560916L1190.589830,1224.871247L1193.237956,1191.724105L1211.943223,1146.643449Z M1182.923665,1220.628507L1182.267367,1221.158629L1182.459859,1221.158629L1182.845860,1221.158629L1182.923665,1220.628507Z " data-cartodb-id="7" data-created-at="2014-02-09T21:49:08Z" data-name="Taichung City" data-name-taiwa="Tâi-tiong chhī" data-name-tradi="台中市" data-updated-at="2014-02-09T22:13:04Z"/><path d="M1378.449120,1864.308344L1341.426919,1868.549170L1308.294710,1855.561719L1312.795530,1848.140361L1301.348966,1812.357841L1306.754206,1804.670757L1290.040282,1794.598483L1288.875938,1782.140385L1258.990566,1758.549879L1244.557097,1754.043823L1203.543927,1760.405172L1165.636610,1789.827571L1146.206410,1824.815127L1132.262257,1825.610559L1092.016839,1796.453735L1088.154281,1822.430010L1085.461274,1915.462531L1082.142435,1956.279010L1154.115745,2009.550663L1171.149661,2049.040018L1179.197445,2043.739335L1215.696204,2058.316181L1224.480437,2053.810267L1264.194753,2063.086409L1275.248487,2044.534674L1293.593334,2046.389678L1304.613459,2003.190191L1351.774030,1947.532822L1364.921486,1904.861017L1375.380148,1892.403702L1378.449120,1864.308344Z " data-cartodb-id="8" data-created-at="2014-02-09T21:49:08Z" data-name="Tainan City" data-name-taiwa="Tâi-lâm chhī" data-name-tradi="台南市" data-updated-at="2014-02-09T22:13:10Z"/><path d="M1682.244437,721.460351L1665.376770,712.705667L1632.190431,731.276292L1647.857848,758.866186L1692.330932,784.598598L1712.458930,773.456684L1698.667340,752.234398L1719.035211,748.785309L1718.819887,736.316526L1705.872180,727.031587L1704.717282,727.031587L1682.244437,721.460351Z " data-cartodb-id="9" data-created-at="2014-02-09T21:49:08Z" data-name="Keelung City" data-name-taiwa="Ke-lâng chhī" data-name-tradi="基隆市" data-updated-at="2014-02-09T22:12:25Z"/><path d="M1606.048516,1274.456527L1575.048466,1270.214552L1560.349783,1261.994430L1555.560916,1275.517314L1528.843890,1279.494812L1516.728002,1273.396330L1504.247112,1290.631503L1487.469240,1290.631503L1467.257412,1315.025499L1448.979317,1313.434665L1441.102249,1335.176676L1418.705676,1331.464983L1406.620904,1342.600619L1362.428779,1338.888948L1364.023497,1363.547037L1333.700251,1405.173239L1295.062389,1398.545317L1275.523874,1406.498938L1285.020049,1427.709342L1279.334306,1434.602724L1286.745509,1468.008476L1285.854326,1498.761607L1299.541907,1512.547617L1316.829696,1513.077618L1317.224561,1527.924069L1303.798072,1532.960790L1316.480368,1558.675883L1311.731532,1569.280251L1319.911282,1603.212766L1317.306117,1625.215133L1342.158608,1637.143914L1364.327924,1627.601133L1371.535805,1636.348980L1387.729108,1635.288477L1421.098725,1650.133685L1418.958238,1676.376687L1439.013315,1715.873434L1503.805807,1720.114633L1530.111946,1724.090857L1537.082054,1740.260027L1551.605956,1730.982248L1545.034626,1717.728775L1556.461768,1691.486468L1588.790532,1692.811901L1591.483025,1651.459154L1616.542095,1643.771302L1620.534096,1629.456580L1618.549559,1578.028442L1609.992218,1555.494793L1593.989305,1543.565349L1611.520341,1461.645286L1603.552474,1423.997915L1594.524612,1414.188081L1599.630581,1372.031520L1611.684065,1359.834837L1612.019439,1338.888948L1588.299090,1327.222613L1586.738279,1302.033137L1607.714887,1289.305684L1606.048516,1274.456527Z " data-cartodb-id="11" data-created-at="2014-02-09T21:49:08Z" data-name="Nantou County" data-name-taiwa="Lâm-tâu koān" data-name-tradi="南投縣" data-updated-at="2014-02-09T22:12:47Z"/><path d="M1835.293690,1090.952705L1830.263320,1095.195333L1829.878000,1095.195333L1821.897417,1099.173446L1830.577842,1120.919980L1811.090362,1152.212432L1809.353435,1209.226105L1813.120390,1221.158629L1777.775675,1212.938170L1730.503911,1189.868040L1738.653896,1206.839350L1720.977260,1212.408045L1726.281756,1221.688751L1697.146681,1209.226105L1665.853737,1203.657396L1642.885523,1191.193970L1625.372926,1181.647363L1602.766307,1189.337904L1577.921237,1171.835606L1564.756360,1146.112703L1574.433655,1120.919980L1595.952476,1093.604202L1588.845117,1057.271471L1599.923164,1049.049827L1603.496250,1015.898110L1617.363278,1009.002297L1642.104263,1000.780286L1669.467758,977.705764L1661.360255,946.938554L1674.653985,929.963235L1703.974830,922.536592L1721.675326,901.316896L1734.710517,901.051758L1742.681406,881.157923L1773.369346,860.468249L1764.952455,839.777557L1797.556136,828.371124L1822.349038,826.514429L1821.963590,826.514429L1821.893850,827.044745L1811.373892,832.350251L1802.882428,839.777557L1802.460377,842.960586L1802.582658,843.491484L1802.258761,843.756638L1797.924508,846.674502L1796.233740,848.531159L1796.355910,849.062054L1796.660954,850.387813L1796.783092,850.918707L1796.844090,851.183858L1790.133109,864.712395L1790.193978,864.977543L1789.930712,865.507838L1789.474684,866.038133L1789.282438,866.038133L1779.614228,879.301326L1779.421973,879.301326L1779.543431,879.831614L1778.965652,879.831614L1778.640852,880.096757L1778.124436,880.362492L1777.546655,880.362492L1776.542042,883.545392L1776.217709,883.810535L1776.339082,884.340821L1776.146316,884.340821L1771.030413,897.338043L1774.388488,945.082077L1801.864365,1016.428328L1818.574821,1044.541329L1831.990407,1051.967116L1835.293690,1090.952705Z " data-cartodb-id="2" data-created-at="2014-02-09T21:49:08Z" data-name="Yilan County" data-name-taiwa="Gî-lân koān" data-name-tradi="宜蘭縣" data-updated-at="2014-02-09T22:13:34Z"/><path d="M1229.966240,1696.522636L1211.695748,1704.475193L1219.550026,1724.090857L1243.240406,1737.079317L1258.670866,1724.620784L1270.820582,1728.332034L1268.736193,1707.655968L1241.955222,1692.811901L1229.966240,1696.522636Z " data-cartodb-id="14" data-created-at="2014-02-09T21:49:08Z" data-name="Chiayi City" data-name-taiwa="Ka-gī chhī" data-name-tradi="嘉義市" data-updated-at="2014-02-09T22:11:55Z"/><path d="M1537.474648,1153.537814L1535.385265,1137.892304L1507.668293,1112.698807L1505.040221,1103.416633L1479.271747,1109.781679L1468.523475,1104.742663L1432.672757,1110.842025L1432.336580,1093.604202L1420.320974,1078.488046L1425.973598,1059.658541L1354.505424,1002.636665L1355.820201,986.988420L1335.607189,986.193071L1317.798229,969.483509L1303.872668,972.666135L1298.665657,990.701814L1282.983872,1011.919694L1266.530728,1015.898110L1256.522017,1044.541329L1242.107223,1049.049827L1227.514511,1123.571405L1227.630937,1124.102162L1211.943223,1146.643449L1268.439482,1196.232606L1301.061275,1215.059851L1321.742042,1220.628507L1339.034372,1235.477735L1377.580238,1233.621739L1377.473819,1207.369478L1423.701496,1214.264074L1447.611767,1232.030799L1456.109923,1216.120100L1467.310319,1217.976713L1486.076269,1194.375958L1497.276992,1193.580757L1516.081699,1172.896484L1526.246696,1180.587083L1537.474648,1153.537814Z " data-cartodb-id="13" data-created-at="2014-02-09T21:49:08Z" data-name="Miaoli County" data-name-taiwa="Biâu-le̍k koān" data-name-tradi="苗栗縣" data-updated-at="2014-02-09T22:12:42Z"/><path d="M1171.149661,2049.040018L1187.692563,2090.118678L1246.986069,2180.223657L1238.958568,2197.714671L1245.692440,2221.564829L1282.449379,2264.760728L1335.498387,2304.245720L1347.748615,2305.570156L1342.814777,2279.865375L1347.208227,2240.380605L1338.551581,2226.600200L1333.215169,2194.004323L1336.535634,2163.262909L1331.239194,2141.002181L1332.089276,2093.829195L1375.959765,2095.684156L1392.175059,2075.807554L1412.909607,2065.206310L1432.325454,2081.373068L1443.890580,2068.387043L1456.949289,2068.916869L1488.999969,2093.298784L1504.984260,2078.192945L1530.619198,2089.588857L1524.533737,2069.446696L1512.417647,2063.881151L1497.449813,2032.078256L1496.100590,2016.441545L1509.058054,1992.058725L1512.526579,1944.351897L1500.533755,1907.511548L1514.650158,1889.223273L1509.309510,1861.657749L1539.439818,1830.911854L1560.556918,1821.634577L1562.351224,1802.815513L1531.877509,1783.996241L1545.662647,1752.983399L1537.082054,1740.260027L1530.111946,1724.090857L1503.805807,1720.114633L1476.868445,1729.126922L1454.843683,1749.007245L1448.188377,1777.104483L1394.998467,1819.779352L1395.495575,1827.996262L1367.432817,1822.959906L1367.549010,1841.778750L1378.449120,1864.308344L1375.380148,1892.403702L1364.921486,1904.861017L1351.774030,1947.532822L1304.613459,2003.190191L1293.593334,2046.389678L1275.248487,2044.534674L1264.194753,2063.086409L1224.480437,2053.810267L1215.696204,2058.316181L1179.197445,2043.739335L1171.149661,2049.040018Z " data-cartodb-id="18" data-created-at="2014-02-09T21:49:08Z" data-name="Kaohsiung City" data-name-taiwa="Ko-hiông chhī" data-name-tradi="高雄市" data-updated-at="2014-02-09T22:12:20Z"/><path d="M1316.328176,903.174043L1308.480313,904.234593L1303.872668,972.666135L1317.798229,969.483509L1335.607189,986.193071L1337.355437,967.361951L1355.490537,946.938554L1376.018277,959.404739L1366.645873,932.350590L1316.328176,903.174043Z " data-cartodb-id="22" data-created-at="2014-02-09T21:49:08Z" data-name="Hsinchu City" data-name-taiwa="Sin-tek chhī" data-name-tradi="新竹市" data-updated-at="2014-02-09T22:12:06Z"/><path d="M1331.320244,852.245054L1324.497608,862.855177L1316.328176,903.174043L1366.645873,932.350590L1376.018277,959.404739L1355.490537,946.938554L1337.355437,967.361951L1335.607189,986.193071L1355.820201,986.988420L1354.505424,1002.636665L1425.973598,1059.658541L1420.320974,1078.488046L1432.336580,1093.604202L1432.672757,1110.842025L1468.523475,1104.742663L1479.271747,1109.781679L1505.040221,1103.416633L1507.668293,1112.698807L1535.385265,1137.892304L1537.474778,1153.538405L1564.756360,1146.112703L1574.433655,1120.919980L1595.952476,1093.604202L1588.845117,1057.271471L1569.460838,1053.293207L1554.040233,1012.715614L1524.065918,997.597745L1518.505310,962.587395L1482.422316,935.003070L1461.372090,930.494087L1430.107959,909.804827L1423.446628,887.258567L1372.392622,871.078285L1356.272997,848.531159L1331.320244,852.245054Z " data-cartodb-id="15" data-created-at="2014-02-09T21:49:08Z" data-name="Hsinchu County" data-name-taiwa="Sin-tek koān" data-name-tradi="新竹縣" data-updated-at="2014-02-09T22:12:10Z"/><path d="M67.622070,1154.068557L79.627006,1149.825560L107.075315,1165.471498L116.649052,1151.681689L113.475732,1124.367245L85.190962,1095.991193L72.849411,1108.455655L66.166351,1134.709570L35.896733,1118.533041L23.608843,1128.610337L39.138783,1152.477509L28.120569,1164.941351L52.272418,1178.730411L67.622070,1154.068557Z M16.496691,1155.659603L0.377700,1141.604597L1.167499,1166.001645L16.496691,1155.659603Z " data-cartodb-id="21" data-created-at="2014-02-09T21:49:08Z" data-name="Kinmen County" data-name-taiwa="Kim-mn̂g koān" data-name-tradi="金門縣" data-updated-at="2014-02-09T22:12:30Z"/><path d="M1303.798072,1532.960790L1317.224561,1527.924069L1316.829696,1513.077618L1299.541907,1512.547617L1285.854326,1498.761607L1286.745509,1468.008476L1279.334306,1434.602724L1285.020049,1427.709342L1275.523874,1406.498938L1295.062389,1398.545317L1265.743336,1385.818833L1250.346743,1346.047836L1219.206518,1340.214715L1204.986505,1329.608542L1184.411481,1293.813228L1173.973135,1290.100821L1167.633600,1311.843829L1155.573581,1313.169625L1133.426374,1351.350864L1158.725144,1335.176676L1160.994771,1354.001780L1136.908220,1359.569806L1130.458496,1412.066739L1121.066183,1414.188081L1114.351202,1440.966041L1122.269368,1444.677421L1113.667511,1480.999183L1106.723317,1484.710454L1103.690867,1484.975460L1103.801656,1485.506062L1103.333797,1486.036074L1094.630075,1499.822210L1130.971658,1513.077618L1189.585644,1507.245230L1236.518963,1525.007909L1256.426097,1524.212323L1303.798072,1532.960790Z " data-cartodb-id="19" data-created-at="2014-02-09T21:49:08Z" data-name="Changhua County" data-name-taiwa="Chiong-hoà koān" data-name-tradi="彰化縣" data-updated-at="2014-02-09T22:11:49Z"/><path d="M772.252065,1527.393483L772.142574,1526.863487L772.445271,1527.393483L772.252065,1527.393483Z M773.574630,1528.189067L773.684106,1528.719062L773.600490,1529.249648L773.574630,1528.189067Z M776.104174,1532.960790L776.683293,1532.960790L776.406413,1533.491374L776.104174,1532.960790Z M778.195588,1535.611937L778.665320,1535.081944L778.774712,1535.611937L778.388290,1535.611937L778.195588,1535.611937Z M778.993596,1536.672513L778.884096,1536.141930L778.967414,1535.611937L779.353327,1535.611937L779.572213,1536.672513L779.626900,1536.937509L779.572213,1536.672513L778.993596,1536.672513Z M781.309591,1536.672513L781.695505,1536.672513L781.859566,1537.467501L781.583137,1537.998083L781.309591,1536.672513Z M781.859566,1537.467501L782.162265,1537.998083L781.969053,1537.998083L781.583137,1537.998083L781.859566,1537.467501Z M782.133088,1538.793071L782.078411,1538.528075L782.271624,1538.528075L782.326300,1538.793071L782.133088,1538.793071Z M786.994401,1562.387538L786.306180,1561.857555L786.499408,1561.857555L786.197007,1561.326982L786.994401,1562.387538Z M786.306180,1561.857555L786.197007,1561.326982L786.499408,1561.857555L786.306180,1561.857555Z M788.669980,1576.172931L789.135471,1577.498465L788.556266,1577.498465L788.669980,1576.172931Z M688.907805,1805.466198L689.593231,1805.996099L689.206969,1805.996099L688.907805,1805.466198Z M850.524626,1668.159015L824.819788,1667.098533L811.623882,1680.088051L811.394086,1697.053162L795.859105,1697.583097L803.744557,1672.665314L784.627200,1672.665314L781.381197,1653.844522L799.182354,1657.820914L800.646740,1645.096776L800.260176,1645.096776L801.728420,1637.143914L780.984092,1609.309748L765.887957,1611.960756L753.466913,1628.661052L756.975283,1663.917675L742.451297,1643.771302L746.251982,1618.853236L759.265472,1620.178732L766.638774,1602.417224L780.333705,1597.645730L812.545509,1655.169987L824.921329,1638.204416L850.524626,1668.159015Z " data-cartodb-id="12" data-created-at="2014-02-09T21:49:08Z" data-name="Penghu County" data-name-taiwa="Phêⁿ-ô͘ koān" data-name-tradi="澎湖縣" data-updated-at="2014-02-09T22:12:56Z"/><path d="M1617.363278,1009.002297L1642.104263,1000.780286L1669.467758,977.705764L1661.360255,946.938554L1674.653985,929.963235L1703.974830,922.536592L1721.675326,901.316896L1734.710517,901.051758L1742.681406,881.157923L1773.369346,860.468249L1764.952455,839.777557L1797.556136,828.371124L1822.349038,826.514429L1830.425440,821.474051L1830.958769,819.617343L1833.224910,817.760632L1839.208227,810.330370L1839.085417,809.800044L1837.508418,807.147228L1836.992223,807.412392L1810.658633,803.433155L1795.686074,792.822371L1792.874851,778.232142L1782.179296,762.049477L1782.709018,760.192657L1780.336351,745.071029L1756.490316,742.683820L1749.760444,741.887689L1748.984049,742.683820L1741.168058,741.357328L1718.819887,736.316526L1719.173052,747.724003L1697.904341,751.438273L1711.566216,779.558589L1700.923963,785.129528L1652.570955,762.580418L1630.451604,732.071840L1665.184129,712.705667L1653.873812,698.114382L1654.524667,696.787839L1656.051415,689.358935L1654.319823,689.358935L1654.382261,689.624718L1653.997519,689.624718L1654.054070,690.685486L1654.178782,691.216461L1646.442323,696.787839L1646.250200,696.787839L1620.216257,676.890114L1612.243942,659.379454L1584.830950,641.869152L1562.969891,640.542551L1562.844596,640.012146L1561.757226,639.481151L1561.117316,639.215948L1560.924728,639.215948L1560.540060,639.215948L1548.647617,644.257148L1548.710213,644.522350L1523.274813,671.318647L1513.278937,705.011673L1516.384668,717.480796L1497.626335,735.255799L1457.805783,746.928466L1496.600976,774.783137L1518.871983,780.354102L1535.298200,803.964075L1522.888824,827.840809L1499.360827,831.023877L1509.913264,877.975014L1525.547022,889.115740L1526.051964,907.418010L1542.182747,914.844761L1560.333694,911.661959L1586.762432,942.429623L1577.851917,957.548283L1597.351553,989.375645L1617.363278,1009.002297Z M1599.237677,824.126823L1590.347772,804.759569L1578.349659,810.330370L1574.746253,768.946969L1547.822274,753.295108L1563.293275,715.623902L1587.382779,694.399940L1599.701946,702.624381L1601.949303,718.807316L1618.464579,738.439158L1616.833038,748.785309L1632.266878,758.866186L1638.681229,791.495942L1663.921353,801.576409L1633.785670,805.290488L1638.631348,830.493563L1622.696882,837.389982L1599.237677,824.126823Z " data-cartodb-id="16" data-created-at="2014-02-09T21:49:08Z" data-name="New Taipei City" data-name-taiwa="Sin-pak chhī" data-name-tradi="新北市" data-updated-at="2014-02-09T22:12:51Z"/><path d="M1378.449120,1864.308344L1367.549010,1841.778750L1367.432817,1822.959906L1395.495575,1827.996262L1394.998467,1819.779352L1448.188377,1777.104483L1454.843683,1749.007245L1476.868445,1729.126922L1503.805807,1720.114633L1439.013315,1715.873434L1418.958238,1676.376687L1421.098725,1650.133685L1387.729108,1635.288477L1371.535805,1636.348980L1377.634558,1657.555940L1349.877915,1659.676325L1332.006247,1648.808215L1290.957691,1650.133685L1266.025709,1638.734962L1245.794013,1622.034188L1213.637193,1631.842573L1202.423319,1627.070583L1182.453686,1646.422249L1160.459186,1657.820914L1146.896807,1684.063786L1131.617985,1676.376687L1136.815014,1693.341838L1126.083082,1699.438460L1084.497734,1689.630506L1072.354442,1690.690972L1077.511172,1708.451456L1093.751448,1704.740159L1088.059332,1732.838162L1106.980487,1771.008154L1092.016839,1796.453735L1132.262257,1825.610559L1146.206410,1824.815127L1165.636610,1789.827571L1203.543927,1760.405172L1244.557097,1754.043823L1258.990566,1758.549879L1288.875938,1782.140385L1290.040282,1794.598483L1306.754206,1804.670757L1301.348966,1812.357841L1312.795530,1848.140361L1308.294710,1855.561719L1341.426919,1868.549170L1378.449120,1864.308344Z M1218.004889,1724.090857L1211.587680,1703.944670L1240.634018,1692.016405L1257.682960,1698.908525L1274.812405,1718.524258L1267.914615,1730.187362L1247.305805,1735.223407L1235.988671,1725.150710L1218.004889,1724.090857Z " data-cartodb-id="20" data-created-at="2014-02-09T21:49:08Z" data-name="Chiayi County" data-name-taiwa="Ka-gī koān" data-name-tradi="嘉義縣" data-updated-at="2014-02-09T22:12:02Z"/><path d="M1332.110256,2396.993036L1344.274147,2380.563440L1331.239128,2384.273528L1332.110256,2396.993036Z M1637.299549,2646.602824L1619.529404,2615.866509L1617.446827,2596.523254L1640.668518,2566.581172L1623.630875,2496.891993L1614.716445,2441.775481L1599.816014,2448.930043L1561.184246,2427.996652L1548.326530,2411.302345L1546.939712,2383.743178L1523.731829,2368.639096L1525.448880,2349.294453L1537.994069,2334.984844L1516.580362,2311.135137L1519.419300,2294.705637L1500.072449,2261.580853L1502.323791,2215.204967L1513.417310,2179.693857L1538.224538,2164.058205L1552.253380,2164.588009L1557.933151,2151.072663L1555.191513,2115.295668L1535.426839,2105.225025L1530.619198,2089.588857L1504.984260,2078.192945L1488.999969,2093.298784L1456.949289,2068.916869L1443.890580,2068.387043L1432.325454,2081.373068L1412.909607,2065.206310L1392.175059,2075.807554L1375.959765,2095.684156L1332.089276,2093.829195L1331.239194,2141.002181L1336.535634,2163.262909L1333.215169,2194.004323L1338.551581,2226.600200L1347.208227,2240.380605L1342.814777,2279.865375L1347.748615,2305.570156L1366.009136,2324.120442L1431.975746,2360.424231L1479.452811,2409.447613L1488.665704,2437.535712L1511.797548,2464.564074L1539.395695,2533.724139L1538.499461,2554.657486L1532.128935,2567.110903L1552.737030,2601.558018L1563.299939,2634.149643L1575.448947,2612.156664L1611.633931,2625.405083L1637.299549,2646.602824Z " data-cartodb-id="6" data-created-at="2014-02-09T21:49:08Z" data-name="Pingtung County" data-name-taiwa="Pîn-tong koān" data-name-tradi="屏東縣" data-updated-at="2014-02-09T22:13:00Z"/><path d="M1044.764945,1707.920934L1049.188999,1688.835598L1015.415832,1722.234933L1029.140450,1734.693484L1029.094913,1718.258704L1044.764945,1707.920934Z M1371.535805,1636.348980L1364.327924,1627.601133L1342.158608,1637.143914L1317.306117,1625.215133L1319.911282,1603.212766L1311.731532,1569.280251L1316.480368,1558.675883L1303.798072,1532.960790L1256.426097,1524.212323L1236.518963,1525.007909L1189.585644,1507.245230L1130.971658,1513.077618L1094.630075,1499.822210L1086.799316,1497.435999L1060.908442,1529.779643L1070.560440,1526.067902L1067.869681,1549.397586L1074.060402,1579.353975L1080.978060,1582.005036L1069.585845,1608.249226L1067.176691,1631.312025L1084.497734,1689.630506L1126.083082,1699.438460L1136.815014,1693.341838L1131.617985,1676.376687L1146.896807,1684.063786L1160.459186,1657.820914L1182.453686,1646.422249L1202.423319,1627.070583L1213.637193,1631.842573L1245.794013,1622.034188L1266.025709,1638.734962L1290.957691,1650.133685L1332.006247,1648.808215L1349.877915,1659.676325L1377.634558,1657.555940L1371.535805,1636.348980Z " data-cartodb-id="4" data-created-at="2014-02-09T21:49:08Z" data-name="Yunlin County" data-name-taiwa="Hûn-lîm koān" data-name-tradi="雲林縣" data-updated-at="2014-02-09T22:13:40Z"/><path d="M1560.556918,1821.634577L1562.351224,1802.815513L1531.877509,1783.996241L1545.662647,1752.983399L1537.082054,1740.260027L1551.605956,1730.982248L1545.034626,1717.728775L1556.461768,1691.486468L1588.790532,1692.811901L1591.483025,1651.459154L1616.542095,1643.771302L1620.534096,1629.456580L1618.549559,1578.028442L1609.992218,1555.494793L1593.989305,1543.565349L1611.520341,1461.645286L1603.552474,1423.997915L1594.524612,1414.188081L1599.630581,1372.031520L1611.684065,1359.834837L1612.019439,1338.888948L1588.299090,1327.222613L1586.738279,1302.033137L1607.714887,1289.305684L1606.048516,1274.456527L1622.282373,1250.592423L1620.462082,1238.659604L1639.578434,1216.650814L1642.885523,1191.193970L1665.853737,1203.657396L1697.146681,1209.226105L1726.281756,1221.688751L1720.977260,1212.408045L1738.653896,1206.839350L1730.503911,1189.868040L1777.775675,1212.938170L1813.120390,1221.158629L1800.889963,1258.812032L1772.674631,1291.426640L1778.616088,1331.464983L1763.697023,1357.183934L1766.856858,1372.827196L1787.605198,1400.401068L1773.905182,1433.012038L1778.778003,1444.147394L1781.281553,1487.892294L1776.079772,1523.682326L1779.941660,1558.675883L1775.212640,1572.991289L1779.653572,1657.555940L1775.330377,1670.279975L1781.953713,1707.126036L1781.844672,1706.595514L1783.003585,1706.595514L1783.112628,1707.126036L1783.498763,1707.126036L1781.991054,1740.260027L1755.150253,1738.404712L1738.832859,1769.152283L1753.803110,1784.791102L1738.008027,1819.248866L1730.606500,1889.753148L1724.201314,1901.150148L1730.089455,1921.823882L1708.660620,1939.316455L1696.461797,1921.823882L1671.759677,1910.427011L1654.637304,1878.091138L1629.130384,1878.091138L1621.426940,1866.693994L1593.653829,1859.272682L1565.784214,1819.779352L1560.556918,1821.634577Z " data-cartodb-id="17" data-created-at="2014-02-09T21:49:08Z" data-name="Hualien County" data-name-taiwa="Hoa-liân koān" data-name-tradi="花蓮縣" data-updated-at="2014-02-09T22:12:15Z"/><path d="M643.605239,129.226563L642.168918,133.472254L642.109591,134.002744L641.367938,137.187456L641.241886,137.452701L640.857983,137.452701L637.037204,139.840498L627.541124,144.882519L627.156704,144.882519L620.067710,123.388815L631.556095,134.799069L643.982488,128.430237L644.115098,128.961318L643.731209,128.961318L644.115098,128.961318L643.731209,128.961318L643.605239,129.226563Z M647.333258,131.083868L647.524951,131.083868L648.041920,131.614948L647.333258,131.083868Z M648.021229,129.226563L648.153685,129.757052L647.961993,129.757052L647.524951,131.083868L647.333258,131.083868L647.166825,126.572933L647.358515,126.572933L647.557412,127.369258L647.689900,127.899748L648.021229,129.226563Z M642.168918,133.472254L642.301287,134.002744L642.109591,134.002744L642.168918,133.472254Z M868.981296,0.000000L869.048916,0.265238L868.597612,0.000000L868.981296,0.000000Z M882.755961,15.655562L878.736774,16.451869L869.048916,0.265238L868.981296,0.000000L869.173390,0.000000L869.241010,0.265238L884.497407,11.941036L882.755961,15.655562Z M683.554722,247.044581L683.746506,247.044581L683.300589,247.575071L683.554722,247.044581Z M671.806930,240.675744L671.999215,240.675744L672.064484,240.940989L671.806930,240.675744Z M672.010489,243.064132L671.749330,242.002560L672.133396,242.002560L672.002874,241.472070L672.129896,241.206825L672.513961,241.206825L673.093814,242.002560L672.010489,243.064132Z M672.448548,240.940989L672.513961,241.206825L672.064484,240.940989L671.999215,240.675744L672.448548,240.940989Z M684.884042,243.859867L684.630625,244.390948L683.746506,247.044581L683.554722,247.044581L683.300589,247.575071L683.108805,247.575071L680.687547,250.228703L680.817932,250.759193L680.883121,251.024438L681.528082,252.086008L681.144000,252.086008L681.274498,252.617089L677.508321,241.206825L677.892386,241.206825L684.884042,243.859867Z M750.667698,21.493187L750.418722,22.024257L750.283980,21.493187L750.667698,21.493187Z M750.179479,23.351045L749.987871,23.351045L749.681142,24.412003L749.297420,24.412003L749.499373,25.208313L748.616881,26.269863L748.684134,26.535102L750.226610,22.024257L750.418722,22.024257L750.179479,23.351045Z M643.443789,59.703801L643.376946,59.438560L643.569088,59.438560L643.952867,59.438560L643.569088,59.438560L643.635931,59.703801L643.443789,59.703801Z M640.955746,111.713330L640.896313,112.243819L637.166878,96.587922L648.517464,85.974046L659.576638,97.914731L660.227197,98.976297L660.293707,99.241541L641.383982,102.690893L640.955746,111.713330Z M659.751915,236.961129L660.520032,236.961129L662.456340,240.145253L662.072277,240.145253L659.751915,236.961129Z " data-cartodb-id="10" data-created-at="2014-02-09T21:49:08Z" data-name="Lienchiang County" data-name-taiwa="Liân-kang koān" data-name-tradi="連江縣" data-updated-at="2014-02-09T22:12:35Z"/><path d="M1879.597860,2208.579602L1879.984623,2208.579602L1855.329499,2190.293970L1868.620901,2186.053813L1880.063942,2192.149443L1881.290036,2193.474526L1880.529991,2194.534121L1879.075791,2197.979569L1880.121443,2200.364241L1879.597860,2208.579602Z M1767.797345,1864.308344L1767.518078,1864.838816L1767.324655,1864.838816L1759.341318,1874.115275L1769.915308,1919.968171L1779.849358,1924.208867L1772.321260,1930.039735L1771.934842,1930.039735L1768.668538,1931.100052L1767.494032,1932.955163L1767.160802,1933.220684L1765.008755,1939.846316L1765.061788,1940.111246L1765.167967,1940.641697L1764.781536,1940.641697L1753.332224,1946.207585L1753.703215,1948.062680L1742.761176,2012.465971L1729.240830,2043.739335L1725.557242,2052.485100L1725.327901,2053.280436L1725.009730,2054.605602L1724.920908,2055.135433L1724.691519,2055.930767L1715.096785,2076.867794L1695.513651,2086.408156L1699.036045,2099.394072L1699.088261,2099.659572L1699.281321,2099.659572L1704.414120,2120.861081L1693.849097,2143.917309L1675.611804,2165.383304L1638.665485,2192.149443L1633.138715,2240.380605L1622.355783,2253.630560L1616.306292,2318.555487L1604.039017,2389.838356L1614.716445,2441.775481L1599.816014,2448.930043L1561.184246,2427.996652L1548.326530,2411.302345L1546.939712,2383.743178L1523.731829,2368.639096L1525.448880,2349.294453L1537.994069,2334.984844L1516.580362,2311.135137L1519.419300,2294.705637L1500.072449,2261.580853L1502.323791,2215.204967L1513.417310,2179.693857L1538.224538,2164.058205L1552.253380,2164.588009L1557.933151,2151.072663L1555.191513,2115.295668L1535.426839,2105.225025L1530.619198,2089.588857L1524.533737,2069.446696L1512.417647,2063.881151L1497.449813,2032.078256L1496.100590,2016.441545L1509.058054,1992.058725L1512.526579,1944.351897L1500.533755,1907.511548L1514.650158,1889.223273L1509.309510,1861.657749L1539.439818,1830.911854L1560.556918,1821.634577L1565.784214,1819.779352L1593.653829,1859.272682L1621.426940,1866.693994L1629.130384,1878.091138L1654.637304,1878.091138L1671.759677,1910.427011L1696.461797,1921.823882L1708.660620,1939.316455L1730.089455,1921.823882L1724.201314,1901.150148L1730.606500,1889.753148L1738.008027,1819.248866L1753.803110,1784.791102L1738.832859,1769.152283L1755.150253,1738.404712L1781.991054,1740.260027L1776.909455,1770.212696L1779.432520,1809.176678L1766.861413,1827.200831L1767.797345,1864.308344Z M1724.691519,2055.930767L1725.557242,2052.485100L1725.327901,2053.280436L1724.852523,2053.810267L1724.691519,2055.930767Z M1699.281321,2099.659572L1699.036045,2099.394072L1699.088261,2099.659572L1699.281321,2099.659572Z M1946.300724,2538.228659L1946.788410,2538.758394L1975.919311,2537.168599L1977.966773,2545.912758L1978.067402,2546.443081L1977.825096,2553.332564L1977.925554,2553.862297L1999.371395,2575.060400L1999.421556,2575.325265L1999.521986,2575.855584L1999.622300,2576.385314L1996.392729,2585.924568L1969.964635,2572.145704L1969.576926,2572.145704L1967.353516,2572.675434L1966.966317,2572.675434L1949.538431,2558.366793L1946.300724,2538.228659Z " data-cartodb-id="1" data-created-at="2014-02-09T21:49:08Z" data-name="Taitung County" data-name-taiwa="Tâi-tang koān" data-name-tradi="台東縣" data-updated-at="2014-02-09T22:13:25Z"/></g><g fill="#000" font-family="Arial" font-size="12px" id="mylayer-label" stroke="none"><text text-anchor="middle" y="761.584731547"><tspan dy="0" x="1598.81285063"><![CDATA[Taipei City]]></tspan></text><text text-anchor="middle" y="868.064458602"><tspan dy="0" x="1473.83582491"><![CDATA[Taoyuan County]]></tspan></text><text text-anchor="middle" y="1260.29072359"><tspan dy="0" x="1376.20231004"><![CDATA[Taichung City]]></tspan></text><text text-anchor="middle" y="1902.50370355"><tspan dy="0" x="1219.99546589"><![CDATA[Tainan City]]></tspan></text><text text-anchor="middle" y="740.401142809"><tspan dy="0" x="1677.58863695"><![CDATA[Keelung City]]></tspan></text><text text-anchor="middle" y="1493.68040222"><tspan dy="0" x="1470.0180582"><![CDATA[Nantou County]]></tspan></text><text text-anchor="middle" y="1063.8793326"><tspan dy="0" x="1712.36950662"><![CDATA[Yilan County]]></tspan></text><text text-anchor="middle" y="1707.9975899"><tspan dy="0" x="1241.69379284"><![CDATA[Chiayi City]]></tspan></text><text text-anchor="middle" y="1115.82481375"><tspan dy="0" x="1359.47236335"><![CDATA[Miaoli County]]></tspan></text><text text-anchor="middle" y="1992.02201272"><tspan dy="0" x="1387.14588637"><![CDATA[Kaohsiung City]]></tspan></text><text text-anchor="middle" y="935.621993811"><tspan dy="0" x="1331.32146253"><![CDATA[Hsinchu City]]></tspan></text><text text-anchor="middle" y="998.913033967"><tspan dy="0" x="1455.44051885"><![CDATA[Hsinchu County]]></tspan></text><text text-anchor="middle" y="1133.46567404"><tspan dy="0" x="69.8621585082"><![CDATA[Kinmen County]]></tspan></text><text text-anchor="middle" y="1425.11899391"><tspan dy="0" x="1202.6338124"><![CDATA[Changhua County]]></tspan></text><text text-anchor="middle" y="1646.74116492"><tspan dy="0" x="797.278995775"><![CDATA[Penghu County]]></tspan></text><text text-anchor="middle" y="817.909506388"><tspan dy="0" x="1633.25621577"><![CDATA[New Taipei City]]></tspan></text><text text-anchor="middle" y="1726.33651886"><tspan dy="0" x="1283.74058955"><![CDATA[Chiayi County]]></tspan></text><text text-anchor="middle" y="2294.65894305"><tspan dy="0" x="1475.24713715"><![CDATA[Pingtung County]]></tspan></text><text text-anchor="middle" y="1585.50212619"><tspan dy="0" x="1183.74090907"><![CDATA[Yunlin County]]></tspan></text><text text-anchor="middle" y="1547.07368241"><tspan dy="0" x="1682.64002049"><![CDATA[Hualien County]]></tspan></text><text text-anchor="middle" y="102.332327804"><tspan dy="0" x="677.217979213"><![CDATA[Lienchiang County]]></tspan></text><text text-anchor="middle" y="2072.72261596"><tspan dy="0" x="1616.26868326"><![CDATA[Taitung County]]></tspan></text></g></svg>