<?xml version="1.0" encoding="utf-8"?><!DOCTYPE svg  PUBLIC '-//W3C//DTD SVG 1.1//EN'  'http://www.w3.org/Graphics/SVG/1.1/DTD/svg11.dtd'><svg enable_background="new 0 0 2000 2381" height="2381px" pretty_print="False" style="stroke-linejoin: round; stroke:#000; fill: none;" version="1.1" viewBox="0 0 2000 2381" width="2000px" xmlns="http://www.w3.org/2000/svg" xmlns:xlink="http://www.w3.org/1999/xlink"><defs><style type="text/css"><![CDATA[path { fill-rule: evenodd; }]]></style></defs><metadata><views><view h="2381.58211327" padding="0" w="2000"><proj flip="auto" id="robinson" lon0="-77.0362873868"/><bbox h="3.13" w="2.63" x="-1058.3" y="-654.96"/></view></views></metadata><g class="" id="mylayer"><path d="M1022.532935,0.000000L892.562683,92.707476L933.904662,155.910787L886.789881,296.096601L943.797879,293.042492L1037.027584,292.349544L1080.353668,292.105729L1105.573663,232.218581L1132.132334,133.662221L1052.564795,28.224589L1022.532935,0.000000Z " data-cartodb-id="1" data-created-at="2013-02-26T04:00:55.761Z" data-name="Takoma Park" data-state="DC" data-updated-at="2013-02-26T04:00:56.030Z"/><path d="M1600.177842,769.988445L1381.742849,481.179940L1269.088533,505.565538L1178.249249,525.716116L998.286586,534.058811L993.475926,560.370766L964.249404,767.934452L947.902803,860.239191L995.310304,853.434847L1040.248618,884.247274L1089.760148,879.111816L1323.546496,906.086054L1600.177842,769.988445Z " data-cartodb-id="2" data-created-at="2013-02-26T04:00:55.761Z" data-name="Catholic University-Brookland" data-state="DC" data-updated-at="2013-02-26T04:00:56.030Z"/><path d="M571.299530,2379.582113L1946.743860,1351.676976L1433.466640,1353.192517L1400.545332,1398.312811L1323.291923,1459.195054L1300.687525,1484.871813L1274.365687,1509.071904L1150.893043,1555.289731L1074.732017,1592.709697L1024.234535,1622.050404L1011.354310,1621.318163L946.949490,1603.705958L911.922468,1631.505350L914.349231,1654.757625L878.063471,1732.379666L803.654279,1850.941736L745.337006,1997.707894L623.285202,2128.632167L590.580890,2228.312220L493.044093,2239.018391L467.276505,2300.172519L473.197250,2367.460844L509.950332,2375.725918L571.299530,2379.582113Z " data-cartodb-id="3" data-created-at="2013-02-26T04:00:55.761Z" data-name="Anacostia" data-state="DC" data-updated-at="2013-02-26T04:00:56.030Z"/><path d="M948.211734,1149.779886L1009.421186,1148.752569L1055.948882,1144.116816L1067.181797,1107.442326L1028.957997,1083.134523L984.085380,1055.527195L961.028154,1041.017546L914.528628,1013.282767L896.499266,1004.936776L885.427191,1041.017546L853.545330,1041.274353L821.112288,1147.982083L948.211734,1149.779886Z " data-cartodb-id="4" data-created-at="2013-02-26T04:00:55.761Z" data-name="Shaw" data-state="DC" data-updated-at="2013-02-26T04:00:56.030Z"/><path d="M1157.358522,1534.557009L1258.922271,1501.005155L1279.439012,1487.106834L1364.931792,1380.254221L1382.425852,1353.128299L1385.463028,1340.798530L1382.840279,1331.756778L1380.117763,1318.605256L1381.746958,1308.741706L1388.221735,1300.522141L1396.031429,1292.302631L1405.596437,1284.905119L1415.725322,1273.410808L1426.326301,1253.684507L1430.895079,1227.383264L1440.730075,1203.548246L1456.882870,1176.426200L1445.540336,1166.461053L1416.057673,1140.598277L1367.072576,1139.121521L1338.769960,1127.127762L1309.442305,1154.531234L1253.056901,1218.059813L1157.358522,1534.557009Z " data-cartodb-id="5" data-created-at="2013-02-26T04:00:55.761Z" data-name="Stadium-Armory" data-state="DC" data-updated-at="2013-02-26T04:00:56.030Z"/><path d="M756.829987,1041.787966L733.211365,1128.206425L768.314290,1149.715678L814.944034,1172.637894L821.112288,1147.982083L853.545330,1041.274353L756.829987,1041.787966Z " data-cartodb-id="6" data-created-at="2013-02-26T04:00:55.761Z" data-name="Logan Circle" data-state="DC" data-updated-at="2013-02-26T04:00:56.030Z"/><path d="M914.528628,1013.282767L961.028154,1041.017546L984.085380,1055.527195L1028.957997,1083.134523L1051.855154,1006.233611L1072.954891,935.603051L1089.760148,879.111816L1040.248618,884.247274L995.310304,853.434847L947.902803,860.239191L914.528628,1013.282767Z " data-cartodb-id="7" data-created-at="2013-02-26T04:00:55.761Z" data-name="Ledroit Park" data-state="DC" data-updated-at="2013-02-26T04:00:56.030Z"/><path d="M423.151570,440.123414L481.912817,440.110580L492.428934,465.008712L501.222579,473.864358L487.074140,519.683742L470.412704,519.722247L431.665798,598.235321L433.517512,631.480096L419.269052,692.311421L723.351552,691.592569L791.186115,559.497970L727.951400,558.779197L703.872302,530.542037L684.422723,487.597155L626.399571,476.046193L625.082552,441.393976L615.672442,307.928141L609.888577,300.228644L423.151570,440.123414Z " data-cartodb-id="8" data-created-at="2013-02-26T04:00:55.761Z" data-name="Chevy Chase" data-state="DC" data-updated-at="2013-02-26T04:00:56.030Z"/><path d="M609.888577,300.228644L615.672442,307.928141L626.399571,476.046193L684.422723,487.597155L703.872302,530.542037L727.951400,558.779197L791.186115,559.497970L842.362155,409.681658L886.789881,296.096601L933.904662,155.910787L892.562683,92.707476L609.888577,300.228644Z " data-cartodb-id="9" data-created-at="2013-02-26T04:00:55.761Z" data-name="Barnaby Woods" data-state="DC" data-updated-at="2013-02-26T04:00:56.030Z"/><path d="M990.212181,1271.933893L912.912438,1324.692955L900.397846,1324.692955L898.335539,1367.975558L893.114435,1403.039427L898.265395,1452.875493L916.472208,1457.396802L857.514181,1650.107136L908.455733,1589.421114L989.771810,1571.552442L1004.766325,1529.508759L1076.351256,1525.077106L1064.262477,1580.197713L1157.358522,1534.557009L1252.549500,1219.677928L1309.442305,1154.531234L1338.769960,1127.127762L1055.948882,1144.116816L1009.421186,1148.752569L948.211734,1149.779886L947.363770,1220.538355L945.161745,1234.793274L989.600738,1258.500470L990.212181,1271.933893Z " data-cartodb-id="10" data-created-at="2013-02-26T04:00:55.761Z" data-name="Capitol Hill" data-state="DC" data-updated-at="2013-02-26T04:00:56.030Z"/><path d="M348.641357,496.003758L367.695969,519.593898L431.665798,598.235321L470.412704,519.722247L487.074140,519.683742L501.222579,473.864358L492.428934,465.008712L481.912817,440.110580L423.151570,440.123414L348.641357,496.003758Z " data-cartodb-id="11" data-created-at="2013-02-26T04:00:55.761Z" data-name="Friendship Heights" data-state="DC" data-updated-at="2013-02-26T04:00:56.030Z"/><path d="M348.641357,496.003758L93.716865,682.915034L141.805991,939.583214L180.532017,892.309988L221.913787,879.111816L240.394061,882.835021L308.380515,888.086044L369.157820,811.081872L390.519680,761.965054L419.269052,692.311421L433.517512,631.480096L431.665798,598.235321L348.641357,496.003758Z " data-cartodb-id="12" data-created-at="2013-02-26T04:00:55.761Z" data-name="Au-Tenleytown" data-state="DC" data-updated-at="2013-02-26T04:00:56.030Z"/><path d="M278.352923,1167.706692L281.862914,1144.900141L265.337554,1139.660858L211.635889,1096.964101L189.128433,1064.579762L155.792086,996.719240L141.805991,939.583214L93.716865,682.915034L0.420065,752.491103L84.337945,974.249697L73.115025,1048.606200L86.080913,1067.866952L139.312552,1123.082783L237.474101,1164.175245L278.352923,1167.706692Z " data-cartodb-id="13" data-created-at="2013-02-26T04:00:55.761Z" data-name="The Palisades" data-state="DC" data-updated-at="2013-02-26T04:00:56.030Z"/><path d="M723.351552,691.592569L419.269052,692.311421L390.519680,761.965054L369.157820,811.081872L446.284667,813.123100L525.484453,820.427901L598.712310,802.685914L700.552906,798.770387L722.214889,760.501594L723.351552,691.592569Z " data-cartodb-id="14" data-created-at="2013-02-26T04:00:55.761Z" data-name="Cleveland Park" data-state="DC" data-updated-at="2013-02-26T04:00:56.030Z"/><path d="M989.600738,1258.500470L945.161745,1234.793274L860.153561,1194.982649L838.254088,1194.982649L803.294321,1209.622536L814.944034,1172.637894L768.314290,1149.715678L733.211365,1128.206425L676.148712,1151.834521L682.988651,1191.130076L669.077172,1237.361746L642.543177,1324.179224L912.912438,1324.692955L990.212181,1271.933893L989.600738,1258.500470Z " data-cartodb-id="15" data-created-at="2013-02-26T04:00:55.761Z" data-name="Downtown" data-state="DC" data-updated-at="2013-02-26T04:00:56.030Z"/><path d="M806.648909,875.427138L776.121932,976.689228L794.760167,976.432435L807.921579,967.701508L877.716869,955.118812L889.177375,959.997802L898.758120,994.664865L896.499266,1004.936776L914.528628,1013.282767L947.902803,860.239191L964.249404,767.934452L945.383657,769.988445L897.586695,752.144497L869.523686,735.802752L849.066433,731.861767L806.648909,875.427138Z " data-cartodb-id="16" data-created-at="2013-02-26T04:00:55.761Z" data-name="Columbia Heights" data-state="DC" data-updated-at="2013-02-26T04:00:56.030Z"/><path d="M1178.249249,525.716116L1269.088533,505.565538L1381.742849,481.179940L1132.132334,133.662221L1105.573663,232.218581L1080.353668,292.105729L1024.678676,444.461299L998.286586,534.058811L1178.249249,525.716116Z " data-cartodb-id="17" data-created-at="2013-02-26T04:00:55.761Z" data-name="Fort Totten-Upper Northeast" data-state="DC" data-updated-at="2013-02-26T04:00:56.030Z"/><path d="M1433.466640,1353.192517L1947.338309,1351.676976L1999.579935,1313.146902L1795.432472,1030.514209L1755.766914,980.553967L1747.001195,997.284194L1722.135463,1017.828146L1699.074161,1030.154683L1643.929530,1029.332910L1632.262835,1032.620005L1623.053503,1043.303126L1615.020292,1058.917085L1604.169589,1079.462070L1579.156014,1104.938330L1570.183877,1114.800250L1551.453628,1146.017344L1521.152801,1184.644939L1497.613548,1208.068645L1479.025894,1232.263335L1478.086067,1258.359201L1433.466640,1353.192517Z " data-cartodb-id="18" data-created-at="2013-02-26T04:00:55.761Z" data-name="Deanwood" data-state="DC" data-updated-at="2013-02-26T04:00:56.030Z"/><path d="M738.469616,989.528941L776.121932,976.689228L806.648909,875.427138L753.521321,872.076273L725.732722,869.482889L673.863365,877.250217L658.336886,922.892295L641.278823,950.021574L645.455833,981.568303L653.533892,984.521437L660.987851,1011.356764L658.327973,1038.192679L720.322025,1005.501733L738.469616,989.528941Z " data-cartodb-id="19" data-created-at="2013-02-26T04:00:55.761Z" data-name="Adams Morgan" data-state="DC" data-updated-at="2013-02-26T04:00:56.030Z"/><path d="M964.249404,767.934452L993.475926,560.370766L934.111205,559.472300L791.186115,559.497970L723.351552,691.592569L722.214889,760.501594L849.066433,731.861767L869.523686,735.802752L897.586695,752.144497L945.383657,769.988445L964.249404,767.934452Z " data-cartodb-id="20" data-created-at="2013-02-26T04:00:55.761Z" data-name="Petworth" data-state="DC" data-updated-at="2013-02-26T04:00:56.030Z"/><path d="M298.322881,1098.004215L295.552815,1034.854208L266.047889,1026.045823L234.149894,1037.049894L209.398661,1048.041222L189.128433,1064.579762L211.635889,1096.964101L265.337554,1139.660858L281.862914,1144.900141L298.322881,1098.004215Z " data-cartodb-id="21" data-created-at="2013-02-26T04:00:55.761Z" data-name="Foxhall Village" data-state="DC" data-updated-at="2013-02-26T04:00:56.030Z"/><path d="M450.104489,885.531142L418.093258,885.531142L446.284667,813.123100L369.157820,811.081872L308.380515,888.086044L286.951354,936.964008L294.603529,985.266141L371.175372,982.454242L386.472858,1008.788765L402.595193,1012.383965L430.832166,1009.687564L443.074569,1002.625588L468.866864,997.348393L468.402475,909.924892L450.104489,885.531142Z " data-cartodb-id="22" data-created-at="2013-02-26T04:00:55.761Z" data-name="Glover Park" data-state="DC" data-updated-at="2013-02-26T04:00:56.030Z"/><path d="M613.380824,1082.389759L623.456283,1071.577891L644.566491,1050.647825L658.327973,1038.192679L660.987851,1011.356764L653.533892,984.521437L645.455833,981.568303L641.278823,950.021574L525.638604,1005.745692L593.337848,1082.980434L613.380824,1082.389759Z " data-cartodb-id="23" data-created-at="2013-02-26T04:00:55.761Z" data-name="Kalorama" data-state="DC" data-updated-at="2013-02-26T04:00:56.030Z"/><path d="M1072.954891,935.603051L1028.957997,1083.134523L1067.181797,1107.442326L1055.948882,1144.116816L1338.769960,1127.127762L1367.072576,1139.121521L1416.057673,1140.598277L1445.540336,1166.461053L1456.882870,1176.426200L1467.609984,1167.385651L1479.923963,1160.836431L1494.205175,1141.086249L1508.911709,1125.471245L1522.481687,1118.074733L1537.901897,1115.622081L1552.613513,1122.183901L1586.714616,1083.930650L1607.011750,1058.917085L1616.305586,1045.768474L1621.100930,1034.263556L1631.655525,1023.580514L1641.235467,1022.758746L1693.957653,1022.758746L1711.704749,1017.006381L1755.770777,980.541128L1600.177842,769.988445L1323.546496,906.086054L1089.760148,879.111816L1072.954891,935.603051Z " data-cartodb-id="24" data-created-at="2013-02-26T04:00:55.761Z" data-name="Brentwood" data-state="DC" data-updated-at="2013-02-26T04:00:56.030Z"/><path d="M814.944034,1172.637894L803.294321,1209.622536L838.254088,1194.982649L860.153561,1194.982649L945.161745,1234.793274L947.363770,1220.538355L948.211734,1149.779886L821.112288,1147.982083L814.944034,1172.637894Z " data-cartodb-id="25" data-created-at="2013-02-26T04:00:55.761Z" data-name="Mount Vernon Square" data-state="DC" data-updated-at="2013-02-26T04:00:56.030Z"/><path d="M446.284667,813.123100L418.093258,885.531142L450.104489,885.531142L468.402475,909.924892L468.866864,997.348393L506.464843,1016.017696L525.638604,1005.745692L641.278823,950.021574L658.336886,922.892295L673.863365,877.250217L700.552906,798.770387L598.712310,802.685914L525.484453,820.427901L446.284667,813.123100Z " data-cartodb-id="26" data-created-at="2013-02-26T04:00:55.761Z" data-name="Woodley Park" data-state="DC" data-updated-at="2013-02-26T04:00:56.030Z"/><path d="M294.603529,985.266141L295.552815,1034.854208L298.322881,1098.004215L281.862914,1144.900141L278.352923,1167.706692L374.122737,1174.435733L437.299270,1200.132274L481.975226,1225.110185L487.420116,1203.728035L508.846466,1184.477995L517.901889,1164.303661L551.171351,1117.252902L567.489365,1108.392562L591.102878,1112.360445L598.196281,1098.671943L593.337848,1082.980434L525.638604,1005.745692L506.464843,1016.017696L468.866864,997.348393L443.074569,1002.625588L430.832166,1009.687564L402.595193,1012.383965L386.472858,1008.788765L371.175372,982.454242L294.603529,985.266141Z " data-cartodb-id="27" data-created-at="2013-02-26T04:00:55.761Z" data-name="Georgetown" data-state="DC" data-updated-at="2013-02-26T04:00:56.030Z"/><path d="M642.543177,1324.179224L669.077172,1237.361746L682.988651,1191.130076L676.148712,1151.834521L612.826462,1152.605010L607.630418,1157.741616L594.205043,1157.998447L591.102878,1112.360445L567.489365,1108.392562L551.171351,1117.252902L540.276948,1132.829277L517.901889,1164.303661L508.846466,1184.477995L487.420116,1203.728035L481.975226,1225.110185L469.372845,1309.653567L510.545322,1321.995869L642.543177,1324.179224Z " data-cartodb-id="28" data-created-at="2013-02-26T04:00:55.761Z" data-name="Foggy Bottom" data-state="DC" data-updated-at="2013-02-26T04:00:56.030Z"/><path d="M308.380515,888.086044L240.394061,882.835021L221.913787,879.111816L180.532017,892.309988L141.188409,939.660249L156.082662,997.104436L188.938554,1064.310110L209.355587,1048.426434L234.149894,1037.049894L266.047889,1026.045823L295.552815,1034.854208L294.603529,985.266141L286.951354,936.964008L308.380515,888.086044Z " data-cartodb-id="29" data-created-at="2013-02-26T04:00:55.761Z" data-name="Berkley" data-state="DC" data-updated-at="2013-02-26T04:00:56.030Z"/><path d="M725.732722,869.482889L753.521321,872.076273L806.648909,875.427138L849.066433,731.861767L722.214889,760.501594L700.552906,798.770387L673.863365,877.250217L725.732722,869.482889Z " data-cartodb-id="30" data-created-at="2013-02-26T04:00:55.761Z" data-name="Mount Pleasant" data-state="DC" data-updated-at="2013-02-26T04:00:56.030Z"/><path d="M756.829987,1041.787966L853.545330,1041.274353L885.427191,1041.017546L896.499266,1004.936776L898.758120,994.664865L889.177375,959.997802L877.716869,955.118812L807.921579,967.701508L794.760167,976.432435L776.121932,976.689228L753.572271,984.393040L737.082927,1041.916369L756.829987,1041.787966Z " data-cartodb-id="31" data-created-at="2013-02-26T04:00:55.761Z" data-name="U Street Corridor" data-state="DC" data-updated-at="2013-02-26T04:00:56.030Z"/><path d="M916.472208,1457.396802L898.265395,1452.875493L893.114435,1403.039427L896.769063,1378.494615L627.110127,1379.727624L643.107471,1415.665231L659.457010,1453.145230L705.066127,1453.903062L755.686721,1529.367460L764.179689,1584.385488L730.218364,1725.236491L744.031139,1734.782146L773.832524,1720.842687L787.188097,1692.231951L799.792179,1690.793080L818.540663,1692.964233L841.385656,1672.421935L857.514181,1650.107136L916.472208,1457.396802Z " data-cartodb-id="32" data-created-at="2013-02-26T04:00:55.761Z" data-name="South West" data-state="DC" data-updated-at="2013-02-26T04:00:56.030Z"/><path d="M998.286586,534.058811L1024.678676,444.461299L1080.353668,292.105729L1037.027584,292.349544L943.797879,293.042492L886.789881,296.096601L842.362155,409.681658L791.186115,559.497970L934.111205,559.472300L993.475926,560.370766L998.286586,534.058811Z " data-cartodb-id="33" data-created-at="2013-02-26T04:00:55.761Z" data-name="Brightwood" data-state="DC" data-updated-at="2013-02-26T04:00:56.030Z"/><path d="M737.082927,1041.916369L753.572271,984.393040L738.469616,989.528941L720.322025,1005.501733L658.327973,1038.192679L644.566491,1050.647825L623.456283,1071.577891L613.380824,1082.389759L593.337848,1082.980434L598.196281,1098.671943L591.102878,1112.360445L594.205043,1157.998447L607.630418,1157.741616L612.826462,1152.605010L676.148712,1151.834521L733.211365,1128.206425L756.829987,1041.787966L737.082927,1041.916369Z " data-cartodb-id="34" data-created-at="2013-02-26T04:00:55.761Z" data-name="Dupont Circle" data-state="DC" data-updated-at="2013-02-26T04:00:56.030Z"/></g><g fill="#000" font-family="Arial" font-size="12px" id="mylayer-label" stroke="none"><text text-anchor="middle" y="159.398960832"><tspan dy="0" x="1010.08313667"><![CDATA[Takoma Park]]></tspan></text><text text-anchor="middle" y="699.53363623"><tspan dy="0" x="1245.81641396"><![CDATA[Catholic University-Brookland]]></tspan></text><text text-anchor="middle" y="1769.4913563"><tspan dy="0" x="1151.58969276"><![CDATA[Anacostia]]></tspan></text><text text-anchor="middle" y="1090.50440276"><tspan dy="0" x="935.51150023"><![CDATA[Shaw]]></tspan></text><text text-anchor="middle" y="1310.40852892"><tspan dy="0" x="1305.07993338"><![CDATA[Stadium-Armory]]></tspan></text><text text-anchor="middle" y="1090.88349673"><tspan dy="0" x="792.345666631"><![CDATA[Logan Circle]]></tspan></text><text text-anchor="middle" y="952.020412762"><tspan dy="0" x="997.983406319"><![CDATA[Ledroit Park]]></tspan></text><text text-anchor="middle" y="543.403178933"><tspan dy="0" x="583.867364458"><![CDATA[Chevy Chase]]></tspan></text><text text-anchor="middle" y="327.778100386"><tspan dy="0" x="767.721103554"><![CDATA[Barnaby Woods]]></tspan></text><text text-anchor="middle" y="1337.91500611"><tspan dy="0" x="1070.60158642"><![CDATA[Capitol Hill]]></tspan></text><text text-anchor="middle" y="497.126618366"><tspan dy="0" x="429.965584181"><![CDATA[Friendship Heights]]></tspan></text><text text-anchor="middle" y="709.478638961"><tspan dy="0" x="266.222336992"><![CDATA[Au-Tenleytown]]></tspan></text><text text-anchor="middle" y="930.760287523"><tspan dy="0" x="113.323280813"><![CDATA[The Palisades]]></tspan></text><text text-anchor="middle" y="745.732083697"><tspan dy="0" x="551.724649907"><![CDATA[Cleveland Park]]></tspan></text><text text-anchor="middle" y="1243.49515079"><tspan dy="0" x="795.005992164"><![CDATA[Downtown]]></tspan></text><text text-anchor="middle" y="859.828749197"><tspan dy="0" x="877.075523687"><![CDATA[Columbia Heights]]></tspan></text><text text-anchor="middle" y="383.759157187"><tspan dy="0" x="1171.14805249"><![CDATA[Fort Totten-Upper Northeast]]></tspan></text><text text-anchor="middle" y="1210.81447089"><tspan dy="0" x="1715.21458389"><![CDATA[Deanwood]]></tspan></text><text text-anchor="middle" y="933.498343874"><tspan dy="0" x="717.840040238"><![CDATA[Adams Morgan]]></tspan></text><text text-anchor="middle" y="652.384708296"><tspan dy="0" x="863.934113177"><![CDATA[Petworth]]></tspan></text><text text-anchor="middle" y="1073.2914355"><tspan dy="0" x="254.318834943"><![CDATA[Foxhall Village]]></tspan></text><text text-anchor="middle" y="912.19513233"><tspan dy="0" x="384.588166378"><![CDATA[Glover Park]]></tspan></text><text text-anchor="middle" y="1012.42485127"><tspan dy="0" x="603.831878556"><![CDATA[Kalorama]]></tspan></text><text text-anchor="middle" y="984.118859346"><tspan dy="0" x="1385.22210154"><![CDATA[Brentwood]]></tspan></text><text text-anchor="middle" y="1174.88879153"><tspan dy="0" x="887.234849841"><![CDATA[Mount Vernon Square]]></tspan></text><text text-anchor="middle" y="885.32024173"><tspan dy="0" x="558.133447526"><![CDATA[Woodley Park]]></tspan></text><text text-anchor="middle" y="1086.48708325"><tspan dy="0" x="424.377328459"><![CDATA[Georgetown]]></tspan></text><text text-anchor="middle" y="1225.35444691"><tspan dy="0" x="576.537227839"><![CDATA[Foggy Bottom]]></tspan></text><text text-anchor="middle" y="956.244359996"><tspan dy="0" x="224.572229891"><![CDATA[Berkley]]></tspan></text><text text-anchor="middle" y="804.595857166"><tspan dy="0" x="764.33045037"><![CDATA[Mount Pleasant]]></tspan></text><text text-anchor="middle" y="998.357411582"><tspan dy="0" x="824.361975967"><![CDATA[U Street Corridor]]></tspan></text><text text-anchor="middle" y="1504.59635043"><tspan dy="0" x="796.272033233"><![CDATA[South West]]></tspan></text><text text-anchor="middle" y="421.204332648"><tspan dy="0" x="935.502479901"><![CDATA[Brightwood]]></tspan></text><text text-anchor="middle" y="1080.7381753"><tspan dy="0" x="677.88469706"><![CDATA[Dupont Circle]]></tspan></text></g></svg>