<?xml version="1.0" encoding="utf-8"?><!DOCTYPE svg  PUBLIC '-//W3C//DTD SVG 1.1//EN'  'http://www.w3.org/Graphics/SVG/1.1/DTD/svg11.dtd'><svg enable_background="new 0 0 2000 1048" height="1048px" pretty_print="False" style="stroke-linejoin: round; stroke:#000; fill: none;" version="1.1" viewBox="0 0 2000 1048" width="2000px" xmlns="http://www.w3.org/2000/svg" xmlns:xlink="http://www.w3.org/1999/xlink"><defs><style type="text/css"><![CDATA[path { fill-rule: evenodd; }]]></style></defs><metadata><views><view h="1048.40356229" padding="0" w="2000"><proj flip="auto" id="robinson" lon0="-82.910860566"/><bbox h="1.78" w="3.39" x="-1121.0" y="-710.3"/></view></views></metadata><g class="" id="mylayer"><path d="M1990.124980,123.898321L1990.233393,123.285747L1990.382462,122.443457L1990.593099,121.275738L1990.644211,120.998166L1990.831426,119.974020L1991.066075,118.681874L1991.065492,118.662731L1991.297047,117.399300L1991.531117,116.088013L1991.656185,115.370155L1991.911172,113.963156L1992.258517,112.068015L1992.594245,110.182448L1992.892997,108.517025L1993.189240,106.899460L1993.521300,105.023470L1993.831868,103.224053L1994.138760,101.434209L1994.202266,101.041783L1994.213307,101.013069L1994.630388,98.668090L1994.701256,98.256522L1995.455863,94.083425L1995.492264,93.844142L1995.543969,93.585717L1995.842176,91.901168L1996.192093,89.958195L1996.538335,88.024795L1996.912276,85.957401L1997.286222,83.890008L1997.649134,81.851332L1997.652231,81.822618L1998.053885,79.621234L1998.599821,76.548871L1999.045258,74.089071L1996.524096,74.117784L1990.977073,74.165640L1990.960418,74.270924L1983.248334,74.433634L1981.831409,82.167183L1981.828312,82.195897L1979.994538,82.234182L1978.648996,82.262896L1977.299773,82.301181L1974.295212,82.368179L1973.937757,82.368179L1973.600451,82.377751L1972.397891,82.406464L1967.936579,82.502177L1961.943344,82.636174L1958.938782,82.703173L1957.744165,82.731887L1956.541604,82.760600L1956.239753,82.760600L1954.886266,82.789314L1953.989237,82.808457L1953.588384,82.818028L1951.698589,82.320323L1950.669412,82.042757L1949.392242,81.707763L1947.958720,81.324914L1945.268182,80.616642L1942.709586,79.937084L1941.428158,79.592520L1940.146730,79.247956L1938.869566,78.912963L1937.588140,78.568399L1936.050778,78.166407L1934.769354,77.821843L1933.484249,77.486850L1932.210769,77.142287L1930.913460,76.797723L1929.548341,76.443588L1928.395178,76.137309L1927.326295,75.859744L1926.441274,75.620464L1925.552573,75.390755L1924.655929,75.161046L1923.767228,74.931337L1922.882209,74.692057L1921.985565,74.462348L1920.848293,74.156069L1919.911352,73.907218L1918.722158,73.591368L1917.148772,73.179807L1914.469892,72.461968L1911.382994,71.648416L1909.488970,71.141144L1907.583323,70.643442L1905.681359,70.136170L1904.283899,69.762894L1903.274893,69.494901L1901.893903,69.140767L1900.840918,68.863203L1899.499646,68.509070L1898.046587,68.135794L1897.694171,68.040083L1896.573379,67.752948L1895.247996,67.398815L1893.934820,67.054253L1892.613701,66.709691L1891.692658,66.460841L1891.296265,66.355558L1889.975147,66.010996L1888.657712,65.656864L1887.336596,65.312302L1886.067403,64.977312L1884.682161,64.613608L1883.449005,64.288189L1882.031410,63.905344L1880.586304,63.532069L1878.388133,62.948229L1876.694462,62.498386L1875.505289,62.182538L1874.788841,62.000687L1874.076074,61.809264L1873.371251,61.617842L1873.009489,63.570354L1872.898479,63.445929L1871.753650,64.068053L1871.477374,64.125480L1870.692526,64.307332L1870.298458,64.278618L1869.347773,64.230762L1868.767335,63.819203L1868.592591,63.426786L1868.759412,63.034370L1868.529843,62.536670L1868.361290,62.479244L1868.076107,62.373961L1867.493721,62.421817L1866.899327,62.335677L1866.883440,62.335677L1866.167573,62.172967L1866.071672,62.153825L1866.042419,62.105969L1865.880463,61.742266L1865.929877,61.407277L1865.821004,61.091430L1865.473634,60.900007L1865.207438,60.766011L1864.231962,60.555446L1863.572861,60.431022L1862.168642,60.096032L1861.808487,59.875897L1861.505096,59.694045L1861.288119,59.349485L1860.799511,59.215489L1860.448064,59.282487L1860.301983,59.311201L1859.855215,59.378198L1859.136845,58.870929L1858.518822,58.660365L1858.242165,58.574225L1856.873022,58.086098L1856.379374,58.047813L1855.846009,58.009529L1854.967780,58.124382L1853.939390,58.526369L1853.404085,58.555082L1852.488079,58.602938L1851.984564,58.239236L1851.909211,57.980816L1851.497534,57.502260L1850.865005,56.813140L1850.431640,56.143163L1850.146498,55.253051L1849.444603,54.764925L1848.510812,54.094949L1847.794193,53.645108L1846.642053,53.109127L1845.921753,52.668857L1845.626311,52.487007L1845.130166,52.104164L1844.127010,51.635181L1843.742830,51.539470L1842.975051,51.367191L1842.577886,51.367191L1842.379303,51.367191L1841.780476,51.003490L1841.633638,50.745071L1841.518951,50.630218L1841.343240,50.467510L1840.840693,50.266517L1840.432885,50.046383L1840.199049,49.931530L1839.752686,49.749680L1839.322209,49.567830L1839.088953,49.472119L1838.200691,48.993566L1837.086537,48.400160L1836.238573,47.940749L1835.974906,47.758899L1834.883048,46.983644L1834.253817,46.533805L1833.789250,46.275387L1832.678204,45.653269L1832.355255,45.480990L1831.580147,44.935441L1830.813564,44.409034L1829.819933,43.729490L1829.633666,44.791875L1829.078043,44.543028L1827.451676,43.691206L1824.622261,42.064132L1821.348273,39.920224L1820.738621,39.460815L1817.699024,37.843316L1816.294677,37.240343L1815.327377,36.905358L1814.211100,36.503376L1812.688187,35.919546L1811.442463,35.833407L1810.498169,35.996114L1809.694743,35.957830L1808.742133,35.976972L1807.626769,36.130108L1806.736133,36.359812L1805.953227,36.474663L1805.356119,36.560802L1802.408181,36.790506L1801.866675,36.876645L1801.396658,36.962784L1800.998130,37.048923L1800.880140,37.087207L1800.968923,36.608657L1800.054456,36.838361L1799.434097,36.943642L1799.805327,34.905022L1800.138376,33.048252L1798.637684,33.067394L1798.285437,35.077299L1795.716831,35.374000L1793.528342,35.632416L1791.367364,35.881262L1791.158969,37.001068L1788.547423,36.666083L1787.092280,36.484234L1786.366549,36.388525L1785.629194,36.302386L1784.177734,36.110966L1782.730535,35.929117L1781.259507,35.747268L1779.792161,35.555849L1778.887420,35.450568L1778.334126,35.278290L1776.818962,34.818883L1776.269930,34.656176L1775.764875,34.503040L1774.081168,33.986207L1773.856343,34.694460L1773.316810,37.604041L1773.303239,37.680609L1773.125659,38.637709L1772.644685,41.250595L1772.573729,41.662149L1766.624590,41.805714L1766.732161,41.422873L1768.058477,36.819219L1768.288302,36.407667L1769.124279,34.895451L1767.899704,34.589179L1768.093967,33.526801L1768.428107,32.493136L1768.295597,32.445281L1762.625561,30.521517L1746.646381,25.085221L1746.037494,24.912944L1744.127119,34.771028L1742.975843,40.963464L1741.968007,45.461848L1741.629719,47.146352L1741.456138,48.629866L1741.268410,50.170807L1741.024249,52.209445L1740.641954,54.276800L1740.260822,56.382441L1739.885324,58.411516L1739.507307,60.488449L1738.945527,63.579925L1738.563264,65.647293L1738.380078,66.680978L1737.984254,68.824919L1737.394791,72.050406L1736.106785,79.094816L1735.350294,83.229592L1734.024795,90.475044L1733.718384,92.159593L1733.561788,93.021010L1733.176506,95.117127L1732.706731,97.701385L1731.381375,104.946899L1730.816099,108.048026L1729.303465,116.317727L1729.284167,122.357314L1728.403511,132.598818L1728.222939,133.584685L1728.039268,134.599268L1727.848237,135.632994L1727.665150,136.666721L1727.470440,137.710021L1727.279413,138.743749L1726.892326,140.906923L1725.850044,146.343586L1724.627837,152.785288L1724.497270,153.455302L1724.099942,155.149484L1714.790744,205.822571L1709.512488,235.151243L1708.756383,242.263331L1705.334692,258.727498L1960.014910,291.780754L1960.282504,290.277884L1961.323929,284.486583L1963.388527,272.951901L1963.466654,272.521147L1965.314843,262.211795L1965.324702,262.144790L1965.667401,260.239912L1965.714782,259.971889L1965.952275,258.650920L1966.186093,257.339524L1966.423592,256.018557L1966.650058,254.726307L1966.884470,253.434059L1967.110941,252.141812L1967.349036,250.839993L1967.575511,249.547748L1967.809933,248.255503L1968.040091,246.953687L1968.274517,245.661445L1968.508945,244.369203L1968.735432,243.076963L1968.973543,241.775151L1969.200034,240.482913L1969.434472,239.190675L1969.664646,237.888867L1969.899088,236.596631L1970.125588,235.304396L1970.363714,234.002591L1970.729300,231.935019L1971.153907,229.589860L1971.292992,228.814522L1971.432078,228.039185L1971.852432,225.684459L1972.218041,223.616897L1972.341086,222.965999L1972.452509,222.324672L1972.567610,221.673774L1972.682713,221.022877L1972.802081,220.381551L1972.917185,219.730654L1973.032289,219.079757L1973.151659,218.438432L1973.381870,217.136639L1973.616348,215.844420L1973.842885,214.552201L1974.081047,213.250411L1974.307588,211.958194L1974.542076,210.665979L1974.768622,209.373764L1975.017243,208.024118L1975.254244,206.684046L1975.494926,205.334402L1975.745476,203.917756L1976.007650,202.491540L1976.258205,201.074896L1976.512441,199.648682L1976.790675,198.098034L1977.068912,196.547388L1977.371148,194.872309L1977.669123,193.187659L1977.988004,191.407293L1978.245938,189.971515L1978.279214,189.760934L1978.466334,188.736747L1978.582051,188.105006L1978.856630,186.563940L1979.107215,185.147310L1979.369427,183.721109L1979.630469,182.256622L1979.895194,180.782565L1979.946283,180.504983L1980.145791,179.365939L1980.359431,178.169466L1980.380336,178.073748L1980.606939,176.781558L1980.841489,175.489369L1980.954123,174.886348L1981.079720,174.187609L1981.173959,173.632447L1981.336517,172.713559L1981.401741,172.378548L1981.608034,171.201223L1981.635713,171.067218L1981.862914,169.794177L1981.866008,169.765462L1982.100570,168.473278L1982.117796,168.387132L1982.327190,167.181095L1982.351775,167.075806L1982.548794,165.984630L1982.629493,165.506045L1982.758777,164.797738L1982.888062,164.089432L1983.128238,162.720679L1983.227335,162.194236L1983.404040,161.217923L1983.441589,161.016918L1983.624484,159.983176L1983.668222,159.724741L1983.807381,158.949435L1983.944031,158.221988L1984.017960,157.781691L1984.208219,156.728808L1984.677391,154.144461L1984.874429,153.053293L1984.934813,152.689571L1985.057920,152.038700L1985.196502,151.244254L1985.298118,150.669956L1985.461874,149.789367L1985.543168,149.329929L1985.723569,148.344052L1985.756857,148.133477L1985.974813,146.946597L1985.981003,146.889167L1986.219284,145.587429L1986.470533,144.189976L1986.508087,143.988973L1986.654037,143.175388L1986.765529,142.534092L1986.840052,142.112942L1987.027238,141.088783L1987.047563,140.973924L1987.261850,139.796621L1987.292630,139.633904L1987.476140,138.619319L1987.546401,138.188599L1987.678807,137.451589L1987.811799,136.733722L1987.914010,136.178572L1988.073519,135.288419L1988.141272,134.905557L1988.330979,133.833545L1988.368535,133.632543L1988.592705,132.388244L1988.603744,132.359529L1988.830428,131.067374L1988.906126,130.684513L1989.065058,129.775219L1989.272588,128.636210L1989.449337,127.659917L1989.863237,125.343615L1990.124980,123.898321Z " data-cartodb-id="1" data-created-at="2013-03-18T01:33:56.648Z" data-name="East Riverside" data-updated-at="2013-03-18T01:33:56.967Z"/><path d="M1085.795069,302.454041L1094.704177,293.111322L1086.450465,237.094381L1081.129012,202.453252L1079.819215,191.263715L1077.484096,177.537729L1031.183404,171.727669L1027.142845,171.823386L1019.358523,172.110539L1015.063701,171.277797L1007.071580,166.491931L998.743788,167.860687L998.978415,169.459166L998.388941,169.669744L997.641739,169.918610L996.647129,170.129188L995.842597,170.320623L995.412814,170.425912L995.204651,169.047582L992.975391,169.411308L993.172739,170.693920L992.570248,171.000216L991.941055,171.210794L991.027604,171.478803L990.179093,171.660666L989.677815,171.765956L984.488401,173.153859L981.808152,173.843026L979.510262,174.302470L976.641893,174.943779L976.449382,173.689878L970.044781,174.953350L970.296436,176.590123L969.581245,176.714556L966.218627,177.298434L963.482761,177.987602L960.397696,178.820348L957.340719,179.662665L954.275797,180.504983L951.218816,181.347301L949.048349,181.950325L946.581993,182.620351L943.517064,183.462670L940.459503,184.285846L937.398255,185.118595L934.337579,185.970487L931.280586,186.812808L928.215647,187.655129L924.682347,188.641029L922.097967,189.349345L919.040967,190.191668L915.979132,191.005275L912.658587,191.933745L912.020291,192.106039L912.020865,192.125183L911.780583,192.192186L911.780009,192.173042L909.852344,192.661207L906.787392,193.503531L903.730383,194.345856L900.669686,195.197753L897.612672,196.040078L894.524455,196.901548L891.494954,197.734302L889.155100,198.385191L886.504613,199.141371L886.085302,199.198803L883.035318,199.878408L881.563230,200.194281L879.840618,200.500582L876.745503,201.132328L876.003357,201.285478L876.273581,207.516805L876.367355,209.584347L877.776310,219.213765L878.986316,227.503149L880.036567,234.701354L881.316211,243.450277L882.582058,252.132239L883.932315,260.842963L884.381015,264.403844L884.386198,264.576144L884.371808,264.758018L884.357418,264.939891L884.331399,265.131336L884.301120,265.313209L884.270842,265.495083L884.220990,265.686528L884.163195,265.877974L884.109083,266.059847L884.035399,266.251292L883.961715,266.442738L883.880087,266.634184L883.794198,266.816057L883.696681,267.007503L883.591220,267.198948L883.481499,267.380822L883.363833,267.562695L883.238223,267.744569L883.112613,267.926442L882.971115,268.108316L882.829616,268.290189L882.683858,268.462490L882.530155,268.634792L882.368507,268.807093L882.210544,268.969822L882.036693,269.132551L881.862841,269.295280L881.684729,269.448437L881.506618,269.601594L881.312617,269.754750L881.122301,269.898335L880.924040,270.041919L880.729464,270.175931L880.526943,270.309944L880.320162,270.434384L880.113381,270.558824L879.902340,270.673691L879.683355,270.788559L879.468054,270.893854L879.256437,270.989577L879.036875,271.085300L880.129796,278.628295L881.240434,286.228757L882.439174,294.508897L883.665906,302.923092L888.149066,333.555330L903.099219,434.655252L903.135397,451.542532L908.367708,484.733619L937.382522,454.921923L969.645070,421.769722L976.244407,415.001508L1004.697011,385.746290L1045.709969,343.625799L1085.795069,302.454041Z " data-cartodb-id="2" data-created-at="2013-03-18T01:33:56.648Z" data-name="Walkerville" data-updated-at="2013-03-18T01:33:56.967Z"/><path d="M507.601552,323.609364L507.188517,323.877397L506.774664,324.250729L506.172501,320.325964L503.316390,322.049030L503.352510,322.326635L491.694564,331.104730L487.988713,333.899946L487.720646,334.100971L487.462647,333.842510L486.774079,333.134133L483.921732,335.115674L480.754223,337.317390L475.244128,341.146467L476.641672,342.448356L474.980854,343.893836L474.197374,344.525635L473.562548,345.080853L472.949835,345.578635L471.951363,346.459327L469.889957,348.057974L467.468347,350.096970L468.919051,350.786208L468.069567,351.733912L464.837261,350.183125L460.484292,353.255982L459.540989,352.796489L459.224105,352.959226L458.879459,353.255982L458.124072,353.897358L457.007244,354.672753L455.808763,355.639604L453.435303,357.429716L450.815494,359.880354L449.354505,360.703616L448.818279,360.837636L448.375427,361.038665L447.752473,361.459869L447.074570,362.168258L445.704175,363.230842L443.838939,365.145409L442.543824,366.466461L440.925177,367.596058L439.920151,368.390605L439.639156,368.955404L439.670120,369.060705L434.354570,373.416364L433.189019,374.421518L436.647301,376.087202L433.445958,379.677045L430.060314,378.049648L426.675946,382.424476L432.540554,385.248496L432.197988,387.335402L423.331116,383.085009L420.277085,386.023906L416.308300,389.853094L410.945296,394.744895L418.769327,398.526239L414.280653,403.561661L410.040111,401.513027L407.762622,400.412127L407.147141,401.082240L405.549190,402.901120L412.067239,406.050659L416.723012,408.300333L419.101281,409.449104L417.690822,411.028665L402.877218,403.877572L400.357856,406.232547L395.594132,410.310683L392.056873,413.163469L388.829470,416.016260L386.984789,417.423511L398.885905,423.224844L394.415153,428.193328L402.309047,432.041760L402.218079,432.319384L401.891406,432.817191L401.164827,433.755368L393.004702,429.772907L388.572542,434.703118L384.152025,439.623771L378.244054,443.826441L379.727835,444.554011L373.811925,448.756693L381.165602,452.337119L380.468501,452.538159L379.470060,452.758346L377.851895,452.978533L356.356616,442.419167L343.792887,452.250959L326.941046,465.462220L316.672472,473.542203L315.193739,474.700593L313.692668,476.040879L309.752993,479.382026L308.856334,480.080891L356.617273,503.344660L297.758520,569.748721L310.505888,623.775795L385.754899,649.435209L386.334507,652.949048L470.643810,682.582404L491.634535,690.548555L524.465564,698.514744L560.039974,694.445472L558.193394,679.652555L554.259603,653.734157L547.353942,605.977206L544.249307,581.610973L535.874454,510.591917L523.996804,428.116743L522.428313,421.808015L521.550513,414.819619L519.710531,407.668509L512.972308,359.784626L507.601552,323.609364Z " data-cartodb-id="3" data-created-at="2013-03-18T01:33:56.648Z" data-name="Sandwich" data-updated-at="2013-03-18T01:33:56.967Z"/><path d="M1705.334692,258.727498L1454.989163,226.249210L1467.661113,315.702411L1488.759810,470.727608L1383.807900,509.548387L1364.273946,514.584145L1496.816894,517.571142L1496.633139,516.249970L1562.048990,517.820059L1687.689101,520.845356L1699.592393,521.132568L1725.359036,521.754861L1742.685322,522.176106L1747.021878,497.619636L1748.823840,487.423782L1755.410347,450.144825L1791.210637,442.409594L1812.078409,438.034609L1822.068165,435.938067L1837.363280,432.750179L1848.269295,430.481325L1848.325630,428.576257L1849.346898,423.186551L1853.465066,400.756757L1855.550215,389.412737L1855.923839,388.646899L1857.833601,384.750702L1862.500776,359.344277L1872.088470,307.383877L1879.161271,308.618732L1903.184166,312.323301L1905.012842,302.291308L1905.182035,301.334060L1905.519688,299.524863L1908.595370,300.080066L1911.351510,300.577835L1914.063663,301.066031L1916.963396,301.582945L1922.487313,302.568910L1927.964305,303.449579L1929.385190,303.411289L1930.988798,303.372999L1933.838513,303.296419L1939.693153,303.152832L1941.058426,303.114542L1943.876362,303.037962L1946.452285,302.970955L1951.362119,302.846512L1953.144183,302.798650L1957.961771,302.645490L1958.628873,299.151537L1959.750996,293.274053L1960.014910,291.780754L1705.334692,258.727498Z " data-cartodb-id="4" data-created-at="2013-03-18T01:33:56.648Z" data-name="Forest Glade" data-updated-at="2013-03-18T01:33:56.967Z"/><path d="M1454.989163,226.249210L1332.426371,210.474539L1325.186712,159.112153L1319.863086,127.181342L1314.480253,129.258358L1296.843392,136.054142L1296.471767,136.111572L1296.048797,136.178572L1296.159240,136.944296L1293.663568,137.690878L1293.346528,135.604280L1290.876065,136.264716L1289.027965,136.752865L1287.168238,137.250586L1287.112730,136.858152L1284.248536,137.633448L1284.537129,139.566904L1283.124426,139.873194L1281.650480,140.256056L1281.371561,138.380030L1278.500574,139.193612L1275.070444,140.696349L1272.470314,140.744207L1272.391201,140.227342L1266.338807,141.174927L1266.406291,141.701364L1265.086028,141.911939L1264.918934,140.715492L1262.121939,140.820779L1262.290986,141.950225L1260.290216,142.380946L1257.267359,143.031814L1254.256128,143.673110L1254.296548,143.960258L1252.023156,144.438838L1251.933798,143.845399L1249.615151,144.008116L1250.428618,149.655364L1249.868294,149.645792L1249.777229,149.655364L1249.074619,149.932941L1248.169507,150.344521L1247.280507,150.631670L1247.195053,149.904226L1247.129071,149.559648L1246.549032,145.597001L1245.300031,145.932007L1244.429450,146.171297L1243.413350,146.458445L1242.483478,146.707307L1242.322379,145.577858L1242.014302,145.635287L1229.707873,147.827185L1229.612531,147.166744L1210.931842,149.511790L1192.641365,148.985351L1185.143945,149.167211L1185.279684,150.114802L1174.770072,150.775244L1171.512550,150.095659L1171.525095,151.569690L1170.444741,151.569690L1169.657731,151.550546L1168.805790,151.617548L1167.794397,151.665406L1166.553785,151.751551L1167.011413,155.082483L1165.628156,154.651758L1164.666842,155.044196L1164.157979,154.632615L1163.511653,154.536899L1162.878013,150.239233L1147.776435,150.488095L1128.692145,150.641241L1116.166408,151.091108L1097.251095,151.713264L1093.374869,151.856839L1086.400331,152.124844L1083.722465,152.230132L1029.896568,162.730251L1023.367125,163.802281L1007.071580,166.491931L1015.063701,171.277797L1019.358523,172.110539L1027.142845,171.823386L1031.183404,171.727669L1077.484096,177.537729L1079.819215,191.263715L1081.129012,202.453252L1086.450465,237.094381L1094.704177,293.111322L1094.959168,294.843933L1097.637199,312.849791L1105.703953,366.916385L1105.875264,368.763947L1106.125447,370.592364L1106.450239,372.392065L1106.861267,374.153477L1107.346904,375.886171L1107.899204,377.590149L1108.541421,379.246263L1109.250302,380.873661L1110.033210,382.453195L1110.894408,383.994439L1111.825950,385.497393L1112.835201,386.942910L1113.906850,388.350137L1115.044581,389.709500L1467.661113,315.702411L1454.989163,226.249210Z " data-cartodb-id="5" data-created-at="2013-03-18T01:33:56.648Z" data-name="East Windsor" data-updated-at="2013-03-18T01:33:56.967Z"/><path d="M733.036101,358.147676L729.470326,329.965586L726.234503,308.752747L721.086115,268.385912L715.761503,242.473918L707.062923,244.474497L705.208645,244.895672L697.263040,244.981821L697.137315,246.752672L694.225959,247.422724L687.404242,247.767322L687.393339,249.260582L675.284738,252.524700L671.454782,253.558498L671.419240,253.300048L662.242697,255.922835L659.733939,256.640751L638.769321,262.623402L594.565170,281.404278L507.834554,318.258287L508.557440,323.561501L508.088710,323.561501L507.601552,323.609364L512.972308,359.784626L519.710531,407.668509L521.550513,414.819619L522.428313,421.808015L523.996804,428.116743L535.341563,508.342105L535.874454,510.591917L569.333268,498.012154L602.716809,482.033886L635.776321,465.988758L657.168008,453.485920L673.150120,447.588748L687.291385,442.036236L690.821847,441.078908L746.669830,420.525211L733.036101,358.147676Z " data-cartodb-id="6" data-created-at="2013-03-18T01:33:56.648Z" data-name="University" data-updated-at="2013-03-18T01:33:56.967Z"/><path d="M882.439174,294.508897L881.240434,286.228757L880.129796,278.628295L879.036875,271.085300L879.256437,270.989577L879.468054,270.893854L879.683355,270.788559L879.902340,270.673691L880.113381,270.558824L880.320162,270.434384L880.526943,270.309944L880.729464,270.175931L880.924040,270.041919L881.122301,269.898335L881.312617,269.754750L881.506618,269.601594L881.684729,269.448437L881.862841,269.295280L882.036693,269.132551L882.210544,268.969822L882.368507,268.807093L882.530155,268.634792L882.683858,268.462490L882.829616,268.290189L882.971115,268.108316L883.112613,267.926442L883.238223,267.744569L883.363833,267.562695L883.481499,267.380822L883.591220,267.198948L883.696681,267.007503L883.794198,266.816057L883.880087,266.634184L883.961715,266.442738L884.035399,266.251292L884.109083,266.059847L884.163195,265.877974L884.220990,265.686528L884.270842,265.495083L884.301120,265.313209L884.331399,265.131336L884.357418,264.939891L884.371808,264.758018L884.386198,264.576144L884.381015,264.403844L883.932315,260.842963L882.582058,252.132239L881.316211,243.450277L880.036567,234.701354L878.986316,227.503149L877.776310,219.213765L876.367355,209.584347L876.273581,207.516805L876.003357,201.285478L873.109378,201.869365L873.077692,202.137379L868.971388,202.692550L866.903164,202.864845L864.854512,203.027567L864.988436,203.917756L862.309272,204.645223L861.037743,204.894093L858.691320,205.458837L853.976516,206.253308L852.466421,206.626614L852.018201,206.779765L850.866978,207.066923L850.036053,207.306222L849.429526,207.478517L847.775620,207.957114L843.728768,209.038745L843.693307,209.048317L842.766236,209.392908L842.755997,209.316332L840.345771,210.005513L838.006467,210.675550L837.072267,210.914850L835.487559,211.316872L834.242725,211.661463L833.636195,211.833759L832.446968,212.178350L831.418343,212.580373L829.338564,213.030256L828.795012,213.183407L826.368301,212.924964L825.474098,214.896793L825.085568,214.523485L823.973972,214.542629L822.310967,214.982940L821.458537,217.155784L819.627139,217.146211L819.270229,217.165356L818.757485,213.441851L818.407128,213.547143L814.583262,214.647921L809.298670,216.179440L808.057217,207.354082L805.298505,207.813535L806.898536,219.194621L805.264347,219.271197L803.112157,219.558358L803.029091,217.978976L801.465667,218.428860L798.685491,219.232909L793.999472,220.592136L770.462351,227.397857L764.563230,229.101684L763.822788,229.312270L745.479690,234.615205L742.857463,235.256536L742.874253,235.419262L738.221021,236.548770L738.213978,236.711496L728.109317,239.640565L715.761503,242.473918L721.086115,268.385912L726.234503,308.752747L729.470326,329.965586L733.036101,358.147676L883.665906,302.923092L882.439174,294.508897Z " data-cartodb-id="7" data-created-at="2013-03-18T01:33:56.648Z" data-name="City Centre" data-updated-at="2013-03-18T01:33:56.967Z"/><path d="M888.149066,333.555330L883.665906,302.923092L733.036101,358.147676L733.050037,358.214686L746.747496,420.860272L749.616814,429.696322L752.901578,438.340953L756.608571,446.755870L760.722480,454.960216L765.234773,462.934841L765.978078,464.389998L766.783788,465.806864L767.651904,467.185436L768.590369,468.525716L769.594921,469.818131L770.665560,471.062678L771.790658,472.268933L772.985525,473.417748L774.234850,474.528270L775.545997,475.581352L776.915285,476.586567L778.342713,477.543916L779.816071,478.443823L781.351252,479.286291L784.678389,481.708387L788.152435,483.996457L791.765444,486.150502L795.516833,488.151372L799.399234,490.018214L803.408384,491.741456L807.532071,493.311521L811.289890,494.737985L815.139570,496.049567L819.076846,497.236692L823.109663,498.299362L827.214181,499.237576L831.409974,500.041759L835.677466,500.721486L840.016657,501.276756L849.945761,502.234119L860.023877,502.865978L870.250999,503.172335L880.603284,503.153187L891.510261,497.476032L893.128901,496.489952L894.726804,495.475151L896.303385,494.412483L897.847601,493.330669L899.362551,492.200987L900.853082,491.052159L902.310666,489.865037L903.727941,488.658770L905.120214,487.414209L906.472178,486.150502L908.367708,484.733619L903.135397,451.542532L903.099219,434.655252L888.149066,333.555330Z " data-cartodb-id="8" data-created-at="2013-03-18T01:33:56.648Z" data-name="South Central" data-updated-at="2013-03-18T01:33:56.967Z"/><path d="M1124.513524,402.068264L1115.044581,389.709500L1113.906850,388.350137L1112.835201,386.942910L1111.825950,385.497393L1110.894408,383.994439L1110.033210,382.453195L1109.250302,380.873661L1108.541421,379.246263L1107.899204,377.590149L1107.346904,375.886171L1106.861267,374.153477L1106.450239,372.392065L1106.125447,370.592364L1105.875264,368.763947L1105.703953,366.916385L1097.637199,312.849791L1094.959168,294.843933L1094.704177,293.111322L1085.795069,302.454041L1045.709969,343.625799L1004.697011,385.746290L976.244407,415.001508L969.645070,421.769722L937.382522,454.921923L908.367708,484.733619L906.472178,486.150502L905.120214,487.414209L903.727941,488.658770L902.310666,489.865037L900.853082,491.052159L899.362551,492.200987L897.847601,493.330669L896.303385,494.412483L894.726804,495.475151L893.128901,496.489952L891.510261,497.476032L880.583712,503.162761L1146.514018,509.309045L1133.441295,420.774113L1133.026016,418.878629L1132.528196,417.011866L1131.952099,415.183398L1131.289780,413.393224L1130.557128,411.641344L1129.738255,409.927759L1128.845367,408.262041L1127.878466,406.644190L1126.829606,405.074206L1125.710413,403.542515L1124.513524,402.068264Z " data-cartodb-id="9" data-created-at="2013-03-18T01:33:56.648Z" data-name="South Walkerville" data-updated-at="2013-03-18T01:33:56.967Z"/><path d="M1467.661113,315.702411L1115.044581,389.709500L1124.513524,402.068264L1125.710413,403.542515L1126.829606,405.074206L1127.878466,406.644190L1128.845367,408.262041L1129.738255,409.927759L1130.557128,411.641344L1131.289780,413.393224L1131.952099,415.183398L1132.528196,417.011866L1133.026016,418.878629L1133.441295,420.774113L1146.504314,509.251603L1364.273946,514.584145L1383.807900,509.548387L1487.738714,471.627512L1488.688294,470.210642L1467.661113,315.702411Z " data-cartodb-id="10" data-created-at="2013-03-18T01:33:56.648Z" data-name="Fontainbleu" data-updated-at="2013-03-18T01:33:56.967Z"/><path d="M1481.070783,528.839445L1482.809727,529.318134L1495.678725,529.614921L1498.473647,529.681938L1498.189275,527.546985L1497.567567,523.104759L1496.992707,518.892315L1496.816894,517.571142L1364.273946,514.584145L1146.528151,509.251603L1154.406364,568.331766L1168.923634,662.131022L1300.133245,610.419655L1296.200158,590.332990L1302.903050,588.935166L1311.710205,587.106508L1316.115617,586.187393L1324.223978,584.502350L1332.324383,582.817308L1356.554606,577.781342L1359.081299,577.264343L1359.184975,578.049416L1361.219887,577.302639L1375.143169,574.545311L1396.553467,570.313588L1396.643887,570.926325L1406.272331,570.868881L1417.996521,566.244633L1429.441860,561.725712L1430.116914,561.457641L1428.442666,549.557238L1428.362564,549.021100L1445.807503,542.721487L1481.070783,528.839445Z " data-cartodb-id="11" data-created-at="2013-03-18T01:33:56.648Z" data-name="Walker Farm" data-updated-at="2013-03-18T01:33:56.967Z"/><path d="M1179.000307,738.317549L1176.678949,722.384821L1176.428691,720.718787L1175.916919,720.871986L1173.529170,704.575585L1171.155286,688.327220L1167.404676,662.734219L1168.923634,662.131022L1154.406364,568.331766L986.000794,603.717690L968.332550,607.844182L953.736427,613.301508L949.069213,615.666355L906.838774,632.842714L900.575971,635.389502L886.113682,638.740546L858.855157,641.603300L1029.559808,793.939700L1029.694310,793.920550L1163.863860,912.869705L1165.543626,912.199382L1167.998794,904.682213L1169.231915,900.909277L1169.974991,898.620623L1171.266333,894.675335L1172.220153,891.754679L1175.925898,880.378535L1176.491366,878.635732L1178.079344,873.752064L1179.123910,870.553748L1179.631798,869.002471L1180.755436,865.536044L1182.735594,859.465026L1183.301106,857.722245L1187.493200,844.852542L1189.093470,839.336987L1189.447942,837.833618L1189.763280,836.349402L1190.234740,833.754421L1190.591873,831.188171L1190.838355,828.641076L1190.982134,826.113136L1191.015470,824.121429L1190.974212,822.158450L1190.873656,820.205049L1190.498034,816.690849L1190.407435,816.078020L1190.327766,815.560945L1189.575097,810.399780L1188.456461,802.796907L1187.310021,794.935535L1187.274765,794.696152L1186.010459,786.107098L1185.584456,783.138762L1185.489623,782.516369L1182.883183,764.735200L1182.619286,763.145725L1182.555447,762.753143L1179.000307,738.317549Z " data-cartodb-id="12" data-created-at="2013-03-18T01:33:56.648Z" data-name="Devonshire" data-updated-at="2013-03-18T01:33:56.967Z"/><path d="M1146.537855,509.309045L880.329459,503.162761L870.044418,503.172335L859.892486,502.856405L849.877933,502.224545L840.016657,501.276756L835.677466,500.721486L831.409974,500.041759L827.214181,499.237576L823.109663,498.299362L819.076846,497.236692L815.139570,496.049567L811.289890,494.737985L807.532071,493.311521L803.408384,491.741456L799.399234,490.018214L795.516833,488.151372L791.765444,486.150502L788.152435,483.996457L784.678389,481.708387L781.351252,479.286291L779.816071,478.443823L778.342713,477.543916L776.915285,476.586567L775.545997,475.581352L774.234850,474.528270L772.985525,473.417748L771.790658,472.268933L770.665560,471.062678L769.594921,469.818131L768.590369,468.525716L767.651904,467.185436L766.783788,465.806864L765.978078,464.389998L765.234773,462.934841L760.688958,454.902776L756.549475,446.640991L752.824275,438.149488L749.525569,429.437845L746.642312,420.534784L690.821847,441.078908L698.237010,493.225359L823.664396,602.607081L823.680874,602.626229L858.683594,641.450109L858.855157,641.603300L886.113682,638.740546L900.575971,635.389502L906.838774,632.842714L949.069213,615.666355L953.736427,613.301508L968.332550,607.844182L986.000794,603.717690L1154.406364,568.331766L1146.537855,509.309045Z " data-cartodb-id="13" data-created-at="2013-03-18T01:33:56.648Z" data-name="Remington Park" data-updated-at="2013-03-18T01:33:56.967Z"/><path d="M823.680874,602.626229L698.237010,493.225359L690.821847,441.078908L687.291385,442.036236L673.150120,447.588748L657.168008,453.485920L635.776321,465.988758L602.716809,482.033886L569.333268,498.012154L535.874454,510.591917L544.249307,581.610973L547.353942,605.977206L554.259603,653.734157L558.193394,679.652555L560.039974,694.445472L560.380494,694.407173L588.020446,688.260197L649.776275,676.751436L803.966276,647.778824L818.263656,645.911803L858.823373,641.603300L823.680874,602.626229Z " data-cartodb-id="14" data-created-at="2013-03-18T01:33:56.648Z" data-name="South Cameron" data-updated-at="2013-03-18T01:33:56.967Z"/><path d="M286.497290,707.917195L299.049192,691.352831L312.836152,671.494966L313.397985,670.633251L313.939662,669.761962L314.453237,668.881099L314.927082,668.000236L315.369142,667.119374L315.791048,666.228938L316.173223,665.338502L316.523615,664.448067L316.850169,663.557632L317.136993,662.667197L317.409478,661.958680L317.650180,661.250163L317.874990,660.541646L318.068016,659.833130L318.229258,659.124614L318.362980,658.425673L318.472864,657.726732L318.547282,657.037366L318.594181,656.357574L318.609295,655.677783L318.604836,655.007567L318.564910,654.346926L318.497465,653.695859L318.402500,653.054367L318.268386,652.432025L318.118381,651.809682L317.937174,651.206489L317.720500,650.612870L317.484253,650.028827L317.221067,649.473507L316.926097,648.918187L316.604188,648.391590L310.505888,623.775795L297.758520,569.748721L356.617273,503.344660L308.856334,480.080891L307.959676,480.779757L303.283764,485.662251L302.913910,486.045193L300.148532,488.936403L298.607862,490.544760L297.652602,491.540411L293.924027,495.427283L289.454050,500.683192L288.091873,502.281987L285.640074,505.163652L279.670804,511.817348L279.086556,512.468359L278.090778,513.569333L276.945543,514.852209L272.786616,519.485886L264.142718,529.270265L253.683714,542.099186L253.338013,541.965152L237.793651,561.898044L229.379269,572.697521L227.095608,575.617605L231.321531,577.024991L230.840820,577.551564L230.339524,578.317490L225.884541,576.823936L214.175654,591.271256L191.079273,619.745006L192.131193,620.108830L179.982625,634.192703L172.687946,643.508614L171.961005,643.250104L155.776860,663.136351L144.638549,677.900394L138.985235,685.387787L119.111630,711.727980L117.874282,713.374855L117.794041,713.480178L117.492070,713.872748L115.914765,715.969643L108.573497,725.697743L107.633869,726.942484L100.858038,735.923800L98.035502,739.667626L97.092204,740.921953L92.913564,746.456323L92.078399,746.169072L91.380279,746.992526L89.464818,749.596943L87.781550,751.866237L87.107855,752.708844L85.862607,754.355760L83.992702,756.759112L81.810769,759.746550L79.741247,762.379713L78.318288,764.323469L77.508939,765.539514L75.325657,768.220562L73.406554,770.834589L74.290002,771.140995L70.741745,775.842424L70.123109,776.665893L68.335809,779.040552L68.014863,779.461863L65.261050,783.110036L46.115054,808.494271L46.050713,808.599600L45.183126,808.293187L41.432131,811.682888L40.133838,813.281987L37.347125,812.324442L15.246876,834.501316L0.954742,847.945475L27.960216,857.243460L56.700243,867.116044L67.112794,870.687809L136.695312,894.617879L139.160930,895.460561L142.225369,896.523490L143.454207,896.944832L286.497290,707.917195Z " data-cartodb-id="15" data-created-at="2013-03-18T01:33:56.648Z" data-name="Ojibway" data-updated-at="2013-03-18T01:33:56.967Z"/><path d="M560.039974,694.445472L524.465564,698.514744L491.634535,690.548555L470.643810,682.582404L386.334507,652.949048L385.754899,649.435209L310.505888,623.775795L316.604188,648.391590L316.926097,648.918187L317.221067,649.473507L317.484253,650.028827L317.720500,650.612870L317.937174,651.206489L318.118381,651.809682L318.268386,652.432025L318.402500,653.054367L318.497465,653.695859L318.564910,654.346926L318.604836,655.007567L318.609295,655.677783L318.594181,656.357574L318.547282,657.037366L318.472864,657.726732L318.362980,658.425673L318.229258,659.124614L318.068016,659.833130L317.874990,660.541646L317.650180,661.250163L317.409478,661.958680L317.136993,662.667197L316.850169,663.557632L316.523615,664.448067L316.173223,665.338502L315.794730,666.219363L315.380771,667.109799L314.930764,667.990662L314.456919,668.871524L313.943344,669.752387L313.409613,670.623676L312.839835,671.485391L312.246218,672.347106L299.049192,691.352831L286.497290,707.917195L143.454207,896.944832L144.678780,897.356598L239.421730,929.943873L265.086073,870.390960L265.862353,870.955931L266.722532,868.945017L293.325677,889.657555L297.282759,892.740998L307.221189,870.764415L315.151899,853.269546L320.246547,842.018157L321.519356,842.449060L327.216178,844.354610L329.657321,845.178114L336.375777,847.485844L339.431637,848.529590L350.981113,852.493916L352.611409,853.049306L366.413944,857.789275L368.036307,858.344667L373.325040,860.154478L375.782730,860.997142L378.610109,861.973866L381.047646,862.806956L384.376729,863.946469L384.995129,864.157135L386.814274,864.779559L388.051517,864.827438L391.167954,865.899923L393.218595,865.650953L396.111189,865.775438L395.565645,867.029863L396.134745,867.058590L397.527253,867.116044L398.215560,867.144772L398.911814,867.173499L399.608068,867.202226L400.296375,867.230954L400.435744,867.240529L424.522235,868.236409L425.218490,868.265137L425.906798,868.293864L430.732901,868.494955L432.634615,868.571562L439.541539,868.858835L447.172241,869.165260L447.860549,869.193987L448.525017,869.222714L450.434680,869.299321L451.099147,869.328048L456.645353,869.557867L457.333662,869.586594L458.726175,869.644049L466.321417,869.960049L468.223134,870.036656L471.664681,870.180292L472.352991,870.209020L473.661765,870.256899L476.602055,870.381384L480.851120,870.553748L484.129459,870.687809L486.027499,870.773991L492.934442,871.061265L494.319010,871.118720L495.007320,871.147447L496.399835,871.204902L497.784403,871.262356L498.480660,871.291084L499.168971,871.319811L499.865228,871.348539L501.249796,871.405993L503.823934,871.511327L505.872971,871.597509L507.945851,871.683691L512.107504,871.856056L514.188331,871.942238L516.269159,872.028420L519.702767,872.172057L521.608759,872.258239L525.042368,872.401876L537.487607,872.918969L539.397278,872.995576L547.688811,873.340304L549.073382,873.397759L555.284088,873.656306L557.182135,873.742488L557.693856,872.555089L584.448982,873.493517L586.982801,873.579699L560.039974,694.445472Z " data-cartodb-id="16" data-created-at="2013-03-18T01:33:56.648Z" data-name="Malden" data-updated-at="2013-03-18T01:33:56.967Z"/><path d="M858.855157,641.603300L818.263656,645.911803L803.966276,647.778824L649.776275,676.751436L588.020446,688.260197L560.049091,694.483771L586.982801,873.579699L589.345461,873.656306L589.577907,875.265042L589.687202,875.973652L589.723590,876.251351L590.283220,880.091260L928.072987,811.050909L927.015350,813.722457L1029.559808,793.939700L858.855157,641.603300Z " data-cartodb-id="17" data-created-at="2013-03-18T01:33:56.648Z" data-name="South Windsor" data-updated-at="2013-03-18T01:33:56.967Z"/><path d="M1710.953538,680.705768L1707.325274,680.552574L1708.739261,659.143763L1769.120603,647.261802L1770.115268,641.957555L1773.191441,641.354365L1791.094948,542.587453L1792.634827,542.281089L1795.640366,526.091772L1831.970769,526.972558L1847.256817,443.606255L1850.511939,434.406348L1854.494253,427.781681L1868.532264,407.821679L1874.022483,399.981340L1880.436587,392.342072L1886.890692,386.770597L1893.546097,382.702092L1895.831858,371.808120L1892.256614,372.449503L1903.184166,312.323301L1879.995884,308.762320L1872.088470,307.383877L1862.848174,357.468008L1862.500776,359.344277L1857.833601,384.750702L1855.550215,389.412737L1853.465066,400.756757L1849.346898,423.186551L1848.325630,428.576257L1848.317431,428.825160L1848.269295,430.481325L1837.363280,432.750179L1822.068165,435.938067L1812.078409,438.034609L1791.210637,442.409594L1773.566668,446.210192L1755.410347,450.144825L1751.072194,474.700593L1749.556628,483.115694L1749.193192,485.365472L1748.823840,487.423782L1747.021878,497.619636L1742.685322,522.176106L1725.359036,521.754861L1699.592393,521.132568L1693.899271,520.998536L1687.689101,520.845356L1674.076348,520.519849L1671.933558,520.471981L1670.959347,520.443259L1666.077262,520.328375L1637.054323,519.619919L1626.093481,519.361428L1621.935033,519.265691L1617.955064,519.160380L1613.812508,519.064642L1598.939538,518.710415L1577.470773,518.193434L1562.048990,517.820059L1539.956233,517.293504L1523.794947,516.900982L1523.377514,516.891408L1519.557056,516.805245L1519.477602,516.805245L1513.927528,516.671213L1509.009416,516.546755L1496.633139,516.249970L1496.816894,517.571142L1496.992707,518.892315L1497.567567,523.104759L1498.189275,527.546985L1498.473647,529.681938L1495.678725,529.614921L1482.809727,529.318134L1481.070783,528.839445L1445.807503,542.721487L1428.362564,549.021100L1430.116914,561.457641L1429.928582,561.534233L1429.441860,561.725712L1417.996521,566.244633L1406.272331,570.868881L1396.643887,570.926325L1396.553467,570.313588L1375.143169,574.545311L1361.219887,577.302639L1359.184975,578.049416L1359.081299,577.264343L1356.554606,577.781342L1332.324383,582.817308L1324.223978,584.502350L1316.115617,586.187393L1311.710205,587.106508L1302.903050,588.935166L1296.200158,590.332990L1300.133245,610.419655L1168.923634,662.131022L1167.404676,662.734219L1171.155286,688.327220L1173.529170,704.575585L1175.916919,720.871986L1176.428691,720.718787L1176.678949,722.384821L1179.000307,738.317549L1182.619286,763.145725L1182.883183,764.735200L1185.489623,782.516369L1185.584456,783.138762L1186.010459,786.107098L1187.274765,794.696152L1187.310021,794.935535L1188.456461,802.796907L1189.575097,810.399780L1190.327766,815.560945L1190.487702,816.614246L1190.873656,820.205049L1190.974212,822.158450L1191.015470,824.121429L1190.982134,826.113136L1190.838355,828.641076L1190.591873,831.188171L1190.234740,833.754421L1189.763280,836.349402L1189.283568,838.551788L1189.093470,839.336987L1187.493200,844.852542L1183.301106,857.722245L1182.735594,859.465026L1180.755436,865.536044L1179.631798,869.002471L1179.123910,870.553748L1178.079344,873.752064L1176.491366,878.635732L1175.925898,880.378535L1172.220153,891.754679L1171.266333,894.675335L1169.974991,898.620623L1169.231915,900.909277L1183.444367,902.269065L1197.064953,900.076169L1208.528072,900.813518L1216.761985,903.753342L1224.386246,909.939440L1231.332608,911.222627L1237.804162,913.204866L1320.009463,951.892537L1327.449780,955.100591L1332.719868,957.025427L1337.179567,958.452297L1341.742051,959.735523L1346.407319,960.875105L1351.171094,961.861467L1356.010134,962.713761L1360.943402,963.403257L1366.043028,963.949109L1371.221586,964.351315L1582.449140,971.322911L1607.566406,913.894341L1629.437694,865.210468L1640.763883,838.599666L1652.362706,812.295716L1650.994047,812.238263L1662.272269,786.710341L1663.708754,786.777368L1710.953538,680.705768Z " data-cartodb-id="18" data-created-at="2013-03-18T01:33:56.648Z" data-name="Sandwich South" data-updated-at="2013-03-18T01:33:56.967Z"/><path d="M908.927024,1046.403562L919.275077,1041.452344L926.417345,1037.047017L927.481531,1036.386220L940.693914,1028.236401L954.974735,1019.435411L959.929900,1016.380453L1011.309456,984.691604L1024.288079,976.695273L1024.853195,976.340946L1026.864727,975.096012L1029.040163,973.755315L1031.285927,972.376314L1031.851043,972.021987L1031.964186,971.954952L1041.874425,965.845226L1044.061479,964.494960L1051.055637,960.185610L1054.470762,958.078821L1062.466700,953.147029L1063.028139,952.802283L1064.443359,951.930842L1066.799181,950.513555L1069.192264,949.144149L1071.610984,947.832203L1074.043721,946.587291L1076.513718,945.390262L1078.997730,944.260267L1081.503705,943.197306L1084.019423,942.191803L1086.549157,941.253334L1089.187078,940.343595L1091.835340,939.510466L1094.481723,938.744370L1108.457596,934.942626L1109.068429,934.779831L1127.780514,929.694893L1133.407029,928.162711L1141.634009,925.921899L1141.685367,925.912323L1142.024109,925.816561L1144.234477,925.213266L1144.561598,925.127081L1162.954378,920.128359L1165.082189,919.553794L1165.778046,917.408754L1165.952610,916.891646L1164.444705,915.560574L1162.192042,913.540028L1163.863860,912.869705L1029.694310,793.920550L927.015350,813.722457L928.072987,811.050909L590.283220,880.091260L589.892645,881.211634L590.059556,882.370312L590.098442,882.600133L590.597286,883.184260L590.639850,883.404505L590.721893,883.873722L590.811884,884.342940L591.023063,885.262223L591.242192,886.181507L591.359703,886.641150L591.449696,887.110368L591.621736,888.048805L591.915480,888.939363L592.236745,889.820346L592.573905,890.701329L592.942265,891.563161L593.338145,892.415417L593.749921,893.267674L593.762138,893.277250L594.117227,893.966716L594.584045,894.799822L595.062489,895.623352L595.946924,896.983136L597.113536,898.601471L598.175313,899.913377L598.805482,900.631574L599.750799,901.646627L599.723872,901.675355L600.865973,902.757440L602.050307,903.791646L603.162649,904.682213L603.392996,904.806701L604.261840,905.275924L605.127006,905.754724L605.995851,906.223948L606.861019,906.702748L607.297281,906.932572L607.729866,907.171972L608.598713,907.641197L609.378956,908.072117L610.809918,908.857350L613.412794,910.274601L617.276792,912.381327L619.241180,913.453843L620.251784,914.009254L621.116966,914.488056L624.370599,916.259626L628.922028,918.749403L630.356698,919.525066L631.221890,920.003870L632.090759,920.473098L633.610364,921.296641L634.475559,921.775446L634.908157,922.014848L639.014822,924.255655L639.730326,924.648276L640.449507,925.031320L648.392216,929.369304L648.929918,929.666165L650.360942,930.451408L650.898645,930.748269L652.963932,931.868678L653.829146,932.347486L667.859148,939.998852L668.459442,939.366823L675.553641,943.245187L720.329697,967.674311L721.142793,969.158648L722.584588,968.880933L731.772196,973.870232L737.411291,976.944260L742.629395,979.769307L744.796320,980.956786L746.966926,982.134689L749.137538,983.312594L751.316102,984.490499L753.483048,985.677981L755.758784,986.913347L759.218843,988.790338L761.231820,989.882059L763.184298,990.945051L765.076277,991.979314L766.604050,992.802894L768.128150,993.636051L770.969812,995.177872L773.803535,996.719694L775.695536,997.753961L778.529274,999.295786L780.424961,1000.320478L783.266661,1001.862305L786.100422,1003.404134L787.992450,1004.438405L790.826226,1005.980236L793.667958,1007.522069L795.523340,1008.527613L796.594646,1009.111786L800.208259,1011.065417L802.378997,1012.243342L805.454839,1013.900101L812.617371,1017.769070L826.938929,1025.516612L826.949953,1025.487882L827.068141,1025.200581L832.528413,1026.857353L834.289425,1027.384072L833.515450,1029.194075L834.615680,1029.557991L837.743400,1030.582702L838.899866,1030.965772L840.766605,1031.569107L841.514355,1030.573125L843.369472,1031.186037L845.236213,1031.789372L860.236787,1036.711830L859.372912,1037.679085L861.865599,1038.473959L865.402305,1039.613597L870.111998,1041.155463L878.454790,1043.233632L881.046028,1043.875279L882.529888,1043.798664L900.478668,1042.860136L901.964554,1043.482629L908.927024,1046.403562Z " data-cartodb-id="19" data-created-at="2013-03-18T01:33:56.648Z" data-name="Roseland" data-updated-at="2013-03-18T01:33:56.967Z"/><path d="M1651.799440,0.000000L1651.075017,0.210557L1650.531556,0.363690L1649.807133,0.574247L1649.079026,0.794376L1647.748173,1.177208L1646.413636,1.569610L1644.338788,2.172571L1643.220668,2.497978L1642.421649,2.737248L1640.850547,3.187076L1639.283704,3.646475L1637.949165,4.038878L1635.819288,4.660981L1633.823291,5.244801L1633.153890,5.436217L1634.195670,1.387765L1631.945845,2.115146L1629.715587,2.832956L1627.701747,3.483771L1625.024991,13.906413L1624.874648,13.925555L1624.677222,13.963838L1624.679784,14.576374L1624.671297,15.217622L1623.338850,4.995959L1622.982337,5.158663L1621.125175,6.000895L1618.484073,7.187678L1616.963854,7.876778L1615.082860,8.719011L1612.955403,9.685666L1611.419296,10.374767L1612.467889,18.423868L1612.535950,18.969409L1612.149617,19.065118L1611.857450,19.122543L1611.984124,20.031778L1611.148971,20.653887L1609.458519,21.888534L1608.148633,22.836054L1607.760123,23.123182L1607.445055,23.343313L1606.217131,24.242980L1605.763179,21.170716L1605.094949,16.653254L1599.694115,20.759167L1599.221110,21.142003L1598.177828,21.974672L1596.886705,23.017902L1594.250011,25.142647L1589.969138,28.588184L1590.019232,28.932739L1580.192696,36.158821L1574.551039,40.312635L1571.116246,42.839385L1571.207346,43.490215L1557.619638,54.669214L1555.829157,56.143163L1554.085182,57.578829L1554.212461,58.507227L1553.017903,59.196347L1552.967136,59.225061L1551.682672,59.962037L1550.406151,60.699013L1548.875799,61.579557L1547.407839,62.421817L1545.947822,63.264077L1544.479861,64.106338L1543.019844,64.948599L1541.548199,65.800431L1540.025788,66.680978L1538.741322,67.417957L1537.456855,68.154937L1536.191957,68.882346L1532.300486,71.543133L1529.880304,73.208521L1527.452178,74.873909L1525.027734,76.529729L1518.793779,80.798496L1519.674840,87.096382L1521.206715,97.978954L1520.835102,98.036382L1519.918276,98.189523L1518.978196,98.361807L1518.492632,98.591519L1517.805374,98.849945L1517.131476,99.156228L1517.081357,98.811660L1517.051169,98.601090L1516.712487,98.696804L1515.860364,98.888231L1515.819490,98.849945L1515.811547,98.849945L1514.589329,99.280656L1514.610416,99.452940L1514.663425,99.893222L1513.280818,100.142076L1512.168291,100.390931L1511.111368,100.639787L1508.769687,101.089640L1508.561206,101.156639L1508.252563,101.194925L1507.803680,101.060926L1507.470482,100.812071L1507.210149,100.477074L1506.732813,100.189933L1506.322854,100.161219L1505.751135,100.036792L1505.655160,99.357226L1505.203968,95.988117L1503.357590,82.310752L1501.295809,83.086023L1499.226084,83.861294L1496.885483,84.741850L1494.717328,85.545836L1494.556507,85.612835L1492.875651,86.244539L1490.593757,87.096382L1490.428676,87.153809L1488.280665,87.967368L1488.158984,88.015224L1486.114897,88.455503L1484.512759,88.800069L1482.034665,89.336061L1479.363397,89.919910L1477.473339,90.331475L1475.942113,90.656899L1474.383372,90.991894L1472.540397,91.384317L1470.697421,91.776741L1468.688785,92.207449L1467.090902,92.561587L1465.493018,92.915726L1463.776559,93.289007L1463.806738,93.499575L1464.962249,101.788349L1465.061316,102.439201L1464.553287,102.582771L1463.298783,102.601914L1463.169735,102.668914L1462.888605,102.697628L1462.580758,102.630628L1462.338409,102.496629L1462.138089,102.439201L1461.734122,102.477486L1461.654985,101.960633L1460.997782,101.108783L1460.011489,100.802499L1459.211281,101.003498L1457.729440,101.386352L1457.808933,102.046775L1457.745962,102.065918L1457.730294,101.941490L1457.084696,102.132918L1456.554210,102.190346L1455.779068,102.037204L1455.740943,101.826634L1455.469651,101.127925L1454.744260,101.175782L1454.779855,101.434209L1454.408598,101.635207L1454.277404,100.840785L1452.451901,101.022641L1450.350682,101.281067L1450.465987,102.075489L1449.709674,102.678485L1448.557199,103.051768L1448.517124,102.908198L1448.446209,102.927340L1446.656298,103.367623L1446.514826,103.549479L1446.475686,103.568622L1444.520059,103.386766L1444.465031,103.405909L1444.384744,102.850769L1443.032609,102.793341L1441.731818,102.726342L1441.712824,102.755056L1441.733906,102.927340L1441.759248,103.109196L1441.402228,102.860341L1441.181047,102.506201L1440.709576,102.018061L1440.281309,98.878659L1440.195613,98.275665L1433.345804,98.983944L1430.910955,99.242370L1429.200343,99.414654L1427.564906,99.577367L1424.246947,99.921936L1424.155842,99.271084L1423.339965,99.347655L1420.915588,99.558224L1417.441286,99.854936L1416.011226,99.979364L1415.755080,100.046363L1414.083738,100.467502L1412.219221,100.936498L1410.134014,101.462923L1408.971280,101.759635L1409.273610,103.884477L1408.958175,103.961048L1408.302321,104.075904L1406.931323,104.315188L1406.925910,104.267331L1405.752347,104.468330L1405.175928,104.583187L1404.772759,104.516187L1404.515681,104.420473L1404.174908,104.315188L1403.956971,104.200332L1403.766771,103.951476L1403.650593,103.654764L1403.609238,103.204910L1403.384865,103.271909L1403.390855,103.338909L1403.225194,103.377194L1403.108979,102.420058L1401.080750,102.860341L1399.838002,103.137910L1397.904518,103.559050L1396.353701,103.894048L1394.826714,104.229046L1392.672538,104.707615L1391.121720,105.042613L1389.665647,105.358468L1386.939309,105.961465L1384.607265,106.468748L1384.439581,105.253183L1381.496363,106.172035L1379.009835,106.956888L1378.470601,107.119602L1376.505016,108.057598L1372.702894,109.866591L1371.320744,110.527018L1369.719055,111.283159L1369.982099,113.159156L1368.453503,113.704727L1366.924907,114.250298L1366.991245,114.738441L1366.877505,114.786298L1366.501709,112.068015L1364.666771,112.728442L1362.674691,113.446299L1361.126522,114.001441L1355.437043,116.049727L1344.264119,119.734733L1332.251991,122.855031L1332.191646,122.433886L1319.863086,127.181342L1325.186712,159.112153L1332.426371,210.474539L1454.989163,226.249210L1705.334692,258.727498L1708.756383,242.263331L1709.512488,235.151243L1714.790744,205.822571L1724.099942,155.149484L1724.497270,153.455302L1724.627837,152.785288L1725.850044,146.343586L1726.892326,140.906923L1727.279413,138.743749L1727.470440,137.710021L1727.665150,136.666721L1727.848237,135.632994L1728.039268,134.599268L1728.222939,133.584685L1728.403511,132.598818L1728.409711,132.541388L1729.284167,122.357314L1729.303465,116.317727L1730.816099,108.048026L1731.381375,104.946899L1732.706731,97.701385L1733.176506,95.117127L1733.561788,93.021010L1733.718384,92.159593L1734.024795,90.475044L1735.350294,83.229592L1736.106785,79.094816L1737.394791,72.050406L1737.984254,68.824919L1738.380078,66.680978L1738.563264,65.647293L1738.945527,63.579925L1739.507307,60.488449L1739.885324,58.411516L1740.260822,56.382441L1740.641954,54.276800L1741.024249,52.209445L1741.268410,50.170807L1741.456138,48.629866L1741.629719,47.146352L1741.968007,45.461848L1742.975843,40.963464L1744.127119,34.771028L1746.037494,24.912944L1738.146394,22.692491L1736.040441,33.967066L1735.565216,33.880927L1734.398564,33.651223L1734.051010,33.584226L1732.832923,32.703697L1732.108415,32.253861L1731.230674,31.727458L1731.085292,30.990494L1730.233909,30.416236L1729.785041,30.282243L1729.259846,30.119537L1728.020039,29.439999L1728.541848,26.597428L1730.205258,17.629484L1725.994009,15.610028L1723.156432,14.231822L1719.385323,22.979618L1719.068243,22.606352L1718.074260,22.175661L1716.240466,21.553552L1715.249518,21.486556L1714.756825,21.610978L1714.521780,21.850250L1713.856290,22.960476L1713.356444,21.926818L1713.557622,21.486556L1714.198707,20.357189L1714.907743,19.505379L1715.762645,18.749278L1716.920398,17.763476L1718.003992,16.557545L1719.530093,15.275047L1718.902298,14.739079L1718.783803,14.365815L1718.337547,13.791563L1717.716325,13.341732L1716.801425,12.767480L1712.940749,9.465537L1711.391384,10.767172L1710.714128,10.566184L1710.127929,10.355625L1709.677122,10.288629L1709.465763,10.259917L1710.450890,8.422315L1709.145552,8.202186L1708.722674,8.929570L1708.698844,8.929570L1707.743222,8.585019L1707.694986,8.565878L1708.071361,7.876778L1706.527950,7.532228L1706.433568,7.694932L1705.194304,7.426949L1705.262329,7.312099L1703.938221,6.996261L1703.262809,8.173473L1702.618483,8.010769L1701.922237,7.838494L1702.445714,6.890982L1701.362208,6.651711L1700.257759,6.508149L1699.188766,6.355016L1699.156994,6.355016L1698.056229,6.201883L1697.947113,6.402870L1697.570733,7.091970L1697.126716,6.986690L1696.522684,6.843128L1696.103651,6.776132L1695.432967,6.661282L1696.118281,5.417075L1696.178364,5.302225L1695.606681,5.177805L1694.937153,5.101238L1694.884436,5.196946L1693.625387,5.062955L1693.640119,5.024672L1692.439779,4.861968L1691.140438,4.708835L1691.159430,4.680122L1691.668184,3.770895L1690.368267,3.598621L1690.579136,3.215788L1688.625579,2.966947L1686.935298,2.756390L1685.125295,2.526690L1682.521783,2.191712L1682.337933,3.866603L1681.698135,4.249436L1681.143405,4.555702L1680.715986,4.737547L1680.492781,4.842826L1679.780342,5.187376L1679.781718,5.101238L1677.943931,6.058320L1676.726949,6.661282L1676.101884,7.005832L1672.733205,8.824290L1672.048854,9.178411L1672.022717,9.101845L1670.646073,9.810087L1670.653217,9.915366L1668.729872,10.537471L1666.865235,11.130864L1666.867542,11.207431L1665.937531,11.580694L1665.016261,11.848678L1664.335814,12.068808L1663.156459,12.470784L1662.241179,12.805764L1661.293550,13.121602L1660.482107,13.475724L1659.437784,13.877700L1657.879464,14.356244L1657.570258,14.375385L1656.087775,14.471094L1655.673001,14.413669L1654.902738,14.289248L1654.081133,14.174397L1654.046789,13.561862L1653.576413,13.504437L1652.707727,13.408728L1652.655808,13.399157L1652.616092,13.399157L1651.974342,0.928367L1651.851513,0.937938L1651.799440,0.000000Z " data-cartodb-id="20" data-created-at="2013-03-18T01:33:56.648Z" data-name="Riverside" data-updated-at="2013-03-18T01:33:56.967Z"/></g><g fill="#000" font-family="Arial" font-size="12px" id="mylayer-label" stroke="none"><text text-anchor="middle" y="159.925996099"><tspan dy="0" x="1849.10632601"><![CDATA[East Riverside]]></tspan></text><text text-anchor="middle" y="286.55652697"><tspan dy="0" x="975.501362776"><![CDATA[Walkerville]]></tspan></text><text text-anchor="middle" y="528.762672099"><tspan dy="0" x="443.425718372"><![CDATA[Sandwich]]></tspan></text><text text-anchor="middle" y="370.129632358"><tspan dy="0" x="1647.4341925"><![CDATA[Forest Glade]]></tspan></text><text text-anchor="middle" y="252.319985256"><tspan dy="0" x="1244.98906367"><![CDATA[East Windsor]]></tspan></text><text text-anchor="middle" y="365.258368991"><tspan dy="0" x="624.226701805"><![CDATA[University]]></tspan></text><text text-anchor="middle" y="269.684362138"><tspan dy="0" x="800.801871615"><![CDATA[City Centre]]></tspan></text><text text-anchor="middle" y="403.75595312"><tspan dy="0" x="828.754718819"><![CDATA[South Central]]></tspan></text><text text-anchor="middle" y="430.667076517"><tspan dy="0" x="1044.17905137"><![CDATA[South Walkerville]]></tspan></text><text text-anchor="middle" y="421.121147256"><tspan dy="0" x="1315.88770963"><![CDATA[Fontainbleu]]></tspan></text><text text-anchor="middle" y="557.131307532"><tspan dy="0" x="1274.40022843"><![CDATA[Walker Farm]]></tspan></text><text text-anchor="middle" y="706.321211941"><tspan dy="0" x="1069.24461976"><![CDATA[Devonshire]]></tspan></text><text text-anchor="middle" y="537.662947959"><tspan dy="0" x="912.455894136"><![CDATA[Remington Park]]></tspan></text><text text-anchor="middle" y="576.262659594"><tspan dy="0" x="664.734879958"><![CDATA[South Cameron]]></tspan></text><text text-anchor="middle" y="708.129772245"><tspan dy="0" x="192.406064391"><![CDATA[Ojibway]]></tspan></text><text text-anchor="middle" y="778.262182236"><tspan dy="0" x="385.410350285"><![CDATA[Malden]]></tspan></text><text text-anchor="middle" y="751.006512639"><tspan dy="0" x="760.596071341"><![CDATA[South Windsor]]></tspan></text><text text-anchor="middle" y="715.941218363"><tspan dy="0" x="1482.21426734"><![CDATA[Sandwich South]]></tspan></text><text text-anchor="middle" y="906.913260248"><tspan dy="0" x="890.316484307"><![CDATA[Roseland]]></tspan></text><text text-anchor="middle" y="135.868315207"><tspan dy="0" x="1563.58255446"><![CDATA[Riverside]]></tspan></text></g></svg>